<?xml version="1.0" encoding="utf-8"?>
<!-- Generator: Adobe Illustrator 18.0.0, SVG Export Plug-In . SVG Version: 6.00 Build 0)  -->
<!DOCTYPE svg PUBLIC "-//W3C//DTD SVG 1.1//EN" "http://www.w3.org/Graphics/SVG/1.1/DTD/svg11.dtd">
<svg version="1.1" id="Layer_1" xmlns="http://www.w3.org/2000/svg" xmlns:xlink="http://www.w3.org/1999/xlink" x="0px" y="0px"
	 width="170px" height="50px" viewBox="0 0 170 50" enable-background="new 0 0 170 50" xml:space="preserve">
<g>
	<g>
		<path fill="#00A029" d="M74.1,41.5c1.3-0.2,2.4-0.8,3.4-1.6c1.7-1.5,2.2-3.4,2-5.5c-0.3-4.3-4.7-6.7-8.8-5.1
			c-2.1,0.8-3,2.4-3.6,4.3c-0.6,2,0.1,3.7,1.2,5.4c1,1.5,2.5,2.3,4.3,2.5c0.2,0,0.4,0.1,0.6,0.1C73.5,41.5,73.8,41.5,74.1,41.5z"/>
		<path fill="#00A029" d="M13.8,41.5c1.3-0.2,2.5-0.7,3.5-1.5c1-0.8,1.9-1.7,2.1-3c0.2-1.4,0.3-2.8-0.1-4.1
			c-0.5-1.6-1.7-2.8-3.2-3.5c-2.9-1.4-6.4-0.4-8.1,2.1c-2.9,4.4,0.4,9.5,4.3,9.9c0.1,0,0.2,0.1,0.3,0.1
			C12.9,41.5,13.3,41.5,13.8,41.5z"/>
		<path fill="#00A029" d="M0,31.7c0,0.7,0,1.3,0.2,2c0.2,0.7,0.4,0.9,1.1,1c0.9,0.1,1.7,0,2.6,0c0.2,0,0.3-0.1,0.4-0.3
			c0.1-0.4,0.2-0.7,0.3-1.1c0.5-2.3,1.8-4,3.7-5.4c1.3-1,2.7-1.4,4.3-1.5c1.3,0,2.6,0,3.9,0.5c1.9,0.8,3.3,2.1,4.3,3.9
			c0.6,1,1.1,2,1.1,3.1c0,0.4,0.4,0.5,0.7,0.6c0.7,0.1,1.4,0.2,2.2,0.2c9.4,0.2,18.7,0,28.1,0c3.6,0,7.2,0,10.8,0
			c0.5,0,0.8-0.2,0.9-0.7c0-0.3,0.2-0.5,0.2-0.8c0.5-2.7,2.3-4.5,4.5-5.9c0.8-0.5,1.8-0.8,2.8-0.9c1.1-0.1,2.2-0.1,3.3,0.1
			c2.1,0.4,3.7,1.7,4.9,3.3c0.4,0.5,0.7,1.1,1,1.7c0.3,0.7,0.6,1.3,0.6,2.1c0.1,0.8,0.3,1,0.9,1.1c1.1,0.1,2.1,0.2,3.2,0
			c0.7-0.1,1-0.4,1.2-1.1c0.1-0.5,0.1-1,0.2-1.5c0.1-2.1,0.1-4.2-0.1-6.3c-0.1-1-0.2-1.1-1.1-1.3c-2.7-0.7-5.5-1.1-8.3-1.6
			c-5-0.9-10-1.7-15-2.5c-0.4-0.1-0.7-0.2-0.9-0.5c-3.6-3.6-7.2-7.2-10.9-10.8c-0.3-0.3-0.7-0.5-1.2-0.5c-5.4,0-10.9,0-16.3,0
			c-5.4,0-10.8,0-16.2,0c-0.5,0-0.9,0.1-1.3,0.5c-4.8,3.9-9.7,7.7-14.5,11.6C0.4,21.4,0,22.5,0,23.8C0,26.4,0,29,0,31.7z M34.9,13.6
			c0-0.6,0.1-1.1,0.1-1.7c0-0.4,0.3-0.7,0.7-0.7c0.4-0.1,0.9-0.1,1.3-0.1c4,0,8,0,12,0c1,0,1.6,0.2,2.3,0.9c2.4,2.4,4.9,4.6,7.2,7
			c0.3,0.3,0.6,0.6,0.8,1c0.4,0.8,0.1,1.5-0.7,1.7c-0.6,0.1-1.2,0.2-1.8,0.2C53.4,22.1,50,22,47.2,22c-4.2,0-7.7,0-11.1-0.2
			c-0.8,0-1-0.2-1-1C34.9,18.4,34.8,16,34.9,13.6z M12.2,19.2c0.3-0.4,0.6-0.8,0.9-1.1c2.1-2.3,4.3-4.4,6.5-6.6
			c0.2-0.2,0.5-0.3,0.7-0.3c1.3,0,2.7,0,4,0c2.6,0,5.1,0,7.7,0.1c0.7,0,0.8,0.1,0.9,0.9c0.2,2.8,0.1,5.7,0,8.5
			c-0.1,1.2-0.1,1.3-1.3,1.3c-3,0.1-5.9,0.1-8.9,0c-2.8,0-5.7,0-8.5,0c-0.9,0-1.7-0.6-2.1-1.4C11.9,20,11.9,19.6,12.2,19.2z"/>
	</g>
</g>
</svg>
