<?xml version="1.0" encoding="utf-8"?>
<!-- Generator: Adobe Illustrator 18.0.0, SVG Export Plug-In . SVG Version: 6.00 Build 0)  -->
<!DOCTYPE svg PUBLIC "-//W3C//DTD SVG 1.1//EN" "http://www.w3.org/Graphics/SVG/1.1/DTD/svg11.dtd">
<svg version="1.1" id="Layer_1" xmlns="http://www.w3.org/2000/svg" xmlns:xlink="http://www.w3.org/1999/xlink" x="0px" y="0px"
	 width="170px" height="50px" viewBox="0 0 170 50" enable-background="new 0 0 170 50" xml:space="preserve">
<g>
	<path fill="#00A029" d="M71.2,15c-23.6,0-47.1,0-70.7,0C0.1,15,0,15,0,15.2c0,4,0,8.1,0,12.1c0.3,0,0.6,0,0.8,0
		c23.1,0,46.2,0,69.3,0c0.1,0,0.3,0,0.4,0c0.5,0,0.7-0.1,0.7-0.2c0-0.1,0-0.2,0-0.2C71.2,22.9,71.2,18.9,71.2,15z"/>
	<path fill="#00A029" d="M33.8,32.2c0.5,0.5,0.8,1.2,1.1,1.8c0.6,1.3,1,2.7,1.4,4c0.1,0.4,0.3,0.6,0.8,0.6
		c11.2-0.1,22.3-0.1,33.5-0.2c2.8,0,5.6-0.1,8.4,0c0.6,0,0.9-0.2,1.1-0.8c0.2-0.9,0.5-1.8,0.9-2.7c1.9-4.1,5-6.7,9.5-7.5
		c1.1-0.2,2.1-0.1,3.2,0.1c2.1,0.5,4,1.3,5.8,2.7c1,0.8,1.8,1.7,2.4,2.9c0.5,1.1,1,2.2,1.4,3.4c0.2,0.4,0.3,0.8,0.5,1.2
		c0.2,0.4,0.4,0.8,0.9,0.7c0.5-0.1,1-0.3,1.1-0.9c0.1-0.3,0.1-0.6,0.2-0.9c0-0.2,0-0.4,0.2-0.5V20.4c-0.3-0.1-0.3-0.4-0.4-0.6
		c-1.6-4.1-3.1-8.3-4.8-12.4c-0.2-0.5-0.5-1-0.7-1.6c-0.5-1.2-1.4-1.8-2.7-1.9c-1.4-0.2-2.8-0.3-4.1-0.3C88.7,3.3,83.8,3,79,2.8
		c-1.4,0-1.4-0.1-1.4,1.3C77.4,11.1,77.5,18,77.4,25c0,1.5,0,3-0.2,4.5c-0.1,1.3-0.2,1.3-1.5,1.4c-11,0.2-22,0.2-33,0.2
		c-2.9,0-5.8,0.1-8.7,0.2c-0.2,0-0.6-0.1-0.7,0.2C33.3,31.8,33.6,32,33.8,32.2z M85,13.3c0-2.5,0-4.3,0.2-6.2
		c0.1-1.1,0.3-1.3,1.4-1.3c3.8,0,7.7,0.4,11.5,0.9c0.8,0.1,1.3,0.5,1.7,1.3c1.3,2.9,2.4,5.9,3.4,8.9c0.3,0.8,0.5,1.6,0.6,2.4
		c0.1,0.8-0.2,1.3-1,1.4c-0.6,0.1-1.2,0.1-1.8,0c-1.7-0.1-3.3-0.2-5-0.4c-3-0.3-6.1-0.6-9.1-1.1c-1.4-0.2-1.6-0.5-1.7-2
		C85,15.9,85,14.3,85,13.3z"/>
	<path fill="#00A029" d="M93.2,47.2c0.1-0.3,0.4-0.2,0.6-0.3c3.7-1,5.9-3.7,6-7.6c0-0.8,0-1.6-0.2-2.3c-0.6-3-3-5.2-6.2-5.8
		c-4.8-0.8-8.7,2.1-9.5,6.8c-0.6,3.6,2,7.7,5.6,8.8c0.2,0.1,0.5,0,0.7,0.3C91.1,47.2,92.2,47.2,93.2,47.2z"/>
	<path fill="#00A029" d="M25,47.2c0.1-0.2,0.3-0.2,0.5-0.2c4.8-0.6,7.9-5.1,6.8-9.8c-1.4-5.7-8.1-8-12.9-4.3c-2.6,2-3.7,4.6-3,7.9
		c0.7,3.1,3.6,5.8,6.8,6.2c0.2,0,0.4,0,0.5,0.2C24.1,47.2,24.5,47.2,25,47.2z"/>
	<path fill="#00A029" d="M0,33.5c0.3,0.2,0.2,0.6,0.2,0.9c0.1,2,0.1,1.9,1.9,2.6c2.7,1,5.5,1.6,8.4,1.7c0.1,0,0.1,0,0.2,0
		c2,0,1.9-0.3,2.1-1.7c0.1-1,0.6-1.8,1-2.7c0.4-0.8,1-1.6,1.5-2.4c0.1-0.2,0.3-0.3,0.2-0.5c-0.1-0.2-0.4-0.1-0.6-0.1c-2,0-4,0-6.1,0
		c-3,0-5.9,0-8.9,0C0,31.9,0,32.7,0,33.5z"/>
</g>
</svg>
