<?xml version="1.0" encoding="utf-8"?>
<!-- Generator: Adobe Illustrator 18.0.0, SVG Export Plug-In . SVG Version: 6.00 Build 0)  -->
<!DOCTYPE svg PUBLIC "-//W3C//DTD SVG 1.1//EN" "http://www.w3.org/Graphics/SVG/1.1/DTD/svg11.dtd">
<svg version="1.1" id="Layer_1" xmlns="http://www.w3.org/2000/svg" xmlns:xlink="http://www.w3.org/1999/xlink" x="0px" y="0px"
	 width="170px" height="50px" viewBox="0 0 170 50" enable-background="new 0 0 170 50" xml:space="preserve">
<g>
	<path fill="#00A029" d="M0,29.2c0.2,0.2,0.2,0.4,0.2,0.6c0,1.7,0,3.4,0,5.1c0,0.6,0,0.6,0.7,0.7c4.2,0.1,8.4,0.1,12.6,0.2
		c0.3,0,0.5-0.1,0.8-0.3c0.7-0.6,1.5-1.3,2.3-1.9c3.8-3,10.1-3.2,14.1,0.9c0.9,1,1.8,1.4,3.2,1.3c2.8-0.1,5.6,0,8.3,0c1,0,2,0,3-0.2
		c0.7-0.1,0.7-0.2,0.8-0.9c0.2-4.3,0-8.7,0-13c0-2-0.1-4-0.1-6c0-0.4-0.1-0.7-0.4-0.9c-0.5-0.4-0.9-0.8-1.4-1.2
		c-0.3-0.3-0.7-0.4-1.1-0.4c-8.5,0-17.1,0-25.6,0c-3.7,0-7.4,0-11.2,0.1c-1.3,0-2.7,0.1-4,0.4c-0.9,0.2-1.5,0.7-1.7,1.6
		c-0.2,0.9-0.2,1.7-0.3,2.6c0,0.2,0.1,0.5-0.2,0.7C0,22.1,0,25.6,0,29.2z"/>
	<path fill="#00A029" d="M24.1,48.7c0.1-0.2,0.3-0.2,0.5-0.2c2.5-0.7,4.2-2.2,5-4.6c0.8-2.7,0.4-5.3-1.7-7.3c-1.1-1.1-2.5-1.6-4-1.8
		c-2.4-0.3-4.4,0.4-6.1,2c-1.2,1.1-1.7,2.6-1.8,4.1c-0.3,3.7,1.8,6.7,5.4,7.6c0.1,0,0.3,0,0.3,0.2C22.6,48.7,23.3,48.7,24.1,48.7z"
		/>
	<path fill="#00A029" d="M43.8,40.6c2.9,0,5.8,0,8.7-0.1c0.5,0,1-0.1,1.5-0.2c0.2,0,0.3-0.1,0.3-0.3c0-0.2-0.2-0.3-0.3-0.3
		c-0.5-0.1-1-0.2-1.5-0.2c-1.5-0.1-3-0.1-4.5-0.2c-0.2,0-0.4-0.1-0.7-0.1c-0.7-0.1-1.2-0.5-1.3-1.1c-0.2-0.7-0.6-0.9-1.2-0.9
		c-0.7,0-1.3-0.1-2,0c-2.9,0-5.7,0.1-8.6,0.1c-0.6,0-0.7,0.1-0.6,0.7c0.1,0.6,0.1,1.2,0.2,1.8c0,0.4,0.3,0.6,0.7,0.6
		c2.3,0.1,4.6,0.1,6.9,0.2C42.3,40.6,43,40.6,43.8,40.6z"/>
	<path fill="#00A029" d="M6.9,40.7c1.5,0,3,0,4.4,0c0.4,0,0.5-0.1,0.6-0.5c0.1-0.7,0.3-1.3,0.4-2c0.1-0.7,0-0.8-0.7-0.8
		c-2.8-0.2-5.7-0.2-8.5-0.1c-0.7,0-1.3,0-2,0.1c-0.4,0-0.5,0.2-0.4,0.6c0.3,0.9,0.7,1.7,1.1,2.6c0.1,0.3,0.4,0.2,0.6,0.2
		C3.9,40.7,5.4,40.7,6.9,40.7z"/>
	<g>
		<path fill="#00A029" d="M140.9,18.9l-5.1-2.4c-1.4-0.6-3.4-2.2-4.3-3.4l-7.3-9.2c-1.1-1.4-3.5-2.6-5.3-2.6H60.6
			C58.6,1.3,57,3,57,5v32.3c0,2,1.6,3.6,3.6,3.6l5,0c0-0.1,0-0.2,0-0.3c0-5.5,4.4-9.9,9.9-9.9c5.5,0,9.9,4.4,9.9,9.9
			c0,0.1,0,0.2,0,0.3l32.2,0c0-0.1,0-0.2,0-0.3c0-5.5,4.4-9.9,9.9-9.9c5.5,0,9.9,4.4,9.9,9.9c0,0.1,0,0.2,0,0.3l1.4,0c0,0,0,0,0,0
			h1.6c2,0,3.6-1.6,3.6-3.6V23.8C144,21.9,142.6,19.7,140.9,18.9z M87,16.3c0,1-0.8,1.8-1.8,1.8H63.6c-1,0-1.8-0.8-1.8-1.8V8.2
			c0-1,0.8-1.8,1.8-1.8h21.6c1,0,1.8,0.8,1.8,1.8V16.3z M104.7,16.3c0,1-0.8,1.8-1.8,1.8H92c-1,0-1.8-0.8-1.8-1.8V8.2
			c0-1,0.8-1.8,1.8-1.8h10.8c1,0,1.8,0.8,1.8,1.8V16.3z M126.3,17.9L110,18.1c-1,0-1.8-0.8-1.8-1.8V8.2c0-1,0.8-1.8,1.8-1.8h7.4
			c1,0,2.4,0.7,3,1.5l6.7,8.6C127.6,17.2,127.3,17.9,126.3,17.9z"/>
		<circle fill="#00A029" cx="75.5" cy="40.9" r="7.7"/>
		<circle fill="#00A029" cx="127.5" cy="40.9" r="7.7"/>
	</g>
</g>
</svg>
