<?xml version="1.0" encoding="utf-8"?>
<!-- Generator: Adobe Illustrator 18.0.0, SVG Export Plug-In . SVG Version: 6.00 Build 0)  -->
<!DOCTYPE svg PUBLIC "-//W3C//DTD SVG 1.1//EN" "http://www.w3.org/Graphics/SVG/1.1/DTD/svg11.dtd">
<svg version="1.1" id="Layer_1" xmlns="http://www.w3.org/2000/svg" xmlns:xlink="http://www.w3.org/1999/xlink" x="0px" y="0px"
	 width="170px" height="50px" viewBox="0 0 170 50" enable-background="new 0 0 170 50" xml:space="preserve">
<g>
	<path fill="#00A029" d="M0,30.1c1.9,0,3.7,0,5.6,0c41.9,0,83.7,0,125.6,0c2.1,0,1.9,0.1,1.9-1c0-9.4,0-18.8,0-28.2
		c0-0.3,0-0.6,0-0.9C89.1,0,45,0,1,0C0.2,0,0,0,0,0.5C0,10.4,0,20.2,0,30.1z"/>
	<path fill="#00A029" d="M112.6,34.2c1.3,1.6,1.8,3.5,2.3,5.5c0.1,0.5,0.4,0.7,0.9,0.7c10.8-0.1,8.3-0.1,19.1-0.2c1.8,0,3.6,0,5.5,0
		c0.5,0,0.7-0.1,0.9-0.6c0.4-1.2,0.7-2.3,1.3-3.4c1.8-3.3,4.5-5.5,8.3-5.9c5.1-0.5,10,3,11.3,8c0.1,0.4,0.2,0.7,0.3,1.1
		c0.1,0.4,0.2,0.8,0.7,0.8c0.6,0,1.2-0.4,1.4-0.8c0.1-0.2,0-0.4,0.2-0.5v-15c-0.3-0.1-0.3-0.5-0.4-0.7c-1.3-3.5-2.6-7-4-10.4
		c-0.4-1-0.8-1.9-1.3-2.8c-0.3-0.5-0.6-0.7-1.2-0.8c-3.4-0.4-6.7-0.6-10.1-0.8c-2.3-0.1-4.6-0.2-6.8-0.4c-0.4,0-0.8,0-1.2,0
		c-0.5,0-0.7,0.2-0.7,0.6c-0.1,1.9-0.1,3.7-0.2,5.6c0,3.5,0,7,0,10.5c0,2.3,0,4.7-0.2,7c-0.1,1.5-0.1,1.5-1.5,1.6
		c-1.7,0.1-3.4,0.2-5.1,0.2c-8.6,0-4,0.1-12.6,0.1c-2.1,0-4.2,0.1-6.2,0.1c-0.2,0-0.3,0-0.5,0C112.4,33.8,112.3,33.9,112.6,34.2z
		 M145.8,16.8c0-1.7,0-3.4,0.2-5.1c0.1-0.8,0.2-0.9,1-0.9c1.6,0,3.2,0,4.8,0.1c1.8,0.1,3.6,0.3,5.3,0.5c1,0.1,1.7,0.6,2.1,1.6
		c1.1,2.6,2.1,5.2,2.9,7.8c0.2,0.7,0.5,1.5,0.6,2.3c0.1,0.7-0.2,1.1-0.9,1.2c-0.5,0.1-1,0.1-1.5,0c-4.4-0.3-8.7-0.8-13.1-1.4
		c-1.1-0.2-1.2-0.2-1.3-1.4C145.8,20,145.9,18.4,145.8,16.8z"/>
	<path fill="#00A029" d="M19.1,48.1c0.1-0.2,0.2-0.2,0.4-0.2c2.4-0.6,4-2.1,5-4.4c1.3-3.2,0.2-6.9-2.7-8.8c-2.9-1.9-7-1.5-9.3,1
		c-1.9,2.1-2.5,4.6-1.7,7.3c0.8,2.6,2.7,4.2,5.3,4.8c0.3,0.1,0.6,0,0.8,0.3C17.6,48.1,18.3,48.1,19.1,48.1z"/>
	<path fill="#00A029" d="M152.9,48.1c0.1-0.2,0.3-0.2,0.5-0.2c3.1-0.4,5.5-3,5.7-6.1c0.1-1.2,0.1-2.3-0.2-3.5
		c-0.8-2.6-2.6-4-5.2-4.6c-3.3-0.8-6.5,0.6-8,3.4c-1,1.8-1.3,3.9-0.7,5.8c1,2.7,2.9,4.6,6,4.9c0.2,0,0.5,0,0.6,0.2
		C152,48.1,152.4,48.1,152.9,48.1z"/>
	<path fill="#00A029" d="M104.4,48.1c0.1-0.2,0.3-0.2,0.5-0.2c3.3-0.8,5.9-4.3,5.6-7.6c-0.4-3.9-3.2-6.6-7-6.7
		c-4.3-0.1-7.8,3.3-7.7,7.4c0.1,3.2,2.5,6,5.8,6.8c0.2,0.1,0.5,0,0.7,0.3C103,48.1,103.7,48.1,104.4,48.1z"/>
	<path fill="#00A029" d="M0,38.1c1.5,0,2.9,0,4.4,0c0.8,0,1.5,0,2.3,0c0.9,0,0.9,0,1.1-0.9c0.2-0.8,0.5-1.5,1-2.1
		c0.2-0.3,0.4-0.6,0.5-0.8c0.3-0.5,0.2-0.6-0.3-0.6c-1.6-0.2-3.2-0.1-4.9-0.1c-1.4,0-2.8,0-4.1,0C0,35.1,0,36.6,0,38.1z"/>
	<path fill="#00A029" d="M37.2,33.5c-4,0-7.5,0-11,0c-0.2,0-0.5-0.1-0.6,0.1c-0.1,0.2,0.1,0.4,0.2,0.5c0.7,1.1,1.4,2.1,1.8,3.3
		c0.1,0.5,0.4,0.6,0.9,0.6c4.2,0,43.4,0,47.6,0c1.4,0,1.7,0,3.1,0c0.4,0,0.7-0.1,0.8-0.6c0.2-1.2,0.8-2.1,1.5-3.1
		c0.1-0.2,0.3-0.4,0.2-0.6c-0.1-0.2-0.4-0.2-0.6-0.2C77.6,33.5,40.2,33.6,37.2,33.5z"/>
	<path fill="#00A029" d="M88.2,33.5c-2.1,0,1.7,0-0.4,0c-0.6,0-0.7,0-0.6,0.7c0.1,1.2,0.1,2.4,0.2,3.6c0,0.3,0.1,0.5,0.4,0.6
		c2.8,1-0.2,1.8,2.8,1.9c1.7,0.1,1.8,0,2.2-1.7c0.3-1.6,1.1-2.9,1.9-4.2c0.2-0.3,0.5-0.5,0.4-0.8c-0.1-0.2-0.6-0.1-0.9-0.1
		C92.2,33.5,90.2,33.5,88.2,33.5z"/>
</g>
</svg>
