<?xml version="1.0" encoding="utf-8"?>
<!-- Generator: Adobe Illustrator 18.0.0, SVG Export Plug-In . SVG Version: 6.00 Build 0)  -->
<!DOCTYPE svg PUBLIC "-//W3C//DTD SVG 1.1//EN" "http://www.w3.org/Graphics/SVG/1.1/DTD/svg11.dtd">
<svg version="1.1" id="Layer_1" xmlns="http://www.w3.org/2000/svg" xmlns:xlink="http://www.w3.org/1999/xlink" x="0px" y="0px"
	 width="170px" height="50px" viewBox="0 0 170 50" enable-background="new 0 0 170 50" xml:space="preserve">
<g>
	<path fill="#00A029" d="M0,31c0.9,0,1.9,0,2.8,0c21,0,42.1,0,63.1,0c1.1,0,1,0.1,1-1c0-9.2,0-18.5,0-27.7c0-0.3,0-0.6,0-0.9
		c-22.1,0-44.3,0-66.4,0C0.1,1.4,0,1.4,0,1.9C0,11.6,0,21.3,0,31z"/>
	<path fill="#00A029" d="M76.9,1.4c0,0.2,0,0.5,0,0.7c0,9.3,0,18.5,0,27.8c0,0.2,0,0.4,0,0.6c0,0.3,0.1,0.4,0.4,0.4
		c0.2,0,0.3,0,0.5,0c20.2,0,40.4,0,60.6,0c0.2,0,0.3,0,0.5,0c0.3,0,0.4-0.1,0.4-0.4c0-0.2,0-0.4,0-0.6c0-9.3,0-18.6,0-27.9
		c0-0.2,0-0.4,0-0.6C118.5,1.4,97.7,1.4,76.9,1.4z"/>
	<path fill="#00A029" d="M106.3,35c1.2,1.6,1.7,3.5,2.3,5.4c0.1,0.5,0.4,0.7,0.9,0.7c10.5-0.1,20.9-0.1,31.4-0.2c1.8,0,3.5,0,5.3,0
		c0.5,0,0.7-0.1,0.8-0.6c0.4-1.1,0.7-2.3,1.3-3.3c1.8-3.3,4.4-5.4,8.1-5.8c5-0.5,9.8,2.9,11,7.8c0.1,0.4,0.2,0.7,0.3,1.1
		c0.1,0.4,0.2,0.8,0.7,0.8c0.6,0,1.2-0.4,1.3-0.8c0.1-0.2,0-0.4,0.2-0.5V24.8c-0.3-0.1-0.3-0.5-0.4-0.7c-1.3-3.4-2.5-6.8-3.9-10.2
		c-0.4-0.9-0.8-1.9-1.3-2.8c-0.3-0.5-0.6-0.7-1.2-0.8c-3.3-0.4-6.5-0.6-9.8-0.8c-2.2-0.1-4.4-0.2-6.6-0.4c-0.4,0-0.8,0-1.1,0
		c-0.5,0-0.6,0.2-0.7,0.6c-0.1,1.8-0.1,3.6-0.2,5.5c0,3.5,0,6.9,0,10.4c0,2.3,0,4.6-0.2,6.9c-0.1,1.4-0.1,1.5-1.5,1.6
		c-1.7,0.1-3.3,0.2-5,0.2c-8.4,0-16.7,0.1-25.1,0.1c-2,0-4,0.1-6.1,0.1c-0.2,0-0.3,0-0.5,0C106.2,34.6,106.1,34.7,106.3,35z
		 M151.5,17.9c0-1.7,0-3.3,0.2-5c0.1-0.8,0.2-0.9,1-0.9c1.5,0,3.1,0,4.6,0.1c1.7,0.1,3.5,0.2,5.2,0.5c1,0.1,1.7,0.6,2.1,1.6
		c1.1,2.5,2,5.1,2.8,7.7c0.2,0.7,0.5,1.5,0.5,2.2c0.1,0.7-0.2,1.1-0.9,1.2c-0.5,0.1-1,0.1-1.4,0c-4.3-0.3-8.5-0.7-12.7-1.4
		c-1.1-0.2-1.1-0.2-1.2-1.3C151.5,21,151.5,19.4,151.5,17.9z"/>
	<path fill="#00A029" d="M55.8,48.6c0.1-0.2,0.2-0.2,0.4-0.2c2.3-0.6,3.9-2.1,4.9-4.3c1.2-2.7,0.6-5.2-1.2-7.3
		c-1.8-2.2-4.3-2.9-7.1-2.3c-3.2,0.7-5.1,3.3-5.4,6.8c-0.2,3.2,2.4,6.4,5.5,7c0.3,0.1,0.6,0,0.8,0.3C54.4,48.6,55.1,48.6,55.8,48.6z
		"/>
	<path fill="#00A029" d="M18.5,48.6c0.1-0.2,0.2-0.2,0.4-0.2c2.3-0.6,3.9-2.1,4.8-4.3c1.3-3.2,0.2-6.8-2.7-8.6c-2.8-1.8-6.8-1.4-9,1
		c-1.9,2-2.4,4.6-1.7,7.1c0.7,2.5,2.6,4.1,5.2,4.7c0.3,0.1,0.6,0,0.8,0.3C17.1,48.6,17.8,48.6,18.5,48.6z"/>
	<path fill="#00A029" d="M158.4,48.6c0.1-0.2,0.3-0.2,0.5-0.2c3-0.4,5.3-2.9,5.5-6c0.1-1.1,0.1-2.3-0.2-3.4c-0.8-2.5-2.6-3.9-5-4.5
		c-3.2-0.7-6.3,0.6-7.8,3.3c-1,1.8-1.3,3.9-0.7,5.7c0.9,2.7,2.8,4.5,5.8,4.8c0.2,0,0.4,0,0.6,0.2C157.5,48.6,157.9,48.6,158.4,48.6z
		"/>
	<path fill="#00A029" d="M99.4,48.6c0.1-0.2,0.3-0.2,0.5-0.2c3.2-0.8,5.7-4.3,5.4-7.4c-0.4-3.9-3.1-6.5-6.8-6.6
		c-4.1-0.1-7.6,3.2-7.5,7.3c0.1,3.1,2.4,5.9,5.7,6.7c0.2,0.1,0.5,0,0.6,0.3C98.1,48.6,98.8,48.6,99.4,48.6z"/>
	<path fill="#00A029" d="M0,38.8c1.4,0,2.9,0,4.3,0c0.7,0,1.5,0,2.2,0c0.9,0,0.9,0,1.1-0.9c0.2-0.7,0.5-1.4,0.9-2.1
		c0.2-0.3,0.4-0.5,0.5-0.8c0.3-0.5,0.2-0.6-0.3-0.6c-1.6-0.2-3.1-0.1-4.7-0.1c-1.3,0-2.7,0-4,0C0,35.9,0,37.4,0,38.8z"/>
	<path fill="#00A029" d="M36.2,34.3c-3.9,0-7.3,0-10.7,0c-0.2,0-0.4-0.1-0.6,0.1c-0.1,0.2,0.1,0.4,0.2,0.5c0.7,1,1.3,2.1,1.7,3.3
		c0.1,0.4,0.4,0.6,0.8,0.6c4.1,0,8.1,0,12.2,0c1.4,0,2.8,0,4.1,0c0.4,0,0.7-0.1,0.7-0.6c0.2-1.1,0.8-2.1,1.4-3
		c0.1-0.2,0.3-0.4,0.2-0.6c-0.1-0.2-0.4-0.2-0.6-0.2C42.5,34.3,39.1,34.4,36.2,34.3z"/>
	<path fill="#00A029" d="M83.7,34.3c-2.1,0-4.1,0-6.2,0c-0.6,0-0.6,0-0.6,0.7c0.1,1.2,0.1,2.4,0.2,3.5c0,0.3,0.1,0.5,0.4,0.6
		c2.8,1,5.6,1.7,8.5,1.9c1.7,0.1,1.8,0,2.1-1.6c0.3-1.5,1.1-2.8,1.9-4.1c0.2-0.3,0.5-0.5,0.3-0.8c-0.1-0.2-0.6-0.1-0.8-0.1
		C87.5,34.3,85.6,34.3,83.7,34.3z"/>
	<path fill="#00A029" d="M66.7,34.3c-1.3,0-2.7,0-4,0c-0.2,0-0.4-0.1-0.4,0.1c-0.1,0.2,0.1,0.3,0.2,0.4c0.7,1,1.3,2,1.7,3.1
		c0.2,0.4,0.5,0.6,0.9,0.7c2,0.2,3.9,0.1,5.9,0.1c0.3,0,0.4-0.1,0.4-0.4c0-1.2,0-2.4,0-3.6c0-0.4-0.2-0.4-0.5-0.4
		C69.5,34.3,68.1,34.3,66.7,34.3z"/>
</g>
</svg>
