<?xml version="1.0" encoding="utf-8"?>
<!-- Generator: Adobe Illustrator 18.0.0, SVG Export Plug-In . SVG Version: 6.00 Build 0)  -->
<!DOCTYPE svg PUBLIC "-//W3C//DTD SVG 1.1//EN" "http://www.w3.org/Graphics/SVG/1.1/DTD/svg11.dtd">
<svg version="1.1" id="Layer_1" xmlns="http://www.w3.org/2000/svg" xmlns:xlink="http://www.w3.org/1999/xlink" x="0px" y="0px"
	 width="170px" height="50px" viewBox="0 0 170 50" enable-background="new 0 0 170 50" xml:space="preserve">
<g>
	<path fill="#00A029" d="M0.1,23.2c0,1.4,0.1,2.8,0.1,4.2c0.1,2,0,3.9,0,5.9c0,0.6,0.1,1.2,0.2,1.8c0.2,0.8,0.7,1.3,1.5,1.4
		c0.9,0,1.7,0,2.6,0c0.3,0,0.5-0.2,0.6-0.5c0.2-0.5,0.3-1.1,0.5-1.6c0.7-2.8,2.6-4.5,5.1-5.8c0.6-0.3,1.3-0.4,2-0.5
		c1.2-0.1,2.3-0.1,3.5,0.1c1.7,0.3,3.1,1.2,4.2,2.5c0.9,1,1.6,2.1,2,3.4c0.1,0.4,0.2,0.7,0.2,1.1c0,0.7,0.3,1,1,1.1
		c0.7,0.1,1.3,0.2,2,0.2c3.5,0,7,0.2,10.4,0.1c9.9-0.2,19.8-0.1,29.6-0.1c0.7,0,0.7,0,1-0.7c0.1-0.5,0.3-0.9,0.4-1.4
		c0.5-2.1,1.8-3.6,3.5-4.9c1.3-1,2.8-1.5,4.5-1.5c0.6,0,1.2,0,1.8,0.1c2.4,0.3,4.2,1.6,5.6,3.5c0.8,1.1,1.4,2.2,1.6,3.6
		c0.1,1,0.4,1.2,1.4,1.2c1,0.1,2,0.2,2.9,0c0.2,0,0.4-0.1,0.6-0.2c0.5-0.2,0.8-0.5,0.8-1.1c0.1-1,0.1-1.9,0.1-2.9
		c0-1.9,0.1-3.9-0.1-5.8c0-0.5-0.3-0.7-0.7-0.9c-0.6-0.2-1.1-0.3-1.7-0.4c-4-0.8-8.1-1.5-12.1-2.2c-3.4-0.6-6.7-1.1-10.1-1.7
		c-0.6-0.1-1-0.3-1.4-0.7c-3.4-3.3-6.7-6.7-10.1-10c-1.2-1.2-2.4-2.3-3.6-3.5c-0.2-0.2-0.5-0.3-0.7-0.4h-2.5c-0.1,0-0.1,0.1-0.2,0.1
		c-0.1,0-0.2,0-0.3,0c-5.1,0-10.2,0-15.2,0H16.5c-2.2,0-4.4,0-6.7,0C7.5,6.8,5.6,7.6,3.9,9c-2.2,1.7-3.3,4.1-3.7,6.8
		C-0.1,18.2,0,20.7,0.1,23.2z M36.1,13.7c0.1-1.1,0.3-1.4,1.4-1.4c0.1,0,0.1,0,0.2,0c4.6-0.1,9.2,0,13.8-0.1c0.3,0,0.6,0.1,0.8,0.3
		c0.9,0.9,1.8,1.7,2.7,2.6c1.9,1.8,3.8,3.5,5.5,5.5c0.2,0.3,0.5,0.6,0.6,0.9c0.3,0.7,0,1.3-0.7,1.5c-0.7,0.2-1.4,0.2-2.2,0.3
		c-3.5,0.1-6.9,0.1-11.3,0.1c-2.6,0-6.2,0-9.8-0.2c-0.7,0-0.8-0.1-1-0.8c0-0.1,0-0.3,0-0.4C36.1,19.2,36,16.5,36.1,13.7z"/>
	<path fill="#00A029" d="M14.3,43.2c1.1-0.2,2.2-0.5,3.1-1.1c0.7-0.5,1.3-1,1.8-1.6c0.8-0.9,1.1-2,1.1-3.1c0-0.7,0-1.5-0.1-2.2
		c-0.2-1.9-1.4-3.2-3-4.1c-2.9-1.8-6.9-0.9-8.7,1.9c-2.9,4.4,0.2,9.5,4.1,10.1c0.2,0,0.5,0.1,0.7,0.1C13.7,43.2,14,43.2,14.3,43.2z"
		/>
	<path fill="#00A029" d="M31,6.9c1.5,0,3.1,0,4.6,0c3.4,0,6.9,0,10.3,0c0.3,0,0.6,0,0.8-0.1C41.5,6.8,36.2,6.8,31,6.9
		C31,6.8,30.9,6.8,31,6.9C30.9,6.8,31,6.8,31,6.9z"/>
	<path fill="#00A029" d="M31,6.9C31,6.8,31,6.8,31,6.9c-4.8-0.1-9.7-0.1-14.5-0.1c0,0,0,0.1,0,0.1c0.7,0,1.5,0,2.2,0
		C22.8,6.9,26.9,6.9,31,6.9z"/>
	<path fill="#00A029" d="M75.5,43.1c3.3,0,6-2.8,6.2-6.1c0.2-4.6-3.1-6.9-6.1-6.9c-4.4,0-6.5,2.4-6.7,6.2
		C68.6,40.2,71.6,43.1,75.5,43.1z"/>
</g>
</svg>
