<?xml version="1.0" encoding="utf-8"?>
<!-- Generator: Adobe Illustrator 18.0.0, SVG Export Plug-In . SVG Version: 6.00 Build 0)  -->
<!DOCTYPE svg PUBLIC "-//W3C//DTD SVG 1.1//EN" "http://www.w3.org/Graphics/SVG/1.1/DTD/svg11.dtd">
<svg version="1.1" id="Layer_1" xmlns="http://www.w3.org/2000/svg" xmlns:xlink="http://www.w3.org/1999/xlink" x="0px" y="0px"
	 width="170px" height="50px" viewBox="0 0 170 50" enable-background="new 0 0 170 50" xml:space="preserve">
<g>
	<path fill="#00A029" d="M45.6,31.9c0,0.5,0,1,0.1,1.5c0.1,0.8,0.6,1.3,1.4,1.4c0.8,0.1,1.6,0,2.4-0.1c0.3,0,0.3-0.3,0.4-0.5
		c0.2-1.2,0.5-2.3,1.2-3.3c1.4-2.3,3.4-4,6.1-4.5c3.5-0.7,8.2,1.2,9.6,5.8c0.2,0.7,0.4,1.3,0.6,2c0.1,0.3,0.3,0.5,0.6,0.5
		c0.2,0,0.3,0,0.5,0c13.4,0,26.7,0,40.1,0c0.1,0,0.2,0,0.2,0c0.8,0,0.8,0,0.9-0.8c0.3-1.7,1-3.2,2.1-4.5c3.8-4.6,11-4,14,1.2
		c0.6,1.1,1.1,2.3,1.3,3.5c0.1,0.5,0.3,0.6,0.8,0.6c0.9,0,1.8,0.1,2.7,0c1.2-0.1,1.6-0.5,1.7-1.7c0-0.2,0.1-0.4,0.1-0.6v-5
		c-0.2-0.6-0.1-1.2-0.2-1.9c-0.1-0.9-0.2-0.9-1-1.1c-1.9-0.5-3.9-0.9-5.9-1.2c-5.8-1-11.6-2-17.4-3c-0.4-0.1-0.6-0.2-0.9-0.5
		c-3.4-3.4-6.7-6.9-10.1-10.2c-0.7-0.7-1.5-1.1-2.6-1.2c-2.9-0.1-5.7-0.1-8.6-0.1c-7.7,0-15.3,0-23,0c-0.4,0-0.8,0.1-1.1,0.4
		c-5.1,4.1-10.2,8.2-15.2,12.3c-0.5,0.4-0.9,0.9-0.9,1.6c0,0.5,0,1,0,1.5C45.6,26.8,45.5,29.4,45.6,31.9z M80.1,12.8
		c0.1-1.4,0.2-1.6,1.7-1.6c4.5-0.1,9-0.1,13.6-0.1c0.3,0,0.6,0.1,0.8,0.3c2.1,2.2,4.3,4.3,6.4,6.5c0.7,0.7,1.4,1.4,1.9,2.2
		c0.5,0.8,0.3,1.5-0.6,1.7c-0.6,0.2-1.2,0.2-1.8,0.2c-3.5,0.2-7,0.1-10.5,0c-1.4,0-2.9,0-4.3,0c-2.2,0-4.3-0.1-6.5-0.2
		c-0.4,0-0.6-0.2-0.6-0.6C80,18.5,80,15.7,80.1,12.8z M57.6,19.3c0.3-0.5,0.7-1,1.1-1.4c2-2.2,4.2-4.3,6.3-6.5
		c0.2-0.2,0.5-0.3,0.8-0.3c4,0.1,7.9,0.1,11.9,0.2c0.5,0,0.6,0.2,0.6,0.6c0.1,2.8,0.1,5.7,0.1,8.5c0,0.3,0,0.6-0.1,0.9
		c-0.1,0.4-0.3,0.6-0.7,0.7c-0.2,0-0.4,0.1-0.6,0.1c-2.9,0.2-5.9,0-8.8,0c-2.7,0-5.3,0-8,0c-1,0-1.7-0.3-2.3-1
		C57.3,20.5,57.2,20,57.6,19.3z"/>
	<path fill="#00A029" d="M0,29.7c3.6,0,7.2,0,10.8,0c0.4,0,0.7-0.1,0.9-0.3c0.9-0.9,1.9-1.7,3.1-2.2c3.2-1.3,6.2-0.8,8.8,1.5
		c0.9,0.8,1.8,1.2,3.1,1.2c3-0.1,6,0,9,0c0.6,0,0.6,0,0.6-0.6c0-4,0-8,0-12c0-1.1-0.1-2.1-0.3-3.2C36,13.6,36,13.3,35.8,13
		c-0.3-0.4-0.6-0.7-1.1-0.7c-1.4-0.1-2.9-0.1-4.3-0.2c-8.4-0.1-16.8-0.1-25.2,0c-1.1,0-2.2,0.1-3.3,0.1c-0.8,0-1.3,0.5-1.5,1.2
		c-0.2,0.7-0.3,1.5-0.3,2.2c0,0.4,0,0.8-0.1,1.3C0,21.2,0,25.4,0,29.7z"/>
	<path fill="#00A029" d="M124.7,35.1c0-2.9-1.2-4.7-3.7-5.7c-2.4-1-5.4-0.5-7,1.4c-1.6,1.9-2.4,4-1.4,6.5c0.6,1.4,1.3,2.7,2.7,3.5
		c2.4,1.3,5.5,1.1,7.4-0.6C124.1,38.8,124.7,37.1,124.7,35.1z"/>
	<path fill="#00A029" d="M18.3,41.6c3.5,0,6.2-2.7,6.2-6.1c0-3.8-2.7-6.6-6.4-6.6c-3.4,0-6.2,2.9-6.2,6.5
		C11.9,38.8,14.7,41.6,18.3,41.6z"/>
	<path fill="#00A029" d="M58.8,41.5c3.9,0.5,7.3-4.2,5.9-8.2c-1-2.9-3.8-4.7-7-4.3c-2.8,0.4-5.1,2.8-5.2,5.8c-0.1,2.6,0.8,4.6,3.1,6
		c0.7,0.5,1.6,0.6,2.4,0.6C58.3,41.5,58.6,41.5,58.8,41.5z"/>
	<path fill="#00A029" d="M34.8,34.8c2.4,0.1,4.8,0.1,7.2,0c0.2,0,0.5-0.1,0.7-0.1c0.1,0,0.2-0.1,0.2-0.2c0-0.1-0.1-0.2-0.2-0.2
		c-0.1,0-0.3-0.1-0.5-0.1c-1.1-0.1-2.3-0.1-3.4-0.1c-0.5,0-1.1-0.1-1.6-0.2c-0.5-0.1-0.8-0.4-0.9-0.9c-0.1-0.4-0.4-0.6-0.7-0.6
		c-1.1-0.2-2.3-0.1-3.5-0.1c-1.6-0.1-3.2,0-4.9-0.1c-0.6,0-0.6,0.1-0.6,0.6c0,0.5,0.1,0.9,0.1,1.4c0,0.5,0.2,0.6,0.7,0.6
		C29.9,34.8,32.4,34.8,34.8,34.8z"/>
	<path fill="#00A029" d="M5.2,32.2c-1.6,0-2.9,0-4.2,0c-0.6,0-0.6,0-0.3,0.6c0.3,0.6,0.6,1.2,0.9,1.8c0.1,0.3,0.3,0.4,0.6,0.4
		c2.2,0,4.5,0,6.7,0c0.3,0,0.5-0.1,0.6-0.4c0.1-0.5,0.2-1.1,0.3-1.6c0.1-0.4-0.1-0.6-0.5-0.6C7.8,32.2,6.3,32.2,5.2,32.2z"/>
</g>
</svg>
