<?xml version="1.0" encoding="utf-8"?>
<!-- Generator: Adobe Illustrator 18.0.0, SVG Export Plug-In . SVG Version: 6.00 Build 0)  -->
<!DOCTYPE svg PUBLIC "-//W3C//DTD SVG 1.1//EN" "http://www.w3.org/Graphics/SVG/1.1/DTD/svg11.dtd">
<svg version="1.1" id="Layer_1" xmlns="http://www.w3.org/2000/svg" xmlns:xlink="http://www.w3.org/1999/xlink" x="0px" y="0px"
	 width="170px" height="50px" viewBox="0 0 170 50" enable-background="new 0 0 170 50" xml:space="preserve">
<g>
	<path fill="#00A029" d="M66.9,0C44.8,0,22.6,0,0.5,0C0.1,0,0,0.1,0,0.5C0,10.8,0,21,0,31.3c0.3,0,0.5,0,0.8,0c21.7,0,43.4,0,65.1,0
		c0.1,0,0.2,0,0.4,0c0.4,0,0.7-0.1,0.6-0.6c0-0.2,0-0.4,0-0.6C66.9,20,66.9,10,66.9,0z"/>
	<path fill="#00A029" d="M31.8,35.9c0.5,0.5,0.7,1.1,1,1.7c0.5,1.2,0.9,2.5,1.3,3.8c0.1,0.4,0.3,0.6,0.8,0.5
		c10.5-0.1,21-0.1,31.5-0.2c2.6,0,5.3,0,7.9,0c0.6,0,0.9-0.2,1-0.8c0.2-0.8,0.5-1.7,0.9-2.5c1.8-3.9,4.7-6.3,8.9-7
		c1-0.2,2-0.1,3,0.1c2,0.4,3.8,1.3,5.4,2.5c1,0.7,1.7,1.6,2.3,2.8c0.5,1,0.9,2.1,1.3,3.2c0.1,0.4,0.3,0.8,0.5,1.1
		c0.2,0.3,0.4,0.7,0.9,0.6c0.5-0.1,0.9-0.3,1-0.8c0.1-0.3,0.1-0.6,0.2-0.9c0-0.2,0-0.4,0.2-0.5V24.8c-0.3-0.1-0.3-0.4-0.3-0.6
		c-1.5-3.9-2.9-7.8-4.5-11.7c-0.2-0.5-0.4-1-0.6-1.5C93.9,10,93,9.5,91.8,9.3c-1.3-0.1-2.6-0.2-3.9-0.3c-4.6-0.3-9.1-0.6-13.7-0.7
		c-1.3,0-1.3-0.1-1.3,1.2c-0.2,6.5-0.1,13.1-0.1,19.6c0,1.4,0,2.9-0.2,4.3c-0.1,1.2-0.2,1.3-1.4,1.3c-10.3,0.2-20.7,0.1-31,0.2
		c-2.7,0-5.4,0.1-8.1,0.2c-0.2,0-0.5-0.1-0.6,0.2C31.3,35.5,31.6,35.7,31.8,35.9z M79.9,18.2c0-2.3,0-4.1,0.2-5.8
		c0.1-1.1,0.3-1.2,1.3-1.2c3.6,0,7.2,0.3,10.8,0.9c0.8,0.1,1.2,0.5,1.6,1.2c1.3,2.7,2.3,5.5,3.2,8.4c0.2,0.8,0.5,1.5,0.6,2.3
		c0.1,0.8-0.2,1.2-1,1.3c-0.6,0.1-1.2,0.1-1.7,0c-1.6-0.1-3.1-0.2-4.7-0.4c-2.9-0.3-5.7-0.5-8.5-1c-1.3-0.2-1.5-0.5-1.6-1.9
		C79.9,20.6,79.9,19.1,79.9,18.2z"/>
	<path fill="#00A029" d="M87.6,50c0.1-0.2,0.3-0.2,0.5-0.3c3.5-0.9,5.5-3.5,5.6-7.1c0-0.7,0-1.5-0.2-2.2c-0.6-2.8-2.8-4.9-5.9-5.4
		c-4.5-0.7-8.2,1.9-8.9,6.4c-0.5,3.4,1.9,7.2,5.2,8.2c0.2,0.1,0.5,0,0.6,0.3C85.7,50,86.6,50,87.6,50z"/>
	<path fill="#00A029" d="M23.5,50c0.1-0.2,0.3-0.2,0.5-0.2c4.5-0.6,7.4-4.8,6.3-9.2c-1.3-5.3-7.7-7.5-12.1-4
		c-2.4,1.9-3.5,4.4-2.8,7.4c0.6,2.9,3.4,5.4,6.4,5.8c0.2,0,0.4,0,0.5,0.2C22.6,50,23,50,23.5,50z"/>
	<path fill="#00A029" d="M0,37.1c0.3,0.2,0.2,0.6,0.2,0.8c0.1,1.8,0.1,1.8,1.8,2.4c2.6,0.9,5.2,1.5,7.9,1.6c0.1,0,0.1,0,0.2,0
		c1.8,0,1.8-0.3,1.9-1.6c0.1-0.9,0.6-1.7,1-2.5c0.4-0.8,0.9-1.5,1.4-2.3c0.1-0.2,0.3-0.3,0.2-0.5c-0.1-0.2-0.3-0.1-0.5-0.1
		c-1.9,0-3.8,0-5.7,0c-2.8,0-5.6,0-8.3,0C0,35.6,0,36.4,0,37.1z"/>
</g>
</svg>
