<?xml version="1.0" encoding="utf-8"?>
<!-- Generator: Adobe Illustrator 18.0.0, SVG Export Plug-In . SVG Version: 6.00 Build 0)  -->
<!DOCTYPE svg PUBLIC "-//W3C//DTD SVG 1.1//EN" "http://www.w3.org/Graphics/SVG/1.1/DTD/svg11.dtd">
<svg version="1.1" id="Layer_1" xmlns="http://www.w3.org/2000/svg" xmlns:xlink="http://www.w3.org/1999/xlink" x="0px" y="0px"
	 width="170px" height="50px" viewBox="0 0 170 50" enable-background="new 0 0 170 50" xml:space="preserve">
<g>
	<path fill="#00A029" d="M84,18.9l-5.1-2.4c-1.4-0.6-3.4-2.2-4.3-3.4l-7.3-9.2c-1.1-1.4-3.5-2.6-5.3-2.6H3.6C1.6,1.3,0,3,0,5v32.3
		c0,2,1.6,3.6,3.6,3.6l5,0c0-0.1,0-0.2,0-0.3c0-5.5,4.4-9.9,9.9-9.9s9.9,4.4,9.9,9.9c0,0.1,0,0.2,0,0.3l32.2,0c0-0.1,0-0.2,0-0.3
		c0-5.5,4.4-9.9,9.9-9.9c5.5,0,9.9,4.4,9.9,9.9c0,0.1,0,0.2,0,0.3l1.4,0c0,0,0,0,0,0h1.6c2,0,3.6-1.6,3.6-3.6V23.8
		C87,21.9,85.7,19.7,84,18.9z M30.1,16.3c0,1-0.8,1.8-1.8,1.8H6.6c-1,0-1.8-0.8-1.8-1.8V8.2c0-1,0.8-1.8,1.8-1.8h21.6
		c1,0,1.8,0.8,1.8,1.8V16.3z M47.7,16.3c0,1-0.8,1.8-1.8,1.8H35c-1,0-1.8-0.8-1.8-1.8V8.2c0-1,0.8-1.8,1.8-1.8h10.8
		c1,0,1.8,0.8,1.8,1.8V16.3z M69.3,17.9L53,18.1c-1,0-1.8-0.8-1.8-1.8V8.2c0-1,0.8-1.8,1.8-1.8h7.4c1,0,2.4,0.7,3,1.5l6.7,8.6
		C70.7,17.2,70.3,17.9,69.3,17.9z"/>
	<circle fill="#00A029" cx="18.5" cy="40.9" r="7.7"/>
	<circle fill="#00A029" cx="70.5" cy="40.9" r="7.7"/>
</g>
</svg>
