<?xml version="1.0" encoding="utf-8"?>
<!-- Generator: Adobe Illustrator 18.0.0, SVG Export Plug-In . SVG Version: 6.00 Build 0)  -->
<!DOCTYPE svg PUBLIC "-//W3C//DTD SVG 1.1//EN" "http://www.w3.org/Graphics/SVG/1.1/DTD/svg11.dtd">
<svg version="1.1" id="Layer_1" xmlns="http://www.w3.org/2000/svg" xmlns:xlink="http://www.w3.org/1999/xlink" x="0px" y="0px"
	 width="932px" height="631.4px" viewBox="0 0 932 631.4" enable-background="new 0 0 932 631.4" xml:space="preserve">
<g>
	<g>
		<g>
			<path fill="#81C784" d="M217.6,140.1h-66.9c-1.7,0-3-1.4-3-3V23.8c0-1.7,1.4-3,3-3h66.9c1.7,0,3,1.4,3,3V137
				C220.7,138.7,219.3,140.1,217.6,140.1z"/>
		</g>
	</g>
	<g>
		<g>
			<path fill="#81C784" d="M256.3,609.3h-66c-1.7,0-3-1.3-3-3V491c0-1.7,1.3-3,3-3h66c1.7,0,3,1.3,3,3v115.3
				C259.3,607.9,258,609.3,256.3,609.3z"/>
		</g>
	</g>
	<g>
		<g>
			<path fill="#81C784" d="M21.1,606.4v-66c0-1.7,1.3-3,3-3h105.4c1.7,0,3,1.3,3,3v66c0,1.7-1.3,3-3,3H24.1
				C22.5,609.4,21.1,608,21.1,606.4z"/>
		</g>
	</g>
	<g>
		<g>
			<path fill="#81C784" d="M21.1,520.7v-66c0-1.7,1.3-3,3-3h105.4c1.7,0,3,1.3,3,3v66c0,1.7-1.3,3-3,3H24.1
				C22.5,523.7,21.1,522.4,21.1,520.7z"/>
		</g>
	</g>
	<g>
		<g>
			<path fill="#64B5F6" d="M800.1,307V154.9c0-1.7,1.3-3,3-3h105.4c1.7,0,3,1.3,3,3V307c0,1.7-1.3,3-3,3H803.1
				C801.4,310,800.1,308.7,800.1,307z"/>
		</g>
	</g>
	<g>
		<g>
			<path fill="#81C784" d="M800.1,605.6V497.8c0-1.7,1.3-3,3-3h105.4c1.7,0,3,1.3,3,3v107.8c0,1.7-1.3,3-3,3H803.1
				C801.4,608.6,800.1,607.2,800.1,605.6z"/>
		</g>
	</g>
	<g>
		<g>
			<path fill="#81C784" d="M800.1,476.8V369c0-1.7,1.3-3,3-3h105.4c1.7,0,3,1.3,3,3v107.8c0,1.7-1.3,3-3,3H803.1
				C801.4,479.8,800.1,478.5,800.1,476.8z"/>
		</g>
	</g>
	<g>
		<g>
			<path fill="#81C784" d="M21.1,435.1v-66c0-1.7,1.3-3,3-3h105.4c1.7,0,3,1.3,3,3v66c0,1.7-1.3,3-3,3H24.1
				C22.5,438.1,21.1,436.8,21.1,435.1z"/>
		</g>
	</g>
	<g>
		<g>
			<path fill="#81C784" d="M21.1,305.9v-66c0-1.7,1.3-3,3-3h105.4c1.7,0,3,1.3,3,3v66c0,1.7-1.3,3-3,3H24.1
				C22.5,308.9,21.1,307.6,21.1,305.9z"/>
		</g>
	</g>
	<g>
		<g>
			<path fill="#81C784" d="M21.1,220.3v-66c0-1.7,1.3-3,3-3h105.4c1.7,0,3,1.3,3,3v66c0,1.7-1.3,3-3,3H24.1
				C22.5,223.3,21.1,222,21.1,220.3z"/>
		</g>
	</g>
	<g>
		<g>
			<path fill="#81C784" d="M21.1,136.3V23.8c0-1.7,1.3-3,3-3h105.4c1.7,0,3,1.3,3,3v112.5c0,1.7-1.3,3-3,3H24.1
				C22.5,139.3,21.1,138,21.1,136.3z"/>
		</g>
	</g>
	<g>
		<g>
			<path fill="#81C784" d="M800.1,136.4V24.8c0-1.7,1.3-3,3-3h105.4c1.7,0,3,1.3,3,3v111.6c0,1.7-1.3,3-3,3H803.1
				C801.5,139.4,800.1,138.1,800.1,136.4z"/>
		</g>
	</g>
	<g>
		<g>
			<path fill="#81C784" d="M353.9,609.3h-66c-1.7,0-3-1.3-3-3V491c0-1.7,1.3-3,3-3h66c1.7,0,3,1.3,3,3v115.3
				C356.9,607.9,355.6,609.3,353.9,609.3z"/>
		</g>
	</g>
	<g>
		<g>
			<path fill="#81C784" d="M451.5,609.3h-66c-1.7,0-3-1.3-3-3V491c0-1.7,1.3-3,3-3h66c1.7,0,3,1.3,3,3v115.3
				C454.5,607.9,453.1,609.3,451.5,609.3z"/>
		</g>
	</g>
	<g>
		<g>
			<path fill="#81C784" d="M549.1,609.3h-66c-1.7,0-3-1.3-3-3V491c0-1.7,1.3-3,3-3h66c1.7,0,3,1.3,3,3v115.3
				C552.1,607.9,550.7,609.3,549.1,609.3z"/>
		</g>
	</g>
	<g>
		<g>
			<path fill="#81C784" d="M646.7,609.3h-66c-1.7,0-3-1.3-3-3V491c0-1.7,1.3-3,3-3h66c1.7,0,3,1.3,3,3v115.3
				C649.7,607.9,648.3,609.3,646.7,609.3z"/>
		</g>
	</g>
	<g>
		<g>
			<path fill="#81C784" d="M744.3,609.3h-66c-1.7,0-3-1.3-3-3V491c0-1.7,1.3-3,3-3h66c1.7,0,3,1.3,3,3v115.3
				C747.3,607.9,745.9,609.3,744.3,609.3z"/>
		</g>
	</g>
	<g>
		<g>
			<path fill="#81C784" d="M256.3,439.9h-66c-1.7,0-3-1.3-3-3V323.7c0-1.7,1.3-3,3-3h66c1.7,0,3,1.3,3,3v113.2
				C259.3,438.6,258,439.9,256.3,439.9z"/>
		</g>
	</g>
	<g>
		<g>
			<path fill="#81C784" d="M337.6,439.9h-66c-1.7,0-3-1.3-3-3V323.7c0-1.7,1.3-3,3-3h66c1.7,0,3,1.3,3,3v113.2
				C340.6,438.6,339.3,439.9,337.6,439.9z"/>
		</g>
	</g>
	<g>
		<g>
			<path fill="#81C784" d="M419,439.9h-66c-1.7,0-3-1.3-3-3V323.7c0-1.7,1.3-3,3-3h66c1.7,0,3,1.3,3,3v113.2
				C422,438.6,420.6,439.9,419,439.9z"/>
		</g>
	</g>
	<g>
		<g>
			<path fill="#81C784" d="M500.3,439.9h-66c-1.7,0-3-1.3-3-3V323.7c0-1.7,1.3-3,3-3h66c1.7,0,3,1.3,3,3v113.2
				C503.3,438.6,501.9,439.9,500.3,439.9z"/>
		</g>
	</g>
	<g>
		<g>
			<path fill="#81C784" d="M581.6,439.9h-66c-1.7,0-3-1.3-3-3V323.7c0-1.7,1.3-3,3-3h66c1.7,0,3,1.3,3,3v113.2
				C584.6,438.6,583.3,439.9,581.6,439.9z"/>
		</g>
	</g>
	<g>
		<g>
			<path fill="#81C784" d="M662.9,439.9h-66c-1.7,0-3-1.3-3-3V323.7c0-1.7,1.3-3,3-3h66c1.7,0,3,1.3,3,3v113.2
				C665.9,438.6,664.6,439.9,662.9,439.9z"/>
		</g>
	</g>
	<g>
		<g>
			<path fill="#81C784" d="M744.3,439.9h-66c-1.7,0-3-1.3-3-3V323.7c0-1.7,1.3-3,3-3h66c1.7,0,3,1.3,3,3v113.2
				C747.3,438.6,745.9,439.9,744.3,439.9z"/>
		</g>
	</g>
	<g>
		<g>
			<path fill="#81C784" d="M256.3,310.3h-66c-1.7,0-3-1.3-3-3V192.1c0-1.7,1.3-3,3-3h66c1.7,0,3,1.3,3,3v115.3
				C259.3,309,258,310.3,256.3,310.3z"/>
		</g>
	</g>
	<g>
		<g>
			<path fill="#81C784" d="M337.6,310.3h-66c-1.7,0-3-1.3-3-3V192.1c0-1.7,1.3-3,3-3h66c1.7,0,3,1.3,3,3v115.3
				C340.6,309,339.3,310.3,337.6,310.3z"/>
		</g>
	</g>
	<g>
		<g>
			<path fill="#81C784" d="M419,310.3h-66c-1.7,0-3-1.3-3-3V192.1c0-1.7,1.3-3,3-3h66c1.7,0,3,1.3,3,3v115.3
				C422,309,420.6,310.3,419,310.3z"/>
		</g>
	</g>
	<g>
		<g>
			<path fill="#81C784" d="M500.3,310.3h-66c-1.7,0-3-1.3-3-3V192.1c0-1.7,1.3-3,3-3h66c1.7,0,3,1.3,3,3v115.3
				C503.3,309,501.9,310.3,500.3,310.3z"/>
		</g>
	</g>
	<g>
		<g>
			<path fill="#81C784" d="M581.6,310.3h-66c-1.7,0-3-1.3-3-3V192.1c0-1.7,1.3-3,3-3h66c1.7,0,3,1.3,3,3v115.3
				C584.6,309,583.3,310.3,581.6,310.3z"/>
		</g>
	</g>
	<g>
		<g>
			<path fill="#81C784" d="M662.9,310.3h-66c-1.7,0-3-1.3-3-3V192.1c0-1.7,1.3-3,3-3h66c1.7,0,3,1.3,3,3v115.3
				C665.9,309,664.6,310.3,662.9,310.3z"/>
		</g>
	</g>
	<g>
		<g>
			<path fill="#81C784" d="M744.3,310.3h-66c-1.7,0-3-1.3-3-3V192.1c0-1.7,1.3-3,3-3h66c1.7,0,3,1.3,3,3v115.3
				C747.3,309,745.9,310.3,744.3,310.3z"/>
		</g>
	</g>
	<g>
		<g>
			<path fill="#64B5F6" d="M312,140.1h-66.9c-1.7,0-3-1.4-3-3V23.8c0-1.7,1.4-3,3-3H312c1.7,0,3,1.4,3,3V137
				C315,138.7,313.6,140.1,312,140.1z"/>
		</g>
	</g>
	<g>
		<g>
			<path fill="#64B5F6" d="M406.3,140.1h-66.9c-1.7,0-3-1.4-3-3V23.8c0-1.7,1.4-3,3-3h66.9c1.7,0,3,1.4,3,3V137
				C409.3,138.7,407.9,140.1,406.3,140.1z"/>
		</g>
	</g>
	<g>
		<g>
			<path fill="#81C784" d="M500.6,140.1h-66.9c-1.7,0-3-1.4-3-3V23.8c0-1.7,1.4-3,3-3h66.9c1.7,0,3,1.4,3,3V137
				C503.6,138.7,502.2,140.1,500.6,140.1z"/>
		</g>
	</g>
	<g>
		<g>
			<path fill="#81C784" d="M594.9,140.1H528c-1.7,0-3-1.4-3-3V23.8c0-1.7,1.4-3,3-3h66.9c1.7,0,3,1.4,3,3V137
				C597.9,138.7,596.6,140.1,594.9,140.1z"/>
		</g>
	</g>
	<g>
		<g>
			<path fill="#81C784" d="M689.2,140.1h-66.9c-1.7,0-3-1.4-3-3V23.8c0-1.7,1.4-3,3-3h66.9c1.7,0,3,1.4,3,3V137
				C692.2,138.7,690.9,140.1,689.2,140.1z"/>
		</g>
	</g>
	<g>
		<g>
			<path fill="#81C784" d="M783.5,140.1h-66.9c-1.7,0-3-1.4-3-3V23.8c0-1.7,1.4-3,3-3h66.9c1.7,0,3,1.4,3,3V137
				C786.5,138.7,785.2,140.1,783.5,140.1z"/>
		</g>
	</g>
</g>
<g>
	<g>
		<g>
			<path fill="#90A4AE" d="M59.1,337.7c0,0.5-0.1,0.9-0.3,1.2c-0.2,0.4-0.5,0.7-0.8,0.9c-0.3,0.2-0.7,0.4-1.1,0.6
				c-0.4,0.1-0.8,0.2-1.3,0.2h-1l-0.6,2.5c0,0,0,0.1,0,0.1c0,0,0,0.1,0,0.1c0,0.1,0,0.2,0,0.2c0,0.1,0.1,0.1,0.2,0.2
				c0.1,0,0.2,0.1,0.3,0.1c0.2,0,0.3,0,0.5,0l-0.1,0.4h-3.4l0.1-0.4c0.1,0,0.2,0,0.4,0c0.2,0,0.3,0,0.4-0.1c0.1-0.1,0.2-0.1,0.3-0.2
				c0.1-0.1,0.1-0.2,0.1-0.3l1.3-5.8c0,0,0-0.1,0-0.1c0,0,0-0.1,0-0.1c0-0.1,0-0.2,0-0.2c0-0.1-0.1-0.1-0.2-0.1
				c-0.1,0-0.2-0.1-0.4-0.1c-0.1,0-0.3,0-0.4,0l0.1-0.4h3.6c0.6,0,1.2,0.1,1.6,0.4C58.9,336.8,59.1,337.2,59.1,337.7z M57.3,339.3
				c0.2-0.2,0.3-0.5,0.3-0.7c0.1-0.3,0.1-0.5,0.1-0.7c0-0.2,0-0.3-0.1-0.5c0-0.2-0.1-0.3-0.2-0.4c-0.1-0.1-0.3-0.2-0.4-0.3
				c-0.2-0.1-0.4-0.1-0.7-0.1h-0.7l-0.8,3.6h0.6c0.4,0,0.8-0.1,1.1-0.2C56.8,339.8,57.1,339.5,57.3,339.3z"/>
			<path fill="#90A4AE" d="M62.7,343.4L62.7,343.4c-0.1,0.1-0.2,0.2-0.3,0.3c-0.1,0.1-0.2,0.2-0.4,0.3c-0.1,0.1-0.3,0.2-0.5,0.2
				c-0.2,0.1-0.4,0.1-0.6,0.1c-0.5,0-1-0.2-1.3-0.6c-0.3-0.4-0.5-0.9-0.5-1.6c0-0.5,0.1-0.9,0.3-1.4s0.4-0.8,0.7-1.2
				c0.3-0.3,0.6-0.6,1-0.8c0.4-0.2,0.8-0.3,1.2-0.3c0.3,0,0.5,0,0.8,0.1s0.4,0.2,0.6,0.2l1-0.3l0.1,0.1l-0.9,3.6
				c0,0.1-0.1,0.3-0.1,0.4c0,0.2,0,0.3,0,0.4c0,0.2,0,0.4,0.1,0.4c0.1,0.1,0.2,0.1,0.5,0.1c0.1,0,0.2,0,0.3,0s0.2,0,0.3-0.1
				l-0.1,0.4c-0.3,0.1-0.6,0.2-0.8,0.3c-0.2,0.1-0.4,0.1-0.6,0.1c-0.3,0-0.5-0.1-0.6-0.2C62.8,343.8,62.7,343.6,62.7,343.4z
				 M63.5,339.8c0-0.1,0-0.2,0-0.4s-0.1-0.2-0.2-0.3c-0.1-0.1-0.2-0.2-0.3-0.2s-0.3-0.1-0.5-0.1c-0.3,0-0.5,0.1-0.8,0.3
				s-0.5,0.4-0.7,0.7c-0.2,0.3-0.4,0.6-0.5,1c-0.1,0.4-0.2,0.8-0.2,1.2c0,0.2,0,0.4,0,0.6s0.1,0.3,0.2,0.5c0.1,0.1,0.2,0.3,0.3,0.3
				c0.1,0.1,0.3,0.1,0.5,0.1c0.2,0,0.4-0.1,0.7-0.2c0.2-0.1,0.5-0.3,0.8-0.6L63.5,339.8z"/>
			<path fill="#90A4AE" d="M68.8,344c-0.1-1-0.2-1.7-0.2-2.3c-0.1-0.6-0.2-1.2-0.3-1.9h-0.1c-0.2,0.8-0.3,1.5-0.6,2.1
				c-0.2,0.6-0.5,1-0.7,1.4c-0.2,0.3-0.5,0.6-0.7,0.7s-0.4,0.2-0.6,0.2c-0.2,0-0.4-0.1-0.4-0.2c-0.1-0.1-0.1-0.3-0.1-0.4
				c0-0.1,0.1-0.3,0.2-0.4c0.1-0.1,0.3-0.2,0.5-0.2c0.1,0,0.2,0,0.3,0.1c0.1,0,0.2,0.1,0.4,0.2c0.4-0.5,0.7-1.2,1-2s0.4-1.5,0.4-2.2
				h-1l0.1-0.4l1.9-0.1c0.2,0.6,0.4,1.3,0.5,1.9c0.1,0.7,0.2,1.4,0.3,2.2l2.6-4l1-0.1l0.1,0.1l-0.8,3.6c0,0.1-0.1,0.3-0.1,0.4
				c0,0.2,0,0.3,0,0.4c0,0.2,0,0.4,0.1,0.4s0.2,0.1,0.5,0.1c0.1,0,0.2,0,0.3,0c0.1,0,0.2,0,0.3-0.1l-0.1,0.4
				c-0.3,0.1-0.6,0.2-0.8,0.3c-0.2,0.1-0.4,0.1-0.6,0.1c-0.3,0-0.5-0.1-0.7-0.2c-0.1-0.2-0.2-0.3-0.2-0.6c0-0.1,0-0.2,0-0.3
				c0-0.1,0-0.2,0.1-0.4l0.7-3.1l-0.1,0l-2.9,4.4H68.8z"/>
			<path fill="#90A4AE" d="M80.4,343.5l-0.1,0.4c-0.3,0.1-0.6,0.2-0.8,0.3c-0.2,0.1-0.4,0.1-0.6,0.1c-0.3,0-0.5-0.1-0.7-0.2
				c-0.2-0.2-0.2-0.3-0.2-0.6c0-0.1,0-0.2,0-0.3c0-0.1,0-0.2,0.1-0.4l0.6-2.1c0-0.2,0.1-0.3,0.1-0.4s0-0.2,0-0.3
				c0-0.3-0.1-0.5-0.2-0.6c-0.1-0.1-0.3-0.2-0.5-0.2c-0.2,0-0.5,0.1-0.8,0.2s-0.5,0.4-0.8,0.7l-1,4.1h-1.1l0.8-3.7
				c0-0.1,0-0.2,0.1-0.4c0-0.2,0.1-0.3,0.1-0.4c0-0.2,0-0.4-0.1-0.4c-0.1-0.1-0.2-0.1-0.4-0.1c-0.1,0-0.2,0-0.3,0
				c-0.1,0-0.2,0.1-0.3,0.1l0.1-0.4c0.3-0.1,0.6-0.2,0.8-0.3c0.2-0.1,0.4-0.1,0.6-0.1c0.3,0,0.5,0.1,0.6,0.2
				c0.1,0.2,0.2,0.4,0.2,0.7h0c0.4-0.3,0.8-0.6,1.1-0.7s0.6-0.2,1-0.2c0.4,0,0.6,0.1,0.8,0.3c0.2,0.2,0.3,0.5,0.3,0.8
				c0,0.1,0,0.2,0,0.4c0,0.2-0.1,0.3-0.1,0.5l-0.5,1.8c0,0.1-0.1,0.3-0.1,0.4c0,0.2,0,0.3,0,0.4c0,0.2,0,0.4,0.1,0.4
				c0.1,0.1,0.2,0.1,0.5,0.1c0.1,0,0.2,0,0.3,0C80.2,343.5,80.3,343.5,80.4,343.5z"/>
			<path fill="#90A4AE" d="M84.6,343.4L84.6,343.4c-0.1,0.1-0.2,0.2-0.3,0.3c-0.1,0.1-0.2,0.2-0.4,0.3c-0.1,0.1-0.3,0.2-0.5,0.2
				c-0.2,0.1-0.4,0.1-0.6,0.1c-0.5,0-1-0.2-1.3-0.6c-0.3-0.4-0.5-0.9-0.5-1.6c0-0.5,0.1-0.9,0.3-1.4s0.4-0.8,0.7-1.2
				c0.3-0.3,0.6-0.6,1-0.8c0.4-0.2,0.8-0.3,1.2-0.3c0.3,0,0.5,0,0.8,0.1s0.4,0.2,0.6,0.2l1-0.3l0.1,0.1l-0.9,3.6
				c0,0.1-0.1,0.3-0.1,0.4c0,0.2,0,0.3,0,0.4c0,0.2,0,0.4,0.1,0.4c0.1,0.1,0.2,0.1,0.5,0.1c0.1,0,0.2,0,0.3,0s0.2,0,0.3-0.1
				l-0.1,0.4c-0.3,0.1-0.6,0.2-0.8,0.3c-0.2,0.1-0.4,0.1-0.6,0.1c-0.3,0-0.5-0.1-0.6-0.2C84.7,343.8,84.6,343.6,84.6,343.4z
				 M85.4,339.8c0-0.1,0-0.2,0-0.4s-0.1-0.2-0.2-0.3c-0.1-0.1-0.2-0.2-0.3-0.2s-0.3-0.1-0.5-0.1c-0.3,0-0.5,0.1-0.8,0.3
				s-0.5,0.4-0.7,0.7c-0.2,0.3-0.4,0.6-0.5,1c-0.1,0.4-0.2,0.8-0.2,1.2c0,0.2,0,0.4,0,0.6s0.1,0.3,0.2,0.5c0.1,0.1,0.2,0.3,0.3,0.3
				c0.1,0.1,0.3,0.1,0.5,0.1c0.2,0,0.4-0.1,0.7-0.2c0.2-0.1,0.5-0.3,0.8-0.6L85.4,339.8z"/>
		</g>
		<g>
			<g>
				<rect x="26.7" y="339.8" fill="#90A4AE" width="15.2" height="1"/>
			</g>
			<g>
				<g>
					<path fill="#90A4AE" d="M35,345.1c-0.1-0.2-0.1-0.5,0.2-0.7l6.5-4.1l-6.5-4.1c-0.2-0.1-0.3-0.5-0.2-0.7s0.5-0.3,0.7-0.2
						l7.1,4.5c0.1,0.1,0.2,0.3,0.2,0.4s-0.1,0.3-0.2,0.4l-7.1,4.5c-0.1,0.1-0.2,0.1-0.3,0.1C35.3,345.3,35.1,345.2,35,345.1z"/>
				</g>
			</g>
		</g>
	</g>
	<g>
		<g>
			<path fill="#90A4AE" d="M156.7,576.7c0.1-0.2,0.3-0.4,0.4-0.5c0.2-0.1,0.4-0.2,0.7-0.2c0.3,0,0.6,0.1,0.9,0.2
				c0.3,0.1,0.5,0.3,0.7,0.5c0.2,0.2,0.3,0.5,0.4,0.8s0.2,0.6,0.3,0.8h0c0-0.2,0.1-0.4,0.2-0.7s0.2-0.4,0.3-0.6
				c0.1-0.2,0.3-0.4,0.5-0.5c0.2-0.1,0.5-0.2,0.7-0.2c0.4,0,0.8,0.1,1.1,0.3c0.3,0.2,0.6,0.4,0.8,0.7c0.2,0.3,0.4,0.7,0.5,1
				c0.1,0.4,0.2,0.8,0.2,1.1v3.9l-0.4-0.1c0-0.1,0-0.2,0-0.4s-0.1-0.3-0.1-0.4c-0.1-0.1-0.1-0.2-0.2-0.3c-0.1-0.1-0.2-0.1-0.3-0.1
				l-5.8-1.3c0,0-0.1,0-0.1,0c0,0-0.1,0-0.1,0c-0.1,0-0.1,0-0.2,0s-0.1,0.1-0.1,0.2c-0.1,0.1-0.1,0.2-0.1,0.3c0,0.1,0,0.2-0.1,0.3
				l-0.4-0.1v-3.5c0-0.3,0-0.5,0.1-0.7C156.5,577.1,156.6,576.9,156.7,576.7z M159.3,577.9c-0.2-0.2-0.4-0.3-0.7-0.4
				s-0.5-0.1-0.8-0.1c-0.2,0-0.4,0-0.5,0.1c-0.1,0.1-0.3,0.2-0.3,0.3c-0.1,0.1-0.1,0.3-0.2,0.4c0,0.2,0,0.3,0,0.5c0,0.1,0,0.3,0,0.4
				c0,0.2,0,0.3,0,0.4l3.1,0.7v-0.7c0-0.4-0.1-0.7-0.2-1C159.6,578.3,159.5,578,159.3,577.9z M163.2,578.3c-0.2-0.2-0.5-0.3-0.7-0.4
				s-0.5-0.1-0.8-0.1c-0.4,0-0.7,0.1-0.9,0.4s-0.3,0.7-0.3,1.1c0,0.2,0,0.4,0,0.6c0,0.2,0,0.3,0,0.4l2.8,0.6c0.1,0,0.1,0,0.1,0
				c0,0,0.1,0,0.1,0c0.2,0,0.3-0.1,0.4-0.3c0.1-0.2,0.1-0.5,0.1-0.8c0-0.4-0.1-0.7-0.2-1C163.6,578.6,163.4,578.4,163.2,578.3z"/>
			<path fill="#90A4AE" d="M163.6,571.8L163.6,571.8c0.1,0.2,0.3,0.4,0.4,0.5c0.1,0.2,0.2,0.3,0.3,0.5c0.1,0.2,0.2,0.3,0.2,0.5
				c0,0.1,0.1,0.3,0.1,0.6c0,0.4-0.1,0.6-0.3,0.8s-0.5,0.3-0.8,0.3c-0.1,0-0.2,0-0.3,0c-0.1,0-0.3-0.1-0.6-0.1l-1.8-0.4
				c-0.2,0-0.3-0.1-0.4-0.1c-0.1,0-0.3,0-0.4,0c-0.2,0-0.4,0-0.4,0.1s-0.1,0.2-0.1,0.4c0,0.1,0,0.2,0,0.3c0,0.1,0.1,0.2,0.1,0.3
				l-0.4-0.1c-0.1-0.3-0.2-0.6-0.3-0.8s-0.1-0.4-0.1-0.5c0-0.3,0.1-0.5,0.2-0.7c0.1-0.1,0.3-0.2,0.6-0.2c0.1,0,0.2,0,0.3,0
				c0.1,0,0.2,0,0.3,0.1l2.1,0.5c0.2,0,0.3,0.1,0.4,0.1c0.1,0,0.2,0,0.3,0c0.3,0,0.5-0.1,0.6-0.2c0.1-0.1,0.2-0.3,0.2-0.5
				c0-0.2-0.1-0.5-0.2-0.7s-0.3-0.5-0.6-0.8l-4.2-1l-0.1-1l0.1-0.1l3.6,0.8c0.2,0,0.3,0.1,0.5,0.1s0.3,0,0.3,0c0.2,0,0.4,0,0.4-0.1
				s0.1-0.2,0.1-0.5c0-0.1,0-0.2,0-0.3c0-0.1,0-0.2-0.1-0.3l0.4,0.1c0.1,0.3,0.2,0.6,0.3,0.8s0.1,0.4,0.1,0.6c0,0.3-0.1,0.5-0.3,0.7
				S163.8,571.8,163.6,571.8z"/>
			<path fill="#90A4AE" d="M159.3,563.1c0.2,0,0.4,0.1,0.5,0.2s0.2,0.3,0.2,0.5c0,0.1,0,0.2-0.1,0.4c0,0.1-0.1,0.3-0.1,0.3
				c0.2,0.2,0.4,0.4,0.7,0.6c0.3,0.2,0.6,0.4,1,0.6c0.4-0.1,0.7-0.2,0.9-0.2c0.3-0.1,0.5-0.1,0.8-0.2c0.2-0.1,0.4-0.2,0.5-0.3
				c0.1-0.2,0.2-0.4,0.2-0.6c0-0.1,0-0.2,0-0.4c0-0.2-0.1-0.3-0.1-0.4l0.4,0.1c0.2,0.4,0.3,0.6,0.3,0.8c0,0.2,0.1,0.4,0.1,0.6
				c0,0.3-0.1,0.5-0.2,0.7c-0.1,0.2-0.4,0.3-0.7,0.4c-0.3,0.1-0.5,0.1-0.7,0.2c-0.2,0-0.4,0.1-0.6,0.1c0.3,0.2,0.5,0.3,0.7,0.4
				c0.2,0.1,0.4,0.3,0.8,0.6c0.3,0.2,0.5,0.4,0.6,0.6c0.1,0.2,0.2,0.4,0.2,0.6c0,0.2-0.1,0.3-0.2,0.4c-0.1,0.1-0.2,0.2-0.4,0.2
				c-0.2,0-0.3-0.1-0.5-0.2s-0.2-0.3-0.2-0.6c0-0.1,0-0.2,0.1-0.4s0.1-0.2,0.1-0.4c-0.1-0.1-0.3-0.3-0.6-0.6c-0.3-0.2-0.6-0.5-1-0.7
				c-0.3,0.1-0.6,0.1-0.9,0.2c-0.3,0.1-0.6,0.2-0.8,0.2c-0.3,0.1-0.5,0.2-0.6,0.3s-0.1,0.3-0.1,0.5c0,0.1,0,0.2,0,0.3
				c0,0.1,0.1,0.2,0.1,0.3l-0.4-0.1c-0.1-0.3-0.2-0.5-0.3-0.8c-0.1-0.2-0.1-0.4-0.1-0.5c0-0.3,0.1-0.5,0.2-0.6s0.4-0.3,0.7-0.4
				c0.4-0.1,0.7-0.2,0.8-0.2c0.1,0,0.3-0.1,0.5-0.1c-0.3-0.2-0.5-0.3-0.7-0.4c-0.2-0.1-0.4-0.3-0.8-0.6c-0.3-0.2-0.5-0.5-0.6-0.7
				c-0.1-0.2-0.2-0.4-0.2-0.6c0-0.2,0.1-0.3,0.2-0.4C159,563.2,159.1,563.1,159.3,563.1z"/>
			<path fill="#90A4AE" d="M156.6,559.9c0.2,0,0.4,0.1,0.6,0.2c0.2,0.1,0.2,0.3,0.2,0.5c0,0.2-0.1,0.4-0.2,0.5
				c-0.2,0.1-0.3,0.2-0.5,0.2c-0.2,0-0.4-0.1-0.5-0.2c-0.2-0.1-0.2-0.3-0.2-0.5c0-0.2,0.1-0.4,0.2-0.5
				C156.2,559.9,156.4,559.9,156.6,559.9z M163.8,560.3l0.4,0.1c0.1,0.3,0.2,0.6,0.3,0.8c0.1,0.2,0.1,0.4,0.1,0.5
				c0,0.3-0.1,0.5-0.2,0.7s-0.3,0.2-0.6,0.2c-0.1,0-0.2,0-0.3,0c-0.1,0-0.2,0-0.4-0.1l-2.4-0.6c-0.1,0-0.3-0.1-0.4-0.1
				c-0.2,0-0.3,0-0.4,0c-0.2,0-0.4,0-0.4,0.1c-0.1,0.1-0.1,0.2-0.1,0.4c0,0.1,0,0.2,0,0.3c0,0.1,0,0.2,0.1,0.3l-0.4-0.1
				c-0.1-0.3-0.2-0.6-0.3-0.8c-0.1-0.2-0.1-0.4-0.1-0.6c0-0.3,0.1-0.5,0.2-0.7c0.1-0.1,0.3-0.2,0.6-0.2c0.1,0,0.2,0,0.3,0
				c0.1,0,0.2,0,0.3,0.1l2.4,0.6c0.1,0,0.3,0.1,0.4,0.1c0.1,0,0.3,0,0.3,0c0.2,0,0.4,0,0.4-0.1s0.1-0.3,0.1-0.5c0-0.1,0-0.2,0-0.3
				C163.8,560.4,163.8,560.3,163.8,560.3z"/>
			<path fill="#90A4AE" d="M159.3,554c0.7,0,1.3,0.1,2,0.2c0.7,0.1,1.2,0.3,1.7,0.6c0.5,0.3,1,0.7,1.2,1.1c0.3,0.4,0.4,0.9,0.4,1.5
				c0,0.7-0.2,1.2-0.6,1.6c-0.4,0.4-1,0.6-1.7,0.6c-1,0-1.8-0.3-2.5-0.9c-0.7-0.6-1.1-1.4-1.1-2.2c0-0.2,0-0.4,0.1-0.7
				c0.1-0.2,0.2-0.4,0.3-0.6c-0.9,0-1.6,0.2-2.1,0.5c-0.5,0.3-0.8,0.7-0.8,1.2c0,0.2,0,0.3,0,0.5c0,0.1,0.1,0.3,0.1,0.4
				c0,0.1,0.1,0.2,0.2,0.2c0.1,0.1,0.1,0.1,0.1,0.2l-0.3,0.2c-0.3-0.3-0.5-0.6-0.6-0.8c-0.1-0.3-0.2-0.6-0.2-1c0-0.3,0.1-0.7,0.2-1
				c0.1-0.3,0.4-0.6,0.7-0.8c0.3-0.2,0.7-0.4,1.1-0.5C158.1,554.1,158.7,554,159.3,554z M162.8,555.7c-0.4-0.2-0.9-0.3-1.4-0.4
				c-0.5-0.1-1.1-0.2-1.6-0.2c-0.3,0.2-0.5,0.4-0.6,0.6c-0.1,0.2-0.2,0.4-0.2,0.6c0,0.6,0.3,1.1,1,1.5c0.7,0.4,1.5,0.6,2.3,0.6
				c0.6,0,1-0.1,1.3-0.2c0.3-0.2,0.4-0.4,0.4-0.8c0-0.3-0.1-0.6-0.4-0.9C163.5,556.1,163.2,555.9,162.8,555.7z"/>
		</g>
		<g>
			<g>
				<rect x="160" y="592" fill="#90A4AE" width="1" height="15.2"/>
			</g>
			<g>
				<g>
					<path fill="#90A4AE" d="M155.7,600.3c0.2-0.1,0.5-0.1,0.7,0.2l4.1,6.5l4.1-6.5c0.1-0.2,0.5-0.3,0.7-0.2
						c0.2,0.1,0.3,0.5,0.2,0.7l-4.5,7.1c-0.1,0.1-0.3,0.2-0.4,0.2s-0.3-0.1-0.4-0.2l-4.5-7.1c-0.1-0.1-0.1-0.2-0.1-0.3
						C155.5,600.6,155.6,600.4,155.7,600.3z"/>
				</g>
			</g>
		</g>
	</g>
	<g>
		<g>
			<path fill="#90A4AE" d="M768.1,576.7c0.1-0.2,0.3-0.4,0.4-0.5c0.2-0.1,0.4-0.2,0.7-0.2c0.3,0,0.6,0.1,0.9,0.2
				c0.3,0.1,0.5,0.3,0.7,0.5c0.2,0.2,0.3,0.5,0.4,0.8s0.2,0.6,0.3,0.8h0c0-0.2,0.1-0.4,0.2-0.7s0.2-0.4,0.3-0.6
				c0.1-0.2,0.3-0.4,0.5-0.5c0.2-0.1,0.5-0.2,0.7-0.2c0.4,0,0.8,0.1,1.1,0.3c0.3,0.2,0.6,0.4,0.8,0.7c0.2,0.3,0.4,0.7,0.5,1
				c0.1,0.4,0.2,0.8,0.2,1.1v3.9l-0.4-0.1c0-0.1,0-0.2,0-0.4s-0.1-0.3-0.1-0.4c-0.1-0.1-0.1-0.2-0.2-0.3c-0.1-0.1-0.2-0.1-0.3-0.1
				l-5.8-1.3c0,0-0.1,0-0.1,0c0,0-0.1,0-0.1,0c-0.1,0-0.1,0-0.2,0s-0.1,0.1-0.1,0.2c-0.1,0.1-0.1,0.2-0.1,0.3c0,0.1,0,0.2-0.1,0.3
				l-0.4-0.1v-3.5c0-0.3,0-0.5,0.1-0.7C767.9,577.1,767.9,576.9,768.1,576.7z M770.7,577.9c-0.2-0.2-0.4-0.3-0.7-0.4
				s-0.5-0.1-0.8-0.1c-0.2,0-0.4,0-0.5,0.1c-0.1,0.1-0.3,0.2-0.3,0.3c-0.1,0.1-0.1,0.3-0.2,0.4c0,0.2,0,0.3,0,0.5c0,0.1,0,0.3,0,0.4
				c0,0.2,0,0.3,0,0.4l3.1,0.7v-0.7c0-0.4-0.1-0.7-0.2-1C771,578.3,770.8,578,770.7,577.9z M774.5,578.3c-0.2-0.2-0.5-0.3-0.7-0.4
				s-0.5-0.1-0.8-0.1c-0.4,0-0.7,0.1-0.9,0.4s-0.3,0.7-0.3,1.1c0,0.2,0,0.4,0,0.6c0,0.2,0,0.3,0,0.4l2.8,0.6c0.1,0,0.1,0,0.1,0
				c0,0,0.1,0,0.1,0c0.2,0,0.3-0.1,0.4-0.3c0.1-0.2,0.1-0.5,0.1-0.8c0-0.4-0.1-0.7-0.2-1C774.9,578.6,774.8,578.4,774.5,578.3z"/>
			<path fill="#90A4AE" d="M775,571.8L775,571.8c0.1,0.2,0.3,0.4,0.4,0.5c0.1,0.2,0.2,0.3,0.3,0.5c0.1,0.2,0.2,0.3,0.2,0.5
				c0,0.1,0.1,0.3,0.1,0.6c0,0.4-0.1,0.6-0.3,0.8s-0.5,0.3-0.8,0.3c-0.1,0-0.2,0-0.3,0c-0.1,0-0.3-0.1-0.6-0.1l-1.8-0.4
				c-0.2,0-0.3-0.1-0.4-0.1c-0.1,0-0.3,0-0.4,0c-0.2,0-0.4,0-0.4,0.1s-0.1,0.2-0.1,0.4c0,0.1,0,0.2,0,0.3c0,0.1,0.1,0.2,0.1,0.3
				l-0.4-0.1c-0.1-0.3-0.2-0.6-0.3-0.8s-0.1-0.4-0.1-0.5c0-0.3,0.1-0.5,0.2-0.7c0.1-0.1,0.3-0.2,0.6-0.2c0.1,0,0.2,0,0.3,0
				c0.1,0,0.2,0,0.3,0.1l2.1,0.5c0.2,0,0.3,0.1,0.4,0.1c0.1,0,0.2,0,0.3,0c0.3,0,0.5-0.1,0.6-0.2c0.1-0.1,0.2-0.3,0.2-0.5
				c0-0.2-0.1-0.5-0.2-0.7s-0.3-0.5-0.6-0.8l-4.2-1l-0.1-1l0.1-0.1l3.6,0.8c0.2,0,0.3,0.1,0.5,0.1s0.3,0,0.3,0c0.2,0,0.4,0,0.4-0.1
				s0.1-0.2,0.1-0.5c0-0.1,0-0.2,0-0.3c0-0.1,0-0.2-0.1-0.3l0.4,0.1c0.1,0.3,0.2,0.6,0.3,0.8s0.1,0.4,0.1,0.6c0,0.3-0.1,0.5-0.3,0.7
				S775.2,571.8,775,571.8z"/>
			<path fill="#90A4AE" d="M770.7,563.1c0.2,0,0.4,0.1,0.5,0.2s0.2,0.3,0.2,0.5c0,0.1,0,0.2-0.1,0.4c0,0.1-0.1,0.3-0.1,0.3
				c0.2,0.2,0.4,0.4,0.7,0.6c0.3,0.2,0.6,0.4,1,0.6c0.4-0.1,0.7-0.2,0.9-0.2c0.3-0.1,0.5-0.1,0.8-0.2c0.2-0.1,0.4-0.2,0.5-0.3
				c0.1-0.2,0.2-0.4,0.2-0.6c0-0.1,0-0.2,0-0.4c0-0.2-0.1-0.3-0.1-0.4l0.4,0.1c0.2,0.4,0.3,0.6,0.3,0.8c0,0.2,0.1,0.4,0.1,0.6
				c0,0.3-0.1,0.5-0.2,0.7c-0.1,0.2-0.4,0.3-0.7,0.4c-0.3,0.1-0.5,0.1-0.7,0.2c-0.2,0-0.4,0.1-0.6,0.1c0.3,0.2,0.5,0.3,0.7,0.4
				c0.2,0.1,0.4,0.3,0.8,0.6c0.3,0.2,0.5,0.4,0.6,0.6c0.1,0.2,0.2,0.4,0.2,0.6c0,0.2-0.1,0.3-0.2,0.4c-0.1,0.1-0.2,0.2-0.4,0.2
				c-0.2,0-0.3-0.1-0.5-0.2s-0.2-0.3-0.2-0.6c0-0.1,0-0.2,0.1-0.4s0.1-0.2,0.1-0.4c-0.1-0.1-0.3-0.3-0.6-0.6c-0.3-0.2-0.6-0.5-1-0.7
				c-0.3,0.1-0.6,0.1-0.9,0.2c-0.3,0.1-0.6,0.2-0.8,0.2c-0.3,0.1-0.5,0.2-0.6,0.3s-0.1,0.3-0.1,0.5c0,0.1,0,0.2,0,0.3
				c0,0.1,0.1,0.2,0.1,0.3l-0.4-0.1c-0.1-0.3-0.2-0.5-0.3-0.8c-0.1-0.2-0.1-0.4-0.1-0.5c0-0.3,0.1-0.5,0.2-0.6s0.4-0.3,0.7-0.4
				c0.4-0.1,0.7-0.2,0.8-0.2c0.1,0,0.3-0.1,0.5-0.1c-0.3-0.2-0.5-0.3-0.7-0.4c-0.2-0.1-0.4-0.3-0.8-0.6c-0.3-0.2-0.5-0.5-0.6-0.7
				c-0.1-0.2-0.2-0.4-0.2-0.6c0-0.2,0.1-0.3,0.2-0.4C770.4,563.2,770.5,563.1,770.7,563.1z"/>
			<path fill="#90A4AE" d="M767.9,559.9c0.2,0,0.4,0.1,0.6,0.2c0.2,0.1,0.2,0.3,0.2,0.5c0,0.2-0.1,0.4-0.2,0.5
				c-0.2,0.1-0.3,0.2-0.5,0.2c-0.2,0-0.4-0.1-0.5-0.2c-0.2-0.1-0.2-0.3-0.2-0.5c0-0.2,0.1-0.4,0.2-0.5
				C767.6,559.9,767.7,559.9,767.9,559.9z M775.1,560.3l0.4,0.1c0.1,0.3,0.2,0.6,0.3,0.8c0.1,0.2,0.1,0.4,0.1,0.5
				c0,0.3-0.1,0.5-0.2,0.7s-0.3,0.2-0.6,0.2c-0.1,0-0.2,0-0.3,0c-0.1,0-0.2,0-0.4-0.1l-2.4-0.6c-0.1,0-0.3-0.1-0.4-0.1
				c-0.2,0-0.3,0-0.4,0c-0.2,0-0.4,0-0.4,0.1c-0.1,0.1-0.1,0.2-0.1,0.4c0,0.1,0,0.2,0,0.3c0,0.1,0,0.2,0.1,0.3l-0.4-0.1
				c-0.1-0.3-0.2-0.6-0.3-0.8c-0.1-0.2-0.1-0.4-0.1-0.6c0-0.3,0.1-0.5,0.2-0.7c0.1-0.1,0.3-0.2,0.6-0.2c0.1,0,0.2,0,0.3,0
				c0.1,0,0.2,0,0.3,0.1l2.4,0.6c0.1,0,0.3,0.1,0.4,0.1c0.1,0,0.3,0,0.3,0c0.2,0,0.4,0,0.4-0.1s0.1-0.3,0.1-0.5c0-0.1,0-0.2,0-0.3
				C775.2,560.4,775.2,560.3,775.1,560.3z"/>
			<path fill="#90A4AE" d="M770.7,554c0.7,0,1.3,0.1,2,0.2c0.7,0.1,1.2,0.3,1.7,0.6c0.5,0.3,1,0.7,1.2,1.1c0.3,0.4,0.4,0.9,0.4,1.5
				c0,0.7-0.2,1.2-0.6,1.6c-0.4,0.4-1,0.6-1.7,0.6c-1,0-1.8-0.3-2.5-0.9c-0.7-0.6-1.1-1.4-1.1-2.2c0-0.2,0-0.4,0.1-0.7
				c0.1-0.2,0.2-0.4,0.3-0.6c-0.9,0-1.6,0.2-2.1,0.5c-0.5,0.3-0.8,0.7-0.8,1.2c0,0.2,0,0.3,0,0.5c0,0.1,0.1,0.3,0.1,0.4
				c0,0.1,0.1,0.2,0.2,0.2c0.1,0.1,0.1,0.1,0.1,0.2l-0.3,0.2c-0.3-0.3-0.5-0.6-0.6-0.8c-0.1-0.3-0.2-0.6-0.2-1c0-0.3,0.1-0.7,0.2-1
				c0.1-0.3,0.4-0.6,0.7-0.8c0.3-0.2,0.7-0.4,1.1-0.5C769.5,554.1,770,554,770.7,554z M774.2,555.7c-0.4-0.2-0.9-0.3-1.4-0.4
				c-0.5-0.1-1.1-0.2-1.6-0.2c-0.3,0.2-0.5,0.4-0.6,0.6c-0.1,0.2-0.2,0.4-0.2,0.6c0,0.6,0.3,1.1,1,1.5c0.7,0.4,1.5,0.6,2.3,0.6
				c0.6,0,1-0.1,1.3-0.2c0.3-0.2,0.4-0.4,0.4-0.8c0-0.3-0.1-0.6-0.4-0.9C774.9,556.1,774.6,555.9,774.2,555.7z"/>
		</g>
		<g>
			<g>
				<rect x="771.4" y="592" fill="#90A4AE" width="1" height="15.2"/>
			</g>
			<g>
				<g>
					<path fill="#90A4AE" d="M767.1,600.3c0.2-0.1,0.5-0.1,0.7,0.2l4.1,6.5l4.1-6.5c0.1-0.2,0.5-0.3,0.7-0.2
						c0.2,0.1,0.3,0.5,0.2,0.7l-4.5,7.1c-0.1,0.1-0.3,0.2-0.4,0.2s-0.3-0.1-0.4-0.2l-4.5-7.1c-0.1-0.1-0.1-0.2-0.1-0.3
						C766.9,600.6,766.9,600.4,767.1,600.3z"/>
				</g>
			</g>
		</g>
	</g>
	<g>
		<path fill="#B0BEC5" d="M918.2,10.4H15.6c-3.4,0-6.1,2.7-6.1,6.1v302.8h1.2V16.5c0-2.7,2.2-4.9,4.9-4.9h902.6
			c2.7,0,4.9,2.2,4.9,4.9v599.9c0,2.7-2.2,4.9-4.9,4.9H177.5v1.2h740.7c3.4,0,6.1-2.7,6.1-6.1V16.5
			C924.3,13.1,921.6,10.4,918.2,10.4z"/>
		<path fill="#B0BEC5" d="M10.7,616.4V357.3H9.5v259.1c0,3.4,2.7,6.1,6.1,6.1h123.9v-1.2H15.6C12.9,621.3,10.7,619.1,10.7,616.4z"/>
	</g>
	<g>
		<rect x="754.8" y="612.4" fill="#FFFFFF" width="38" height="19"/>
	</g>
	<g>
		<path fill="#FFFFFF" d="M184.2,77.7L184.2,77.7c-5.8,0-10.6-4.8-10.6-10.6v0c0-5.8,4.8-10.6,10.6-10.6h0c5.8,0,10.6,4.8,10.6,10.6
			v0C194.8,73,190.1,77.7,184.2,77.7z"/>
	</g>
	<g>
		<path fill="#36474F" d="M181.8,68.2l0.4-4h4v1.1h-2.8l-0.2,1.6c0.1-0.1,0.3-0.2,0.5-0.2s0.4-0.1,0.6-0.1c0.7,0,1.2,0.2,1.6,0.6
			c0.4,0.4,0.6,1,0.6,1.8c0,0.7-0.2,1.3-0.6,1.7c-0.4,0.5-1,0.7-1.8,0.7c-0.7,0-1.2-0.2-1.7-0.5s-0.7-0.8-0.7-1.5l0,0l1.4-0.1
			c0,0.3,0.1,0.6,0.3,0.7s0.4,0.3,0.7,0.3c0.3,0,0.6-0.1,0.7-0.4c0.2-0.2,0.2-0.5,0.2-0.9c0-0.4-0.1-0.7-0.3-1
			c-0.2-0.2-0.4-0.4-0.8-0.4c-0.3,0-0.5,0.1-0.6,0.2c-0.1,0.1-0.2,0.2-0.3,0.4L181.8,68.2z"/>
	</g>
	<g>
		<path fill="#FFFFFF" d="M76.2,77.7L76.2,77.7c-5.8,0-10.6-4.8-10.6-10.6v0c0-5.8,4.8-10.6,10.6-10.6h0c5.8,0,10.6,4.8,10.6,10.6v0
			C86.8,73,82,77.7,76.2,77.7z"/>
	</g>
	<g>
		<path fill="#36474F" d="M77.7,68.7h0.8v1.1h-0.8v1.5h-1.4v-1.5h-2.9L73.4,69l2.9-4.7h1.4V68.7z M74.7,68.7h1.6v-2.6l0,0l-0.1,0.2
			L74.7,68.7z"/>
	</g>
	<g>
		<path fill="#FFFFFF" d="M76.2,197.4L76.2,197.4c-5.8,0-10.6-4.8-10.6-10.6v0c0-5.8,4.8-10.6,10.6-10.6h0c5.8,0,10.6,4.8,10.6,10.6
			v0C86.8,192.6,82,197.4,76.2,197.4z"/>
	</g>
	<g>
		<path fill="#36474F" d="M72,186.9h0.8c0.3,0,0.6-0.1,0.8-0.3c0.2-0.2,0.2-0.4,0.2-0.7c0-0.3-0.1-0.5-0.2-0.7
			c-0.2-0.2-0.4-0.3-0.7-0.3c-0.3,0-0.5,0.1-0.7,0.2s-0.3,0.4-0.3,0.6h-1.4l0,0c0-0.6,0.2-1,0.6-1.4s1-0.5,1.7-0.5
			c0.7,0,1.3,0.2,1.8,0.5c0.4,0.4,0.7,0.9,0.7,1.5c0,0.3-0.1,0.6-0.3,0.9s-0.5,0.5-0.8,0.7c0.4,0.1,0.7,0.4,0.9,0.6
			c0.2,0.3,0.3,0.6,0.3,1c0,0.7-0.2,1.2-0.7,1.5c-0.5,0.4-1.1,0.6-1.8,0.6c-0.7,0-1.2-0.2-1.7-0.5c-0.5-0.4-0.7-0.8-0.7-1.5l0,0h1.4
			c0,0.3,0.1,0.5,0.3,0.7s0.4,0.3,0.7,0.3c0.3,0,0.6-0.1,0.8-0.3c0.2-0.2,0.3-0.4,0.3-0.7c0-0.4-0.1-0.6-0.3-0.8
			c-0.2-0.2-0.5-0.3-0.8-0.3H72V186.9z"/>
		<path fill="#36474F" d="M78.8,186c0.7,0,1.3,0.2,1.7,0.7c0.4,0.5,0.6,1,0.6,1.8v0.1c0,0.7-0.2,1.4-0.7,1.8
			c-0.4,0.5-1.1,0.7-1.8,0.7c-0.8,0-1.4-0.2-1.8-0.7c-0.4-0.5-0.7-1.1-0.7-1.8v-0.7c0-1.2,0.2-2.1,0.7-2.7c0.4-0.6,1-1,1.8-1.2
			c0.3-0.1,0.5-0.1,0.7-0.2c0.2-0.1,0.2-0.2,0.2-0.4h1.1l0,0c0,0.6-0.1,1-0.4,1.3s-0.8,0.4-1.5,0.5c-0.4,0.1-0.7,0.2-0.9,0.4
			c-0.2,0.2-0.4,0.5-0.4,0.9l0,0c0.2-0.2,0.4-0.3,0.6-0.4C78.3,186.1,78.6,186,78.8,186z M78.7,187.1c-0.4,0-0.6,0.1-0.8,0.4
			c-0.2,0.3-0.3,0.6-0.3,1v0.1c0,0.4,0.1,0.8,0.3,1c0.2,0.3,0.4,0.4,0.8,0.4c0.4,0,0.6-0.1,0.8-0.4c0.2-0.3,0.3-0.6,0.3-1v-0.1
			c0-0.4-0.1-0.7-0.3-1C79.4,187.3,79.1,187.1,78.7,187.1z"/>
	</g>
	<g>
		<path fill="#FFFFFF" d="M76.2,283.2L76.2,283.2c-5.8,0-10.6-4.8-10.6-10.6l0,0c0-5.8,4.8-10.6,10.6-10.6h0
			c5.8,0,10.6,4.8,10.6,10.6l0,0C86.8,278.5,82,283.2,76.2,283.2z"/>
	</g>
	<g>
		<path fill="#36474F" d="M73,272.7h0.8c0.3,0,0.6-0.1,0.8-0.3s0.2-0.4,0.2-0.7c0-0.3-0.1-0.5-0.2-0.7s-0.4-0.3-0.7-0.3
			c-0.3,0-0.5,0.1-0.7,0.2s-0.3,0.4-0.3,0.6h-1.4l0,0c0-0.6,0.2-1,0.6-1.4s1-0.5,1.7-0.5c0.7,0,1.3,0.2,1.8,0.5
			c0.4,0.4,0.7,0.9,0.7,1.5c0,0.3-0.1,0.6-0.3,0.9s-0.5,0.5-0.8,0.7c0.4,0.1,0.7,0.4,0.9,0.6c0.2,0.3,0.3,0.6,0.3,1
			c0,0.7-0.2,1.2-0.7,1.5c-0.5,0.4-1.1,0.6-1.8,0.6c-0.7,0-1.2-0.2-1.7-0.5c-0.5-0.4-0.7-0.8-0.7-1.5l0,0h1.4c0,0.3,0.1,0.5,0.3,0.7
			c0.2,0.2,0.4,0.3,0.7,0.3c0.3,0,0.6-0.1,0.8-0.3c0.2-0.2,0.3-0.4,0.3-0.7c0-0.4-0.1-0.6-0.3-0.8c-0.2-0.2-0.5-0.3-0.8-0.3H73
			V272.7z"/>
		<path fill="#36474F" d="M80.5,276.9c-0.1-0.1-0.1-0.2-0.1-0.4c0-0.1-0.1-0.3-0.1-0.4c-0.1,0.3-0.3,0.5-0.6,0.6
			c-0.2,0.2-0.5,0.3-0.9,0.3c-0.6,0-1-0.1-1.3-0.4s-0.4-0.7-0.4-1.2c0-0.5,0.2-0.9,0.6-1.2c0.4-0.3,1-0.4,1.7-0.4h0.8v-0.4
			c0-0.3-0.1-0.5-0.2-0.6s-0.3-0.2-0.6-0.2c-0.2,0-0.4,0.1-0.5,0.2c-0.1,0.1-0.2,0.3-0.2,0.5l-1.4,0l0,0c0-0.4,0.2-0.8,0.6-1.2
			s0.9-0.5,1.6-0.5c0.6,0,1.1,0.2,1.5,0.5s0.6,0.8,0.6,1.4v2.2c0,0.2,0,0.5,0.1,0.7c0,0.2,0.1,0.4,0.2,0.6H80.5z M79.2,275.9
			c0.3,0,0.5-0.1,0.7-0.2s0.3-0.3,0.4-0.4v-0.7h-0.8c-0.3,0-0.5,0.1-0.7,0.2s-0.2,0.3-0.2,0.5c0,0.2,0.1,0.3,0.2,0.4
			S79,275.9,79.2,275.9z"/>
	</g>
	<g>
		<path fill="#FFFFFF" d="M223.2,281.4L223.2,281.4c-5.8,0-10.6-4.8-10.6-10.6l0,0c0-5.8,4.8-10.6,10.6-10.6h0
			c5.8,0,10.6,4.8,10.6,10.6l0,0C233.8,276.6,229,281.4,223.2,281.4z"/>
	</g>
	<g>
		<path fill="#36474F" d="M222.4,275h-4.9v-0.9l2.3-2.5c0.3-0.4,0.6-0.7,0.7-1s0.2-0.5,0.2-0.7c0-0.3-0.1-0.5-0.2-0.7
			c-0.2-0.2-0.4-0.3-0.7-0.3c-0.3,0-0.6,0.1-0.8,0.3c-0.2,0.2-0.3,0.5-0.3,0.9h-1.4l0,0c0-0.6,0.2-1.2,0.6-1.6
			c0.4-0.4,1-0.7,1.8-0.7c0.7,0,1.3,0.2,1.7,0.6c0.4,0.4,0.6,0.9,0.6,1.5c0,0.4-0.1,0.8-0.4,1.2c-0.2,0.4-0.6,0.8-1.2,1.4l-1.3,1.4
			l0,0h3V275z"/>
		<path fill="#36474F" d="M228.1,269c-0.8,0.9-1.3,1.7-1.6,2.5c-0.3,0.8-0.5,1.7-0.6,2.8l-0.1,0.7h-1.4l0.1-0.7c0.1-1,0.3-2,0.7-2.9
			s0.9-1.7,1.5-2.4h-3.7v-1.1h5V269z"/>
	</g>
	<g>
		<path fill="#FFFFFF" d="M304.7,281.4L304.7,281.4c-5.8,0-10.6-4.8-10.6-10.6l0,0c0-5.8,4.8-10.6,10.6-10.6l0,0
			c5.8,0,10.6,4.8,10.6,10.6l0,0C315.3,276.6,310.5,281.4,304.7,281.4z"/>
	</g>
	<g>
		<path fill="#36474F" d="M304,275h-4.9v-0.9l2.3-2.5c0.3-0.4,0.6-0.7,0.7-1s0.2-0.5,0.2-0.7c0-0.3-0.1-0.5-0.2-0.7
			c-0.2-0.2-0.4-0.3-0.7-0.3c-0.3,0-0.6,0.1-0.8,0.3c-0.2,0.2-0.3,0.5-0.3,0.9H299l0,0c0-0.6,0.2-1.2,0.6-1.6c0.4-0.4,1-0.7,1.8-0.7
			c0.7,0,1.3,0.2,1.7,0.6c0.4,0.4,0.6,0.9,0.6,1.5c0,0.4-0.1,0.8-0.4,1.2c-0.2,0.4-0.6,0.8-1.2,1.4l-1.3,1.4l0,0h3V275z"/>
		<path fill="#36474F" d="M309.5,269.8c0,0.4-0.1,0.7-0.3,0.9c-0.2,0.3-0.4,0.5-0.8,0.6c0.4,0.2,0.7,0.4,0.9,0.7s0.3,0.6,0.3,1
			c0,0.7-0.2,1.2-0.7,1.5s-1,0.5-1.7,0.5c-0.7,0-1.3-0.2-1.8-0.5c-0.4-0.4-0.7-0.9-0.7-1.5c0-0.4,0.1-0.7,0.3-1
			c0.2-0.3,0.5-0.5,0.9-0.7c-0.3-0.2-0.6-0.4-0.8-0.6s-0.3-0.6-0.3-0.9c0-0.6,0.2-1.1,0.6-1.5s1-0.5,1.6-0.5c0.7,0,1.2,0.2,1.6,0.5
			S309.5,269.2,309.5,269.8z M308.2,273c0-0.3-0.1-0.6-0.3-0.8c-0.2-0.2-0.4-0.3-0.7-0.3c-0.3,0-0.5,0.1-0.7,0.3
			c-0.2,0.2-0.3,0.4-0.3,0.8c0,0.3,0.1,0.6,0.3,0.8c0.2,0.2,0.4,0.3,0.7,0.3c0.3,0,0.5-0.1,0.7-0.3
			C308.1,273.6,308.2,273.3,308.2,273z M308.1,269.9c0-0.3-0.1-0.5-0.2-0.7c-0.2-0.2-0.4-0.3-0.6-0.3c-0.3,0-0.5,0.1-0.6,0.3
			s-0.2,0.4-0.2,0.7c0,0.3,0.1,0.5,0.2,0.7c0.1,0.2,0.4,0.3,0.6,0.3c0.3,0,0.5-0.1,0.6-0.3C308,270.4,308.1,270.2,308.1,269.9z"/>
	</g>
	<g>
		<path fill="#FFFFFF" d="M385.4,281.4L385.4,281.4c-5.8,0-10.6-4.8-10.6-10.6l0,0c0-5.8,4.8-10.6,10.6-10.6h0
			c5.8,0,10.6,4.8,10.6,10.6l0,0C396,276.6,391.2,281.4,385.4,281.4z"/>
	</g>
	<g>
		<path fill="#36474F" d="M384.7,275h-4.9v-0.9l2.3-2.5c0.3-0.4,0.6-0.7,0.7-1s0.2-0.5,0.2-0.7c0-0.3-0.1-0.5-0.2-0.7
			c-0.2-0.2-0.4-0.3-0.7-0.3c-0.3,0-0.6,0.1-0.8,0.3c-0.2,0.2-0.3,0.5-0.3,0.9h-1.4l0,0c0-0.6,0.2-1.2,0.6-1.6
			c0.4-0.4,1-0.7,1.8-0.7c0.7,0,1.3,0.2,1.7,0.6c0.4,0.4,0.6,0.9,0.6,1.5c0,0.4-0.1,0.8-0.4,1.2c-0.2,0.4-0.6,0.8-1.2,1.4l-1.3,1.4
			l0,0h3V275z"/>
		<path fill="#36474F" d="M387.6,274c0.4,0,0.7-0.1,0.9-0.4c0.2-0.3,0.4-0.7,0.4-1.2v-0.4c-0.2,0.2-0.3,0.4-0.6,0.5
			c-0.2,0.1-0.5,0.2-0.7,0.2c-0.7,0-1.2-0.2-1.6-0.6c-0.4-0.4-0.6-1-0.6-1.8c0-0.7,0.2-1.3,0.7-1.8s1-0.7,1.7-0.7
			c0.7,0,1.3,0.3,1.8,0.7s0.7,1.2,0.7,2.1v1.7c0,0.9-0.3,1.5-0.8,2c-0.5,0.5-1.2,0.7-1.9,0.7c-0.2,0-0.5,0-0.8-0.1
			c-0.3-0.1-0.5-0.1-0.7-0.2l0.2-1c0.2,0.1,0.4,0.1,0.6,0.2C387.1,274,387.3,274,387.6,274z M387.8,271.6c0.2,0,0.4,0,0.6-0.1
			s0.3-0.2,0.4-0.4v-0.7c0-0.5-0.1-0.9-0.3-1.2s-0.4-0.4-0.7-0.4c-0.3,0-0.5,0.1-0.7,0.4c-0.2,0.3-0.3,0.6-0.3,1
			c0,0.4,0.1,0.7,0.2,1C387.3,271.5,387.5,271.6,387.8,271.6z"/>
	</g>
	<g>
		<path fill="#FFFFFF" d="M467.3,281.4L467.3,281.4c-5.8,0-10.6-4.8-10.6-10.6l0,0c0-5.8,4.8-10.6,10.6-10.6h0
			c5.8,0,10.6,4.8,10.6,10.6l0,0C477.9,276.6,473.1,281.4,467.3,281.4z"/>
	</g>
	<g>
		<path fill="#36474F" d="M463.1,270.9h0.8c0.3,0,0.6-0.1,0.8-0.3s0.2-0.4,0.2-0.7c0-0.3-0.1-0.5-0.2-0.7s-0.4-0.3-0.7-0.3
			c-0.3,0-0.5,0.1-0.7,0.2s-0.3,0.4-0.3,0.6h-1.4l0,0c0-0.6,0.2-1,0.6-1.4s1-0.5,1.7-0.5c0.7,0,1.3,0.2,1.8,0.5
			c0.4,0.4,0.7,0.9,0.7,1.5c0,0.3-0.1,0.6-0.3,0.9s-0.5,0.5-0.8,0.7c0.4,0.1,0.7,0.4,0.9,0.6c0.2,0.3,0.3,0.6,0.3,1
			c0,0.7-0.2,1.2-0.7,1.5c-0.5,0.4-1.1,0.6-1.8,0.6c-0.7,0-1.2-0.2-1.7-0.5c-0.5-0.4-0.7-0.8-0.7-1.5l0,0h1.4c0,0.3,0.1,0.5,0.3,0.7
			c0.2,0.2,0.4,0.3,0.7,0.3c0.3,0,0.6-0.1,0.8-0.3c0.2-0.2,0.3-0.4,0.3-0.7c0-0.4-0.1-0.6-0.3-0.8c-0.2-0.2-0.5-0.3-0.8-0.3h-0.8
			V270.9z"/>
		<path fill="#36474F" d="M472.2,272.3c0,0.9-0.2,1.7-0.6,2.1c-0.4,0.5-1,0.7-1.8,0.7c-0.7,0-1.3-0.2-1.8-0.7s-0.6-1.2-0.6-2.1v-1.6
			c0-0.9,0.2-1.7,0.6-2.1c0.4-0.5,1-0.7,1.8-0.7c0.7,0,1.3,0.2,1.8,0.7c0.4,0.5,0.7,1.2,0.7,2.1V272.3z M470.8,270.5
			c0-0.6-0.1-1-0.3-1.2s-0.4-0.4-0.7-0.4c-0.3,0-0.6,0.1-0.7,0.4s-0.2,0.7-0.2,1.2v1.8c0,0.6,0.1,1,0.3,1.2c0.2,0.3,0.4,0.4,0.7,0.4
			c0.3,0,0.6-0.1,0.7-0.4s0.2-0.7,0.2-1.2V270.5z"/>
	</g>
	<g>
		<path fill="#FFFFFF" d="M549.2,281.4L549.2,281.4c-5.8,0-10.6-4.8-10.6-10.6l0,0c0-5.8,4.8-10.6,10.6-10.6h0
			c5.8,0,10.6,4.8,10.6,10.6l0,0C559.7,276.6,555,281.4,549.2,281.4z"/>
	</g>
	<g>
		<path fill="#36474F" d="M546,270.9h0.8c0.3,0,0.6-0.1,0.8-0.3s0.2-0.4,0.2-0.7c0-0.3-0.1-0.5-0.2-0.7s-0.4-0.3-0.7-0.3
			c-0.3,0-0.5,0.1-0.7,0.2s-0.3,0.4-0.3,0.6h-1.4l0,0c0-0.6,0.2-1,0.6-1.4s1-0.5,1.7-0.5c0.7,0,1.3,0.2,1.8,0.5
			c0.4,0.4,0.7,0.9,0.7,1.5c0,0.3-0.1,0.6-0.3,0.9s-0.5,0.5-0.8,0.7c0.4,0.1,0.7,0.4,0.9,0.6c0.2,0.3,0.3,0.6,0.3,1
			c0,0.7-0.2,1.2-0.7,1.5c-0.5,0.4-1.1,0.6-1.8,0.6c-0.7,0-1.2-0.2-1.7-0.5c-0.5-0.4-0.7-0.8-0.7-1.5l0,0h1.4c0,0.3,0.1,0.5,0.3,0.7
			c0.2,0.2,0.4,0.3,0.7,0.3c0.3,0,0.6-0.1,0.8-0.3c0.2-0.2,0.3-0.4,0.3-0.7c0-0.4-0.1-0.6-0.3-0.8c-0.2-0.2-0.5-0.3-0.8-0.3H546
			V270.9z"/>
		<path fill="#36474F" d="M553.5,275h-1.4v-5.8h-1.4v-1l2.9-0.3V275z"/>
	</g>
	<g>
		<path fill="#FFFFFF" d="M629.9,281.4L629.9,281.4c-5.8,0-10.6-4.8-10.6-10.6l0,0c0-5.8,4.8-10.6,10.6-10.6l0,0
			c5.8,0,10.6,4.8,10.6,10.6l0,0C640.5,276.6,635.8,281.4,629.9,281.4z"/>
	</g>
	<g>
		<path fill="#36474F" d="M625.8,270.9h0.8c0.3,0,0.6-0.1,0.8-0.3s0.2-0.4,0.2-0.7c0-0.3-0.1-0.5-0.2-0.7s-0.4-0.3-0.7-0.3
			c-0.3,0-0.5,0.1-0.7,0.2s-0.3,0.4-0.3,0.6h-1.4l0,0c0-0.6,0.2-1,0.6-1.4s1-0.5,1.7-0.5c0.7,0,1.3,0.2,1.8,0.5
			c0.4,0.4,0.7,0.9,0.7,1.5c0,0.3-0.1,0.6-0.3,0.9s-0.5,0.5-0.8,0.7c0.4,0.1,0.7,0.4,0.9,0.6c0.2,0.3,0.3,0.6,0.3,1
			c0,0.7-0.2,1.2-0.7,1.5c-0.5,0.4-1.1,0.6-1.8,0.6c-0.7,0-1.2-0.2-1.7-0.5c-0.5-0.4-0.7-0.8-0.7-1.5l0,0h1.4c0,0.3,0.1,0.5,0.3,0.7
			c0.2,0.2,0.4,0.3,0.7,0.3c0.3,0,0.6-0.1,0.8-0.3c0.2-0.2,0.3-0.4,0.3-0.7c0-0.4-0.1-0.6-0.3-0.8c-0.2-0.2-0.5-0.3-0.8-0.3h-0.8
			V270.9z"/>
		<path fill="#36474F" d="M634.9,275h-4.9v-0.9l2.3-2.5c0.3-0.4,0.6-0.7,0.7-1s0.2-0.5,0.2-0.7c0-0.3-0.1-0.5-0.2-0.7
			c-0.2-0.2-0.4-0.3-0.7-0.3c-0.3,0-0.6,0.1-0.8,0.3c-0.2,0.2-0.3,0.5-0.3,0.9H630l0,0c0-0.6,0.2-1.2,0.6-1.6c0.4-0.4,1-0.7,1.8-0.7
			c0.7,0,1.3,0.2,1.7,0.6c0.4,0.4,0.6,0.9,0.6,1.5c0,0.4-0.1,0.8-0.4,1.2c-0.2,0.4-0.6,0.8-1.2,1.4l-1.3,1.4l0,0h3V275z"/>
	</g>
	<g>
		<path fill="#FFFFFF" d="M710.8,281.4L710.8,281.4c-5.8,0-10.6-4.8-10.6-10.6l0,0c0-5.8,4.8-10.6,10.6-10.6l0,0
			c5.8,0,10.6,4.8,10.6,10.6l0,0C721.4,276.6,716.6,281.4,710.8,281.4z"/>
	</g>
	<g>
		<path fill="#36474F" d="M706.6,270.9h0.8c0.3,0,0.6-0.1,0.8-0.3s0.2-0.4,0.2-0.7c0-0.3-0.1-0.5-0.2-0.7s-0.4-0.3-0.7-0.3
			c-0.3,0-0.5,0.1-0.7,0.2s-0.3,0.4-0.3,0.6h-1.4l0,0c0-0.6,0.2-1,0.6-1.4s1-0.5,1.7-0.5c0.7,0,1.3,0.2,1.8,0.5
			c0.4,0.4,0.7,0.9,0.7,1.5c0,0.3-0.1,0.6-0.3,0.9s-0.5,0.5-0.8,0.7c0.4,0.1,0.7,0.4,0.9,0.6c0.2,0.3,0.3,0.6,0.3,1
			c0,0.7-0.2,1.2-0.7,1.5c-0.5,0.4-1.1,0.6-1.8,0.6c-0.7,0-1.2-0.2-1.7-0.5c-0.5-0.4-0.7-0.8-0.7-1.5l0,0h1.4c0,0.3,0.1,0.5,0.3,0.7
			c0.2,0.2,0.4,0.3,0.7,0.3c0.3,0,0.6-0.1,0.8-0.3c0.2-0.2,0.3-0.4,0.3-0.7c0-0.4-0.1-0.6-0.3-0.8c-0.2-0.2-0.5-0.3-0.8-0.3h-0.8
			V270.9z"/>
		<path fill="#36474F" d="M712.4,270.9h0.8c0.3,0,0.6-0.1,0.8-0.3s0.2-0.4,0.2-0.7c0-0.3-0.1-0.5-0.2-0.7s-0.4-0.3-0.7-0.3
			c-0.3,0-0.5,0.1-0.7,0.2s-0.3,0.4-0.3,0.6h-1.4l0,0c0-0.6,0.2-1,0.6-1.4s1-0.5,1.7-0.5c0.7,0,1.3,0.2,1.8,0.5
			c0.4,0.4,0.7,0.9,0.7,1.5c0,0.3-0.1,0.6-0.3,0.9s-0.5,0.5-0.8,0.7c0.4,0.1,0.7,0.4,0.9,0.6c0.2,0.3,0.3,0.6,0.3,1
			c0,0.7-0.2,1.2-0.7,1.5c-0.5,0.4-1.1,0.6-1.8,0.6c-0.7,0-1.2-0.2-1.7-0.5c-0.5-0.4-0.7-0.8-0.7-1.5l0,0h1.4c0,0.3,0.1,0.5,0.3,0.7
			c0.2,0.2,0.4,0.3,0.7,0.3c0.3,0,0.6-0.1,0.8-0.3c0.2-0.2,0.3-0.4,0.3-0.7c0-0.4-0.1-0.6-0.3-0.8c-0.2-0.2-0.5-0.3-0.8-0.3h-0.8
			V270.9z"/>
	</g>
	<g>
		<path fill="#FFFFFF" d="M223.2,373.5L223.2,373.5c-5.8,0-10.6-4.8-10.6-10.6v0c0-5.8,4.8-10.6,10.6-10.6h0
			c5.8,0,10.6,4.8,10.6,10.6v0C233.8,368.8,229,373.5,223.2,373.5z"/>
	</g>
	<g>
		<path fill="#36474F" d="M222.4,367.1h-4.9v-0.9l2.3-2.5c0.3-0.4,0.6-0.7,0.7-1s0.2-0.5,0.2-0.7c0-0.3-0.1-0.5-0.2-0.7
			c-0.2-0.2-0.4-0.3-0.7-0.3c-0.3,0-0.6,0.1-0.8,0.3c-0.2,0.2-0.3,0.5-0.3,0.9h-1.4l0,0c0-0.6,0.2-1.2,0.6-1.6
			c0.4-0.4,1-0.7,1.8-0.7c0.7,0,1.3,0.2,1.7,0.6c0.4,0.4,0.6,0.9,0.6,1.5c0,0.4-0.1,0.8-0.4,1.2c-0.2,0.4-0.6,0.8-1.2,1.4l-1.3,1.4
			l0,0h3V367.1z"/>
		<path fill="#36474F" d="M226.2,359.9c0.3,0,0.5,0,0.7,0.1c0.2,0.1,0.5,0.1,0.7,0.2l-0.3,1c-0.2-0.1-0.4-0.1-0.6-0.2
			c-0.2,0-0.4-0.1-0.6-0.1c-0.4,0-0.8,0.2-1,0.5c-0.3,0.3-0.4,0.8-0.4,1.3l0,0c0.2-0.2,0.4-0.3,0.6-0.4s0.5-0.1,0.8-0.1
			c0.6,0,1.1,0.2,1.5,0.7c0.4,0.5,0.5,1,0.5,1.7c0,0.7-0.2,1.3-0.7,1.8c-0.4,0.5-1,0.7-1.7,0.7c-0.8,0-1.4-0.3-1.8-0.8
			s-0.7-1.2-0.7-2.1V363c0-0.9,0.3-1.7,0.8-2.2S225.3,359.9,226.2,359.9z M225.8,363.5c-0.3,0-0.5,0-0.7,0.1s-0.3,0.2-0.4,0.3v0.5
			c0,0.6,0.1,1,0.3,1.3c0.2,0.3,0.5,0.5,0.8,0.5c0.3,0,0.5-0.1,0.7-0.4c0.2-0.3,0.3-0.6,0.3-1c0-0.4-0.1-0.7-0.3-1
			S226.1,363.5,225.8,363.5z"/>
	</g>
	<g>
		<path fill="#FFFFFF" d="M304.7,373.5L304.7,373.5c-5.8,0-10.6-4.8-10.6-10.6v0c0-5.8,4.8-10.6,10.6-10.6l0,0
			c5.8,0,10.6,4.8,10.6,10.6v0C315.3,368.8,310.5,373.5,304.7,373.5z"/>
	</g>
	<g>
		<path fill="#36474F" d="M305,367.1h-4.9v-0.9l2.3-2.5c0.3-0.4,0.6-0.7,0.7-1s0.2-0.5,0.2-0.7c0-0.3-0.1-0.5-0.2-0.7
			c-0.2-0.2-0.4-0.3-0.7-0.3c-0.3,0-0.6,0.1-0.8,0.3c-0.2,0.2-0.3,0.5-0.3,0.9H300l0,0c0-0.6,0.2-1.2,0.6-1.6c0.4-0.4,1-0.7,1.8-0.7
			c0.7,0,1.3,0.2,1.7,0.6c0.4,0.4,0.6,0.9,0.6,1.5c0,0.4-0.1,0.8-0.4,1.2c-0.2,0.4-0.6,0.8-1.2,1.4L302,366l0,0h3V367.1z"/>
		<path fill="#36474F" d="M306,364l0.4-4h4v1.1h-2.8l-0.2,1.6c0.1-0.1,0.3-0.2,0.5-0.2s0.4-0.1,0.6-0.1c0.7,0,1.2,0.2,1.6,0.6
			c0.4,0.4,0.6,1,0.6,1.8c0,0.7-0.2,1.3-0.6,1.7c-0.4,0.5-1,0.7-1.8,0.7c-0.7,0-1.2-0.2-1.7-0.5s-0.7-0.8-0.7-1.5l0,0l1.4-0.1
			c0,0.3,0.1,0.6,0.3,0.7s0.4,0.3,0.7,0.3c0.3,0,0.6-0.1,0.7-0.4c0.2-0.2,0.2-0.5,0.2-0.9c0-0.4-0.1-0.7-0.3-1
			c-0.2-0.2-0.4-0.4-0.8-0.4c-0.3,0-0.5,0.1-0.6,0.2c-0.1,0.1-0.2,0.2-0.3,0.4L306,364z"/>
	</g>
	<g>
		<path fill="#FFFFFF" d="M385.4,373.5L385.4,373.5c-5.8,0-10.6-4.8-10.6-10.6v0c0-5.8,4.8-10.6,10.6-10.6h0
			c5.8,0,10.6,4.8,10.6,10.6v0C396,368.8,391.2,373.5,385.4,373.5z"/>
	</g>
	<g>
		<path fill="#36474F" d="M385.7,367.1h-4.9v-0.9l2.3-2.5c0.3-0.4,0.6-0.7,0.7-1s0.2-0.5,0.2-0.7c0-0.3-0.1-0.5-0.2-0.7
			c-0.2-0.2-0.4-0.3-0.7-0.3c-0.3,0-0.6,0.1-0.8,0.3c-0.2,0.2-0.3,0.5-0.3,0.9h-1.4l0,0c0-0.6,0.2-1.2,0.6-1.6
			c0.4-0.4,1-0.7,1.8-0.7c0.7,0,1.3,0.2,1.7,0.6c0.4,0.4,0.6,0.9,0.6,1.5c0,0.4-0.1,0.8-0.4,1.2c-0.2,0.4-0.6,0.8-1.2,1.4l-1.3,1.4
			l0,0h3V367.1z"/>
		<path fill="#36474F" d="M390.7,364.5h0.8v1.1h-0.8v1.5h-1.4v-1.5h-2.9l-0.1-0.9l2.9-4.7h1.4V364.5z M387.7,364.5h1.6v-2.6l0,0
			l-0.1,0.2L387.7,364.5z"/>
	</g>
	<g>
		<path fill="#FFFFFF" d="M467.3,373.5L467.3,373.5c-5.8,0-10.6-4.8-10.6-10.6v0c0-5.8,4.8-10.6,10.6-10.6h0
			c5.8,0,10.6,4.8,10.6,10.6v0C477.9,368.8,473.1,373.5,467.3,373.5z"/>
	</g>
	<g>
		<path fill="#36474F" d="M466.5,367.1h-4.9v-0.9l2.3-2.5c0.3-0.4,0.6-0.7,0.7-1s0.2-0.5,0.2-0.7c0-0.3-0.1-0.5-0.2-0.7
			c-0.2-0.2-0.4-0.3-0.7-0.3c-0.3,0-0.6,0.1-0.8,0.3c-0.2,0.2-0.3,0.5-0.3,0.9h-1.4l0,0c0-0.6,0.2-1.2,0.6-1.6
			c0.4-0.4,1-0.7,1.8-0.7c0.7,0,1.3,0.2,1.7,0.6c0.4,0.4,0.6,0.9,0.6,1.5c0,0.4-0.1,0.8-0.4,1.2c-0.2,0.4-0.6,0.8-1.2,1.4l-1.3,1.4
			l0,0h3V367.1z"/>
		<path fill="#36474F" d="M468.8,363h0.8c0.3,0,0.6-0.1,0.8-0.3s0.2-0.4,0.2-0.7c0-0.3-0.1-0.5-0.2-0.7s-0.4-0.3-0.7-0.3
			c-0.3,0-0.5,0.1-0.7,0.2s-0.3,0.4-0.3,0.6h-1.4l0,0c0-0.6,0.2-1,0.6-1.4s1-0.5,1.7-0.5c0.7,0,1.3,0.2,1.8,0.5
			c0.4,0.4,0.7,0.9,0.7,1.5c0,0.3-0.1,0.6-0.3,0.9s-0.5,0.5-0.8,0.7c0.4,0.1,0.7,0.4,0.9,0.6c0.2,0.3,0.3,0.6,0.3,1
			c0,0.7-0.2,1.2-0.7,1.5c-0.5,0.4-1.1,0.6-1.8,0.6c-0.7,0-1.2-0.2-1.7-0.5c-0.5-0.4-0.7-0.8-0.7-1.5l0,0h1.4c0,0.3,0.1,0.5,0.3,0.7
			c0.2,0.2,0.4,0.3,0.7,0.3c0.3,0,0.6-0.1,0.8-0.3c0.2-0.2,0.3-0.4,0.3-0.7c0-0.4-0.1-0.6-0.3-0.8c-0.2-0.2-0.5-0.3-0.8-0.3h-0.8
			V363z"/>
	</g>
	<g>
		<path fill="#FFFFFF" d="M549.2,373.5L549.2,373.5c-5.8,0-10.6-4.8-10.6-10.6v0c0-5.8,4.8-10.6,10.6-10.6h0
			c5.8,0,10.6,4.8,10.6,10.6v0C559.7,368.8,555,373.5,549.2,373.5z"/>
	</g>
	<g>
		<path fill="#36474F" d="M548.4,367.1h-4.9v-0.9l2.3-2.5c0.3-0.4,0.6-0.7,0.7-1s0.2-0.5,0.2-0.7c0-0.3-0.1-0.5-0.2-0.7
			c-0.2-0.2-0.4-0.3-0.7-0.3c-0.3,0-0.6,0.1-0.8,0.3c-0.2,0.2-0.3,0.5-0.3,0.9h-1.4l0,0c0-0.6,0.2-1.2,0.6-1.6
			c0.4-0.4,1-0.7,1.8-0.7c0.7,0,1.3,0.2,1.7,0.6c0.4,0.4,0.6,0.9,0.6,1.5c0,0.4-0.1,0.8-0.4,1.2c-0.2,0.4-0.6,0.8-1.2,1.4l-1.3,1.4
			l0,0h3V367.1z"/>
		<path fill="#36474F" d="M554.1,367.1h-4.9v-0.9l2.3-2.5c0.3-0.4,0.6-0.7,0.7-1s0.2-0.5,0.2-0.7c0-0.3-0.1-0.5-0.2-0.7
			c-0.2-0.2-0.4-0.3-0.7-0.3c-0.3,0-0.6,0.1-0.8,0.3c-0.2,0.2-0.3,0.5-0.3,0.9h-1.4l0,0c0-0.6,0.2-1.2,0.6-1.6
			c0.4-0.4,1-0.7,1.8-0.7c0.7,0,1.3,0.2,1.7,0.6c0.4,0.4,0.6,0.9,0.6,1.5c0,0.4-0.1,0.8-0.4,1.2c-0.2,0.4-0.6,0.8-1.2,1.4l-1.3,1.4
			l0,0h3V367.1z"/>
	</g>
	<g>
		<path fill="#FFFFFF" d="M629.9,373.5L629.9,373.5c-5.8,0-10.6-4.8-10.6-10.6v0c0-5.8,4.8-10.6,10.6-10.6l0,0
			c5.8,0,10.6,4.8,10.6,10.6v0C640.5,368.8,635.8,373.5,629.9,373.5z"/>
	</g>
	<g>
		<path fill="#36474F" d="M630.2,367.1h-4.9v-0.9l2.3-2.5c0.3-0.4,0.6-0.7,0.7-1s0.2-0.5,0.2-0.7c0-0.3-0.1-0.5-0.2-0.7
			c-0.2-0.2-0.4-0.3-0.7-0.3c-0.3,0-0.6,0.1-0.8,0.3c-0.2,0.2-0.3,0.5-0.3,0.9h-1.4l0,0c0-0.6,0.2-1.2,0.6-1.6
			c0.4-0.4,1-0.7,1.8-0.7c0.7,0,1.3,0.2,1.7,0.6c0.4,0.4,0.6,0.9,0.6,1.5c0,0.4-0.1,0.8-0.4,1.2c-0.2,0.4-0.6,0.8-1.2,1.4l-1.3,1.4
			l0,0h3V367.1z"/>
		<path fill="#36474F" d="M634.3,367.1h-1.4v-5.8h-1.4v-1l2.9-0.3V367.1z"/>
	</g>
	<g>
		<path fill="#FFFFFF" d="M710.8,373.5L710.8,373.5c-5.8,0-10.6-4.8-10.6-10.6v0c0-5.8,4.8-10.6,10.6-10.6l0,0
			c5.8,0,10.6,4.8,10.6,10.6v0C721.4,368.8,716.6,373.5,710.8,373.5z"/>
	</g>
	<g>
		<path fill="#36474F" d="M711,367.1h-4.9v-0.9l2.3-2.5c0.3-0.4,0.6-0.7,0.7-1s0.2-0.5,0.2-0.7c0-0.3-0.1-0.5-0.2-0.7
			c-0.2-0.2-0.4-0.3-0.7-0.3c-0.3,0-0.6,0.1-0.8,0.3c-0.2,0.2-0.3,0.5-0.3,0.9h-1.4l0,0c0-0.6,0.2-1.2,0.6-1.6
			c0.4-0.4,1-0.7,1.8-0.7c0.7,0,1.3,0.2,1.7,0.6c0.4,0.4,0.6,0.9,0.6,1.5c0,0.4-0.1,0.8-0.4,1.2c-0.2,0.4-0.6,0.8-1.2,1.4L708,366
			l0,0h3V367.1z"/>
		<path fill="#36474F" d="M716.7,364.4c0,0.9-0.2,1.7-0.6,2.1c-0.4,0.5-1,0.7-1.8,0.7c-0.7,0-1.3-0.2-1.8-0.7s-0.6-1.2-0.6-2.1v-1.6
			c0-0.9,0.2-1.7,0.6-2.1c0.4-0.5,1-0.7,1.8-0.7c0.7,0,1.3,0.2,1.8,0.7c0.4,0.5,0.7,1.2,0.7,2.1V364.4z M715.3,362.7
			c0-0.6-0.1-1-0.3-1.2s-0.4-0.4-0.7-0.4c-0.3,0-0.6,0.1-0.7,0.4s-0.2,0.7-0.2,1.2v1.8c0,0.6,0.1,1,0.3,1.2c0.2,0.3,0.4,0.4,0.7,0.4
			c0.3,0,0.6-0.1,0.7-0.4s0.2-0.7,0.2-1.2V362.7z"/>
	</g>
	<g>
		<path fill="#FFFFFF" d="M76.2,412.1L76.2,412.1c-5.8,0-10.6-4.8-10.6-10.6v0c0-5.8,4.8-10.6,10.6-10.6h0c5.8,0,10.6,4.8,10.6,10.6
			v0C86.8,407.4,82,412.1,76.2,412.1z"/>
	</g>
	<g>
		<path fill="#36474F" d="M75.4,405.8h-4.9v-0.9l2.3-2.5c0.3-0.4,0.6-0.7,0.7-1s0.2-0.5,0.2-0.7c0-0.3-0.1-0.5-0.2-0.7
			c-0.2-0.2-0.4-0.3-0.7-0.3c-0.3,0-0.6,0.1-0.8,0.3c-0.2,0.2-0.3,0.5-0.3,0.9h-1.4l0,0c0-0.6,0.2-1.2,0.6-1.6
			c0.4-0.4,1-0.7,1.8-0.7c0.7,0,1.3,0.2,1.7,0.6c0.4,0.4,0.6,0.9,0.6,1.5c0,0.4-0.1,0.8-0.4,1.2c-0.2,0.4-0.6,0.8-1.2,1.4l-1.3,1.4
			l0,0h3V405.8z"/>
		<path fill="#36474F" d="M78.8,400.8c0.7,0,1.3,0.2,1.7,0.7s0.6,1,0.6,1.8v0.1c0,0.7-0.2,1.4-0.7,1.8c-0.4,0.5-1.1,0.7-1.8,0.7
			c-0.8,0-1.4-0.2-1.8-0.7c-0.4-0.5-0.7-1.1-0.7-1.8v-0.7c0-1.2,0.2-2.1,0.7-2.7s1-1,1.8-1.2c0.3-0.1,0.5-0.1,0.7-0.2
			c0.2-0.1,0.2-0.2,0.2-0.4h1.1l0,0c0,0.6-0.1,1-0.4,1.3s-0.8,0.4-1.5,0.5c-0.4,0.1-0.7,0.2-0.9,0.4c-0.2,0.2-0.4,0.5-0.4,0.9l0,0
			c0.2-0.2,0.4-0.3,0.6-0.4C78.3,400.8,78.6,400.8,78.8,400.8z M78.7,401.9c-0.4,0-0.6,0.1-0.8,0.4s-0.3,0.6-0.3,1v0.1
			c0,0.4,0.1,0.8,0.3,1c0.2,0.3,0.4,0.4,0.8,0.4c0.4,0,0.6-0.1,0.8-0.4c0.2-0.3,0.3-0.6,0.3-1v-0.1c0-0.4-0.1-0.7-0.3-1
			S79.1,401.9,78.7,401.9z"/>
	</g>
	<g>
		<path fill="#FFFFFF" d="M76.2,497.9L76.2,497.9c-5.8,0-10.6-4.8-10.6-10.6l0,0c0-5.8,4.8-10.6,10.6-10.6h0
			c5.8,0,10.6,4.8,10.6,10.6l0,0C86.8,493.1,82,497.9,76.2,497.9z"/>
	</g>
	<g>
		<path fill="#36474F" d="M75.4,491.5h-4.9v-0.9l2.3-2.5c0.3-0.4,0.6-0.7,0.7-1s0.2-0.5,0.2-0.7c0-0.3-0.1-0.5-0.2-0.7
			c-0.2-0.2-0.4-0.3-0.7-0.3c-0.3,0-0.6,0.1-0.8,0.3c-0.2,0.2-0.3,0.5-0.3,0.9h-1.4l0,0c0-0.6,0.2-1.2,0.6-1.6
			c0.4-0.4,1-0.7,1.8-0.7c0.7,0,1.3,0.2,1.7,0.6c0.4,0.4,0.6,0.9,0.6,1.5c0,0.4-0.1,0.8-0.4,1.2c-0.2,0.4-0.6,0.8-1.2,1.4l-1.3,1.4
			l0,0h3V491.5z"/>
		<path fill="#36474F" d="M79.5,491.5c-0.1-0.1-0.1-0.2-0.1-0.4c0-0.1-0.1-0.3-0.1-0.4c-0.1,0.3-0.3,0.5-0.6,0.6
			c-0.2,0.2-0.5,0.3-0.9,0.3c-0.6,0-1-0.1-1.3-0.4s-0.4-0.7-0.4-1.2c0-0.5,0.2-0.9,0.6-1.2c0.4-0.3,1-0.4,1.7-0.4h0.8v-0.4
			c0-0.3-0.1-0.5-0.2-0.6s-0.3-0.2-0.6-0.2c-0.2,0-0.4,0.1-0.5,0.2c-0.1,0.1-0.2,0.3-0.2,0.5l-1.4,0l0,0c0-0.4,0.2-0.8,0.6-1.2
			s0.9-0.5,1.6-0.5c0.6,0,1.1,0.2,1.5,0.5s0.6,0.8,0.6,1.4v2.2c0,0.2,0,0.5,0.1,0.7c0,0.2,0.1,0.4,0.2,0.6H79.5z M78.2,490.5
			c0.3,0,0.5-0.1,0.7-0.2s0.3-0.3,0.4-0.4v-0.7h-0.8c-0.3,0-0.5,0.1-0.7,0.2s-0.2,0.3-0.2,0.5c0,0.2,0.1,0.3,0.2,0.4
			S78,490.5,78.2,490.5z"/>
	</g>
	<g>
		<path fill="#FFFFFF" d="M76.2,584L76.2,584c-5.8,0-10.6-4.8-10.6-10.6l0,0c0-5.8,4.8-10.6,10.6-10.6h0c5.8,0,10.6,4.8,10.6,10.6
			l0,0C86.8,579.2,82,584,76.2,584z"/>
	</g>
	<g>
		<path fill="#36474F" d="M76.8,577.6h-1.4v-5.8h-1.4v-1l2.9-0.3V577.6z"/>
	</g>
	<g>
		<path fill="#FFFFFF" d="M222.2,574.5L222.2,574.5c-5.8,0-10.6-4.8-10.6-10.6l0,0c0-5.8,4.8-10.6,10.6-10.6h0
			c5.8,0,10.6,4.8,10.6,10.6l0,0C232.8,569.7,228,574.5,222.2,574.5z"/>
	</g>
	<g>
		<path fill="#36474F" d="M219.8,568.1h-1.4v-5.8h-1.4v-1l2.9-0.3V568.1z"/>
		<path fill="#36474F" d="M224.4,567.1c0.4,0,0.7-0.1,0.9-0.4c0.2-0.3,0.4-0.7,0.4-1.2v-0.4c-0.2,0.2-0.3,0.4-0.6,0.5
			c-0.2,0.1-0.5,0.2-0.7,0.2c-0.7,0-1.2-0.2-1.6-0.6c-0.4-0.4-0.6-1-0.6-1.8c0-0.7,0.2-1.3,0.7-1.8s1-0.7,1.7-0.7
			c0.7,0,1.3,0.3,1.8,0.7s0.7,1.2,0.7,2.1v1.7c0,0.9-0.3,1.5-0.8,2c-0.5,0.5-1.2,0.7-1.9,0.7c-0.2,0-0.5,0-0.8-0.1
			c-0.3-0.1-0.5-0.1-0.7-0.2l0.2-1c0.2,0.1,0.4,0.1,0.6,0.2C223.9,567.1,224.1,567.1,224.4,567.1z M224.6,564.7c0.2,0,0.4,0,0.6-0.1
			s0.3-0.2,0.4-0.4v-0.7c0-0.5-0.1-0.9-0.3-1.2s-0.4-0.4-0.7-0.4c-0.3,0-0.5,0.1-0.7,0.4c-0.2,0.3-0.3,0.6-0.3,1
			c0,0.4,0.1,0.7,0.2,1C224.1,564.6,224.3,564.7,224.6,564.7z"/>
	</g>
	<g>
		<path fill="#FFFFFF" d="M320,574.5L320,574.5c-5.8,0-10.6-4.8-10.6-10.6l0,0c0-5.8,4.8-10.6,10.6-10.6h0c5.8,0,10.6,4.8,10.6,10.6
			l0,0C330.6,569.7,325.8,574.5,320,574.5z"/>
	</g>
	<g>
		<path fill="#36474F" d="M318.6,568.1h-1.4v-5.8h-1.4v-1l2.9-0.3V568.1z"/>
		<path fill="#36474F" d="M325.7,562.9c0,0.4-0.1,0.7-0.3,0.9c-0.2,0.3-0.4,0.5-0.8,0.6c0.4,0.2,0.7,0.4,0.9,0.7s0.3,0.6,0.3,1
			c0,0.7-0.2,1.2-0.7,1.5s-1,0.5-1.7,0.5c-0.7,0-1.3-0.2-1.8-0.5c-0.4-0.4-0.7-0.9-0.7-1.5c0-0.4,0.1-0.7,0.3-1
			c0.2-0.3,0.5-0.5,0.9-0.7c-0.3-0.2-0.6-0.4-0.8-0.6s-0.3-0.6-0.3-0.9c0-0.6,0.2-1.1,0.6-1.5s1-0.5,1.6-0.5c0.7,0,1.2,0.2,1.6,0.5
			S325.7,562.2,325.7,562.9z M324.5,566c0-0.3-0.1-0.6-0.3-0.8c-0.2-0.2-0.4-0.3-0.7-0.3c-0.3,0-0.5,0.1-0.7,0.3
			c-0.2,0.2-0.3,0.4-0.3,0.8c0,0.3,0.1,0.6,0.3,0.8c0.2,0.2,0.4,0.3,0.7,0.3c0.3,0,0.5-0.1,0.7-0.3
			C324.4,566.6,324.5,566.4,324.5,566z M324.3,562.9c0-0.3-0.1-0.5-0.2-0.7c-0.2-0.2-0.4-0.3-0.6-0.3c-0.3,0-0.5,0.1-0.6,0.3
			s-0.2,0.4-0.2,0.7c0,0.3,0.1,0.5,0.2,0.7c0.1,0.2,0.4,0.3,0.6,0.3c0.3,0,0.5-0.1,0.6-0.3C324.3,563.5,324.3,563.2,324.3,562.9z"/>
	</g>
	<g>
		<path fill="#FFFFFF" d="M418.8,574.5L418.8,574.5c-5.8,0-10.6-4.8-10.6-10.6l0,0c0-5.8,4.8-10.6,10.6-10.6h0
			c5.8,0,10.6,4.8,10.6,10.6l0,0C429.4,569.7,424.6,574.5,418.8,574.5z"/>
	</g>
	<g>
		<path fill="#36474F" d="M416.4,568.1H415v-5.8h-1.4v-1l2.9-0.3V568.1z"/>
		<path fill="#36474F" d="M423.7,562.1c-0.8,0.9-1.3,1.7-1.6,2.5c-0.3,0.8-0.5,1.7-0.6,2.8l-0.1,0.7h-1.4l0.1-0.7
			c0.1-1,0.3-2,0.7-2.9c0.4-0.9,0.9-1.7,1.5-2.4h-3.7V561h5V562.1z"/>
	</g>
	<g>
		<path fill="#FFFFFF" d="M515.2,574.5L515.2,574.5c-5.8,0-10.6-4.8-10.6-10.6l0,0c0-5.8,4.8-10.6,10.6-10.6l0,0
			c5.8,0,10.6,4.8,10.6,10.6l0,0C525.8,569.7,521,574.5,515.2,574.5z"/>
	</g>
	<g>
		<path fill="#36474F" d="M510.8,568.1h-1.4v-5.8h-1.4v-1l2.9-0.3V568.1z"/>
		<path fill="#36474F" d="M516.2,560.9c0.3,0,0.5,0,0.7,0.1c0.2,0.1,0.5,0.1,0.7,0.2l-0.3,1c-0.2-0.1-0.4-0.1-0.6-0.2
			c-0.2,0-0.4-0.1-0.6-0.1c-0.4,0-0.8,0.2-1,0.5c-0.3,0.3-0.4,0.8-0.4,1.3l0,0c0.2-0.2,0.4-0.3,0.6-0.4s0.5-0.1,0.8-0.1
			c0.6,0,1.1,0.2,1.5,0.7c0.4,0.5,0.5,1,0.5,1.7c0,0.7-0.2,1.3-0.7,1.8c-0.4,0.5-1,0.7-1.7,0.7c-0.8,0-1.4-0.3-1.8-0.8
			s-0.7-1.2-0.7-2.1v-1.4c0-0.9,0.3-1.7,0.8-2.2S515.3,560.9,516.2,560.9z M515.8,564.4c-0.3,0-0.5,0-0.7,0.1s-0.3,0.2-0.4,0.3v0.5
			c0,0.6,0.1,1,0.3,1.3c0.2,0.3,0.5,0.5,0.8,0.5c0.3,0,0.5-0.1,0.7-0.4c0.2-0.3,0.3-0.6,0.3-1c0-0.4-0.1-0.7-0.3-1
			S516.1,564.4,515.8,564.4z"/>
		<path fill="#36474F" d="M522.2,568.1c-0.1-0.1-0.1-0.2-0.1-0.4c0-0.1-0.1-0.3-0.1-0.4c-0.1,0.3-0.3,0.5-0.6,0.6
			c-0.2,0.2-0.5,0.3-0.9,0.3c-0.6,0-1-0.1-1.3-0.4s-0.4-0.7-0.4-1.2c0-0.5,0.2-0.9,0.6-1.2c0.4-0.3,1-0.4,1.7-0.4h0.8v-0.4
			c0-0.3-0.1-0.5-0.2-0.6s-0.3-0.2-0.6-0.2c-0.2,0-0.4,0.1-0.5,0.2c-0.1,0.1-0.2,0.3-0.2,0.5l-1.4,0l0,0c0-0.4,0.2-0.8,0.6-1.2
			s0.9-0.5,1.6-0.5c0.6,0,1.1,0.2,1.5,0.5s0.6,0.8,0.6,1.4v2.2c0,0.2,0,0.5,0.1,0.7c0,0.2,0.1,0.4,0.2,0.6H522.2z M520.9,567.1
			c0.3,0,0.5-0.1,0.7-0.2s0.3-0.3,0.4-0.4v-0.7h-0.8c-0.3,0-0.5,0.1-0.7,0.2s-0.2,0.3-0.2,0.5c0,0.2,0.1,0.3,0.2,0.4
			S520.7,567.1,520.9,567.1z"/>
	</g>
	<g>
		<path fill="#FFFFFF" d="M614,574.5L614,574.5c-5.8,0-10.6-4.8-10.6-10.6l0,0c0-5.8,4.8-10.6,10.6-10.6h0c5.8,0,10.6,4.8,10.6,10.6
			l0,0C624.6,569.7,619.8,574.5,614,574.5z"/>
	</g>
	<g>
		<path fill="#36474F" d="M608.6,568.1h-1.4v-5.8h-1.4v-1l2.9-0.3V568.1z"/>
		<path fill="#36474F" d="M614,560.9c0.3,0,0.5,0,0.7,0.1c0.2,0.1,0.5,0.1,0.7,0.2l-0.3,1c-0.2-0.1-0.4-0.1-0.6-0.2
			c-0.2,0-0.4-0.1-0.6-0.1c-0.4,0-0.8,0.2-1,0.5c-0.3,0.3-0.4,0.8-0.4,1.3l0,0c0.2-0.2,0.4-0.3,0.6-0.4s0.5-0.1,0.8-0.1
			c0.6,0,1.1,0.2,1.5,0.7c0.4,0.5,0.5,1,0.5,1.7c0,0.7-0.2,1.3-0.7,1.8c-0.4,0.5-1,0.7-1.7,0.7c-0.8,0-1.4-0.3-1.8-0.8
			s-0.7-1.2-0.7-2.1v-1.4c0-0.9,0.3-1.7,0.8-2.2S613.1,560.9,614,560.9z M613.6,564.4c-0.3,0-0.5,0-0.7,0.1s-0.3,0.2-0.4,0.3v0.5
			c0,0.6,0.1,1,0.3,1.3c0.2,0.3,0.5,0.5,0.8,0.5c0.3,0,0.5-0.1,0.7-0.4c0.2-0.3,0.3-0.6,0.3-1c0-0.4-0.1-0.7-0.3-1
			S613.9,564.4,613.6,564.4z"/>
		<path fill="#36474F" d="M619.4,563.1c0.7,0,1.3,0.2,1.7,0.7s0.6,1,0.6,1.8v0.1c0,0.7-0.2,1.4-0.7,1.8c-0.4,0.5-1.1,0.7-1.8,0.7
			c-0.8,0-1.4-0.2-1.8-0.7c-0.4-0.5-0.7-1.1-0.7-1.8V565c0-1.2,0.2-2.1,0.7-2.7s1-1,1.8-1.2c0.3-0.1,0.5-0.1,0.7-0.2
			c0.2-0.1,0.2-0.2,0.2-0.4h1.1l0,0c0,0.6-0.1,1-0.4,1.3s-0.8,0.4-1.5,0.5c-0.4,0.1-0.7,0.2-0.9,0.4c-0.2,0.2-0.4,0.5-0.4,0.9l0,0
			c0.2-0.2,0.4-0.3,0.6-0.4C618.9,563.1,619.1,563.1,619.4,563.1z M619.3,564.2c-0.4,0-0.6,0.1-0.8,0.4s-0.3,0.6-0.3,1v0.1
			c0,0.4,0.1,0.8,0.3,1c0.2,0.3,0.4,0.4,0.8,0.4c0.4,0,0.6-0.1,0.8-0.4c0.2-0.3,0.3-0.6,0.3-1v-0.1c0-0.4-0.1-0.7-0.3-1
			S619.6,564.2,619.3,564.2z"/>
	</g>
	<g>
		<path fill="#FFFFFF" d="M710.8,574.5L710.8,574.5c-5.8,0-10.6-4.8-10.6-10.6l0,0c0-5.8,4.8-10.6,10.6-10.6l0,0
			c5.8,0,10.6,4.8,10.6,10.6l0,0C721.4,569.7,716.6,574.5,710.8,574.5z"/>
	</g>
	<g>
		<path fill="#36474F" d="M708.4,568.1H707v-5.8h-1.4v-1l2.9-0.3V568.1z"/>
		<path fill="#36474F" d="M711.1,564.9l0.4-4h4v1.1h-2.8l-0.2,1.6c0.1-0.1,0.3-0.2,0.5-0.2s0.4-0.1,0.6-0.1c0.7,0,1.2,0.2,1.6,0.6
			c0.4,0.4,0.6,1,0.6,1.8c0,0.7-0.2,1.3-0.6,1.7c-0.4,0.5-1,0.7-1.8,0.7c-0.7,0-1.2-0.2-1.7-0.5s-0.7-0.8-0.7-1.5l0,0l1.4-0.1
			c0,0.3,0.1,0.6,0.3,0.7s0.4,0.3,0.7,0.3c0.3,0,0.6-0.1,0.7-0.4c0.2-0.2,0.2-0.5,0.2-0.9c0-0.4-0.1-0.7-0.3-1
			c-0.2-0.2-0.4-0.4-0.8-0.4c-0.3,0-0.5,0.1-0.6,0.2c-0.1,0.1-0.2,0.2-0.3,0.4L711.1,564.9z"/>
	</g>
	<g>
		<path fill="#FFFFFF" d="M277.8,77.7L277.8,77.7c-5.8,0-10.6-4.8-10.6-10.6v0c0-5.8,4.8-10.6,10.6-10.6h0c5.8,0,10.6,4.8,10.6,10.6
			v0C288.4,73,283.7,77.7,277.8,77.7z"/>
	</g>
	<g>
		<path fill="#36474F" d="M278.1,64.1c0.3,0,0.5,0,0.7,0.1c0.2,0.1,0.5,0.1,0.7,0.2l-0.3,1c-0.2-0.1-0.4-0.1-0.6-0.2
			c-0.2,0-0.4-0.1-0.6-0.1c-0.4,0-0.8,0.2-1,0.5c-0.3,0.3-0.4,0.8-0.4,1.3l0,0c0.2-0.2,0.4-0.3,0.6-0.4s0.5-0.1,0.8-0.1
			c0.6,0,1.1,0.2,1.5,0.7c0.4,0.5,0.5,1,0.5,1.7c0,0.7-0.2,1.3-0.7,1.8c-0.4,0.5-1,0.7-1.7,0.7c-0.8,0-1.4-0.3-1.8-0.8
			s-0.7-1.2-0.7-2.1v-1.4c0-0.9,0.3-1.7,0.8-2.2S277.3,64.1,278.1,64.1z M277.8,67.7c-0.3,0-0.5,0-0.7,0.1s-0.3,0.2-0.4,0.3v0.5
			c0,0.6,0.1,1,0.3,1.3c0.2,0.3,0.5,0.5,0.8,0.5c0.3,0,0.5-0.1,0.7-0.4c0.2-0.3,0.3-0.6,0.3-1c0-0.4-0.1-0.7-0.3-1
			S278.1,67.7,277.8,67.7z"/>
	</g>
	<g>
		<path fill="#FFFFFF" d="M372.2,77.7L372.2,77.7c-5.8,0-10.6-4.8-10.6-10.6v0c0-5.8,4.8-10.6,10.6-10.6h0c5.8,0,10.6,4.8,10.6,10.6
			v0C382.8,73,378,77.7,372.2,77.7z"/>
	</g>
	<g>
		<path fill="#36474F" d="M374.4,65.3c-0.8,0.9-1.3,1.7-1.6,2.5c-0.3,0.8-0.5,1.7-0.6,2.8l-0.1,0.7h-1.4l0.1-0.7
			c0.1-1,0.3-2,0.7-2.9s0.9-1.7,1.5-2.4h-3.7v-1.1h5V65.3z"/>
	</g>
	<g>
		<path fill="#FFFFFF" d="M466.8,77.7L466.8,77.7c-5.8,0-10.6-4.8-10.6-10.6v0c0-5.8,4.8-10.6,10.6-10.6h0c5.8,0,10.6,4.8,10.6,10.6
			v0C477.4,73,472.7,77.7,466.8,77.7z"/>
	</g>
	<g>
		<path fill="#36474F" d="M468.9,66.1c0,0.4-0.1,0.7-0.3,0.9c-0.2,0.3-0.4,0.5-0.8,0.6c0.4,0.2,0.7,0.4,0.9,0.7s0.3,0.6,0.3,1
			c0,0.7-0.2,1.2-0.7,1.5s-1,0.5-1.7,0.5c-0.7,0-1.3-0.2-1.8-0.5c-0.4-0.4-0.7-0.9-0.7-1.5c0-0.4,0.1-0.7,0.3-1
			c0.2-0.3,0.5-0.5,0.9-0.7c-0.3-0.2-0.6-0.4-0.8-0.6s-0.3-0.6-0.3-0.9c0-0.6,0.2-1.1,0.6-1.5s1-0.5,1.6-0.5c0.7,0,1.2,0.2,1.6,0.5
			S468.9,65.5,468.9,66.1z M467.6,69.3c0-0.3-0.1-0.6-0.3-0.8c-0.2-0.2-0.4-0.3-0.7-0.3c-0.3,0-0.5,0.1-0.7,0.3
			c-0.2,0.2-0.3,0.4-0.3,0.8c0,0.3,0.1,0.6,0.3,0.8c0.2,0.2,0.4,0.3,0.7,0.3c0.3,0,0.5-0.1,0.7-0.3
			C467.5,69.9,467.6,69.6,467.6,69.3z M467.5,66.2c0-0.3-0.1-0.5-0.2-0.7c-0.2-0.2-0.4-0.3-0.6-0.3c-0.3,0-0.5,0.1-0.6,0.3
			s-0.2,0.4-0.2,0.7c0,0.3,0.1,0.5,0.2,0.7c0.1,0.2,0.4,0.3,0.6,0.3c0.3,0,0.5-0.1,0.6-0.3C467.4,66.7,467.5,66.5,467.5,66.2z"/>
	</g>
	<g>
		<path fill="#FFFFFF" d="M561.2,77.7L561.2,77.7c-5.8,0-10.6-4.8-10.6-10.6v0c0-5.8,4.8-10.6,10.6-10.6l0,0
			c5.8,0,10.6,4.8,10.6,10.6v0C571.8,73,567,77.7,561.2,77.7z"/>
	</g>
	<g>
		<path fill="#36474F" d="M560.6,70.4c0.4,0,0.7-0.1,0.9-0.4c0.2-0.3,0.4-0.7,0.4-1.2v-0.4c-0.2,0.2-0.3,0.4-0.6,0.5
			c-0.2,0.1-0.5,0.2-0.7,0.2c-0.7,0-1.2-0.2-1.6-0.6c-0.4-0.4-0.6-1-0.6-1.8c0-0.7,0.2-1.3,0.7-1.8s1-0.7,1.7-0.7
			c0.7,0,1.3,0.3,1.8,0.7s0.7,1.2,0.7,2.1v1.7c0,0.9-0.3,1.5-0.8,2c-0.5,0.5-1.2,0.7-1.9,0.7c-0.2,0-0.5,0-0.8-0.1
			c-0.3-0.1-0.5-0.1-0.7-0.2l0.2-1c0.2,0.1,0.4,0.1,0.6,0.2C560.1,70.3,560.4,70.4,560.6,70.4z M560.9,68c0.2,0,0.4,0,0.6-0.1
			s0.3-0.2,0.4-0.4v-0.7c0-0.5-0.1-0.9-0.3-1.2s-0.4-0.4-0.7-0.4c-0.3,0-0.5,0.1-0.7,0.4c-0.2,0.3-0.3,0.6-0.3,1
			c0,0.4,0.1,0.7,0.2,1C560.3,67.8,560.5,68,560.9,68z"/>
	</g>
	<g>
		<path fill="#FFFFFF" d="M749.2,77.7L749.2,77.7c-5.8,0-10.6-4.8-10.6-10.6v0c0-5.8,4.8-10.6,10.6-10.6l0,0
			c5.8,0,10.6,4.8,10.6,10.6v0C759.8,73,755,77.7,749.2,77.7z"/>
	</g>
	<g>
		<path fill="#36474F" d="M743.8,71.4h-1.4v-5.8H741v-1l2.9-0.3V71.4z"/>
		<path fill="#36474F" d="M751.1,68.6c0,0.9-0.2,1.7-0.6,2.1c-0.4,0.5-1,0.7-1.8,0.7c-0.7,0-1.3-0.2-1.8-0.7s-0.6-1.2-0.6-2.1V67
			c0-0.9,0.2-1.7,0.6-2.1c0.4-0.5,1-0.7,1.8-0.7c0.7,0,1.3,0.2,1.8,0.7c0.4,0.5,0.7,1.2,0.7,2.1V68.6z M749.7,66.9
			c0-0.6-0.1-1-0.3-1.2s-0.4-0.4-0.7-0.4c-0.3,0-0.6,0.1-0.7,0.4s-0.2,0.7-0.2,1.2v1.8c0,0.6,0.1,1,0.3,1.2c0.2,0.3,0.4,0.4,0.7,0.4
			c0.3,0,0.6-0.1,0.7-0.4s0.2-0.7,0.2-1.2V66.9z"/>
		<path fill="#36474F" d="M754.6,66.4c0.7,0,1.3,0.2,1.7,0.7s0.6,1,0.6,1.8v0.1c0,0.7-0.2,1.4-0.7,1.8c-0.4,0.5-1.1,0.7-1.8,0.7
			c-0.8,0-1.4-0.2-1.8-0.7c-0.4-0.5-0.7-1.1-0.7-1.8v-0.7c0-1.2,0.2-2.1,0.7-2.7s1-1,1.8-1.2c0.3-0.1,0.5-0.1,0.7-0.2
			c0.2-0.1,0.2-0.2,0.2-0.4h1.1l0,0c0,0.6-0.1,1-0.4,1.3s-0.8,0.4-1.5,0.5c-0.4,0.1-0.7,0.2-0.9,0.4c-0.2,0.2-0.4,0.5-0.4,0.9l0,0
			c0.2-0.2,0.4-0.3,0.6-0.4C754.1,66.4,754.4,66.4,754.6,66.4z M754.5,67.5c-0.4,0-0.6,0.1-0.8,0.4s-0.3,0.6-0.3,1v0.1
			c0,0.4,0.1,0.8,0.3,1c0.2,0.3,0.4,0.4,0.8,0.4c0.4,0,0.6-0.1,0.8-0.4c0.2-0.3,0.3-0.6,0.3-1v-0.1c0-0.4-0.1-0.7-0.3-1
			S754.9,67.5,754.5,67.5z"/>
	</g>
	<g>
		<path fill="#FFFFFF" d="M856.6,77.7L856.6,77.7c-5.8,0-10.6-4.8-10.6-10.6v0c0-5.8,4.8-10.6,10.6-10.6h0c5.8,0,10.6,4.8,10.6,10.6
			v0C867.2,73,862.4,77.7,856.6,77.7z"/>
	</g>
	<g>
		<path fill="#36474F" d="M854.2,71.4h-1.4v-5.8h-1.4v-1l2.9-0.3V71.4z"/>
		<path fill="#36474F" d="M859.9,71.4h-1.4v-5.8H857v-1l2.9-0.3V71.4z"/>
	</g>
	<g>
		<path fill="#FFFFFF" d="M856.6,240.7L856.6,240.7c-5.8,0-10.6-4.8-10.6-10.6v0c0-5.8,4.8-10.6,10.6-10.6h0
			c5.8,0,10.6,4.8,10.6,10.6v0C867.2,236,862.4,240.7,856.6,240.7z"/>
	</g>
	<g>
		<path fill="#36474F" d="M854.2,234.4h-1.4v-5.8h-1.4v-1l2.9-0.3V234.4z"/>
		<path fill="#36474F" d="M861.5,234.4h-4.9v-0.9l2.3-2.5c0.3-0.4,0.6-0.7,0.7-1s0.2-0.5,0.2-0.7c0-0.3-0.1-0.5-0.2-0.7
			c-0.2-0.2-0.4-0.3-0.7-0.3c-0.3,0-0.6,0.1-0.8,0.3c-0.2,0.2-0.3,0.5-0.3,0.9h-1.4l0,0c0-0.6,0.2-1.2,0.6-1.6
			c0.4-0.4,1-0.7,1.8-0.7c0.7,0,1.3,0.2,1.7,0.6c0.4,0.4,0.6,0.9,0.6,1.5c0,0.4-0.1,0.8-0.4,1.2c-0.2,0.4-0.6,0.8-1.2,1.4l-1.3,1.4
			l0,0h3V234.4z"/>
	</g>
	<g>
		<path fill="#FFFFFF" d="M856.6,433.4L856.6,433.4c-5.8,0-10.6-4.8-10.6-10.6v0c0-5.8,4.8-10.6,10.6-10.6h0
			c5.8,0,10.6,4.8,10.6,10.6v0C867.2,428.6,862.4,433.4,856.6,433.4z"/>
	</g>
	<g>
		<path fill="#36474F" d="M854.2,427h-1.4v-5.8h-1.4v-1l2.9-0.3V427z"/>
		<path fill="#36474F" d="M858.1,422.9h0.8c0.3,0,0.6-0.1,0.8-0.3c0.2-0.2,0.2-0.4,0.2-0.7c0-0.3-0.1-0.5-0.2-0.7
			c-0.2-0.2-0.4-0.3-0.7-0.3c-0.3,0-0.5,0.1-0.7,0.2s-0.3,0.4-0.3,0.6h-1.4l0,0c0-0.6,0.2-1,0.6-1.4s1-0.5,1.7-0.5
			c0.7,0,1.3,0.2,1.8,0.5c0.4,0.4,0.7,0.9,0.7,1.5c0,0.3-0.1,0.6-0.3,0.9s-0.5,0.5-0.8,0.7c0.4,0.1,0.7,0.4,0.9,0.6
			c0.2,0.3,0.3,0.6,0.3,1c0,0.7-0.2,1.2-0.7,1.5c-0.5,0.4-1.1,0.6-1.8,0.6c-0.7,0-1.2-0.2-1.7-0.5c-0.5-0.4-0.7-0.8-0.7-1.5l0,0h1.4
			c0,0.3,0.1,0.5,0.3,0.7s0.4,0.3,0.7,0.3c0.3,0,0.6-0.1,0.8-0.3c0.2-0.2,0.3-0.4,0.3-0.7c0-0.4-0.1-0.6-0.3-0.8
			c-0.2-0.2-0.5-0.3-0.8-0.3h-0.8V422.9z"/>
	</g>
	<g>
		<path fill="#FFFFFF" d="M856.6,560.7L856.6,560.7c-5.8,0-10.6-4.8-10.6-10.6l0,0c0-5.8,4.8-10.6,10.6-10.6h0
			c5.8,0,10.6,4.8,10.6,10.6l0,0C867.2,556,862.4,560.7,856.6,560.7z"/>
	</g>
	<g>
		<path fill="#36474F" d="M854.2,554.4h-1.4v-5.8h-1.4v-1l2.9-0.3V554.4z"/>
		<path fill="#36474F" d="M860.9,551.7h0.8v1.1h-0.8v1.5h-1.4v-1.5h-2.9l-0.1-0.9l2.9-4.7h1.4V551.7z M857.8,551.7h1.6v-2.6l0,0
			l-0.1,0.2L857.8,551.7z"/>
	</g>
	<g>
		<path fill="#FFFFFF" d="M655.5,77.7L655.5,77.7c-5.8,0-10.6-4.8-10.6-10.6v0c0-5.8,4.8-10.6,10.6-10.6l0,0
			c5.8,0,10.6,4.8,10.6,10.6v0C666.1,73,661.3,77.7,655.5,77.7z"/>
	</g>
	<g>
		<path fill="#36474F" d="M650.1,71.4h-1.4v-5.8h-1.4v-1l2.9-0.3V71.4z"/>
		<path fill="#36474F" d="M657.4,68.6c0,0.9-0.2,1.7-0.6,2.1c-0.4,0.5-1,0.7-1.8,0.7c-0.7,0-1.3-0.2-1.8-0.7s-0.6-1.2-0.6-2.1V67
			c0-0.9,0.2-1.7,0.6-2.1c0.4-0.5,1-0.7,1.8-0.7c0.7,0,1.3,0.2,1.8,0.7c0.4,0.5,0.7,1.2,0.7,2.1V68.6z M656,66.9
			c0-0.6-0.1-1-0.3-1.2s-0.4-0.4-0.7-0.4c-0.3,0-0.6,0.1-0.7,0.4s-0.2,0.7-0.2,1.2v1.8c0,0.6,0.1,1,0.3,1.2c0.2,0.3,0.4,0.4,0.7,0.4
			c0.3,0,0.6-0.1,0.7-0.4s0.2-0.7,0.2-1.2V66.9z"/>
		<path fill="#36474F" d="M661.5,71.4c-0.1-0.1-0.1-0.2-0.1-0.4c0-0.1-0.1-0.3-0.1-0.4c-0.1,0.3-0.3,0.5-0.6,0.6
			c-0.2,0.2-0.5,0.3-0.9,0.3c-0.6,0-1-0.1-1.3-0.4s-0.4-0.7-0.4-1.2c0-0.5,0.2-0.9,0.6-1.2c0.4-0.3,1-0.4,1.7-0.4h0.8v-0.4
			c0-0.3-0.1-0.5-0.2-0.6s-0.3-0.2-0.6-0.2c-0.2,0-0.4,0.1-0.5,0.2c-0.1,0.1-0.2,0.3-0.2,0.5l-1.4,0l0,0c0-0.4,0.2-0.8,0.6-1.2
			s0.9-0.5,1.6-0.5c0.6,0,1.1,0.2,1.5,0.5s0.6,0.8,0.6,1.4V70c0,0.2,0,0.5,0.1,0.7c0,0.2,0.1,0.4,0.2,0.6H661.5z M660.2,70.4
			c0.3,0,0.5-0.1,0.7-0.2s0.3-0.3,0.4-0.4V69h-0.8c-0.3,0-0.5,0.1-0.7,0.2s-0.2,0.3-0.2,0.5c0,0.2,0.1,0.3,0.2,0.4
			S660,70.4,660.2,70.4z"/>
	</g>
	<g opacity="0.4">
		<g>
			<rect x="216" y="119.8" fill="#FFFFFF" width="4" height="1"/>
		</g>
		<g>
			<path fill="#FFFFFF" d="M210,120.8h-8v-1h8V120.8z M195,120.8h-8v-1h8V120.8z M180,120.8h-8v-1h8V120.8z M165,120.8h-8v-1h8
				V120.8z"/>
		</g>
		<g>
			<rect x="149" y="119.8" fill="#FFFFFF" width="4" height="1"/>
		</g>
	</g>
	<g opacity="0.4">
		<g>
			<rect x="255" y="208.8" fill="#FFFFFF" width="4" height="1"/>
		</g>
		<g>
			<path fill="#FFFFFF" d="M249,209.8h-8v-1h8V209.8z M234,209.8h-8v-1h8V209.8z M219,209.8h-8v-1h8V209.8z M204,209.8h-8v-1h8
				V209.8z"/>
		</g>
		<g>
			<rect x="188" y="208.8" fill="#FFFFFF" width="4" height="1"/>
		</g>
	</g>
	<g opacity="0.4">
		<g>
			<rect x="111" y="151.8" fill="#FFFFFF" width="1" height="4"/>
		</g>
		<g>
			<path fill="#FFFFFF" d="M112,215.8h-1v-8h1V215.8z M112,200.8h-1v-8h1V200.8z M112,185.8h-1v-8h1V185.8z M112,170.8h-1v-8h1
				V170.8z"/>
		</g>
		<g>
			<rect x="111" y="219.8" fill="#FFFFFF" width="1" height="4"/>
		</g>
	</g>
	<g opacity="0.4">
		<g>
			<rect x="822" y="152.8" fill="#FFFFFF" width="1" height="4"/>
		</g>
		<g>
			<path fill="#FFFFFF" d="M823,302.8h-1v-4h1V302.8z M823,291.8h-1v-8h1V291.8z M823,276.8h-1v-8h1V276.8z M823,261.8h-1v-8h1
				V261.8z M823,246.8h-1v-8h1V246.8z M823,231.8h-1v-8h1V231.8z M823,216.8h-1v-8h1V216.8z M823,201.8h-1v-8h1V201.8z M823,186.8
				h-1v-8h1V186.8z M823,171.8h-1v-8h1V171.8z"/>
		</g>
		<g>
			<rect x="822" y="305.8" fill="#FFFFFF" width="1" height="4"/>
		</g>
	</g>
	<g opacity="0.4">
		<g>
			<rect x="822" y="365.8" fill="#FFFFFF" width="1" height="4"/>
		</g>
		<g>
			<path fill="#FFFFFF" d="M823,472.8h-1v-6h1V472.8z M823,459.8h-1v-8h1V459.8z M823,444.8h-1v-8h1V444.8z M823,429.8h-1v-8h1
				V429.8z M823,414.8h-1v-8h1V414.8z M823,399.8h-1v-8h1V399.8z M823,384.8h-1v-8h1V384.8z"/>
		</g>
		<g>
			<rect x="822" y="475.8" fill="#FFFFFF" width="1" height="4"/>
		</g>
	</g>
	<g opacity="0.4">
		<g>
			<rect x="822" y="494.8" fill="#FFFFFF" width="1" height="4"/>
		</g>
		<g>
			<path fill="#FFFFFF" d="M823,601.8h-1v-6h1V601.8z M823,588.8h-1v-8h1V588.8z M823,573.8h-1v-8h1V573.8z M823,558.8h-1v-8h1
				V558.8z M823,543.8h-1v-8h1V543.8z M823,528.8h-1v-8h1V528.8z M823,513.8h-1v-8h1V513.8z"/>
		</g>
		<g>
			<rect x="822" y="604.8" fill="#FFFFFF" width="1" height="4"/>
		</g>
	</g>
	<g opacity="0.4">
		<g>
			<rect x="111" y="236.8" fill="#FFFFFF" width="1" height="4"/>
		</g>
		<g>
			<path fill="#FFFFFF" d="M112,300.8h-1v-8h1V300.8z M112,285.8h-1v-8h1V285.8z M112,270.8h-1v-8h1V270.8z M112,255.8h-1v-8h1
				V255.8z"/>
		</g>
		<g>
			<rect x="111" y="304.8" fill="#FFFFFF" width="1" height="4"/>
		</g>
	</g>
	<g opacity="0.4">
		<g>
			<rect x="111" y="366.8" fill="#FFFFFF" width="1" height="4"/>
		</g>
		<g>
			<path fill="#FFFFFF" d="M112,430.8h-1v-8h1V430.8z M112,415.8h-1v-8h1V415.8z M112,400.8h-1v-8h1V400.8z M112,385.8h-1v-8h1
				V385.8z"/>
		</g>
		<g>
			<rect x="111" y="434.8" fill="#FFFFFF" width="1" height="4"/>
		</g>
	</g>
	<g opacity="0.4">
		<g>
			<rect x="111" y="451.8" fill="#FFFFFF" width="1" height="4"/>
		</g>
		<g>
			<path fill="#FFFFFF" d="M112,515.8h-1v-8h1V515.8z M112,500.8h-1v-8h1V500.8z M112,485.8h-1v-8h1V485.8z M112,470.8h-1v-8h1
				V470.8z"/>
		</g>
		<g>
			<rect x="111" y="519.8" fill="#FFFFFF" width="1" height="4"/>
		</g>
	</g>
	<g opacity="0.4">
		<g>
			<rect x="111" y="537.8" fill="#FFFFFF" width="1" height="4"/>
		</g>
		<g>
			<path fill="#FFFFFF" d="M112,601.8h-1v-8h1V601.8z M112,586.8h-1v-8h1V586.8z M112,571.8h-1v-8h1V571.8z M112,556.8h-1v-8h1
				V556.8z"/>
		</g>
		<g>
			<rect x="111" y="605.8" fill="#FFFFFF" width="1" height="4"/>
		</g>
	</g>
	<g opacity="0.4">
		<g>
			<rect x="337" y="208.8" fill="#FFFFFF" width="4" height="1"/>
		</g>
		<g>
			<path fill="#FFFFFF" d="M331,209.8h-8v-1h8V209.8z M316,209.8h-8v-1h8V209.8z M301,209.8h-8v-1h8V209.8z M286,209.8h-8v-1h8
				V209.8z"/>
		</g>
		<g>
			<rect x="270" y="208.8" fill="#FFFFFF" width="4" height="1"/>
		</g>
	</g>
	<g opacity="0.4">
		<g>
			<rect x="418" y="208.8" fill="#FFFFFF" width="4" height="1"/>
		</g>
		<g>
			<path fill="#FFFFFF" d="M412,209.8h-8v-1h8V209.8z M397,209.8h-8v-1h8V209.8z M382,209.8h-8v-1h8V209.8z M367,209.8h-8v-1h8
				V209.8z"/>
		</g>
		<g>
			<rect x="351" y="208.8" fill="#FFFFFF" width="4" height="1"/>
		</g>
	</g>
	<g opacity="0.4">
		<g>
			<rect x="499" y="208.8" fill="#FFFFFF" width="4" height="1"/>
		</g>
		<g>
			<path fill="#FFFFFF" d="M493,209.8h-8v-1h8V209.8z M478,209.8h-8v-1h8V209.8z M463,209.8h-8v-1h8V209.8z M448,209.8h-8v-1h8
				V209.8z"/>
		</g>
		<g>
			<rect x="432" y="208.8" fill="#FFFFFF" width="4" height="1"/>
		</g>
	</g>
	<g opacity="0.4">
		<g>
			<rect x="581" y="208.8" fill="#FFFFFF" width="4" height="1"/>
		</g>
		<g>
			<path fill="#FFFFFF" d="M575,209.8h-8v-1h8V209.8z M560,209.8h-8v-1h8V209.8z M545,209.8h-8v-1h8V209.8z M530,209.8h-8v-1h8
				V209.8z"/>
		</g>
		<g>
			<rect x="514" y="208.8" fill="#FFFFFF" width="4" height="1"/>
		</g>
	</g>
	<g opacity="0.4">
		<g>
			<rect x="662" y="208.8" fill="#FFFFFF" width="4" height="1"/>
		</g>
		<g>
			<path fill="#FFFFFF" d="M656,209.8h-8v-1h8V209.8z M641,209.8h-8v-1h8V209.8z M626,209.8h-8v-1h8V209.8z M611,209.8h-8v-1h8
				V209.8z"/>
		</g>
		<g>
			<rect x="595" y="208.8" fill="#FFFFFF" width="4" height="1"/>
		</g>
	</g>
	<g opacity="0.4">
		<g>
			<rect x="744" y="208.8" fill="#FFFFFF" width="4" height="1"/>
		</g>
		<g>
			<path fill="#FFFFFF" d="M738,209.8h-8v-1h8V209.8z M723,209.8h-8v-1h8V209.8z M708,209.8h-8v-1h8V209.8z M693,209.8h-8v-1h8
				V209.8z"/>
		</g>
		<g>
			<rect x="677" y="208.8" fill="#FFFFFF" width="4" height="1"/>
		</g>
	</g>
	<g opacity="0.4">
		<g>
			<rect x="255" y="419.8" fill="#FFFFFF" width="4" height="1"/>
		</g>
		<g>
			<path fill="#FFFFFF" d="M249,420.8h-8v-1h8V420.8z M234,420.8h-8v-1h8V420.8z M219,420.8h-8v-1h8V420.8z M204,420.8h-8v-1h8
				V420.8z"/>
		</g>
		<g>
			<rect x="188" y="419.8" fill="#FFFFFF" width="4" height="1"/>
		</g>
	</g>
	<g opacity="0.4">
		<g>
			<rect x="337" y="419.8" fill="#FFFFFF" width="4" height="1"/>
		</g>
		<g>
			<path fill="#FFFFFF" d="M331,420.8h-8v-1h8V420.8z M316,420.8h-8v-1h8V420.8z M301,420.8h-8v-1h8V420.8z M286,420.8h-8v-1h8
				V420.8z"/>
		</g>
		<g>
			<rect x="270" y="419.8" fill="#FFFFFF" width="4" height="1"/>
		</g>
	</g>
	<g opacity="0.4">
		<g>
			<rect x="418" y="419.8" fill="#FFFFFF" width="4" height="1"/>
		</g>
		<g>
			<path fill="#FFFFFF" d="M412,420.8h-8v-1h8V420.8z M397,420.8h-8v-1h8V420.8z M382,420.8h-8v-1h8V420.8z M367,420.8h-8v-1h8
				V420.8z"/>
		</g>
		<g>
			<rect x="351" y="419.8" fill="#FFFFFF" width="4" height="1"/>
		</g>
	</g>
	<g opacity="0.4">
		<g>
			<rect x="499" y="419.8" fill="#FFFFFF" width="4" height="1"/>
		</g>
		<g>
			<path fill="#FFFFFF" d="M493,420.8h-8v-1h8V420.8z M478,420.8h-8v-1h8V420.8z M463,420.8h-8v-1h8V420.8z M448,420.8h-8v-1h8
				V420.8z"/>
		</g>
		<g>
			<rect x="432" y="419.8" fill="#FFFFFF" width="4" height="1"/>
		</g>
	</g>
	<g opacity="0.4">
		<g>
			<rect x="581" y="419.8" fill="#FFFFFF" width="4" height="1"/>
		</g>
		<g>
			<path fill="#FFFFFF" d="M575,420.8h-8v-1h8V420.8z M560,420.8h-8v-1h8V420.8z M545,420.8h-8v-1h8V420.8z M530,420.8h-8v-1h8
				V420.8z"/>
		</g>
		<g>
			<rect x="514" y="419.8" fill="#FFFFFF" width="4" height="1"/>
		</g>
	</g>
	<g opacity="0.4">
		<g>
			<rect x="662" y="419.8" fill="#FFFFFF" width="4" height="1"/>
		</g>
		<g>
			<path fill="#FFFFFF" d="M656,420.8h-8v-1h8V420.8z M641,420.8h-8v-1h8V420.8z M626,420.8h-8v-1h8V420.8z M611,420.8h-8v-1h8
				V420.8z"/>
		</g>
		<g>
			<rect x="595" y="419.8" fill="#FFFFFF" width="4" height="1"/>
		</g>
	</g>
	<g opacity="0.4">
		<g>
			<rect x="744" y="419.8" fill="#FFFFFF" width="4" height="1"/>
		</g>
		<g>
			<path fill="#FFFFFF" d="M738,420.8h-8v-1h8V420.8z M723,420.8h-8v-1h8V420.8z M708,420.8h-8v-1h8V420.8z M693,420.8h-8v-1h8
				V420.8z"/>
		</g>
		<g>
			<rect x="677" y="419.8" fill="#FFFFFF" width="4" height="1"/>
		</g>
	</g>
	<g opacity="0.4">
		<g>
			<rect x="255" y="507.8" fill="#FFFFFF" width="4" height="1"/>
		</g>
		<g>
			<path fill="#FFFFFF" d="M249,508.8h-8v-1h8V508.8z M234,508.8h-8v-1h8V508.8z M219,508.8h-8v-1h8V508.8z M204,508.8h-8v-1h8
				V508.8z"/>
		</g>
		<g>
			<rect x="188" y="507.8" fill="#FFFFFF" width="4" height="1"/>
		</g>
	</g>
	<g opacity="0.4">
		<g>
			<rect x="353" y="507.8" fill="#FFFFFF" width="4" height="1"/>
		</g>
		<g>
			<path fill="#FFFFFF" d="M347,508.8h-8v-1h8V508.8z M332,508.8h-8v-1h8V508.8z M317,508.8h-8v-1h8V508.8z M302,508.8h-8v-1h8
				V508.8z"/>
		</g>
		<g>
			<rect x="286" y="507.8" fill="#FFFFFF" width="4" height="1"/>
		</g>
	</g>
	<g opacity="0.4">
		<g>
			<rect x="450" y="507.8" fill="#FFFFFF" width="4" height="1"/>
		</g>
		<g>
			<path fill="#FFFFFF" d="M444,508.8h-8v-1h8V508.8z M429,508.8h-8v-1h8V508.8z M414,508.8h-8v-1h8V508.8z M399,508.8h-8v-1h8
				V508.8z"/>
		</g>
		<g>
			<rect x="383" y="507.8" fill="#FFFFFF" width="4" height="1"/>
		</g>
	</g>
	<g opacity="0.4">
		<g>
			<rect x="548" y="507.8" fill="#FFFFFF" width="4" height="1"/>
		</g>
		<g>
			<path fill="#FFFFFF" d="M542,508.8h-8v-1h8V508.8z M527,508.8h-8v-1h8V508.8z M512,508.8h-8v-1h8V508.8z M497,508.8h-8v-1h8
				V508.8z"/>
		</g>
		<g>
			<rect x="481" y="507.8" fill="#FFFFFF" width="4" height="1"/>
		</g>
	</g>
	<g opacity="0.4">
		<g>
			<rect x="646" y="507.8" fill="#FFFFFF" width="4" height="1"/>
		</g>
		<g>
			<path fill="#FFFFFF" d="M640,508.8h-8v-1h8V508.8z M625,508.8h-8v-1h8V508.8z M610,508.8h-8v-1h8V508.8z M595,508.8h-8v-1h8
				V508.8z"/>
		</g>
		<g>
			<rect x="579" y="507.8" fill="#FFFFFF" width="4" height="1"/>
		</g>
	</g>
	<g opacity="0.4">
		<g>
			<rect x="743" y="507.8" fill="#FFFFFF" width="4" height="1"/>
		</g>
		<g>
			<path fill="#FFFFFF" d="M737,508.8h-8v-1h8V508.8z M722,508.8h-8v-1h8V508.8z M707,508.8h-8v-1h8V508.8z M692,508.8h-8v-1h8
				V508.8z"/>
		</g>
		<g>
			<rect x="676" y="507.8" fill="#FFFFFF" width="4" height="1"/>
		</g>
	</g>
	<g opacity="0.4">
		<g>
			<rect x="311" y="119.8" fill="#FFFFFF" width="4" height="1"/>
		</g>
		<g>
			<path fill="#FFFFFF" d="M305,120.8h-8v-1h8V120.8z M290,120.8h-8v-1h8V120.8z M275,120.8h-8v-1h8V120.8z M260,120.8h-8v-1h8
				V120.8z"/>
		</g>
		<g>
			<rect x="244" y="119.8" fill="#FFFFFF" width="4" height="1"/>
		</g>
	</g>
	<g opacity="0.4">
		<g>
			<rect x="405" y="119.8" fill="#FFFFFF" width="4" height="1"/>
		</g>
		<g>
			<path fill="#FFFFFF" d="M399,120.8h-8v-1h8V120.8z M384,120.8h-8v-1h8V120.8z M369,120.8h-8v-1h8V120.8z M354,120.8h-8v-1h8
				V120.8z"/>
		</g>
		<g>
			<rect x="338" y="119.8" fill="#FFFFFF" width="4" height="1"/>
		</g>
	</g>
	<g opacity="0.4">
		<g>
			<rect x="499" y="119.8" fill="#FFFFFF" width="4" height="1"/>
		</g>
		<g>
			<path fill="#FFFFFF" d="M493,120.8h-8v-1h8V120.8z M478,120.8h-8v-1h8V120.8z M463,120.8h-8v-1h8V120.8z M448,120.8h-8v-1h8
				V120.8z"/>
		</g>
		<g>
			<rect x="432" y="119.8" fill="#FFFFFF" width="4" height="1"/>
		</g>
	</g>
	<g opacity="0.4">
		<g>
			<rect x="593" y="119.8" fill="#FFFFFF" width="4" height="1"/>
		</g>
		<g>
			<path fill="#FFFFFF" d="M587,120.8h-8v-1h8V120.8z M572,120.8h-8v-1h8V120.8z M557,120.8h-8v-1h8V120.8z M542,120.8h-8v-1h8
				V120.8z"/>
		</g>
		<g>
			<rect x="526" y="119.8" fill="#FFFFFF" width="4" height="1"/>
		</g>
	</g>
	<g opacity="0.4">
		<g>
			<rect x="688" y="119.8" fill="#FFFFFF" width="4" height="1"/>
		</g>
		<g>
			<path fill="#FFFFFF" d="M682,120.8h-8v-1h8V120.8z M667,120.8h-8v-1h8V120.8z M652,120.8h-8v-1h8V120.8z M637,120.8h-8v-1h8
				V120.8z"/>
		</g>
		<g>
			<rect x="621" y="119.8" fill="#FFFFFF" width="4" height="1"/>
		</g>
	</g>
	<g opacity="0.4">
		<g>
			<rect x="783" y="119.8" fill="#FFFFFF" width="4" height="1"/>
		</g>
		<g>
			<path fill="#FFFFFF" d="M777,120.8h-8v-1h8V120.8z M762,120.8h-8v-1h8V120.8z M747,120.8h-8v-1h8V120.8z M732,120.8h-8v-1h8
				V120.8z"/>
		</g>
		<g>
			<rect x="716" y="119.8" fill="#FFFFFF" width="4" height="1"/>
		</g>
	</g>
	<g opacity="0.4">
		<path fill="#FFFFFF" d="M821.7,136.9h-1v-8h1V136.9z M821.7,121.9h-1v-1.9h-5.1v-1h6.1V121.9z M808.6,120.1h-8v-1h8V120.1z"/>
	</g>
	<g opacity="0.4">
		<path fill="#FFFFFF" d="M112.1,139h-1v-8h1V139z M112.1,124h-1v-5h4v1h-3V124z M130.1,120.1h-8v-1h8V120.1z"/>
	</g>
</g>
</svg>
