<?xml version="1.0" encoding="utf-8"?>
<!-- Generator: Adobe Illustrator 18.0.0, SVG Export Plug-In . SVG Version: 6.00 Build 0)  -->
<!DOCTYPE svg PUBLIC "-//W3C//DTD SVG 1.1//EN" "http://www.w3.org/Graphics/SVG/1.1/DTD/svg11.dtd">
<svg version="1.1" id="Layer_2" xmlns="http://www.w3.org/2000/svg" xmlns:xlink="http://www.w3.org/1999/xlink" x="0px" y="0px"
	 width="1453px" height="477px" viewBox="0 0 1453 477" enable-background="new 0 0 1453 477" xml:space="preserve">
<g>
	<g>
		<path fill="#64B5F6" d="M122.5,186H16.2c-1.7,0-3-1.3-3-3V15c0-1.7,1.3-3,3-3h106.3c1.7,0,3,1.3,3,3v168
			C125.5,184.6,124.1,186,122.5,186z"/>
	</g>
	<g>
		<path fill="#81C784" d="M122.5,380H16.2c-1.7,0-3-1.3-3-3V209c0-1.7,1.3-3,3-3h106.3c1.7,0,3,1.3,3,3v168
			C125.5,378.6,124.1,380,122.5,380z"/>
	</g>
	<g>
		<path fill="#81C784" d="M1443.3,15.1v53c0,1.7-1.3,3-3,3h-94.6c-1.7,0-3-1.3-3-3v-53c0-1.7,1.3-3,3-3h94.6
			C1442,12.1,1443.3,13.4,1443.3,15.1z"/>
	</g>
	<g>
		<path fill="#81C784" d="M1334.1,14.8v53c0,1.7-1.3,3-3,3h-94.6c-1.7,0-3-1.3-3-3v-53c0-1.7,1.3-3,3-3h94.6
			C1332.7,11.8,1334.1,13.1,1334.1,14.8z"/>
	</g>
	<g>
		<path fill="#64B5F6" d="M1224.9,15.1v53c0,1.7-1.3,3-3,3h-94.6c-1.7,0-3-1.3-3-3v-53c0-1.7,1.3-3,3-3h94.6
			C1223.5,12.1,1224.9,13.5,1224.9,15.1z"/>
	</g>
	<g>
		<path fill="#81C784" d="M1115.6,15.3v53c0,1.7-1.3,3-3,3H1018c-1.7,0-3-1.3-3-3v-53c0-1.7,1.3-3,3-3h94.6
			C1114.3,12.3,1115.6,13.7,1115.6,15.3z"/>
	</g>
	<g>
		<path fill="#81C784" d="M1006.4,15.4v53c0,1.7-1.3,3-3,3h-94.6c-1.7,0-3-1.3-3-3v-53c0-1.7,1.3-3,3-3h94.6
			C1005.1,12.4,1006.4,13.8,1006.4,15.4z"/>
	</g>
	<g>
		<path fill="#81C784" d="M897.2,15.5v53c0,1.7-1.3,3-3,3h-94.6c-1.7,0-3-1.3-3-3v-53c0-1.7,1.3-3,3-3h94.6
			C895.8,12.5,897.2,13.8,897.2,15.5z"/>
	</g>
	<g>
		<path fill="#81C784" d="M787.9,15.5v53c0,1.7-1.3,3-3,3h-94.6c-1.7,0-3-1.3-3-3v-53c0-1.7,1.3-3,3-3h94.6
			C786.6,12.5,787.9,13.8,787.9,15.5z"/>
	</g>
	<g>
		<path fill="#81C784" d="M678.7,15.5v53c0,1.7-1.3,3-3,3h-94.6c-1.7,0-3-1.3-3-3v-53c0-1.7,1.3-3,3-3h94.6
			C677.4,12.5,678.7,13.8,678.7,15.5z"/>
	</g>
	<g>
		<path fill="#81C784" d="M569.5,15.5v53c0,1.7-1.3,3-3,3h-94.6c-1.7,0-3-1.3-3-3v-53c0-1.7,1.3-3,3-3h94.6
			C568.1,12.5,569.5,13.8,569.5,15.5z"/>
	</g>
	<g>
		<path fill="#64B5F6" d="M460.3,15.5v53c0,1.7-1.3,3-3,3h-94.6c-1.7,0-3-1.3-3-3v-53c0-1.7,1.3-3,3-3h94.6
			C458.9,12.5,460.3,13.8,460.3,15.5z"/>
	</g>
	<g>
		<path fill="#81C784" d="M351,15.5v53c0,1.7-1.3,3-3,3h-94.6c-1.7,0-3-1.3-3-3v-53c0-1.7,1.3-3,3-3H348
			C349.7,12.5,351,13.8,351,15.5z"/>
	</g>
	<g>
		<path fill="#81C784" d="M1441.9,158v53.6c0,1.5-1.2,2.7-2.7,2.7H1364c-1.5,0-2.7-1.2-2.7-2.7V158c0-1.5,1.2-2.7,2.7-2.7h75.3
			C1440.7,155.3,1441.9,156.5,1441.9,158z"/>
	</g>
	<g>
		<path fill="#81C784" d="M1340.9,157.9v53.6c0,1.5-1.2,2.7-2.7,2.7H1263c-1.5,0-2.7-1.2-2.7-2.7v-53.6c0-1.5,1.2-2.7,2.7-2.7h75.3
			C1339.7,155.2,1340.9,156.4,1340.9,157.9z"/>
	</g>
	<g>
		<path fill="#64B5F6" d="M1240,158v53.6c0,1.5-1.2,2.7-2.7,2.7H1162c-1.5,0-2.7-1.2-2.7-2.7V158c0-1.5,1.2-2.7,2.7-2.7h75.3
			C1238.8,155.3,1240,156.5,1240,158z"/>
	</g>
	<g>
		<path fill="#64B5F6" d="M1139,158.1v53.6c0,1.5-1.2,2.7-2.7,2.7H1061c-1.5,0-2.7-1.2-2.7-2.7v-53.6c0-1.5,1.2-2.7,2.7-2.7h75.3
			C1137.8,155.4,1139,156.6,1139,158.1z"/>
	</g>
	<g>
		<path fill="#64B5F6" d="M1038,158.1v53.6c0,1.5-1.2,2.7-2.7,2.7h-75.3c-1.5,0-2.7-1.2-2.7-2.7v-53.6c0-1.5,1.2-2.7,2.7-2.7h75.3
			C1036.8,155.5,1038,156.7,1038,158.1z"/>
	</g>
	<g>
		<path fill="#81C784" d="M937,158.2v53.6c0,1.5-1.2,2.7-2.7,2.7h-75.3c-1.5,0-2.7-1.2-2.7-2.7v-53.6c0-1.5,1.2-2.7,2.7-2.7h75.3
			C935.8,155.5,937,156.7,937,158.2z"/>
	</g>
	<g>
		<path fill="#81C784" d="M836,158.3v53.6c0,1.5-1.2,2.7-2.7,2.7h-75.3c-1.5,0-2.7-1.2-2.7-2.7v-53.6c0-1.5,1.2-2.7,2.7-2.7h75.3
			C834.8,155.6,836,156.8,836,158.3z"/>
	</g>
	<g>
		<path fill="#81C784" d="M735.1,158.3V212c0,1.5-1.2,2.7-2.7,2.7h-75.3c-1.5,0-2.7-1.2-2.7-2.7v-53.6c0-1.5,1.2-2.7,2.7-2.7h75.3
			C733.9,155.6,735.1,156.8,735.1,158.3z"/>
	</g>
	<g>
		<path fill="#64B5F6" d="M634.1,158.4V212c0,1.5-1.2,2.7-2.7,2.7h-75.3c-1.5,0-2.7-1.2-2.7-2.7v-53.6c0-1.5,1.2-2.7,2.7-2.7h75.3
			C632.9,155.7,634.1,156.9,634.1,158.4z"/>
	</g>
	<g>
		<path fill="#81C784" d="M533.1,158.4v53.6c0,1.5-1.2,2.7-2.7,2.7h-75.3c-1.5,0-2.7-1.2-2.7-2.7v-53.6c0-1.5,1.2-2.7,2.7-2.7h75.3
			C531.9,155.8,533.1,157,533.1,158.4z"/>
	</g>
	<g>
		<path fill="#81C784" d="M432.1,157.8v53.6c0,1.5-1.2,2.7-2.7,2.7h-75.3c-1.5,0-2.7-1.2-2.7-2.7v-53.6c0-1.5,1.2-2.7,2.7-2.7h75.3
			C430.9,155.2,432.1,156.4,432.1,157.8z"/>
	</g>
	<g>
		<path fill="#81C784" d="M331.1,157.8v53.6c0,1.5-1.2,2.7-2.7,2.7h-75.3c-1.5,0-2.7-1.2-2.7-2.7v-53.6c0-1.5,1.2-2.7,2.7-2.7h75.3
			C329.9,155.1,331.1,156.3,331.1,157.8z"/>
	</g>
	<g>
		<path fill="#64B5F6" d="M565.8,380V246.2c0-1.9,1.5-3.5,3.5-3.5h141.4c1.9,0,3.5,1.5,3.5,3.5V380c0,1.9-1.5,3.5-3.5,3.5H569.2
			C567.3,383.4,565.8,381.9,565.8,380z"/>
	</g>
	<g>
		<path fill="#B5B5B5" d="M859.6,380.2V245.5c0-1.7,1.3-3,3-3h575.8c1.7,0,3,1.3,3,3v134.7c0,1.7-1.3,3-3,3H862.6
			C861,383.2,859.6,381.8,859.6,380.2z"/>
	</g>
	<g>
		<path fill="#81C784" d="M408.2,379.7V245.9c0-1.9,1.5-3.5,3.5-3.5H553c1.9,0,3.5,1.5,3.5,3.5v133.7c0,1.9-1.5,3.5-3.5,3.5H411.7
			C409.8,383.1,408.2,381.6,408.2,379.7z"/>
	</g>
	<g>
		<path fill="#81C784" d="M250.6,379V245.2c0-1.9,1.5-3.5,3.5-3.5h141.4c1.9,0,3.5,1.5,3.5,3.5V379c0,1.9-1.5,3.5-3.5,3.5H254.1
			C252.2,382.4,250.6,380.9,250.6,379z"/>
	</g>
	<g>
		<path fill="#81C784" d="M241.8,15.5v53c0,1.7-1.3,3-3,3h-94.6c-1.7,0-3-1.3-3-3v-53c0-1.7,1.3-3,3-3h94.6
			C240.5,12.5,241.8,13.8,241.8,15.5z"/>
	</g>
	<g>
		<path fill="#81C784" d="M1045.4,409.7v53c0,1.7-1.3,3-3,3h-68.6c-1.7,0-3-1.3-3-3v-53c0-1.7,1.3-3,3-3h68.6
			C1044.1,406.7,1045.4,408,1045.4,409.7z"/>
	</g>
	<g>
		<path fill="#81C784" d="M954.9,409.7v53c0,1.7-1.3,3-3,3h-68.6c-1.7,0-3-1.3-3-3v-53c0-1.7,1.3-3,3-3h68.6
			C953.6,406.7,954.9,408,954.9,409.7z"/>
	</g>
	<g>
		<path fill="#81C784" d="M867.6,410.2v53c0,1.7-1.3,3-3,3H792c-1.7,0-3-1.3-3-3v-53c0-1.7,1.3-3,3-3h72.6
			C866.2,407.2,867.6,408.5,867.6,410.2z"/>
	</g>
	<g>
		<path fill="#64B5F6" d="M776.6,409.9v53c0,1.7-1.3,3-3,3h-68.6c-1.7,0-3-1.3-3-3v-53c0-1.7,1.3-3,3-3h68.6
			C775.2,406.9,776.6,408.2,776.6,409.9z"/>
	</g>
	<g>
		<path fill="#81C784" d="M685.8,410.3v53c0,1.7-1.3,3-3,3h-68.6c-1.7,0-3-1.3-3-3v-53c0-1.7,1.3-3,3-3h68.6
			C684.5,407.3,685.8,408.7,685.8,410.3z"/>
	</g>
	<g>
		<path fill="#81C784" d="M598,409.6v53c0,1.7-1.3,3-3,3h-72.6c-1.7,0-3-1.3-3-3v-53c0-1.7,1.3-3,3-3H595
			C596.6,406.6,598,407.9,598,409.6z"/>
	</g>
	<g>
		<path fill="#64B5F6" d="M508.6,409.7v53c0,1.7-1.3,3-3,3H433c-1.7,0-3-1.3-3-3v-53c0-1.7,1.3-3,3-3h72.6
			C507.3,406.7,508.6,408,508.6,409.7z"/>
	</g>
	<g>
		<path fill="#81C784" d="M418.2,409.7v53c0,1.7-1.3,3-3,3h-72.6c-1.7,0-3-1.3-3-3v-53c0-1.7,1.3-3,3-3h72.6
			C416.9,406.7,418.2,408.1,418.2,409.7z"/>
	</g>
	<g>
		<path fill="#81C784" d="M328.3,409.7v53c0,1.7-1.3,3-3,3h-72.6c-1.7,0-3-1.3-3-3v-53c0-1.7,1.3-3,3-3h72.6
			C327,406.7,328.3,408.1,328.3,409.7z"/>
	</g>
	<g>
		<path fill="#81C784" d="M126.2,400.4v53c0,1.7-1.3,3-3,3H50.6c-1.7,0-3-1.3-3-3v-53c0-1.7,1.3-3,3-3h72.6
			C124.8,397.4,126.2,398.7,126.2,400.4z"/>
	</g>
</g>
<g>
	<g>
		<path fill="#FFFFFF" d="M1393,52.1L1393,52.1c-5.8,0-10.6-4.8-10.6-10.6v0c0-5.8,4.8-10.6,10.6-10.6l0,0c5.8,0,10.6,4.8,10.6,10.6
			v0C1403.6,47.4,1398.8,52.1,1393,52.1z"/>
	</g>
	<g>
		<path fill="#36464E" d="M1393.6,45.8h-1.4v-5.8h-1.4v-1l2.9-0.3V45.8z"/>
	</g>
	<g>
		<path fill="#FFFFFF" d="M1283.8,51.9L1283.8,51.9c-5.8,0-10.6-4.8-10.6-10.6v0c0-5.8,4.8-10.6,10.6-10.6l0,0
			c5.8,0,10.6,4.8,10.6,10.6v0C1294.4,47.1,1289.6,51.9,1283.8,51.9z"/>
	</g>
	<g>
		<path fill="#36464E" d="M1286,45.5h-4.9v-0.9l2.3-2.5c0.3-0.4,0.6-0.7,0.7-1s0.2-0.5,0.2-0.7c0-0.3-0.1-0.5-0.2-0.7
			c-0.2-0.2-0.4-0.3-0.7-0.3c-0.3,0-0.6,0.1-0.8,0.3c-0.2,0.2-0.3,0.5-0.3,0.9h-1.4l0,0c0-0.6,0.2-1.2,0.6-1.6
			c0.4-0.4,1-0.7,1.8-0.7c0.7,0,1.3,0.2,1.7,0.6c0.4,0.4,0.6,0.9,0.6,1.5c0,0.4-0.1,0.8-0.4,1.2c-0.2,0.4-0.6,0.8-1.2,1.4l-1.3,1.4
			l0,0h3V45.5z"/>
	</g>
	<g>
		<path fill="#FFFFFF" d="M1174.5,52.2L1174.5,52.2c-5.8,0-10.6-4.8-10.6-10.6v0c0-5.8,4.8-10.6,10.6-10.6l0,0
			c5.8,0,10.6,4.8,10.6,10.6v0C1185.1,47.5,1180.4,52.2,1174.5,52.2z"/>
	</g>
	<g>
		<path fill="#36464E" d="M1173.4,41.7h0.8c0.3,0,0.6-0.1,0.8-0.3s0.2-0.4,0.2-0.7c0-0.3-0.1-0.5-0.2-0.7s-0.4-0.3-0.7-0.3
			c-0.3,0-0.5,0.1-0.7,0.2s-0.3,0.4-0.3,0.6h-1.4l0,0c0-0.6,0.2-1,0.6-1.4s1-0.5,1.7-0.5c0.7,0,1.3,0.2,1.8,0.5
			c0.4,0.4,0.7,0.9,0.7,1.5c0,0.3-0.1,0.6-0.3,0.9s-0.5,0.5-0.8,0.7c0.4,0.1,0.7,0.4,0.9,0.6c0.2,0.3,0.3,0.6,0.3,1
			c0,0.7-0.2,1.2-0.7,1.5c-0.5,0.4-1.1,0.6-1.8,0.6c-0.7,0-1.2-0.2-1.7-0.5c-0.5-0.4-0.7-0.8-0.7-1.5l0,0h1.4c0,0.3,0.1,0.5,0.3,0.7
			c0.2,0.2,0.4,0.3,0.7,0.3c0.3,0,0.6-0.1,0.8-0.3c0.2-0.2,0.3-0.4,0.3-0.7c0-0.4-0.1-0.6-0.3-0.8c-0.2-0.2-0.5-0.3-0.8-0.3h-0.8
			V41.7z"/>
	</g>
	<g>
		<path fill="#FFFFFF" d="M1065.3,52.4L1065.3,52.4c-5.8,0-10.6-4.8-10.6-10.6v0c0-5.8,4.8-10.6,10.6-10.6l0,0
			c5.8,0,10.6,4.8,10.6,10.6v0C1075.9,47.6,1071.1,52.4,1065.3,52.4z"/>
	</g>
	<g>
		<path fill="#36464E" d="M1066.9,43.4h0.8v1.1h-0.8V46h-1.4v-1.5h-2.9l-0.1-0.9l2.9-4.7h1.4V43.4z M1063.8,43.4h1.6v-2.6l0,0
			l-0.1,0.2L1063.8,43.4z"/>
	</g>
	<g>
		<path fill="#FFFFFF" d="M956.1,52.5L956.1,52.5c-5.8,0-10.6-4.8-10.6-10.6v0c0-5.8,4.8-10.6,10.6-10.6l0,0
			c5.8,0,10.6,4.8,10.6,10.6v0C966.7,47.7,961.9,52.5,956.1,52.5z"/>
	</g>
	<g>
		<path fill="#36464E" d="M953.7,43l0.4-4h4v1.1h-2.8l-0.2,1.6c0.1-0.1,0.3-0.2,0.5-0.2s0.4-0.1,0.6-0.1c0.7,0,1.2,0.2,1.6,0.6
			c0.4,0.4,0.6,1,0.6,1.8c0,0.7-0.2,1.3-0.6,1.7c-0.4,0.5-1,0.7-1.8,0.7c-0.7,0-1.2-0.2-1.7-0.5s-0.7-0.8-0.7-1.5l0,0l1.4-0.1
			c0,0.3,0.1,0.6,0.3,0.7s0.4,0.3,0.7,0.3c0.3,0,0.6-0.1,0.7-0.4c0.2-0.2,0.2-0.5,0.2-0.9c0-0.4-0.1-0.7-0.3-1
			c-0.2-0.2-0.4-0.4-0.8-0.4c-0.3,0-0.5,0.1-0.6,0.2c-0.1,0.1-0.2,0.2-0.3,0.4L953.7,43z"/>
	</g>
	<g>
		<path fill="#FFFFFF" d="M846.9,52.5L846.9,52.5c-5.8,0-10.6-4.8-10.6-10.6v0c0-5.8,4.8-10.6,10.6-10.6l0,0
			c5.8,0,10.6,4.8,10.6,10.6v0C857.4,47.8,852.7,52.5,846.9,52.5z"/>
	</g>
	<g>
		<path fill="#36464E" d="M847.1,39c0.3,0,0.5,0,0.7,0.1c0.2,0.1,0.5,0.1,0.7,0.2l-0.3,1c-0.2-0.1-0.4-0.1-0.6-0.2
			c-0.2,0-0.4-0.1-0.6-0.1c-0.4,0-0.8,0.2-1,0.5c-0.3,0.3-0.4,0.8-0.4,1.3l0,0c0.2-0.2,0.4-0.3,0.6-0.4s0.5-0.1,0.8-0.1
			c0.6,0,1.1,0.2,1.5,0.7c0.4,0.5,0.5,1,0.5,1.7c0,0.7-0.2,1.3-0.7,1.8c-0.4,0.5-1,0.7-1.7,0.7c-0.8,0-1.4-0.3-1.8-0.8
			s-0.7-1.2-0.7-2.1V42c0-0.9,0.3-1.7,0.8-2.2S846.3,39,847.1,39z M846.8,42.5c-0.3,0-0.5,0-0.7,0.1s-0.3,0.2-0.4,0.3v0.5
			c0,0.6,0.1,1,0.3,1.3c0.2,0.3,0.5,0.5,0.8,0.5c0.3,0,0.5-0.1,0.7-0.4c0.2-0.3,0.3-0.6,0.3-1c0-0.4-0.1-0.7-0.3-1
			S847.1,42.5,846.8,42.5z"/>
	</g>
	<g>
		<path fill="#FFFFFF" d="M737.6,52.5L737.6,52.5c-5.8,0-10.6-4.8-10.6-10.6v0c0-5.8,4.8-10.6,10.6-10.6l0,0
			c5.8,0,10.6,4.8,10.6,10.6v0C748.2,47.8,743.5,52.5,737.6,52.5z"/>
	</g>
	<g>
		<path fill="#36464E" d="M739.8,40.2c-0.8,0.9-1.3,1.7-1.6,2.5c-0.3,0.8-0.5,1.7-0.6,2.8l-0.1,0.7h-1.4l0.1-0.7
			c0.1-1,0.3-2,0.7-2.9s0.9-1.7,1.5-2.4h-3.7v-1.1h5V40.2z"/>
	</g>
	<g>
		<path fill="#FFFFFF" d="M628.4,52.5L628.4,52.5c-5.8,0-10.6-4.8-10.6-10.6v0c0-5.8,4.8-10.6,10.6-10.6h0c5.8,0,10.6,4.8,10.6,10.6
			v0C639,47.8,634.2,52.5,628.4,52.5z"/>
	</g>
	<g>
		<path fill="#36464E" d="M630.4,40.9c0,0.4-0.1,0.7-0.3,0.9c-0.2,0.3-0.4,0.5-0.8,0.6c0.4,0.2,0.7,0.4,0.9,0.7s0.3,0.6,0.3,1
			c0,0.7-0.2,1.2-0.7,1.5s-1,0.5-1.7,0.5c-0.7,0-1.3-0.2-1.8-0.5c-0.4-0.4-0.7-0.9-0.7-1.5c0-0.4,0.1-0.7,0.3-1
			c0.2-0.3,0.5-0.5,0.9-0.7c-0.3-0.2-0.6-0.4-0.8-0.6s-0.3-0.6-0.3-0.9c0-0.6,0.2-1.1,0.6-1.5s1-0.5,1.6-0.5c0.7,0,1.2,0.2,1.6,0.5
			S630.4,40.3,630.4,40.9z M629.2,44.1c0-0.3-0.1-0.6-0.3-0.8c-0.2-0.2-0.4-0.3-0.7-0.3c-0.3,0-0.5,0.1-0.7,0.3
			c-0.2,0.2-0.3,0.4-0.3,0.8c0,0.3,0.1,0.6,0.3,0.8c0.2,0.2,0.4,0.3,0.7,0.3c0.3,0,0.5-0.1,0.7-0.3
			C629.1,44.7,629.2,44.4,629.2,44.1z M629,41c0-0.3-0.1-0.5-0.2-0.7c-0.2-0.2-0.4-0.3-0.6-0.3c-0.3,0-0.5,0.1-0.6,0.3
			s-0.2,0.4-0.2,0.7c0,0.3,0.1,0.5,0.2,0.7c0.1,0.2,0.4,0.3,0.6,0.3c0.3,0,0.5-0.1,0.6-0.3C628.9,41.5,629,41.3,629,41z"/>
	</g>
	<g>
		<path fill="#FFFFFF" d="M519.2,52.5L519.2,52.5c-5.8,0-10.6-4.8-10.6-10.6v0c0-5.8,4.8-10.6,10.6-10.6h0c5.8,0,10.6,4.8,10.6,10.6
			v0C529.8,47.8,525,52.5,519.2,52.5z"/>
	</g>
	<g>
		<path fill="#36464E" d="M518.6,45.2c0.4,0,0.7-0.1,0.9-0.4c0.2-0.3,0.4-0.7,0.4-1.2v-0.4c-0.2,0.2-0.3,0.4-0.6,0.5
			c-0.2,0.1-0.5,0.2-0.7,0.2c-0.7,0-1.2-0.2-1.6-0.6c-0.4-0.4-0.6-1-0.6-1.8c0-0.7,0.2-1.3,0.7-1.8s1-0.7,1.7-0.7
			c0.7,0,1.3,0.3,1.8,0.7s0.7,1.2,0.7,2.1v1.7c0,0.9-0.3,1.5-0.8,2c-0.5,0.5-1.2,0.7-1.9,0.7c-0.2,0-0.5,0-0.8-0.1
			c-0.3-0.1-0.5-0.1-0.7-0.2l0.2-1c0.2,0.1,0.4,0.1,0.6,0.2C518.1,45.2,518.4,45.2,518.6,45.2z M518.8,42.8c0.2,0,0.4,0,0.6-0.1
			s0.3-0.2,0.4-0.4v-0.7c0-0.5-0.1-0.9-0.3-1.2s-0.4-0.4-0.7-0.4c-0.3,0-0.5,0.1-0.7,0.4c-0.2,0.3-0.3,0.6-0.3,1
			c0,0.4,0.1,0.7,0.2,1C518.3,42.7,518.5,42.8,518.8,42.8z"/>
	</g>
	<g>
		<path fill="#FFFFFF" d="M409.9,52.5L409.9,52.5c-5.8,0-10.6-4.8-10.6-10.6v0c0-5.8,4.8-10.6,10.6-10.6h0c5.8,0,10.6,4.8,10.6,10.6
			v0C420.5,47.8,415.8,52.5,409.9,52.5z"/>
	</g>
	<g>
		<path fill="#36464E" d="M407.6,46.2h-1.4v-5.8h-1.4v-1l2.9-0.3V46.2z"/>
		<path fill="#36464E" d="M414.9,43.4c0,0.9-0.2,1.7-0.6,2.1c-0.4,0.5-1,0.7-1.8,0.7c-0.7,0-1.3-0.2-1.8-0.7s-0.6-1.2-0.6-2.1v-1.6
			c0-0.9,0.2-1.7,0.6-2.1c0.4-0.5,1-0.7,1.8-0.7c0.7,0,1.3,0.2,1.8,0.7c0.4,0.5,0.7,1.2,0.7,2.1V43.4z M413.4,41.7
			c0-0.6-0.1-1-0.3-1.2s-0.4-0.4-0.7-0.4c-0.3,0-0.6,0.1-0.7,0.4s-0.2,0.7-0.2,1.2v1.8c0,0.6,0.1,1,0.3,1.2c0.2,0.3,0.4,0.4,0.7,0.4
			c0.3,0,0.6-0.1,0.7-0.4s0.2-0.7,0.2-1.2V41.7z"/>
	</g>
	<g>
		<path fill="#FFFFFF" d="M300.7,52.5L300.7,52.5c-5.8,0-10.6-4.8-10.6-10.6v0c0-5.8,4.8-10.6,10.6-10.6l0,0
			c5.8,0,10.6,4.8,10.6,10.6v0C311.3,47.8,306.5,52.5,300.7,52.5z"/>
	</g>
	<g>
		<path fill="#36464E" d="M298.3,46.2h-1.4v-5.8h-1.4v-1l2.9-0.3V46.2z"/>
		<path fill="#36464E" d="M304.1,46.2h-1.4v-5.8h-1.4v-1l2.9-0.3V46.2z"/>
	</g>
	<g>
		<path fill="#FFFFFF" d="M1401.6,195.4L1401.6,195.4c-5.8,0-10.6-4.8-10.6-10.6v0c0-5.8,4.8-10.6,10.6-10.6l0,0
			c5.8,0,10.6,4.8,10.6,10.6v0C1412.2,190.6,1407.4,195.4,1401.6,195.4z"/>
	</g>
	<g>
		<path fill="#36464E" d="M1399.2,189h-1.4v-5.8h-1.4v-1l2.9-0.3V189z"/>
		<path fill="#36464E" d="M1401.9,185.8l0.4-4h4v1.1h-2.8l-0.2,1.6c0.1-0.1,0.3-0.2,0.5-0.2s0.4-0.1,0.6-0.1c0.7,0,1.2,0.2,1.6,0.6
			c0.4,0.4,0.6,1,0.6,1.8c0,0.7-0.2,1.3-0.6,1.7c-0.4,0.5-1,0.7-1.8,0.7c-0.7,0-1.2-0.2-1.7-0.5c-0.5-0.4-0.7-0.8-0.7-1.5l0,0
			l1.4-0.1c0,0.3,0.1,0.6,0.3,0.7c0.2,0.2,0.4,0.3,0.7,0.3c0.3,0,0.6-0.1,0.7-0.4c0.2-0.2,0.2-0.5,0.2-0.9c0-0.4-0.1-0.7-0.3-1
			c-0.2-0.2-0.4-0.4-0.8-0.4c-0.3,0-0.5,0.1-0.6,0.2c-0.1,0.1-0.2,0.2-0.3,0.4L1401.9,185.8z"/>
	</g>
	<g>
		<path fill="#FFFFFF" d="M1300.6,195.3L1300.6,195.3c-5.8,0-10.6-4.8-10.6-10.6v0c0-5.8,4.8-10.6,10.6-10.6h0
			c5.8,0,10.6,4.8,10.6,10.6v0C1311.2,190.5,1306.4,195.3,1300.6,195.3z"/>
	</g>
	<g>
		<path fill="#36464E" d="M1298.2,188.9h-1.4v-5.8h-1.4v-1l2.9-0.3V188.9z"/>
		<path fill="#36464E" d="M1305.6,182.9c-0.8,0.9-1.3,1.7-1.6,2.5c-0.3,0.8-0.5,1.7-0.6,2.8l-0.1,0.7h-1.4l0.1-0.7
			c0.1-1,0.3-2,0.7-2.9s0.9-1.7,1.5-2.4h-3.7v-1.1h5V182.9z"/>
	</g>
	<g>
		<path fill="#FFFFFF" d="M1199.6,195.4L1199.6,195.4c-5.8,0-10.6-4.8-10.6-10.6v0c0-5.8,4.8-10.6,10.6-10.6l0,0
			c5.8,0,10.6,4.8,10.6,10.6v0C1210.2,190.7,1205.5,195.4,1199.6,195.4z"/>
	</g>
	<g>
		<path fill="#36464E" d="M1197.2,189h-1.4v-5.8h-1.4v-1l2.9-0.3V189z"/>
		<path fill="#36464E" d="M1204.4,183.8c0,0.4-0.1,0.7-0.3,0.9c-0.2,0.3-0.4,0.5-0.8,0.6c0.4,0.2,0.7,0.4,0.9,0.7s0.3,0.6,0.3,1
			c0,0.7-0.2,1.2-0.7,1.5s-1,0.5-1.7,0.5c-0.7,0-1.3-0.2-1.8-0.5c-0.4-0.4-0.7-0.9-0.7-1.5c0-0.4,0.1-0.7,0.3-1
			c0.2-0.3,0.5-0.5,0.9-0.7c-0.3-0.2-0.6-0.4-0.8-0.6s-0.3-0.6-0.3-0.9c0-0.6,0.2-1.1,0.6-1.5s1-0.5,1.6-0.5c0.7,0,1.2,0.2,1.6,0.5
			S1204.4,183.2,1204.4,183.8z M1203.1,187c0-0.3-0.1-0.6-0.3-0.8c-0.2-0.2-0.4-0.3-0.7-0.3c-0.3,0-0.5,0.1-0.7,0.3
			c-0.2,0.2-0.3,0.4-0.3,0.8c0,0.3,0.1,0.6,0.3,0.8c0.2,0.2,0.4,0.3,0.7,0.3c0.3,0,0.5-0.1,0.7-0.3
			C1203.1,187.6,1203.1,187.3,1203.1,187z M1203,183.9c0-0.3-0.1-0.5-0.2-0.7c-0.2-0.2-0.4-0.3-0.6-0.3c-0.3,0-0.5,0.1-0.6,0.3
			s-0.2,0.4-0.2,0.7c0,0.3,0.1,0.5,0.2,0.7c0.1,0.2,0.4,0.3,0.6,0.3c0.3,0,0.5-0.1,0.6-0.3C1202.9,184.4,1203,184.2,1203,183.9z"/>
	</g>
	<g>
		<path fill="#FFFFFF" d="M1098.7,195.5L1098.7,195.5c-5.8,0-10.6-4.8-10.6-10.6v0c0-5.8,4.8-10.6,10.6-10.6l0,0
			c5.8,0,10.6,4.8,10.6,10.6v0C1109.2,190.7,1104.5,195.5,1098.7,195.5z"/>
	</g>
	<g>
		<path fill="#36464E" d="M1096.3,189.1h-1.4v-5.8h-1.4v-1l2.9-0.3V189.1z"/>
		<path fill="#36464E" d="M1100.8,188.1c0.4,0,0.7-0.1,0.9-0.4c0.2-0.3,0.4-0.7,0.4-1.2v-0.4c-0.2,0.2-0.3,0.4-0.6,0.5
			c-0.2,0.1-0.5,0.2-0.7,0.2c-0.7,0-1.2-0.2-1.6-0.6c-0.4-0.4-0.6-1-0.6-1.8c0-0.7,0.2-1.3,0.7-1.8s1-0.7,1.7-0.7
			c0.7,0,1.3,0.3,1.8,0.7s0.7,1.2,0.7,2.1v1.7c0,0.9-0.3,1.5-0.8,2c-0.5,0.5-1.2,0.7-1.9,0.7c-0.2,0-0.5,0-0.8-0.1
			c-0.3-0.1-0.5-0.1-0.7-0.2l0.2-1c0.2,0.1,0.4,0.1,0.6,0.2C1100.3,188.1,1100.6,188.1,1100.8,188.1z M1101.1,185.7
			c0.2,0,0.4,0,0.6-0.1s0.3-0.2,0.4-0.4v-0.7c0-0.5-0.1-0.9-0.3-1.2s-0.4-0.4-0.7-0.4c-0.3,0-0.5,0.1-0.7,0.4
			c-0.2,0.3-0.3,0.6-0.3,1c0,0.4,0.1,0.7,0.2,1C1100.5,185.6,1100.8,185.7,1101.1,185.7z"/>
	</g>
	<g>
		<path fill="#FFFFFF" d="M997.7,195.5L997.7,195.5c-5.8,0-10.6-4.8-10.6-10.6v0c0-5.8,4.8-10.6,10.6-10.6l0,0
			c5.8,0,10.6,4.8,10.6,10.6v0C1008.3,190.8,1003.5,195.5,997.7,195.5z"/>
	</g>
	<g>
		<path fill="#36464E" d="M996.9,189.2h-4.9v-0.9l2.3-2.5c0.3-0.4,0.6-0.7,0.7-1s0.2-0.5,0.2-0.7c0-0.3-0.1-0.5-0.2-0.7
			c-0.2-0.2-0.4-0.3-0.7-0.3c-0.3,0-0.6,0.1-0.8,0.3c-0.2,0.2-0.3,0.5-0.3,0.9H992l0,0c0-0.6,0.2-1.2,0.6-1.6c0.4-0.4,1-0.7,1.8-0.7
			c0.7,0,1.3,0.2,1.7,0.6c0.4,0.4,0.6,0.9,0.6,1.5c0,0.4-0.1,0.8-0.4,1.2c-0.2,0.4-0.6,0.8-1.2,1.4l-1.3,1.4l0,0h3V189.2z"/>
		<path fill="#36464E" d="M1002.6,186.4c0,0.9-0.2,1.7-0.6,2.1c-0.4,0.5-1,0.7-1.8,0.7c-0.7,0-1.3-0.2-1.8-0.7s-0.6-1.2-0.6-2.1
			v-1.6c0-0.9,0.2-1.7,0.6-2.1c0.4-0.5,1-0.7,1.8-0.7c0.7,0,1.3,0.2,1.8,0.7c0.4,0.5,0.7,1.2,0.7,2.1V186.4z M1001.2,184.7
			c0-0.6-0.1-1-0.3-1.2s-0.4-0.4-0.7-0.4c-0.3,0-0.6,0.1-0.7,0.4s-0.2,0.7-0.2,1.2v1.8c0,0.6,0.1,1,0.3,1.2c0.2,0.3,0.4,0.4,0.7,0.4
			c0.3,0,0.6-0.1,0.7-0.4s0.2-0.7,0.2-1.2V184.7z"/>
	</g>
	<g>
		<path fill="#FFFFFF" d="M896.7,195.6L896.7,195.6c-5.8,0-10.6-4.8-10.6-10.6v0c0-5.8,4.8-10.6,10.6-10.6l0,0
			c5.8,0,10.6,4.8,10.6,10.6v0C907.3,190.8,902.5,195.6,896.7,195.6z"/>
	</g>
	<g>
		<path fill="#36464E" d="M896.9,189.2h-4.9v-0.9l2.3-2.5c0.3-0.4,0.6-0.7,0.7-1s0.2-0.5,0.2-0.7c0-0.3-0.1-0.5-0.2-0.7
			c-0.2-0.2-0.4-0.3-0.7-0.3c-0.3,0-0.6,0.1-0.8,0.3c-0.2,0.2-0.3,0.5-0.3,0.9H892l0,0c0-0.6,0.2-1.2,0.6-1.6c0.4-0.4,1-0.7,1.8-0.7
			c0.7,0,1.3,0.2,1.7,0.6c0.4,0.4,0.6,0.9,0.6,1.5c0,0.4-0.1,0.8-0.4,1.2c-0.2,0.4-0.6,0.8-1.2,1.4l-1.3,1.4l0,0h3V189.2z"/>
		<path fill="#36464E" d="M901,189.2h-1.4v-5.8h-1.4v-1l2.9-0.3V189.2z"/>
	</g>
	<g>
		<path fill="#FFFFFF" d="M795.7,195.7L795.7,195.7c-5.8,0-10.6-4.8-10.6-10.6v0c0-5.8,4.8-10.6,10.6-10.6l0,0
			c5.8,0,10.6,4.8,10.6,10.6v0C806.3,190.9,801.5,195.7,795.7,195.7z"/>
	</g>
	<g>
		<path fill="#36464E" d="M795,189.3h-4.9v-0.9l2.3-2.5c0.3-0.4,0.6-0.7,0.7-1s0.2-0.5,0.2-0.7c0-0.3-0.1-0.5-0.2-0.7
			c-0.2-0.2-0.4-0.3-0.7-0.3c-0.3,0-0.6,0.1-0.8,0.3c-0.2,0.2-0.3,0.5-0.3,0.9H790l0,0c0-0.6,0.2-1.2,0.6-1.6c0.4-0.4,1-0.7,1.8-0.7
			c0.7,0,1.3,0.2,1.7,0.6c0.4,0.4,0.6,0.9,0.6,1.5c0,0.4-0.1,0.8-0.4,1.2c-0.2,0.4-0.6,0.8-1.2,1.4l-1.3,1.4l0,0h3V189.3z"/>
		<path fill="#36464E" d="M800.7,189.3h-4.9v-0.9l2.3-2.5c0.3-0.4,0.6-0.7,0.7-1s0.2-0.5,0.2-0.7c0-0.3-0.1-0.5-0.2-0.7
			c-0.2-0.2-0.4-0.3-0.7-0.3c-0.3,0-0.6,0.1-0.8,0.3c-0.2,0.2-0.3,0.5-0.3,0.9h-1.4l0,0c0-0.6,0.2-1.2,0.6-1.6
			c0.4-0.4,1-0.7,1.8-0.7c0.7,0,1.3,0.2,1.7,0.6c0.4,0.4,0.6,0.9,0.6,1.5c0,0.4-0.1,0.8-0.4,1.2c-0.2,0.4-0.6,0.8-1.2,1.4l-1.3,1.4
			l0,0h3V189.3z"/>
	</g>
	<g>
		<path fill="#FFFFFF" d="M694.7,195.7L694.7,195.7c-5.8,0-10.6-4.8-10.6-10.6v0c0-5.8,4.8-10.6,10.6-10.6l0,0
			c5.8,0,10.6,4.8,10.6,10.6v0C705.3,191,700.6,195.7,694.7,195.7z"/>
	</g>
	<g>
		<path fill="#36464E" d="M694,189.4h-4.9v-0.9l2.3-2.5c0.3-0.4,0.6-0.7,0.7-1s0.2-0.5,0.2-0.7c0-0.3-0.1-0.5-0.2-0.7
			c-0.2-0.2-0.4-0.3-0.7-0.3c-0.3,0-0.6,0.1-0.8,0.3c-0.2,0.2-0.3,0.5-0.3,0.9H689l0,0c0-0.6,0.2-1.2,0.6-1.6c0.4-0.4,1-0.7,1.8-0.7
			c0.7,0,1.3,0.2,1.7,0.6c0.4,0.4,0.6,0.9,0.6,1.5c0,0.4-0.1,0.8-0.4,1.2c-0.2,0.4-0.6,0.8-1.2,1.4l-1.3,1.4l0,0h3V189.4z"/>
		<path fill="#36464E" d="M696.3,185.2h0.8c0.3,0,0.6-0.1,0.8-0.3s0.2-0.4,0.2-0.7c0-0.3-0.1-0.5-0.2-0.7s-0.4-0.3-0.7-0.3
			c-0.3,0-0.5,0.1-0.7,0.2s-0.3,0.4-0.3,0.6h-1.4l0,0c0-0.6,0.2-1,0.6-1.4s1-0.5,1.7-0.5c0.7,0,1.3,0.2,1.8,0.5
			c0.4,0.4,0.7,0.9,0.7,1.5c0,0.3-0.1,0.6-0.3,0.9s-0.5,0.5-0.8,0.7c0.4,0.1,0.7,0.4,0.9,0.6c0.2,0.3,0.3,0.6,0.3,1
			c0,0.7-0.2,1.2-0.7,1.5c-0.5,0.4-1.1,0.6-1.8,0.6c-0.7,0-1.2-0.2-1.7-0.5c-0.5-0.4-0.7-0.8-0.7-1.5l0,0h1.4c0,0.3,0.1,0.5,0.3,0.7
			c0.2,0.2,0.4,0.3,0.7,0.3c0.3,0,0.6-0.1,0.8-0.3c0.2-0.2,0.3-0.4,0.3-0.7c0-0.4-0.1-0.6-0.3-0.8c-0.2-0.2-0.5-0.3-0.8-0.3h-0.8
			V185.2z"/>
	</g>
	<g>
		<path fill="#FFFFFF" d="M593.8,196L593.8,196c-5.8,0-10.6-4.8-10.6-10.6v0c0-5.8,4.8-10.6,10.6-10.6l0,0c5.8,0,10.6,4.8,10.6,10.6
			v0C604.4,191.3,599.6,196,593.8,196z"/>
	</g>
	<g>
		<path fill="#36464E" d="M593,189.7h-4.9v-0.9l2.3-2.5c0.3-0.4,0.6-0.7,0.7-1s0.2-0.5,0.2-0.7c0-0.3-0.1-0.5-0.2-0.7
			c-0.2-0.2-0.4-0.3-0.7-0.3c-0.3,0-0.6,0.1-0.8,0.3c-0.2,0.2-0.3,0.5-0.3,0.9H588l0,0c0-0.6,0.2-1.2,0.6-1.6c0.4-0.4,1-0.7,1.8-0.7
			c0.7,0,1.3,0.2,1.7,0.6c0.4,0.4,0.6,0.9,0.6,1.5c0,0.4-0.1,0.8-0.4,1.2c-0.2,0.4-0.6,0.8-1.2,1.4l-1.3,1.4l0,0h3V189.7z"/>
		<path fill="#36464E" d="M598.1,187h0.8v1.1h-0.8v1.5h-1.4v-1.5h-2.9l-0.1-0.9l2.9-4.7h1.4V187z M595,187h1.6v-2.6l0,0l-0.1,0.2
			L595,187z"/>
	</g>
	<g>
		<path fill="#FFFFFF" d="M492.8,195.9L492.8,195.9c-5.8,0-10.6-4.8-10.6-10.6v0c0-5.8,4.8-10.6,10.6-10.6h0
			c5.8,0,10.6,4.8,10.6,10.6v0C503.4,191.1,498.6,195.9,492.8,195.9z"/>
	</g>
	<g>
		<path fill="#36464E" d="M492,189.5h-4.9v-0.9l2.3-2.5c0.3-0.4,0.6-0.7,0.7-1s0.2-0.5,0.2-0.7c0-0.3-0.1-0.5-0.2-0.7
			c-0.2-0.2-0.4-0.3-0.7-0.3c-0.3,0-0.6,0.1-0.8,0.3c-0.2,0.2-0.3,0.5-0.3,0.9h-1.4l0,0c0-0.6,0.2-1.2,0.6-1.6
			c0.4-0.4,1-0.7,1.8-0.7c0.7,0,1.3,0.2,1.7,0.6c0.4,0.4,0.6,0.9,0.6,1.5c0,0.4-0.1,0.8-0.4,1.2c-0.2,0.4-0.6,0.8-1.2,1.4l-1.3,1.4
			l0,0h3V189.5z"/>
		<path fill="#36464E" d="M493.1,186.3l0.4-4h4v1.1h-2.8l-0.2,1.6c0.1-0.1,0.3-0.2,0.5-0.2s0.4-0.1,0.6-0.1c0.7,0,1.2,0.2,1.6,0.6
			c0.4,0.4,0.6,1,0.6,1.8c0,0.7-0.2,1.3-0.6,1.7c-0.4,0.5-1,0.7-1.8,0.7c-0.7,0-1.2-0.2-1.7-0.5s-0.7-0.8-0.7-1.5l0,0l1.4-0.1
			c0,0.3,0.1,0.6,0.3,0.7s0.4,0.3,0.7,0.3c0.3,0,0.6-0.1,0.7-0.4c0.2-0.2,0.2-0.5,0.2-0.9c0-0.4-0.1-0.7-0.3-1
			c-0.2-0.2-0.4-0.4-0.8-0.4c-0.3,0-0.5,0.1-0.6,0.2c-0.1,0.1-0.2,0.2-0.3,0.4L493.1,186.3z"/>
	</g>
	<g>
		<path fill="#FFFFFF" d="M391.8,195.2L391.8,195.2c-5.8,0-10.6-4.8-10.6-10.6v0c0-5.8,4.8-10.6,10.6-10.6h0
			c5.8,0,10.6,4.8,10.6,10.6v0C402.4,190.5,397.6,195.2,391.8,195.2z"/>
	</g>
	<g>
		<path fill="#36464E" d="M391,188.9h-4.9v-0.9l2.3-2.5c0.3-0.4,0.6-0.7,0.7-1s0.2-0.5,0.2-0.7c0-0.3-0.1-0.5-0.2-0.7
			c-0.2-0.2-0.4-0.3-0.7-0.3c-0.3,0-0.6,0.1-0.8,0.3c-0.2,0.2-0.3,0.5-0.3,0.9h-1.4l0,0c0-0.6,0.2-1.2,0.6-1.6
			c0.4-0.4,1-0.7,1.8-0.7c0.7,0,1.3,0.2,1.7,0.6c0.4,0.4,0.6,0.9,0.6,1.5c0,0.4-0.1,0.8-0.4,1.2c-0.2,0.4-0.6,0.8-1.2,1.4l-1.3,1.4
			l0,0h3V188.9z"/>
		<path fill="#36464E" d="M394.8,181.7c0.3,0,0.5,0,0.7,0.1c0.2,0.1,0.5,0.1,0.7,0.2l-0.3,1c-0.2-0.1-0.4-0.1-0.6-0.2
			c-0.2,0-0.4-0.1-0.6-0.1c-0.4,0-0.8,0.2-1,0.5c-0.3,0.3-0.4,0.8-0.4,1.3l0,0c0.2-0.2,0.4-0.3,0.6-0.4s0.5-0.1,0.8-0.1
			c0.6,0,1.1,0.2,1.5,0.7c0.4,0.5,0.5,1,0.5,1.7c0,0.7-0.2,1.3-0.7,1.8c-0.4,0.5-1,0.7-1.7,0.7c-0.8,0-1.4-0.3-1.8-0.8
			s-0.7-1.2-0.7-2.1v-1.4c0-0.9,0.3-1.7,0.8-2.2S394,181.7,394.8,181.7z M394.5,185.2c-0.3,0-0.5,0-0.7,0.1s-0.3,0.2-0.4,0.3v0.5
			c0,0.6,0.1,1,0.3,1.3c0.2,0.3,0.5,0.5,0.8,0.5c0.3,0,0.5-0.1,0.7-0.4c0.2-0.3,0.3-0.6,0.3-1c0-0.4-0.1-0.7-0.3-1
			S394.8,185.2,394.5,185.2z"/>
	</g>
	<g>
		<path fill="#FFFFFF" d="M290.8,195.2L290.8,195.2c-5.8,0-10.6-4.8-10.6-10.6v0c0-5.8,4.8-10.6,10.6-10.6h0
			c5.8,0,10.6,4.8,10.6,10.6v0C301.4,190.4,296.7,195.2,290.8,195.2z"/>
	</g>
	<g>
		<path fill="#36464E" d="M290.1,188.8h-4.9v-0.9l2.3-2.5c0.3-0.4,0.6-0.7,0.7-1s0.2-0.5,0.2-0.7c0-0.3-0.1-0.5-0.2-0.7
			c-0.2-0.2-0.4-0.3-0.7-0.3c-0.3,0-0.6,0.1-0.8,0.3c-0.2,0.2-0.3,0.5-0.3,0.9h-1.4l0,0c0-0.6,0.2-1.2,0.6-1.6
			c0.4-0.4,1-0.7,1.8-0.7c0.7,0,1.3,0.2,1.7,0.6c0.4,0.4,0.6,0.9,0.6,1.5c0,0.4-0.1,0.8-0.4,1.2c-0.2,0.4-0.6,0.8-1.2,1.4l-1.3,1.4
			l0,0h3V188.8z"/>
		<path fill="#36464E" d="M295.8,182.8c-0.8,0.9-1.3,1.7-1.6,2.5c-0.3,0.8-0.5,1.7-0.6,2.8l-0.1,0.7h-1.4l0.1-0.7
			c0.1-1,0.3-2,0.7-2.9s0.9-1.7,1.5-2.4h-3.7v-1.1h5V182.8z"/>
	</g>
	<g>
		<path fill="#FFFFFF" d="M639.9,323.7L639.9,323.7c-5.8,0-10.6-4.8-10.6-10.6v0c0-5.8,4.8-10.6,10.6-10.6l0,0
			c5.8,0,10.6,4.8,10.6,10.6v0C650.5,318.9,645.7,323.7,639.9,323.7z"/>
	</g>
	<g>
		<path fill="#36464E" d="M638.5,314.7h0.8v1.1h-0.8v1.5h-1.4v-1.5h-2.9l-0.1-0.9l2.9-4.7h1.4V314.7z M635.4,314.7h1.6v-2.6l0,0
			l-0.1,0.2L635.4,314.7z"/>
		<path fill="#36464E" d="M644.8,314.5c0,0.9-0.2,1.7-0.6,2.1c-0.4,0.5-1,0.7-1.8,0.7c-0.7,0-1.3-0.2-1.8-0.7
			c-0.4-0.5-0.6-1.2-0.6-2.1V313c0-0.9,0.2-1.7,0.6-2.1c0.4-0.5,1-0.7,1.8-0.7c0.7,0,1.3,0.2,1.8,0.7c0.4,0.5,0.7,1.2,0.7,2.1V314.5
			z M643.4,312.8c0-0.6-0.1-1-0.3-1.2s-0.4-0.4-0.7-0.4c-0.3,0-0.6,0.1-0.7,0.4c-0.2,0.3-0.2,0.7-0.2,1.2v1.8c0,0.6,0.1,1,0.3,1.2
			c0.2,0.3,0.4,0.4,0.7,0.4c0.3,0,0.6-0.1,0.7-0.4c0.2-0.3,0.2-0.7,0.2-1.2V312.8z"/>
	</g>
	<g>
		<path fill="#FFFFFF" d="M482.3,320L482.3,320c-5.8,0-10.6-4.8-10.6-10.6v0c0-5.8,4.8-10.6,10.6-10.6h0c5.8,0,10.6,4.8,10.6,10.6v0
			C492.9,315.2,488.2,320,482.3,320z"/>
	</g>
	<g>
		<path fill="#36464E" d="M478.2,309.4h0.8c0.3,0,0.6-0.1,0.8-0.3s0.2-0.4,0.2-0.7c0-0.3-0.1-0.5-0.2-0.7s-0.4-0.3-0.7-0.3
			c-0.3,0-0.5,0.1-0.7,0.2s-0.3,0.4-0.3,0.6h-1.4l0,0c0-0.6,0.2-1,0.6-1.4s1-0.5,1.7-0.5c0.7,0,1.3,0.2,1.8,0.5
			c0.4,0.4,0.7,0.9,0.7,1.5c0,0.3-0.1,0.6-0.3,0.9s-0.5,0.5-0.8,0.7c0.4,0.1,0.7,0.4,0.9,0.6c0.2,0.3,0.3,0.6,0.3,1
			c0,0.7-0.2,1.2-0.7,1.5c-0.5,0.4-1.1,0.6-1.8,0.6c-0.7,0-1.2-0.2-1.7-0.5c-0.5-0.4-0.7-0.8-0.7-1.5l0,0h1.4c0,0.3,0.1,0.5,0.3,0.7
			c0.2,0.2,0.4,0.3,0.7,0.3c0.3,0,0.6-0.1,0.8-0.3c0.2-0.2,0.3-0.4,0.3-0.7c0-0.4-0.1-0.6-0.3-0.8c-0.2-0.2-0.5-0.3-0.8-0.3h-0.8
			V309.4z"/>
		<path fill="#36464E" d="M484.5,312.6c0.4,0,0.7-0.1,0.9-0.4c0.2-0.3,0.4-0.7,0.4-1.2v-0.4c-0.2,0.2-0.3,0.4-0.6,0.5
			c-0.2,0.1-0.5,0.2-0.7,0.2c-0.7,0-1.2-0.2-1.6-0.6c-0.4-0.4-0.6-1-0.6-1.8c0-0.7,0.2-1.3,0.7-1.8s1-0.7,1.7-0.7
			c0.7,0,1.3,0.3,1.8,0.7s0.7,1.2,0.7,2.1v1.7c0,0.9-0.3,1.5-0.8,2c-0.5,0.5-1.2,0.7-1.9,0.7c-0.2,0-0.5,0-0.8-0.1
			c-0.3-0.1-0.5-0.1-0.7-0.2l0.2-1c0.2,0.1,0.4,0.1,0.6,0.2C484,312.6,484.3,312.6,484.5,312.6z M484.7,310.2c0.2,0,0.4,0,0.6-0.1
			s0.3-0.2,0.4-0.4v-0.7c0-0.5-0.1-0.9-0.3-1.2s-0.4-0.4-0.7-0.4c-0.3,0-0.5,0.1-0.7,0.4c-0.2,0.3-0.3,0.6-0.3,1
			c0,0.4,0.1,0.7,0.2,1C484.2,310.1,484.4,310.2,484.7,310.2z"/>
	</g>
	<g>
		<path fill="#FFFFFF" d="M324.8,322.7L324.8,322.7c-5.8,0-10.6-4.8-10.6-10.6v0c0-5.8,4.8-10.6,10.6-10.6h0
			c5.8,0,10.6,4.8,10.6,10.6v0C335.3,317.9,330.6,322.7,324.8,322.7z"/>
	</g>
	<g>
		<path fill="#36464E" d="M324,316.3h-4.9v-0.9l2.3-2.5c0.3-0.4,0.6-0.7,0.7-1c0.1-0.3,0.2-0.5,0.2-0.7c0-0.3-0.1-0.5-0.2-0.7
			c-0.2-0.2-0.4-0.3-0.7-0.3c-0.3,0-0.6,0.1-0.8,0.3c-0.2,0.2-0.3,0.5-0.3,0.9H319l0,0c0-0.6,0.2-1.2,0.6-1.6c0.4-0.4,1-0.7,1.8-0.7
			c0.7,0,1.3,0.2,1.7,0.6c0.4,0.4,0.6,0.9,0.6,1.5c0,0.4-0.1,0.8-0.4,1.2c-0.2,0.4-0.6,0.8-1.2,1.4l-1.3,1.4l0,0h3V316.3z"/>
		<path fill="#36464E" d="M329.5,311.1c0,0.4-0.1,0.7-0.3,0.9c-0.2,0.3-0.4,0.5-0.8,0.6c0.4,0.2,0.7,0.4,0.9,0.7
			c0.2,0.3,0.3,0.6,0.3,1c0,0.7-0.2,1.2-0.7,1.5c-0.4,0.4-1,0.5-1.7,0.5c-0.7,0-1.3-0.2-1.8-0.5c-0.4-0.4-0.7-0.9-0.7-1.5
			c0-0.4,0.1-0.7,0.3-1c0.2-0.3,0.5-0.5,0.9-0.7c-0.3-0.2-0.6-0.4-0.8-0.6c-0.2-0.3-0.3-0.6-0.3-0.9c0-0.6,0.2-1.1,0.6-1.5
			s1-0.5,1.6-0.5c0.7,0,1.2,0.2,1.6,0.5S329.5,310.5,329.5,311.1z M328.3,314.3c0-0.3-0.1-0.6-0.3-0.8c-0.2-0.2-0.4-0.3-0.7-0.3
			c-0.3,0-0.5,0.1-0.7,0.3c-0.2,0.2-0.3,0.4-0.3,0.8c0,0.3,0.1,0.6,0.3,0.8c0.2,0.2,0.4,0.3,0.7,0.3c0.3,0,0.5-0.1,0.7-0.3
			S328.3,314.6,328.3,314.3z M328.1,311.1c0-0.3-0.1-0.5-0.2-0.7c-0.2-0.2-0.4-0.3-0.6-0.3c-0.3,0-0.5,0.1-0.6,0.3s-0.2,0.4-0.2,0.7
			c0,0.3,0.1,0.5,0.2,0.7c0.1,0.2,0.4,0.3,0.6,0.3c0.3,0,0.5-0.1,0.6-0.3C328,311.7,328.1,311.4,328.1,311.1z"/>
	</g>
	<g>
		<path fill="#FFFFFF" d="M191.5,52.6L191.5,52.6c-5.8,0-10.6-4.8-10.6-10.6v0c0-5.8,4.8-10.6,10.6-10.6h0c5.8,0,10.6,4.8,10.6,10.6
			v0C202.1,47.8,197.3,52.6,191.5,52.6z"/>
	</g>
	<g>
		<path fill="#36464E" d="M189.1,46.2h-1.4v-5.8h-1.4v-1l2.9-0.3V46.2z"/>
		<path fill="#36464E" d="M196.5,46.2h-4.9v-0.9l2.3-2.5c0.3-0.4,0.6-0.7,0.7-1s0.2-0.5,0.2-0.7c0-0.3-0.1-0.5-0.2-0.7
			c-0.2-0.2-0.4-0.3-0.7-0.3c-0.3,0-0.6,0.1-0.8,0.3c-0.2,0.2-0.3,0.5-0.3,0.9h-1.4l0,0c0-0.6,0.2-1.2,0.6-1.6
			c0.4-0.4,1-0.7,1.8-0.7c0.7,0,1.3,0.2,1.7,0.6c0.4,0.4,0.6,0.9,0.6,1.5c0,0.4-0.1,0.8-0.4,1.2c-0.2,0.4-0.6,0.8-1.2,1.4l-1.3,1.4
			l0,0h3V46.2z"/>
	</g>
	<g>
		<path fill="#FFFFFF" d="M1008.1,446.8L1008.1,446.8c-5.8,0-10.6-4.8-10.6-10.6l0,0c0-5.8,4.8-10.6,10.6-10.6h0
			c5.8,0,10.6,4.8,10.6,10.6l0,0C1018.7,442,1013.9,446.8,1008.1,446.8z"/>
	</g>
	<g>
		<path fill="#36464E" d="M1003.9,436.2h0.8c0.3,0,0.6-0.1,0.8-0.3c0.2-0.2,0.2-0.4,0.2-0.7c0-0.3-0.1-0.5-0.2-0.7
			c-0.2-0.2-0.4-0.3-0.7-0.3c-0.3,0-0.5,0.1-0.7,0.2s-0.3,0.4-0.3,0.6h-1.4l0,0c0-0.6,0.2-1,0.6-1.4s1-0.5,1.7-0.5
			c0.7,0,1.3,0.2,1.8,0.5c0.4,0.4,0.7,0.9,0.7,1.5c0,0.3-0.1,0.6-0.3,0.9s-0.5,0.5-0.8,0.7c0.4,0.1,0.7,0.4,0.9,0.6
			c0.2,0.3,0.3,0.6,0.3,1c0,0.7-0.2,1.2-0.7,1.5c-0.5,0.4-1.1,0.6-1.8,0.6c-0.7,0-1.2-0.2-1.7-0.5c-0.5-0.4-0.7-0.8-0.7-1.5l0,0h1.4
			c0,0.3,0.1,0.5,0.3,0.7s0.4,0.3,0.7,0.3c0.3,0,0.6-0.1,0.8-0.3c0.2-0.2,0.3-0.4,0.3-0.7c0-0.4-0.1-0.6-0.3-0.8
			c-0.2-0.2-0.5-0.3-0.8-0.3h-0.8V436.2z"/>
		<path fill="#36464E" d="M1011.5,440.4h-1.4v-5.8h-1.4v-1l2.9-0.3V440.4z"/>
	</g>
	<g>
		<path fill="#FFFFFF" d="M917.6,446.8L917.6,446.8c-5.8,0-10.6-4.8-10.6-10.6l0,0c0-5.8,4.8-10.6,10.6-10.6l0,0
			c5.8,0,10.6,4.8,10.6,10.6l0,0C928.2,442,923.4,446.8,917.6,446.8z"/>
	</g>
	<g>
		<path fill="#36464E" d="M913.5,436.2h0.8c0.3,0,0.6-0.1,0.8-0.3c0.2-0.2,0.2-0.4,0.2-0.7c0-0.3-0.1-0.5-0.2-0.7
			c-0.2-0.2-0.4-0.3-0.7-0.3c-0.3,0-0.5,0.1-0.7,0.2s-0.3,0.4-0.3,0.6H912l0,0c0-0.6,0.2-1,0.6-1.4s1-0.5,1.7-0.5
			c0.7,0,1.3,0.2,1.8,0.5c0.4,0.4,0.7,0.9,0.7,1.5c0,0.3-0.1,0.6-0.3,0.9s-0.5,0.5-0.8,0.7c0.4,0.1,0.7,0.4,0.9,0.6
			c0.2,0.3,0.3,0.6,0.3,1c0,0.7-0.2,1.2-0.7,1.5c-0.5,0.4-1.1,0.6-1.8,0.6c-0.7,0-1.2-0.2-1.7-0.5c-0.5-0.4-0.7-0.8-0.7-1.5l0,0h1.4
			c0,0.3,0.1,0.5,0.3,0.7s0.4,0.3,0.7,0.3c0.3,0,0.6-0.1,0.8-0.3c0.2-0.2,0.3-0.4,0.3-0.7c0-0.4-0.1-0.6-0.3-0.8
			c-0.2-0.2-0.5-0.3-0.8-0.3h-0.8V436.2z"/>
		<path fill="#36464E" d="M922.4,435.2c0,0.4-0.1,0.7-0.3,0.9c-0.2,0.3-0.4,0.5-0.8,0.6c0.4,0.2,0.7,0.4,0.9,0.7
			c0.2,0.3,0.3,0.6,0.3,1c0,0.7-0.2,1.2-0.7,1.5c-0.4,0.4-1,0.5-1.7,0.5c-0.7,0-1.3-0.2-1.8-0.5c-0.4-0.4-0.7-0.9-0.7-1.5
			c0-0.4,0.1-0.7,0.3-1c0.2-0.3,0.5-0.5,0.9-0.7c-0.3-0.2-0.6-0.4-0.8-0.6c-0.2-0.3-0.3-0.6-0.3-0.9c0-0.6,0.2-1.1,0.6-1.5
			s1-0.5,1.6-0.5c0.7,0,1.2,0.2,1.6,0.5S922.4,434.5,922.4,435.2z M921.1,438.4c0-0.3-0.1-0.6-0.3-0.8c-0.2-0.2-0.4-0.3-0.7-0.3
			c-0.3,0-0.5,0.1-0.7,0.3c-0.2,0.2-0.3,0.4-0.3,0.8c0,0.3,0.1,0.6,0.3,0.8c0.2,0.2,0.4,0.3,0.7,0.3c0.3,0,0.5-0.1,0.7-0.3
			S921.1,438.7,921.1,438.4z M921,435.2c0-0.3-0.1-0.5-0.2-0.7c-0.2-0.2-0.4-0.3-0.6-0.3c-0.3,0-0.5,0.1-0.6,0.3s-0.2,0.4-0.2,0.7
			c0,0.3,0.1,0.5,0.2,0.7c0.1,0.2,0.4,0.3,0.6,0.3c0.3,0,0.5-0.1,0.6-0.3C920.9,435.8,921,435.5,921,435.2z"/>
	</g>
	<g>
		<path fill="#FFFFFF" d="M828.3,447.2L828.3,447.2c-5.8,0-10.6-4.8-10.6-10.6v0c0-5.8,4.8-10.6,10.6-10.6l0,0
			c5.8,0,10.6,4.8,10.6,10.6v0C838.9,442.5,834.1,447.2,828.3,447.2z"/>
	</g>
	<g>
		<path fill="#36464E" d="M825.1,436.7h0.8c0.3,0,0.6-0.1,0.8-0.3c0.2-0.2,0.2-0.4,0.2-0.7c0-0.3-0.1-0.5-0.2-0.7s-0.4-0.3-0.7-0.3
			c-0.3,0-0.5,0.1-0.7,0.2s-0.3,0.4-0.3,0.6h-1.4l0,0c0-0.6,0.2-1,0.6-1.4s1-0.5,1.7-0.5c0.7,0,1.3,0.2,1.8,0.5
			c0.4,0.4,0.7,0.9,0.7,1.5c0,0.3-0.1,0.6-0.3,0.9c-0.2,0.3-0.5,0.5-0.8,0.7c0.4,0.1,0.7,0.4,0.9,0.6c0.2,0.3,0.3,0.6,0.3,1
			c0,0.7-0.2,1.2-0.7,1.5c-0.5,0.4-1.1,0.6-1.8,0.6c-0.7,0-1.2-0.2-1.7-0.5c-0.5-0.3-0.7-0.8-0.7-1.5l0,0h1.4c0,0.3,0.1,0.5,0.3,0.7
			c0.2,0.2,0.4,0.3,0.7,0.3c0.3,0,0.6-0.1,0.8-0.3c0.2-0.2,0.3-0.4,0.3-0.7c0-0.4-0.1-0.6-0.3-0.8c-0.2-0.2-0.5-0.3-0.8-0.3h-0.8
			V436.7z"/>
		<path fill="#36464E" d="M834.2,434.9c-0.8,0.9-1.3,1.7-1.6,2.5c-0.3,0.8-0.5,1.7-0.6,2.8l-0.1,0.7h-1.4l0.1-0.7
			c0.1-1,0.3-2,0.7-2.9c0.4-0.9,0.9-1.7,1.5-2.4h-3.7v-1.1h5V434.9z"/>
	</g>
	<g>
		<path fill="#FFFFFF" d="M739.2,447L739.2,447c-5.8,0-10.6-4.8-10.6-10.6v0c0-5.8,4.8-10.6,10.6-10.6l0,0c5.8,0,10.6,4.8,10.6,10.6
			v0C749.8,442.2,745.1,447,739.2,447z"/>
	</g>
	<g>
		<path fill="#36464E" d="M736.1,436.5h0.8c0.3,0,0.6-0.1,0.8-0.3c0.2-0.2,0.2-0.4,0.2-0.7c0-0.3-0.1-0.5-0.2-0.7
			c-0.2-0.2-0.4-0.3-0.7-0.3c-0.3,0-0.5,0.1-0.7,0.2s-0.3,0.4-0.3,0.6h-1.4l0,0c0-0.6,0.2-1,0.6-1.4s1-0.5,1.7-0.5
			c0.7,0,1.3,0.2,1.8,0.5c0.4,0.4,0.7,0.9,0.7,1.5c0,0.3-0.1,0.6-0.3,0.9s-0.5,0.5-0.8,0.7c0.4,0.1,0.7,0.4,0.9,0.6
			c0.2,0.3,0.3,0.6,0.3,1c0,0.7-0.2,1.2-0.7,1.5c-0.5,0.4-1.1,0.6-1.8,0.6c-0.7,0-1.2-0.2-1.7-0.5c-0.5-0.4-0.7-0.8-0.7-1.5l0,0h1.4
			c0,0.3,0.1,0.5,0.3,0.7s0.4,0.3,0.7,0.3c0.3,0,0.6-0.1,0.8-0.3c0.2-0.2,0.3-0.4,0.3-0.7c0-0.4-0.1-0.6-0.3-0.8
			c-0.2-0.2-0.5-0.3-0.8-0.3h-0.8V436.5z"/>
		<path fill="#36464E" d="M743.2,433.4c0.3,0,0.5,0,0.7,0.1c0.2,0,0.5,0.1,0.7,0.2l-0.3,1c-0.2-0.1-0.4-0.1-0.6-0.2
			c-0.2,0-0.4-0.1-0.6-0.1c-0.4,0-0.8,0.2-1,0.5c-0.3,0.3-0.4,0.8-0.4,1.3l0,0c0.2-0.2,0.4-0.3,0.6-0.4c0.2-0.1,0.5-0.1,0.8-0.1
			c0.6,0,1.1,0.2,1.5,0.7c0.4,0.5,0.5,1,0.5,1.7c0,0.7-0.2,1.3-0.7,1.8c-0.4,0.5-1,0.7-1.7,0.7c-0.8,0-1.4-0.3-1.8-0.8
			c-0.5-0.5-0.7-1.2-0.7-2.1v-1.4c0-0.9,0.3-1.7,0.8-2.2C741.7,433.7,742.4,433.4,743.2,433.4z M742.9,436.9c-0.3,0-0.5,0-0.7,0.1
			c-0.2,0.1-0.3,0.2-0.4,0.3v0.5c0,0.6,0.1,1,0.3,1.3c0.2,0.3,0.5,0.5,0.8,0.5c0.3,0,0.5-0.1,0.7-0.4c0.2-0.3,0.3-0.6,0.3-1
			c0-0.4-0.1-0.7-0.3-1C743.4,437,743.2,436.9,742.9,436.9z"/>
	</g>
	<g>
		<path fill="#FFFFFF" d="M648.5,447.4L648.5,447.4c-5.8,0-10.6-4.8-10.6-10.6v0c0-5.8,4.8-10.6,10.6-10.6l0,0
			c5.8,0,10.6,4.8,10.6,10.6v0C659.1,442.7,654.4,447.4,648.5,447.4z"/>
	</g>
	<g>
		<path fill="#36464E" d="M644.4,436.9h0.8c0.3,0,0.6-0.1,0.8-0.3c0.2-0.2,0.2-0.4,0.2-0.7c0-0.3-0.1-0.5-0.2-0.7
			c-0.2-0.2-0.4-0.3-0.7-0.3c-0.3,0-0.5,0.1-0.7,0.2s-0.3,0.4-0.3,0.6h-1.4l0,0c0-0.6,0.2-1,0.6-1.4s1-0.5,1.7-0.5
			c0.7,0,1.3,0.2,1.8,0.5c0.4,0.4,0.7,0.9,0.7,1.5c0,0.3-0.1,0.6-0.3,0.9s-0.5,0.5-0.8,0.7c0.4,0.1,0.7,0.4,0.9,0.6
			c0.2,0.3,0.3,0.6,0.3,1c0,0.7-0.2,1.2-0.7,1.5c-0.5,0.4-1.1,0.6-1.8,0.6c-0.7,0-1.2-0.2-1.7-0.5c-0.5-0.3-0.7-0.8-0.7-1.5l0,0h1.4
			c0,0.3,0.1,0.5,0.3,0.7c0.2,0.2,0.4,0.3,0.7,0.3c0.3,0,0.6-0.1,0.8-0.3c0.2-0.2,0.3-0.4,0.3-0.7c0-0.4-0.1-0.6-0.3-0.8
			c-0.2-0.2-0.5-0.3-0.8-0.3h-0.8V436.9z"/>
		<path fill="#36464E" d="M648.8,437.9l0.4-4h4v1.1h-2.8l-0.2,1.6c0.1-0.1,0.3-0.2,0.5-0.2s0.4-0.1,0.6-0.1c0.7,0,1.2,0.2,1.6,0.6
			c0.4,0.4,0.6,1,0.6,1.8c0,0.7-0.2,1.3-0.6,1.7c-0.4,0.5-1,0.7-1.8,0.7c-0.7,0-1.2-0.2-1.7-0.5c-0.5-0.4-0.7-0.8-0.7-1.5l0,0
			l1.4-0.1c0,0.3,0.1,0.6,0.3,0.7c0.2,0.2,0.4,0.3,0.7,0.3c0.3,0,0.6-0.1,0.7-0.4c0.2-0.2,0.2-0.5,0.2-0.9c0-0.4-0.1-0.7-0.3-1
			s-0.4-0.4-0.8-0.4c-0.3,0-0.5,0-0.6,0.2c-0.1,0.1-0.2,0.2-0.3,0.4L648.8,437.9z"/>
	</g>
	<g>
		<path fill="#FFFFFF" d="M558.7,446.7L558.7,446.7c-5.8,0-10.6-4.8-10.6-10.6v0c0-5.8,4.8-10.6,10.6-10.6l0,0
			c5.8,0,10.6,4.8,10.6,10.6v0C569.2,441.9,564.5,446.7,558.7,446.7z"/>
	</g>
	<g>
		<path fill="#36464E" d="M554.5,436.1h0.8c0.3,0,0.6-0.1,0.8-0.3c0.2-0.2,0.2-0.4,0.2-0.7c0-0.3-0.1-0.5-0.2-0.7
			c-0.2-0.2-0.4-0.3-0.7-0.3c-0.3,0-0.5,0.1-0.7,0.2s-0.3,0.4-0.3,0.6H553l0,0c0-0.6,0.2-1,0.6-1.4s1-0.5,1.7-0.5
			c0.7,0,1.3,0.2,1.8,0.5c0.4,0.4,0.7,0.9,0.7,1.5c0,0.3-0.1,0.6-0.3,0.9s-0.5,0.5-0.8,0.7c0.4,0.1,0.7,0.4,0.9,0.6
			c0.2,0.3,0.3,0.6,0.3,1c0,0.7-0.2,1.2-0.7,1.5c-0.5,0.4-1.1,0.6-1.8,0.6c-0.7,0-1.2-0.2-1.7-0.5c-0.5-0.4-0.7-0.8-0.7-1.5l0,0h1.4
			c0,0.3,0.1,0.5,0.3,0.7s0.4,0.3,0.7,0.3c0.3,0,0.6-0.1,0.8-0.3c0.2-0.2,0.3-0.4,0.3-0.7c0-0.4-0.1-0.6-0.3-0.8
			c-0.2-0.2-0.5-0.3-0.8-0.3h-0.8V436.1z"/>
		<path fill="#36464E" d="M563,437.6h0.8v1.1H563v1.5h-1.4v-1.5h-2.9l-0.1-0.9l2.9-4.7h1.4V437.6z M559.9,437.6h1.6v-2.6l0,0
			l-0.1,0.2L559.9,437.6z"/>
	</g>
	<g>
		<path fill="#FFFFFF" d="M469.3,446.8L469.3,446.8c-5.8,0-10.6-4.8-10.6-10.6v0c0-5.8,4.8-10.6,10.6-10.6l0,0
			c5.8,0,10.6,4.8,10.6,10.6v0C479.9,442,475.1,446.8,469.3,446.8z"/>
	</g>
	<g>
		<path fill="#36464E" d="M466.1,436.2h0.8c0.3,0,0.6-0.1,0.8-0.3c0.2-0.2,0.2-0.4,0.2-0.7c0-0.3-0.1-0.5-0.2-0.7
			c-0.2-0.2-0.4-0.3-0.7-0.3c-0.3,0-0.5,0.1-0.7,0.2s-0.3,0.4-0.3,0.6h-1.4l0,0c0-0.6,0.2-1,0.6-1.4s1-0.5,1.7-0.5
			c0.7,0,1.3,0.2,1.8,0.5c0.4,0.4,0.7,0.9,0.7,1.5c0,0.3-0.1,0.6-0.3,0.9s-0.5,0.5-0.8,0.7c0.4,0.1,0.7,0.4,0.9,0.6
			c0.2,0.3,0.3,0.6,0.3,1c0,0.7-0.2,1.2-0.7,1.5c-0.5,0.4-1.1,0.6-1.8,0.6c-0.7,0-1.2-0.2-1.7-0.5c-0.5-0.3-0.7-0.8-0.7-1.5l0,0h1.4
			c0,0.3,0.1,0.5,0.3,0.7c0.2,0.2,0.4,0.3,0.7,0.3c0.3,0,0.6-0.1,0.8-0.3c0.2-0.2,0.3-0.4,0.3-0.7c0-0.4-0.1-0.6-0.3-0.8
			c-0.2-0.2-0.5-0.3-0.8-0.3h-0.8V436.2z"/>
		<path fill="#36464E" d="M471.9,436.2h0.8c0.3,0,0.6-0.1,0.8-0.3c0.2-0.2,0.2-0.4,0.2-0.7c0-0.3-0.1-0.5-0.2-0.7
			c-0.2-0.2-0.4-0.3-0.7-0.3c-0.3,0-0.5,0.1-0.7,0.2s-0.3,0.4-0.3,0.6h-1.4l0,0c0-0.6,0.2-1,0.6-1.4s1-0.5,1.7-0.5
			c0.7,0,1.3,0.2,1.8,0.5c0.4,0.4,0.7,0.9,0.7,1.5c0,0.3-0.1,0.6-0.3,0.9s-0.5,0.5-0.8,0.7c0.4,0.1,0.7,0.4,0.9,0.6
			c0.2,0.3,0.3,0.6,0.3,1c0,0.7-0.2,1.2-0.7,1.5c-0.5,0.4-1.1,0.6-1.8,0.6c-0.7,0-1.2-0.2-1.7-0.5c-0.5-0.3-0.7-0.8-0.7-1.5l0,0h1.4
			c0,0.3,0.1,0.5,0.3,0.7c0.2,0.2,0.4,0.3,0.7,0.3c0.3,0,0.6-0.1,0.8-0.3c0.2-0.2,0.3-0.4,0.3-0.7c0-0.4-0.1-0.6-0.3-0.8
			c-0.2-0.2-0.5-0.3-0.8-0.3h-0.8V436.2z"/>
	</g>
	<g>
		<path fill="#FFFFFF" d="M378.9,446.8L378.9,446.8c-5.8,0-10.6-4.8-10.6-10.6v0c0-5.8,4.8-10.6,10.6-10.6l0,0
			c5.8,0,10.6,4.8,10.6,10.6v0C389.5,442,384.7,446.8,378.9,446.8z"/>
	</g>
	<g>
		<path fill="#36464E" d="M374.7,436.3h0.8c0.3,0,0.6-0.1,0.8-0.3s0.2-0.4,0.2-0.7c0-0.3-0.1-0.5-0.2-0.7c-0.2-0.2-0.4-0.3-0.7-0.3
			c-0.3,0-0.5,0.1-0.7,0.2s-0.3,0.4-0.3,0.6h-1.4l0,0c0-0.6,0.2-1,0.6-1.4s1-0.5,1.7-0.5c0.7,0,1.3,0.2,1.8,0.5
			c0.4,0.4,0.7,0.9,0.7,1.5c0,0.3-0.1,0.6-0.3,0.9s-0.5,0.5-0.8,0.7c0.4,0.1,0.7,0.4,0.9,0.6c0.2,0.3,0.3,0.6,0.3,1
			c0,0.7-0.2,1.2-0.7,1.5c-0.5,0.4-1.1,0.6-1.8,0.6c-0.7,0-1.2-0.2-1.7-0.5c-0.5-0.4-0.7-0.8-0.7-1.5l0,0h1.4c0,0.3,0.1,0.5,0.3,0.7
			c0.2,0.2,0.4,0.3,0.7,0.3c0.3,0,0.6-0.1,0.8-0.3c0.2-0.2,0.3-0.4,0.3-0.7c0-0.4-0.1-0.6-0.3-0.8c-0.2-0.2-0.5-0.3-0.8-0.3h-0.8
			V436.3z"/>
		<path fill="#36464E" d="M383.9,440.4H379v-0.9l2.3-2.5c0.3-0.4,0.6-0.7,0.7-1s0.2-0.5,0.2-0.7c0-0.3-0.1-0.5-0.2-0.7
			c-0.2-0.2-0.4-0.3-0.7-0.3c-0.3,0-0.6,0.1-0.8,0.3c-0.2,0.2-0.3,0.5-0.3,0.9h-1.4l0,0c0-0.6,0.2-1.2,0.6-1.6
			c0.4-0.4,1-0.7,1.8-0.7c0.7,0,1.3,0.2,1.7,0.6c0.4,0.4,0.6,0.9,0.6,1.5c0,0.4-0.1,0.8-0.4,1.2c-0.2,0.4-0.6,0.8-1.2,1.4l-1.3,1.4
			l0,0h3V440.4z"/>
	</g>
	<g>
		<path fill="#FFFFFF" d="M289,446.8L289,446.8c-5.8,0-10.6-4.8-10.6-10.6l0,0c0-5.8,4.8-10.6,10.6-10.6l0,0
			c5.8,0,10.6,4.8,10.6,10.6l0,0C299.6,442.1,294.9,446.8,289,446.8z"/>
	</g>
	<g>
		<path fill="#36464E" d="M284.9,436.3h0.8c0.3,0,0.6-0.1,0.8-0.3c0.2-0.2,0.2-0.4,0.2-0.7c0-0.3-0.1-0.5-0.2-0.7
			c-0.2-0.2-0.4-0.3-0.7-0.3c-0.3,0-0.5,0.1-0.7,0.2s-0.3,0.4-0.3,0.6h-1.4l0,0c0-0.6,0.2-1,0.6-1.4s1-0.5,1.7-0.5
			c0.7,0,1.3,0.2,1.8,0.5c0.4,0.4,0.7,0.9,0.7,1.5c0,0.3-0.1,0.6-0.3,0.9s-0.5,0.5-0.8,0.7c0.4,0.1,0.7,0.4,0.9,0.6
			c0.2,0.3,0.3,0.6,0.3,1c0,0.7-0.2,1.2-0.7,1.5c-0.5,0.4-1.1,0.6-1.8,0.6c-0.7,0-1.2-0.2-1.7-0.5c-0.5-0.4-0.7-0.8-0.7-1.5l0,0h1.4
			c0,0.3,0.1,0.5,0.3,0.7s0.4,0.3,0.7,0.3c0.3,0,0.6-0.1,0.8-0.3c0.2-0.2,0.3-0.4,0.3-0.7c0-0.4-0.1-0.6-0.3-0.8
			c-0.2-0.2-0.5-0.3-0.8-0.3h-0.8V436.3z"/>
		<path fill="#36464E" d="M293.9,437.7c0,0.9-0.2,1.7-0.6,2.1c-0.4,0.5-1,0.7-1.8,0.7c-0.7,0-1.3-0.2-1.8-0.7
			c-0.4-0.5-0.6-1.2-0.6-2.1v-1.6c0-0.9,0.2-1.7,0.6-2.1c0.4-0.5,1-0.7,1.8-0.7c0.7,0,1.3,0.2,1.8,0.7c0.4,0.5,0.7,1.2,0.7,2.1
			V437.7z M292.5,436c0-0.6-0.1-1-0.3-1.2s-0.4-0.4-0.7-0.4c-0.3,0-0.6,0.1-0.7,0.4c-0.2,0.3-0.2,0.7-0.2,1.2v1.8
			c0,0.6,0.1,1,0.3,1.2c0.2,0.3,0.4,0.4,0.7,0.4c0.3,0,0.6-0.1,0.7-0.4c0.2-0.3,0.2-0.7,0.2-1.2V436z"/>
	</g>
	<g>
		<path fill="#FFFFFF" d="M68.7,110.5L68.7,110.5c-5.8,0-10.6-4.8-10.6-10.6v0c0-5.8,4.8-10.6,10.6-10.6h0c5.8,0,10.6,4.8,10.6,10.6
			v0C79.3,105.7,74.5,110.5,68.7,110.5z"/>
	</g>
	<g>
		<path fill="#36464E" d="M66.3,104.1h-1.4v-5.8h-1.4v-1l2.9-0.3V104.1z"/>
		<path fill="#36464E" d="M70.3,99.9h0.8c0.3,0,0.6-0.1,0.8-0.3s0.2-0.4,0.2-0.7c0-0.3-0.1-0.5-0.2-0.7S71.4,98,71.1,98
			c-0.3,0-0.5,0.1-0.7,0.2s-0.3,0.4-0.3,0.6h-1.4l0,0c0-0.6,0.2-1,0.6-1.4s1-0.5,1.7-0.5c0.7,0,1.3,0.2,1.8,0.5
			c0.4,0.4,0.7,0.9,0.7,1.5c0,0.3-0.1,0.6-0.3,0.9s-0.5,0.5-0.8,0.7c0.4,0.1,0.7,0.4,0.9,0.6c0.2,0.3,0.3,0.6,0.3,1
			c0,0.7-0.2,1.2-0.7,1.5c-0.5,0.4-1.1,0.6-1.8,0.6c-0.7,0-1.2-0.2-1.7-0.5c-0.5-0.4-0.7-0.8-0.7-1.5l0,0h1.4c0,0.3,0.1,0.5,0.3,0.7
			c0.2,0.2,0.4,0.3,0.7,0.3c0.3,0,0.6-0.1,0.8-0.3c0.2-0.2,0.3-0.4,0.3-0.7c0-0.4-0.1-0.6-0.3-0.8c-0.2-0.2-0.5-0.3-0.8-0.3h-0.8
			V99.9z"/>
	</g>
	<g>
		<path fill="#FFFFFF" d="M68.7,303.6L68.7,303.6c-5.8,0-10.6-4.8-10.6-10.6v0c0-5.8,4.8-10.6,10.6-10.6h0c5.8,0,10.6,4.8,10.6,10.6
			v0C79.3,298.9,74.5,303.6,68.7,303.6z"/>
	</g>
	<g>
		<path fill="#36464E" d="M66.3,297.3h-1.4v-5.8h-1.4v-1l2.9-0.3V297.3z"/>
		<path fill="#36464E" d="M73,294.6h0.8v1.1H73v1.5h-1.4v-1.5h-2.9l-0.1-0.9l2.9-4.7H73V294.6z M70,294.6h1.6v-2.6l0,0l-0.1,0.2
			L70,294.6z"/>
	</g>
	<g>
		<path fill="#FFFFFF" d="M86.9,437.5L86.9,437.5c-5.8,0-10.6-4.8-10.6-10.6v0c0-5.8,4.8-10.6,10.6-10.6h0c5.8,0,10.6,4.8,10.6,10.6
			v0C97.5,432.7,92.7,437.5,86.9,437.5z"/>
	</g>
	<g>
		<path fill="#36464E" d="M86.1,431.1h-4.9v-0.9l2.3-2.5c0.3-0.4,0.6-0.7,0.7-1c0.1-0.3,0.2-0.5,0.2-0.7c0-0.3-0.1-0.5-0.2-0.7
			c-0.2-0.2-0.4-0.3-0.7-0.3c-0.3,0-0.6,0.1-0.8,0.3c-0.2,0.2-0.3,0.5-0.3,0.9h-1.4l0,0c0-0.6,0.2-1.2,0.6-1.6
			c0.4-0.4,1-0.7,1.8-0.7c0.7,0,1.3,0.2,1.7,0.6c0.4,0.4,0.6,0.9,0.6,1.5c0,0.4-0.1,0.8-0.4,1.2c-0.2,0.4-0.6,0.8-1.2,1.4l-1.3,1.4
			l0,0h3V431.1z"/>
		<path fill="#36464E" d="M89.1,430.1c0.4,0,0.7-0.1,0.9-0.4c0.2-0.3,0.4-0.7,0.4-1.2v-0.4c-0.2,0.2-0.3,0.4-0.6,0.5
			c-0.2,0.1-0.5,0.2-0.7,0.2c-0.7,0-1.2-0.2-1.6-0.6c-0.4-0.4-0.6-1-0.6-1.8c0-0.7,0.2-1.3,0.7-1.8c0.4-0.5,1-0.7,1.7-0.7
			c0.7,0,1.3,0.3,1.8,0.8c0.5,0.5,0.7,1.2,0.7,2.1v1.7c0,0.9-0.3,1.5-0.8,2c-0.5,0.5-1.2,0.7-1.9,0.7c-0.2,0-0.5,0-0.8-0.1
			c-0.3,0-0.5-0.1-0.7-0.2l0.2-1c0.2,0.1,0.4,0.1,0.6,0.2C88.6,430.1,88.8,430.1,89.1,430.1z M89.3,427.7c0.2,0,0.4,0,0.6-0.1
			s0.3-0.2,0.4-0.4v-0.7c0-0.5-0.1-0.9-0.3-1.2c-0.2-0.3-0.4-0.4-0.7-0.4c-0.3,0-0.5,0.1-0.7,0.4c-0.2,0.3-0.3,0.6-0.3,1
			c0,0.4,0.1,0.7,0.2,1C88.7,427.6,89,427.7,89.3,427.7z"/>
	</g>
	<g>
		<path fill="#FFFFFF" d="M1129.5,322.4v0.6h-2.2v4.8h-0.7v-5.4H1129.5z"/>
		<path fill="#FFFFFF" d="M1130.1,322.5c0.3-0.1,0.8-0.1,1.3-0.1c0.7,0,1.2,0.2,1.5,0.4c0.3,0.3,0.5,0.6,0.5,1.1
			c0,0.5-0.1,0.9-0.4,1.2c-0.4,0.4-1,0.6-1.6,0.6c-0.2,0-0.4,0-0.6,0v2.2h-0.7V322.5z M1130.8,325.1c0.2,0,0.3,0.1,0.6,0.1
			c0.8,0,1.4-0.4,1.4-1.2c0-0.7-0.5-1.1-1.3-1.1c-0.3,0-0.5,0-0.7,0.1V325.1z"/>
		<path fill="#FFFFFF" d="M1138.9,325.1c0,1.9-1.1,2.8-2.5,2.8c-1.4,0-2.4-1.1-2.4-2.7c0-1.7,1.1-2.8,2.5-2.8
			C1138,322.4,1138.9,323.5,1138.9,325.1z M1134.8,325.2c0,1.2,0.6,2.2,1.7,2.2c1.1,0,1.7-1,1.7-2.2c0-1.1-0.6-2.2-1.7-2.2
			C1135.3,322.9,1134.8,324,1134.8,325.2z"/>
		<path fill="#FFFFFF" d="M1144.4,325.5c0-0.8-0.1-1.7-0.1-2.3h0c-0.2,0.6-0.4,1.3-0.7,2l-1,2.6h-0.5l-0.9-2.6
			c-0.3-0.8-0.5-1.5-0.6-2.1h0c0,0.7-0.1,1.6-0.1,2.4l-0.1,2.3h-0.7l0.4-5.4h0.9l0.9,2.6c0.2,0.7,0.4,1.3,0.5,1.8h0
			c0.1-0.5,0.3-1.1,0.6-1.8l1-2.6h0.9l0.3,5.4h-0.7L1144.4,325.5z"/>
		<path fill="#FFFFFF" d="M1147.1,326.1l-0.6,1.7h-0.7l1.8-5.4h0.8l1.8,5.4h-0.7l-0.6-1.7H1147.1z M1148.8,325.6l-0.5-1.6
			c-0.1-0.4-0.2-0.7-0.3-1h0c-0.1,0.3-0.2,0.6-0.3,1l-0.5,1.6H1148.8z"/>
		<path fill="#FFFFFF" d="M1155,322.4v4.8l0.5,0l0,1.8h-0.5l0-1.3h-3.4l0,1.3h-0.5l0-1.8l0.4,0c0.2-0.4,0.4-0.8,0.5-1.2
			c0.2-0.6,0.3-1.3,0.3-2.3v-1.4H1155z M1152.6,324c0,0.9-0.1,1.6-0.3,2.2c-0.1,0.4-0.3,0.7-0.4,1h2.4V323h-1.7V324z"/>
		<path fill="#FFFFFF" d="M1160,327.7c-0.3,0.1-0.8,0.3-1.4,0.3c-1.5,0-2.7-1-2.7-2.7c0-1.7,1.1-2.8,2.8-2.8c0.7,0,1.1,0.1,1.3,0.2
			l-0.2,0.6c-0.3-0.1-0.6-0.2-1.1-0.2c-1.3,0-2.1,0.8-2.1,2.2c0,1.3,0.8,2.2,2.1,2.2c0.4,0,0.9-0.1,1.1-0.2L1160,327.7z"/>
		<path fill="#FFFFFF" d="M1161.6,322.4v2c0.2,0,0.5,0,0.7,0c1.1,0,2.1,0.5,2.1,1.7c0,0.5-0.2,0.9-0.4,1.2c-0.4,0.5-1.2,0.6-1.9,0.6
			c-0.5,0-0.9,0-1.1-0.1v-5.4H1161.6z M1161.6,327.3c0.2,0,0.3,0,0.6,0c0.8,0,1.4-0.4,1.4-1.2c0-0.8-0.7-1.2-1.4-1.2
			c-0.2,0-0.4,0-0.6,0V327.3z"/>
		<path fill="#FFFFFF" d="M1165.9,322.4v2.4h0.2l1.8-2.4h0.8l-2,2.5c0.9,0.1,1.2,0.7,1.5,1.4c0.2,0.6,0.4,1,0.6,1.5h-0.8
			c-0.2-0.4-0.3-0.8-0.5-1.3c-0.2-0.7-0.6-1.2-1.5-1.2h-0.2v2.5h-0.7v-5.4H1165.9z"/>
		<path fill="#FFFFFF" d="M1172.4,325.3h-2.1v1.9h2.3v0.6h-3v-5.4h2.9v0.6h-2.2v1.7h2.1V325.3z"/>
		<path fill="#FFFFFF" d="M1130.6,335.8l-0.7-1.2c-0.3-0.5-0.5-0.8-0.6-1.1h0c-0.2,0.3-0.3,0.6-0.6,1.1l-0.6,1.2h-0.8l1.6-2.7
			l-1.6-2.7h0.8l0.7,1.3c0.2,0.4,0.4,0.6,0.5,0.9h0c0.2-0.3,0.3-0.6,0.5-0.9l0.7-1.3h0.8l-1.6,2.6l1.7,2.8H1130.6z"/>
		<path fill="#FFFFFF" d="M1133.1,334.1l-0.6,1.7h-0.7l1.8-5.4h0.8l1.8,5.4h-0.7l-0.6-1.7H1133.1z M1134.8,333.6l-0.5-1.6
			c-0.1-0.4-0.2-0.7-0.3-1h0c-0.1,0.3-0.2,0.6-0.3,1l-0.5,1.6H1134.8z"/>
		<path fill="#FFFFFF" d="M1137.1,330.5c0.3-0.1,0.8-0.1,1.3-0.1c0.7,0,1.2,0.2,1.5,0.4c0.3,0.3,0.5,0.6,0.5,1.1
			c0,0.5-0.1,0.9-0.4,1.2c-0.4,0.4-1,0.6-1.6,0.6c-0.2,0-0.4,0-0.6,0v2.2h-0.7V330.5z M1137.8,333.1c0.2,0,0.3,0.1,0.6,0.1
			c0.8,0,1.4-0.4,1.4-1.2c0-0.7-0.5-1.1-1.3-1.1c-0.3,0-0.5,0-0.7,0.1V333.1z"/>
		<path fill="#FFFFFF" d="M1141.9,330.4v1.7c0,0.7,0.4,1.2,1.1,1.2c0.4,0,0.8-0.1,1.1-0.3v-2.6h0.7v5.4h-0.7v-2.3h0
			c-0.4,0.2-0.8,0.3-1.3,0.3c-0.7,0-1.6-0.3-1.6-1.6v-1.8H1141.9z"/>
		<path fill="#FFFFFF" d="M1146.3,330.4l1.1,2.3c0.1,0.3,0.3,0.6,0.4,1h0c0.1-0.3,0.2-0.6,0.3-1l0.8-2.3h0.7l-1.1,2.8
			c-0.3,0.7-0.6,1.5-1,2c-0.4,0.4-0.7,0.7-1.2,0.7c-0.2,0-0.3,0-0.4,0l0.1-0.6c0.1,0,0.1,0,0.3,0c0.6,0,0.9-0.5,1.1-0.9
			c0.1-0.1,0-0.2,0-0.3l-1.8-3.6H1146.3z"/>
		<path fill="#FFFFFF" d="M1150.2,330.5c0.3-0.1,0.8-0.1,1.3-0.1c0.7,0,1.1,0.1,1.5,0.4c0.3,0.2,0.4,0.5,0.4,1c0,0.5-0.3,1-0.9,1.2
			v0c0.5,0.1,1.1,0.6,1.1,1.4c0,0.5-0.2,0.8-0.5,1.1c-0.4,0.3-1,0.5-1.9,0.5c-0.5,0-0.8,0-1.1-0.1V330.5z M1150.9,332.7h0.6
			c0.7,0,1.2-0.4,1.2-0.9c0-0.6-0.5-0.9-1.2-0.9c-0.3,0-0.5,0-0.6,0V332.7z M1150.9,335.3c0.1,0,0.3,0,0.6,0c0.7,0,1.4-0.3,1.4-1
			c0-0.7-0.6-1-1.4-1h-0.6V335.3z"/>
		<path fill="#FFFFFF" d="M1155.4,334.1l-0.6,1.7h-0.7l1.8-5.4h0.8l1.8,5.4h-0.7l-0.6-1.7H1155.4z M1157.2,333.6l-0.5-1.6
			c-0.1-0.4-0.2-0.7-0.3-1h0c-0.1,0.3-0.2,0.6-0.3,1l-0.5,1.6H1157.2z"/>
		<path fill="#FFFFFF" d="M1160.2,330.4v2.3h2.6v-2.3h0.7v5.4h-0.7v-2.5h-2.6v2.5h-0.7v-5.4H1160.2z"/>
		<path fill="#FFFFFF" d="M1165.4,330.4v2.3h2.6v-2.3h0.7v5.4h-0.7v-2.5h-2.6v2.5h-0.7v-5.4H1165.4z"/>
		<path fill="#FFFFFF" d="M1169.4,335.8c0.1-0.1,0.2-0.3,0.2-0.5c0.2-0.6,0.4-1.4,0.8-1.8c0.1-0.1,0.3-0.2,0.4-0.3v0
			c-0.7-0.1-1.2-0.6-1.2-1.3c0-0.5,0.2-0.8,0.5-1.1c0.3-0.3,0.9-0.4,1.5-0.4c0.5,0,0.9,0,1.3,0.1v5.3h-0.7v-2.3h-0.5
			c-0.3,0-0.6,0.1-0.8,0.3c-0.4,0.4-0.5,1.2-0.7,1.7c-0.1,0.1-0.1,0.2-0.2,0.4H1169.4z M1172.3,331c-0.1,0-0.3-0.1-0.7-0.1
			c-0.7,0-1.3,0.3-1.3,1c0,0.6,0.6,1,1.3,1c0.2,0,0.5,0,0.6,0V331z"/>
	</g>
	<g>
		<path fill="#FFFFFF" d="M1159.4,311.6c0.3,0.3,0.5,1.1,0,1.5c-0.4,0.4-1.2,0.3-1.5,0c-2.8-3-5.6-6.1-8.5-9.1l-0.3-0.3
			c-3,3.2-5.9,6.3-8.9,9.5c-0.3,0.3-1.1,0.5-1.5,0c-0.4-0.4-0.3-1.2,0-1.5c3.2-3,6.4-5.9,9.6-8.9c0,0-1.5-1.7-2.2-2.4
			c-1.6,1.1-3.9,0.7-5.2-1c-1.5-1.8-2.8-5-1.5-6.4c1.3-1.2,4.5,0,6.4,1.5c1.7,1.4,2.1,3.7,1,5.2c0.8,0.7,1.6,1.5,2.4,2.2
			c0,0,0,0,0,0c0,0,0,0,0,0c0.7-0.7,1.5-1.4,2.2-2.1c-0.6-1.1-0.2-2.6,0.8-3.5c1.2-1,5.5-4.7,5.7-4.6c0.1,0.1-2.9,3-5,5.1l0.3,0.3
			c2.2-1.9,5.3-4.8,5.4-4.7c0.1,0.1-2.9,3.1-4.8,5.2l0.3,0.3c2.1-2,5.1-4.9,5.2-4.8c0.1,0.1-2.8,3.2-4.7,5.4l0.3,0.3
			c2.1-2,4.9-5.1,5.1-5c0.1,0.1-4.6,5.7-4.6,5.7c0,0,1-1.2,0,0c-1,1.1-2.4,1.5-3.5,0.8c-0.7,0.7-1.4,1.5-2.1,2.2
			C1149.9,302.7,1156.2,308.6,1159.4,311.6z"/>
		<path fill="#FFFFFF" d="M1139.5,313.6c-0.3,0-0.6-0.1-0.9-0.3c-0.2-0.2-0.4-0.5-0.3-0.9c0-0.4,0.1-0.7,0.4-0.9l9.4-8.7
			c-0.4-0.4-1.4-1.5-1.9-2.1c-0.6,0.4-1.2,0.6-1.9,0.6c-1.3,0-2.6-0.6-3.4-1.7c-1.5-1.8-2.9-5.2-1.5-6.6c0.4-0.4,1-0.6,1.7-0.6
			c1.7,0,3.8,1.1,5,2.1c1.7,1.4,2.2,3.7,1.2,5.4l2.1,2l2-1.9c-0.5-1.1-0.2-2.7,0.9-3.6c0.2-0.2,0.5-0.5,0.9-0.8
			c4.1-3.5,4.7-3.9,4.9-3.9h0.1l0.1,0.1l0,0.1c0,0.2-0.3,0.5-3,3.1c-0.7,0.6-1.3,1.3-1.9,1.9l0.1,0.1c0.7-0.6,1.4-1.2,2.1-1.8
			c2.8-2.5,3.1-2.8,3.3-2.8h0.1l0.1,0.1c0.2,0.2,0.2,0.2-2.8,3.4c-0.6,0.7-1.3,1.4-1.9,2l0.1,0.1c0.6-0.6,1.3-1.3,2-1.9
			c2.7-2.6,3-2.9,3.2-2.9h0.1l0.1,0.1c0.2,0.2,0.2,0.2-2.7,3.5c-0.6,0.7-1.3,1.4-1.8,2.1l0.1,0.1c0.6-0.6,1.3-1.3,1.9-1.9
			c2.7-2.7,3-3,3.1-3h0.1l0.1,0.1c0.2,0.2,0.2,0.2-2.2,3.2c-1.2,1.4-2.4,2.8-2.4,2.8l-0.1,0.2l0,0c-0.6,0.7-1.5,1.1-2.3,1.1
			c-0.4,0-0.8-0.1-1.1-0.3l-1.8,2c1,0.9,6.4,6,9.3,8.7c0.2,0.2,0.4,0.5,0.4,0.9s-0.1,0.7-0.3,0.9c-0.2,0.2-0.5,0.3-0.9,0.3
			c-0.4,0-0.7-0.1-0.9-0.4l-8.6-9.3l-8.7,9.4C1140.2,313.5,1139.9,313.6,1139.5,313.6z M1146.2,300.1l0.1,0.1
			c0.7,0.7,2.2,2.4,2.2,2.4l0.1,0.2l-9.7,9c-0.1,0.1-0.2,0.4-0.2,0.6c0,0.2,0.1,0.5,0.2,0.6c0.3,0.3,0.9,0.3,1.2,0l9-9.7l8.9,9.6
			c0.3,0.3,0.9,0.3,1.2,0c0.2-0.1,0.2-0.4,0.2-0.6c0-0.2-0.1-0.5-0.2-0.6c-3.2-3-9.4-8.8-9.5-8.8l-0.2-0.1l2.3-2.5l0.1,0.1
			c0.3,0.2,0.7,0.3,1.1,0.3c0.8,0,1.5-0.4,2.1-1.1c0.2-0.2,0.3-0.3,0.3-0.4c0.1-0.1,0.1-0.1,0.1-0.1l0,0c0.7-0.8,1.8-2.1,2.7-3.2
			c-0.4,0.4-0.8,0.8-1.2,1.2c-0.7,0.7-1.4,1.4-2.1,2.1l-0.1,0.1l-0.6-0.6l0.1-0.1c0.6-0.7,1.3-1.5,2-2.2c0.4-0.4,0.8-0.8,1.1-1.2
			c-0.4,0.4-0.8,0.8-1.2,1.2c-0.7,0.7-1.5,1.4-2.1,2l-0.1,0.1l-0.6-0.6l0.1-0.1c0.6-0.7,1.4-1.4,2.1-2.2c0.4-0.4,0.8-0.8,1.1-1.2
			c-0.4,0.4-0.8,0.8-1.3,1.1c-0.7,0.7-1.5,1.4-2.2,2l-0.1,0.1l-0.6-0.6l0.1-0.1c0.6-0.6,1.4-1.4,2.1-2.1c0.4-0.4,0.8-0.8,1.2-1.2
			c-1,0.8-2.1,1.7-2.8,2.3c-0.4,0.3-0.7,0.6-0.9,0.8c-1,0.8-1.3,2.2-0.8,3.2l0.1,0.1l-2.2,2.1l0,0l-0.1,0.1l0,0.1h-0.2l-0.3-0.2l0,0
			l-2.4-2.2l0.1-0.1c1.1-1.5,0.6-3.7-1-5c-1.2-1-3.2-2-4.7-2c-0.6,0-1,0.1-1.4,0.4c-1.1,1.2,0.1,4.4,1.5,6.1c0.8,1,2,1.6,3.1,1.6
			c0.7,0,1.3-0.2,1.8-0.6L1146.2,300.1z"/>
	</g>
</g>
</svg>
