<?xml version="1.0" encoding="utf-8"?>
<!-- Generator: Adobe Illustrator 18.0.0, SVG Export Plug-In . SVG Version: 6.00 Build 0)  -->
<!DOCTYPE svg PUBLIC "-//W3C//DTD SVG 1.1//EN" "http://www.w3.org/Graphics/SVG/1.1/DTD/svg11.dtd">
<svg version="1.1" id="Layer_1" xmlns="http://www.w3.org/2000/svg" xmlns:xlink="http://www.w3.org/1999/xlink" x="0px" y="0px"
	 width="1188px" height="348px" viewBox="0 0 1188 348" enable-background="new 0 0 1188 348" xml:space="preserve">
<g>
	<g>
		<g>
			<path fill="#81C784" d="M94.3,168.1h-66c-1.7,0-3-1.3-3-3v-142c0-1.7,1.3-3,3-3h66c1.7,0,3,1.3,3,3v142
				C97.3,166.8,95.9,168.1,94.3,168.1z"/>
		</g>
	</g>
	<g>
		<g>
			<g>
				<path fill="#81C784" d="M180,168.1h-66c-1.7,0-3-1.3-3-3v-142c0-1.7,1.3-3,3-3h66c1.7,0,3,1.3,3,3v142
					C183,166.8,181.7,168.1,180,168.1z"/>
			</g>
		</g>
	</g>
	<g>
		<g>
			<g>
				<path fill="#81C784" d="M265.8,168.1h-66c-1.7,0-3-1.3-3-3v-142c0-1.7,1.3-3,3-3h66c1.7,0,3,1.3,3,3v142
					C268.8,166.8,267.5,168.1,265.8,168.1z"/>
			</g>
		</g>
	</g>
	<g>
		<g>
			<g>
				<path fill="#81C784" d="M629.7,168.1h-66c-1.7,0-3-1.3-3-3v-142c0-1.7,1.3-3,3-3h66c1.7,0,3,1.3,3,3v142
					C632.7,166.8,631.4,168.1,629.7,168.1z"/>
			</g>
		</g>
	</g>
	<g>
		<g>
			<g>
				<path fill="#81C784" d="M717.3,168.1h-66c-1.7,0-3-1.3-3-3v-142c0-1.7,1.3-3,3-3h66c1.7,0,3,1.3,3,3v142
					C720.3,166.8,718.9,168.1,717.3,168.1z"/>
			</g>
		</g>
	</g>
	<g>
		<g>
			<g>
				<path fill="#81C784" d="M804.8,168.1h-66c-1.7,0-3-1.3-3-3v-142c0-1.7,1.3-3,3-3h66c1.7,0,3,1.3,3,3v142
					C807.8,166.8,806.5,168.1,804.8,168.1z"/>
			</g>
		</g>
	</g>
	<g>
		<g>
			<g>
				<path fill="#81C784" d="M892.4,168.1h-66c-1.7,0-3-1.3-3-3v-142c0-1.7,1.3-3,3-3h66c1.7,0,3,1.3,3,3v142
					C895.4,166.8,894,168.1,892.4,168.1z"/>
			</g>
		</g>
	</g>
	<g>
		<g>
			<g>
				<path fill="#81C784" d="M979.9,168.1h-66c-1.7,0-3-1.3-3-3v-142c0-1.7,1.3-3,3-3h66c1.7,0,3,1.3,3,3v142
					C982.9,166.8,981.5,168.1,979.9,168.1z"/>
			</g>
		</g>
	</g>
	<g>
		<g>
			<g>
				<path fill="#81C784" d="M1067.4,168.1h-66c-1.7,0-3-1.3-3-3v-142c0-1.7,1.3-3,3-3h66c1.7,0,3,1.3,3,3v142
					C1070.4,166.8,1069.1,168.1,1067.4,168.1z"/>
			</g>
		</g>
	</g>
	<g>
		<g>
			<g>
				<path fill="#81C784" d="M1155,168.1h-66c-1.7,0-3-1.3-3-3v-142c0-1.7,1.3-3,3-3h66c1.7,0,3,1.3,3,3v142
					C1158,166.8,1156.6,168.1,1155,168.1z"/>
			</g>
		</g>
	</g>
	<g>
		<g>
			<g>
				<path fill="#81C784" d="M629.7,326.8h-66c-1.7,0-3-1.3-3-3V234c0-1.7,1.3-3,3-3h66c1.7,0,3,1.3,3,3v89.8
					C632.7,325.5,631.4,326.8,629.7,326.8z"/>
			</g>
		</g>
	</g>
	<g>
		<g>
			<g>
				<path fill="#81C784" d="M717.3,326.8h-66c-1.7,0-3-1.3-3-3V234c0-1.7,1.3-3,3-3h66c1.7,0,3,1.3,3,3v89.8
					C720.3,325.5,718.9,326.8,717.3,326.8z"/>
			</g>
		</g>
	</g>
	<g>
		<g>
			<g>
				<path fill="#81C784" d="M804.8,326.8h-66c-1.7,0-3-1.3-3-3V234c0-1.7,1.3-3,3-3h66c1.7,0,3,1.3,3,3v89.8
					C807.8,325.5,806.5,326.8,804.8,326.8z"/>
			</g>
		</g>
	</g>
	<g>
		<g>
			<g>
				<path fill="#81C784" d="M892.4,326.8h-66c-1.7,0-3-1.3-3-3V234c0-1.7,1.3-3,3-3h66c1.7,0,3,1.3,3,3v89.8
					C895.4,325.5,894,326.8,892.4,326.8z"/>
			</g>
		</g>
	</g>
	<g>
		<g>
			<g>
				<path fill="#81C784" d="M979.9,326.8h-66c-1.7,0-3-1.3-3-3V234c0-1.7,1.3-3,3-3h66c1.7,0,3,1.3,3,3v89.8
					C982.9,325.5,981.5,326.8,979.9,326.8z"/>
			</g>
		</g>
	</g>
	<g>
		<g>
			<g>
				<path fill="#81C784" d="M1067.4,326.8h-66c-1.7,0-3-1.3-3-3V234c0-1.7,1.3-3,3-3h66c1.7,0,3,1.3,3,3v89.8
					C1070.4,325.5,1069.1,326.8,1067.4,326.8z"/>
			</g>
		</g>
	</g>
	<g>
		<g>
			<g>
				<path fill="#81C784" d="M1155,326.8h-66c-1.7,0-3-1.3-3-3V234c0-1.7,1.3-3,3-3h66c1.7,0,3,1.3,3,3v89.8
					C1158,325.5,1156.6,326.8,1155,326.8z"/>
			</g>
		</g>
	</g>
	<g>
		<g>
			<g>
				<path fill="#81C784" d="M351.6,168.1h-66c-1.7,0-3-1.3-3-3v-142c0-1.7,1.3-3,3-3h66c1.7,0,3,1.3,3,3v142
					C354.6,166.8,353.3,168.1,351.6,168.1z"/>
			</g>
		</g>
	</g>
	<g>
		<g>
			<path fill="#81C784" d="M437.4,168.1h-66c-1.7,0-3-1.3-3-3v-142c0-1.7,1.3-3,3-3h66c1.7,0,3,1.3,3,3v142
				C440.4,166.8,439.1,168.1,437.4,168.1z"/>
		</g>
	</g>
	<g>
		<g>
			<path fill="#81C784" d="M523.2,168.1h-66c-1.7,0-3-1.3-3-3v-142c0-1.7,1.3-3,3-3h66c1.7,0,3,1.3,3,3v142
				C526.2,166.8,524.8,168.1,523.2,168.1z"/>
		</g>
	</g>
	<g>
		<g>
			<path fill="#81C784" d="M176.6,327.3h-62.2c-1.7,0-3-1.3-3-3v-90.5c0-1.7,1.3-3,3-3h62.2c1.7,0,3,1.3,3,3v90.5
				C179.6,326,178.2,327.3,176.6,327.3z"/>
		</g>
	</g>
	<g>
		<g>
			<path fill="#81C784" d="M263.5,327.3h-62.2c-1.7,0-3-1.3-3-3v-90.5c0-1.7,1.3-3,3-3h62.2c1.7,0,3,1.3,3,3v90.5
				C266.5,326,265.1,327.3,263.5,327.3z"/>
		</g>
	</g>
	<g>
		<g>
			<path fill="#81C784" d="M350.3,327.3h-62.2c-1.7,0-3-1.3-3-3v-90.5c0-1.7,1.3-3,3-3h62.2c1.7,0,3,1.3,3,3v90.5
				C353.3,326,352,327.3,350.3,327.3z"/>
		</g>
	</g>
	<g>
		<g>
			<path fill="#81C784" d="M437.2,327.3H375c-1.7,0-3-1.3-3-3v-90.5c0-1.7,1.3-3,3-3h62.2c1.7,0,3,1.3,3,3v90.5
				C440.2,326,438.9,327.3,437.2,327.3z"/>
		</g>
	</g>
	<g>
		<g>
			<path fill="#81C784" d="M524.1,327.3h-62.2c-1.7,0-3-1.3-3-3v-90.5c0-1.7,1.3-3,3-3h62.2c1.7,0,3,1.3,3,3v90.5
				C527.1,326,525.8,327.3,524.1,327.3z"/>
		</g>
	</g>
</g>
<g>
	<g>
		<g>
			<path fill="#90A4AE" d="M1095.2,197.2c0.2,0.1,0.4,0.3,0.5,0.4c0.1,0.2,0.2,0.4,0.2,0.7c0,0.3-0.1,0.6-0.2,0.9
				c-0.1,0.3-0.3,0.5-0.5,0.7c-0.2,0.2-0.5,0.3-0.8,0.4s-0.6,0.2-0.8,0.3v0c0.2,0,0.4,0.1,0.7,0.2s0.4,0.2,0.6,0.3
				c0.2,0.1,0.4,0.3,0.5,0.5c0.1,0.2,0.2,0.5,0.2,0.7c0,0.4-0.1,0.8-0.3,1.1c-0.2,0.3-0.4,0.6-0.7,0.8c-0.3,0.2-0.7,0.4-1,0.5
				c-0.4,0.1-0.8,0.2-1.1,0.2h-3.9l0.1-0.4c0.1,0,0.2,0,0.4,0s0.3-0.1,0.4-0.1c0.1-0.1,0.2-0.1,0.3-0.2c0.1-0.1,0.1-0.2,0.1-0.3
				l1.3-5.8c0,0,0-0.1,0-0.1c0,0,0-0.1,0-0.1c0-0.1,0-0.1,0-0.2s-0.1-0.1-0.2-0.1c-0.1-0.1-0.2-0.1-0.3-0.1c-0.1,0-0.2,0-0.3-0.1
				l0.1-0.4h3.5c0.3,0,0.5,0,0.7,0.1C1094.8,197,1095,197.1,1095.2,197.2z M1093.6,203.7c0.2-0.2,0.3-0.5,0.4-0.7s0.1-0.5,0.1-0.8
				c0-0.4-0.1-0.7-0.4-0.9s-0.7-0.3-1.1-0.3c-0.2,0-0.4,0-0.6,0c-0.2,0-0.3,0-0.4,0l-0.6,2.8c0,0.1,0,0.1,0,0.1c0,0,0,0.1,0,0.1
				c0,0.2,0.1,0.3,0.3,0.4c0.2,0.1,0.5,0.1,0.8,0.1c0.4,0,0.7-0.1,1-0.2C1093.2,204.1,1093.5,203.9,1093.6,203.7z M1094,199.8
				c0.2-0.2,0.3-0.4,0.4-0.7s0.1-0.5,0.1-0.8c0-0.2,0-0.4-0.1-0.5c-0.1-0.1-0.2-0.3-0.3-0.3c-0.1-0.1-0.3-0.1-0.4-0.2
				c-0.2,0-0.3,0-0.5,0c-0.1,0-0.3,0-0.4,0c-0.2,0-0.3,0-0.4,0l-0.7,3.1h0.7c0.4,0,0.7-0.1,1-0.2
				C1093.6,200.2,1093.8,200,1094,199.8z"/>
			<path fill="#90A4AE" d="M1100.1,204.1L1100.1,204.1c-0.2,0.1-0.4,0.3-0.5,0.4c-0.2,0.1-0.3,0.2-0.5,0.3c-0.2,0.1-0.3,0.2-0.5,0.2
				c-0.1,0-0.3,0.1-0.6,0.1c-0.4,0-0.6-0.1-0.8-0.3s-0.3-0.5-0.3-0.8c0-0.1,0-0.2,0-0.3c0-0.1,0.1-0.3,0.1-0.6l0.4-1.8
				c0-0.2,0.1-0.3,0.1-0.4c0-0.1,0-0.3,0-0.4c0-0.2,0-0.4-0.1-0.4s-0.2-0.1-0.4-0.1c-0.1,0-0.2,0-0.3,0c-0.1,0-0.2,0.1-0.3,0.1
				l0.1-0.4c0.3-0.1,0.6-0.2,0.8-0.3s0.4-0.1,0.5-0.1c0.3,0,0.5,0.1,0.7,0.2c0.1,0.1,0.2,0.3,0.2,0.6c0,0.1,0,0.2,0,0.3
				c0,0.1,0,0.2-0.1,0.3l-0.5,2.1c0,0.2-0.1,0.3-0.1,0.4c0,0.1,0,0.2,0,0.3c0,0.3,0.1,0.5,0.2,0.6c0.1,0.1,0.3,0.2,0.5,0.2
				c0.2,0,0.5-0.1,0.7-0.2s0.5-0.3,0.8-0.6l1-4.2l1-0.1l0.1,0.1l-0.8,3.6c0,0.2-0.1,0.3-0.1,0.5s0,0.3,0,0.3c0,0.2,0,0.4,0.1,0.4
				s0.2,0.1,0.5,0.1c0.1,0,0.2,0,0.3,0c0.1,0,0.2,0,0.3-0.1l-0.1,0.4c-0.3,0.1-0.6,0.2-0.8,0.3s-0.4,0.1-0.6,0.1
				c-0.3,0-0.5-0.1-0.7-0.3S1100.1,204.4,1100.1,204.1z"/>
			<path fill="#90A4AE" d="M1108.8,199.8c0,0.2-0.1,0.4-0.2,0.5s-0.3,0.2-0.5,0.2c-0.1,0-0.2,0-0.4-0.1c-0.1,0-0.3-0.1-0.3-0.1
				c-0.2,0.2-0.4,0.4-0.6,0.7c-0.2,0.3-0.4,0.6-0.6,1c0.1,0.4,0.2,0.7,0.2,0.9c0.1,0.3,0.1,0.5,0.2,0.8c0.1,0.2,0.2,0.4,0.3,0.5
				c0.2,0.1,0.4,0.2,0.6,0.2c0.1,0,0.2,0,0.4,0c0.2,0,0.3-0.1,0.4-0.1l-0.1,0.4c-0.4,0.2-0.6,0.3-0.8,0.3c-0.2,0-0.4,0.1-0.6,0.1
				c-0.3,0-0.5-0.1-0.7-0.2c-0.2-0.1-0.3-0.4-0.4-0.7c-0.1-0.3-0.1-0.5-0.2-0.7c0-0.2-0.1-0.4-0.1-0.6c-0.2,0.3-0.3,0.5-0.4,0.7
				c-0.1,0.2-0.3,0.4-0.6,0.8c-0.2,0.3-0.4,0.5-0.6,0.6c-0.2,0.1-0.4,0.2-0.6,0.2c-0.2,0-0.3-0.1-0.4-0.2c-0.1-0.1-0.2-0.2-0.2-0.4
				c0-0.2,0.1-0.3,0.2-0.5s0.3-0.2,0.6-0.2c0.1,0,0.2,0,0.4,0.1s0.2,0.1,0.4,0.1c0.1-0.1,0.3-0.3,0.6-0.6c0.2-0.3,0.5-0.6,0.7-1
				c-0.1-0.3-0.1-0.6-0.2-0.9c-0.1-0.3-0.2-0.6-0.2-0.8c-0.1-0.3-0.2-0.5-0.3-0.6s-0.3-0.1-0.5-0.1c-0.1,0-0.2,0-0.3,0
				c-0.1,0-0.2,0.1-0.3,0.1l0.1-0.4c0.3-0.1,0.5-0.2,0.8-0.3c0.2-0.1,0.4-0.1,0.5-0.1c0.3,0,0.5,0.1,0.6,0.2s0.3,0.4,0.4,0.7
				c0.1,0.4,0.2,0.7,0.2,0.8c0,0.1,0.1,0.3,0.1,0.5c0.2-0.3,0.3-0.5,0.4-0.7c0.1-0.2,0.3-0.4,0.6-0.8c0.2-0.3,0.5-0.5,0.7-0.6
				c0.2-0.1,0.4-0.2,0.6-0.2c0.2,0,0.3,0.1,0.4,0.2C1108.7,199.5,1108.8,199.7,1108.8,199.8z"/>
			<path fill="#90A4AE" d="M1111.6,204.3l-0.1,0.4c-0.3,0.1-0.6,0.2-0.8,0.3c-0.2,0.1-0.4,0.1-0.5,0.1c-0.3,0-0.5-0.1-0.7-0.2
				s-0.2-0.3-0.2-0.6c0-0.1,0-0.2,0-0.3c0-0.1,0-0.2,0.1-0.4l0.6-2.4c0-0.1,0.1-0.3,0.1-0.4c0-0.2,0-0.3,0-0.4c0-0.2,0-0.4-0.1-0.4
				c-0.1-0.1-0.2-0.1-0.4-0.1c-0.1,0-0.2,0-0.3,0c-0.1,0-0.2,0-0.3,0.1l0.1-0.4c0.3-0.1,0.6-0.2,0.8-0.3c0.2-0.1,0.4-0.1,0.6-0.1
				c0.3,0,0.5,0.1,0.7,0.2c0.1,0.1,0.2,0.3,0.2,0.6c0,0.1,0,0.2,0,0.3c0,0.1,0,0.2-0.1,0.3l-0.6,2.4c0,0.1-0.1,0.3-0.1,0.4
				c0,0.1,0,0.3,0,0.3c0,0.2,0,0.4,0.1,0.4s0.3,0.1,0.5,0.1c0.1,0,0.2,0,0.3,0C1111.5,204.3,1111.6,204.3,1111.6,204.3z M1112,197.1
				c0,0.2-0.1,0.4-0.2,0.6c-0.1,0.2-0.3,0.2-0.5,0.2c-0.2,0-0.4-0.1-0.5-0.2c-0.1-0.2-0.2-0.3-0.2-0.5c0-0.2,0.1-0.4,0.2-0.5
				c0.1-0.2,0.3-0.2,0.5-0.2c0.2,0,0.4,0.1,0.5,0.2C1112,196.7,1112,196.9,1112,197.1z"/>
			<path fill="#90A4AE" d="M1117.9,199.8c0,0.7-0.1,1.3-0.2,2c-0.1,0.7-0.3,1.2-0.6,1.7c-0.3,0.5-0.7,1-1.1,1.2
				c-0.4,0.3-0.9,0.4-1.5,0.4c-0.7,0-1.2-0.2-1.6-0.6c-0.4-0.4-0.6-1-0.6-1.7c0-1,0.3-1.8,0.9-2.5c0.6-0.7,1.4-1.1,2.2-1.1
				c0.2,0,0.4,0,0.7,0.1c0.2,0.1,0.4,0.2,0.6,0.3c0-0.9-0.2-1.6-0.5-2.1c-0.3-0.5-0.7-0.8-1.2-0.8c-0.2,0-0.3,0-0.5,0
				c-0.1,0-0.3,0.1-0.4,0.1c-0.1,0-0.2,0.1-0.2,0.2c-0.1,0.1-0.1,0.1-0.2,0.1l-0.2-0.3c0.3-0.3,0.6-0.5,0.8-0.6
				c0.3-0.1,0.6-0.2,1-0.2c0.3,0,0.7,0.1,1,0.2c0.3,0.1,0.6,0.4,0.8,0.7c0.2,0.3,0.4,0.7,0.5,1.1
				C1117.8,198.7,1117.9,199.2,1117.9,199.8z M1116.2,203.3c0.2-0.4,0.3-0.9,0.4-1.4c0.1-0.5,0.2-1.1,0.2-1.6
				c-0.2-0.3-0.4-0.5-0.6-0.6c-0.2-0.1-0.4-0.2-0.6-0.2c-0.6,0-1.1,0.3-1.5,1c-0.4,0.7-0.6,1.5-0.6,2.3c0,0.6,0.1,1,0.2,1.3
				c0.2,0.3,0.4,0.4,0.8,0.4c0.3,0,0.6-0.1,0.9-0.4C1115.8,204.1,1116,203.7,1116.2,203.3z"/>
		</g>
		<g>
			<g>
				<rect x="1128.7" y="200.6" fill="#90A4AE" width="15.2" height="1"/>
			</g>
			<g>
				<g>
					<path fill="#90A4AE" d="M1137,205.9c-0.1-0.2-0.1-0.5,0.2-0.7l6.5-4.1l-6.5-4.1c-0.2-0.1-0.3-0.5-0.2-0.7
						c0.1-0.2,0.5-0.3,0.7-0.2l7.1,4.5c0.1,0.1,0.2,0.3,0.2,0.4s-0.1,0.3-0.2,0.4l-7.1,4.5c-0.1,0.1-0.2,0.1-0.3,0.1
						C1137.3,206.1,1137.1,206,1137,205.9z"/>
				</g>
			</g>
		</g>
	</g>
	<g>
		<g>
			<path fill="#E6E7E8" d="M89.7,327.3H27.5c-1.7,0-3-1.3-3-3v-90.5c0-1.7,1.3-3,3-3h62.2c1.7,0,3,1.3,3,3v90.5
				C92.7,326,91.4,327.3,89.7,327.3z"/>
		</g>
	</g>
	<g opacity="0.4">
		<g>
			<rect x="92" y="144" fill="#FFFFFF" width="4" height="1"/>
		</g>
		<g>
			<path fill="#FFFFFF" d="M86,145h-7v-1h7V145z M72,145h-7v-1h7V145z M58,145h-7v-1h7V145z M44,145h-7v-1h7V145z"/>
		</g>
		<g>
			<rect x="26" y="144" fill="#FFFFFF" width="4" height="1"/>
		</g>
	</g>
	<g opacity="0.4">
		<g>
			<rect x="178" y="144" fill="#FFFFFF" width="4" height="1"/>
		</g>
		<g>
			<path fill="#FFFFFF" d="M172,145h-7v-1h7V145z M158,145h-7v-1h7V145z M144,145h-7v-1h7V145z M130,145h-7v-1h7V145z"/>
		</g>
		<g>
			<rect x="112" y="144" fill="#FFFFFF" width="4" height="1"/>
		</g>
	</g>
	<g opacity="0.4">
		<g>
			<rect x="264" y="144" fill="#FFFFFF" width="4" height="1"/>
		</g>
		<g>
			<path fill="#FFFFFF" d="M258,145h-7v-1h7V145z M244,145h-7v-1h7V145z M230,145h-7v-1h7V145z M216,145h-7v-1h7V145z"/>
		</g>
		<g>
			<rect x="198" y="144" fill="#FFFFFF" width="4" height="1"/>
		</g>
	</g>
	<g opacity="0.4">
		<g>
			<rect x="349" y="144" fill="#FFFFFF" width="4" height="1"/>
		</g>
		<g>
			<path fill="#FFFFFF" d="M343,145h-7v-1h7V145z M329,145h-7v-1h7V145z M315,145h-7v-1h7V145z M301,145h-7v-1h7V145z"/>
		</g>
		<g>
			<rect x="283" y="144" fill="#FFFFFF" width="4" height="1"/>
		</g>
	</g>
	<g opacity="0.4">
		<g>
			<rect x="436" y="144" fill="#FFFFFF" width="4" height="1"/>
		</g>
		<g>
			<path fill="#FFFFFF" d="M430,145h-7v-1h7V145z M416,145h-7v-1h7V145z M402,145h-7v-1h7V145z M388,145h-7v-1h7V145z"/>
		</g>
		<g>
			<rect x="370" y="144" fill="#FFFFFF" width="4" height="1"/>
		</g>
	</g>
	<g opacity="0.4">
		<g>
			<rect x="522" y="144" fill="#FFFFFF" width="4" height="1"/>
		</g>
		<g>
			<path fill="#FFFFFF" d="M516,145h-8v-1h8V145z M501,145h-8v-1h8V145z M486,145h-8v-1h8V145z M471,145h-8v-1h8V145z"/>
		</g>
		<g>
			<rect x="454" y="144" fill="#FFFFFF" width="4" height="1"/>
		</g>
	</g>
	<g opacity="0.4">
		<g>
			<rect x="628" y="144" fill="#FFFFFF" width="4" height="1"/>
		</g>
		<g>
			<path fill="#FFFFFF" d="M622,145h-7v-1h7V145z M608,145h-7v-1h7V145z M594,145h-7v-1h7V145z M580,145h-7v-1h7V145z"/>
		</g>
		<g>
			<rect x="562" y="144" fill="#FFFFFF" width="4" height="1"/>
		</g>
	</g>
	<g opacity="0.4">
		<g>
			<rect x="716" y="144" fill="#FFFFFF" width="4" height="1"/>
		</g>
		<g>
			<path fill="#FFFFFF" d="M709,145h-8v-1h8V145z M694,145h-8v-1h8V145z M679,145h-8v-1h8V145z M664,145h-8v-1h8V145z"/>
		</g>
		<g>
			<rect x="649" y="144" fill="#FFFFFF" width="4" height="1"/>
		</g>
	</g>
	<g opacity="0.4">
		<g>
			<rect x="804" y="144" fill="#FFFFFF" width="4" height="1"/>
		</g>
		<g>
			<path fill="#FFFFFF" d="M797,145h-8v-1h8V145z M782,145h-8v-1h8V145z M767,145h-8v-1h8V145z M752,145h-8v-1h8V145z"/>
		</g>
		<g>
			<rect x="736" y="144" fill="#FFFFFF" width="4" height="1"/>
		</g>
	</g>
	<g opacity="0.4">
		<g>
			<rect x="891" y="144" fill="#FFFFFF" width="4" height="1"/>
		</g>
		<g>
			<path fill="#FFFFFF" d="M885,145h-8v-1h8V145z M870,145h-8v-1h8V145z M855,145h-8v-1h8V145z M840,145h-8v-1h8V145z"/>
		</g>
		<g>
			<rect x="823" y="144" fill="#FFFFFF" width="4" height="1"/>
		</g>
	</g>
	<g opacity="0.4">
		<g>
			<rect x="978" y="144" fill="#FFFFFF" width="4" height="1"/>
		</g>
		<g>
			<path fill="#FFFFFF" d="M972,145h-7v-1h7V145z M958,145h-7v-1h7V145z M944,145h-7v-1h7V145z M930,145h-7v-1h7V145z"/>
		</g>
		<g>
			<rect x="912" y="144" fill="#FFFFFF" width="4" height="1"/>
		</g>
	</g>
	<g opacity="0.4">
		<g>
			<rect x="1066" y="144" fill="#FFFFFF" width="4" height="1"/>
		</g>
		<g>
			<path fill="#FFFFFF" d="M1060,145h-8v-1h8V145z M1045,145h-8v-1h8V145z M1030,145h-8v-1h8V145z M1015,145h-8v-1h8V145z"/>
		</g>
		<g>
			<rect x="999" y="144" fill="#FFFFFF" width="4" height="1"/>
		</g>
	</g>
	<g opacity="0.4">
		<g>
			<rect x="1154" y="144" fill="#FFFFFF" width="4" height="1"/>
		</g>
		<g>
			<path fill="#FFFFFF" d="M1147,145h-8v-1h8V145z M1132,145h-8v-1h8V145z M1117,145h-8v-1h8V145z M1102,145h-8v-1h8V145z"/>
		</g>
		<g>
			<rect x="1086" y="144" fill="#FFFFFF" width="4" height="1"/>
		</g>
	</g>
	<g opacity="0.4">
		<g>
			<rect x="628" y="252" fill="#FFFFFF" width="4" height="1"/>
		</g>
		<g>
			<path fill="#FFFFFF" d="M622,253h-7v-1h7V253z M608,253h-7v-1h7V253z M594,253h-7v-1h7V253z M580,253h-7v-1h7V253z"/>
		</g>
		<g>
			<rect x="562" y="252" fill="#FFFFFF" width="4" height="1"/>
		</g>
	</g>
	<g opacity="0.4">
		<g>
			<rect x="716" y="252" fill="#FFFFFF" width="4" height="1"/>
		</g>
		<g>
			<path fill="#FFFFFF" d="M709,253h-8v-1h8V253z M694,253h-8v-1h8V253z M679,253h-8v-1h8V253z M664,253h-8v-1h8V253z"/>
		</g>
		<g>
			<rect x="649" y="252" fill="#FFFFFF" width="4" height="1"/>
		</g>
	</g>
	<g opacity="0.4">
		<g>
			<rect x="804" y="252" fill="#FFFFFF" width="4" height="1"/>
		</g>
		<g>
			<path fill="#FFFFFF" d="M797,253h-8v-1h8V253z M782,253h-8v-1h8V253z M767,253h-8v-1h8V253z M752,253h-8v-1h8V253z"/>
		</g>
		<g>
			<rect x="736" y="252" fill="#FFFFFF" width="4" height="1"/>
		</g>
	</g>
	<g opacity="0.4">
		<g>
			<rect x="348" y="252" fill="#FFFFFF" width="4" height="1"/>
		</g>
		<g>
			<path fill="#FFFFFF" d="M342,253h-7v-1h7V253z M329,253h-7v-1h7V253z M316,253h-7v-1h7V253z M303,253h-7v-1h7V253z"/>
		</g>
		<g>
			<rect x="285" y="252" fill="#FFFFFF" width="4" height="1"/>
		</g>
	</g>
	<g opacity="0.4">
		<g>
			<rect x="262" y="252" fill="#FFFFFF" width="4" height="1"/>
		</g>
		<g>
			<path fill="#FFFFFF" d="M256,253h-7v-1h7V253z M243,253h-7v-1h7V253z M230,253h-7v-1h7V253z M217,253h-7v-1h7V253z"/>
		</g>
		<g>
			<rect x="199" y="252" fill="#FFFFFF" width="4" height="1"/>
		</g>
	</g>
	<g opacity="0.4">
		<g>
			<rect x="175" y="252" fill="#FFFFFF" width="4" height="1"/>
		</g>
		<g>
			<path fill="#FFFFFF" d="M169,253h-7v-1h7V253z M156,253h-7v-1h7V253z M143,253h-7v-1h7V253z M130,253h-7v-1h7V253z"/>
		</g>
		<g>
			<rect x="112" y="252" fill="#FFFFFF" width="4" height="1"/>
		</g>
	</g>
	<g opacity="0.4">
		<g>
			<rect x="435" y="252" fill="#FFFFFF" width="4" height="1"/>
		</g>
		<g>
			<path fill="#FFFFFF" d="M427,253h-9v-1h9V253z M410,253h-9v-1h9V253z M393,253h-9v-1h9V253z"/>
		</g>
		<g>
			<rect x="373" y="252" fill="#FFFFFF" width="4" height="1"/>
		</g>
	</g>
	<g opacity="0.4">
		<g>
			<rect x="523" y="252" fill="#FFFFFF" width="4" height="1"/>
		</g>
		<g>
			<path fill="#FFFFFF" d="M516,253h-7v-1h7V253z M503,253h-7v-1h7V253z M490,253h-7v-1h7V253z M477,253h-7v-1h7V253z"/>
		</g>
		<g>
			<rect x="459" y="252" fill="#FFFFFF" width="4" height="1"/>
		</g>
	</g>
	<g opacity="0.4">
		<g>
			<rect x="891" y="252" fill="#FFFFFF" width="4" height="1"/>
		</g>
		<g>
			<path fill="#FFFFFF" d="M885,253h-8v-1h8V253z M870,253h-8v-1h8V253z M855,253h-8v-1h8V253z M840,253h-8v-1h8V253z"/>
		</g>
		<g>
			<rect x="823" y="252" fill="#FFFFFF" width="4" height="1"/>
		</g>
	</g>
	<g opacity="0.4">
		<g>
			<rect x="978" y="252" fill="#FFFFFF" width="4" height="1"/>
		</g>
		<g>
			<path fill="#FFFFFF" d="M972,253h-7v-1h7V253z M958,253h-7v-1h7V253z M944,253h-7v-1h7V253z M930,253h-7v-1h7V253z"/>
		</g>
		<g>
			<rect x="912" y="252" fill="#FFFFFF" width="4" height="1"/>
		</g>
	</g>
	<g opacity="0.4">
		<g>
			<rect x="1066" y="252" fill="#FFFFFF" width="4" height="1"/>
		</g>
		<g>
			<path fill="#FFFFFF" d="M1060,253h-8v-1h8V253z M1045,253h-8v-1h8V253z M1030,253h-8v-1h8V253z M1015,253h-8v-1h8V253z"/>
		</g>
		<g>
			<rect x="999" y="252" fill="#FFFFFF" width="4" height="1"/>
		</g>
	</g>
	<g opacity="0.4">
		<g>
			<rect x="1154" y="252" fill="#FFFFFF" width="4" height="1"/>
		</g>
		<g>
			<path fill="#FFFFFF" d="M1147,253h-8v-1h8V253z M1132,253h-8v-1h8V253z M1117,253h-8v-1h8V253z M1102,253h-8v-1h8V253z"/>
		</g>
		<g>
			<rect x="1086" y="252" fill="#FFFFFF" width="4" height="1"/>
		</g>
	</g>
	<g>
		<rect x="542.5" y="8.8" fill="#B0BEC5" width="1" height="160.2"/>
	</g>
	<g>
		<rect x="542.5" y="231.1" fill="#B0BEC5" width="1" height="107.7"/>
	</g>
	<g>
		<path fill="#FFFFFF" d="M1121.6,80.9L1121.6,80.9c-5.8,0-10.6-4.8-10.6-10.6v0c0-5.8,4.8-10.6,10.6-10.6l0,0
			c5.8,0,10.6,4.8,10.6,10.6v0C1132.1,76.1,1127.4,80.9,1121.6,80.9z"/>
	</g>
	<g>
		<path fill="#36464E" d="M1122.2,74.5h-1.4v-5.8h-1.4v-1l2.9-0.3V74.5z"/>
	</g>
	<g>
		<path fill="#FFFFFF" d="M1033.9,80.9L1033.9,80.9c-5.8,0-10.6-4.8-10.6-10.6v0c0-5.8,4.8-10.6,10.6-10.6l0,0
			c5.8,0,10.6,4.8,10.6,10.6v0C1044.5,76.1,1039.7,80.9,1033.9,80.9z"/>
	</g>
	<g>
		<path fill="#36464E" d="M1036.1,74.5h-4.9v-0.9l2.3-2.5c0.3-0.4,0.6-0.7,0.7-1s0.2-0.5,0.2-0.7c0-0.3-0.1-0.5-0.2-0.7
			c-0.2-0.2-0.4-0.3-0.7-0.3c-0.3,0-0.6,0.1-0.8,0.3c-0.2,0.2-0.3,0.5-0.3,0.9h-1.4l0,0c0-0.6,0.2-1.2,0.6-1.6
			c0.4-0.4,1-0.7,1.8-0.7c0.7,0,1.3,0.2,1.7,0.6c0.4,0.4,0.6,0.9,0.6,1.5c0,0.4-0.1,0.8-0.4,1.2c-0.2,0.4-0.6,0.8-1.2,1.4l-1.3,1.4
			l0,0h3V74.5z"/>
	</g>
	<g>
		<path fill="#FFFFFF" d="M947.2,80.9L947.2,80.9c-5.8,0-10.6-4.8-10.6-10.6v0c0-5.8,4.8-10.6,10.6-10.6l0,0
			c5.8,0,10.6,4.8,10.6,10.6v0C957.8,76.1,953,80.9,947.2,80.9z"/>
	</g>
	<g>
		<path fill="#36464E" d="M946.1,70.3h0.8c0.3,0,0.6-0.1,0.8-0.3s0.2-0.4,0.2-0.7c0-0.3-0.1-0.5-0.2-0.7s-0.4-0.3-0.7-0.3
			c-0.3,0-0.5,0.1-0.7,0.2S946,69,946,69.2h-1.4l0,0c0-0.6,0.2-1,0.6-1.4s1-0.5,1.7-0.5c0.7,0,1.3,0.2,1.8,0.5
			c0.4,0.4,0.7,0.9,0.7,1.5c0,0.3-0.1,0.6-0.3,0.9s-0.5,0.5-0.8,0.7c0.4,0.1,0.7,0.4,0.9,0.6c0.2,0.3,0.3,0.6,0.3,1
			c0,0.7-0.2,1.2-0.7,1.5c-0.5,0.4-1.1,0.6-1.8,0.6c-0.7,0-1.2-0.2-1.7-0.5c-0.5-0.4-0.7-0.8-0.7-1.5l0,0h1.4c0,0.3,0.1,0.5,0.3,0.7
			c0.2,0.2,0.4,0.3,0.7,0.3c0.3,0,0.6-0.1,0.8-0.3c0.2-0.2,0.3-0.4,0.3-0.7c0-0.4-0.1-0.6-0.3-0.8c-0.2-0.2-0.5-0.3-0.8-0.3h-0.8
			V70.3z"/>
	</g>
	<g>
		<path fill="#FFFFFF" d="M859.2,80.9L859.2,80.9c-5.8,0-10.6-4.8-10.6-10.6v0c0-5.8,4.8-10.6,10.6-10.6l0,0
			c5.8,0,10.6,4.8,10.6,10.6v0C869.8,76.1,865,80.9,859.2,80.9z"/>
	</g>
	<g>
		<path fill="#36464E" d="M860.8,71.9h0.8V73h-0.8v1.5h-1.4V73h-2.9l-0.1-0.9l2.9-4.7h1.4V71.9z M857.7,71.9h1.6v-2.6l0,0l-0.1,0.2
			L857.7,71.9z"/>
	</g>
	<g>
		<path fill="#FFFFFF" d="M770.9,80.9L770.9,80.9c-5.8,0-10.6-4.8-10.6-10.6v0c0-5.8,4.8-10.6,10.6-10.6l0,0
			c5.8,0,10.6,4.8,10.6,10.6v0C781.5,76.1,776.7,80.9,770.9,80.9z"/>
	</g>
	<g>
		<path fill="#36464E" d="M768.5,71.4l0.4-4h4v1.1H770l-0.2,1.6c0.1-0.1,0.3-0.2,0.5-0.2s0.4-0.1,0.6-0.1c0.7,0,1.2,0.2,1.6,0.6
			c0.4,0.4,0.6,1,0.6,1.8c0,0.7-0.2,1.3-0.6,1.7c-0.4,0.5-1,0.7-1.8,0.7c-0.7,0-1.2-0.2-1.7-0.5s-0.7-0.8-0.7-1.5l0,0l1.4-0.1
			c0,0.3,0.1,0.6,0.3,0.7s0.4,0.3,0.7,0.3c0.3,0,0.6-0.1,0.7-0.4c0.2-0.2,0.2-0.5,0.2-0.9c0-0.4-0.1-0.7-0.3-1
			c-0.2-0.2-0.4-0.4-0.8-0.4c-0.3,0-0.5,0.1-0.6,0.2c-0.1,0.1-0.2,0.2-0.3,0.4L768.5,71.4z"/>
	</g>
	<g>
		<path fill="#FFFFFF" d="M684.6,80.9L684.6,80.9c-5.8,0-10.6-4.8-10.6-10.6v0c0-5.8,4.8-10.6,10.6-10.6h0c5.8,0,10.6,4.8,10.6,10.6
			v0C695.1,76.1,690.4,80.9,684.6,80.9z"/>
	</g>
	<g>
		<path fill="#36464E" d="M684.8,67.3c0.3,0,0.5,0,0.7,0.1c0.2,0.1,0.5,0.1,0.7,0.2l-0.3,1c-0.2-0.1-0.4-0.1-0.6-0.2
			c-0.2,0-0.4-0.1-0.6-0.1c-0.4,0-0.8,0.2-1,0.5c-0.3,0.3-0.4,0.8-0.4,1.3l0,0c0.2-0.2,0.4-0.3,0.6-0.4s0.5-0.1,0.8-0.1
			c0.6,0,1.1,0.2,1.5,0.7c0.4,0.5,0.5,1,0.5,1.7c0,0.7-0.2,1.3-0.7,1.8c-0.4,0.5-1,0.7-1.7,0.7c-0.8,0-1.4-0.3-1.8-0.8
			s-0.7-1.2-0.7-2.1v-1.4c0-0.9,0.3-1.7,0.8-2.2S684,67.3,684.8,67.3z M684.5,70.8c-0.3,0-0.5,0-0.7,0.1s-0.3,0.2-0.4,0.3v0.5
			c0,0.6,0.1,1,0.3,1.3c0.2,0.3,0.5,0.5,0.8,0.5c0.3,0,0.5-0.1,0.7-0.4c0.2-0.3,0.3-0.6,0.3-1c0-0.4-0.1-0.7-0.3-1
			S684.8,70.8,684.5,70.8z"/>
	</g>
	<g>
		<path fill="#FFFFFF" d="M596.9,80.9L596.9,80.9c-5.8,0-10.6-4.8-10.6-10.6v0c0-5.8,4.8-10.6,10.6-10.6l0,0
			c5.8,0,10.6,4.8,10.6,10.6v0C607.5,76.1,602.7,80.9,596.9,80.9z"/>
	</g>
	<g>
		<path fill="#36464E" d="M599.1,68.5c-0.8,0.9-1.3,1.7-1.6,2.5c-0.3,0.8-0.5,1.7-0.6,2.8l-0.1,0.7h-1.4l0.1-0.7
			c0.1-1,0.3-2,0.7-2.9s0.9-1.7,1.5-2.4h-3.7v-1.1h5V68.5z"/>
	</g>
	<g>
		<path fill="#FFFFFF" d="M490.1,80.9L490.1,80.9c-5.8,0-10.6-4.8-10.6-10.6v0c0-5.8,4.8-10.6,10.6-10.6h0c5.8,0,10.6,4.8,10.6,10.6
			v0C500.7,76.1,496,80.9,490.1,80.9z"/>
	</g>
	<g>
		<path fill="#36464E" d="M492.2,69.3c0,0.4-0.1,0.7-0.3,0.9c-0.2,0.3-0.4,0.5-0.8,0.6c0.4,0.2,0.7,0.4,0.9,0.7s0.3,0.6,0.3,1
			c0,0.7-0.2,1.2-0.7,1.5s-1,0.5-1.7,0.5c-0.7,0-1.3-0.2-1.8-0.5c-0.4-0.4-0.7-0.9-0.7-1.5c0-0.4,0.1-0.7,0.3-1
			c0.2-0.3,0.5-0.5,0.9-0.7c-0.3-0.2-0.6-0.4-0.8-0.6s-0.3-0.6-0.3-0.9c0-0.6,0.2-1.1,0.6-1.5s1-0.5,1.6-0.5c0.7,0,1.2,0.2,1.6,0.5
			S492.2,68.6,492.2,69.3z M490.9,72.5c0-0.3-0.1-0.6-0.3-0.8c-0.2-0.2-0.4-0.3-0.7-0.3c-0.3,0-0.5,0.1-0.7,0.3
			c-0.2,0.2-0.3,0.4-0.3,0.8c0,0.3,0.1,0.6,0.3,0.8c0.2,0.2,0.4,0.3,0.7,0.3c0.3,0,0.5-0.1,0.7-0.3C490.8,73,490.9,72.8,490.9,72.5z
			 M490.8,69.3c0-0.3-0.1-0.5-0.2-0.7c-0.2-0.2-0.4-0.3-0.6-0.3c-0.3,0-0.5,0.1-0.6,0.3s-0.2,0.4-0.2,0.7c0,0.3,0.1,0.5,0.2,0.7
			c0.1,0.2,0.4,0.3,0.6,0.3c0.3,0,0.5-0.1,0.6-0.3C490.7,69.9,490.8,69.6,490.8,69.3z"/>
	</g>
	<g>
		<path fill="#FFFFFF" d="M403.4,80.9L403.4,80.9c-5.8,0-10.6-4.8-10.6-10.6v0c0-5.8,4.8-10.6,10.6-10.6h0c5.8,0,10.6,4.8,10.6,10.6
			v0C414,76.1,409.2,80.9,403.4,80.9z"/>
	</g>
	<g>
		<path fill="#36464E" d="M402.8,73.5c0.4,0,0.7-0.1,0.9-0.4c0.2-0.3,0.4-0.7,0.4-1.2v-0.4c-0.2,0.2-0.3,0.4-0.6,0.5
			c-0.2,0.1-0.5,0.2-0.7,0.2c-0.7,0-1.2-0.2-1.6-0.6c-0.4-0.4-0.6-1-0.6-1.8c0-0.7,0.2-1.3,0.7-1.8s1-0.7,1.7-0.7
			c0.7,0,1.3,0.3,1.8,0.7s0.7,1.2,0.7,2.1v1.7c0,0.9-0.3,1.5-0.8,2c-0.5,0.5-1.2,0.7-1.9,0.7c-0.2,0-0.5,0-0.8-0.1
			c-0.3-0.1-0.5-0.1-0.7-0.2l0.2-1c0.2,0.1,0.4,0.1,0.6,0.2C402.3,73.5,402.6,73.5,402.8,73.5z M403.1,71.1c0.2,0,0.4,0,0.6-0.1
			s0.3-0.2,0.4-0.4V70c0-0.5-0.1-0.9-0.3-1.2s-0.4-0.4-0.7-0.4c-0.3,0-0.5,0.1-0.7,0.4c-0.2,0.3-0.3,0.6-0.3,1c0,0.4,0.1,0.7,0.2,1
			C402.5,71,402.8,71.1,403.1,71.1z"/>
	</g>
	<g>
		<path fill="#FFFFFF" d="M318.6,80.9L318.6,80.9c-5.8,0-10.6-4.8-10.6-10.6v0c0-5.8,4.8-10.6,10.6-10.6h0c5.8,0,10.6,4.8,10.6,10.6
			v0C329.2,76.1,324.5,80.9,318.6,80.9z"/>
	</g>
	<g>
		<path fill="#36464E" d="M316.3,74.5h-1.4v-5.8h-1.4v-1l2.9-0.3V74.5z"/>
		<path fill="#36464E" d="M323.6,71.7c0,0.9-0.2,1.7-0.6,2.1c-0.4,0.5-1,0.7-1.8,0.7c-0.7,0-1.3-0.2-1.8-0.7s-0.6-1.2-0.6-2.1v-1.6
			c0-0.9,0.2-1.7,0.6-2.1c0.4-0.5,1-0.7,1.8-0.7c0.7,0,1.3,0.2,1.8,0.7c0.4,0.5,0.7,1.2,0.7,2.1V71.7z M322.1,70
			c0-0.6-0.1-1-0.3-1.2s-0.4-0.4-0.7-0.4c-0.3,0-0.6,0.1-0.7,0.4s-0.2,0.7-0.2,1.2v1.8c0,0.6,0.1,1,0.3,1.2c0.2,0.3,0.4,0.4,0.7,0.4
			c0.3,0,0.6-0.1,0.7-0.4s0.2-0.7,0.2-1.2V70z"/>
	</g>
	<g>
		<path fill="#FFFFFF" d="M233.6,80.9L233.6,80.9c-5.8,0-10.6-4.8-10.6-10.6v0c0-5.8,4.8-10.6,10.6-10.6h0c5.8,0,10.6,4.8,10.6,10.6
			v0C244.2,76.1,239.5,80.9,233.6,80.9z"/>
	</g>
	<g>
		<path fill="#36464E" d="M231.3,74.5h-1.4v-5.8h-1.4v-1l2.9-0.3V74.5z"/>
		<path fill="#36464E" d="M237,74.5h-1.4v-5.8h-1.4v-1l2.9-0.3V74.5z"/>
	</g>
	<g>
		<path fill="#FFFFFF" d="M146.1,80.9L146.1,80.9c-5.8,0-10.6-4.8-10.6-10.6v0c0-5.8,4.8-10.6,10.6-10.6h0c5.8,0,10.6,4.8,10.6,10.6
			v0C156.7,76.1,152,80.9,146.1,80.9z"/>
	</g>
	<g>
		<path fill="#36464E" d="M143.8,74.5h-1.4v-5.8h-1.4v-1l2.9-0.3V74.5z"/>
		<path fill="#36464E" d="M151.1,74.5h-4.9v-0.9l2.3-2.5c0.3-0.4,0.6-0.7,0.7-1s0.2-0.5,0.2-0.7c0-0.3-0.1-0.5-0.2-0.7
			c-0.2-0.2-0.4-0.3-0.7-0.3c-0.3,0-0.6,0.1-0.8,0.3c-0.2,0.2-0.3,0.5-0.3,0.9h-1.4l0,0c0-0.6,0.2-1.2,0.6-1.6
			c0.4-0.4,1-0.7,1.8-0.7c0.7,0,1.3,0.2,1.7,0.6c0.4,0.4,0.6,0.9,0.6,1.5c0,0.4-0.1,0.8-0.4,1.2c-0.2,0.4-0.6,0.8-1.2,1.4l-1.3,1.4
			l0,0h3V74.5z"/>
	</g>
	<g>
		<path fill="#FFFFFF" d="M60.9,80.9L60.9,80.9c-5.8,0-10.6-4.8-10.6-10.6v0c0-5.8,4.8-10.6,10.6-10.6h0c5.8,0,10.6,4.8,10.6,10.6v0
			C71.5,76.1,66.7,80.9,60.9,80.9z"/>
	</g>
	<g>
		<path fill="#36464E" d="M58.5,74.5h-1.4v-5.8h-1.4v-1l2.9-0.3V74.5z"/>
		<path fill="#36464E" d="M62.5,70.3h0.8c0.3,0,0.6-0.1,0.8-0.3s0.2-0.4,0.2-0.7c0-0.3-0.1-0.5-0.2-0.7s-0.4-0.3-0.7-0.3
			c-0.3,0-0.5,0.1-0.7,0.2s-0.3,0.4-0.3,0.6H61l0,0c0-0.6,0.2-1,0.6-1.4s1-0.5,1.7-0.5c0.7,0,1.3,0.2,1.8,0.5
			c0.4,0.4,0.7,0.9,0.7,1.5c0,0.3-0.1,0.6-0.3,0.9s-0.5,0.5-0.8,0.7c0.4,0.1,0.7,0.4,0.9,0.6c0.2,0.3,0.3,0.6,0.3,1
			c0,0.7-0.2,1.2-0.7,1.5c-0.5,0.4-1.1,0.6-1.8,0.6c-0.7,0-1.2-0.2-1.7-0.5c-0.5-0.4-0.7-0.8-0.7-1.5l0,0h1.4c0,0.3,0.1,0.5,0.3,0.7
			c0.2,0.2,0.4,0.3,0.7,0.3c0.3,0,0.6-0.1,0.8-0.3c0.2-0.2,0.3-0.4,0.3-0.7c0-0.4-0.1-0.6-0.3-0.8c-0.2-0.2-0.5-0.3-0.8-0.3h-0.8
			V70.3z"/>
	</g>
	<g>
		<path fill="#FFFFFF" d="M596.1,302L596.1,302c-5.8,0-10.6-4.8-10.6-10.6l0,0c0-5.8,4.8-10.6,10.6-10.6h0c5.8,0,10.6,4.8,10.6,10.6
			l0,0C606.7,297.2,601.9,302,596.1,302z"/>
	</g>
	<g>
		<path fill="#36464E" d="M593.7,295.6h-1.4v-5.8h-1.4v-1l2.9-0.3V295.6z"/>
		<path fill="#36464E" d="M598.3,294.6c0.4,0,0.7-0.1,0.9-0.4c0.2-0.3,0.4-0.7,0.4-1.2v-0.4c-0.2,0.2-0.3,0.4-0.6,0.5
			c-0.2,0.1-0.5,0.2-0.7,0.2c-0.7,0-1.2-0.2-1.6-0.6c-0.4-0.4-0.6-1-0.6-1.8c0-0.7,0.2-1.3,0.7-1.8c0.4-0.5,1-0.7,1.7-0.7
			c0.7,0,1.3,0.3,1.8,0.8c0.5,0.5,0.7,1.2,0.7,2.1v1.7c0,0.9-0.3,1.5-0.8,2c-0.5,0.5-1.2,0.7-1.9,0.7c-0.2,0-0.5,0-0.8-0.1
			c-0.3,0-0.5-0.1-0.7-0.2l0.2-1c0.2,0.1,0.4,0.1,0.6,0.2C597.8,294.6,598,294.6,598.3,294.6z M598.5,292.2c0.2,0,0.4,0,0.6-0.1
			s0.3-0.2,0.4-0.4v-0.7c0-0.5-0.1-0.9-0.3-1.2c-0.2-0.3-0.4-0.4-0.7-0.4c-0.3,0-0.5,0.1-0.7,0.4c-0.2,0.3-0.3,0.6-0.3,1
			c0,0.4,0.1,0.7,0.2,1C598,292.1,598.2,292.2,598.5,292.2z"/>
	</g>
	<g>
		<path fill="#FFFFFF" d="M684.1,302L684.1,302c-5.8,0-10.6-4.8-10.6-10.6l0,0c0-5.8,4.8-10.6,10.6-10.6h0c5.8,0,10.6,4.8,10.6,10.6
			l0,0C694.7,297.2,689.9,302,684.1,302z"/>
	</g>
	<g>
		<path fill="#36464E" d="M683.4,295.6h-4.9v-0.9l2.3-2.5c0.3-0.4,0.6-0.7,0.7-1c0.1-0.3,0.2-0.5,0.2-0.7c0-0.3-0.1-0.5-0.2-0.7
			c-0.2-0.2-0.4-0.3-0.7-0.3c-0.3,0-0.6,0.1-0.8,0.3c-0.2,0.2-0.3,0.5-0.3,0.9h-1.4l0,0c0-0.6,0.2-1.2,0.6-1.6
			c0.4-0.4,1-0.7,1.8-0.7c0.7,0,1.3,0.2,1.7,0.6c0.4,0.4,0.6,0.9,0.6,1.5c0,0.4-0.1,0.8-0.4,1.2c-0.2,0.4-0.6,0.8-1.2,1.4l-1.3,1.4
			l0,0h3V295.6z"/>
		<path fill="#36464E" d="M689,292.9c0,0.9-0.2,1.7-0.6,2.1c-0.4,0.5-1,0.7-1.8,0.7c-0.7,0-1.3-0.2-1.8-0.7
			c-0.4-0.5-0.6-1.2-0.6-2.1v-1.6c0-0.9,0.2-1.7,0.6-2.1c0.4-0.5,1-0.7,1.8-0.7c0.7,0,1.3,0.2,1.8,0.7c0.4,0.5,0.7,1.2,0.7,2.1
			V292.9z M687.6,291.1c0-0.6-0.1-1-0.3-1.2s-0.4-0.4-0.7-0.4c-0.3,0-0.6,0.1-0.7,0.4c-0.2,0.3-0.2,0.7-0.2,1.2v1.8
			c0,0.6,0.1,1,0.3,1.2c0.2,0.3,0.4,0.4,0.7,0.4c0.3,0,0.6-0.1,0.7-0.4c0.2-0.3,0.2-0.7,0.2-1.2V291.1z"/>
	</g>
	<g>
		<path fill="#FFFFFF" d="M771.6,302L771.6,302c-5.8,0-10.6-4.8-10.6-10.6l0,0c0-5.8,4.8-10.6,10.6-10.6h0c5.8,0,10.6,4.8,10.6,10.6
			l0,0C782.2,297.2,777.4,302,771.6,302z"/>
	</g>
	<g>
		<path fill="#36464E" d="M770.9,295.6H766v-0.9l2.3-2.5c0.3-0.4,0.6-0.7,0.7-1c0.1-0.3,0.2-0.5,0.2-0.7c0-0.3-0.1-0.5-0.2-0.7
			c-0.2-0.2-0.4-0.3-0.7-0.3c-0.3,0-0.6,0.1-0.8,0.3c-0.2,0.2-0.3,0.5-0.3,0.9h-1.4l0,0c0-0.6,0.2-1.2,0.6-1.6
			c0.4-0.4,1-0.7,1.8-0.7c0.7,0,1.3,0.2,1.7,0.6c0.4,0.4,0.6,0.9,0.6,1.5c0,0.4-0.1,0.8-0.4,1.2c-0.2,0.4-0.6,0.8-1.2,1.4l-1.3,1.4
			l0,0h3V295.6z"/>
		<path fill="#36464E" d="M775,295.6h-1.4v-5.8h-1.4v-1l2.9-0.3V295.6z"/>
	</g>
	<g>
		<path fill="#FFFFFF" d="M859.4,302L859.4,302c-5.8,0-10.6-4.8-10.6-10.6l0,0c0-5.8,4.8-10.6,10.6-10.6h0c5.8,0,10.6,4.8,10.6,10.6
			l0,0C870,297.2,865.2,302,859.4,302z"/>
	</g>
	<g>
		<path fill="#36464E" d="M858.6,295.6h-4.9v-0.9l2.3-2.5c0.3-0.4,0.6-0.7,0.7-1c0.1-0.3,0.2-0.5,0.2-0.7c0-0.3-0.1-0.5-0.2-0.7
			c-0.2-0.2-0.4-0.3-0.7-0.3c-0.3,0-0.6,0.1-0.8,0.3c-0.2,0.2-0.3,0.5-0.3,0.9h-1.4l0,0c0-0.6,0.2-1.2,0.6-1.6
			c0.4-0.4,1-0.7,1.8-0.7c0.7,0,1.3,0.2,1.7,0.6c0.4,0.4,0.6,0.9,0.6,1.5c0,0.4-0.1,0.8-0.4,1.2c-0.2,0.4-0.6,0.8-1.2,1.4l-1.3,1.4
			l0,0h3V295.6z"/>
		<path fill="#36464E" d="M864.3,295.6h-4.9v-0.9l2.3-2.5c0.3-0.4,0.6-0.7,0.7-1c0.1-0.3,0.2-0.5,0.2-0.7c0-0.3-0.1-0.5-0.2-0.7
			c-0.2-0.2-0.4-0.3-0.7-0.3c-0.3,0-0.6,0.1-0.8,0.3c-0.2,0.2-0.3,0.5-0.3,0.9h-1.4l0,0c0-0.6,0.2-1.2,0.6-1.6
			c0.4-0.4,1-0.7,1.8-0.7c0.7,0,1.3,0.2,1.7,0.6c0.4,0.4,0.6,0.9,0.6,1.5c0,0.4-0.1,0.8-0.4,1.2c-0.2,0.4-0.6,0.8-1.2,1.4l-1.3,1.4
			l0,0h3V295.6z"/>
	</g>
	<g>
		<path fill="#FFFFFF" d="M946.6,302L946.6,302c-5.8,0-10.6-4.8-10.6-10.6l0,0c0-5.8,4.8-10.6,10.6-10.6h0c5.8,0,10.6,4.8,10.6,10.6
			l0,0C957.2,297.2,952.4,302,946.6,302z"/>
	</g>
	<g>
		<path fill="#36464E" d="M945.9,295.6H941v-0.9l2.3-2.5c0.3-0.4,0.6-0.7,0.7-1c0.1-0.3,0.2-0.5,0.2-0.7c0-0.3-0.1-0.5-0.2-0.7
			c-0.2-0.2-0.4-0.3-0.7-0.3c-0.3,0-0.6,0.1-0.8,0.3c-0.2,0.2-0.3,0.5-0.3,0.9h-1.4l0,0c0-0.6,0.2-1.2,0.6-1.6
			c0.4-0.4,1-0.7,1.8-0.7c0.7,0,1.3,0.2,1.7,0.6c0.4,0.4,0.6,0.9,0.6,1.5c0,0.4-0.1,0.8-0.4,1.2c-0.2,0.4-0.6,0.8-1.2,1.4l-1.3,1.4
			l0,0h3V295.6z"/>
		<path fill="#36464E" d="M948.2,291.5h0.8c0.3,0,0.6-0.1,0.8-0.3c0.2-0.2,0.2-0.4,0.2-0.7c0-0.3-0.1-0.5-0.2-0.7
			c-0.2-0.2-0.4-0.3-0.7-0.3c-0.3,0-0.5,0.1-0.7,0.2s-0.3,0.4-0.3,0.6h-1.4l0,0c0-0.6,0.2-1,0.6-1.4s1-0.5,1.7-0.5
			c0.7,0,1.3,0.2,1.8,0.5c0.4,0.4,0.7,0.9,0.7,1.5c0,0.3-0.1,0.6-0.3,0.9s-0.5,0.5-0.8,0.7c0.4,0.1,0.7,0.4,0.9,0.6
			c0.2,0.3,0.3,0.6,0.3,1c0,0.7-0.2,1.2-0.7,1.5c-0.5,0.4-1.1,0.6-1.8,0.6c-0.7,0-1.2-0.2-1.7-0.5c-0.5-0.4-0.7-0.8-0.7-1.5l0,0h1.4
			c0,0.3,0.1,0.5,0.3,0.7s0.4,0.3,0.7,0.3c0.3,0,0.6-0.1,0.8-0.3c0.2-0.2,0.3-0.4,0.3-0.7c0-0.4-0.1-0.6-0.3-0.8
			c-0.2-0.2-0.5-0.3-0.8-0.3h-0.8V291.5z"/>
	</g>
	<g>
		<path fill="#FFFFFF" d="M1033.9,302L1033.9,302c-5.8,0-10.6-4.8-10.6-10.6l0,0c0-5.8,4.8-10.6,10.6-10.6l0,0
			c5.8,0,10.6,4.8,10.6,10.6l0,0C1044.5,297.2,1039.7,302,1033.9,302z"/>
	</g>
	<g>
		<path fill="#36464E" d="M1033.1,295.6h-4.9v-0.9l2.3-2.5c0.3-0.4,0.6-0.7,0.7-1c0.1-0.3,0.2-0.5,0.2-0.7c0-0.3-0.1-0.5-0.2-0.7
			c-0.2-0.2-0.4-0.3-0.7-0.3c-0.3,0-0.6,0.1-0.8,0.3c-0.2,0.2-0.3,0.5-0.3,0.9h-1.4l0,0c0-0.6,0.2-1.2,0.6-1.6
			c0.4-0.4,1-0.7,1.8-0.7c0.7,0,1.3,0.2,1.7,0.6c0.4,0.4,0.6,0.9,0.6,1.5c0,0.4-0.1,0.8-0.4,1.2c-0.2,0.4-0.6,0.8-1.2,1.4l-1.3,1.4
			l0,0h3V295.6z"/>
		<path fill="#36464E" d="M1038.2,293h0.8v1.1h-0.8v1.5h-1.4v-1.5h-2.9l-0.1-0.9l2.9-4.7h1.4V293z M1035.1,293h1.6v-2.6l0,0
			l-0.1,0.2L1035.1,293z"/>
	</g>
	<g>
		<path fill="#FFFFFF" d="M1122.1,302L1122.1,302c-5.8,0-10.6-4.8-10.6-10.6l0,0c0-5.8,4.8-10.6,10.6-10.6l0,0
			c5.8,0,10.6,4.8,10.6,10.6l0,0C1132.7,297.2,1127.9,302,1122.1,302z"/>
	</g>
	<g>
		<path fill="#36464E" d="M1121.4,295.6h-4.9v-0.9l2.3-2.5c0.3-0.4,0.6-0.7,0.7-1c0.1-0.3,0.2-0.5,0.2-0.7c0-0.3-0.1-0.5-0.2-0.7
			c-0.2-0.2-0.4-0.3-0.7-0.3c-0.3,0-0.6,0.1-0.8,0.3c-0.2,0.2-0.3,0.5-0.3,0.9h-1.4l0,0c0-0.6,0.2-1.2,0.6-1.6
			c0.4-0.4,1-0.7,1.8-0.7c0.7,0,1.3,0.2,1.7,0.6c0.4,0.4,0.6,0.9,0.6,1.5c0,0.4-0.1,0.8-0.4,1.2c-0.2,0.4-0.6,0.8-1.2,1.4l-1.3,1.4
			l0,0h3V295.6z"/>
		<path fill="#36464E" d="M1122.4,292.5l0.4-4h4v1.1h-2.8l-0.2,1.6c0.1-0.1,0.3-0.2,0.5-0.2s0.4-0.1,0.6-0.1c0.7,0,1.2,0.2,1.6,0.6
			c0.4,0.4,0.6,1,0.6,1.8c0,0.7-0.2,1.3-0.6,1.7c-0.4,0.5-1,0.7-1.8,0.7c-0.7,0-1.2-0.2-1.7-0.5c-0.5-0.4-0.7-0.8-0.7-1.5l0,0
			l1.4-0.1c0,0.3,0.1,0.6,0.3,0.7c0.2,0.2,0.4,0.3,0.7,0.3c0.3,0,0.6-0.1,0.7-0.4c0.2-0.2,0.2-0.5,0.2-0.9c0-0.4-0.1-0.7-0.3-1
			c-0.2-0.2-0.4-0.4-0.8-0.4c-0.3,0-0.5,0.1-0.6,0.2c-0.1,0.1-0.2,0.2-0.3,0.4L1122.4,292.5z"/>
	</g>
	<g>
		<path fill="#FFFFFF" d="M493.1,302L493.1,302c-5.8,0-10.6-4.8-10.6-10.6l0,0c0-5.8,4.8-10.6,10.6-10.6h0c5.8,0,10.6,4.8,10.6,10.6
			l0,0C503.7,297.2,498.9,302,493.1,302z"/>
	</g>
	<g>
		<path fill="#36464E" d="M490.7,295.6h-1.4v-5.8h-1.4v-1l2.9-0.3V295.6z"/>
		<path fill="#36464E" d="M497.9,290.4c0,0.4-0.1,0.7-0.3,0.9c-0.2,0.3-0.4,0.5-0.8,0.6c0.4,0.2,0.7,0.4,0.9,0.7
			c0.2,0.3,0.3,0.6,0.3,1c0,0.7-0.2,1.2-0.7,1.5c-0.4,0.4-1,0.5-1.7,0.5c-0.7,0-1.3-0.2-1.8-0.5c-0.4-0.4-0.7-0.9-0.7-1.5
			c0-0.4,0.1-0.7,0.3-1c0.2-0.3,0.5-0.5,0.9-0.7c-0.3-0.2-0.6-0.4-0.8-0.6c-0.2-0.3-0.3-0.6-0.3-0.9c0-0.6,0.2-1.1,0.6-1.5
			s1-0.5,1.6-0.5c0.7,0,1.2,0.2,1.6,0.5S497.9,289.8,497.9,290.4z M496.6,293.6c0-0.3-0.1-0.6-0.3-0.8c-0.2-0.2-0.4-0.3-0.7-0.3
			c-0.3,0-0.5,0.1-0.7,0.3c-0.2,0.2-0.3,0.4-0.3,0.8c0,0.3,0.1,0.6,0.3,0.8c0.2,0.2,0.4,0.3,0.7,0.3c0.3,0,0.5-0.1,0.7-0.3
			S496.6,293.9,496.6,293.6z M496.5,290.5c0-0.3-0.1-0.5-0.2-0.7c-0.2-0.2-0.4-0.3-0.6-0.3c-0.3,0-0.5,0.1-0.6,0.3s-0.2,0.4-0.2,0.7
			c0,0.3,0.1,0.5,0.2,0.7c0.1,0.2,0.4,0.3,0.6,0.3c0.3,0,0.5-0.1,0.6-0.3C496.4,291,496.5,290.8,496.5,290.5z"/>
	</g>
	<g>
		<path fill="#FFFFFF" d="M405.6,302L405.6,302c-5.8,0-10.6-4.8-10.6-10.6l0,0c0-5.8,4.8-10.6,10.6-10.6h0c5.8,0,10.6,4.8,10.6,10.6
			l0,0C416.2,297.2,411.4,302,405.6,302z"/>
	</g>
	<g>
		<path fill="#36464E" d="M403.2,295.6h-1.4v-5.8h-1.4v-1l2.9-0.3V295.6z"/>
		<path fill="#36464E" d="M410.6,289.6c-0.8,0.9-1.3,1.7-1.6,2.5c-0.3,0.8-0.5,1.7-0.6,2.8l-0.1,0.7h-1.4l0.1-0.7
			c0.1-1,0.3-2,0.7-2.9s0.9-1.7,1.5-2.4h-3.7v-1.1h5V289.6z"/>
	</g>
	<g>
		<path fill="#FFFFFF" d="M318.4,302L318.4,302c-5.8,0-10.6-4.8-10.6-10.6l0,0c0-5.8,4.8-10.6,10.6-10.6h0c5.8,0,10.6,4.8,10.6,10.6
			l0,0C329,297.2,324.2,302,318.4,302z"/>
	</g>
	<g>
		<path fill="#36464E" d="M316,295.6h-1.4v-5.8h-1.4v-1l2.9-0.3V295.6z"/>
		<path fill="#36464E" d="M321.3,288.4c0.3,0,0.5,0,0.7,0.1c0.2,0,0.5,0.1,0.7,0.2l-0.3,1c-0.2-0.1-0.4-0.1-0.6-0.2
			c-0.2,0-0.4-0.1-0.6-0.1c-0.4,0-0.8,0.2-1,0.5c-0.3,0.3-0.4,0.8-0.4,1.3l0,0c0.2-0.2,0.4-0.3,0.6-0.4c0.2-0.1,0.5-0.1,0.8-0.1
			c0.6,0,1.1,0.2,1.5,0.7c0.4,0.5,0.5,1,0.5,1.7c0,0.7-0.2,1.3-0.7,1.8c-0.4,0.5-1,0.7-1.7,0.7c-0.8,0-1.4-0.3-1.8-0.8
			c-0.5-0.5-0.7-1.2-0.7-2.1v-1.4c0-0.9,0.3-1.7,0.8-2.2C319.8,288.7,320.5,288.4,321.3,288.4z M321,291.9c-0.3,0-0.5,0-0.7,0.1
			c-0.2,0.1-0.3,0.2-0.4,0.3v0.5c0,0.6,0.1,1,0.3,1.3c0.2,0.3,0.5,0.5,0.8,0.5c0.3,0,0.5-0.1,0.7-0.4c0.2-0.3,0.3-0.6,0.3-1
			c0-0.4-0.1-0.7-0.3-1C321.6,292.1,321.3,291.9,321,291.9z"/>
	</g>
	<g>
		<path fill="#FFFFFF" d="M232.6,302L232.6,302c-5.8,0-10.6-4.8-10.6-10.6l0,0c0-5.8,4.8-10.6,10.6-10.6h0c5.8,0,10.6,4.8,10.6,10.6
			l0,0C243.2,297.2,238.4,302,232.6,302z"/>
	</g>
	<g>
		<path fill="#36464E" d="M230.2,295.6h-1.4v-5.8h-1.4v-1l2.9-0.3V295.6z"/>
		<path fill="#36464E" d="M232.9,292.5l0.4-4h4v1.1h-2.8l-0.2,1.6c0.1-0.1,0.3-0.2,0.5-0.2s0.4-0.1,0.6-0.1c0.7,0,1.2,0.2,1.6,0.6
			c0.4,0.4,0.6,1,0.6,1.8c0,0.7-0.2,1.3-0.6,1.7c-0.4,0.5-1,0.7-1.8,0.7c-0.7,0-1.2-0.2-1.7-0.5c-0.5-0.4-0.7-0.8-0.7-1.5l0,0
			l1.4-0.1c0,0.3,0.1,0.6,0.3,0.7c0.2,0.2,0.4,0.3,0.7,0.3c0.3,0,0.6-0.1,0.7-0.4c0.2-0.2,0.2-0.5,0.2-0.9c0-0.4-0.1-0.7-0.3-1
			c-0.2-0.2-0.4-0.4-0.8-0.4c-0.3,0-0.5,0.1-0.6,0.2c-0.1,0.1-0.2,0.2-0.3,0.4L232.9,292.5z"/>
	</g>
	<g>
		<path fill="#FFFFFF" d="M145.4,302L145.4,302c-5.8,0-10.6-4.8-10.6-10.6l0,0c0-5.8,4.8-10.6,10.6-10.6h0c5.8,0,10.6,4.8,10.6,10.6
			l0,0C156,297.2,151.2,302,145.4,302z"/>
	</g>
	<g>
		<path fill="#36464E" d="M143,295.6h-1.4v-5.8h-1.4v-1l2.9-0.3V295.6z"/>
		<path fill="#36464E" d="M149.7,293h0.8v1.1h-0.8v1.5h-1.4v-1.5h-2.9l-0.1-0.9l2.9-4.7h1.4V293z M146.6,293h1.6v-2.6l0,0l-0.1,0.2
			L146.6,293z"/>
	</g>
	<g>
		<path fill="#B0BEC5" d="M1178,336.3c0,1.4-1.1,2.7-2.5,2.7H12.5c-1.4,0-2.5-1.3-2.5-2.7V217H9v119.3c0,1.9,1.6,3.7,3.5,3.7h1163
			c1.9,0,3.5-1.7,3.5-3.7V217h-1V336.3z"/>
		<path fill="#B0BEC5" d="M1175.5,8H12.5C10.6,8,9,9.4,9,11.3V179h1V11.3C10,9.9,11.2,9,12.5,9h1163c1.4,0,2.5,0.9,2.5,2.3V179h1
			V11.3C1179,9.4,1177.5,8,1175.5,8z"/>
	</g>
	<g>
		<g>
			<path fill="#90A4AE" d="M60.9,196.6c0,0.5-0.1,0.9-0.3,1.2c-0.2,0.4-0.5,0.7-0.8,0.9c-0.3,0.2-0.7,0.4-1.1,0.6
				c-0.4,0.1-0.8,0.2-1.3,0.2h-1l-0.6,2.5c0,0,0,0.1,0,0.1c0,0,0,0.1,0,0.1c0,0.1,0,0.2,0,0.2c0,0.1,0.1,0.1,0.2,0.2
				c0.1,0,0.2,0.1,0.3,0.1c0.2,0,0.3,0,0.5,0l-0.1,0.4h-3.4l0.1-0.4c0.1,0,0.2,0,0.4,0c0.2,0,0.3,0,0.4-0.1c0.1-0.1,0.2-0.1,0.3-0.2
				s0.1-0.2,0.1-0.3l1.3-5.8c0,0,0-0.1,0-0.1s0-0.1,0-0.1c0-0.1,0-0.2,0-0.2c0-0.1-0.1-0.1-0.2-0.1c-0.1,0-0.2-0.1-0.4-0.1
				c-0.1,0-0.3,0-0.4,0l0.1-0.4h3.6c0.6,0,1.2,0.1,1.6,0.4C60.7,195.7,60.9,196.1,60.9,196.6z M59.1,198.1c0.2-0.2,0.3-0.5,0.3-0.7
				c0.1-0.3,0.1-0.5,0.1-0.7c0-0.2,0-0.3-0.1-0.5c0-0.2-0.1-0.3-0.2-0.4c-0.1-0.1-0.3-0.2-0.4-0.3c-0.2-0.1-0.4-0.1-0.7-0.1h-0.7
				l-0.8,3.6h0.6c0.4,0,0.8-0.1,1.1-0.2C58.7,198.6,58.9,198.4,59.1,198.1z"/>
			<path fill="#90A4AE" d="M64.5,202.2L64.5,202.2c-0.1,0.1-0.2,0.2-0.3,0.3c-0.1,0.1-0.2,0.2-0.4,0.3c-0.1,0.1-0.3,0.2-0.5,0.2
				c-0.2,0.1-0.4,0.1-0.6,0.1c-0.5,0-1-0.2-1.3-0.6c-0.3-0.4-0.5-0.9-0.5-1.6c0-0.5,0.1-0.9,0.3-1.4c0.2-0.4,0.4-0.8,0.7-1.2
				c0.3-0.3,0.6-0.6,1-0.8c0.4-0.2,0.8-0.3,1.2-0.3c0.3,0,0.5,0,0.8,0.1c0.2,0.1,0.4,0.2,0.6,0.2l1-0.3l0.1,0.1l-0.9,3.6
				c0,0.1-0.1,0.3-0.1,0.4c0,0.2,0,0.3,0,0.4c0,0.2,0,0.4,0.1,0.4c0.1,0.1,0.2,0.1,0.5,0.1c0.1,0,0.2,0,0.3,0c0.1,0,0.2,0,0.3-0.1
				l-0.1,0.4c-0.3,0.1-0.6,0.2-0.8,0.3c-0.2,0.1-0.4,0.1-0.6,0.1c-0.3,0-0.5-0.1-0.6-0.2S64.5,202.5,64.5,202.2z M65.3,198.7
				c0-0.1,0-0.2,0-0.4s-0.1-0.2-0.2-0.3c-0.1-0.1-0.2-0.2-0.3-0.2s-0.3-0.1-0.5-0.1c-0.3,0-0.5,0.1-0.8,0.3
				c-0.3,0.2-0.5,0.4-0.7,0.7c-0.2,0.3-0.4,0.6-0.5,1c-0.1,0.4-0.2,0.8-0.2,1.2c0,0.2,0,0.4,0,0.6c0,0.2,0.1,0.3,0.2,0.5
				c0.1,0.1,0.2,0.3,0.3,0.3s0.3,0.1,0.5,0.1c0.2,0,0.4-0.1,0.7-0.2c0.2-0.1,0.5-0.3,0.8-0.6L65.3,198.7z"/>
			<path fill="#90A4AE" d="M70.7,202.9c-0.1-1-0.2-1.7-0.2-2.3c-0.1-0.6-0.2-1.2-0.3-1.9h-0.1c-0.2,0.8-0.3,1.5-0.6,2.1
				c-0.2,0.6-0.5,1-0.7,1.4c-0.2,0.3-0.5,0.6-0.7,0.7s-0.4,0.2-0.6,0.2c-0.2,0-0.4-0.1-0.4-0.2c-0.1-0.1-0.1-0.3-0.1-0.4
				c0-0.1,0.1-0.3,0.2-0.4s0.3-0.2,0.5-0.2c0.1,0,0.2,0,0.3,0.1c0.1,0,0.2,0.1,0.4,0.2c0.4-0.5,0.7-1.2,1-2c0.3-0.8,0.4-1.5,0.4-2.2
				h-1l0.1-0.4l1.9-0.1c0.2,0.6,0.4,1.3,0.5,1.9c0.1,0.7,0.2,1.4,0.3,2.2l2.6-4l1-0.1l0.1,0.1l-0.8,3.6c0,0.1-0.1,0.3-0.1,0.4
				c0,0.2,0,0.3,0,0.4c0,0.2,0,0.4,0.1,0.4c0.1,0.1,0.2,0.1,0.5,0.1c0.1,0,0.2,0,0.3,0c0.1,0,0.2,0,0.3-0.1l-0.1,0.4
				c-0.3,0.1-0.6,0.2-0.8,0.3c-0.2,0.1-0.4,0.1-0.6,0.1c-0.3,0-0.5-0.1-0.7-0.2c-0.1-0.2-0.2-0.3-0.2-0.6c0-0.1,0-0.2,0-0.3
				c0-0.1,0-0.2,0.1-0.4l0.7-3.1l-0.1,0l-2.9,4.4H70.7z"/>
			<path fill="#90A4AE" d="M82.2,202.3l-0.1,0.4c-0.3,0.1-0.6,0.2-0.8,0.3c-0.2,0.1-0.4,0.1-0.6,0.1c-0.3,0-0.5-0.1-0.7-0.2
				c-0.2-0.2-0.2-0.3-0.2-0.6c0-0.1,0-0.2,0-0.3c0-0.1,0-0.2,0.1-0.4l0.6-2.1c0-0.2,0.1-0.3,0.1-0.4c0-0.1,0-0.2,0-0.3
				c0-0.3-0.1-0.5-0.2-0.6c-0.1-0.1-0.3-0.2-0.5-0.2c-0.2,0-0.5,0.1-0.8,0.2s-0.5,0.4-0.8,0.7l-1,4.1h-1.1l0.8-3.7
				c0-0.1,0-0.2,0.1-0.4s0.1-0.3,0.1-0.4c0-0.2,0-0.4-0.1-0.4S77,198,76.8,198c-0.1,0-0.2,0-0.3,0c-0.1,0-0.2,0.1-0.3,0.1l0.1-0.4
				c0.3-0.1,0.6-0.2,0.8-0.3c0.2-0.1,0.4-0.1,0.6-0.1c0.3,0,0.5,0.1,0.6,0.2c0.1,0.2,0.2,0.4,0.2,0.7h0c0.4-0.3,0.8-0.6,1.1-0.7
				s0.6-0.2,1-0.2c0.4,0,0.6,0.1,0.8,0.3c0.2,0.2,0.3,0.5,0.3,0.8c0,0.1,0,0.2,0,0.4c0,0.2-0.1,0.3-0.1,0.5l-0.5,1.8
				c0,0.1-0.1,0.3-0.1,0.4c0,0.2,0,0.3,0,0.4c0,0.2,0,0.4,0.1,0.4c0.1,0.1,0.2,0.1,0.5,0.1c0.1,0,0.2,0,0.3,0
				C82.1,202.4,82.2,202.4,82.2,202.3z"/>
			<path fill="#90A4AE" d="M86.5,202.2L86.5,202.2c-0.1,0.1-0.2,0.2-0.3,0.3c-0.1,0.1-0.2,0.2-0.4,0.3c-0.1,0.1-0.3,0.2-0.5,0.2
				c-0.2,0.1-0.4,0.1-0.6,0.1c-0.5,0-1-0.2-1.3-0.6c-0.3-0.4-0.5-0.9-0.5-1.6c0-0.5,0.1-0.9,0.3-1.4c0.2-0.4,0.4-0.8,0.7-1.2
				c0.3-0.3,0.6-0.6,1-0.8c0.4-0.2,0.8-0.3,1.2-0.3c0.3,0,0.5,0,0.8,0.1c0.2,0.1,0.4,0.2,0.6,0.2l1-0.3l0.1,0.1l-0.9,3.6
				c0,0.1-0.1,0.3-0.1,0.4c0,0.2,0,0.3,0,0.4c0,0.2,0,0.4,0.1,0.4c0.1,0.1,0.2,0.1,0.5,0.1c0.1,0,0.2,0,0.3,0c0.1,0,0.2,0,0.3-0.1
				l-0.1,0.4c-0.3,0.1-0.6,0.2-0.8,0.3c-0.2,0.1-0.4,0.1-0.6,0.1c-0.3,0-0.5-0.1-0.6-0.2S86.5,202.5,86.5,202.2z M87.3,198.7
				c0-0.1,0-0.2,0-0.4s-0.1-0.2-0.2-0.3c-0.1-0.1-0.2-0.2-0.3-0.2s-0.3-0.1-0.5-0.1c-0.3,0-0.5,0.1-0.8,0.3
				c-0.3,0.2-0.5,0.4-0.7,0.7c-0.2,0.3-0.4,0.6-0.5,1c-0.1,0.4-0.2,0.8-0.2,1.2c0,0.2,0,0.4,0,0.6c0,0.2,0.1,0.3,0.2,0.5
				c0.1,0.1,0.2,0.3,0.3,0.3s0.3,0.1,0.5,0.1c0.2,0,0.4-0.1,0.7-0.2c0.2-0.1,0.5-0.3,0.8-0.6L87.3,198.7z"/>
		</g>
		<g>
			<g>
				<rect x="28.5" y="198.6" fill="#90A4AE" width="15.2" height="1"/>
			</g>
			<g>
				<g>
					<path fill="#90A4AE" d="M36.8,203.9c-0.1-0.2-0.1-0.5,0.2-0.7l6.5-4.1L37,195c-0.2-0.1-0.3-0.5-0.2-0.7s0.5-0.3,0.7-0.2
						l7.1,4.5c0.1,0.1,0.2,0.3,0.2,0.4s-0.1,0.3-0.2,0.4l-7.1,4.5c-0.1,0.1-0.2,0.1-0.3,0.1C37.1,204.2,36.9,204.1,36.8,203.9z"/>
				</g>
			</g>
		</g>
	</g>
</g>
</svg>
