<?xml version="1.0" encoding="utf-8"?>
<!-- Generator: Adobe Illustrator 18.0.0, SVG Export Plug-In . SVG Version: 6.00 Build 0)  -->
<!DOCTYPE svg PUBLIC "-//W3C//DTD SVG 1.1//EN" "http://www.w3.org/Graphics/SVG/1.1/DTD/svg11.dtd">
<svg version="1.1" id="Layer_1" xmlns="http://www.w3.org/2000/svg" xmlns:xlink="http://www.w3.org/1999/xlink" x="0px" y="0px"
	 width="1034.8px" height="358px" viewBox="0 0 1034.8 358" enable-background="new 0 0 1034.8 358" xml:space="preserve">



<!--     П А В І Л Ь Й О Н И     -->



<g class="pavilion" data-pavilion-id="13">
	<path d="M257.4,325.6H163c-1.8,0-3.2-1.3-3.2-3V196.8c0-1.7,1.4-3,3.2-3h94.4c1.8,0,3.2,1.3,3.2,3v125.9
				C260.6,324.3,259.1,325.6,257.4,325.6z"/>
</g>
<g class="pavilion" data-pavilion-id="14">
	<path d="M380.3,325.6h-94.4c-1.8,0-3.2-1.3-3.2-3V196.8c0-1.7,1.4-3,3.2-3h94.4c1.8,0,3.2,1.3,3.2,3v125.9
				C383.5,324.3,382.1,325.6,380.3,325.6z"/>
</g>
<g class="pavilion" data-pavilion-id="15">
	<path d="M503.2,325.6h-94.4c-1.8,0-3.2-1.3-3.2-3V196.8c0-1.7,1.4-3,3.2-3h94.4c1.8,0,3.2,1.3,3.2,3v125.9
				C506.4,324.3,504.9,325.6,503.2,325.6z"/>
</g>
<g class="pavilion" data-pavilion-id="16">
	<path d="M626.1,325.6h-94.4c-1.8,0-3.2-1.3-3.2-3V196.8c0-1.7,1.4-3,3.2-3h94.4c1.8,0,3.2,1.3,3.2,3v125.9
				C629.3,324.3,627.9,325.6,626.1,325.6z"/>
</g>
<g class="pavilion" data-pavilion-id="17">
	<path d="M749,325.6h-94.4c-1.8,0-3.2-1.3-3.2-3V196.8c0-1.7,1.4-3,3.2-3H749c1.8,0,3.2,1.3,3.2,3v125.9
				C752.2,324.3,750.8,325.6,749,325.6z"/>
</g>
<g class="pavilion" data-pavilion-id="18">
	<path d="M871.9,325.6h-94.4c-1.8,0-3.2-1.3-3.2-3V196.8c0-1.7,1.4-3,3.2-3h94.4c1.8,0,3.2,1.3,3.2,3v125.9
				C875.1,324.3,873.7,325.6,871.9,325.6z"/>
</g>
<g class="pavilion" data-pavilion-id="19">
	<path d="M994.8,325.6h-94.4c-1.8,0-3.2-1.3-3.2-3V196.8c0-1.7,1.4-3,3.2-3h94.4c1.8,0,3.2,1.3,3.2,3v125.9
				C998,324.3,996.5,325.6,994.8,325.6z"/>
</g>
<g class="pavilion" data-pavilion-id="1">
	<path d="M993.1,127.7h-53c-1.7,0-3-1.3-3-3V30.1c0-1.7,1.3-3,3-3h53c1.7,0,3,1.3,3,3v94.6
				C996.1,126.4,994.8,127.7,993.1,127.7z"/>
</g>
<g class="pavilion" data-pavilion-id="2">
	<path d="M911.3,127.7h-53c-1.7,0-3-1.3-3-3V30.1c0-1.7,1.3-3,3-3h53c1.7,0,3,1.3,3,3v94.6
				C914.3,126.4,912.9,127.7,911.3,127.7z"/>
</g>
<g class="pavilion" data-pavilion-id="3">
	<path d="M829.4,127.7h-53c-1.7,0-3-1.3-3-3V30.1c0-1.7,1.3-3,3-3h53c1.7,0,3,1.3,3,3v94.6
				C832.4,126.4,831.1,127.7,829.4,127.7z"/>
</g>
<g class="pavilion" data-pavilion-id="4">
	<path d="M747.5,127.7h-53c-1.7,0-3-1.3-3-3V30.1c0-1.7,1.3-3,3-3h53c1.7,0,3,1.3,3,3v94.6
				C750.5,126.4,749.2,127.7,747.5,127.7z"/>
</g>
<g class="pavilion" data-pavilion-id="5">
	<path d="M665.7,127.7h-53c-1.7,0-3-1.3-3-3V30.1c0-1.7,1.3-3,3-3h53c1.7,0,3,1.3,3,3v94.6
				C668.7,126.4,667.3,127.7,665.7,127.7z"/>
</g>
<g class="pavilion" data-pavilion-id="6">
	<path d="M583.8,127.7h-53c-1.7,0-3-1.3-3-3V30.1c0-1.7,1.3-3,3-3h53c1.7,0,3,1.3,3,3v94.6
				C586.8,126.4,585.4,127.7,583.8,127.7z"/>
</g>
<g class="pavilion" data-pavilion-id="7">
	<path d="M501.9,127.7h-53c-1.7,0-3-1.3-3-3V30.1c0-1.7,1.3-3,3-3h53c1.7,0,3,1.3,3,3v94.6
				C504.9,126.4,503.6,127.7,501.9,127.7z"/>
</g>
<g class="pavilion" data-pavilion-id="8">
	<path d="M420.1,127.7h-53c-1.7,0-3-1.3-3-3V30.1c0-1.7,1.3-3,3-3h53c1.7,0,3,1.3,3,3v94.6
				C423.1,126.4,421.7,127.7,420.1,127.7z"/>
</g>
<g class="pavilion" data-pavilion-id="9">
	<path d="M338.2,127.7h-53c-1.7,0-3-1.3-3-3V30.1c0-1.7,1.3-3,3-3h53c1.7,0,3,1.3,3,3v94.6
				C341.2,126.4,339.8,127.7,338.2,127.7z"/>
</g>
<g class="pavilion" data-pavilion-id="10">
	<path d="M256.3,127.7h-53c-1.7,0-3-1.3-3-3V30.1c0-1.7,1.3-3,3-3h53c1.7,0,3,1.3,3,3v94.6
				C259.3,126.4,258,127.7,256.3,127.7z"/>
</g>
<g class="pavilion" data-pavilion-id="11">
	<path d="M174.4,127.7h-53c-1.7,0-3-1.3-3-3V30.1c0-1.7,1.3-3,3-3h53c1.7,0,3,1.3,3,3v94.6
				C177.4,126.4,176.1,127.7,174.4,127.7z"/>
</g>
<g class="pavilion" data-pavilion-id="12">
	<path d="M92.6,127.7h-53c-1.7,0-3-1.3-3-3V30.1c0-1.7,1.3-3,3-3h53c1.7,0,3,1.3,3,3v94.6
				C95.6,126.4,94.2,127.7,92.6,127.7z"/>
</g>



<!--     П І Д П И С И     В С І Х     П А В І Л Ь Й О Н І В -->



<g class="signatures">
	<g>
		<g>
			<g>
				<path fill="#E6E7E8" d="M134.5,325.6H40.1c-1.8,0-3.2-1.3-3.2-3V196.8c0-1.7,1.4-3,3.2-3h94.4c1.8,0,3.2,1.3,3.2,3v125.9
					C137.7,324.3,136.3,325.6,134.5,325.6z"/>
			</g>
		</g>
	</g>
	<g>
		<g>
			<g>
				<g>
					<rect x="42.8" y="164.3" fill="#90A4AE" width="15.2" height="1"/>
				</g>
			</g>
			<g>
				<g>
					<g>
						<path fill="#90A4AE" d="M49.7,160c0.1,0.2,0.1,0.5-0.2,0.7l-6.5,4.1l6.5,4.1c0.2,0.1,0.3,0.5,0.2,0.7s-0.5,0.3-0.7,0.2
							l-7.1-4.5c-0.1-0.1-0.2-0.3-0.2-0.4s0.1-0.3,0.2-0.4L49,160c0.1-0.1,0.2-0.1,0.3-0.1C49.4,159.7,49.6,159.8,49.7,160z"/>
					</g>
				</g>
			</g>
		</g>
	</g>
	<g>
		<g>
			<g>
				<path fill="#90A4AE" d="M950.4,160.9c0.2,0.1,0.4,0.3,0.5,0.4c0.1,0.2,0.2,0.4,0.2,0.7s-0.1,0.6-0.2,0.9
					c-0.1,0.3-0.3,0.5-0.5,0.7c-0.2,0.2-0.5,0.3-0.8,0.4c-0.3,0.1-0.6,0.2-0.8,0.3l0,0c0.2,0,0.4,0.1,0.7,0.2s0.4,0.2,0.6,0.3
					c0.2,0.1,0.4,0.3,0.5,0.5c0.1,0.2,0.2,0.5,0.2,0.7c0,0.4-0.1,0.8-0.3,1.1s-0.4,0.6-0.7,0.8s-0.7,0.4-1,0.5
					c-0.4,0.1-0.8,0.2-1.1,0.2h-3.9l0.1-0.4c0.1,0,0.2,0,0.4,0s0.3-0.1,0.4-0.1c0.1-0.1,0.2-0.1,0.3-0.2c0.1-0.1,0.1-0.2,0.1-0.3
					l1.3-5.8v-0.1v-0.1c0-0.1,0-0.1,0-0.2s-0.1-0.1-0.2-0.1c-0.1-0.1-0.2-0.1-0.3-0.1c-0.1,0-0.2,0-0.3-0.1l0.1-0.4h3.5
					c0.3,0,0.5,0,0.7,0.1C950,160.7,950.2,160.8,950.4,160.9z M948.9,167.4c0.2-0.2,0.3-0.5,0.4-0.7c0.1-0.2,0.1-0.5,0.1-0.8
					c0-0.4-0.1-0.7-0.4-0.9s-0.7-0.3-1.1-0.3c-0.2,0-0.4,0-0.6,0s-0.3,0-0.4,0l-0.6,2.8c0,0.1,0,0.1,0,0.1v0.1
					c0,0.2,0.1,0.3,0.3,0.4c0.2,0.1,0.5,0.1,0.8,0.1c0.4,0,0.7-0.1,1-0.2C948.5,167.8,948.7,167.6,948.9,167.4z M949.2,163.5
					c0.2-0.2,0.3-0.4,0.4-0.7c0.1-0.3,0.1-0.5,0.1-0.8c0-0.2,0-0.4-0.1-0.5c-0.1-0.1-0.2-0.3-0.3-0.3c-0.1-0.1-0.3-0.1-0.4-0.2
					c-0.2,0-0.3,0-0.5,0c-0.1,0-0.3,0-0.4,0c-0.2,0-0.3,0-0.4,0l-0.7,3.1h0.7c0.4,0,0.7-0.1,1-0.2
					C948.9,163.9,949.1,163.7,949.2,163.5z"/>
			</g>
			<g>
				<path fill="#90A4AE" d="M955.3,167.8L955.3,167.8c-0.2,0.1-0.4,0.3-0.5,0.4c-0.2,0.1-0.3,0.2-0.5,0.3s-0.3,0.2-0.5,0.2
					c-0.1,0-0.3,0.1-0.6,0.1c-0.4,0-0.6-0.1-0.8-0.3c-0.2-0.2-0.3-0.5-0.3-0.9c0-0.1,0-0.2,0-0.3s0.1-0.3,0.1-0.6l0.4-1.8
					c0-0.2,0.1-0.3,0.1-0.4c0-0.1,0-0.3,0-0.4c0-0.2,0-0.4-0.1-0.4c-0.1,0-0.2-0.1-0.4-0.1c-0.1,0-0.2,0-0.3,0
					c-0.1,0-0.2,0.1-0.3,0.1l0.1-0.4c0.3-0.1,0.6-0.2,0.8-0.3s0.4-0.1,0.5-0.1c0.3,0,0.5,0.1,0.7,0.2c0.1,0.1,0.2,0.3,0.2,0.6
					c0,0.1,0,0.2,0,0.3s0,0.2-0.1,0.3l-0.5,2.1c0,0.2-0.1,0.3-0.1,0.4c0,0.1,0,0.2,0,0.3c0,0.3,0.1,0.5,0.2,0.6
					c0.1,0.1,0.3,0.2,0.5,0.2c0.2,0,0.5-0.1,0.7-0.2s0.5-0.3,0.8-0.6l1-4.2l1-0.1l0.1,0.1l-0.8,3.6c0,0.2-0.1,0.3-0.1,0.5
					s0,0.3,0,0.3c0,0.2,0,0.4,0.1,0.4c0.1,0,0.2,0.1,0.5,0.1c0.1,0,0.2,0,0.3,0c0.1,0,0.2,0,0.3-0.1l-0.1,0.4
					c-0.3,0.1-0.6,0.2-0.8,0.3s-0.4,0.1-0.6,0.1c-0.3,0-0.5-0.1-0.7-0.3C955.4,168,955.3,168.1,955.3,167.8z"/>
			</g>
			<g>
				<path fill="#90A4AE" d="M964,163.6c0,0.2-0.1,0.4-0.2,0.5c-0.1,0.1-0.3,0.2-0.5,0.2c-0.1,0-0.2,0-0.4-0.1
					c-0.1,0-0.3-0.1-0.3-0.1c-0.2,0.2-0.4,0.4-0.6,0.7s-0.4,0.6-0.6,1c0.1,0.4,0.2,0.7,0.2,0.9c0.1,0.3,0.1,0.5,0.2,0.8
					c0.1,0.2,0.2,0.4,0.3,0.5c0.2,0.1,0.4,0.2,0.6,0.2c0.1,0,0.2,0,0.4,0c0.2,0,0.3-0.1,0.4-0.1l-0.1,0.4c-0.4,0.2-0.6,0.3-0.8,0.3
					c-0.2,0-0.4,0.1-0.6,0.1c-0.3,0-0.5-0.1-0.7-0.2c-0.2-0.1-0.3-0.4-0.4-0.7c-0.1-0.3-0.1-0.5-0.2-0.7c0-0.2-0.1-0.4-0.1-0.6
					c-0.2,0.3-0.3,0.5-0.4,0.7c-0.1,0.2-0.3,0.4-0.6,0.8c-0.2,0.3-0.4,0.5-0.6,0.6s-0.4,0.2-0.6,0.2c-0.2,0-0.3-0.1-0.4-0.2
					c-0.1-0.1-0.2-0.2-0.2-0.4s0.1-0.3,0.2-0.5s0.3-0.2,0.6-0.2c0.1,0,0.2,0,0.4,0.1s0.2,0.1,0.4,0.1c0.1-0.1,0.3-0.3,0.6-0.6
					c0.2-0.3,0.5-0.6,0.7-1c-0.1-0.3-0.1-0.6-0.2-0.9c-0.1-0.3-0.2-0.6-0.2-0.8c-0.1-0.3-0.2-0.5-0.3-0.6c-0.1-0.1-0.3-0.1-0.5-0.1
					c-0.1,0-0.2,0-0.3,0c-0.1,0-0.2,0.1-0.3,0.1l0.1-0.4c0.3-0.1,0.5-0.2,0.8-0.3c0.2-0.1,0.4-0.1,0.5-0.1c0.3,0,0.5,0.1,0.6,0.2
					c0.1,0.1,0.3,0.4,0.4,0.7c0.1,0.4,0.2,0.7,0.2,0.8s0.1,0.3,0.1,0.5c0.2-0.3,0.3-0.5,0.4-0.7s0.3-0.4,0.6-0.8
					c0.2-0.3,0.5-0.5,0.7-0.6s0.4-0.2,0.6-0.2c0.2,0,0.3,0.1,0.4,0.2C963.9,163.2,964,163.4,964,163.6z"/>
			</g>
			<g>
				<path fill="#90A4AE" d="M966.9,168l-0.1,0.4c-0.3,0.1-0.6,0.2-0.8,0.3s-0.4,0.1-0.5,0.1c-0.3,0-0.5-0.1-0.7-0.2
					s-0.2-0.3-0.2-0.6c0-0.1,0-0.2,0-0.3s0-0.2,0.1-0.4l0.6-2.4c0-0.1,0.1-0.3,0.1-0.4c0-0.2,0-0.3,0-0.4c0-0.2,0-0.4-0.1-0.4
					c-0.1-0.1-0.2-0.1-0.4-0.1c-0.1,0-0.2,0-0.3,0c-0.1,0-0.2,0-0.3,0.1l0.1-0.4c0.3-0.1,0.6-0.2,0.8-0.3s0.4-0.1,0.6-0.1
					c0.3,0,0.5,0.1,0.7,0.2c0.1,0.1,0.2,0.3,0.2,0.6c0,0.1,0,0.2,0,0.3s0,0.2-0.1,0.3l-0.6,2.4c0,0.1-0.1,0.3-0.1,0.4
					c0,0.1,0,0.3,0,0.3c0,0.2,0,0.4,0.1,0.4s0.3,0.1,0.5,0.1c0.1,0,0.2,0,0.3,0C966.7,168.1,966.8,168,966.9,168z M967.3,160.8
					c0,0.2-0.1,0.4-0.2,0.6c-0.1,0.2-0.3,0.2-0.5,0.2c-0.2,0-0.4-0.1-0.5-0.2c-0.1-0.2-0.2-0.3-0.2-0.5s0.1-0.4,0.2-0.5
					c0.1-0.2,0.3-0.2,0.5-0.2c0.2,0,0.4,0.1,0.5,0.2C967.2,160.4,967.3,160.6,967.3,160.8z"/>
			</g>
			<g>
				<path fill="#90A4AE" d="M973.1,163.5c0,0.7-0.1,1.3-0.2,2c-0.1,0.7-0.3,1.2-0.6,1.7s-0.7,1-1.1,1.2c-0.4,0.3-0.9,0.4-1.5,0.4
					c-0.7,0-1.2-0.2-1.6-0.6c-0.4-0.4-0.6-1-0.6-1.7c0-1,0.3-1.8,0.9-2.5c0.6-0.7,1.4-1.1,2.2-1.1c0.2,0,0.4,0,0.7,0.1
					c0.2,0.1,0.4,0.2,0.6,0.3c0-0.9-0.2-1.6-0.5-2.1c-0.3-0.5-0.7-0.8-1.2-0.8c-0.2,0-0.3,0-0.5,0c-0.1,0-0.3,0.1-0.4,0.1
					c-0.1,0-0.2,0.1-0.2,0.2c-0.1,0.1-0.1,0.1-0.2,0.1l-0.2-0.3c0.3-0.3,0.6-0.5,0.8-0.6c0.3-0.1,0.6-0.2,1-0.2c0.3,0,0.7,0.1,1,0.2
					c0.3,0.1,0.6,0.4,0.8,0.7c0.2,0.3,0.4,0.7,0.5,1.1C973.1,162.4,973.1,162.9,973.1,163.5z M971.4,167.1c0.2-0.4,0.3-0.9,0.4-1.4
					c0.1-0.5,0.2-1.1,0.2-1.6c-0.2-0.3-0.4-0.5-0.6-0.6c-0.2-0.1-0.4-0.2-0.6-0.2c-0.6,0-1.1,0.3-1.5,1c-0.4,0.7-0.6,1.5-0.6,2.3
					c0,0.6,0.1,1,0.2,1.3c0.2,0.3,0.4,0.4,0.8,0.4c0.3,0,0.6-0.1,0.9-0.4C971,167.8,971.2,167.4,971.4,167.1z"/>
			</g>
		</g>
		<g>
			<g>
				<g>
					<rect x="982.7" y="164.3" fill="#90A4AE" width="15.2" height="1"/>
				</g>
			</g>
			<g>
				<g>
					<g>
						<path fill="#90A4AE" d="M991,169.6c-0.1-0.2-0.1-0.5,0.2-0.7l6.5-4.1l-6.5-4.1c-0.2-0.1-0.3-0.5-0.2-0.7s0.5-0.3,0.7-0.2
							l7.1,4.5c0.1,0.1,0.2,0.3,0.2,0.4s-0.1,0.3-0.2,0.4l-7.1,4.5c-0.1,0.1-0.2,0.1-0.3,0.1C991.3,169.9,991.1,169.8,991,169.6z"/>
					</g>
				</g>
			</g>
		</g>
	</g>
	<g>
		<polygon fill="#B0BEC5" points="18,13.3 18,142.3 19,142.3 19,14.3 1016,14.3 1016,340 19,340 19,180.3 18,180.3 18,341 1017,341 
			1017,13.3 		"/>
	</g>
	<g opacity="0.4">
		<g>
			<g>
				<rect x="91" y="109.3" fill="#FFFFFF" width="4" height="1"/>
			</g>
		</g>
		<g>
			<g>
				<path fill="#FFFFFF" d="M84,110.3h-8v-1h8V110.3z M69,110.3h-8v-1h8V110.3z M54,110.3h-8v-1h8V110.3z"/>
			</g>
		</g>
		<g>
			<g>
				<rect x="37" y="109.3" fill="#FFFFFF" width="4" height="1"/>
			</g>
		</g>
	</g>
	<g opacity="0.4">
		<g>
			<g>
				<rect x="173" y="109.3" fill="#FFFFFF" width="4" height="1"/>
			</g>
		</g>
		<g>
			<g>
				<path fill="#FFFFFF" d="M166,110.3h-8v-1h8V110.3z M151,110.3h-8v-1h8V110.3z M136,110.3h-8v-1h8V110.3z"/>
			</g>
		</g>
		<g>
			<g>
				<rect x="119" y="109.3" fill="#FFFFFF" width="4" height="1"/>
			</g>
		</g>
	</g>
	<g opacity="0.4">
		<g>
			<g>
				<rect x="255" y="109.3" fill="#FFFFFF" width="4" height="1"/>
			</g>
		</g>
		<g>
			<g>
				<path fill="#FFFFFF" d="M248,110.3h-8v-1h8V110.3z M233,110.3h-8v-1h8V110.3z M218,110.3h-8v-1h8V110.3z"/>
			</g>
		</g>
		<g>
			<g>
				<rect x="201" y="109.3" fill="#FFFFFF" width="4" height="1"/>
			</g>
		</g>
	</g>
	<g opacity="0.4">
		<g>
			<g>
				<rect x="252" y="217.3" fill="#FFFFFF" width="4" height="1"/>
			</g>
		</g>
		<g>
			<g>
				<path fill="#FFFFFF" d="M245,218.3h-8v-1h8V218.3z M230,218.3h-8v-1h8V218.3z M215,218.3h-8v-1h8V218.3z M200,218.3h-8v-1h8
					V218.3z M185,218.3h-8v-1h8V218.3z"/>
			</g>
		</g>
		<g>
			<g>
				<rect x="165" y="217.3" fill="#FFFFFF" width="4" height="1"/>
			</g>
		</g>
	</g>
	<g opacity="0.4">
		<g>
			<g>
				<rect x="375" y="217.3" fill="#FFFFFF" width="4" height="1"/>
			</g>
		</g>
		<g>
			<g>
				<path fill="#FFFFFF" d="M368,218.3h-8v-1h8V218.3z M353,218.3h-8v-1h8V218.3z M338,218.3h-8v-1h8V218.3z M323,218.3h-8v-1h8
					V218.3z M308,218.3h-8v-1h8V218.3z"/>
			</g>
		</g>
		<g>
			<g>
				<rect x="288" y="217.3" fill="#FFFFFF" width="4" height="1"/>
			</g>
		</g>
	</g>
	<g opacity="0.4">
		<g>
			<g>
				<rect x="497" y="217.3" fill="#FFFFFF" width="4" height="1"/>
			</g>
		</g>
		<g>
			<g>
				<path fill="#FFFFFF" d="M490,218.3h-8v-1h8V218.3z M475,218.3h-8v-1h8V218.3z M460,218.3h-8v-1h8V218.3z M445,218.3h-8v-1h8
					V218.3z M430,218.3h-8v-1h8V218.3z"/>
			</g>
		</g>
		<g>
			<g>
				<rect x="410" y="217.3" fill="#FFFFFF" width="4" height="1"/>
			</g>
		</g>
	</g>
	<g opacity="0.4">
		<g>
			<g>
				<rect x="620" y="217.3" fill="#FFFFFF" width="4" height="1"/>
			</g>
		</g>
		<g>
			<g>
				<path fill="#FFFFFF" d="M613,218.3h-8v-1h8V218.3z M598,218.3h-8v-1h8V218.3z M583,218.3h-8v-1h8V218.3z M568,218.3h-8v-1h8
					V218.3z M553,218.3h-8v-1h8V218.3z"/>
			</g>
		</g>
		<g>
			<g>
				<rect x="533" y="217.3" fill="#FFFFFF" width="4" height="1"/>
			</g>
		</g>
	</g>
	<g opacity="0.4">
		<g>
			<g>
				<rect x="743" y="217.3" fill="#FFFFFF" width="4" height="1"/>
			</g>
		</g>
		<g>
			<g>
				<path fill="#FFFFFF" d="M736,218.3h-8v-1h8V218.3z M721,218.3h-8v-1h8V218.3z M706,218.3h-8v-1h8V218.3z M691,218.3h-8v-1h8
					V218.3z M676,218.3h-8v-1h8V218.3z"/>
			</g>
		</g>
		<g>
			<g>
				<rect x="656" y="217.3" fill="#FFFFFF" width="4" height="1"/>
			</g>
		</g>
	</g>
	<g opacity="0.4">
		<g>
			<g>
				<rect x="865" y="217.3" fill="#FFFFFF" width="4" height="1"/>
			</g>
		</g>
		<g>
			<g>
				<path fill="#FFFFFF" d="M858,218.3h-8v-1h8V218.3z M843,218.3h-8v-1h8V218.3z M828,218.3h-8v-1h8V218.3z M813,218.3h-8v-1h8
					V218.3z M798,218.3h-8v-1h8V218.3z"/>
			</g>
		</g>
		<g>
			<g>
				<rect x="778" y="217.3" fill="#FFFFFF" width="4" height="1"/>
			</g>
		</g>
	</g>
	<g opacity="0.4">
		<g>
			<g>
				<rect x="991" y="217.3" fill="#FFFFFF" width="4" height="1"/>
			</g>
		</g>
		<g>
			<g>
				<path fill="#FFFFFF" d="M984,218.3h-8v-1h8V218.3z M969,218.3h-8v-1h8V218.3z M954,218.3h-8v-1h8V218.3z M939,218.3h-8v-1h8
					V218.3z M924,218.3h-8v-1h8V218.3z"/>
			</g>
		</g>
		<g>
			<g>
				<rect x="904" y="217.3" fill="#FFFFFF" width="4" height="1"/>
			</g>
		</g>
	</g>
	<g opacity="0.4">
		<g>
			<g>
				<rect x="337" y="109.3" fill="#FFFFFF" width="4" height="1"/>
			</g>
		</g>
		<g>
			<g>
				<path fill="#FFFFFF" d="M330,110.3h-8v-1h8V110.3z M315,110.3h-8v-1h8V110.3z M300,110.3h-8v-1h8V110.3z"/>
			</g>
		</g>
		<g>
			<g>
				<rect x="283" y="109.3" fill="#FFFFFF" width="4" height="1"/>
			</g>
		</g>
	</g>
	<g opacity="0.4">
		<g>
			<g>
				<rect x="419" y="109.3" fill="#FFFFFF" width="4" height="1"/>
			</g>
		</g>
		<g>
			<g>
				<path fill="#FFFFFF" d="M412,110.3h-8v-1h8V110.3z M397,110.3h-8v-1h8V110.3z M382,110.3h-8v-1h8V110.3z"/>
			</g>
		</g>
		<g>
			<g>
				<rect x="365" y="109.3" fill="#FFFFFF" width="4" height="1"/>
			</g>
		</g>
	</g>
	<g opacity="0.4">
		<g>
			<g>
				<rect x="501" y="109.3" fill="#FFFFFF" width="4" height="1"/>
			</g>
		</g>
		<g>
			<g>
				<path fill="#FFFFFF" d="M494,110.3h-8v-1h8V110.3z M479,110.3h-8v-1h8V110.3z M464,110.3h-8v-1h8V110.3z"/>
			</g>
		</g>
		<g>
			<g>
				<rect x="446" y="109.3" fill="#FFFFFF" width="4" height="1"/>
			</g>
		</g>
	</g>
	<g opacity="0.4">
		<g>
			<g>
				<rect x="583" y="109.3" fill="#FFFFFF" width="4" height="1"/>
			</g>
		</g>
		<g>
			<g>
				<path fill="#FFFFFF" d="M576,110.3h-8v-1h8V110.3z M561,110.3h-8v-1h8V110.3z M546,110.3h-8v-1h8V110.3z"/>
			</g>
		</g>
		<g>
			<g>
				<rect x="528" y="109.3" fill="#FFFFFF" width="4" height="1"/>
			</g>
		</g>
	</g>
	<g opacity="0.4">
		<g>
			<g>
				<rect x="665" y="109.3" fill="#FFFFFF" width="4" height="1"/>
			</g>
		</g>
		<g>
			<g>
				<path fill="#FFFFFF" d="M658,110.3h-8v-1h8V110.3z M643,110.3h-8v-1h8V110.3z M628,110.3h-8v-1h8V110.3z"/>
			</g>
		</g>
		<g>
			<g>
				<rect x="610" y="109.3" fill="#FFFFFF" width="4" height="1"/>
			</g>
		</g>
	</g>
	<g opacity="0.4">
		<g>
			<g>
				<rect x="747" y="109.3" fill="#FFFFFF" width="4" height="1"/>
			</g>
		</g>
		<g>
			<g>
				<path fill="#FFFFFF" d="M740,110.3h-8v-1h8V110.3z M725,110.3h-8v-1h8V110.3z M710,110.3h-8v-1h8V110.3z"/>
			</g>
		</g>
		<g>
			<g>
				<rect x="692" y="109.3" fill="#FFFFFF" width="4" height="1"/>
			</g>
		</g>
	</g>
	<g opacity="0.4">
		<g>
			<g>
				<rect x="829" y="109.3" fill="#FFFFFF" width="4" height="1"/>
			</g>
		</g>
		<g>
			<g>
				<path fill="#FFFFFF" d="M822,110.3h-8v-1h8V110.3z M807,110.3h-8v-1h8V110.3z M792,110.3h-8v-1h8V110.3z"/>
			</g>
		</g>
		<g>
			<g>
				<rect x="774" y="109.3" fill="#FFFFFF" width="4" height="1"/>
			</g>
		</g>
	</g>
	<g opacity="0.4">
		<g>
			<g>
				<rect x="911" y="109.3" fill="#FFFFFF" width="4" height="1"/>
			</g>
		</g>
		<g>
			<g>
				<path fill="#FFFFFF" d="M904,110.3h-8v-1h8V110.3z M889,110.3h-8v-1h8V110.3z M874,110.3h-8v-1h8V110.3z"/>
			</g>
		</g>
		<g>
			<g>
				<rect x="856" y="109.3" fill="#FFFFFF" width="4" height="1"/>
			</g>
		</g>
	</g>
	<g opacity="0.4">
		<g>
			<g>
				<rect x="993" y="109.3" fill="#FFFFFF" width="4" height="1"/>
			</g>
		</g>
		<g>
			<g>
				<path fill="#FFFFFF" d="M986,110.3h-8v-1h8V110.3z M971,110.3h-8v-1h8V110.3z M956,110.3h-8v-1h8V110.3z"/>
			</g>
		</g>
		<g>
			<g>
				<rect x="938" y="109.3" fill="#FFFFFF" width="4" height="1"/>
			</g>
		</g>
	</g>
	<g>
		<g>
			<path fill="#FFFFFF" d="M65.7,73.1L65.7,73.1c-5.8,0-10.6-4.8-10.6-10.6l0,0c0-5.8,4.8-10.6,10.6-10.6l0,0
				c5.8,0,10.6,4.8,10.6,10.6l0,0C76.3,68.3,71.5,73.1,65.7,73.1z"/>
		</g>
	</g>
	<g>
		<g>
			<path fill="#36464E" d="M63.3,66.7h-1.4v-5.8h-1.4v-1l2.9-0.3L63.3,66.7L63.3,66.7z"/>
		</g>
		<g>
			<path fill="#36464E" d="M70.6,66.7h-4.9v-0.9l2.3-2.5c0.3-0.4,0.6-0.7,0.7-1s0.2-0.5,0.2-0.7c0-0.3-0.1-0.5-0.2-0.7
				c-0.2-0.2-0.4-0.3-0.7-0.3c-0.3,0-0.6,0.1-0.8,0.3c-0.2,0.2-0.3,0.5-0.3,0.9h-1.4l0,0c0-0.6,0.2-1.2,0.6-1.6
				c0.4-0.4,1-0.7,1.8-0.7c0.7,0,1.3,0.2,1.7,0.6c0.4,0.4,0.6,0.9,0.6,1.5c0,0.4-0.1,0.8-0.4,1.2c-0.2,0.4-0.6,0.8-1.2,1.4l-1.3,1.4
				l0,0h3v1.1H70.6z"/>
		</g>
	</g>
	<g>
		<g>
			<path fill="#FFFFFF" d="M147,73.1L147,73.1c-5.8,0-10.6-4.8-10.6-10.6l0,0c0-5.8,4.8-10.6,10.6-10.6l0,0
				c5.8,0,10.6,4.8,10.6,10.6l0,0C157.6,68.3,152.8,73.1,147,73.1z"/>
		</g>
	</g>
	<g>
		<g>
			<path fill="#36464E" d="M144.6,66.7h-1.4v-5.8h-1.4v-1l2.9-0.3v7.1H144.6z"/>
		</g>
		<g>
			<path fill="#36464E" d="M150.3,66.7h-1.4v-5.8h-1.4v-1l2.9-0.3v7.1H150.3z"/>
		</g>
	</g>
	<g>
		<g>
			<path fill="#FFFFFF" d="M209.4,294.5L209.4,294.5c-5.8,0-10.6-4.8-10.6-10.6l0,0c0-5.8,4.8-10.6,10.6-10.6l0,0
				c5.8,0,10.6,4.8,10.6,10.6l0,0C220,289.7,215.3,294.5,209.4,294.5z"/>
		</g>
	</g>
	<g>
		<g>
			<path fill="#36464E" d="M207.1,288.1h-1.4v-5.8h-1.5v-1l2.9-0.3V288.1z"/>
		</g>
		<g>
			<path fill="#36464E" d="M211,283.9h0.8c0.3,0,0.6-0.1,0.8-0.3c0.2-0.2,0.2-0.4,0.2-0.7c0-0.3-0.1-0.5-0.2-0.7
				c-0.2-0.2-0.4-0.3-0.7-0.3s-0.5,0.1-0.7,0.2s-0.3,0.4-0.3,0.6h-1.4l0,0c0-0.6,0.2-1,0.6-1.4s1-0.5,1.7-0.5s1.3,0.2,1.8,0.5
				c0.4,0.4,0.7,0.9,0.7,1.5c0,0.3-0.1,0.6-0.3,0.9s-0.5,0.5-0.8,0.7c0.4,0.1,0.7,0.4,0.9,0.6c0.2,0.3,0.3,0.6,0.3,1
				c0,0.7-0.2,1.2-0.7,1.5c-0.5,0.4-1.1,0.6-1.8,0.6s-1.2-0.2-1.7-0.5c-0.5-0.4-0.7-0.8-0.7-1.5l0,0h1.4c0,0.3,0.1,0.5,0.3,0.7
				s0.4,0.3,0.7,0.3s0.6-0.1,0.8-0.3c0.2-0.2,0.3-0.4,0.3-0.7c0-0.4-0.1-0.6-0.3-0.8c-0.2-0.2-0.5-0.3-0.8-0.3h-0.8v-1.1H211z"/>
		</g>
	</g>
	<g>
		<g>
			<path fill="#FFFFFF" d="M335.6,294.5L335.6,294.5c-5.8,0-10.6-4.8-10.6-10.6l0,0c0-5.8,4.8-10.6,10.6-10.6l0,0
				c5.8,0,10.6,4.8,10.6,10.6l0,0C346.2,289.7,341.4,294.5,335.6,294.5z"/>
		</g>
	</g>
	<g>
		<g>
			<path fill="#36464E" d="M333.2,288.1h-1.4v-5.8h-1.4v-1l2.9-0.3v7.1H333.2z"/>
		</g>
		<g>
			<path fill="#36464E" d="M339.9,285.5h0.8v1.1h-0.8v1.5h-1.4v-1.5h-2.9l-0.1-0.9l2.9-4.7h1.4v4.5H339.9z M336.8,285.5h1.6v-2.6
				l0,0l-0.1,0.2L336.8,285.5z"/>
		</g>
	</g>
	<g>
		<g>
			<path fill="#FFFFFF" d="M457.6,294.5L457.6,294.5c-5.8,0-10.6-4.8-10.6-10.6l0,0c0-5.8,4.8-10.6,10.6-10.6l0,0
				c5.8,0,10.6,4.8,10.6,10.6l0,0C468.2,289.7,463.4,294.5,457.6,294.5z"/>
		</g>
	</g>
	<g>
		<g>
			<path fill="#36464E" d="M455.2,288.1h-1.4v-5.8h-1.4v-1l2.9-0.3v7.1H455.2z"/>
		</g>
		<g>
			<path fill="#36464E" d="M457.9,284.9l0.4-4h4v1.1h-2.8l-0.2,1.6c0.1-0.1,0.3-0.2,0.5-0.2s0.4-0.1,0.6-0.1c0.7,0,1.2,0.2,1.6,0.6
				s0.6,1,0.6,1.8c0,0.7-0.2,1.3-0.6,1.7c-0.4,0.5-1,0.7-1.8,0.7c-0.7,0-1.2-0.2-1.7-0.5c-0.5-0.4-0.7-0.8-0.7-1.5l0,0l1.4-0.1
				c0,0.3,0.1,0.6,0.3,0.7c0.2,0.2,0.4,0.3,0.7,0.3c0.3,0,0.6-0.1,0.7-0.4c0.2-0.2,0.2-0.5,0.2-0.9s-0.1-0.7-0.3-1
				c-0.2-0.2-0.4-0.4-0.8-0.4c-0.3,0-0.5,0.1-0.6,0.2s-0.2,0.2-0.3,0.4L457.9,284.9z"/>
		</g>
	</g>
	<g>
		<g>
			<path fill="#FFFFFF" d="M580.6,294.5L580.6,294.5c-5.8,0-10.6-4.8-10.6-10.6l0,0c0-5.8,4.8-10.6,10.6-10.6l0,0
				c5.8,0,10.6,4.8,10.6,10.6l0,0C591.2,289.7,586.4,294.5,580.6,294.5z"/>
		</g>
	</g>
	<g>
		<g>
			<path fill="#36464E" d="M578.2,288.1h-1.4v-5.8h-1.4v-1l2.9-0.3L578.2,288.1L578.2,288.1z"/>
		</g>
		<g>
			<path fill="#36464E" d="M583.6,280.9c0.3,0,0.5,0,0.7,0.1c0.2,0,0.5,0.1,0.7,0.2l-0.3,1c-0.2-0.1-0.4-0.1-0.6-0.2
				c-0.2,0-0.4-0.1-0.6-0.1c-0.4,0-0.8,0.2-1,0.5c-0.3,0.3-0.4,0.8-0.4,1.3l0,0c0.2-0.2,0.4-0.3,0.6-0.4c0.2-0.1,0.5-0.1,0.8-0.1
				c0.6,0,1.1,0.2,1.5,0.7s0.5,1,0.5,1.7s-0.2,1.3-0.7,1.8c-0.4,0.5-1,0.7-1.7,0.7c-0.8,0-1.4-0.3-1.8-0.8c-0.5-0.5-0.7-1.2-0.7-2.1
				v-1.4c0-0.9,0.3-1.7,0.8-2.2C582.1,281.2,582.8,280.9,583.6,280.9z M583.3,284.4c-0.3,0-0.5,0-0.7,0.1s-0.3,0.2-0.4,0.3v0.5
				c0,0.6,0.1,1,0.3,1.3s0.5,0.5,0.8,0.5s0.5-0.1,0.7-0.4s0.3-0.6,0.3-1s-0.1-0.7-0.3-1C583.8,284.5,583.6,284.4,583.3,284.4z"/>
		</g>
	</g>
	<g>
		<g>
			<path fill="#FFFFFF" d="M701.4,294.5L701.4,294.5c-5.8,0-10.6-4.8-10.6-10.6l0,0c0-5.8,4.8-10.6,10.6-10.6l0,0
				c5.8,0,10.6,4.8,10.6,10.6l0,0C712,289.7,707.2,294.5,701.4,294.5z"/>
		</g>
	</g>
	<g>
		<g>
			<path fill="#36464E" d="M699,288.1h-1.4v-5.8h-1.4v-1l2.9-0.3L699,288.1L699,288.1z"/>
		</g>
		<g>
			<path fill="#36464E" d="M706.4,282.1c-0.8,0.9-1.3,1.7-1.6,2.5s-0.5,1.7-0.6,2.8l-0.1,0.7h-1.4l0.1-0.7c0.1-1,0.3-2,0.7-2.9
				s0.9-1.7,1.5-2.4h-3.7V281h5L706.4,282.1L706.4,282.1z"/>
		</g>
	</g>
	<g>
		<g>
			<path fill="#FFFFFF" d="M825.4,294.5L825.4,294.5c-5.8,0-10.6-4.8-10.6-10.6l0,0c0-5.8,4.8-10.6,10.6-10.6l0,0
				c5.8,0,10.6,4.8,10.6,10.6l0,0C836,289.7,831.3,294.5,825.4,294.5z"/>
		</g>
	</g>
	<g>
		<g>
			<path fill="#36464E" d="M823,288.1h-1.4v-5.8h-1.4v-1l2.9-0.3L823,288.1L823,288.1z"/>
		</g>
		<g>
			<path fill="#36464E" d="M830.2,282.9c0,0.4-0.1,0.7-0.3,0.9c-0.2,0.3-0.4,0.5-0.8,0.6c0.4,0.2,0.7,0.4,0.9,0.7
				c0.2,0.3,0.3,0.6,0.3,1c0,0.7-0.2,1.2-0.7,1.5c-0.4,0.4-1,0.5-1.7,0.5s-1.3-0.2-1.8-0.5c-0.4-0.4-0.7-0.9-0.7-1.5
				c0-0.4,0.1-0.7,0.3-1s0.5-0.5,0.9-0.7c-0.3-0.2-0.6-0.4-0.8-0.6c-0.2-0.3-0.3-0.6-0.3-0.9c0-0.6,0.2-1.1,0.6-1.5s1-0.5,1.6-0.5
				c0.7,0,1.2,0.2,1.6,0.5S830.2,282.2,830.2,282.9z M828.9,286.1c0-0.3-0.1-0.6-0.3-0.8c-0.2-0.2-0.4-0.3-0.7-0.3s-0.5,0.1-0.7,0.3
				c-0.2,0.2-0.3,0.4-0.3,0.8c0,0.3,0.1,0.6,0.3,0.8c0.2,0.2,0.4,0.3,0.7,0.3s0.5-0.1,0.7-0.3S828.9,286.4,828.9,286.1z
				 M828.8,282.9c0-0.3-0.1-0.5-0.2-0.7c-0.2-0.2-0.4-0.3-0.6-0.3c-0.3,0-0.5,0.1-0.6,0.3s-0.2,0.4-0.2,0.7c0,0.3,0.1,0.5,0.2,0.7
				c0.1,0.2,0.4,0.3,0.6,0.3c0.3,0,0.5-0.1,0.6-0.3C828.7,283.5,828.8,283.2,828.8,282.9z"/>
		</g>
	</g>
	<g>
		<g>
			<path fill="#FFFFFF" d="M948.4,294.5L948.4,294.5c-5.8,0-10.6-4.8-10.6-10.6l0,0c0-5.8,4.8-10.6,10.6-10.6l0,0
				c5.8,0,10.6,4.8,10.6,10.6l0,0C958.9,289.7,954.2,294.5,948.4,294.5z"/>
		</g>
	</g>
	<g>
		<g>
			<path fill="#36464E" d="M946,288.1h-1.5v-5.8h-1.4v-1l2.9-0.3V288.1z"/>
		</g>
		<g>
			<path fill="#36464E" d="M950.5,287.1c0.4,0,0.7-0.1,0.9-0.4s0.4-0.7,0.4-1.2v-0.4c-0.2,0.2-0.3,0.4-0.6,0.5
				c-0.2,0.1-0.5,0.2-0.7,0.2c-0.7,0-1.2-0.2-1.6-0.6c-0.4-0.4-0.6-1-0.6-1.8c0-0.7,0.2-1.3,0.7-1.8c0.4-0.5,1-0.7,1.7-0.7
				s1.3,0.3,1.8,0.8s0.7,1.2,0.7,2.1v1.7c0,0.9-0.3,1.5-0.8,2s-1.2,0.7-1.9,0.7c-0.2,0-0.5,0-0.8-0.1c-0.3,0-0.5-0.1-0.7-0.2l0.2-1
				c0.2,0.1,0.4,0.1,0.6,0.2C950,287.1,950.3,287.1,950.5,287.1z M950.8,284.7c0.2,0,0.4,0,0.6-0.1s0.3-0.2,0.4-0.4v-0.7
				c0-0.5-0.1-0.9-0.3-1.2c-0.2-0.3-0.4-0.4-0.7-0.4s-0.5,0.1-0.7,0.4s-0.3,0.6-0.3,1s0.1,0.7,0.2,1
				C950.2,284.6,950.5,284.7,950.8,284.7z"/>
		</g>
	</g>
	<g>
		<g>
			<path fill="#FFFFFF" d="M228.8,73.1L228.8,73.1c-5.8,0-10.6-4.8-10.6-10.6l0,0c0-5.8,4.8-10.6,10.6-10.6l0,0
				c5.8,0,10.6,4.8,10.6,10.6l0,0C239.4,68.3,234.7,73.1,228.8,73.1z"/>
		</g>
	</g>
	<g>
		<g>
			<path fill="#36464E" d="M226.4,66.7H225v-5.8h-1.4v-1l2.9-0.3v7.1H226.4z"/>
		</g>
		<g>
			<path fill="#36464E" d="M233.7,63.9c0,0.9-0.2,1.7-0.6,2.1c-0.4,0.5-1,0.7-1.8,0.7c-0.7,0-1.3-0.2-1.8-0.7s-0.6-1.2-0.6-2.1v-1.6
				c0-0.9,0.2-1.7,0.6-2.1c0.4-0.5,1-0.7,1.8-0.7c0.7,0,1.3,0.2,1.8,0.7c0.4,0.5,0.7,1.2,0.7,2.1L233.7,63.9L233.7,63.9z
				 M232.3,62.2c0-0.6-0.1-1-0.3-1.2s-0.4-0.4-0.7-0.4s-0.6,0.1-0.7,0.4s-0.2,0.7-0.2,1.2V64c0,0.6,0.1,1,0.3,1.2
				c0.2,0.3,0.4,0.4,0.7,0.4s0.6-0.1,0.7-0.4s0.2-0.7,0.2-1.2V62.2z"/>
		</g>
	</g>
	<g>
		<g>
			<path fill="#FFFFFF" d="M311.7,73.1L311.7,73.1c-5.8,0-10.6-4.8-10.6-10.6l0,0c0-5.8,4.8-10.6,10.6-10.6l0,0
				c5.8,0,10.6,4.8,10.6,10.6l0,0C322.3,68.3,317.5,73.1,311.7,73.1z"/>
		</g>
	</g>
	<g>
		<g>
			<path fill="#36464E" d="M311.1,65.7c0.4,0,0.7-0.1,0.9-0.4c0.2-0.3,0.4-0.7,0.4-1.2v-0.4c-0.2,0.2-0.3,0.4-0.6,0.5
				c-0.2,0.1-0.5,0.2-0.7,0.2c-0.7,0-1.2-0.2-1.6-0.6s-0.6-1-0.6-1.8c0-0.7,0.2-1.3,0.7-1.8s1-0.7,1.7-0.7s1.3,0.3,1.8,0.7
				s0.7,1.2,0.7,2.1V64c0,0.9-0.3,1.5-0.8,2s-1.2,0.7-1.9,0.7c-0.2,0-0.5,0-0.8-0.1s-0.5-0.1-0.7-0.2l0.2-1c0.2,0.1,0.4,0.1,0.6,0.2
				C310.6,65.7,310.8,65.7,311.1,65.7z M311.3,63.3c0.2,0,0.4,0,0.6-0.1s0.3-0.2,0.4-0.4v-0.7c0-0.5-0.1-0.9-0.3-1.2
				s-0.4-0.4-0.7-0.4c-0.3,0-0.5,0.1-0.7,0.4c-0.2,0.3-0.3,0.6-0.3,1s0.1,0.7,0.2,1C310.8,63.2,311,63.3,311.3,63.3z"/>
		</g>
	</g>
	<g>
		<g>
			<path fill="#FFFFFF" d="M392.7,73.1L392.7,73.1c-5.8,0-10.6-4.8-10.6-10.6l0,0c0-5.8,4.8-10.6,10.6-10.6l0,0
				c5.8,0,10.6,4.8,10.6,10.6l0,0C403.3,68.3,398.5,73.1,392.7,73.1z"/>
		</g>
	</g>
	<g>
		<g>
			<path fill="#36464E" d="M394.7,61.5c0,0.4-0.1,0.7-0.3,0.9c-0.2,0.3-0.4,0.5-0.8,0.6c0.4,0.2,0.7,0.4,0.9,0.7s0.3,0.6,0.3,1
				c0,0.7-0.2,1.2-0.7,1.5s-1,0.5-1.7,0.5s-1.3-0.2-1.8-0.5c-0.4-0.4-0.7-0.9-0.7-1.5c0-0.4,0.1-0.7,0.3-1c0.2-0.3,0.5-0.5,0.9-0.7
				c-0.3-0.2-0.6-0.4-0.8-0.6s-0.3-0.6-0.3-0.9c0-0.6,0.2-1.1,0.6-1.5s1-0.5,1.6-0.5c0.7,0,1.2,0.2,1.6,0.5S394.7,60.9,394.7,61.5z
				 M393.4,64.7c0-0.3-0.1-0.6-0.3-0.8c-0.2-0.2-0.4-0.3-0.7-0.3c-0.3,0-0.5,0.1-0.7,0.3s-0.3,0.4-0.3,0.8c0,0.3,0.1,0.6,0.3,0.8
				c0.2,0.2,0.4,0.3,0.7,0.3c0.3,0,0.5-0.1,0.7-0.3C393.3,65.3,393.4,65,393.4,64.7z M393.3,61.6c0-0.3-0.1-0.5-0.2-0.7
				c-0.2-0.2-0.4-0.3-0.6-0.3c-0.3,0-0.5,0.1-0.6,0.3s-0.2,0.4-0.2,0.7s0.1,0.5,0.2,0.7s0.4,0.3,0.6,0.3c0.3,0,0.5-0.1,0.6-0.3
				C393.2,62.1,393.3,61.9,393.3,61.6z"/>
		</g>
	</g>
	<g>
		<g>
			<path fill="#FFFFFF" d="M475.7,73.1L475.7,73.1c-5.8,0-10.6-4.8-10.6-10.6l0,0c0-5.8,4.8-10.6,10.6-10.6l0,0
				c5.8,0,10.6,4.8,10.6,10.6l0,0C486.3,68.3,481.5,73.1,475.7,73.1z"/>
		</g>
	</g>
	<g>
		<g>
			<path fill="#36464E" d="M477.9,60.7c-0.8,0.9-1.3,1.7-1.6,2.5c-0.3,0.8-0.5,1.7-0.6,2.8l-0.1,0.7h-1.4l0.1-0.7
				c0.1-1,0.3-2,0.7-2.9s0.9-1.7,1.5-2.4h-3.7v-1.1h5v1.1H477.9z"/>
		</g>
	</g>
	<g>
		<g>
			<path fill="#FFFFFF" d="M557.3,73.1L557.3,73.1c-5.8,0-10.6-4.8-10.6-10.6l0,0c0-5.8,4.8-10.6,10.6-10.6l0,0
				c5.8,0,10.6,4.8,10.6,10.6l0,0C567.9,68.3,563.2,73.1,557.3,73.1z"/>
		</g>
	</g>
	<g>
		<g>
			<path fill="#36464E" d="M557.6,59.5c0.3,0,0.5,0,0.7,0.1s0.5,0.1,0.7,0.2l-0.3,1c-0.2-0.1-0.4-0.1-0.6-0.2
				c-0.2,0-0.4-0.1-0.6-0.1c-0.4,0-0.8,0.2-1,0.5c-0.3,0.3-0.4,0.8-0.4,1.3l0,0c0.2-0.2,0.4-0.3,0.6-0.4s0.5-0.1,0.8-0.1
				c0.6,0,1.1,0.2,1.5,0.7s0.5,1,0.5,1.7s-0.2,1.3-0.7,1.8c-0.4,0.5-1,0.7-1.7,0.7c-0.8,0-1.4-0.3-1.8-0.8s-0.7-1.2-0.7-2.1v-1.4
				c0-0.9,0.3-1.7,0.8-2.2S556.7,59.5,557.6,59.5z M557.2,63c-0.3,0-0.5,0-0.7,0.1s-0.3,0.2-0.4,0.3V64c0,0.6,0.1,1,0.3,1.3
				s0.5,0.5,0.8,0.5s0.5-0.1,0.7-0.4s0.3-0.6,0.3-1s-0.1-0.7-0.3-1S557.5,63,557.2,63z"/>
		</g>
	</g>
	<g>
		<g>
			<path fill="#FFFFFF" d="M638.7,73.1L638.7,73.1c-5.8,0-10.6-4.8-10.6-10.6l0,0c0-5.8,4.8-10.6,10.6-10.6l0,0
				c5.8,0,10.6,4.8,10.6,10.6l0,0C649.3,68.3,644.5,73.1,638.7,73.1z"/>
		</g>
	</g>
	<g>
		<g>
			<path fill="#36464E" d="M636.2,63.6l0.4-4h4v1.1h-2.8l-0.2,1.6c0.1-0.1,0.3-0.2,0.5-0.2s0.4-0.1,0.6-0.1c0.7,0,1.2,0.2,1.6,0.6
				c0.4,0.4,0.6,1,0.6,1.8c0,0.7-0.2,1.3-0.6,1.7c-0.4,0.5-1,0.7-1.8,0.7c-0.7,0-1.2-0.2-1.7-0.5s-0.7-0.8-0.7-1.5l0,0l1.4-0.1
				c0,0.3,0.1,0.6,0.3,0.7s0.4,0.3,0.7,0.3s0.6-0.1,0.7-0.4c0.2-0.2,0.2-0.5,0.2-0.9s-0.1-0.7-0.3-1c-0.2-0.2-0.4-0.4-0.8-0.4
				c-0.3,0-0.5,0.1-0.6,0.2c-0.1,0.1-0.2,0.2-0.3,0.4L636.2,63.6z"/>
		</g>
	</g>
	<g>
		<g>
			<path fill="#FFFFFF" d="M721,73.1L721,73.1c-5.8,0-10.6-4.8-10.6-10.6l0,0c0-5.8,4.8-10.6,10.6-10.6l0,0
				c5.8,0,10.6,4.8,10.6,10.6l0,0C731.6,68.3,726.8,73.1,721,73.1z"/>
		</g>
	</g>
	<g>
		<g>
			<path fill="#36464E" d="M722.6,64.1h0.8v1.1h-0.8v1.5h-1.4v-1.5h-2.9l-0.1-0.9l2.9-4.7h1.4L722.6,64.1L722.6,64.1z M719.5,64.1
				h1.6v-2.6l0,0l-0.1,0.2L719.5,64.1z"/>
		</g>
	</g>
	<g>
		<g>
			<path fill="#FFFFFF" d="M802.5,73.1L802.5,73.1c-5.8,0-10.6-4.8-10.6-10.6l0,0c0-5.8,4.8-10.6,10.6-10.6l0,0
				c5.8,0,10.6,4.8,10.6,10.6l0,0C813.1,68.3,808.3,73.1,802.5,73.1z"/>
		</g>
	</g>
	<g>
		<g>
			<path fill="#36464E" d="M801.3,62.6h0.8c0.3,0,0.6-0.1,0.8-0.3s0.2-0.4,0.2-0.7s-0.1-0.5-0.2-0.7s-0.4-0.3-0.7-0.3
				s-0.5,0.1-0.7,0.2s-0.3,0.4-0.3,0.6h-1.4l0,0c0-0.6,0.2-1,0.6-1.4s1-0.5,1.7-0.5s1.3,0.2,1.8,0.5c0.4,0.4,0.7,0.9,0.7,1.5
				c0,0.3-0.1,0.6-0.3,0.9s-0.5,0.5-0.8,0.7c0.4,0.1,0.7,0.4,0.9,0.6c0.2,0.3,0.3,0.6,0.3,1c0,0.7-0.2,1.2-0.7,1.5
				c-0.5,0.4-1.1,0.6-1.8,0.6s-1.2-0.2-1.7-0.5c-0.5-0.4-0.7-0.8-0.7-1.5l0,0h1.4c0,0.3,0.1,0.5,0.3,0.7s0.4,0.3,0.7,0.3
				s0.6-0.1,0.8-0.3c0.2-0.2,0.3-0.4,0.3-0.7c0-0.4-0.1-0.6-0.3-0.8s-0.5-0.3-0.8-0.3h-0.8L801.3,62.6L801.3,62.6z"/>
		</g>
	</g>
	<g>
		<g>
			<path fill="#FFFFFF" d="M884.5,73.1L884.5,73.1c-5.8,0-10.6-4.8-10.6-10.6l0,0c0-5.8,4.8-10.6,10.6-10.6l0,0
				c5.8,0,10.6,4.8,10.6,10.6l0,0C895.1,68.3,890.3,73.1,884.5,73.1z"/>
		</g>
	</g>
	<g>
		<g>
			<path fill="#36464E" d="M886.7,66.7h-4.9v-0.9l2.3-2.5c0.3-0.4,0.6-0.7,0.7-1s0.2-0.5,0.2-0.7c0-0.3-0.1-0.5-0.2-0.7
				c-0.2-0.2-0.4-0.3-0.7-0.3s-0.6,0.1-0.8,0.3s-0.3,0.5-0.3,0.9h-1.4l0,0c0-0.6,0.2-1.2,0.6-1.6c0.4-0.4,1-0.7,1.8-0.7
				c0.7,0,1.3,0.2,1.7,0.6c0.4,0.4,0.6,0.9,0.6,1.5c0,0.4-0.1,0.8-0.4,1.2c-0.2,0.4-0.6,0.8-1.2,1.4l-1.3,1.4l0,0h3v1.1H886.7z"/>
		</g>
	</g>
	<g>
		<g>
			<path fill="#FFFFFF" d="M967,73.1L967,73.1c-5.8,0-10.6-4.8-10.6-10.6l0,0c0-5.8,4.8-10.6,10.6-10.6l0,0
				c5.8,0,10.6,4.8,10.6,10.6l0,0C977.6,68.3,972.8,73.1,967,73.1z"/>
		</g>
	</g>
	<g>
		<g>
			<path fill="#36464E" d="M967.6,66.7h-1.4v-5.8h-1.4v-1l2.9-0.3L967.6,66.7L967.6,66.7z"/>
		</g>
	</g>
	<g>
		<path fill="#90A4AE" d="M76.7,162.4c0,0.5-0.1,0.9-0.3,1.3s-0.5,0.7-0.8,0.9c-0.3,0.3-0.7,0.5-1.2,0.6c-0.4,0.1-0.9,0.2-1.3,0.2
			h-1l-0.6,2.6c0,0,0,0.1,0,0.1s0,0.1,0,0.1c0,0.1,0,0.2,0,0.2s0.1,0.1,0.2,0.2c0.1,0,0.2,0.1,0.4,0.1s0.3,0,0.5,0l-0.1,0.4h-3.6
			l0.1-0.4c0.1,0,0.2,0,0.4,0s0.3,0,0.4-0.1c0.1-0.1,0.2-0.1,0.3-0.2s0.1-0.2,0.1-0.4l1.4-6.1c0,0,0-0.1,0-0.1s0-0.1,0-0.1
			c0-0.1,0-0.2,0-0.2s-0.1-0.1-0.2-0.2c-0.1,0-0.3-0.1-0.4-0.1s-0.3,0-0.4,0l0.1-0.4h3.7c0.7,0,1.2,0.1,1.6,0.4
			C76.5,161.4,76.7,161.8,76.7,162.4z M74.8,163.9c0.2-0.2,0.3-0.5,0.3-0.7s0.1-0.5,0.1-0.7c0-0.2,0-0.4-0.1-0.5
			c0-0.2-0.1-0.3-0.2-0.4c-0.1-0.1-0.3-0.2-0.5-0.3c-0.2-0.1-0.4-0.1-0.7-0.1H73l-0.8,3.7h0.7c0.5,0,0.8-0.1,1.2-0.2
			C74.3,164.5,74.6,164.2,74.8,163.9z"/>
		<path fill="#90A4AE" d="M80.4,168.2L80.4,168.2c-0.1,0.1-0.2,0.2-0.3,0.3s-0.3,0.2-0.4,0.3c-0.2,0.1-0.3,0.2-0.5,0.3
			c-0.2,0.1-0.4,0.1-0.6,0.1c-0.6,0-1-0.2-1.3-0.6c-0.3-0.4-0.5-1-0.5-1.7c0-0.5,0.1-1,0.3-1.4c0.2-0.5,0.4-0.9,0.7-1.2
			c0.3-0.3,0.7-0.6,1.1-0.8c0.4-0.2,0.8-0.3,1.3-0.3c0.3,0,0.5,0,0.8,0.1s0.4,0.2,0.6,0.3l1.1-0.3l0.1,0.1l-0.9,3.8
			c0,0.1-0.1,0.3-0.1,0.4s0,0.3,0,0.4c0,0.2,0,0.4,0.1,0.5s0.3,0.1,0.5,0.1c0.1,0,0.2,0,0.3,0c0.1,0,0.2,0,0.3-0.1l-0.1,0.4
			c-0.4,0.1-0.6,0.2-0.8,0.3c-0.2,0.1-0.4,0.1-0.6,0.1c-0.3,0-0.5-0.1-0.7-0.2C80.5,168.7,80.4,168.5,80.4,168.2z M81.2,164.5
			c0-0.1,0-0.3,0-0.4c0-0.1-0.1-0.2-0.2-0.3c-0.1-0.1-0.2-0.2-0.3-0.2c-0.1-0.1-0.3-0.1-0.5-0.1c-0.3,0-0.6,0.1-0.8,0.3
			c-0.3,0.2-0.5,0.4-0.7,0.8c-0.2,0.3-0.4,0.7-0.5,1.1s-0.2,0.9-0.2,1.3c0,0.2,0,0.4,0,0.6c0,0.2,0.1,0.4,0.2,0.5
			c0.1,0.1,0.2,0.3,0.3,0.3c0.1,0.1,0.3,0.1,0.5,0.1c0.2,0,0.4-0.1,0.7-0.2c0.2-0.1,0.5-0.3,0.8-0.6L81.2,164.5z"/>
		<path fill="#90A4AE" d="M86.8,168.9c-0.1-1-0.2-1.8-0.2-2.4s-0.2-1.3-0.3-2h-0.1c-0.2,0.9-0.4,1.6-0.6,2.2s-0.5,1.1-0.8,1.4
			c-0.2,0.3-0.5,0.6-0.7,0.8s-0.4,0.2-0.6,0.2c-0.2,0-0.4-0.1-0.5-0.2s-0.1-0.3-0.1-0.5c0-0.2,0.1-0.3,0.2-0.4s0.3-0.2,0.5-0.2
			c0.1,0,0.2,0,0.3,0.1s0.3,0.1,0.4,0.2c0.4-0.5,0.8-1.2,1-2c0.3-0.8,0.4-1.6,0.5-2.3h-1l0.1-0.4l1.9-0.1c0.2,0.6,0.4,1.3,0.5,2
			c0.1,0.7,0.3,1.5,0.3,2.3l2.7-4.2l1.1-0.1l0.1,0.1l-0.8,3.8c0,0.1-0.1,0.3-0.1,0.4s0,0.3,0,0.4c0,0.2,0,0.4,0.1,0.5
			c0.1,0.1,0.3,0.1,0.5,0.1c0.1,0,0.2,0,0.3,0c0.1,0,0.2-0.1,0.3-0.1l-0.1,0.4c-0.4,0.1-0.6,0.2-0.8,0.3c-0.2,0.1-0.4,0.1-0.6,0.1
			c-0.3,0-0.5-0.1-0.7-0.2c-0.1-0.2-0.2-0.4-0.2-0.6c0-0.1,0-0.2,0-0.3s0-0.2,0.1-0.4l0.8-3.2l-0.1,0l-3,4.6H86.8z"/>
		<path fill="#90A4AE" d="M98.8,168.3l-0.1,0.4c-0.4,0.1-0.6,0.2-0.8,0.3c-0.2,0.1-0.4,0.1-0.6,0.1c-0.3,0-0.5-0.1-0.7-0.2
			c-0.2-0.2-0.2-0.4-0.2-0.6c0-0.1,0-0.2,0-0.3c0-0.1,0-0.2,0.1-0.4l0.6-2.2c0-0.2,0.1-0.3,0.1-0.5c0-0.1,0-0.2,0-0.3
			c0-0.3-0.1-0.5-0.2-0.6c-0.1-0.2-0.3-0.2-0.6-0.2c-0.2,0-0.5,0.1-0.8,0.2s-0.6,0.4-0.8,0.7l-1,4.3h-1.1l0.9-3.8
			c0-0.1,0-0.2,0.1-0.4c0-0.2,0.1-0.3,0.1-0.4c0-0.2,0-0.4-0.1-0.4c-0.1-0.1-0.2-0.1-0.4-0.1c-0.1,0-0.2,0-0.3,0
			c-0.1,0-0.2,0.1-0.3,0.1l0.1-0.4c0.3-0.1,0.6-0.2,0.8-0.3c0.2-0.1,0.4-0.1,0.6-0.1c0.3,0,0.5,0.1,0.7,0.3c0.1,0.2,0.2,0.4,0.2,0.7
			h0c0.4-0.3,0.8-0.6,1.1-0.8c0.3-0.2,0.7-0.2,1.1-0.2c0.4,0,0.7,0.1,0.9,0.3c0.2,0.2,0.3,0.5,0.3,0.9c0,0.1,0,0.2,0,0.4
			c0,0.2-0.1,0.4-0.1,0.5l-0.5,1.9c0,0.1-0.1,0.3-0.1,0.4s0,0.3,0,0.4c0,0.2,0,0.4,0.1,0.5c0.1,0.1,0.3,0.1,0.5,0.1
			c0.1,0,0.2,0,0.3,0C98.6,168.4,98.7,168.3,98.8,168.3z"/>
		<path fill="#90A4AE" d="M103.2,168.2L103.2,168.2c-0.1,0.1-0.2,0.2-0.3,0.3s-0.3,0.2-0.4,0.3c-0.2,0.1-0.3,0.2-0.5,0.3
			c-0.2,0.1-0.4,0.1-0.6,0.1c-0.6,0-1-0.2-1.3-0.6c-0.3-0.4-0.5-1-0.5-1.7c0-0.5,0.1-1,0.3-1.4c0.2-0.5,0.4-0.9,0.7-1.2
			c0.3-0.3,0.7-0.6,1.1-0.8c0.4-0.2,0.8-0.3,1.3-0.3c0.3,0,0.5,0,0.8,0.1s0.4,0.2,0.6,0.3l1.1-0.3l0.1,0.1l-0.9,3.8
			c0,0.1-0.1,0.3-0.1,0.4s0,0.3,0,0.4c0,0.2,0,0.4,0.1,0.5s0.3,0.1,0.5,0.1c0.1,0,0.2,0,0.3,0c0.1,0,0.2,0,0.3-0.1l-0.1,0.4
			c-0.4,0.1-0.6,0.2-0.8,0.3c-0.2,0.1-0.4,0.1-0.6,0.1c-0.3,0-0.5-0.1-0.7-0.2C103.3,168.7,103.2,168.5,103.2,168.2z M104.1,164.5
			c0-0.1,0-0.3,0-0.4c0-0.1-0.1-0.2-0.2-0.3c-0.1-0.1-0.2-0.2-0.3-0.2c-0.1-0.1-0.3-0.1-0.5-0.1c-0.3,0-0.6,0.1-0.8,0.3
			c-0.3,0.2-0.5,0.4-0.7,0.8c-0.2,0.3-0.4,0.7-0.5,1.1s-0.2,0.9-0.2,1.3c0,0.2,0,0.4,0,0.6c0,0.2,0.1,0.4,0.2,0.5
			c0.1,0.1,0.2,0.3,0.3,0.3c0.1,0.1,0.3,0.1,0.5,0.1c0.2,0,0.4-0.1,0.7-0.2c0.2-0.1,0.5-0.3,0.8-0.6L104.1,164.5z"/>
	</g>
</g>
<g>
	<rect x="1007" y="139" fill="#FFFFFF" width="15" height="45"/>
</g>
</svg>
