<?xml version="1.0" encoding="utf-8"?>
<!-- Generator: Adobe Illustrator 18.0.0, SVG Export Plug-In . SVG Version: 6.00 Build 0)  -->
<!DOCTYPE svg PUBLIC "-//W3C//DTD SVG 1.1//EN" "http://www.w3.org/Graphics/SVG/1.1/DTD/svg11.dtd">
<svg version="1.1" id="Layer_1" xmlns="http://www.w3.org/2000/svg" xmlns:xlink="http://www.w3.org/1999/xlink" x="0px" y="0px"
	 width="975.6px" height="544.6px" viewBox="0 0 975.6 544.6" enable-background="new 0 0 975.6 544.6" xml:space="preserve">
<g>
	<path fill="#B0BEC5" d="M961.5,537h-946c-2.5,0-4.5-2-4.5-4.5v-519C11,11,13,9,15.5,9h946c2.5,0,4.5,2,4.5,4.5v519
		C966,535,964,537,961.5,537z M15.5,10c-1.9,0-3.5,1.6-3.5,3.5v519c0,1.9,1.6,3.5,3.5,3.5h946c1.9,0,3.5-1.6,3.5-3.5v-519
		c0-1.9-1.6-3.5-3.5-3.5H15.5z"/>
</g>
<g>
	<g>
		<path fill="#81C784" d="M77,129c0,1.7-1.3,3-3,3H25c-1.7,0-3-1.3-3-3V22c0-1.7,1.3-3,3-3h49c1.7,0,3,1.3,3,3V129z"/>
	</g>
</g>
<g>
	<path fill="#FFFFFF" d="M50.7,75.1L50.7,75.1c-5.8,0-10.6-4.8-10.6-10.6v0c0-5.8,4.8-10.6,10.6-10.6h0c5.8,0,10.6,4.8,10.6,10.6v0
		C61.3,70.3,56.5,75.1,50.7,75.1z"/>
</g>
<g>
	<g>
		<g>
			<g>
				<path fill="none" stroke="#455A64" stroke-miterlimit="10" d="M52.3,27.7"/>
			</g>
		</g>
	</g>
</g>
<g>
	<g>
		<g>
			<g>
				<path fill="none" stroke="#455A64" stroke-miterlimit="10" d="M29.3,27.7"/>
			</g>
		</g>
	</g>
</g>
<g>
	<g>
		<path fill="#64B5F6" d="M152,129.1c0,1.6-1.3,2.9-2.9,2.9H98.9c-1.6,0-2.9-1.3-2.9-2.9V21.9c0-1.6,1.3-2.9,2.9-2.9h50.2
			c1.6,0,2.9,1.3,2.9,2.9V129.1z"/>
	</g>
</g>
<g>
	<g>
		<g>
			<g>
				<path fill="none" stroke="#455A64" stroke-miterlimit="10" d="M127.4,27.7"/>
			</g>
		</g>
	</g>
</g>
<g>
	<g>
		<g>
			<g>
				<path fill="none" stroke="#455A64" stroke-miterlimit="10" d="M104.4,27.7"/>
			</g>
		</g>
	</g>
</g>
<g>
	<path fill="#FFFFFF" d="M125.3,75.1L125.3,75.1c-5.8,0-10.6-4.8-10.6-10.6v0c0-5.8,4.8-10.6,10.6-10.6h0c5.8,0,10.6,4.8,10.6,10.6
		v0C135.9,70.3,131.1,75.1,125.3,75.1z"/>
</g>
<g>
	<g>
		<path fill="#64B5F6" d="M227,129c0,1.7-1.3,3-3,3h-50c-1.7,0-3-1.3-3-3V22c0-1.7,1.3-3,3-3h50c1.7,0,3,1.3,3,3V129z"/>
	</g>
</g>
<g>
	<path fill="#FFFFFF" d="M199.4,75.1L199.4,75.1c-5.8,0-10.6-4.8-10.6-10.6v0c0-5.8,4.8-10.6,10.6-10.6h0c5.8,0,10.6,4.8,10.6,10.6
		v0C210,70.3,205.2,75.1,199.4,75.1z"/>
</g>
<g>
	<g>
		<g>
			<g>
				<path fill="none" stroke="#455A64" stroke-miterlimit="10" d="M201.5,27.7"/>
			</g>
		</g>
	</g>
</g>
<g>
	<g>
		<g>
			<g>
				<path fill="none" stroke="#455A64" stroke-miterlimit="10" d="M178.5,27.7"/>
			</g>
		</g>
	</g>
</g>
<g>
	<g>
		<path fill="#64B5F6" d="M297,129c0,1.7-1.3,3-3,3h-49c-1.7,0-3-1.3-3-3V22c0-1.7,1.3-3,3-3h49c1.7,0,3,1.3,3,3V129z"/>
	</g>
</g>
<g>
	<g>
		<g>
			<g>
				<path fill="none" stroke="#455A64" stroke-miterlimit="10" d="M273.3,27.7"/>
			</g>
		</g>
	</g>
</g>
<g>
	<path fill="#FFFFFF" d="M271.6,75.1L271.6,75.1c-5.8,0-10.6-4.8-10.6-10.6v0c0-5.8,4.8-10.6,10.6-10.6h0c5.8,0,10.6,4.8,10.6,10.6
		v0C282.2,70.3,277.4,75.1,271.6,75.1z"/>
</g>
<g>
	<g>
		<g>
			<g>
				<path fill="none" stroke="#455A64" stroke-miterlimit="10" d="M250.4,27.7"/>
			</g>
		</g>
	</g>
</g>
<g>
	<g>
		<path fill="#81C784" d="M372,129c0,1.7-1.3,3-3,3h-50c-1.7,0-3-1.3-3-3V22c0-1.7,1.3-3,3-3h50c1.7,0,3,1.3,3,3V129z"/>
	</g>
</g>
<g>
	<path fill="#FFFFFF" d="M344.7,75.1L344.7,75.1c-5.8,0-10.6-4.8-10.6-10.6v0c0-5.8,4.8-10.6,10.6-10.6l0,0
		c5.8,0,10.6,4.8,10.6,10.6v0C355.3,70.3,350.6,75.1,344.7,75.1z"/>
</g>
<g>
	<g>
		<g>
			<g>
				<path fill="none" stroke="#455A64" stroke-miterlimit="10" d="M346.8,27.7"/>
			</g>
		</g>
	</g>
</g>
<g>
	<g>
		<g>
			<g>
				<path fill="none" stroke="#455A64" stroke-miterlimit="10" d="M323.8,27.7"/>
			</g>
		</g>
	</g>
</g>
<g>
	<g>
		<path fill="#81C784" d="M445,129c0,1.7-1.3,3-3,3h-50c-1.7,0-3-1.3-3-3V22c0-1.7,1.3-3,3-3h50c1.7,0,3,1.3,3,3V129z"/>
	</g>
</g>
<g>
	<path fill="#FFFFFF" d="M418.9,75.1L418.9,75.1c-5.8,0-10.6-4.8-10.6-10.6v0c0-5.8,4.8-10.6,10.6-10.6h0c5.8,0,10.6,4.8,10.6,10.6
		v0C429.4,70.3,424.7,75.1,418.9,75.1z"/>
</g>
<g>
	<g>
		<g>
			<g>
				<path fill="none" stroke="#455A64" stroke-miterlimit="10" d="M420.9,27.7"/>
			</g>
		</g>
	</g>
</g>
<g>
	<g>
		<g>
			<g>
				<path fill="none" stroke="#455A64" stroke-miterlimit="10" d="M397.9,27.7"/>
			</g>
		</g>
	</g>
</g>
<g>
	<g>
		<path fill="#81C784" d="M517,129c0,1.7-1.3,3-3,3h-49c-1.7,0-3-1.3-3-3V22c0-1.7,1.3-3,3-3h49c1.7,0,3,1.3,3,3V129z"/>
	</g>
</g>
<g>
	<path fill="#FFFFFF" d="M491,75.1L491,75.1c-5.8,0-10.6-4.8-10.6-10.6v0c0-5.8,4.8-10.6,10.6-10.6l0,0c5.8,0,10.6,4.8,10.6,10.6v0
		C501.6,70.3,496.9,75.1,491,75.1z"/>
</g>
<g>
	<g>
		<g>
			<g>
				<path fill="none" stroke="#455A64" stroke-miterlimit="10" d="M492.8,27.7"/>
			</g>
		</g>
	</g>
</g>
<g>
	<g>
		<g>
			<g>
				<path fill="none" stroke="#455A64" stroke-miterlimit="10" d="M469.8,27.7"/>
			</g>
		</g>
	</g>
</g>
<g>
	<g>
		<path fill="#81C784" d="M591,129c0,1.7-1.3,3-3,3h-50c-1.7,0-3-1.3-3-3V22c0-1.7,1.3-3,3-3h50c1.7,0,3,1.3,3,3V129z"/>
	</g>
</g>
<g>
	<path fill="#FFFFFF" d="M564.2,75.1L564.2,75.1c-5.8,0-10.6-4.8-10.6-10.6v0c0-5.8,4.8-10.6,10.6-10.6l0,0
		c5.8,0,10.6,4.8,10.6,10.6v0C574.8,70.3,570,75.1,564.2,75.1z"/>
</g>
<g>
	<g>
		<g>
			<g>
				<path fill="none" stroke="#455A64" stroke-miterlimit="10" d="M566.2,27.7"/>
			</g>
		</g>
	</g>
</g>
<g>
	<g>
		<g>
			<g>
				<path fill="none" stroke="#455A64" stroke-miterlimit="10" d="M543.2,27.7"/>
			</g>
		</g>
	</g>
</g>
<g>
	<g>
		<path fill="#81C784" d="M591,524c0,1.7-1.3,3-3,3h-50c-1.7,0-3-1.3-3-3V418c0-1.7,1.3-3,3-3h50c1.7,0,3,1.3,3,3V524z"/>
	</g>
</g>
<g>
	<g>
		<path fill="#81C784" d="M517,524c0,1.7-1.3,3-3,3h-50c-1.7,0-3-1.3-3-3V418c0-1.7,1.3-3,3-3h50c1.7,0,3,1.3,3,3V524z"/>
	</g>
</g>
<g>
	<g>
		<path fill="#81C784" d="M442,524c0,1.7-1.3,3-3,3h-50c-1.7,0-3-1.3-3-3V418c0-1.7,1.3-3,3-3h50c1.7,0,3,1.3,3,3V524z"/>
	</g>
</g>
<g>
	<g>
		<path fill="#81C784" d="M369,524c0,1.7-1.3,3-3,3h-50c-1.7,0-3-1.3-3-3V418c0-1.7,1.3-3,3-3h50c1.7,0,3,1.3,3,3V524z"/>
	</g>
</g>
<g>
	<g>
		<path fill="#64B5F6" d="M295,524c0,1.7-1.3,3-3,3h-49c-1.7,0-3-1.3-3-3V418c0-1.7,1.3-3,3-3h49c1.7,0,3,1.3,3,3V524z"/>
	</g>
</g>
<g>
	<g>
		<path fill="#81C784" d="M224,524c0,1.7-1.3,3-3,3h-50c-1.7,0-3-1.3-3-3V418c0-1.7,1.3-3,3-3h50c1.7,0,3,1.3,3,3V524z"/>
	</g>
</g>
<g>
	<g>
		<path fill="#64B5F6" d="M149,524c0,1.7-1.3,3-3,3H96c-1.7,0-3-1.3-3-3V418c0-1.7,1.3-3,3-3h50c1.7,0,3,1.3,3,3V524z"/>
	</g>
</g>
<g>
	<g>
		<path fill="#64B5F6" d="M77,524c0,1.7-1.3,3-3,3H25c-1.7,0-3-1.3-3-3V418c0-1.7,1.3-3,3-3h49c1.7,0,3,1.3,3,3V524z"/>
	</g>
</g>
<g>
	<g>
		<path fill="#81C784" d="M702,129c0,1.7-1.3,3-3,3h-50c-1.7,0-3-1.3-3-3V22c0-1.7,1.3-3,3-3h50c1.7,0,3,1.3,3,3V129z"/>
	</g>
</g>
<g>
	<g>
		<g>
			<g>
				<path fill="none" stroke="#455A64" stroke-miterlimit="10" d="M676.6,27.7"/>
			</g>
		</g>
	</g>
</g>
<g>
	<path fill="#FFFFFF" d="M674.9,75.1L674.9,75.1c-5.8,0-10.6-4.8-10.6-10.6v0c0-5.8,4.8-10.6,10.6-10.6h0c5.8,0,10.6,4.8,10.6,10.6
		v0C685.5,70.3,680.7,75.1,674.9,75.1z"/>
</g>
<g>
	<g>
		<g>
			<g>
				<path fill="none" stroke="#455A64" stroke-miterlimit="10" d="M653.7,27.7"/>
			</g>
		</g>
	</g>
</g>
<g>
	<g>
		<path fill="#81C784" d="M765,129c0,1.7-1.3,3-3,3h-50c-1.7,0-3-1.3-3-3V22c0-1.7,1.3-3,3-3h50c1.7,0,3,1.3,3,3V129z"/>
	</g>
</g>
<g>
	<path fill="#FFFFFF" d="M738.4,75.1L738.4,75.1c-5.8,0-10.6-4.8-10.6-10.6v0c0-5.8,4.8-10.6,10.6-10.6l0,0
		c5.8,0,10.6,4.8,10.6,10.6v0C749,70.3,744.2,75.1,738.4,75.1z"/>
</g>
<g>
	<path fill="#FFFFFF" d="M341.9,490.9L341.9,490.9c-5.8,0-10.6-4.8-10.6-10.6v0c0-5.8,4.8-10.6,10.6-10.6h0
		c5.8,0,10.6,4.8,10.6,10.6v0C352.4,486.1,347.7,490.9,341.9,490.9z"/>
</g>
<g>
	<path fill="#FFFFFF" d="M415,490.9L415,490.9c-5.8,0-10.6-4.8-10.6-10.6v0c0-5.8,4.8-10.6,10.6-10.6l0,0c5.8,0,10.6,4.8,10.6,10.6
		v0C425.6,486.1,420.8,490.9,415,490.9z"/>
</g>
<g>
	<path fill="#FFFFFF" d="M489.1,490.9L489.1,490.9c-5.8,0-10.6-4.8-10.6-10.6v0c0-5.8,4.8-10.6,10.6-10.6h0
		c5.8,0,10.6,4.8,10.6,10.6v0C499.7,486.1,494.9,490.9,489.1,490.9z"/>
</g>
<g>
	<path fill="#FFFFFF" d="M564.2,490.9L564.2,490.9c-5.8,0-10.6-4.8-10.6-10.6v0c0-5.8,4.8-10.6,10.6-10.6l0,0
		c5.8,0,10.6,4.8,10.6,10.6v0C574.8,486.1,570,490.9,564.2,490.9z"/>
</g>
<g>
	<g>
		<g>
			<g>
				<path fill="none" stroke="#455A64" stroke-miterlimit="10" d="M740.2,27.7"/>
			</g>
		</g>
	</g>
</g>
<g>
	<g>
		<g>
			<g>
				<path fill="none" stroke="#455A64" stroke-miterlimit="10" d="M708.6,27.7"/>
			</g>
		</g>
	</g>
</g>
<g>
	<g>
		<path fill="#81C784" d="M828,129c0,1.7-1.3,3-3,3h-49c-1.7,0-3-1.3-3-3V22c0-1.7,1.3-3,3-3h49c1.7,0,3,1.3,3,3V129z"/>
	</g>
</g>
<g>
	<path fill="#FFFFFF" d="M801.9,75.1L801.9,75.1c-5.8,0-10.6-4.8-10.6-10.6v0c0-5.8,4.8-10.6,10.6-10.6l0,0
		c5.8,0,10.6,4.8,10.6,10.6v0C812.5,70.3,807.8,75.1,801.9,75.1z"/>
</g>
<g>
	<g>
		<g>
			<g>
				<path fill="none" stroke="#455A64" stroke-miterlimit="10" d="M803.7,27.7"/>
			</g>
		</g>
	</g>
</g>
<g>
	<g>
		<g>
			<g>
				<path fill="none" stroke="#455A64" stroke-miterlimit="10" d="M771.8,27.7"/>
			</g>
		</g>
	</g>
</g>
<g>
	<g>
		<path fill="#81C784" d="M892,129c0,1.7-1.3,3-3,3h-49c-1.7,0-3-1.3-3-3V22c0-1.7,1.3-3,3-3h49c1.7,0,3,1.3,3,3V129z"/>
	</g>
</g>
<g>
	<path fill="#FFFFFF" d="M865.5,75.1L865.5,75.1c-5.8,0-10.6-4.8-10.6-10.6v0c0-5.8,4.8-10.6,10.6-10.6h0c5.8,0,10.6,4.8,10.6,10.6
		v0C876,70.3,871.3,75.1,865.5,75.1z"/>
</g>
<g>
	<g>
		<g>
			<g>
				<path fill="none" stroke="#455A64" stroke-miterlimit="10" d="M866.9,27.7"/>
			</g>
		</g>
	</g>
</g>
<g>
	<g>
		<g>
			<g>
				<path fill="none" stroke="#455A64" stroke-miterlimit="10" d="M836.8,27.7"/>
			</g>
		</g>
	</g>
</g>
<g>
	<g>
		<path fill="#81C784" d="M955,129c0,1.7-1.3,3-3,3h-49c-1.7,0-3-1.3-3-3V22c0-1.7,1.3-3,3-3h49c1.7,0,3,1.3,3,3V129z"/>
	</g>
</g>
<g>
	<g>
		<g>
			<g>
				<path fill="none" stroke="#455A64" stroke-miterlimit="10" d="M930.7,27.7"/>
			</g>
		</g>
	</g>
</g>
<g>
	<path fill="#FFFFFF" d="M929,75.1L929,75.1c-5.8,0-10.6-4.8-10.6-10.6v0c0-5.8,4.8-10.6,10.6-10.6h0c5.8,0,10.6,4.8,10.6,10.6v0
		C939.6,70.3,934.8,75.1,929,75.1z"/>
</g>
<g>
	<g>
		<g>
			<g>
				<path fill="none" stroke="#455A64" stroke-miterlimit="10" d="M900.1,27.7"/>
			</g>
		</g>
	</g>
</g>
<g>
	<g>
		<path fill="#64B5F6" d="M956,524c0,1.7-1.3,3-3,3h-49c-1.7,0-3-1.3-3-3V418c0-1.7,1.3-3,3-3h49c1.7,0,3,1.3,3,3V524z"/>
	</g>
</g>
<g>
	<g>
		<path fill="#81C784" d="M892,524c0,1.7-1.3,3-3,3h-50c-1.7,0-3-1.3-3-3V418c0-1.7,1.3-3,3-3h50c1.7,0,3,1.3,3,3V524z"/>
	</g>
</g>
<g>
	<g>
		<path fill="#81C784" d="M828,524c0,1.7-1.3,3-3,3h-49c-1.7,0-3-1.3-3-3V418c0-1.7,1.3-3,3-3h49c1.7,0,3,1.3,3,3V524z"/>
	</g>
</g>
<g>
	<g>
		<path fill="#81C784" d="M764,524c0,1.7-1.3,3-3,3h-49c-1.7,0-3-1.3-3-3V418c0-1.7,1.3-3,3-3h49c1.7,0,3,1.3,3,3V524z"/>
	</g>
</g>
<g>
	<g>
		<path fill="#64B5F6" d="M702,524c0,1.7-1.3,3-3,3h-50c-1.7,0-3-1.3-3-3V418c0-1.7,1.3-3,3-3h50c1.7,0,3,1.3,3,3V524z"/>
	</g>
</g>
<g>
	<g>
		<path fill="#81C784" d="M107,266c0,1.7-1.3,3-3,3H73c-1.7,0-3-1.3-3-3v-83c0-1.7,1.3-3,3-3h31c1.7,0,3,1.3,3,3V266z"/>
	</g>
</g>
<g>
	<g>
		<path fill="#81C784" d="M156,266c0,1.7-1.3,3-3,3h-31c-1.7,0-3-1.3-3-3v-83c0-1.7,1.3-3,3-3h31c1.7,0,3,1.3,3,3V266z"/>
	</g>
</g>
<g>
	<g>
		<path fill="#81C784" d="M204,266c0,1.7-1.3,3-3,3h-31c-1.7,0-3-1.3-3-3v-83c0-1.7,1.3-3,3-3h31c1.7,0,3,1.3,3,3V266z"/>
	</g>
</g>
<g>
	<g>
		<path fill="#81C784" d="M252,266c0,1.7-1.3,3-3,3h-31c-1.7,0-3-1.3-3-3v-83c0-1.7,1.3-3,3-3h31c1.7,0,3,1.3,3,3V266z"/>
	</g>
</g>
<g>
	<g>
		<path fill="#81C784" d="M302,266c0,1.7-1.3,3-3,3h-31c-1.7,0-3-1.3-3-3v-83c0-1.7,1.3-3,3-3h31c1.7,0,3,1.3,3,3V266z"/>
	</g>
</g>
<g>
	<g>
		<path fill="#81C784" d="M348,266c0,1.7-1.3,3-3,3h-31c-1.7,0-3-1.3-3-3v-83c0-1.7,1.3-3,3-3h31c1.7,0,3,1.3,3,3V266z"/>
	</g>
</g>
<g>
	<g>
		<path fill="#81C784" d="M397,266c0,1.7-1.3,3-3,3h-31c-1.7,0-3-1.3-3-3v-83c0-1.7,1.3-3,3-3h31c1.7,0,3,1.3,3,3V266z"/>
	</g>
</g>
<g>
	<g>
		<path fill="#81C784" d="M447,266c0,1.7-1.3,3-3,3h-31c-1.7,0-3-1.3-3-3v-83c0-1.7,1.3-3,3-3h31c1.7,0,3,1.3,3,3V266z"/>
	</g>
</g>
<g>
	<g>
		<path fill="#81C784" d="M494,266c0,1.7-1.3,3-3,3h-31c-1.7,0-3-1.3-3-3v-83c0-1.7,1.3-3,3-3h31c1.7,0,3,1.3,3,3V266z"/>
	</g>
</g>
<g>
	<g>
		<path fill="#81C784" d="M543,266c0,1.7-1.3,3-3,3h-31c-1.7,0-3-1.3-3-3v-83c0-1.7,1.3-3,3-3h31c1.7,0,3,1.3,3,3V266z"/>
	</g>
</g>
<g>
	<g>
		<path fill="#81C784" d="M590,266c0,1.7-1.3,3-3,3h-31c-1.7,0-3-1.3-3-3v-83c0-1.7,1.3-3,3-3h31c1.7,0,3,1.3,3,3V266z"/>
	</g>
</g>
<g>
	<g>
		<path fill="#81C784" d="M590,363c0,1.7-1.3,3-3,3h-31c-1.7,0-3-1.3-3-3v-83c0-1.7,1.3-3,3-3h31c1.7,0,3,1.3,3,3V363z"/>
	</g>
</g>
<g>
	<g>
		<path fill="#81C784" d="M543,363c0,1.7-1.3,3-3,3h-31c-1.7,0-3-1.3-3-3v-83c0-1.7,1.3-3,3-3h31c1.7,0,3,1.3,3,3V363z"/>
	</g>
</g>
<g>
	<g>
		<path fill="#81C784" d="M494,363c0,1.7-1.3,3-3,3h-31c-1.7,0-3-1.3-3-3v-83c0-1.7,1.3-3,3-3h31c1.7,0,3,1.3,3,3V363z"/>
	</g>
</g>
<g>
	<g>
		<path fill="#81C784" d="M447,363c0,1.7-1.3,3-3,3h-31c-1.7,0-3-1.3-3-3v-83c0-1.7,1.3-3,3-3h31c1.7,0,3,1.3,3,3V363z"/>
	</g>
</g>
<g>
	<g>
		<path fill="#81C784" d="M397,363c0,1.7-1.3,3-3,3h-31c-1.7,0-3-1.3-3-3v-83c0-1.7,1.3-3,3-3h31c1.7,0,3,1.3,3,3V363z"/>
	</g>
</g>
<g>
	<g>
		<path fill="#81C784" d="M348,363c0,1.7-1.3,3-3,3h-31c-1.7,0-3-1.3-3-3v-83c0-1.7,1.3-3,3-3h31c1.7,0,3,1.3,3,3V363z"/>
	</g>
</g>
<g>
	<g>
		<path fill="#81C784" d="M682,266c0,1.7-1.3,3-3,3h-30c-1.7,0-3-1.3-3-3v-83c0-1.7,1.3-3,3-3h30c1.7,0,3,1.3,3,3V266z"/>
	</g>
</g>
<g>
	<g>
		<path fill="#81C784" d="M728,266c0,1.7-1.3,3-3,3h-30c-1.7,0-3-1.3-3-3v-83c0-1.7,1.3-3,3-3h30c1.7,0,3,1.3,3,3V266z"/>
	</g>
</g>
<g>
	<g>
		<path fill="#81C784" d="M773,266c0,1.7-1.3,3-3,3h-30c-1.7,0-3-1.3-3-3v-83c0-1.7,1.3-3,3-3h30c1.7,0,3,1.3,3,3V266z"/>
	</g>
</g>
<g>
	<g>
		<path fill="#81C784" d="M819,266c0,1.7-1.3,3-3,3h-30c-1.7,0-3-1.3-3-3v-83c0-1.7,1.3-3,3-3h30c1.7,0,3,1.3,3,3V266z"/>
	</g>
</g>
<g>
	<g>
		<path fill="#81C784" d="M864,266c0,1.7-1.3,3-3,3h-30c-1.7,0-3-1.3-3-3v-83c0-1.7,1.3-3,3-3h30c1.7,0,3,1.3,3,3V266z"/>
	</g>
</g>
<g>
	<g>
		<path fill="#81C784" d="M912,266c0,1.7-1.3,3-3,3h-30c-1.7,0-3-1.3-3-3v-83c0-1.7,1.3-3,3-3h30c1.7,0,3,1.3,3,3V266z"/>
	</g>
</g>
<g>
	<g>
		<path fill="#81C784" d="M956,266c0,1.7-1.3,3-3,3h-30c-1.7,0-3-1.3-3-3v-83c0-1.7,1.3-3,3-3h30c1.7,0,3,1.3,3,3V266z"/>
	</g>
</g>
<g>
	<g>
		<path fill="#64B5F6" d="M956,363c0,1.7-1.3,3-3,3h-30c-1.7,0-3-1.3-3-3v-83c0-1.7,1.3-3,3-3h30c1.7,0,3,1.3,3,3V363z"/>
	</g>
</g>
<g>
	<g>
		<path fill="#64B5F6" d="M912,363c0,1.7-1.3,3-3,3h-30c-1.7,0-3-1.3-3-3v-83c0-1.7,1.3-3,3-3h30c1.7,0,3,1.3,3,3V363z"/>
	</g>
</g>
<g>
	<g>
		<path fill="#64B5F6" d="M864,363c0,1.7-1.3,3-3,3h-30c-1.7,0-3-1.3-3-3v-83c0-1.7,1.3-3,3-3h30c1.7,0,3,1.3,3,3V363z"/>
	</g>
</g>
<g>
	<g>
		<path fill="#81C784" d="M819,363c0,1.7-1.3,3-3,3h-30c-1.7,0-3-1.3-3-3v-83c0-1.7,1.3-3,3-3h30c1.7,0,3,1.3,3,3V363z"/>
	</g>
</g>
<g>
	<g>
		<path fill="#81C784" d="M773,363c0,1.7-1.3,3-3,3h-30c-1.7,0-3-1.3-3-3v-83c0-1.7,1.3-3,3-3h30c1.7,0,3,1.3,3,3V363z"/>
	</g>
</g>
<g>
	<g>
		<path fill="#81C784" d="M728,363c0,1.7-1.3,3-3,3h-30c-1.7,0-3-1.3-3-3v-83c0-1.7,1.3-3,3-3h30c1.7,0,3,1.3,3,3V363z"/>
	</g>
</g>
<g>
	<g>
		<path fill="#81C784" d="M682,363c0,1.7-1.3,3-3,3h-30c-1.7,0-3-1.3-3-3v-83c0-1.7,1.3-3,3-3h30c1.7,0,3,1.3,3,3V363z"/>
	</g>
</g>
<g>
	<g>
		<path fill="#81C784" d="M302,363c0,1.7-1.3,3-3,3h-31c-1.7,0-3-1.3-3-3v-83c0-1.7,1.3-3,3-3h31c1.7,0,3,1.3,3,3V363z"/>
	</g>
</g>
<g>
	<g>
		<path fill="#64B5F6" d="M252,363c0,1.7-1.3,3-3,3h-31c-1.7,0-3-1.3-3-3v-83c0-1.7,1.3-3,3-3h31c1.7,0,3,1.3,3,3V363z"/>
	</g>
</g>
<g>
	<g>
		<path fill="#81C784" d="M204,363c0,1.7-1.3,3-3,3h-31c-1.7,0-3-1.3-3-3v-83c0-1.7,1.3-3,3-3h31c1.7,0,3,1.3,3,3V363z"/>
	</g>
</g>
<g>
	<g>
		<path fill="#81C784" d="M156,363c0,1.7-1.3,3-3,3h-31c-1.7,0-3-1.3-3-3v-83c0-1.7,1.3-3,3-3h31c1.7,0,3,1.3,3,3V363z"/>
	</g>
</g>
<g>
	<g>
		<path fill="#81C784" d="M107,363c0,1.7-1.3,3-3,3H73c-1.7,0-3-1.3-3-3v-83c0-1.7,1.3-3,3-3h31c1.7,0,3,1.3,3,3V363z"/>
	</g>
</g>
<g>
	<g>
		<path fill="#81C784" d="M59,266c0,1.7-1.3,3-3,3H25c-1.7,0-3-1.3-3-3v-83c0-1.7,1.3-3,3-3h31c1.7,0,3,1.3,3,3V266z"/>
	</g>
</g>
<g>
	<g>
		<path fill="#81C784" d="M59,363c0,1.7-1.3,3-3,3H25c-1.7,0-3-1.3-3-3v-83c0-1.7,1.3-3,3-3h31c1.7,0,3,1.3,3,3V363z"/>
	</g>
</g>
<g>
	<path fill="#FFFFFF" d="M40.6,314.7L40.6,314.7c-5.8,0-10.6-4.8-10.6-10.6v0c0-5.8,4.8-10.6,10.6-10.6h0c5.8,0,10.6,4.8,10.6,10.6
		v0C51.2,310,46.4,314.7,40.6,314.7z"/>
</g>
<g>
	<path fill="#FFFFFF" d="M88.9,314.7L88.9,314.7c-5.8,0-10.6-4.8-10.6-10.6v0c0-5.8,4.8-10.6,10.6-10.6h0c5.8,0,10.6,4.8,10.6,10.6
		v0C99.5,310,94.7,314.7,88.9,314.7z"/>
</g>
<g>
	<path fill="#FFFFFF" d="M137,314.7L137,314.7c-5.8,0-10.6-4.8-10.6-10.6v0c0-5.8,4.8-10.6,10.6-10.6h0c5.8,0,10.6,4.8,10.6,10.6v0
		C147.6,310,142.9,314.7,137,314.7z"/>
</g>
<g>
	<path fill="#FFFFFF" d="M185.2,314.7L185.2,314.7c-5.8,0-10.6-4.8-10.6-10.6v0c0-5.8,4.8-10.6,10.6-10.6h0
		c5.8,0,10.6,4.8,10.6,10.6v0C195.8,310,191,314.7,185.2,314.7z"/>
</g>
<g>
	<path fill="#FFFFFF" d="M233.4,314.7L233.4,314.7c-5.8,0-10.6-4.8-10.6-10.6v0c0-5.8,4.8-10.6,10.6-10.6h0
		c5.8,0,10.6,4.8,10.6,10.6v0C244,310,239.2,314.7,233.4,314.7z"/>
</g>
<g>
	<path fill="#FFFFFF" d="M282.6,314.7L282.6,314.7c-5.8,0-10.6-4.8-10.6-10.6v0c0-5.8,4.8-10.6,10.6-10.6l0,0
		c5.8,0,10.6,4.8,10.6,10.6v0C293.2,310,288.4,314.7,282.6,314.7z"/>
</g>
<g>
	<path fill="#FFFFFF" d="M329.7,314.7L329.7,314.7c-5.8,0-10.6-4.8-10.6-10.6v0c0-5.8,4.8-10.6,10.6-10.6h0
		c5.8,0,10.6,4.8,10.6,10.6v0C340.3,310,335.6,314.7,329.7,314.7z"/>
</g>
<g>
	<path fill="#FFFFFF" d="M378.9,314.7L378.9,314.7c-5.8,0-10.6-4.8-10.6-10.6v0c0-5.8,4.8-10.6,10.6-10.6l0,0
		c5.8,0,10.6,4.8,10.6,10.6v0C389.5,310,384.7,314.7,378.9,314.7z"/>
</g>
<g>
	<path fill="#FFFFFF" d="M428.1,314.7L428.1,314.7c-5.8,0-10.6-4.8-10.6-10.6v0c0-5.8,4.8-10.6,10.6-10.6h0
		c5.8,0,10.6,4.8,10.6,10.6v0C438.7,310,433.9,314.7,428.1,314.7z"/>
</g>
<g>
	<path fill="#FFFFFF" d="M475.3,314.7L475.3,314.7c-5.8,0-10.6-4.8-10.6-10.6v0c0-5.8,4.8-10.6,10.6-10.6l0,0
		c5.8,0,10.6,4.8,10.6,10.6v0C485.9,310,481.1,314.7,475.3,314.7z"/>
</g>
<g>
	<path fill="#FFFFFF" d="M524.4,314.7L524.4,314.7c-5.8,0-10.6-4.8-10.6-10.6v0c0-5.8,4.8-10.6,10.6-10.6l0,0
		c5.8,0,10.6,4.8,10.6,10.6v0C535,310,530.3,314.7,524.4,314.7z"/>
</g>
<g>
	<path fill="#FFFFFF" d="M572.6,314.7L572.6,314.7c-5.8,0-10.6-4.8-10.6-10.6v0c0-5.8,4.8-10.6,10.6-10.6l0,0
		c5.8,0,10.6,4.8,10.6,10.6v0C583.2,310,578.4,314.7,572.6,314.7z"/>
</g>
<g>
	<path fill="#FFFFFF" d="M664.3,314.7L664.3,314.7c-5.8,0-10.6-4.8-10.6-10.6v0c0-5.8,4.8-10.6,10.6-10.6l0,0
		c5.8,0,10.6,4.8,10.6,10.6v0C674.9,310,670.1,314.7,664.3,314.7z"/>
</g>
<g>
	<path fill="#FFFFFF" d="M709.5,314.7L709.5,314.7c-5.8,0-10.6-4.8-10.6-10.6v0c0-5.8,4.8-10.6,10.6-10.6l0,0
		c5.8,0,10.6,4.8,10.6,10.6v0C720.1,310,715.4,314.7,709.5,314.7z"/>
</g>
<g>
	<path fill="#FFFFFF" d="M755.7,314.7L755.7,314.7c-5.8,0-10.6-4.8-10.6-10.6v0c0-5.8,4.8-10.6,10.6-10.6l0,0
		c5.8,0,10.6,4.8,10.6,10.6v0C766.3,310,761.6,314.7,755.7,314.7z"/>
</g>
<g>
	<path fill="#FFFFFF" d="M801,314.7L801,314.7c-5.8,0-10.6-4.8-10.6-10.6v0c0-5.8,4.8-10.6,10.6-10.6l0,0c5.8,0,10.6,4.8,10.6,10.6
		v0C811.6,310,806.8,314.7,801,314.7z"/>
</g>
<g>
	<path fill="#FFFFFF" d="M847.2,314.7L847.2,314.7c-5.8,0-10.6-4.8-10.6-10.6v0c0-5.8,4.8-10.6,10.6-10.6l0,0
		c5.8,0,10.6,4.8,10.6,10.6v0C857.8,310,853,314.7,847.2,314.7z"/>
</g>
<g>
	<path fill="#FFFFFF" d="M893.4,314.7L893.4,314.7c-5.8,0-10.6-4.8-10.6-10.6v0c0-5.8,4.8-10.6,10.6-10.6l0,0
		c5.8,0,10.6,4.8,10.6,10.6v0C904,310,899.2,314.7,893.4,314.7z"/>
</g>
<g>
	<path fill="#FFFFFF" d="M938.6,314.7L938.6,314.7c-5.8,0-10.6-4.8-10.6-10.6v0c0-5.8,4.8-10.6,10.6-10.6h0
		c5.8,0,10.6,4.8,10.6,10.6v0C949.2,310,944.4,314.7,938.6,314.7z"/>
</g>
<g>
	<path fill="#FFFFFF" d="M40.6,253.1L40.6,253.1c-5.8,0-10.6-4.8-10.6-10.6v0c0-5.8,4.8-10.6,10.6-10.6h0c5.8,0,10.6,4.8,10.6,10.6
		v0C51.2,248.4,46.4,253.1,40.6,253.1z"/>
</g>
<g>
	<path fill="#FFFFFF" d="M84.9,253.1L84.9,253.1c-5.8,0-10.6-4.8-10.6-10.6v0c0-5.8,4.8-10.6,10.6-10.6h0c5.8,0,10.6,4.8,10.6,10.6
		v0C95.5,248.4,90.7,253.1,84.9,253.1z"/>
</g>
<g>
	<path fill="#FFFFFF" d="M137.1,253.1L137.1,253.1c-5.8,0-10.6-4.8-10.6-10.6v0c0-5.8,4.8-10.6,10.6-10.6h0
		c5.8,0,10.6,4.8,10.6,10.6v0C147.7,248.4,143,253.1,137.1,253.1z"/>
</g>
<g>
	<path fill="#FFFFFF" d="M184.4,253.1L184.4,253.1c-5.8,0-10.6-4.8-10.6-10.6v0c0-5.8,4.8-10.6,10.6-10.6h0
		c5.8,0,10.6,4.8,10.6,10.6v0C195,248.4,190.2,253.1,184.4,253.1z"/>
</g>
<g>
	<path fill="#FFFFFF" d="M231.6,253.1L231.6,253.1c-5.8,0-10.6-4.8-10.6-10.6v0c0-5.8,4.8-10.6,10.6-10.6h0
		c5.8,0,10.6,4.8,10.6,10.6v0C242.2,248.4,237.4,253.1,231.6,253.1z"/>
</g>
<g>
	<path fill="#FFFFFF" d="M282.9,253.1L282.9,253.1c-5.8,0-10.6-4.8-10.6-10.6v0c0-5.8,4.8-10.6,10.6-10.6l0,0
		c5.8,0,10.6,4.8,10.6,10.6v0C293.4,248.4,288.7,253.1,282.9,253.1z"/>
</g>
<g>
	<path fill="#FFFFFF" d="M329.1,253.1L329.1,253.1c-5.8,0-10.6-4.8-10.6-10.6v0c0-5.8,4.8-10.6,10.6-10.6h0
		c5.8,0,10.6,4.8,10.6,10.6v0C339.7,248.4,335,253.1,329.1,253.1z"/>
</g>
<g>
	<path fill="#FFFFFF" d="M378.4,253.1L378.4,253.1c-5.8,0-10.6-4.8-10.6-10.6v0c0-5.8,4.8-10.6,10.6-10.6l0,0
		c5.8,0,10.6,4.8,10.6,10.6v0C389,248.4,384.2,253.1,378.4,253.1z"/>
</g>
<g>
	<path fill="#FFFFFF" d="M427.6,253.1L427.6,253.1c-5.8,0-10.6-4.8-10.6-10.6v0c0-5.8,4.8-10.6,10.6-10.6h0
		c5.8,0,10.6,4.8,10.6,10.6v0C438.2,248.4,433.4,253.1,427.6,253.1z"/>
</g>
<g>
	<path fill="#FFFFFF" d="M474.8,253.1L474.8,253.1c-5.8,0-10.6-4.8-10.6-10.6v0c0-5.8,4.8-10.6,10.6-10.6h0
		c5.8,0,10.6,4.8,10.6,10.6v0C485.4,248.4,480.7,253.1,474.8,253.1z"/>
</g>
<g>
	<path fill="#FFFFFF" d="M524.1,253.1L524.1,253.1c-5.8,0-10.6-4.8-10.6-10.6v0c0-5.8,4.8-10.6,10.6-10.6l0,0
		c5.8,0,10.6,4.8,10.6,10.6v0C534.7,248.4,529.9,253.1,524.1,253.1z"/>
</g>
<g>
	<path fill="#FFFFFF" d="M570.4,253.1L570.4,253.1c-5.8,0-10.6-4.8-10.6-10.6v0c0-5.8,4.8-10.6,10.6-10.6h0
		c5.8,0,10.6,4.8,10.6,10.6v0C580.9,248.4,576.2,253.1,570.4,253.1z"/>
</g>
<g>
	<path fill="#FFFFFF" d="M664.3,253.1L664.3,253.1c-5.8,0-10.6-4.8-10.6-10.6v0c0-5.8,4.8-10.6,10.6-10.6l0,0
		c5.8,0,10.6,4.8,10.6,10.6v0C674.9,248.4,670.1,253.1,664.3,253.1z"/>
</g>
<g>
	<path fill="#FFFFFF" d="M709.5,253.1L709.5,253.1c-5.8,0-10.6-4.8-10.6-10.6v0c0-5.8,4.8-10.6,10.6-10.6l0,0
		c5.8,0,10.6,4.8,10.6,10.6v0C720.1,248.4,715.4,253.1,709.5,253.1z"/>
</g>
<g>
	<path fill="#FFFFFF" d="M755.7,253.1L755.7,253.1c-5.8,0-10.6-4.8-10.6-10.6v0c0-5.8,4.8-10.6,10.6-10.6l0,0
		c5.8,0,10.6,4.8,10.6,10.6v0C766.3,248.4,761.6,253.1,755.7,253.1z"/>
</g>
<g>
	<path fill="#FFFFFF" d="M801,253.1L801,253.1c-5.8,0-10.6-4.8-10.6-10.6v0c0-5.8,4.8-10.6,10.6-10.6l0,0c5.8,0,10.6,4.8,10.6,10.6
		v0C811.6,248.4,806.8,253.1,801,253.1z"/>
</g>
<g>
	<path fill="#FFFFFF" d="M847.2,253.1L847.2,253.1c-5.8,0-10.6-4.8-10.6-10.6v0c0-5.8,4.8-10.6,10.6-10.6l0,0
		c5.8,0,10.6,4.8,10.6,10.6v0C857.8,248.4,853,253.1,847.2,253.1z"/>
</g>
<g>
	<path fill="#FFFFFF" d="M893.4,253.1L893.4,253.1c-5.8,0-10.6-4.8-10.6-10.6v0c0-5.8,4.8-10.6,10.6-10.6l0,0
		c5.8,0,10.6,4.8,10.6,10.6v0C904,248.4,899.2,253.1,893.4,253.1z"/>
</g>
<g>
	<path fill="#FFFFFF" d="M938.6,253.1L938.6,253.1c-5.8,0-10.6-4.8-10.6-10.6v0c0-5.8,4.8-10.6,10.6-10.6h0
		c5.8,0,10.6,4.8,10.6,10.6v0C949.2,248.4,944.4,253.1,938.6,253.1z"/>
</g>
<g>
	<g>
		<path fill="#37474F" d="M51.2,68.5h-1.5v-6h-1.5v-1l2.9-0.3V68.5z"/>
	</g>
</g>
<g>
	<g>
		<path fill="#37474F" d="M127.8,68.5h-5v-1l2.3-2.5c0.3-0.4,0.6-0.7,0.7-1c0.1-0.3,0.2-0.5,0.2-0.7c0-0.3-0.1-0.6-0.2-0.8
			c-0.2-0.2-0.4-0.3-0.7-0.3c-0.3,0-0.6,0.1-0.8,0.3c-0.2,0.2-0.3,0.5-0.3,0.9h-1.4l0,0c0-0.7,0.2-1.2,0.6-1.7
			c0.4-0.5,1-0.7,1.8-0.7c0.7,0,1.3,0.2,1.8,0.6c0.4,0.4,0.6,0.9,0.6,1.6c0,0.4-0.1,0.8-0.4,1.2c-0.2,0.4-0.6,0.9-1.2,1.5l-1.3,1.4
			l0,0h3.1V68.5z"/>
	</g>
</g>
<g>
	<g>
		<path fill="#37474F" d="M198.6,64.3h0.8c0.3,0,0.6-0.1,0.8-0.3c0.2-0.2,0.2-0.4,0.2-0.8c0-0.3-0.1-0.5-0.2-0.7
			c-0.2-0.2-0.4-0.3-0.7-0.3c-0.3,0-0.5,0.1-0.7,0.2c-0.2,0.2-0.3,0.4-0.3,0.6h-1.4l0,0c0-0.6,0.2-1,0.7-1.4c0.5-0.4,1-0.6,1.7-0.6
			c0.8,0,1.4,0.2,1.8,0.5c0.4,0.4,0.7,0.9,0.7,1.5c0,0.3-0.1,0.6-0.3,0.9c-0.2,0.3-0.5,0.5-0.8,0.7c0.4,0.1,0.7,0.4,0.9,0.7
			c0.2,0.3,0.3,0.6,0.3,1c0,0.7-0.2,1.2-0.7,1.6c-0.5,0.4-1.1,0.6-1.9,0.6c-0.7,0-1.3-0.2-1.7-0.5s-0.7-0.9-0.7-1.5l0,0h1.4
			c0,0.3,0.1,0.5,0.3,0.7c0.2,0.2,0.5,0.3,0.8,0.3c0.3,0,0.6-0.1,0.8-0.3c0.2-0.2,0.3-0.4,0.3-0.8c0-0.4-0.1-0.7-0.3-0.8
			c-0.2-0.2-0.5-0.3-0.8-0.3h-0.8V64.3z"/>
	</g>
</g>
<g>
	<g>
		<path fill="#37474F" d="M273.3,65.8h0.8V67h-0.8v1.6h-1.5V67h-3l-0.1-0.9l3-4.8h1.5V65.8z M270.1,65.8h1.7v-2.6l0,0l-0.1,0.2
			L270.1,65.8z"/>
	</g>
</g>
<g>
	<g>
		<path fill="#37474F" d="M342.7,65.3l0.4-4h4v1.2h-2.9l-0.2,1.7c0.1-0.1,0.3-0.2,0.5-0.2s0.4-0.1,0.6-0.1c0.7,0,1.2,0.2,1.6,0.6
			c0.4,0.4,0.6,1,0.6,1.8c0,0.7-0.2,1.3-0.6,1.7c-0.4,0.5-1,0.7-1.8,0.7c-0.7,0-1.2-0.2-1.7-0.5c-0.5-0.4-0.7-0.9-0.7-1.5l0,0
			l1.4-0.1c0,0.3,0.1,0.6,0.3,0.8c0.2,0.2,0.4,0.3,0.7,0.3c0.3,0,0.6-0.1,0.8-0.4c0.2-0.2,0.2-0.6,0.2-0.9c0-0.4-0.1-0.8-0.3-1
			c-0.2-0.3-0.4-0.4-0.8-0.4c-0.3,0-0.5,0.1-0.6,0.2c-0.1,0.1-0.3,0.2-0.3,0.4L342.7,65.3z"/>
	</g>
</g>
<g>
	<g>
		<path fill="#37474F" d="M419.7,61.2c0.3,0,0.5,0,0.8,0.1c0.2,0.1,0.5,0.1,0.7,0.2l-0.3,1.1c-0.2-0.1-0.4-0.1-0.6-0.2
			c-0.2,0-0.4-0.1-0.6-0.1c-0.4,0-0.8,0.2-1.1,0.5c-0.3,0.3-0.4,0.8-0.4,1.4l0,0c0.2-0.2,0.4-0.3,0.6-0.4s0.5-0.1,0.8-0.1
			c0.6,0,1.2,0.2,1.5,0.7c0.4,0.5,0.6,1,0.6,1.8c0,0.7-0.2,1.3-0.7,1.8c-0.5,0.5-1,0.7-1.8,0.7c-0.8,0-1.4-0.3-1.9-0.8
			c-0.5-0.5-0.7-1.2-0.7-2.2v-1.4c0-1,0.3-1.7,0.8-2.3S418.9,61.2,419.7,61.2z M419.4,64.8c-0.3,0-0.5,0-0.7,0.1s-0.3,0.2-0.4,0.4
			v0.5c0,0.6,0.1,1,0.3,1.3c0.2,0.3,0.5,0.5,0.8,0.5c0.3,0,0.5-0.1,0.7-0.4c0.2-0.3,0.3-0.6,0.3-1c0-0.4-0.1-0.7-0.3-1
			C419.9,64.9,419.7,64.8,419.4,64.8z"/>
	</g>
</g>
<g>
	<g>
		<path fill="#37474F" d="M493.4,62.4c-0.8,0.9-1.3,1.8-1.6,2.5c-0.3,0.8-0.5,1.7-0.6,2.9l-0.1,0.7h-1.5l0.1-0.7
			c0.1-1.1,0.4-2,0.7-2.9c0.4-0.9,0.9-1.7,1.5-2.5h-3.7v-1.1h5.1V62.4z"/>
	</g>
</g>
<g>
	<g>
		<path fill="#37474F" d="M566.3,63.2c0,0.4-0.1,0.7-0.3,1c-0.2,0.3-0.5,0.5-0.8,0.7c0.4,0.2,0.7,0.4,0.9,0.7c0.2,0.3,0.3,0.6,0.3,1
			c0,0.7-0.2,1.2-0.7,1.5c-0.5,0.4-1,0.5-1.8,0.5c-0.7,0-1.3-0.2-1.8-0.5c-0.5-0.4-0.7-0.9-0.7-1.5c0-0.4,0.1-0.7,0.3-1
			c0.2-0.3,0.5-0.5,0.9-0.7c-0.3-0.2-0.6-0.4-0.8-0.7c-0.2-0.3-0.3-0.6-0.3-1c0-0.6,0.2-1.1,0.6-1.5c0.4-0.4,1-0.5,1.7-0.5
			c0.7,0,1.2,0.2,1.7,0.5C566.1,62,566.3,62.5,566.3,63.2z M565.1,66.4c0-0.3-0.1-0.6-0.3-0.8c-0.2-0.2-0.4-0.3-0.7-0.3
			c-0.3,0-0.6,0.1-0.7,0.3s-0.3,0.5-0.3,0.8c0,0.3,0.1,0.6,0.3,0.8c0.2,0.2,0.4,0.3,0.7,0.3c0.3,0,0.5-0.1,0.7-0.3
			C565,67,565.1,66.8,565.1,66.4z M564.9,63.3c0-0.3-0.1-0.5-0.2-0.7s-0.4-0.3-0.6-0.3c-0.3,0-0.5,0.1-0.6,0.3s-0.2,0.4-0.2,0.7
			c0,0.3,0.1,0.5,0.2,0.7c0.2,0.2,0.4,0.3,0.6,0.3c0.3,0,0.5-0.1,0.6-0.3C564.8,63.8,564.9,63.6,564.9,63.3z"/>
	</g>
</g>
<g>
	<path fill="#FFFFFF" d="M674.9,490.9L674.9,490.9c-5.8,0-10.6-4.8-10.6-10.6v0c0-5.8,4.8-10.6,10.6-10.6h0
		c5.8,0,10.6,4.8,10.6,10.6v0C685.5,486.1,680.7,490.9,674.9,490.9z"/>
</g>
<g>
	<path fill="#FFFFFF" d="M737.4,490.9L737.4,490.9c-5.8,0-10.6-4.8-10.6-10.6v0c0-5.8,4.8-10.6,10.6-10.6h0
		c5.8,0,10.6,4.8,10.6,10.6v0C748,486.1,743.3,490.9,737.4,490.9z"/>
</g>
<g>
	<path fill="#FFFFFF" d="M801,490.9L801,490.9c-5.8,0-10.6-4.8-10.6-10.6v0c0-5.8,4.8-10.6,10.6-10.6l0,0c5.8,0,10.6,4.8,10.6,10.6
		v0C811.6,486.1,806.8,490.9,801,490.9z"/>
</g>
<g>
	<path fill="#FFFFFF" d="M864.5,490.9L864.5,490.9c-5.8,0-10.6-4.8-10.6-10.6v0c0-5.8,4.8-10.6,10.6-10.6l0,0
		c5.8,0,10.6,4.8,10.6,10.6v0C875.1,486.1,870.3,490.9,864.5,490.9z"/>
</g>
<g>
	<path fill="#FFFFFF" d="M929,490.9L929,490.9c-5.8,0-10.6-4.8-10.6-10.6v0c0-5.8,4.8-10.6,10.6-10.6h0c5.8,0,10.6,4.8,10.6,10.6v0
		C939.6,486.1,934.8,490.9,929,490.9z"/>
</g>
<g>
	<g>
		<path fill="#37474F" d="M674.4,67.5c0.4,0,0.7-0.1,0.9-0.4c0.2-0.3,0.4-0.7,0.4-1.2v-0.4c-0.2,0.2-0.4,0.4-0.6,0.5
			c-0.2,0.1-0.5,0.2-0.7,0.2c-0.7,0-1.2-0.2-1.6-0.7c-0.4-0.4-0.6-1-0.6-1.8c0-0.7,0.2-1.3,0.7-1.8c0.5-0.5,1-0.7,1.7-0.7
			c0.7,0,1.3,0.3,1.8,0.8c0.5,0.5,0.7,1.2,0.7,2.2v1.7c0,0.9-0.3,1.6-0.8,2.1c-0.5,0.5-1.2,0.8-2,0.8c-0.3,0-0.5,0-0.8-0.1
			c-0.3-0.1-0.5-0.1-0.7-0.2l0.2-1.1c0.2,0.1,0.4,0.1,0.6,0.2C673.9,67.5,674.1,67.5,674.4,67.5z M674.6,65.1c0.2,0,0.4,0,0.6-0.1
			s0.3-0.2,0.4-0.4v-0.7c0-0.5-0.1-0.9-0.3-1.2c-0.2-0.3-0.4-0.4-0.8-0.4c-0.3,0-0.5,0.1-0.7,0.4c-0.2,0.3-0.3,0.6-0.3,1
			c0,0.4,0.1,0.7,0.3,1C674.1,64.9,674.3,65.1,674.6,65.1z"/>
	</g>
</g>
<g>
	<g>
		<path fill="#37474F" d="M736.2,68.5h-1.5v-6h-1.5v-1l2.9-0.3V68.5z"/>
	</g>
	<g>
		<path fill="#37474F" d="M743.7,65.7c0,1-0.2,1.7-0.7,2.2c-0.4,0.5-1,0.7-1.8,0.7c-0.8,0-1.4-0.2-1.8-0.7c-0.4-0.5-0.7-1.2-0.7-2.2
			v-1.6c0-1,0.2-1.7,0.7-2.2c0.4-0.5,1-0.8,1.8-0.8c0.8,0,1.3,0.3,1.8,0.8s0.7,1.2,0.7,2.2V65.7z M742.2,63.9c0-0.6-0.1-1-0.3-1.3
			c-0.2-0.3-0.4-0.4-0.7-0.4c-0.3,0-0.6,0.1-0.7,0.4c-0.2,0.3-0.3,0.7-0.3,1.3v1.9c0,0.6,0.1,1,0.3,1.3c0.2,0.3,0.4,0.4,0.8,0.4
			c0.3,0,0.6-0.1,0.7-0.4c0.2-0.3,0.3-0.7,0.3-1.3V63.9z"/>
	</g>
</g>
<g>
	<g>
		<path fill="#37474F" d="M799.7,68.5h-1.5v-6h-1.5v-1l2.9-0.3V68.5z"/>
	</g>
	<g>
		<path fill="#37474F" d="M805.6,68.5h-1.5v-6h-1.5v-1l2.9-0.3V68.5z"/>
	</g>
</g>
<g>
	<g>
		<path fill="#37474F" d="M862.5,68.5H861v-6h-1.5v-1l2.9-0.3V68.5z"/>
	</g>
	<g>
		<path fill="#37474F" d="M870,68.5h-5v-1l2.3-2.5c0.3-0.4,0.6-0.7,0.7-1c0.1-0.3,0.2-0.5,0.2-0.7c0-0.3-0.1-0.6-0.2-0.8
			c-0.2-0.2-0.4-0.3-0.7-0.3c-0.3,0-0.6,0.1-0.8,0.3c-0.2,0.2-0.3,0.5-0.3,0.9h-1.4l0,0c0-0.7,0.2-1.2,0.6-1.7
			c0.4-0.5,1-0.7,1.8-0.7c0.7,0,1.3,0.2,1.8,0.6c0.4,0.4,0.6,0.9,0.6,1.6c0,0.4-0.1,0.8-0.4,1.2c-0.2,0.4-0.6,0.9-1.2,1.5l-1.3,1.4
			l0,0h3.1V68.5z"/>
	</g>
</g>
<g>
	<g>
		<path fill="#37474F" d="M926.8,68.5h-1.5v-6h-1.5v-1l2.9-0.3V68.5z"/>
	</g>
	<g>
		<path fill="#37474F" d="M930.8,64.3h0.8c0.3,0,0.6-0.1,0.8-0.3c0.2-0.2,0.2-0.4,0.2-0.8c0-0.3-0.1-0.5-0.2-0.7
			c-0.2-0.2-0.4-0.3-0.7-0.3c-0.3,0-0.5,0.1-0.7,0.2c-0.2,0.2-0.3,0.4-0.3,0.6h-1.4l0,0c0-0.6,0.2-1,0.7-1.4c0.5-0.4,1-0.6,1.7-0.6
			c0.8,0,1.3,0.2,1.8,0.5c0.4,0.4,0.7,0.9,0.7,1.5c0,0.3-0.1,0.6-0.3,0.9s-0.5,0.5-0.8,0.7c0.4,0.1,0.7,0.4,0.9,0.7
			c0.2,0.3,0.3,0.6,0.3,1c0,0.7-0.2,1.2-0.7,1.6c-0.5,0.4-1.1,0.6-1.9,0.6c-0.7,0-1.3-0.2-1.7-0.5c-0.5-0.4-0.7-0.9-0.7-1.5l0,0h1.4
			c0,0.3,0.1,0.5,0.3,0.7c0.2,0.2,0.5,0.3,0.8,0.3c0.3,0,0.6-0.1,0.8-0.3c0.2-0.2,0.3-0.4,0.3-0.8c0-0.4-0.1-0.7-0.3-0.8
			c-0.2-0.2-0.5-0.3-0.8-0.3h-0.8V64.3z"/>
	</g>
</g>
<g>
	<path fill="#37474F" d="M672.3,476.8c0.3,0,0.5,0,0.8,0.1c0.2,0.1,0.5,0.1,0.7,0.2l-0.3,1.1c-0.2-0.1-0.4-0.1-0.6-0.2
		c-0.2,0-0.4-0.1-0.6-0.1c-0.4,0-0.8,0.2-1.1,0.5c-0.3,0.3-0.4,0.8-0.4,1.4l0,0c0.2-0.2,0.4-0.3,0.6-0.4c0.2-0.1,0.5-0.1,0.8-0.1
		c0.6,0,1.2,0.2,1.5,0.7c0.4,0.5,0.6,1,0.6,1.8c0,0.7-0.2,1.3-0.7,1.8c-0.5,0.5-1,0.7-1.8,0.7c-0.8,0-1.4-0.3-1.9-0.8
		c-0.5-0.5-0.7-1.2-0.7-2.2v-1.4c0-1,0.3-1.7,0.8-2.3C670.7,477.1,671.4,476.8,672.3,476.8z M672,480.4c-0.3,0-0.5,0-0.7,0.1
		c-0.2,0.1-0.3,0.2-0.4,0.4v0.5c0,0.6,0.1,1,0.3,1.3c0.2,0.3,0.5,0.5,0.8,0.5c0.3,0,0.5-0.1,0.7-0.4c0.2-0.3,0.3-0.6,0.3-1
		c0-0.4-0.1-0.7-0.3-1C672.5,480.5,672.3,480.4,672,480.4z"/>
</g>
<g>
	<path fill="#37474F" d="M680.1,481.3c0,1-0.2,1.7-0.7,2.2c-0.4,0.5-1,0.7-1.8,0.7c-0.8,0-1.4-0.2-1.8-0.7c-0.4-0.5-0.7-1.2-0.7-2.2
		v-1.6c0-1,0.2-1.7,0.7-2.2c0.4-0.5,1-0.8,1.8-0.8c0.8,0,1.3,0.3,1.8,0.8c0.4,0.5,0.7,1.2,0.7,2.2V481.3z M678.7,479.6
		c0-0.6-0.1-1-0.3-1.3c-0.2-0.3-0.4-0.4-0.7-0.4c-0.3,0-0.6,0.1-0.7,0.4c-0.2,0.3-0.3,0.7-0.3,1.3v1.9c0,0.6,0.1,1,0.3,1.3
		c0.2,0.3,0.4,0.4,0.8,0.4c0.3,0,0.6-0.1,0.7-0.4c0.2-0.3,0.3-0.7,0.3-1.3V479.6z"/>
</g>
<g>
	<path fill="#37474F" d="M735.8,476.8c0.3,0,0.5,0,0.8,0.1c0.2,0.1,0.5,0.1,0.7,0.2l-0.3,1.1c-0.2-0.1-0.4-0.1-0.6-0.2
		c-0.2,0-0.4-0.1-0.6-0.1c-0.4,0-0.8,0.2-1.1,0.5c-0.3,0.3-0.4,0.8-0.4,1.4l0,0c0.2-0.2,0.4-0.3,0.6-0.4s0.5-0.1,0.8-0.1
		c0.6,0,1.2,0.2,1.5,0.7c0.4,0.5,0.6,1,0.6,1.8c0,0.7-0.2,1.3-0.7,1.8c-0.5,0.5-1,0.7-1.8,0.7c-0.8,0-1.4-0.3-1.9-0.8
		c-0.5-0.5-0.7-1.2-0.7-2.2v-1.4c0-1,0.3-1.7,0.8-2.3C734.3,477.1,735,476.8,735.8,476.8z M735.5,480.4c-0.3,0-0.5,0-0.7,0.1
		c-0.2,0.1-0.3,0.2-0.4,0.4v0.5c0,0.6,0.1,1,0.3,1.3c0.2,0.3,0.5,0.5,0.8,0.5c0.3,0,0.5-0.1,0.7-0.4c0.2-0.3,0.3-0.6,0.3-1
		c0-0.4-0.1-0.7-0.3-1C736,480.5,735.8,480.4,735.5,480.4z"/>
</g>
<g>
	<path fill="#37474F" d="M742,484.2h-1.5v-6h-1.5v-1l2.9-0.3V484.2z"/>
</g>
<g>
	<path fill="#37474F" d="M798.1,476.8c0.3,0,0.5,0,0.8,0.1c0.2,0.1,0.5,0.1,0.7,0.2l-0.3,1.1c-0.2-0.1-0.4-0.1-0.6-0.2
		c-0.2,0-0.4-0.1-0.6-0.1c-0.4,0-0.8,0.2-1.1,0.5c-0.3,0.3-0.4,0.8-0.4,1.4l0,0c0.2-0.2,0.4-0.3,0.6-0.4c0.2-0.1,0.5-0.1,0.8-0.1
		c0.6,0,1.2,0.2,1.5,0.7c0.4,0.5,0.6,1,0.6,1.8c0,0.7-0.2,1.3-0.7,1.8c-0.5,0.5-1,0.7-1.8,0.7c-0.8,0-1.4-0.3-1.9-0.8
		c-0.5-0.5-0.7-1.2-0.7-2.2v-1.4c0-1,0.3-1.7,0.8-2.3C796.6,477.1,797.3,476.8,798.1,476.8z M797.8,480.4c-0.3,0-0.5,0-0.7,0.1
		c-0.2,0.1-0.3,0.2-0.4,0.4v0.5c0,0.6,0.1,1,0.3,1.3c0.2,0.3,0.5,0.5,0.8,0.5c0.3,0,0.5-0.1,0.7-0.4c0.2-0.3,0.3-0.6,0.3-1
		c0-0.4-0.1-0.7-0.3-1C798.3,480.5,798.1,480.4,797.8,480.4z"/>
</g>
<g>
	<path fill="#37474F" d="M806,484.2h-5v-1l2.3-2.5c0.3-0.4,0.6-0.7,0.7-1c0.1-0.3,0.2-0.5,0.2-0.7c0-0.3-0.1-0.6-0.2-0.8
		c-0.2-0.2-0.4-0.3-0.7-0.3c-0.3,0-0.6,0.1-0.8,0.3c-0.2,0.2-0.3,0.5-0.3,0.9H801l0,0c0-0.7,0.2-1.2,0.6-1.7c0.4-0.5,1-0.7,1.8-0.7
		c0.7,0,1.3,0.2,1.8,0.6c0.4,0.4,0.6,0.9,0.6,1.6c0,0.4-0.1,0.8-0.4,1.2c-0.2,0.4-0.6,0.9-1.2,1.5l-1.3,1.4l0,0h3.1V484.2z"/>
</g>
<g>
	<path fill="#37474F" d="M861.8,476.8c0.3,0,0.5,0,0.8,0.1c0.2,0.1,0.5,0.1,0.7,0.2l-0.3,1.1c-0.2-0.1-0.4-0.1-0.6-0.2
		c-0.2,0-0.4-0.1-0.6-0.1c-0.4,0-0.8,0.2-1.1,0.5c-0.3,0.3-0.4,0.8-0.4,1.4l0,0c0.2-0.2,0.4-0.3,0.6-0.4s0.5-0.1,0.8-0.1
		c0.6,0,1.2,0.2,1.5,0.7c0.4,0.5,0.6,1,0.6,1.8c0,0.7-0.2,1.3-0.7,1.8c-0.5,0.5-1,0.7-1.8,0.7c-0.8,0-1.4-0.3-1.9-0.8
		c-0.5-0.5-0.7-1.2-0.7-2.2v-1.4c0-1,0.3-1.7,0.8-2.3C860.2,477.1,860.9,476.8,861.8,476.8z M861.4,480.4c-0.3,0-0.5,0-0.7,0.1
		c-0.2,0.1-0.3,0.2-0.4,0.4v0.5c0,0.6,0.1,1,0.3,1.3c0.2,0.3,0.5,0.5,0.8,0.5c0.3,0,0.5-0.1,0.7-0.4c0.2-0.3,0.3-0.6,0.3-1
		c0-0.4-0.1-0.7-0.3-1C862,480.5,861.7,480.4,861.4,480.4z"/>
</g>
<g>
	<path fill="#37474F" d="M866.2,479.9h0.8c0.3,0,0.6-0.1,0.8-0.3c0.2-0.2,0.2-0.4,0.2-0.8c0-0.3-0.1-0.5-0.2-0.7
		c-0.2-0.2-0.4-0.3-0.7-0.3c-0.3,0-0.5,0.1-0.7,0.2c-0.2,0.2-0.3,0.4-0.3,0.6h-1.4l0,0c0-0.6,0.2-1,0.7-1.4c0.5-0.4,1-0.6,1.7-0.6
		c0.8,0,1.3,0.2,1.8,0.5c0.4,0.4,0.7,0.9,0.7,1.5c0,0.3-0.1,0.6-0.3,0.9s-0.5,0.5-0.8,0.7c0.4,0.1,0.7,0.4,0.9,0.7
		c0.2,0.3,0.3,0.6,0.3,1c0,0.7-0.2,1.2-0.7,1.6c-0.5,0.4-1.1,0.6-1.9,0.6c-0.7,0-1.3-0.2-1.7-0.5c-0.5-0.4-0.7-0.9-0.7-1.5l0,0h1.4
		c0,0.3,0.1,0.5,0.3,0.7c0.2,0.2,0.5,0.3,0.8,0.3c0.3,0,0.6-0.1,0.8-0.3c0.2-0.2,0.3-0.4,0.3-0.8c0-0.4-0.1-0.7-0.3-0.8
		c-0.2-0.2-0.5-0.3-0.8-0.3h-0.8V479.9z"/>
</g>
<g>
	<path fill="#37474F" d="M926.8,476.8c0.3,0,0.5,0,0.8,0.1c0.2,0.1,0.5,0.1,0.7,0.2l-0.3,1.1c-0.2-0.1-0.4-0.1-0.6-0.2
		c-0.2,0-0.4-0.1-0.6-0.1c-0.4,0-0.8,0.2-1.1,0.5c-0.3,0.3-0.4,0.8-0.4,1.4l0,0c0.2-0.2,0.4-0.3,0.6-0.4c0.2-0.1,0.5-0.1,0.8-0.1
		c0.6,0,1.2,0.2,1.5,0.7c0.4,0.5,0.6,1,0.6,1.8c0,0.7-0.2,1.3-0.7,1.8c-0.5,0.5-1,0.7-1.8,0.7c-0.8,0-1.4-0.3-1.9-0.8
		c-0.5-0.5-0.7-1.2-0.7-2.2v-1.4c0-1,0.3-1.7,0.8-2.3C925.2,477.1,925.9,476.8,926.8,476.8z M926.4,480.4c-0.3,0-0.5,0-0.7,0.1
		c-0.2,0.1-0.3,0.2-0.4,0.4v0.5c0,0.6,0.1,1,0.3,1.3c0.2,0.3,0.5,0.5,0.8,0.5c0.3,0,0.5-0.1,0.7-0.4c0.2-0.3,0.3-0.6,0.3-1
		c0-0.4-0.1-0.7-0.3-1C927,480.5,926.7,480.4,926.4,480.4z"/>
</g>
<g>
	<path fill="#37474F" d="M934,481.5h0.8v1.1H934v1.6h-1.5v-1.6h-3l-0.1-0.9l3-4.8h1.5V481.5z M930.9,481.5h1.7v-2.6l0,0l-0.1,0.2
		L930.9,481.5z"/>
</g>
<g>
	<path fill="#37474F" d="M336.8,481l0.4-4h4v1.2h-2.9l-0.2,1.7c0.1-0.1,0.3-0.2,0.5-0.2c0.2-0.1,0.4-0.1,0.6-0.1
		c0.7,0,1.2,0.2,1.6,0.6c0.4,0.4,0.6,1,0.6,1.8c0,0.7-0.2,1.3-0.6,1.7c-0.4,0.5-1,0.7-1.8,0.7c-0.7,0-1.2-0.2-1.7-0.5
		c-0.5-0.4-0.7-0.9-0.7-1.5l0,0l1.4-0.1c0,0.3,0.1,0.6,0.3,0.8c0.2,0.2,0.4,0.3,0.7,0.3c0.3,0,0.6-0.1,0.8-0.4
		c0.2-0.2,0.2-0.6,0.2-0.9c0-0.4-0.1-0.8-0.3-1c-0.2-0.3-0.4-0.4-0.8-0.4c-0.3,0-0.5,0.1-0.6,0.2c-0.1,0.1-0.3,0.2-0.3,0.4
		L336.8,481z"/>
</g>
<g>
	<path fill="#37474F" d="M345.4,476.8c0.3,0,0.5,0,0.8,0.1c0.2,0.1,0.5,0.1,0.7,0.2l-0.3,1.1c-0.2-0.1-0.4-0.1-0.6-0.2
		c-0.2,0-0.4-0.1-0.6-0.1c-0.4,0-0.8,0.2-1.1,0.5c-0.3,0.3-0.4,0.8-0.4,1.4l0,0c0.2-0.2,0.4-0.3,0.6-0.4c0.2-0.1,0.5-0.1,0.8-0.1
		c0.6,0,1.2,0.2,1.5,0.7c0.4,0.5,0.6,1,0.6,1.8c0,0.7-0.2,1.3-0.7,1.8c-0.5,0.5-1,0.7-1.8,0.7c-0.8,0-1.4-0.3-1.9-0.8
		c-0.5-0.5-0.7-1.2-0.7-2.2v-1.4c0-1,0.3-1.7,0.8-2.3C343.9,477.1,344.6,476.8,345.4,476.8z M345.1,480.4c-0.3,0-0.5,0-0.7,0.1
		c-0.2,0.1-0.3,0.2-0.4,0.4v0.5c0,0.6,0.1,1,0.3,1.3c0.2,0.3,0.5,0.5,0.8,0.5c0.3,0,0.5-0.1,0.7-0.4c0.2-0.3,0.3-0.6,0.3-1
		c0-0.4-0.1-0.7-0.3-1C345.6,480.5,345.4,480.4,345.1,480.4z"/>
</g>
<g>
	<path fill="#37474F" d="M410,481l0.4-4h4v1.2h-2.9l-0.2,1.7c0.1-0.1,0.3-0.2,0.5-0.2c0.2-0.1,0.4-0.1,0.6-0.1
		c0.7,0,1.2,0.2,1.6,0.6s0.6,1,0.6,1.8c0,0.7-0.2,1.3-0.6,1.7c-0.4,0.5-1,0.7-1.8,0.7c-0.7,0-1.2-0.2-1.7-0.5
		c-0.5-0.4-0.7-0.9-0.7-1.5l0,0l1.4-0.1c0,0.3,0.1,0.6,0.3,0.8c0.2,0.2,0.4,0.3,0.7,0.3c0.3,0,0.6-0.1,0.8-0.4
		c0.2-0.2,0.2-0.6,0.2-0.9c0-0.4-0.1-0.8-0.3-1c-0.2-0.3-0.4-0.4-0.8-0.4c-0.3,0-0.5,0.1-0.6,0.2c-0.1,0.1-0.3,0.2-0.3,0.4L410,481z
		"/>
</g>
<g>
	<path fill="#37474F" d="M420.6,478c-0.8,0.9-1.3,1.8-1.6,2.5c-0.3,0.8-0.5,1.7-0.6,2.9l-0.1,0.7h-1.5l0.1-0.7
		c0.1-1.1,0.4-2,0.7-2.9c0.4-0.9,0.9-1.7,1.5-2.5h-3.7v-1.1h5.1V478z"/>
</g>
<g>
	<path fill="#37474F" d="M483.6,481l0.4-4h4v1.2h-2.9l-0.2,1.7c0.1-0.1,0.3-0.2,0.5-0.2c0.2-0.1,0.4-0.1,0.6-0.1
		c0.7,0,1.2,0.2,1.6,0.6s0.6,1,0.6,1.8c0,0.7-0.2,1.3-0.6,1.7c-0.4,0.5-1,0.7-1.8,0.7c-0.7,0-1.2-0.2-1.7-0.5
		c-0.5-0.4-0.7-0.9-0.7-1.5l0,0l1.4-0.1c0,0.3,0.1,0.6,0.3,0.8c0.2,0.2,0.4,0.3,0.7,0.3c0.3,0,0.6-0.1,0.8-0.4
		c0.2-0.2,0.2-0.6,0.2-0.9c0-0.4-0.1-0.8-0.3-1c-0.2-0.3-0.4-0.4-0.8-0.4c-0.3,0-0.5,0.1-0.6,0.2c-0.1,0.1-0.3,0.2-0.3,0.4
		L483.6,481z"/>
</g>
<g>
	<path fill="#37474F" d="M494.1,478.8c0,0.4-0.1,0.7-0.3,1c-0.2,0.3-0.5,0.5-0.8,0.7c0.4,0.2,0.7,0.4,0.9,0.7c0.2,0.3,0.3,0.6,0.3,1
		c0,0.7-0.2,1.2-0.7,1.5c-0.5,0.4-1.1,0.5-1.8,0.5c-0.7,0-1.3-0.2-1.8-0.5c-0.5-0.4-0.7-0.9-0.7-1.5c0-0.4,0.1-0.7,0.3-1
		c0.2-0.3,0.5-0.5,0.9-0.7c-0.3-0.2-0.6-0.4-0.8-0.7c-0.2-0.3-0.3-0.6-0.3-1c0-0.6,0.2-1.1,0.6-1.5c0.4-0.4,1-0.5,1.7-0.5
		c0.7,0,1.2,0.2,1.7,0.5C493.8,477.7,494.1,478.2,494.1,478.8z M492.8,482.1c0-0.3-0.1-0.6-0.3-0.8c-0.2-0.2-0.4-0.3-0.7-0.3
		c-0.3,0-0.6,0.1-0.7,0.3s-0.3,0.5-0.3,0.8c0,0.3,0.1,0.6,0.3,0.8c0.2,0.2,0.4,0.3,0.7,0.3c0.3,0,0.5-0.1,0.7-0.3
		C492.7,482.7,492.8,482.4,492.8,482.1z M492.6,478.9c0-0.3-0.1-0.5-0.2-0.7c-0.2-0.2-0.4-0.3-0.6-0.3c-0.3,0-0.5,0.1-0.6,0.3
		c-0.1,0.2-0.2,0.4-0.2,0.7c0,0.3,0.1,0.5,0.2,0.7c0.2,0.2,0.4,0.3,0.6,0.3c0.3,0,0.5-0.1,0.6-0.3
		C492.5,479.4,492.6,479.2,492.6,478.9z"/>
</g>
<g>
	<path fill="#37474F" d="M559.1,481l0.4-4h4v1.2h-2.9l-0.2,1.7c0.1-0.1,0.3-0.2,0.5-0.2c0.2-0.1,0.4-0.1,0.6-0.1
		c0.7,0,1.2,0.2,1.6,0.6s0.6,1,0.6,1.8c0,0.7-0.2,1.3-0.6,1.7c-0.4,0.5-1,0.7-1.8,0.7c-0.7,0-1.2-0.2-1.7-0.5
		c-0.5-0.4-0.7-0.9-0.7-1.5l0,0l1.4-0.1c0,0.3,0.1,0.6,0.3,0.8c0.2,0.2,0.4,0.3,0.7,0.3c0.3,0,0.6-0.1,0.8-0.4
		c0.2-0.2,0.2-0.6,0.2-0.9c0-0.4-0.1-0.8-0.3-1c-0.2-0.3-0.4-0.4-0.8-0.4c-0.3,0-0.5,0.1-0.6,0.2c-0.1,0.1-0.3,0.2-0.3,0.4
		L559.1,481z"/>
</g>
<g>
	<path fill="#37474F" d="M566.8,483.1c0.4,0,0.7-0.1,0.9-0.4c0.2-0.3,0.4-0.7,0.4-1.2v-0.4c-0.2,0.2-0.4,0.4-0.6,0.5
		c-0.2,0.1-0.5,0.2-0.7,0.2c-0.7,0-1.2-0.2-1.6-0.7c-0.4-0.4-0.6-1-0.6-1.8c0-0.7,0.2-1.3,0.7-1.8s1-0.7,1.7-0.7
		c0.7,0,1.3,0.3,1.8,0.8c0.5,0.5,0.7,1.2,0.7,2.2v1.7c0,0.9-0.3,1.6-0.8,2.1c-0.5,0.5-1.2,0.8-2,0.8c-0.3,0-0.5,0-0.8-0.1
		c-0.3-0.1-0.5-0.1-0.7-0.2l0.2-1.1c0.2,0.1,0.4,0.1,0.6,0.2C566.3,483.1,566.6,483.1,566.8,483.1z M567.1,480.7
		c0.2,0,0.4,0,0.6-0.1c0.2-0.1,0.3-0.2,0.4-0.4v-0.7c0-0.5-0.1-0.9-0.3-1.2c-0.2-0.3-0.4-0.4-0.8-0.4c-0.3,0-0.5,0.1-0.7,0.4
		s-0.3,0.6-0.3,1c0,0.4,0.1,0.7,0.3,1C566.5,480.6,566.8,480.7,567.1,480.7z"/>
</g>
<g>
	<path fill="#37474F" d="M38.3,246.2h-1.5v-6h-1.5v-1l2.9-0.3V246.2z"/>
</g>
<g>
	<path fill="#37474F" d="M45.1,243.5h0.8v1.1h-0.8v1.6h-1.5v-1.6h-3l-0.1-0.9l3-4.8h1.5V243.5z M42,243.5h1.7v-2.6l0,0l-0.1,0.2
		L42,243.5z"/>
</g>
<g>
	<path fill="#37474F" d="M83,246.2h-1.5v-6h-1.5v-1L83,239V246.2z"/>
</g>
<g>
	<path fill="#37474F" d="M85.8,243l0.4-4h4v1.2h-2.9l-0.2,1.7c0.1-0.1,0.3-0.2,0.5-0.2c0.2-0.1,0.4-0.1,0.6-0.1
		c0.7,0,1.2,0.2,1.6,0.6c0.4,0.4,0.6,1,0.6,1.8c0,0.7-0.2,1.3-0.6,1.7c-0.4,0.5-1,0.7-1.8,0.7c-0.7,0-1.2-0.2-1.7-0.5
		c-0.5-0.4-0.7-0.9-0.7-1.5l0,0l1.4-0.1c0,0.3,0.1,0.6,0.3,0.8c0.2,0.2,0.4,0.3,0.7,0.3c0.3,0,0.6-0.1,0.8-0.4
		c0.2-0.2,0.2-0.6,0.2-0.9c0-0.4-0.1-0.8-0.3-1c-0.2-0.3-0.4-0.4-0.8-0.4c-0.3,0-0.5,0.1-0.6,0.2c-0.1,0.1-0.3,0.2-0.3,0.4L85.8,243
		z"/>
</g>
<g>
	<path fill="#37474F" d="M135.3,246.2h-1.5v-6h-1.5v-1l2.9-0.3V246.2z"/>
</g>
<g>
	<path fill="#37474F" d="M140.7,238.9c0.3,0,0.5,0,0.8,0.1c0.2,0.1,0.5,0.1,0.7,0.2l-0.3,1.1c-0.2-0.1-0.4-0.1-0.6-0.2
		c-0.2,0-0.4-0.1-0.6-0.1c-0.4,0-0.8,0.2-1.1,0.5c-0.3,0.3-0.4,0.8-0.4,1.4l0,0c0.2-0.2,0.4-0.3,0.6-0.4c0.2-0.1,0.5-0.1,0.8-0.1
		c0.6,0,1.2,0.2,1.5,0.7c0.4,0.5,0.6,1,0.6,1.8c0,0.7-0.2,1.3-0.7,1.8c-0.5,0.5-1,0.7-1.8,0.7c-0.8,0-1.4-0.3-1.9-0.8
		c-0.5-0.5-0.7-1.2-0.7-2.2V242c0-1,0.3-1.7,0.8-2.3C139.2,239.2,139.9,238.9,140.7,238.9z M140.4,242.5c-0.3,0-0.5,0-0.7,0.1
		c-0.2,0.1-0.3,0.2-0.4,0.4v0.5c0,0.6,0.1,1,0.3,1.3c0.2,0.3,0.5,0.5,0.8,0.5c0.3,0,0.5-0.1,0.7-0.4c0.2-0.3,0.3-0.6,0.3-1
		c0-0.4-0.1-0.7-0.3-1C141,242.6,140.7,242.5,140.4,242.5z"/>
</g>
<g>
	<path fill="#37474F" d="M181.8,246.2h-1.5v-6h-1.5v-1l2.9-0.3V246.2z"/>
</g>
<g>
	<path fill="#37474F" d="M189.3,240.1c-0.8,0.9-1.3,1.8-1.6,2.5c-0.3,0.8-0.5,1.7-0.6,2.9l-0.1,0.7h-1.5l0.1-0.7
		c0.1-1.1,0.4-2,0.7-2.9c0.4-0.9,0.9-1.7,1.5-2.5h-3.7V239h5.1V240.1z"/>
</g>
<g>
	<path fill="#37474F" d="M228.8,246.2h-1.5v-6h-1.5v-1l2.9-0.3V246.2z"/>
</g>
<g>
	<path fill="#37474F" d="M236.1,240.9c0,0.4-0.1,0.7-0.3,1c-0.2,0.3-0.5,0.5-0.8,0.7c0.4,0.2,0.7,0.4,0.9,0.7c0.2,0.3,0.3,0.6,0.3,1
		c0,0.7-0.2,1.2-0.7,1.5c-0.5,0.4-1.1,0.5-1.8,0.5c-0.7,0-1.3-0.2-1.8-0.5c-0.5-0.4-0.7-0.9-0.7-1.5c0-0.4,0.1-0.7,0.3-1
		c0.2-0.3,0.5-0.5,0.9-0.7c-0.3-0.2-0.6-0.4-0.8-0.7c-0.2-0.3-0.3-0.6-0.3-1c0-0.6,0.2-1.1,0.6-1.5c0.4-0.4,1-0.5,1.7-0.5
		c0.7,0,1.2,0.2,1.7,0.5C235.9,239.8,236.1,240.3,236.1,240.9z M234.9,244.1c0-0.3-0.1-0.6-0.3-0.8c-0.2-0.2-0.4-0.3-0.7-0.3
		c-0.3,0-0.6,0.1-0.7,0.3c-0.2,0.2-0.3,0.5-0.3,0.8c0,0.3,0.1,0.6,0.3,0.8c0.2,0.2,0.4,0.3,0.7,0.3c0.3,0,0.5-0.1,0.7-0.3
		C234.8,244.7,234.9,244.5,234.9,244.1z M234.7,241c0-0.3-0.1-0.5-0.2-0.7c-0.2-0.2-0.4-0.3-0.6-0.3c-0.3,0-0.5,0.1-0.6,0.3
		s-0.2,0.4-0.2,0.7c0,0.3,0.1,0.5,0.2,0.7c0.2,0.2,0.4,0.3,0.6,0.3c0.3,0,0.5-0.1,0.6-0.3C234.6,241.5,234.7,241.3,234.7,241z"/>
</g>
<g>
	<path fill="#37474F" d="M280.6,246.2h-1.5v-6h-1.5v-1l2.9-0.3V246.2z"/>
</g>
<g>
	<path fill="#37474F" d="M285.3,245.2c0.4,0,0.7-0.1,0.9-0.4c0.2-0.3,0.4-0.7,0.4-1.2v-0.4c-0.2,0.2-0.4,0.4-0.6,0.5
		c-0.2,0.1-0.5,0.2-0.7,0.2c-0.7,0-1.2-0.2-1.6-0.7c-0.4-0.4-0.6-1-0.6-1.8c0-0.7,0.2-1.3,0.7-1.8c0.5-0.5,1-0.7,1.7-0.7
		c0.7,0,1.3,0.3,1.8,0.8c0.5,0.5,0.7,1.2,0.7,2.2v1.7c0,0.9-0.3,1.6-0.8,2.1c-0.5,0.5-1.2,0.8-2,0.8c-0.3,0-0.5,0-0.8-0.1
		c-0.3-0.1-0.5-0.1-0.7-0.2l0.2-1.1c0.2,0.1,0.4,0.1,0.6,0.2C284.8,245.2,285,245.2,285.3,245.2z M285.5,242.8c0.2,0,0.4,0,0.6-0.1
		c0.2-0.1,0.3-0.2,0.4-0.4v-0.7c0-0.5-0.1-0.9-0.3-1.2c-0.2-0.3-0.4-0.4-0.8-0.4c-0.3,0-0.5,0.1-0.7,0.4c-0.2,0.3-0.3,0.6-0.3,1
		c0,0.4,0.1,0.7,0.3,1C285,242.7,285.2,242.8,285.5,242.8z"/>
</g>
<g>
	<path fill="#37474F" d="M329,246.2h-5v-1l2.3-2.5c0.3-0.4,0.6-0.7,0.7-1c0.1-0.3,0.2-0.5,0.2-0.7c0-0.3-0.1-0.6-0.2-0.8
		c-0.2-0.2-0.4-0.3-0.7-0.3c-0.3,0-0.6,0.1-0.8,0.3s-0.3,0.5-0.3,0.9H324l0,0c0-0.7,0.2-1.2,0.6-1.7c0.4-0.5,1-0.7,1.8-0.7
		c0.7,0,1.3,0.2,1.8,0.6c0.4,0.4,0.6,0.9,0.6,1.6c0,0.4-0.1,0.8-0.4,1.2c-0.2,0.4-0.6,0.9-1.2,1.5l-1.3,1.4l0,0h3.1V246.2z"/>
</g>
<g>
	<path fill="#37474F" d="M334.8,243.4c0,1-0.2,1.7-0.7,2.2c-0.4,0.5-1,0.7-1.8,0.7c-0.8,0-1.4-0.2-1.8-0.7c-0.4-0.5-0.7-1.2-0.7-2.2
		v-1.6c0-1,0.2-1.7,0.7-2.2c0.4-0.5,1-0.8,1.8-0.8c0.8,0,1.3,0.3,1.8,0.8c0.4,0.5,0.7,1.2,0.7,2.2V243.4z M333.4,241.7
		c0-0.6-0.1-1-0.3-1.3c-0.2-0.3-0.4-0.4-0.7-0.4c-0.3,0-0.6,0.1-0.7,0.4c-0.2,0.3-0.3,0.7-0.3,1.3v1.9c0,0.6,0.1,1,0.3,1.3
		c0.2,0.3,0.4,0.4,0.8,0.4c0.3,0,0.6-0.1,0.7-0.4c0.2-0.3,0.3-0.7,0.3-1.3V241.7z"/>
</g>
<g>
	<path fill="#37474F" d="M522.4,246.2h-5v-1l2.3-2.5c0.3-0.4,0.6-0.7,0.7-1c0.1-0.3,0.2-0.5,0.2-0.7c0-0.3-0.1-0.6-0.2-0.8
		c-0.2-0.2-0.4-0.3-0.7-0.3c-0.3,0-0.6,0.1-0.8,0.3c-0.2,0.2-0.3,0.5-0.3,0.9h-1.4l0,0c0-0.7,0.2-1.2,0.6-1.7c0.4-0.5,1-0.7,1.8-0.7
		c0.7,0,1.3,0.2,1.8,0.6c0.4,0.4,0.6,0.9,0.6,1.6c0,0.4-0.1,0.8-0.4,1.2c-0.2,0.4-0.6,0.9-1.2,1.5l-1.3,1.4l0,0h3.1V246.2z"/>
</g>
<g>
	<path fill="#37474F" d="M527.6,243.5h0.8v1.1h-0.8v1.6h-1.5v-1.6h-3l-0.1-0.9l3-4.8h1.5V243.5z M524.5,243.5h1.7v-2.6l0,0l-0.1,0.2
		L524.5,243.5z"/>
</g>
<g>
	<path fill="#37474F" d="M568.8,246.2h-5v-1l2.3-2.5c0.3-0.4,0.6-0.7,0.7-1c0.1-0.3,0.2-0.5,0.2-0.7c0-0.3-0.1-0.6-0.2-0.8
		c-0.2-0.2-0.4-0.3-0.7-0.3c-0.3,0-0.6,0.1-0.8,0.3c-0.2,0.2-0.3,0.5-0.3,0.9h-1.4l0,0c0-0.7,0.2-1.2,0.6-1.7c0.4-0.5,1-0.7,1.8-0.7
		c0.7,0,1.3,0.2,1.8,0.6c0.4,0.4,0.6,0.9,0.6,1.6c0,0.4-0.1,0.8-0.4,1.2c-0.2,0.4-0.6,0.9-1.2,1.5l-1.3,1.4l0,0h3.1V246.2z"/>
</g>
<g>
	<path fill="#37474F" d="M569.9,243l0.4-4h4v1.2h-2.9l-0.2,1.7c0.1-0.1,0.3-0.2,0.5-0.2c0.2-0.1,0.4-0.1,0.6-0.1
		c0.7,0,1.2,0.2,1.6,0.6c0.4,0.4,0.6,1,0.6,1.8c0,0.7-0.2,1.3-0.6,1.7c-0.4,0.5-1,0.7-1.8,0.7c-0.7,0-1.2-0.2-1.7-0.5
		c-0.5-0.4-0.7-0.9-0.7-1.5l0,0l1.4-0.1c0,0.3,0.1,0.6,0.3,0.8c0.2,0.2,0.4,0.3,0.7,0.3c0.3,0,0.6-0.1,0.8-0.4
		c0.2-0.2,0.2-0.6,0.2-0.9c0-0.4-0.1-0.8-0.3-1c-0.2-0.3-0.4-0.4-0.8-0.4c-0.3,0-0.5,0.1-0.6,0.2c-0.1,0.1-0.3,0.2-0.3,0.4
		L569.9,243z"/>
</g>
<g>
	<path fill="#37474F" d="M376.9,246.2h-5v-1l2.3-2.5c0.3-0.4,0.6-0.7,0.7-1c0.1-0.3,0.2-0.5,0.2-0.7c0-0.3-0.1-0.6-0.2-0.8
		c-0.2-0.2-0.4-0.3-0.7-0.3c-0.3,0-0.6,0.1-0.8,0.3c-0.2,0.2-0.3,0.5-0.3,0.9h-1.4l0,0c0-0.7,0.2-1.2,0.6-1.7c0.4-0.5,1-0.7,1.8-0.7
		c0.7,0,1.3,0.2,1.8,0.6c0.4,0.4,0.6,0.9,0.6,1.6c0,0.4-0.1,0.8-0.4,1.2c-0.2,0.4-0.6,0.9-1.2,1.5l-1.3,1.4l0,0h3.1V246.2z"/>
</g>
<g>
	<path fill="#37474F" d="M381.1,246.2h-1.5v-6h-1.5v-1l2.9-0.3V246.2z"/>
</g>
<g>
	<path fill="#37474F" d="M427.5,246.2h-5v-1l2.3-2.5c0.3-0.4,0.6-0.7,0.7-1c0.1-0.3,0.2-0.5,0.2-0.7c0-0.3-0.1-0.6-0.2-0.8
		s-0.4-0.3-0.7-0.3c-0.3,0-0.6,0.1-0.8,0.3c-0.2,0.2-0.3,0.5-0.3,0.9h-1.4l0,0c0-0.7,0.2-1.2,0.6-1.7c0.4-0.5,1-0.7,1.8-0.7
		c0.7,0,1.3,0.2,1.8,0.6c0.4,0.4,0.6,0.9,0.6,1.6c0,0.4-0.1,0.8-0.4,1.2c-0.2,0.4-0.6,0.9-1.2,1.5l-1.3,1.4l0,0h3.1V246.2z"/>
</g>
<g>
	<path fill="#37474F" d="M433.3,246.2h-5v-1l2.3-2.5c0.3-0.4,0.6-0.7,0.7-1c0.1-0.3,0.2-0.5,0.2-0.7c0-0.3-0.1-0.6-0.2-0.8
		c-0.2-0.2-0.4-0.3-0.7-0.3c-0.3,0-0.6,0.1-0.8,0.3s-0.3,0.5-0.3,0.9h-1.4l0,0c0-0.7,0.2-1.2,0.6-1.7c0.4-0.5,1-0.7,1.8-0.7
		c0.7,0,1.3,0.2,1.8,0.6c0.4,0.4,0.6,0.9,0.6,1.6c0,0.4-0.1,0.8-0.4,1.2c-0.2,0.4-0.6,0.9-1.2,1.5l-1.3,1.4l0,0h3.1V246.2z"/>
</g>
<g>
	<path fill="#37474F" d="M474.3,246.2h-5v-1l2.3-2.5c0.3-0.4,0.6-0.7,0.7-1c0.1-0.3,0.2-0.5,0.2-0.7c0-0.3-0.1-0.6-0.2-0.8
		c-0.2-0.2-0.4-0.3-0.7-0.3c-0.3,0-0.6,0.1-0.8,0.3c-0.2,0.2-0.3,0.5-0.3,0.9h-1.4l0,0c0-0.7,0.2-1.2,0.6-1.7c0.4-0.5,1-0.7,1.8-0.7
		c0.7,0,1.3,0.2,1.8,0.6c0.4,0.4,0.6,0.9,0.6,1.6c0,0.4-0.1,0.8-0.4,1.2c-0.2,0.4-0.6,0.9-1.2,1.5l-1.3,1.4l0,0h3.1V246.2z"/>
</g>
<g>
	<path fill="#37474F" d="M476.7,242h0.8c0.3,0,0.6-0.1,0.8-0.3c0.2-0.2,0.2-0.4,0.2-0.8c0-0.3-0.1-0.5-0.2-0.7
		c-0.2-0.2-0.4-0.3-0.7-0.3c-0.3,0-0.5,0.1-0.7,0.2c-0.2,0.2-0.3,0.4-0.3,0.6h-1.4l0,0c0-0.6,0.2-1,0.7-1.4c0.5-0.4,1-0.6,1.7-0.6
		c0.8,0,1.3,0.2,1.8,0.5c0.4,0.4,0.7,0.9,0.7,1.5c0,0.3-0.1,0.6-0.3,0.9c-0.2,0.3-0.5,0.5-0.8,0.7c0.4,0.1,0.7,0.4,0.9,0.7
		c0.2,0.3,0.3,0.6,0.3,1c0,0.7-0.2,1.2-0.7,1.6c-0.5,0.4-1.1,0.6-1.9,0.6c-0.7,0-1.3-0.2-1.7-0.5c-0.5-0.4-0.7-0.9-0.7-1.5l0,0h1.4
		c0,0.3,0.1,0.5,0.3,0.7c0.2,0.2,0.5,0.3,0.8,0.3c0.3,0,0.6-0.1,0.8-0.3c0.2-0.2,0.3-0.4,0.3-0.8c0-0.4-0.1-0.7-0.3-0.8
		c-0.2-0.2-0.5-0.3-0.8-0.3h-0.8V242z"/>
</g>
<g>
	<path fill="#FFFFFF" d="M122.4,490.9L122.4,490.9c-5.8,0-10.6-4.8-10.6-10.6v0c0-5.8,4.8-10.6,10.6-10.6h0
		c5.8,0,10.6,4.8,10.6,10.6v0C133,486.1,128.2,490.9,122.4,490.9z"/>
</g>
<g>
	<path fill="#FFFFFF" d="M195.6,490.9L195.6,490.9c-5.8,0-10.6-4.8-10.6-10.6v0c0-5.8,4.8-10.6,10.6-10.6h0
		c5.8,0,10.6,4.8,10.6,10.6v0C206.1,486.1,201.4,490.9,195.6,490.9z"/>
</g>
<g>
	<path fill="#FFFFFF" d="M268.7,490.9L268.7,490.9c-5.8,0-10.6-4.8-10.6-10.6v0c0-5.8,4.8-10.6,10.6-10.6l0,0
		c5.8,0,10.6,4.8,10.6,10.6v0C279.3,486.1,274.5,490.9,268.7,490.9z"/>
</g>
<g>
	<path fill="#37474F" d="M117.4,481l0.4-4h4v1.2H119l-0.2,1.7c0.1-0.1,0.3-0.2,0.5-0.2c0.2-0.1,0.4-0.1,0.6-0.1
		c0.7,0,1.2,0.2,1.6,0.6c0.4,0.4,0.6,1,0.6,1.8c0,0.7-0.2,1.3-0.6,1.7c-0.4,0.5-1,0.7-1.8,0.7c-0.7,0-1.2-0.2-1.7-0.5
		c-0.5-0.4-0.7-0.9-0.7-1.5l0,0l1.4-0.1c0,0.3,0.1,0.6,0.3,0.8c0.2,0.2,0.4,0.3,0.7,0.3c0.3,0,0.6-0.1,0.8-0.4
		c0.2-0.2,0.2-0.6,0.2-0.9c0-0.4-0.1-0.8-0.3-1c-0.2-0.3-0.4-0.4-0.8-0.4c-0.3,0-0.5,0.1-0.6,0.2c-0.1,0.1-0.3,0.2-0.3,0.4
		L117.4,481z"/>
</g>
<g>
	<path fill="#FFFFFF" d="M50.7,490.9L50.7,490.9c-5.8,0-10.6-4.8-10.6-10.6v0c0-5.8,4.8-10.6,10.6-10.6h0c5.8,0,10.6,4.8,10.6,10.6
		v0C61.3,486.1,56.5,490.9,50.7,490.9z"/>
</g>
<g>
	<path fill="#37474F" d="M124.5,479.9h0.8c0.3,0,0.6-0.1,0.8-0.3c0.2-0.2,0.2-0.4,0.2-0.8c0-0.3-0.1-0.5-0.2-0.7
		c-0.2-0.2-0.4-0.3-0.7-0.3c-0.3,0-0.5,0.1-0.7,0.2c-0.2,0.2-0.3,0.4-0.3,0.6H123l0,0c0-0.6,0.2-1,0.7-1.4c0.5-0.4,1-0.6,1.7-0.6
		c0.8,0,1.4,0.2,1.8,0.5c0.4,0.4,0.7,0.9,0.7,1.5c0,0.3-0.1,0.6-0.3,0.9c-0.2,0.3-0.5,0.5-0.8,0.7c0.4,0.1,0.7,0.4,0.9,0.7
		c0.2,0.3,0.3,0.6,0.3,1c0,0.7-0.2,1.2-0.7,1.6s-1.1,0.6-1.9,0.6c-0.7,0-1.3-0.2-1.7-0.5s-0.7-0.9-0.7-1.5l0,0h1.4
		c0,0.3,0.1,0.5,0.3,0.7c0.2,0.2,0.5,0.3,0.8,0.3c0.3,0,0.6-0.1,0.8-0.3c0.2-0.2,0.3-0.4,0.3-0.8c0-0.4-0.1-0.7-0.3-0.8
		c-0.2-0.2-0.5-0.3-0.8-0.3h-0.8V479.9z"/>
</g>
<g>
	<path fill="#37474F" d="M190.7,481l0.4-4h4v1.2h-2.9l-0.2,1.7c0.1-0.1,0.3-0.2,0.5-0.2c0.2-0.1,0.4-0.1,0.6-0.1
		c0.7,0,1.2,0.2,1.6,0.6c0.4,0.4,0.6,1,0.6,1.8c0,0.7-0.2,1.3-0.6,1.7c-0.4,0.5-1,0.7-1.8,0.7c-0.7,0-1.2-0.2-1.7-0.5
		c-0.5-0.4-0.7-0.9-0.7-1.5l0,0l1.4-0.1c0,0.3,0.1,0.6,0.3,0.8c0.2,0.2,0.4,0.3,0.7,0.3c0.3,0,0.6-0.1,0.8-0.4
		c0.2-0.2,0.2-0.6,0.2-0.9c0-0.4-0.1-0.8-0.3-1c-0.2-0.3-0.4-0.4-0.8-0.4c-0.3,0-0.5,0.1-0.6,0.2c-0.1,0.1-0.3,0.2-0.3,0.4
		L190.7,481z"/>
</g>
<g>
	<path fill="#37474F" d="M200.7,481.5h0.8v1.1h-0.8v1.6h-1.5v-1.6h-3l-0.1-0.9l3-4.8h1.5V481.5z M197.5,481.5h1.7v-2.6l0,0l-0.1,0.2
		L197.5,481.5z"/>
</g>
<g>
	<path fill="#37474F" d="M264,481l0.4-4h4v1.2h-2.9l-0.2,1.7c0.1-0.1,0.3-0.2,0.5-0.2c0.2-0.1,0.4-0.1,0.6-0.1
		c0.7,0,1.2,0.2,1.6,0.6s0.6,1,0.6,1.8c0,0.7-0.2,1.3-0.6,1.7c-0.4,0.5-1,0.7-1.8,0.7c-0.7,0-1.2-0.2-1.7-0.5
		c-0.5-0.4-0.7-0.9-0.7-1.5l0,0l1.4-0.1c0,0.3,0.1,0.6,0.3,0.8c0.2,0.2,0.4,0.3,0.7,0.3c0.3,0,0.6-0.1,0.8-0.4
		c0.2-0.2,0.2-0.6,0.2-0.9c0-0.4-0.1-0.8-0.3-1c-0.2-0.3-0.4-0.4-0.8-0.4c-0.3,0-0.5,0.1-0.6,0.2c-0.1,0.1-0.3,0.2-0.3,0.4L264,481z
		"/>
</g>
<g>
	<path fill="#37474F" d="M269.9,481l0.4-4h4v1.2h-2.9l-0.2,1.7c0.1-0.1,0.3-0.2,0.5-0.2c0.2-0.1,0.4-0.1,0.6-0.1
		c0.7,0,1.2,0.2,1.6,0.6c0.4,0.4,0.6,1,0.6,1.8c0,0.7-0.2,1.3-0.6,1.7c-0.4,0.5-1,0.7-1.8,0.7c-0.7,0-1.2-0.2-1.7-0.5
		c-0.5-0.4-0.7-0.9-0.7-1.5l0,0l1.4-0.1c0,0.3,0.1,0.6,0.3,0.8c0.2,0.2,0.4,0.3,0.7,0.3c0.3,0,0.6-0.1,0.8-0.4
		c0.2-0.2,0.2-0.6,0.2-0.9c0-0.4-0.1-0.8-0.3-1c-0.2-0.3-0.4-0.4-0.8-0.4c-0.3,0-0.5,0.1-0.6,0.2c-0.1,0.1-0.3,0.2-0.3,0.4
		L269.9,481z"/>
</g>
<g opacity="0.4">
	<g>
		<rect x="74" y="107" fill="#FFFFFF" width="4" height="1"/>
	</g>
	<g>
		<path fill="#FFFFFF" d="M68,108h-7v-1h7V108z M55,108h-7v-1h7V108z M42,108h-7v-1h7V108z"/>
	</g>
	<g>
		<rect x="23" y="107" fill="#FFFFFF" width="4" height="1"/>
	</g>
</g>
<g opacity="0.4">
	<g>
		<rect x="148" y="107" fill="#FFFFFF" width="4" height="1"/>
	</g>
	<g>
		<path fill="#FFFFFF" d="M142,108h-7v-1h7V108z M129,108h-7v-1h7V108z M116,108h-7v-1h7V108z"/>
	</g>
	<g>
		<rect x="97" y="107" fill="#FFFFFF" width="4" height="1"/>
	</g>
</g>
<g opacity="0.4">
	<g>
		<rect x="222" y="107" fill="#FFFFFF" width="4" height="1"/>
	</g>
	<g>
		<path fill="#FFFFFF" d="M216,108h-7v-1h7V108z M203,108h-7v-1h7V108z M190,108h-7v-1h7V108z"/>
	</g>
	<g>
		<rect x="171" y="107" fill="#FFFFFF" width="4" height="1"/>
	</g>
</g>
<g opacity="0.4">
	<g>
		<rect x="295" y="107" fill="#FFFFFF" width="4" height="1"/>
	</g>
	<g>
		<path fill="#FFFFFF" d="M288,108h-7v-1h7V108z M275,108h-7v-1h7V108z M262,108h-7v-1h7V108z"/>
	</g>
	<g>
		<rect x="244" y="107" fill="#FFFFFF" width="4" height="1"/>
	</g>
</g>
<g opacity="0.4">
	<g>
		<rect x="368" y="107" fill="#FFFFFF" width="4" height="1"/>
	</g>
	<g>
		<path fill="#FFFFFF" d="M362,108h-7v-1h7V108z M349,108h-7v-1h7V108z M336,108h-7v-1h7V108z"/>
	</g>
	<g>
		<rect x="317" y="107" fill="#FFFFFF" width="4" height="1"/>
	</g>
</g>
<g opacity="0.4">
	<g>
		<rect x="442" y="107" fill="#FFFFFF" width="4" height="1"/>
	</g>
	<g>
		<path fill="#FFFFFF" d="M436,108h-7v-1h7V108z M423,108h-7v-1h7V108z M410,108h-7v-1h7V108z"/>
	</g>
	<g>
		<rect x="391" y="107" fill="#FFFFFF" width="4" height="1"/>
	</g>
</g>
<g opacity="0.4">
	<g>
		<rect x="514" y="107" fill="#FFFFFF" width="4" height="1"/>
	</g>
	<g>
		<path fill="#FFFFFF" d="M508,108h-7v-1h7V108z M495,108h-7v-1h7V108z M482,108h-7v-1h7V108z"/>
	</g>
	<g>
		<rect x="463" y="107" fill="#FFFFFF" width="4" height="1"/>
	</g>
</g>
<g opacity="0.4">
	<g>
		<rect x="588" y="107" fill="#FFFFFF" width="4" height="1"/>
	</g>
	<g>
		<path fill="#FFFFFF" d="M582,108h-7v-1h7V108z M569,108h-7v-1h7V108z M556,108h-7v-1h7V108z"/>
	</g>
	<g>
		<rect x="536" y="107" fill="#FFFFFF" width="4" height="1"/>
	</g>
</g>
<g opacity="0.4">
	<g>
		<rect x="74" y="436" fill="#FFFFFF" width="4" height="1"/>
	</g>
	<g>
		<path fill="#FFFFFF" d="M68,437h-7v-1h7V437z M55,437h-7v-1h7V437z M42,437h-7v-1h7V437z"/>
	</g>
	<g>
		<rect x="23" y="436" fill="#FFFFFF" width="4" height="1"/>
	</g>
</g>
<g opacity="0.4">
	<g>
		<rect x="146" y="436" fill="#FFFFFF" width="4" height="1"/>
	</g>
	<g>
		<path fill="#FFFFFF" d="M140,437h-7v-1h7V437z M127,437h-7v-1h7V437z M114,437h-7v-1h7V437z"/>
	</g>
	<g>
		<rect x="95" y="436" fill="#FFFFFF" width="4" height="1"/>
	</g>
</g>
<g opacity="0.4">
	<g>
		<rect x="219" y="436" fill="#FFFFFF" width="4" height="1"/>
	</g>
	<g>
		<path fill="#FFFFFF" d="M213,437h-7v-1h7V437z M200,437h-7v-1h7V437z M187,437h-7v-1h7V437z"/>
	</g>
	<g>
		<rect x="168" y="436" fill="#FFFFFF" width="4" height="1"/>
	</g>
</g>
<g opacity="0.4">
	<g>
		<rect x="292" y="436" fill="#FFFFFF" width="4" height="1"/>
	</g>
	<g>
		<path fill="#FFFFFF" d="M285,437h-7v-1h7V437z M272,437h-7v-1h7V437z M259,437h-7v-1h7V437z"/>
	</g>
	<g>
		<rect x="241" y="436" fill="#FFFFFF" width="4" height="1"/>
	</g>
</g>
<g opacity="0.4">
	<g>
		<rect x="367" y="436" fill="#FFFFFF" width="4" height="1"/>
	</g>
	<g>
		<path fill="#FFFFFF" d="M360,437h-7v-1h7V437z M346,437h-7v-1h7V437z M332,437h-7v-1h7V437z"/>
	</g>
	<g>
		<rect x="314" y="436" fill="#FFFFFF" width="4" height="1"/>
	</g>
</g>
<g opacity="0.4">
	<g>
		<rect x="440" y="436" fill="#FFFFFF" width="4" height="1"/>
	</g>
	<g>
		<path fill="#FFFFFF" d="M433,437h-7v-1h7V437z M419,437h-7v-1h7V437z M405,437h-7v-1h7V437z"/>
	</g>
	<g>
		<rect x="388" y="436" fill="#FFFFFF" width="4" height="1"/>
	</g>
</g>
<g opacity="0.4">
	<g>
		<rect x="513" y="436" fill="#FFFFFF" width="4" height="1"/>
	</g>
	<g>
		<path fill="#FFFFFF" d="M507,437h-7v-1h7V437z M494,437h-7v-1h7V437z M481,437h-7v-1h7V437z"/>
	</g>
	<g>
		<rect x="461" y="436" fill="#FFFFFF" width="4" height="1"/>
	</g>
</g>
<g opacity="0.4">
	<g>
		<rect x="588" y="436" fill="#FFFFFF" width="4" height="1"/>
	</g>
	<g>
		<path fill="#FFFFFF" d="M582,437h-7v-1h7V437z M569,437h-7v-1h7V437z M556,437h-7v-1h7V437z"/>
	</g>
	<g>
		<rect x="536" y="436" fill="#FFFFFF" width="4" height="1"/>
	</g>
</g>
<g opacity="0.4">
	<g>
		<rect x="699" y="436" fill="#FFFFFF" width="4" height="1"/>
	</g>
	<g>
		<path fill="#FFFFFF" d="M692,437h-7v-1h7V437z M679,437h-7v-1h7V437z M666,437h-7v-1h7V437z"/>
	</g>
	<g>
		<rect x="647" y="436" fill="#FFFFFF" width="4" height="1"/>
	</g>
</g>
<g opacity="0.4">
	<g>
		<rect x="762" y="436" fill="#FFFFFF" width="4" height="1"/>
	</g>
	<g>
		<path fill="#FFFFFF" d="M756,437h-7v-1h7V437z M743,437h-7v-1h7V437z M730,437h-7v-1h7V437z"/>
	</g>
	<g>
		<rect x="710" y="436" fill="#FFFFFF" width="4" height="1"/>
	</g>
</g>
<g opacity="0.4">
	<g>
		<rect x="826" y="436" fill="#FFFFFF" width="4" height="1"/>
	</g>
	<g>
		<path fill="#FFFFFF" d="M819,437h-7v-1h7V437z M806,437h-7v-1h7V437z M793,437h-7v-1h7V437z"/>
	</g>
	<g>
		<rect x="774" y="436" fill="#FFFFFF" width="4" height="1"/>
	</g>
</g>
<g opacity="0.4">
	<g>
		<rect x="888" y="436" fill="#FFFFFF" width="4" height="1"/>
	</g>
	<g>
		<path fill="#FFFFFF" d="M882,437h-7v-1h7V437z M869,437h-7v-1h7V437z M856,437h-7v-1h7V437z"/>
	</g>
	<g>
		<rect x="837" y="436" fill="#FFFFFF" width="4" height="1"/>
	</g>
</g>
<g opacity="0.4">
	<g>
		<rect x="954" y="436" fill="#FFFFFF" width="4" height="1"/>
	</g>
	<g>
		<path fill="#FFFFFF" d="M947,437h-7v-1h7V437z M934,437h-7v-1h7V437z M921,437h-7v-1h7V437z"/>
	</g>
	<g>
		<rect x="902" y="436" fill="#FFFFFF" width="4" height="1"/>
	</g>
</g>
<g opacity="0.4">
	<g>
		<rect x="699" y="107" fill="#FFFFFF" width="4" height="1"/>
	</g>
	<g>
		<path fill="#FFFFFF" d="M692,108h-7v-1h7V108z M679,108h-7v-1h7V108z M666,108h-7v-1h7V108z"/>
	</g>
	<g>
		<rect x="647" y="107" fill="#FFFFFF" width="4" height="1"/>
	</g>
</g>
<g opacity="0.4">
	<g>
		<rect x="762" y="107" fill="#FFFFFF" width="4" height="1"/>
	</g>
	<g>
		<path fill="#FFFFFF" d="M756,108h-7v-1h7V108z M743,108h-7v-1h7V108z M730,108h-7v-1h7V108z"/>
	</g>
	<g>
		<rect x="710" y="107" fill="#FFFFFF" width="4" height="1"/>
	</g>
</g>
<g opacity="0.4">
	<g>
		<rect x="826" y="107" fill="#FFFFFF" width="4" height="1"/>
	</g>
	<g>
		<path fill="#FFFFFF" d="M819,108h-7v-1h7V108z M806,108h-7v-1h7V108z M793,108h-7v-1h7V108z"/>
	</g>
	<g>
		<rect x="774" y="107" fill="#FFFFFF" width="4" height="1"/>
	</g>
</g>
<g opacity="0.4">
	<g>
		<rect x="888" y="107" fill="#FFFFFF" width="4" height="1"/>
	</g>
	<g>
		<path fill="#FFFFFF" d="M882,108h-7v-1h7V108z M869,108h-7v-1h7V108z M856,108h-7v-1h7V108z"/>
	</g>
	<g>
		<rect x="837" y="107" fill="#FFFFFF" width="4" height="1"/>
	</g>
</g>
<g opacity="0.4">
	<g>
		<rect x="953" y="107" fill="#FFFFFF" width="4" height="1"/>
	</g>
	<g>
		<path fill="#FFFFFF" d="M946,108h-7v-1h7V108z M933,108h-7v-1h7V108z M920,108h-7v-1h7V108z"/>
	</g>
	<g>
		<rect x="901" y="107" fill="#FFFFFF" width="4" height="1"/>
	</g>
</g>
<g>
	<rect x="4" y="372.5" fill="#FFFFFF" width="18.3" height="36.6"/>
</g>
<g>
	<rect x="4" y="139.6" fill="#FFFFFF" width="18.3" height="36.6"/>
</g>
<g>
	<rect x="599.3" y="0" fill="#FFFFFF" width="38.5" height="18.3"/>
</g>
<g>
	<path fill="#90A4AE" d="M53,153c0.2,0.1,0.4,0.3,0.5,0.4c0.1,0.2,0.2,0.4,0.2,0.7c0,0.3-0.1,0.6-0.2,0.9c-0.1,0.3-0.3,0.5-0.5,0.7
		c-0.2,0.2-0.5,0.3-0.8,0.4s-0.6,0.2-0.8,0.3v0c0.2,0,0.4,0.1,0.7,0.2s0.4,0.2,0.6,0.3c0.2,0.1,0.4,0.3,0.5,0.5
		c0.1,0.2,0.2,0.5,0.2,0.7c0,0.4-0.1,0.8-0.3,1.1c-0.2,0.3-0.4,0.6-0.7,0.8c-0.3,0.2-0.7,0.4-1,0.5c-0.4,0.1-0.8,0.2-1.1,0.2h-3.9
		l0.1-0.4c0.1,0,0.2,0,0.4,0s0.3-0.1,0.4-0.1c0.1-0.1,0.2-0.1,0.3-0.2c0.1-0.1,0.1-0.2,0.1-0.3l1.3-5.8c0,0,0-0.1,0-0.1
		c0,0,0-0.1,0-0.1c0-0.1,0-0.1,0-0.2s-0.1-0.1-0.2-0.1c-0.1-0.1-0.2-0.1-0.3-0.1c-0.1,0-0.2,0-0.3-0.1l0.1-0.4h3.5
		c0.3,0,0.5,0,0.7,0.1C52.6,152.9,52.8,152.9,53,153z M51.5,159.5c0.2-0.2,0.3-0.5,0.4-0.7s0.1-0.5,0.1-0.8c0-0.4-0.1-0.7-0.4-0.9
		s-0.7-0.3-1.1-0.3c-0.2,0-0.4,0-0.6,0c-0.2,0-0.3,0-0.4,0l-0.6,2.8c0,0.1,0,0.1,0,0.1c0,0,0,0.1,0,0.1c0,0.2,0.1,0.3,0.3,0.4
		c0.2,0.1,0.5,0.1,0.8,0.1c0.4,0,0.7-0.1,1-0.2C51.1,159.9,51.3,159.7,51.5,159.5z M51.8,155.7c0.2-0.2,0.3-0.4,0.4-0.7
		s0.1-0.5,0.1-0.8c0-0.2,0-0.4-0.1-0.5c-0.1-0.1-0.2-0.3-0.3-0.3c-0.1-0.1-0.3-0.1-0.4-0.2c-0.2,0-0.3,0-0.5,0c-0.1,0-0.3,0-0.4,0
		c-0.2,0-0.3,0-0.4,0l-0.7,3.1h0.7c0.4,0,0.7-0.1,1-0.2C51.5,156,51.7,155.8,51.8,155.7z"/>
	<path fill="#90A4AE" d="M57.9,159.9L57.9,159.9c-0.2,0.1-0.4,0.3-0.5,0.4c-0.2,0.1-0.3,0.2-0.5,0.3c-0.2,0.1-0.3,0.2-0.5,0.2
		c-0.1,0-0.3,0.1-0.6,0.1c-0.4,0-0.6-0.1-0.8-0.3s-0.3-0.5-0.3-0.8c0-0.1,0-0.2,0-0.3c0-0.1,0.1-0.3,0.1-0.6l0.4-1.8
		c0-0.2,0.1-0.3,0.1-0.4c0-0.1,0-0.3,0-0.4c0-0.2,0-0.4-0.1-0.4s-0.2-0.1-0.4-0.1c-0.1,0-0.2,0-0.3,0c-0.1,0-0.2,0.1-0.3,0.1
		l0.1-0.4c0.3-0.1,0.6-0.2,0.8-0.3s0.4-0.1,0.5-0.1c0.3,0,0.5,0.1,0.7,0.2c0.1,0.1,0.2,0.3,0.2,0.6c0,0.1,0,0.2,0,0.3
		c0,0.1,0,0.2-0.1,0.3l-0.5,2.1c0,0.2-0.1,0.3-0.1,0.4c0,0.1,0,0.2,0,0.3c0,0.3,0.1,0.5,0.2,0.6c0.1,0.1,0.3,0.2,0.5,0.2
		c0.2,0,0.5-0.1,0.7-0.2s0.5-0.3,0.8-0.6l1-4.2l1-0.1l0.1,0.1l-0.8,3.6c0,0.2-0.1,0.3-0.1,0.5s0,0.3,0,0.3c0,0.2,0,0.4,0.1,0.4
		s0.2,0.1,0.5,0.1c0.1,0,0.2,0,0.3,0c0.1,0,0.2,0,0.3-0.1l-0.1,0.4c-0.3,0.1-0.6,0.2-0.8,0.3s-0.4,0.1-0.6,0.1
		c-0.3,0-0.5-0.1-0.7-0.3S57.9,160.2,57.9,159.9z"/>
	<path fill="#90A4AE" d="M66.6,155.7c0,0.2-0.1,0.4-0.2,0.5s-0.3,0.2-0.5,0.2c-0.1,0-0.2,0-0.4-0.1c-0.1,0-0.3-0.1-0.3-0.1
		c-0.2,0.2-0.4,0.4-0.6,0.7c-0.2,0.3-0.4,0.6-0.6,1c0.1,0.4,0.2,0.7,0.2,0.9c0.1,0.3,0.1,0.5,0.2,0.8c0.1,0.2,0.2,0.4,0.3,0.5
		c0.2,0.1,0.4,0.2,0.6,0.2c0.1,0,0.2,0,0.4,0c0.2,0,0.3-0.1,0.4-0.1l-0.1,0.4c-0.4,0.2-0.6,0.3-0.8,0.3c-0.2,0-0.4,0.1-0.6,0.1
		c-0.3,0-0.5-0.1-0.7-0.2c-0.2-0.1-0.3-0.4-0.4-0.7c-0.1-0.3-0.1-0.5-0.2-0.7c0-0.2-0.1-0.4-0.1-0.6c-0.2,0.3-0.3,0.5-0.4,0.7
		c-0.1,0.2-0.3,0.4-0.6,0.8c-0.2,0.3-0.4,0.5-0.6,0.6c-0.2,0.1-0.4,0.2-0.6,0.2c-0.2,0-0.3-0.1-0.4-0.2c-0.1-0.1-0.2-0.2-0.2-0.4
		c0-0.2,0.1-0.3,0.2-0.5s0.3-0.2,0.6-0.2c0.1,0,0.2,0,0.4,0.1s0.2,0.1,0.4,0.1c0.1-0.1,0.3-0.3,0.6-0.6c0.2-0.3,0.5-0.6,0.7-1
		c-0.1-0.3-0.1-0.6-0.2-0.9c-0.1-0.3-0.2-0.6-0.2-0.8c-0.1-0.3-0.2-0.5-0.3-0.6s-0.3-0.1-0.5-0.1c-0.1,0-0.2,0-0.3,0
		c-0.1,0-0.2,0.1-0.3,0.1l0.1-0.4c0.3-0.1,0.5-0.2,0.8-0.3c0.2-0.1,0.4-0.1,0.5-0.1c0.3,0,0.5,0.1,0.6,0.2s0.3,0.4,0.4,0.7
		c0.1,0.4,0.2,0.7,0.2,0.8c0,0.1,0.1,0.3,0.1,0.5c0.2-0.3,0.3-0.5,0.4-0.7c0.1-0.2,0.3-0.4,0.6-0.8c0.2-0.3,0.5-0.5,0.7-0.6
		c0.2-0.1,0.4-0.2,0.6-0.2c0.2,0,0.3,0.1,0.4,0.2C66.5,155.4,66.6,155.5,66.6,155.7z"/>
	<path fill="#90A4AE" d="M69.5,160.1l-0.1,0.4c-0.3,0.1-0.6,0.2-0.8,0.3c-0.2,0.1-0.4,0.1-0.5,0.1c-0.3,0-0.5-0.1-0.7-0.2
		s-0.2-0.3-0.2-0.6c0-0.1,0-0.2,0-0.3c0-0.1,0-0.2,0.1-0.4l0.6-2.4c0-0.1,0.1-0.3,0.1-0.4c0-0.2,0-0.3,0-0.4c0-0.2,0-0.4-0.1-0.4
		c-0.1-0.1-0.2-0.1-0.4-0.1c-0.1,0-0.2,0-0.3,0c-0.1,0-0.2,0-0.3,0.1l0.1-0.4c0.3-0.1,0.6-0.2,0.8-0.3c0.2-0.1,0.4-0.1,0.6-0.1
		c0.3,0,0.5,0.1,0.7,0.2c0.1,0.1,0.2,0.3,0.2,0.6c0,0.1,0,0.2,0,0.3c0,0.1,0,0.2-0.1,0.3l-0.6,2.4c0,0.1-0.1,0.3-0.1,0.4
		c0,0.1,0,0.3,0,0.3c0,0.2,0,0.4,0.1,0.4s0.3,0.1,0.5,0.1c0.1,0,0.2,0,0.3,0C69.3,160.2,69.4,160.1,69.5,160.1z M69.9,152.9
		c0,0.2-0.1,0.4-0.2,0.6c-0.1,0.2-0.3,0.2-0.5,0.2c-0.2,0-0.4-0.1-0.5-0.2c-0.1-0.2-0.2-0.3-0.2-0.5c0-0.2,0.1-0.4,0.2-0.5
		c0.1-0.2,0.3-0.2,0.5-0.2c0.2,0,0.4,0.1,0.5,0.2C69.8,152.5,69.9,152.7,69.9,152.9z"/>
	<path fill="#90A4AE" d="M75.7,155.7c0,0.7-0.1,1.3-0.2,2c-0.1,0.7-0.3,1.2-0.6,1.7c-0.3,0.5-0.7,1-1.1,1.2
		c-0.4,0.3-0.9,0.4-1.5,0.4c-0.7,0-1.2-0.2-1.6-0.6c-0.4-0.4-0.6-1-0.6-1.7c0-1,0.3-1.8,0.9-2.5c0.6-0.7,1.4-1.1,2.2-1.1
		c0.2,0,0.4,0,0.7,0.1c0.2,0.1,0.4,0.2,0.6,0.3c0-0.9-0.2-1.6-0.5-2.1c-0.3-0.5-0.7-0.8-1.2-0.8c-0.2,0-0.3,0-0.5,0
		c-0.1,0-0.3,0.1-0.4,0.1c-0.1,0-0.2,0.1-0.2,0.2c-0.1,0.1-0.1,0.1-0.2,0.1l-0.2-0.3c0.3-0.3,0.6-0.5,0.8-0.6c0.3-0.1,0.6-0.2,1-0.2
		c0.3,0,0.7,0.1,1,0.2c0.3,0.1,0.6,0.4,0.8,0.7c0.2,0.3,0.4,0.7,0.5,1.1C75.7,154.5,75.7,155,75.7,155.7z M74,159.2
		c0.2-0.4,0.3-0.9,0.4-1.4c0.1-0.5,0.2-1.1,0.2-1.6c-0.2-0.3-0.4-0.5-0.6-0.6c-0.2-0.1-0.4-0.2-0.6-0.2c-0.6,0-1.1,0.3-1.5,1
		c-0.4,0.7-0.6,1.5-0.6,2.3c0,0.6,0.1,1,0.2,1.3c0.2,0.3,0.4,0.4,0.8,0.4c0.3,0,0.6-0.1,0.9-0.4C73.6,159.9,73.8,159.6,74,159.2z"/>
</g>
<g>
	<g>
		<rect x="22.6" y="156.4" fill="#90A4AE" width="15.2" height="1"/>
	</g>
	<g>
		<g>
			<path fill="#90A4AE" d="M29.4,152.1c0.1,0.2,0.1,0.5-0.2,0.7l-6.5,4.1l6.5,4.1c0.2,0.1,0.3,0.5,0.2,0.7s-0.5,0.3-0.7,0.2
				l-7.1-4.5c-0.1-0.1-0.2-0.3-0.2-0.4s0.1-0.3,0.2-0.4l7.1-4.5c0.1-0.1,0.2-0.1,0.3-0.1C29.1,151.9,29.3,151.9,29.4,152.1z"/>
		</g>
	</g>
</g>
<g>
	<path fill="#90A4AE" d="M53,386.9c0.2,0.1,0.4,0.3,0.5,0.4c0.1,0.2,0.2,0.4,0.2,0.7c0,0.3-0.1,0.6-0.2,0.9
		c-0.1,0.3-0.3,0.5-0.5,0.7c-0.2,0.2-0.5,0.3-0.8,0.4s-0.6,0.2-0.8,0.3v0c0.2,0,0.4,0.1,0.7,0.2s0.4,0.2,0.6,0.3
		c0.2,0.1,0.4,0.3,0.5,0.5c0.1,0.2,0.2,0.5,0.2,0.7c0,0.4-0.1,0.8-0.3,1.1c-0.2,0.3-0.4,0.6-0.7,0.8c-0.3,0.2-0.7,0.4-1,0.5
		c-0.4,0.1-0.8,0.2-1.1,0.2h-3.9l0.1-0.4c0.1,0,0.2,0,0.4,0s0.3-0.1,0.4-0.1c0.1-0.1,0.2-0.1,0.3-0.2c0.1-0.1,0.1-0.2,0.1-0.3
		l1.3-5.8c0,0,0-0.1,0-0.1c0,0,0-0.1,0-0.1c0-0.1,0-0.1,0-0.2s-0.1-0.1-0.2-0.1c-0.1-0.1-0.2-0.1-0.3-0.1c-0.1,0-0.2,0-0.3-0.1
		l0.1-0.4h3.5c0.3,0,0.5,0,0.7,0.1C52.6,386.7,52.8,386.8,53,386.9z M51.5,393.4c0.2-0.2,0.3-0.5,0.4-0.7s0.1-0.5,0.1-0.8
		c0-0.4-0.1-0.7-0.4-0.9s-0.7-0.3-1.1-0.3c-0.2,0-0.4,0-0.6,0c-0.2,0-0.3,0-0.4,0l-0.6,2.8c0,0.1,0,0.1,0,0.1c0,0,0,0.1,0,0.1
		c0,0.2,0.1,0.3,0.3,0.4c0.2,0.1,0.5,0.1,0.8,0.1c0.4,0,0.7-0.1,1-0.2C51.1,393.8,51.3,393.6,51.5,393.4z M51.8,389.5
		c0.2-0.2,0.3-0.4,0.4-0.7s0.1-0.5,0.1-0.8c0-0.2,0-0.4-0.1-0.5c-0.1-0.1-0.2-0.3-0.3-0.3c-0.1-0.1-0.3-0.1-0.4-0.2
		c-0.2,0-0.3,0-0.5,0c-0.1,0-0.3,0-0.4,0c-0.2,0-0.3,0-0.4,0l-0.7,3.1h0.7c0.4,0,0.7-0.1,1-0.2C51.5,389.9,51.7,389.7,51.8,389.5z"
		/>
	<path fill="#90A4AE" d="M57.9,393.8L57.9,393.8c-0.2,0.1-0.4,0.3-0.5,0.4c-0.2,0.1-0.3,0.2-0.5,0.3c-0.2,0.1-0.3,0.2-0.5,0.2
		c-0.1,0-0.3,0.1-0.6,0.1c-0.4,0-0.6-0.1-0.8-0.3s-0.3-0.5-0.3-0.8c0-0.1,0-0.2,0-0.3c0-0.1,0.1-0.3,0.1-0.6l0.4-1.8
		c0-0.2,0.1-0.3,0.1-0.4c0-0.1,0-0.3,0-0.4c0-0.2,0-0.4-0.1-0.4s-0.2-0.1-0.4-0.1c-0.1,0-0.2,0-0.3,0c-0.1,0-0.2,0.1-0.3,0.1
		l0.1-0.4c0.3-0.1,0.6-0.2,0.8-0.3s0.4-0.1,0.5-0.1c0.3,0,0.5,0.1,0.7,0.2c0.1,0.1,0.2,0.3,0.2,0.6c0,0.1,0,0.2,0,0.3
		c0,0.1,0,0.2-0.1,0.3l-0.5,2.1c0,0.2-0.1,0.3-0.1,0.4c0,0.1,0,0.2,0,0.3c0,0.3,0.1,0.5,0.2,0.6c0.1,0.1,0.3,0.2,0.5,0.2
		c0.2,0,0.5-0.1,0.7-0.2s0.5-0.3,0.8-0.6l1-4.2l1-0.1l0.1,0.1l-0.8,3.6c0,0.2-0.1,0.3-0.1,0.5s0,0.3,0,0.3c0,0.2,0,0.4,0.1,0.4
		s0.2,0.1,0.5,0.1c0.1,0,0.2,0,0.3,0c0.1,0,0.2,0,0.3-0.1l-0.1,0.4c-0.3,0.1-0.6,0.2-0.8,0.3s-0.4,0.1-0.6,0.1
		c-0.3,0-0.5-0.1-0.7-0.3S57.9,394.1,57.9,393.8z"/>
	<path fill="#90A4AE" d="M66.6,389.6c0,0.2-0.1,0.4-0.2,0.5s-0.3,0.2-0.5,0.2c-0.1,0-0.2,0-0.4-0.1c-0.1,0-0.3-0.1-0.3-0.1
		c-0.2,0.2-0.4,0.4-0.6,0.7c-0.2,0.3-0.4,0.6-0.6,1c0.1,0.4,0.2,0.7,0.2,0.9c0.1,0.3,0.1,0.5,0.2,0.8c0.1,0.2,0.2,0.4,0.3,0.5
		c0.2,0.1,0.4,0.2,0.6,0.2c0.1,0,0.2,0,0.4,0c0.2,0,0.3-0.1,0.4-0.1l-0.1,0.4c-0.4,0.2-0.6,0.3-0.8,0.3c-0.2,0-0.4,0.1-0.6,0.1
		c-0.3,0-0.5-0.1-0.7-0.2c-0.2-0.1-0.3-0.4-0.4-0.7c-0.1-0.3-0.1-0.5-0.2-0.7c0-0.2-0.1-0.4-0.1-0.6c-0.2,0.3-0.3,0.5-0.4,0.7
		c-0.1,0.2-0.3,0.4-0.6,0.8c-0.2,0.3-0.4,0.5-0.6,0.6c-0.2,0.1-0.4,0.2-0.6,0.2c-0.2,0-0.3-0.1-0.4-0.2c-0.1-0.1-0.2-0.2-0.2-0.4
		c0-0.2,0.1-0.3,0.2-0.5s0.3-0.2,0.6-0.2c0.1,0,0.2,0,0.4,0.1s0.2,0.1,0.4,0.1c0.1-0.1,0.3-0.3,0.6-0.6c0.2-0.3,0.5-0.6,0.7-1
		c-0.1-0.3-0.1-0.6-0.2-0.9c-0.1-0.3-0.2-0.6-0.2-0.8c-0.1-0.3-0.2-0.5-0.3-0.6s-0.3-0.1-0.5-0.1c-0.1,0-0.2,0-0.3,0
		c-0.1,0-0.2,0.1-0.3,0.1l0.1-0.4c0.3-0.1,0.5-0.2,0.8-0.3c0.2-0.1,0.4-0.1,0.5-0.1c0.3,0,0.5,0.1,0.6,0.2s0.3,0.4,0.4,0.7
		c0.1,0.4,0.2,0.7,0.2,0.8c0,0.1,0.1,0.3,0.1,0.5c0.2-0.3,0.3-0.5,0.4-0.7c0.1-0.2,0.3-0.4,0.6-0.8c0.2-0.3,0.5-0.5,0.7-0.6
		c0.2-0.1,0.4-0.2,0.6-0.2c0.2,0,0.3,0.1,0.4,0.2C66.5,389.2,66.6,389.4,66.6,389.6z"/>
	<path fill="#90A4AE" d="M69.5,394l-0.1,0.4c-0.3,0.1-0.6,0.2-0.8,0.3c-0.2,0.1-0.4,0.1-0.5,0.1c-0.3,0-0.5-0.1-0.7-0.2
		s-0.2-0.3-0.2-0.6c0-0.1,0-0.2,0-0.3c0-0.1,0-0.2,0.1-0.4l0.6-2.4c0-0.1,0.1-0.3,0.1-0.4c0-0.2,0-0.3,0-0.4c0-0.2,0-0.4-0.1-0.4
		c-0.1-0.1-0.2-0.1-0.4-0.1c-0.1,0-0.2,0-0.3,0c-0.1,0-0.2,0-0.3,0.1l0.1-0.4c0.3-0.1,0.6-0.2,0.8-0.3c0.2-0.1,0.4-0.1,0.6-0.1
		c0.3,0,0.5,0.1,0.7,0.2c0.1,0.1,0.2,0.3,0.2,0.6c0,0.1,0,0.2,0,0.3c0,0.1,0,0.2-0.1,0.3l-0.6,2.4c0,0.1-0.1,0.3-0.1,0.4
		c0,0.1,0,0.3,0,0.3c0,0.2,0,0.4,0.1,0.4s0.3,0.1,0.5,0.1c0.1,0,0.2,0,0.3,0C69.3,394.1,69.4,394,69.5,394z M69.9,386.8
		c0,0.2-0.1,0.4-0.2,0.6c-0.1,0.2-0.3,0.2-0.5,0.2c-0.2,0-0.4-0.1-0.5-0.2c-0.1-0.2-0.2-0.3-0.2-0.5c0-0.2,0.1-0.4,0.2-0.5
		c0.1-0.2,0.3-0.2,0.5-0.2c0.2,0,0.4,0.1,0.5,0.2C69.8,386.4,69.9,386.6,69.9,386.8z"/>
	<path fill="#90A4AE" d="M75.7,389.5c0,0.7-0.1,1.3-0.2,2c-0.1,0.7-0.3,1.2-0.6,1.7c-0.3,0.5-0.7,1-1.1,1.2
		c-0.4,0.3-0.9,0.4-1.5,0.4c-0.7,0-1.2-0.2-1.6-0.6c-0.4-0.4-0.6-1-0.6-1.7c0-1,0.3-1.8,0.9-2.5c0.6-0.7,1.4-1.1,2.2-1.1
		c0.2,0,0.4,0,0.7,0.1c0.2,0.1,0.4,0.2,0.6,0.3c0-0.9-0.2-1.6-0.5-2.1c-0.3-0.5-0.7-0.8-1.2-0.8c-0.2,0-0.3,0-0.5,0
		c-0.1,0-0.3,0.1-0.4,0.1c-0.1,0-0.2,0.1-0.2,0.2c-0.1,0.1-0.1,0.1-0.2,0.1l-0.2-0.3c0.3-0.3,0.6-0.5,0.8-0.6c0.3-0.1,0.6-0.2,1-0.2
		c0.3,0,0.7,0.1,1,0.2c0.3,0.1,0.6,0.4,0.8,0.7c0.2,0.3,0.4,0.7,0.5,1.1C75.7,388.4,75.7,388.9,75.7,389.5z M74,393.1
		c0.2-0.4,0.3-0.9,0.4-1.4c0.1-0.5,0.2-1.1,0.2-1.6c-0.2-0.3-0.4-0.5-0.6-0.6c-0.2-0.1-0.4-0.2-0.6-0.2c-0.6,0-1.1,0.3-1.5,1
		c-0.4,0.7-0.6,1.5-0.6,2.3c0,0.6,0.1,1,0.2,1.3c0.2,0.3,0.4,0.4,0.8,0.4c0.3,0,0.6-0.1,0.9-0.4C73.6,393.8,73.8,393.5,74,393.1z"/>
</g>
<g>
	<g>
		<rect x="22.6" y="390.3" fill="#90A4AE" width="15.2" height="1"/>
	</g>
	<g>
		<g>
			<path fill="#90A4AE" d="M29.4,386c0.1,0.2,0.1,0.5-0.2,0.7l-6.5,4.1l6.5,4.1c0.2,0.1,0.3,0.5,0.2,0.7c-0.1,0.2-0.5,0.3-0.7,0.2
				l-7.1-4.5c-0.1-0.1-0.2-0.3-0.2-0.4s0.1-0.3,0.2-0.4l7.1-4.5c0.1-0.1,0.2-0.1,0.3-0.1C29.1,385.7,29.3,385.8,29.4,386z"/>
		</g>
	</g>
</g>
<g>
	<path fill="#37474F" d="M663.3,246.2h-4.9v-0.9l2.3-2.5c0.3-0.4,0.6-0.7,0.7-1s0.2-0.5,0.2-0.7c0-0.3-0.1-0.5-0.2-0.7
		c-0.2-0.2-0.4-0.3-0.7-0.3c-0.3,0-0.6,0.1-0.8,0.3c-0.2,0.2-0.3,0.5-0.3,0.9h-1.4l0,0c0-0.6,0.2-1.2,0.6-1.6c0.4-0.4,1-0.7,1.8-0.7
		c0.7,0,1.3,0.2,1.7,0.6c0.4,0.4,0.6,0.9,0.6,1.5c0,0.4-0.1,0.8-0.4,1.2c-0.2,0.4-0.6,0.8-1.2,1.4l-1.3,1.4l0,0h3V246.2z"/>
	<path fill="#37474F" d="M667,239c0.3,0,0.5,0,0.7,0.1c0.2,0.1,0.5,0.1,0.7,0.2l-0.3,1c-0.2-0.1-0.4-0.1-0.6-0.2
		c-0.2,0-0.4-0.1-0.6-0.1c-0.4,0-0.8,0.2-1,0.5c-0.3,0.3-0.4,0.8-0.4,1.3l0,0c0.2-0.2,0.4-0.3,0.6-0.4s0.5-0.1,0.8-0.1
		c0.6,0,1.1,0.2,1.5,0.7c0.4,0.5,0.5,1,0.5,1.7c0,0.7-0.2,1.3-0.7,1.8c-0.4,0.5-1,0.7-1.7,0.7c-0.8,0-1.4-0.3-1.8-0.8
		s-0.7-1.2-0.7-2.1v-1.4c0-0.9,0.3-1.7,0.8-2.2S666.2,239,667,239z M666.7,242.5c-0.3,0-0.5,0-0.7,0.1s-0.3,0.2-0.4,0.3v0.5
		c0,0.6,0.1,1,0.3,1.3c0.2,0.3,0.5,0.5,0.8,0.5c0.3,0,0.5-0.1,0.7-0.4c0.2-0.3,0.3-0.6,0.3-1c0-0.4-0.1-0.7-0.3-1
		S667,242.5,666.7,242.5z"/>
</g>
<g>
	<path fill="#37474F" d="M709.1,246.2h-4.9v-0.9l2.3-2.5c0.3-0.4,0.6-0.7,0.7-1s0.2-0.5,0.2-0.7c0-0.3-0.1-0.5-0.2-0.7
		c-0.2-0.2-0.4-0.3-0.7-0.3c-0.3,0-0.6,0.1-0.8,0.3c-0.2,0.2-0.3,0.5-0.3,0.9h-1.4l0,0c0-0.6,0.2-1.2,0.6-1.6c0.4-0.4,1-0.7,1.8-0.7
		c0.7,0,1.3,0.2,1.7,0.6c0.4,0.4,0.6,0.9,0.6,1.5c0,0.4-0.1,0.8-0.4,1.2c-0.2,0.4-0.6,0.8-1.2,1.4l-1.3,1.4l0,0h3V246.2z"/>
	<path fill="#37474F" d="M714.9,240.2c-0.8,0.9-1.3,1.7-1.6,2.5c-0.3,0.8-0.5,1.7-0.6,2.8l-0.1,0.7h-1.4l0.1-0.7
		c0.1-1,0.3-2,0.7-2.9s0.9-1.7,1.5-2.4h-3.7v-1.1h5V240.2z"/>
</g>
<g>
	<path fill="#37474F" d="M755,246.2h-4.9v-0.9l2.3-2.5c0.3-0.4,0.6-0.7,0.7-1s0.2-0.5,0.2-0.7c0-0.3-0.1-0.5-0.2-0.7
		c-0.2-0.2-0.4-0.3-0.7-0.3c-0.3,0-0.6,0.1-0.8,0.3c-0.2,0.2-0.3,0.5-0.3,0.9h-1.4l0,0c0-0.6,0.2-1.2,0.6-1.6c0.4-0.4,1-0.7,1.8-0.7
		c0.7,0,1.3,0.2,1.7,0.6c0.4,0.4,0.6,0.9,0.6,1.5c0,0.4-0.1,0.8-0.4,1.2c-0.2,0.4-0.6,0.8-1.2,1.4l-1.3,1.4l0,0h3V246.2z"/>
	<path fill="#37474F" d="M760.5,241c0,0.4-0.1,0.7-0.3,0.9c-0.2,0.3-0.4,0.5-0.8,0.6c0.4,0.2,0.7,0.4,0.9,0.7s0.3,0.6,0.3,1
		c0,0.7-0.2,1.2-0.7,1.5s-1,0.5-1.7,0.5c-0.7,0-1.3-0.2-1.8-0.5c-0.4-0.4-0.7-0.9-0.7-1.5c0-0.4,0.1-0.7,0.3-1
		c0.2-0.3,0.5-0.5,0.9-0.7c-0.3-0.2-0.6-0.4-0.8-0.6s-0.3-0.6-0.3-0.9c0-0.6,0.2-1.1,0.6-1.5s1-0.5,1.6-0.5c0.7,0,1.2,0.2,1.6,0.5
		S760.5,240.4,760.5,241z M759.3,244.2c0-0.3-0.1-0.6-0.3-0.8c-0.2-0.2-0.4-0.3-0.7-0.3c-0.3,0-0.5,0.1-0.7,0.3
		c-0.2,0.2-0.3,0.4-0.3,0.8c0,0.3,0.1,0.6,0.3,0.8c0.2,0.2,0.4,0.3,0.7,0.3c0.3,0,0.5-0.1,0.7-0.3
		C759.2,244.8,759.3,244.5,759.3,244.2z M759.1,241.1c0-0.3-0.1-0.5-0.2-0.7c-0.2-0.2-0.4-0.3-0.6-0.3c-0.3,0-0.5,0.1-0.6,0.3
		s-0.2,0.4-0.2,0.7c0,0.3,0.1,0.5,0.2,0.7c0.1,0.2,0.4,0.3,0.6,0.3c0.3,0,0.5-0.1,0.6-0.3C759,241.6,759.1,241.4,759.1,241.1z"/>
</g>
<g>
	<path fill="#37474F" d="M799.9,246.2H795v-0.9l2.3-2.5c0.3-0.4,0.6-0.7,0.7-1s0.2-0.5,0.2-0.7c0-0.3-0.1-0.5-0.2-0.7
		c-0.2-0.2-0.4-0.3-0.7-0.3c-0.3,0-0.6,0.1-0.8,0.3c-0.2,0.2-0.3,0.5-0.3,0.9h-1.4l0,0c0-0.6,0.2-1.2,0.6-1.6c0.4-0.4,1-0.7,1.8-0.7
		c0.7,0,1.3,0.2,1.7,0.6c0.4,0.4,0.6,0.9,0.6,1.5c0,0.4-0.1,0.8-0.4,1.2c-0.2,0.4-0.6,0.8-1.2,1.4l-1.3,1.4l0,0h3V246.2z"/>
	<path fill="#37474F" d="M802.8,245.2c0.4,0,0.7-0.1,0.9-0.4c0.2-0.3,0.4-0.7,0.4-1.2v-0.4c-0.2,0.2-0.3,0.4-0.6,0.5
		c-0.2,0.1-0.5,0.2-0.7,0.2c-0.7,0-1.2-0.2-1.6-0.6c-0.4-0.4-0.6-1-0.6-1.8c0-0.7,0.2-1.3,0.7-1.8s1-0.7,1.7-0.7
		c0.7,0,1.3,0.3,1.8,0.7s0.7,1.2,0.7,2.1v1.7c0,0.9-0.3,1.5-0.8,2c-0.5,0.5-1.2,0.7-1.9,0.7c-0.2,0-0.5,0-0.8-0.1
		c-0.3-0.1-0.5-0.1-0.7-0.2l0.2-1c0.2,0.1,0.4,0.1,0.6,0.2C802.3,245.2,802.6,245.2,802.8,245.2z M803.1,242.9c0.2,0,0.4,0,0.6-0.1
		s0.3-0.2,0.4-0.4v-0.7c0-0.5-0.1-0.9-0.3-1.2s-0.4-0.4-0.7-0.4c-0.3,0-0.5,0.1-0.7,0.4c-0.2,0.3-0.3,0.6-0.3,1c0,0.4,0.1,0.7,0.2,1
		C802.5,242.7,802.8,242.9,803.1,242.9z"/>
</g>
<g>
	<path fill="#37474F" d="M843.3,242.1h0.8c0.3,0,0.6-0.1,0.8-0.3s0.2-0.4,0.2-0.7c0-0.3-0.1-0.5-0.2-0.7s-0.4-0.3-0.7-0.3
		c-0.3,0-0.5,0.1-0.7,0.2s-0.3,0.4-0.3,0.6h-1.4l0,0c0-0.6,0.2-1,0.6-1.4s1-0.5,1.7-0.5c0.7,0,1.3,0.2,1.8,0.5
		c0.4,0.4,0.7,0.9,0.7,1.5c0,0.3-0.1,0.6-0.3,0.9s-0.5,0.5-0.8,0.7c0.4,0.1,0.7,0.4,0.9,0.6c0.2,0.3,0.3,0.6,0.3,1
		c0,0.7-0.2,1.2-0.7,1.5c-0.5,0.4-1.1,0.6-1.8,0.6c-0.7,0-1.2-0.2-1.7-0.5c-0.5-0.4-0.7-0.8-0.7-1.5l0,0h1.4c0,0.3,0.1,0.5,0.3,0.7
		c0.2,0.2,0.4,0.3,0.7,0.3c0.3,0,0.6-0.1,0.8-0.3c0.2-0.2,0.3-0.4,0.3-0.7c0-0.4-0.1-0.6-0.3-0.8c-0.2-0.2-0.5-0.3-0.8-0.3h-0.8
		V242.1z"/>
	<path fill="#37474F" d="M852.4,243.5c0,0.9-0.2,1.7-0.6,2.1c-0.4,0.5-1,0.7-1.8,0.7c-0.7,0-1.3-0.2-1.8-0.7s-0.6-1.2-0.6-2.1v-1.6
		c0-0.9,0.2-1.7,0.6-2.1c0.4-0.5,1-0.7,1.8-0.7c0.7,0,1.3,0.2,1.8,0.7c0.4,0.5,0.7,1.2,0.7,2.1V243.5z M851,241.8
		c0-0.6-0.1-1-0.3-1.2s-0.4-0.4-0.7-0.4c-0.3,0-0.6,0.1-0.7,0.4s-0.2,0.7-0.2,1.2v1.8c0,0.6,0.1,1,0.3,1.2c0.2,0.3,0.4,0.4,0.7,0.4
		c0.3,0,0.6-0.1,0.7-0.4s0.2-0.7,0.2-1.2V241.8z"/>
</g>
<g>
	<path fill="#37474F" d="M889.2,242.1h0.8c0.3,0,0.6-0.1,0.8-0.3s0.2-0.4,0.2-0.7c0-0.3-0.1-0.5-0.2-0.7s-0.4-0.3-0.7-0.3
		c-0.3,0-0.5,0.1-0.7,0.2s-0.3,0.4-0.3,0.6h-1.4l0,0c0-0.6,0.2-1,0.6-1.4s1-0.5,1.7-0.5c0.7,0,1.3,0.2,1.8,0.5
		c0.4,0.4,0.7,0.9,0.7,1.5c0,0.3-0.1,0.6-0.3,0.9s-0.5,0.5-0.8,0.7c0.4,0.1,0.7,0.4,0.9,0.6c0.2,0.3,0.3,0.6,0.3,1
		c0,0.7-0.2,1.2-0.7,1.5c-0.5,0.4-1.1,0.6-1.8,0.6c-0.7,0-1.2-0.2-1.7-0.5c-0.5-0.4-0.7-0.8-0.7-1.5l0,0h1.4c0,0.3,0.1,0.5,0.3,0.7
		c0.2,0.2,0.4,0.3,0.7,0.3c0.3,0,0.6-0.1,0.8-0.3c0.2-0.2,0.3-0.4,0.3-0.7c0-0.4-0.1-0.6-0.3-0.8c-0.2-0.2-0.5-0.3-0.8-0.3h-0.8
		V242.1z"/>
	<path fill="#37474F" d="M896.7,246.2h-1.4v-5.8h-1.4v-1l2.9-0.3V246.2z"/>
</g>
<g>
	<path fill="#37474F" d="M934.1,242.1h0.8c0.3,0,0.6-0.1,0.8-0.3s0.2-0.4,0.2-0.7c0-0.3-0.1-0.5-0.2-0.7s-0.4-0.3-0.7-0.3
		c-0.3,0-0.5,0.1-0.7,0.2s-0.3,0.4-0.3,0.6h-1.4l0,0c0-0.6,0.2-1,0.6-1.4s1-0.5,1.7-0.5c0.7,0,1.3,0.2,1.8,0.5
		c0.4,0.4,0.7,0.9,0.7,1.5c0,0.3-0.1,0.6-0.3,0.9s-0.5,0.5-0.8,0.7c0.4,0.1,0.7,0.4,0.9,0.6c0.2,0.3,0.3,0.6,0.3,1
		c0,0.7-0.2,1.2-0.7,1.5c-0.5,0.4-1.1,0.6-1.8,0.6c-0.7,0-1.2-0.2-1.7-0.5c-0.5-0.4-0.7-0.8-0.7-1.5l0,0h1.4c0,0.3,0.1,0.5,0.3,0.7
		c0.2,0.2,0.4,0.3,0.7,0.3c0.3,0,0.6-0.1,0.8-0.3c0.2-0.2,0.3-0.4,0.3-0.7c0-0.4-0.1-0.6-0.3-0.8c-0.2-0.2-0.5-0.3-0.8-0.3h-0.8
		V242.1z"/>
	<path fill="#37474F" d="M943.2,246.2h-4.9v-0.9l2.3-2.5c0.3-0.4,0.6-0.7,0.7-1s0.2-0.5,0.2-0.7c0-0.3-0.1-0.5-0.2-0.7
		c-0.2-0.2-0.4-0.3-0.7-0.3c-0.3,0-0.6,0.1-0.8,0.3c-0.2,0.2-0.3,0.5-0.3,0.9h-1.4l0,0c0-0.6,0.2-1.2,0.6-1.6c0.4-0.4,1-0.7,1.8-0.7
		c0.7,0,1.3,0.2,1.7,0.6c0.4,0.4,0.6,0.9,0.6,1.5c0,0.4-0.1,0.8-0.4,1.2c-0.2,0.4-0.6,0.8-1.2,1.4l-1.3,1.4l0,0h3V246.2z"/>
</g>
<g>
	<path fill="#37474F" d="M662.6,304.7h0.8v1.1h-0.8v1.5h-1.4v-1.5h-2.9l-0.1-0.9l2.9-4.7h1.4V304.7z M659.5,304.7h1.6v-2.6l0,0
		l-0.1,0.2L659.5,304.7z"/>
	<path fill="#37474F" d="M664.3,304.2l0.4-4h4v1.1h-2.8l-0.2,1.6c0.1-0.1,0.3-0.2,0.5-0.2s0.4-0.1,0.6-0.1c0.7,0,1.2,0.2,1.6,0.6
		c0.4,0.4,0.6,1,0.6,1.8c0,0.7-0.2,1.3-0.6,1.7c-0.4,0.5-1,0.7-1.8,0.7c-0.7,0-1.2-0.2-1.7-0.5c-0.5-0.4-0.7-0.8-0.7-1.5l0,0
		l1.4-0.1c0,0.3,0.1,0.6,0.3,0.7c0.2,0.2,0.4,0.3,0.7,0.3c0.3,0,0.6-0.1,0.7-0.4c0.2-0.2,0.2-0.5,0.2-0.9c0-0.4-0.1-0.7-0.3-1
		s-0.4-0.4-0.8-0.4c-0.3,0-0.5,0-0.6,0.2c-0.1,0.1-0.2,0.2-0.3,0.4L664.3,304.2z"/>
</g>
<g>
	<path fill="#37474F" d="M708.5,304.7h0.8v1.1h-0.8v1.5H707v-1.5h-2.9l-0.1-0.9l2.9-4.7h1.4V304.7z M705.4,304.7h1.6v-2.6l0,0
		l-0.1,0.2L705.4,304.7z"/>
	<path fill="#37474F" d="M712.9,300.1c0.3,0,0.5,0,0.7,0.1c0.2,0.1,0.5,0.1,0.7,0.2l-0.3,1c-0.2-0.1-0.4-0.1-0.6-0.2
		c-0.2,0-0.4-0.1-0.6-0.1c-0.4,0-0.8,0.2-1,0.5c-0.3,0.3-0.4,0.8-0.4,1.3l0,0c0.2-0.2,0.4-0.3,0.6-0.4c0.2-0.1,0.5-0.1,0.8-0.1
		c0.6,0,1.1,0.2,1.5,0.7c0.4,0.5,0.5,1,0.5,1.7c0,0.7-0.2,1.3-0.7,1.8c-0.4,0.5-1,0.7-1.7,0.7c-0.8,0-1.4-0.3-1.8-0.8
		c-0.5-0.5-0.7-1.2-0.7-2.1v-1.4c0-0.9,0.3-1.7,0.8-2.2S712,300.1,712.9,300.1z M712.5,303.7c-0.3,0-0.5,0-0.7,0.1
		c-0.2,0.1-0.3,0.2-0.4,0.3v0.5c0,0.6,0.1,1,0.3,1.3c0.2,0.3,0.5,0.5,0.8,0.5c0.3,0,0.5-0.1,0.7-0.4c0.2-0.3,0.3-0.6,0.3-1
		c0-0.4-0.1-0.7-0.3-1C713.1,303.8,712.8,303.7,712.5,303.7z"/>
</g>
<g>
	<path fill="#37474F" d="M754.3,304.7h0.8v1.1h-0.8v1.5h-1.4v-1.5H750L750,305l2.9-4.7h1.4V304.7z M751.3,304.7h1.6v-2.6l0,0
		l-0.1,0.2L751.3,304.7z"/>
	<path fill="#37474F" d="M760.7,301.3c-0.8,0.9-1.3,1.7-1.6,2.5c-0.3,0.8-0.5,1.7-0.6,2.8l-0.1,0.7h-1.4l0.1-0.7
		c0.1-1,0.3-2,0.7-2.9s0.9-1.7,1.5-2.4h-3.7v-1.1h5V301.3z"/>
</g>
<g>
	<path fill="#37474F" d="M799.2,304.7h0.8v1.1h-0.8v1.5h-1.4v-1.5h-2.9l-0.1-0.9l2.9-4.7h1.4V304.7z M796.2,304.7h1.6v-2.6l0,0
		l-0.1,0.2L796.2,304.7z"/>
	<path fill="#37474F" d="M805.4,302.1c0,0.4-0.1,0.7-0.3,0.9c-0.2,0.3-0.4,0.5-0.8,0.6c0.4,0.2,0.7,0.4,0.9,0.7
		c0.2,0.3,0.3,0.6,0.3,1c0,0.7-0.2,1.2-0.7,1.5c-0.4,0.4-1,0.5-1.7,0.5c-0.7,0-1.3-0.2-1.8-0.5c-0.4-0.4-0.7-0.9-0.7-1.5
		c0-0.4,0.1-0.7,0.3-1c0.2-0.3,0.5-0.5,0.9-0.7c-0.3-0.2-0.6-0.4-0.8-0.6c-0.2-0.3-0.3-0.6-0.3-0.9c0-0.6,0.2-1.1,0.6-1.5
		s1-0.5,1.6-0.5c0.7,0,1.2,0.2,1.6,0.5S805.4,301.5,805.4,302.1z M804.2,305.3c0-0.3-0.1-0.6-0.3-0.8s-0.4-0.3-0.7-0.3
		c-0.3,0-0.5,0.1-0.7,0.3c-0.2,0.2-0.3,0.4-0.3,0.8c0,0.3,0.1,0.6,0.3,0.8s0.4,0.3,0.7,0.3c0.3,0,0.5-0.1,0.7-0.3
		C804.1,305.9,804.2,305.6,804.2,305.3z M804,302.2c0-0.3-0.1-0.5-0.2-0.7c-0.2-0.2-0.4-0.3-0.6-0.3c-0.3,0-0.5,0.1-0.6,0.3
		s-0.2,0.4-0.2,0.7c0,0.3,0.1,0.5,0.2,0.7c0.1,0.2,0.4,0.3,0.6,0.3c0.3,0,0.5-0.1,0.6-0.3C803.9,302.7,804,302.5,804,302.2z"/>
</g>
<g>
	<path fill="#37474F" d="M846.1,304.7h0.8v1.1h-0.8v1.5h-1.4v-1.5h-2.9l-0.1-0.9l2.9-4.7h1.4V304.7z M843,304.7h1.6v-2.6l0,0
		l-0.1,0.2L843,304.7z"/>
	<path fill="#37474F" d="M849.7,306.4c0.4,0,0.7-0.1,0.9-0.4c0.2-0.3,0.4-0.7,0.4-1.2v-0.4c-0.2,0.2-0.3,0.4-0.6,0.5
		c-0.2,0.1-0.5,0.2-0.7,0.2c-0.7,0-1.2-0.2-1.6-0.6c-0.4-0.4-0.6-1-0.6-1.8c0-0.7,0.2-1.3,0.7-1.8c0.4-0.5,1-0.7,1.7-0.7
		c0.7,0,1.3,0.3,1.8,0.7c0.5,0.5,0.7,1.2,0.7,2.1v1.7c0,0.9-0.3,1.5-0.8,2c-0.5,0.5-1.2,0.7-1.9,0.7c-0.2,0-0.5,0-0.8-0.1
		c-0.3-0.1-0.5-0.1-0.7-0.2l0.2-1c0.2,0.1,0.4,0.1,0.6,0.2C849.2,306.3,849.4,306.4,849.7,306.4z M849.9,304c0.2,0,0.4,0,0.6-0.1
		s0.3-0.2,0.4-0.4v-0.7c0-0.5-0.1-0.9-0.3-1.2c-0.2-0.3-0.4-0.4-0.7-0.4c-0.3,0-0.5,0.1-0.7,0.4c-0.2,0.3-0.3,0.6-0.3,1
		c0,0.4,0.1,0.7,0.2,1C849.4,303.8,849.6,304,849.9,304z"/>
</g>
<g>
	<path fill="#37474F" d="M888,304.2l0.4-4h4v1.1h-2.8l-0.2,1.6c0.1-0.1,0.3-0.2,0.5-0.2s0.4-0.1,0.6-0.1c0.7,0,1.2,0.2,1.6,0.6
		c0.4,0.4,0.6,1,0.6,1.8c0,0.7-0.2,1.3-0.6,1.7c-0.4,0.5-1,0.7-1.8,0.7c-0.7,0-1.2-0.2-1.7-0.5c-0.5-0.4-0.7-0.8-0.7-1.5l0,0
		l1.4-0.1c0,0.3,0.1,0.6,0.3,0.7c0.2,0.2,0.4,0.3,0.7,0.3c0.3,0,0.6-0.1,0.7-0.4c0.2-0.2,0.2-0.5,0.2-0.9c0-0.4-0.1-0.7-0.3-1
		s-0.4-0.4-0.8-0.4c-0.3,0-0.5,0-0.6,0.2c-0.1,0.1-0.2,0.2-0.3,0.4L888,304.2z"/>
	<path fill="#37474F" d="M898.3,304.6c0,0.9-0.2,1.7-0.6,2.1c-0.4,0.5-1,0.7-1.8,0.7c-0.7,0-1.3-0.2-1.8-0.7
		c-0.4-0.5-0.6-1.2-0.6-2.1V303c0-0.9,0.2-1.7,0.6-2.1c0.4-0.5,1-0.7,1.8-0.7c0.7,0,1.3,0.2,1.8,0.7c0.4,0.5,0.7,1.2,0.7,2.1V304.6z
		 M896.9,302.9c0-0.6-0.1-1-0.3-1.2s-0.4-0.4-0.7-0.4c-0.3,0-0.6,0.1-0.7,0.4c-0.2,0.3-0.2,0.7-0.2,1.2v1.8c0,0.6,0.1,1,0.3,1.2
		c0.2,0.3,0.4,0.4,0.7,0.4c0.3,0,0.6-0.1,0.7-0.4c0.2-0.3,0.2-0.7,0.2-1.2V302.9z"/>
</g>
<g>
	<path fill="#37474F" d="M932.8,304.2l0.4-4h4v1.1h-2.8l-0.2,1.6c0.1-0.1,0.3-0.2,0.5-0.2s0.4-0.1,0.6-0.1c0.7,0,1.2,0.2,1.6,0.6
		c0.4,0.4,0.6,1,0.6,1.8c0,0.7-0.2,1.3-0.6,1.7c-0.4,0.5-1,0.7-1.8,0.7c-0.7,0-1.2-0.2-1.7-0.5c-0.5-0.4-0.7-0.8-0.7-1.5l0,0
		l1.4-0.1c0,0.3,0.1,0.6,0.3,0.7c0.2,0.2,0.4,0.3,0.7,0.3c0.3,0,0.6-0.1,0.7-0.4c0.2-0.2,0.2-0.5,0.2-0.9c0-0.4-0.1-0.7-0.3-1
		s-0.4-0.4-0.8-0.4c-0.3,0-0.5,0-0.6,0.2c-0.1,0.1-0.2,0.2-0.3,0.4L932.8,304.2z"/>
	<path fill="#37474F" d="M941.6,307.4h-1.4v-5.8h-1.4v-1l2.9-0.3V307.4z"/>
</g>
<g>
	<path fill="#37474F" d="M279.2,303.2h0.8c0.3,0,0.6-0.1,0.8-0.3c0.2-0.2,0.2-0.4,0.2-0.7c0-0.3-0.1-0.5-0.2-0.7
		c-0.2-0.2-0.4-0.3-0.7-0.3c-0.3,0-0.5,0.1-0.7,0.2s-0.3,0.4-0.3,0.6h-1.4l0,0c0-0.6,0.2-1,0.6-1.4c0.4-0.4,1-0.5,1.7-0.5
		c0.7,0,1.3,0.2,1.8,0.5c0.4,0.4,0.7,0.9,0.7,1.5c0,0.3-0.1,0.6-0.3,0.9s-0.5,0.5-0.8,0.7c0.4,0.1,0.7,0.4,0.9,0.6
		c0.2,0.3,0.3,0.6,0.3,1c0,0.7-0.2,1.2-0.7,1.5c-0.5,0.4-1.1,0.6-1.8,0.6c-0.7,0-1.2-0.2-1.7-0.5c-0.5-0.3-0.7-0.8-0.7-1.5l0,0h1.4
		c0,0.3,0.1,0.5,0.3,0.7c0.2,0.2,0.4,0.3,0.7,0.3c0.3,0,0.6-0.1,0.8-0.3c0.2-0.2,0.3-0.4,0.3-0.7c0-0.4-0.1-0.6-0.3-0.8
		c-0.2-0.2-0.5-0.3-0.8-0.3h-0.8V303.2z"/>
	<path fill="#37474F" d="M288.2,302.1c0,0.4-0.1,0.7-0.3,0.9c-0.2,0.3-0.4,0.5-0.8,0.6c0.4,0.2,0.7,0.4,0.9,0.7
		c0.2,0.3,0.3,0.6,0.3,1c0,0.7-0.2,1.2-0.7,1.5c-0.4,0.4-1,0.5-1.7,0.5c-0.7,0-1.3-0.2-1.8-0.5c-0.4-0.4-0.7-0.9-0.7-1.5
		c0-0.4,0.1-0.7,0.3-1c0.2-0.3,0.5-0.5,0.9-0.7c-0.3-0.2-0.6-0.4-0.8-0.6c-0.2-0.3-0.3-0.6-0.3-0.9c0-0.6,0.2-1.1,0.6-1.5
		s1-0.5,1.6-0.5c0.7,0,1.2,0.2,1.6,0.5S288.2,301.5,288.2,302.1z M286.9,305.3c0-0.3-0.1-0.6-0.3-0.8s-0.4-0.3-0.7-0.3
		c-0.3,0-0.5,0.1-0.7,0.3c-0.2,0.2-0.3,0.4-0.3,0.8c0,0.3,0.1,0.6,0.3,0.8s0.4,0.3,0.7,0.3c0.3,0,0.5-0.1,0.7-0.3
		C286.8,305.9,286.9,305.6,286.9,305.3z M286.8,302.2c0-0.3-0.1-0.5-0.2-0.7c-0.2-0.2-0.4-0.3-0.6-0.3c-0.3,0-0.5,0.1-0.6,0.3
		s-0.2,0.4-0.2,0.7c0,0.3,0.1,0.5,0.2,0.7c0.1,0.2,0.4,0.3,0.6,0.3c0.3,0,0.5-0.1,0.6-0.3C286.7,302.7,286.8,302.5,286.8,302.2z"/>
</g>
<g>
	<path fill="#37474F" d="M325.1,303.2h0.8c0.3,0,0.6-0.1,0.8-0.3c0.2-0.2,0.2-0.4,0.2-0.7c0-0.3-0.1-0.5-0.2-0.7
		c-0.2-0.2-0.4-0.3-0.7-0.3c-0.3,0-0.5,0.1-0.7,0.2s-0.3,0.4-0.3,0.6h-1.4l0,0c0-0.6,0.2-1,0.6-1.4c0.4-0.4,1-0.5,1.7-0.5
		c0.7,0,1.3,0.2,1.8,0.5c0.4,0.4,0.7,0.9,0.7,1.5c0,0.3-0.1,0.6-0.3,0.9s-0.5,0.5-0.8,0.7c0.4,0.1,0.7,0.4,0.9,0.6
		c0.2,0.3,0.3,0.6,0.3,1c0,0.7-0.2,1.2-0.7,1.5c-0.5,0.4-1.1,0.6-1.8,0.6c-0.7,0-1.2-0.2-1.7-0.5c-0.5-0.3-0.7-0.8-0.7-1.5l0,0h1.4
		c0,0.3,0.1,0.5,0.3,0.7c0.2,0.2,0.4,0.3,0.7,0.3c0.3,0,0.6-0.1,0.8-0.3c0.2-0.2,0.3-0.4,0.3-0.7c0-0.4-0.1-0.6-0.3-0.8
		c-0.2-0.2-0.5-0.3-0.8-0.3h-0.8V303.2z"/>
	<path fill="#37474F" d="M331.5,306.4c0.4,0,0.7-0.1,0.9-0.4c0.2-0.3,0.4-0.7,0.4-1.2v-0.4c-0.2,0.2-0.3,0.4-0.6,0.5
		c-0.2,0.1-0.5,0.2-0.7,0.2c-0.7,0-1.2-0.2-1.6-0.6c-0.4-0.4-0.6-1-0.6-1.8c0-0.7,0.2-1.3,0.7-1.8c0.4-0.5,1-0.7,1.7-0.7
		c0.7,0,1.3,0.3,1.8,0.7c0.5,0.5,0.7,1.2,0.7,2.1v1.7c0,0.9-0.3,1.5-0.8,2c-0.5,0.5-1.2,0.7-1.9,0.7c-0.2,0-0.5,0-0.8-0.1
		c-0.3-0.1-0.5-0.1-0.7-0.2l0.2-1c0.2,0.1,0.4,0.1,0.6,0.2C331,306.3,331.2,306.4,331.5,306.4z M331.7,304c0.2,0,0.4,0,0.6-0.1
		s0.3-0.2,0.4-0.4v-0.7c0-0.5-0.1-0.9-0.3-1.2c-0.2-0.3-0.4-0.4-0.7-0.4c-0.3,0-0.5,0.1-0.7,0.4c-0.2,0.3-0.3,0.6-0.3,1
		c0,0.4,0.1,0.7,0.2,1C331.2,303.8,331.4,304,331.7,304z"/>
</g>
<g>
	<path fill="#37474F" d="M377.7,304.7h0.8v1.1h-0.8v1.5h-1.4v-1.5h-2.9l-0.1-0.9l2.9-4.7h1.4V304.7z M374.7,304.7h1.6v-2.6l0,0
		l-0.1,0.2L374.7,304.7z"/>
	<path fill="#37474F" d="M384.1,304.6c0,0.9-0.2,1.7-0.6,2.1c-0.4,0.5-1,0.7-1.8,0.7c-0.7,0-1.3-0.2-1.8-0.7
		c-0.4-0.5-0.6-1.2-0.6-2.1V303c0-0.9,0.2-1.7,0.6-2.1c0.4-0.5,1-0.7,1.8-0.7c0.7,0,1.3,0.2,1.8,0.7c0.4,0.5,0.7,1.2,0.7,2.1V304.6z
		 M382.7,302.9c0-0.6-0.1-1-0.3-1.2s-0.4-0.4-0.7-0.4c-0.3,0-0.6,0.1-0.7,0.4c-0.2,0.3-0.2,0.7-0.2,1.2v1.8c0,0.6,0.1,1,0.3,1.2
		c0.2,0.3,0.4,0.4,0.7,0.4c0.3,0,0.6-0.1,0.7-0.4c0.2-0.3,0.2-0.7,0.2-1.2V302.9z"/>
</g>
<g>
	<path fill="#37474F" d="M425.6,304.7h0.8v1.1h-0.8v1.5h-1.4v-1.5h-2.9l-0.1-0.9l2.9-4.7h1.4V304.7z M422.6,304.7h1.6v-2.6l0,0
		l-0.1,0.2L422.6,304.7z"/>
	<path fill="#37474F" d="M430.4,307.4H429v-5.8h-1.4v-1l2.9-0.3V307.4z"/>
</g>
<g>
	<path fill="#37474F" d="M474.5,304.7h0.8v1.1h-0.8v1.5h-1.4v-1.5h-2.9l-0.1-0.9l2.9-4.7h1.4V304.7z M471.4,304.7h1.6v-2.6l0,0
		l-0.1,0.2L471.4,304.7z"/>
	<path fill="#37474F" d="M480.9,307.4H476v-0.9l2.3-2.5c0.3-0.4,0.6-0.7,0.7-1c0.1-0.3,0.2-0.5,0.2-0.7c0-0.3-0.1-0.5-0.2-0.7
		c-0.2-0.2-0.4-0.3-0.7-0.3c-0.3,0-0.6,0.1-0.8,0.3c-0.2,0.2-0.3,0.5-0.3,0.9h-1.4l0,0c0-0.6,0.2-1.2,0.6-1.6c0.4-0.4,1-0.7,1.8-0.7
		c0.7,0,1.3,0.2,1.7,0.6c0.4,0.4,0.6,0.9,0.6,1.5c0,0.4-0.1,0.8-0.4,1.2c-0.2,0.4-0.6,0.8-1.2,1.4l-1.3,1.4l0,0h3V307.4z"/>
</g>
<g>
	<path fill="#37474F" d="M37,303.2h0.8c0.3,0,0.6-0.1,0.8-0.3c0.2-0.2,0.2-0.4,0.2-0.7c0-0.3-0.1-0.5-0.2-0.7
		c-0.2-0.2-0.4-0.3-0.7-0.3c-0.3,0-0.5,0.1-0.7,0.2s-0.3,0.4-0.3,0.6h-1.4l0,0c0-0.6,0.2-1,0.6-1.4c0.4-0.4,1-0.5,1.7-0.5
		c0.7,0,1.3,0.2,1.8,0.5c0.4,0.4,0.7,0.9,0.7,1.5c0,0.3-0.1,0.6-0.3,0.9s-0.5,0.5-0.8,0.7c0.4,0.1,0.7,0.4,0.9,0.6
		c0.2,0.3,0.3,0.6,0.3,1c0,0.7-0.2,1.2-0.7,1.5c-0.5,0.4-1.1,0.6-1.8,0.6c-0.7,0-1.2-0.2-1.7-0.5c-0.5-0.3-0.7-0.8-0.7-1.5l0,0h1.4
		c0,0.3,0.1,0.5,0.3,0.7c0.2,0.2,0.4,0.3,0.7,0.3c0.3,0,0.6-0.1,0.8-0.3c0.2-0.2,0.3-0.4,0.3-0.7c0-0.4-0.1-0.6-0.3-0.8
		c-0.2-0.2-0.5-0.3-0.8-0.3H37V303.2z"/>
	<path fill="#37474F" d="M42.7,303.2h0.8c0.3,0,0.6-0.1,0.8-0.3c0.2-0.2,0.2-0.4,0.2-0.7c0-0.3-0.1-0.5-0.2-0.7
		c-0.2-0.2-0.4-0.3-0.7-0.3c-0.3,0-0.5,0.1-0.7,0.2s-0.3,0.4-0.3,0.6h-1.4l0,0c0-0.6,0.2-1,0.6-1.4c0.4-0.4,1-0.5,1.7-0.5
		c0.7,0,1.3,0.2,1.8,0.5c0.4,0.4,0.7,0.9,0.7,1.5c0,0.3-0.1,0.6-0.3,0.9s-0.5,0.5-0.8,0.7c0.4,0.1,0.7,0.4,0.9,0.6
		c0.2,0.3,0.3,0.6,0.3,1c0,0.7-0.2,1.2-0.7,1.5c-0.5,0.4-1.1,0.6-1.8,0.6c-0.7,0-1.2-0.2-1.7-0.5c-0.5-0.3-0.7-0.8-0.7-1.5l0,0h1.4
		c0,0.3,0.1,0.5,0.3,0.7c0.2,0.2,0.4,0.3,0.7,0.3c0.3,0,0.6-0.1,0.8-0.3c0.2-0.2,0.3-0.4,0.3-0.7c0-0.4-0.1-0.6-0.3-0.8
		c-0.2-0.2-0.5-0.3-0.8-0.3h-0.8V303.2z"/>
</g>
<g>
	<path fill="#37474F" d="M45.7,481.1l0.4-4h4v1.1h-2.8l-0.2,1.6c0.1-0.1,0.3-0.2,0.5-0.2s0.4-0.1,0.6-0.1c0.7,0,1.2,0.2,1.6,0.6
		c0.4,0.4,0.6,1,0.6,1.8c0,0.7-0.2,1.3-0.6,1.7c-0.4,0.5-1,0.7-1.8,0.7c-0.7,0-1.2-0.2-1.7-0.5c-0.5-0.4-0.7-0.8-0.7-1.5l0,0
		l1.4-0.1c0,0.3,0.1,0.6,0.3,0.7c0.2,0.2,0.4,0.3,0.7,0.3c0.3,0,0.6-0.1,0.7-0.4c0.2-0.2,0.2-0.5,0.2-0.9c0-0.4-0.1-0.7-0.3-1
		c-0.2-0.2-0.4-0.4-0.8-0.4c-0.3,0-0.5,0.1-0.6,0.2c-0.1,0.1-0.2,0.2-0.3,0.4L45.7,481.1z"/>
	<path fill="#37474F" d="M56.2,484.3h-4.9v-0.9l2.3-2.5c0.3-0.4,0.6-0.7,0.7-1c0.1-0.3,0.2-0.5,0.2-0.7c0-0.3-0.1-0.5-0.2-0.7
		c-0.2-0.2-0.4-0.3-0.7-0.3c-0.3,0-0.6,0.1-0.8,0.3c-0.2,0.2-0.3,0.5-0.3,0.9h-1.4l0,0c0-0.6,0.2-1.2,0.6-1.6c0.4-0.4,1-0.7,1.8-0.7
		c0.7,0,1.3,0.2,1.7,0.6c0.4,0.4,0.6,0.9,0.6,1.5c0,0.4-0.1,0.8-0.4,1.2c-0.2,0.4-0.6,0.8-1.2,1.4l-1.3,1.4l0,0h3V484.3z"/>
</g>
<g>
	<path fill="#37474F" d="M84.9,303.2h0.8c0.3,0,0.6-0.1,0.8-0.3c0.2-0.2,0.2-0.4,0.2-0.7c0-0.3-0.1-0.5-0.2-0.7
		c-0.2-0.2-0.4-0.3-0.7-0.3c-0.3,0-0.5,0.1-0.7,0.2s-0.3,0.4-0.3,0.6h-1.4l0,0c0-0.6,0.2-1,0.6-1.4c0.4-0.4,1-0.5,1.7-0.5
		c0.7,0,1.3,0.2,1.8,0.5c0.4,0.4,0.7,0.9,0.7,1.5c0,0.3-0.1,0.6-0.3,0.9s-0.5,0.5-0.8,0.7c0.4,0.1,0.7,0.4,0.9,0.6
		c0.2,0.3,0.3,0.6,0.3,1c0,0.7-0.2,1.2-0.7,1.5c-0.5,0.4-1.1,0.6-1.8,0.6c-0.7,0-1.2-0.2-1.7-0.5c-0.5-0.3-0.7-0.8-0.7-1.5l0,0h1.4
		c0,0.3,0.1,0.5,0.3,0.7c0.2,0.2,0.4,0.3,0.7,0.3c0.3,0,0.6-0.1,0.8-0.3c0.2-0.2,0.3-0.4,0.3-0.7c0-0.4-0.1-0.6-0.3-0.8
		c-0.2-0.2-0.5-0.3-0.8-0.3h-0.8V303.2z"/>
	<path fill="#37474F" d="M93.4,304.7h0.8v1.1h-0.8v1.5h-1.4v-1.5H89L89,305l2.9-4.7h1.4V304.7z M90.3,304.7h1.6v-2.6l0,0l-0.1,0.2
		L90.3,304.7z"/>
</g>
<g>
	<path fill="#37474F" d="M132.8,303.2h0.8c0.3,0,0.6-0.1,0.8-0.3c0.2-0.2,0.2-0.4,0.2-0.7c0-0.3-0.1-0.5-0.2-0.7
		c-0.2-0.2-0.4-0.3-0.7-0.3c-0.3,0-0.5,0.1-0.7,0.2s-0.3,0.4-0.3,0.6h-1.4l0,0c0-0.6,0.2-1,0.6-1.4c0.4-0.4,1-0.5,1.7-0.5
		c0.7,0,1.3,0.2,1.8,0.5c0.4,0.4,0.7,0.9,0.7,1.5c0,0.3-0.1,0.6-0.3,0.9s-0.5,0.5-0.8,0.7c0.4,0.1,0.7,0.4,0.9,0.6
		c0.2,0.3,0.3,0.6,0.3,1c0,0.7-0.2,1.2-0.7,1.5c-0.5,0.4-1.1,0.6-1.8,0.6c-0.7,0-1.2-0.2-1.7-0.5c-0.5-0.3-0.7-0.8-0.7-1.5l0,0h1.4
		c0,0.3,0.1,0.5,0.3,0.7c0.2,0.2,0.4,0.3,0.7,0.3c0.3,0,0.6-0.1,0.8-0.3c0.2-0.2,0.3-0.4,0.3-0.7c0-0.4-0.1-0.6-0.3-0.8
		c-0.2-0.2-0.5-0.3-0.8-0.3h-0.8V303.2z"/>
	<path fill="#37474F" d="M137.2,304.2l0.4-4h4v1.1h-2.8l-0.2,1.6c0.1-0.1,0.3-0.2,0.5-0.2s0.4-0.1,0.6-0.1c0.7,0,1.2,0.2,1.6,0.6
		c0.4,0.4,0.6,1,0.6,1.8c0,0.7-0.2,1.3-0.6,1.7c-0.4,0.5-1,0.7-1.8,0.7c-0.7,0-1.2-0.2-1.7-0.5c-0.5-0.4-0.7-0.8-0.7-1.5l0,0
		l1.4-0.1c0,0.3,0.1,0.6,0.3,0.7c0.2,0.2,0.4,0.3,0.7,0.3c0.3,0,0.6-0.1,0.7-0.4c0.2-0.2,0.2-0.5,0.2-0.9c0-0.4-0.1-0.7-0.3-1
		s-0.4-0.4-0.8-0.4c-0.3,0-0.5,0-0.6,0.2c-0.1,0.1-0.2,0.2-0.3,0.4L137.2,304.2z"/>
</g>
<g>
	<path fill="#37474F" d="M180.6,303.2h0.8c0.3,0,0.6-0.1,0.8-0.3c0.2-0.2,0.2-0.4,0.2-0.7c0-0.3-0.1-0.5-0.2-0.7
		c-0.2-0.2-0.4-0.3-0.7-0.3c-0.3,0-0.5,0.1-0.7,0.2s-0.3,0.4-0.3,0.6h-1.4l0,0c0-0.6,0.2-1,0.6-1.4c0.4-0.4,1-0.5,1.7-0.5
		c0.7,0,1.3,0.2,1.8,0.5c0.4,0.4,0.7,0.9,0.7,1.5c0,0.3-0.1,0.6-0.3,0.9s-0.5,0.5-0.8,0.7c0.4,0.1,0.7,0.4,0.9,0.6
		c0.2,0.3,0.3,0.6,0.3,1c0,0.7-0.2,1.2-0.7,1.5c-0.5,0.4-1.1,0.6-1.8,0.6c-0.7,0-1.2-0.2-1.7-0.5c-0.5-0.3-0.7-0.8-0.7-1.5l0,0h1.4
		c0,0.3,0.1,0.5,0.3,0.7c0.2,0.2,0.4,0.3,0.7,0.3c0.3,0,0.6-0.1,0.8-0.3c0.2-0.2,0.3-0.4,0.3-0.7c0-0.4-0.1-0.6-0.3-0.8
		c-0.2-0.2-0.5-0.3-0.8-0.3h-0.8V303.2z"/>
	<path fill="#37474F" d="M187.8,300.1c0.3,0,0.5,0,0.7,0.1c0.2,0.1,0.5,0.1,0.7,0.2l-0.3,1c-0.2-0.1-0.4-0.1-0.6-0.2
		c-0.2,0-0.4-0.1-0.6-0.1c-0.4,0-0.8,0.2-1,0.5c-0.3,0.3-0.4,0.8-0.4,1.3l0,0c0.2-0.2,0.4-0.3,0.6-0.4c0.2-0.1,0.5-0.1,0.8-0.1
		c0.6,0,1.1,0.2,1.5,0.7c0.4,0.5,0.5,1,0.5,1.7c0,0.7-0.2,1.3-0.7,1.8c-0.4,0.5-1,0.7-1.7,0.7c-0.8,0-1.4-0.3-1.8-0.8
		c-0.5-0.5-0.7-1.2-0.7-2.1v-1.4c0-0.9,0.3-1.7,0.8-2.2S187,300.1,187.8,300.1z M187.5,303.7c-0.3,0-0.5,0-0.7,0.1
		c-0.2,0.1-0.3,0.2-0.4,0.3v0.5c0,0.6,0.1,1,0.3,1.3c0.2,0.3,0.5,0.5,0.8,0.5c0.3,0,0.5-0.1,0.7-0.4c0.2-0.3,0.3-0.6,0.3-1
		c0-0.4-0.1-0.7-0.3-1C188,303.8,187.8,303.7,187.5,303.7z"/>
</g>
<g>
	<path fill="#37474F" d="M229.5,303.2h0.8c0.3,0,0.6-0.1,0.8-0.3c0.2-0.2,0.2-0.4,0.2-0.7c0-0.3-0.1-0.5-0.2-0.7
		c-0.2-0.2-0.4-0.3-0.7-0.3c-0.3,0-0.5,0.1-0.7,0.2s-0.3,0.4-0.3,0.6H228l0,0c0-0.6,0.2-1,0.6-1.4c0.4-0.4,1-0.5,1.7-0.5
		c0.7,0,1.3,0.2,1.8,0.5c0.4,0.4,0.7,0.9,0.7,1.5c0,0.3-0.1,0.6-0.3,0.9s-0.5,0.5-0.8,0.7c0.4,0.1,0.7,0.4,0.9,0.6
		c0.2,0.3,0.3,0.6,0.3,1c0,0.7-0.2,1.2-0.7,1.5c-0.5,0.4-1.1,0.6-1.8,0.6c-0.7,0-1.2-0.2-1.7-0.5c-0.5-0.3-0.7-0.8-0.7-1.5l0,0h1.4
		c0,0.3,0.1,0.5,0.3,0.7c0.2,0.2,0.4,0.3,0.7,0.3c0.3,0,0.6-0.1,0.8-0.3c0.2-0.2,0.3-0.4,0.3-0.7c0-0.4-0.1-0.6-0.3-0.8
		c-0.2-0.2-0.5-0.3-0.8-0.3h-0.8V303.2z"/>
	<path fill="#37474F" d="M238.6,301.3c-0.8,0.9-1.3,1.7-1.6,2.5c-0.3,0.8-0.5,1.7-0.6,2.8l-0.1,0.7H235l0.1-0.7c0.1-1,0.3-2,0.7-2.9
		s0.9-1.7,1.5-2.4h-3.7v-1.1h5V301.3z"/>
</g>
<g>
	<path fill="#37474F" d="M523.4,304.7h0.8v1.1h-0.8v1.5h-1.4v-1.5H519L519,305l2.9-4.7h1.4V304.7z M520.3,304.7h1.6v-2.6l0,0
		l-0.1,0.2L520.3,304.7z"/>
	<path fill="#37474F" d="M526.4,303.2h0.8c0.3,0,0.6-0.1,0.8-0.3c0.2-0.2,0.2-0.4,0.2-0.7c0-0.3-0.1-0.5-0.2-0.7
		c-0.2-0.2-0.4-0.3-0.7-0.3c-0.3,0-0.5,0.1-0.7,0.2s-0.3,0.4-0.3,0.6h-1.4l0,0c0-0.6,0.2-1,0.6-1.4c0.4-0.4,1-0.5,1.7-0.5
		c0.7,0,1.3,0.2,1.8,0.5c0.4,0.4,0.7,0.9,0.7,1.5c0,0.3-0.1,0.6-0.3,0.9s-0.5,0.5-0.8,0.7c0.4,0.1,0.7,0.4,0.9,0.6
		c0.2,0.3,0.3,0.6,0.3,1c0,0.7-0.2,1.2-0.7,1.5c-0.5,0.4-1.1,0.6-1.8,0.6c-0.7,0-1.2-0.2-1.7-0.5c-0.5-0.3-0.7-0.8-0.7-1.5l0,0h1.4
		c0,0.3,0.1,0.5,0.3,0.7c0.2,0.2,0.4,0.3,0.7,0.3c0.3,0,0.6-0.1,0.8-0.3c0.2-0.2,0.3-0.4,0.3-0.7c0-0.4-0.1-0.6-0.3-0.8
		c-0.2-0.2-0.5-0.3-0.8-0.3h-0.8V303.2z"/>
</g>
<g>
	<path fill="#37474F" d="M571.2,304.7h0.8v1.1h-0.8v1.5h-1.4v-1.5h-2.9l-0.1-0.9l2.9-4.7h1.4V304.7z M568.2,304.7h1.6v-2.6l0,0
		l-0.1,0.2L568.2,304.7z"/>
	<path fill="#37474F" d="M577,304.7h0.8v1.1H577v1.5h-1.4v-1.5h-2.9l-0.1-0.9l2.9-4.7h1.4V304.7z M573.9,304.7h1.6v-2.6l0,0
		l-0.1,0.2L573.9,304.7z"/>
</g>
</svg>
