<!-- Generator: Adobe Illustrator 18.1.1, SVG Export Plug-In  -->
<svg version="1.1"
   xmlns="http://www.w3.org/2000/svg" xmlns:xlink="http://www.w3.org/1999/xlink" xmlns:a="http://ns.adobe.com/AdobeSVGViewerExtensions/3.0/"
   x="0px" y="0px" width="77.5px" height="50.6px" viewBox="0 0 77.5 50.6" enable-background="new 0 0 77.5 50.6"
   xml:space="preserve">
<defs>
</defs>
<g>
  <g>
    <g>
      <g>
        <path fill="#00A029" d="M52.3,9.9L32.7,3.1c-1.9-0.6-3.9-0.5-5.7,0.3l-1,0.5c-1.3,0.7-2.9,0.7-4.3,0.2L20,3.6
          c-0.1,0-0.2-0.1-0.2-0.1L9.7,0C9.5,0,9.2,0,9,0.1C8.7,0.2,8.6,0.4,8.5,0.6L0.1,25.2c-0.2,0.5,0.1,1,0.6,1.2l10.1,3.4
          c0.1,0,0.2,0.1,0.3,0.1c0.1,0,0.3,0,0.4-0.1c0.2-0.1,0.4-0.3,0.5-0.5L20,5.7L21,6c1.9,0.7,4,0.5,5.8-0.3l1-0.5
          c1.3-0.7,2.9-0.7,4.3-0.3l18.9,6.5c-0.1,0.8-0.5,2.2-1.6,2.9c-0.9,0.6-2.3,0.7-3.9,0.1l-8.2-2.8c-0.3-0.1-0.5-0.1-0.8,0.1
          c-0.2,0.1-0.4,0.3-0.5,0.6c0,0-1.2,4.6-5,6.6c-2.4,1.3-5.4,1.3-8.9,0.2c-0.5-0.2-1,0.1-1.2,0.6c-0.2,0.5,0.1,1,0.6,1.2
          c1.9,0.6,3.6,1,5.3,1c1.9,0,3.6-0.4,5.1-1.3c3.4-1.8,5-5.2,5.7-6.8l7.3,2.5c2.3,0.8,4.2,0.7,5.7-0.3c2.3-1.6,2.5-5,2.5-5.1
          C52.9,10.4,52.6,10,52.3,9.9z M10.4,27.8l-8.3-2.8L10,2.2l8,2.7c0.1,0,0.1,0.1,0.2,0.1l0,0L10.4,27.8z"/>
      </g>
    </g>
  </g>
  <g>
    <g>
      <path fill="#455A64" d="M77.4,24L66,0.7c-0.1-0.2-0.3-0.4-0.5-0.5c-0.2-0.1-0.5-0.1-0.7,0l-9.5,4.7c-0.5,0.2-0.7,0.8-0.4,1.3
        l11.1,22.7l-3.7,3.4c-3.2,2.9-6.7,5.3-10.6,7.2l-18.3,8.9c-0.5,0.3-1.1,0.3-1.6,0.1c-0.5-0.2-1-0.6-1.2-1.1
        c-0.3-0.5-0.3-1.1-0.1-1.6c0.2-0.5,0.6-1,1.1-1.2l10.2-5c0.5-0.2,0.7-0.8,0.4-1.3c-0.2-0.5-0.8-0.7-1.3-0.4l-10,4.9l-5,2.5
        c-1,0.5-2.3,0.1-2.8-1c-0.5-1-0.1-2.3,1-2.8l14.7-7.2c0.5-0.2,0.7-0.8,0.4-1.3c-0.2-0.5-0.8-0.7-1.3-0.4l-10.9,5.3L23,39.8
        l-1.8,0.9c-1,0.5-2.3,0.1-2.8-1c-0.5-1-0.1-2.3,1-2.8l1.8-0.9l13.1-6.4c0.5-0.2,0.7-0.8,0.4-1.3c-0.2-0.5-0.8-0.7-1.3-0.4
        l-8.4,4.1l-4.7,2.3c-0.5,0.3-1.1,0.3-1.6,0.1c-0.5-0.2-1-0.6-1.2-1.1c-0.3-0.5-0.3-1.1-0.1-1.6c0.2-0.5,0.6-1,1.1-1.2l7-3.4
        c0.5-0.2,0.7-0.8,0.4-1.3c-0.2-0.5-0.8-0.7-1.3-0.4l-7,3.4c-1,0.5-1.7,1.3-2,2.3c-0.3,1-0.3,2.1,0.2,3.1c0.4,0.8,1,1.4,1.7,1.8
        c-1.2,1.2-1.6,3-0.8,4.6c0.7,1.4,2.1,2.3,3.6,2.3c0.2,0,0.3,0,0.5,0c-0.1,0.8,0,1.6,0.3,2.4c0.7,1.4,2.1,2.3,3.6,2.3
        c0.6,0,1.2-0.1,1.8-0.4l1.7-0.9c-0.1,0.7,0,1.5,0.4,2.2c0.5,1,1.3,1.7,2.3,2c0.4,0.1,0.9,0.2,1.3,0.2c0.6,0,1.2-0.1,1.8-0.4
        l18.3-8.9c4-2,7.7-4.5,11-7.5l4.1-3.8l9.4-4.6C77.5,25,77.7,24.5,77.4,24z M67.4,27.9L56.8,6.2l7.8-3.8L75.3,24L67.4,27.9z"/>
    </g>
  </g>
</g>
</svg>
