<!-- Generator: Adobe Illustrator 18.1.1, SVG Export Plug-In  -->
<svg version="1.1"
   xmlns="http://www.w3.org/2000/svg" xmlns:xlink="http://www.w3.org/1999/xlink" xmlns:a="http://ns.adobe.com/AdobeSVGViewerExtensions/3.0/"
   x="0px" y="0px" width="69.8px" height="74.4px" viewBox="0 0 69.8 74.4" enable-background="new 0 0 69.8 74.4"
   xml:space="preserve">
<defs>
</defs>
<g>
  <g>
    <g>
      <g>
        <path fill="#00A029" d="M29.4,3.8"/>
      </g>
    </g>
    <g>
      <g>
        <path fill="#00A029" d="M29.4,70.6"/>
      </g>
    </g>
    <g>
      <g>
        <g>
          <path fill="#00A029" d="M27.8,71.4C20.1,69.8,13,65.5,8,59.4c-5.1-6.2-8-14.1-8-22.2c0-8.3,3-16.4,8.4-22.7
            C13.8,8.2,21.2,4.1,29.2,2.8l0.3,2.1C13.7,7.5,2.2,21.1,2.2,37.2c0,15.5,11,28.9,26.1,32.1L27.8,71.4z"/>
        </g>
      </g>
      <g>
        <g>
          <g>
            <polygon fill="#00A029" points="22.7,74.4 22,73.3 27.6,70.1 24,64.8 25.1,64.1 29.4,70.6             "/>
          </g>
        </g>
      </g>
    </g>
    <g>
      <g>
        <path fill="#00A029" d="M40.4,70.6"/>
      </g>
    </g>
    <g>
      <g>
        <path fill="#00A029" d="M40.4,3.8"/>
      </g>
    </g>
    <g>
      <g>
        <g>
          <path fill="#00A029" d="M40.5,71.6l-0.3-2.1c15.9-2.6,27.4-16.2,27.4-32.3c0-15.5-11-28.9-26.1-32.1L41.9,3
            c7.7,1.6,14.8,5.9,19.9,12c5.1,6.2,8,14.1,8,22.2c0,8.3-3,16.4-8.4,22.7C56,66.2,48.6,70.3,40.5,71.6z"/>
        </g>
      </g>
      <g>
        <g>
          <g>
            <polygon fill="#00A029" points="47.1,0 47.7,1.1 42.2,4.3 45.7,9.6 44.7,10.3 40.4,3.8            "/>
          </g>
        </g>
      </g>
    </g>
  </g>
  <g>
    <g>
      <path fill="#546E7A" d="M26,54.1h-7.8v-7.3l12.1-12.1c-0.3-1.2-0.5-2.2-0.5-3.2c0-6,4.9-10.9,10.9-10.9s10.9,4.9,10.9,10.9
        s-4.9,10.9-10.9,10.9c-1.1,0-2.2-0.2-3.2-0.5l-5.1,5.1h-2.9v3.5H26V54.1z M20.1,52.1H24v-3.5h3.5v-3.5h4.1l5.4-5.4l0.6,0.2
        c1.1,0.4,2.1,0.5,3.2,0.5c4.9,0,8.9-4,8.9-8.9c0-4.9-4-8.9-8.9-8.9s-8.9,4-8.9,8.9c0,1,0.2,2,0.5,3.2l0.2,0.6L20.1,47.7V52.1z
         M42.6,34.1c-2.5,0-4.5-2-4.5-4.5s2-4.5,4.5-4.5c2.5,0,4.5,2,4.5,4.5S45.2,34.1,42.6,34.1z M42.6,27.1c-1.4,0-2.5,1.1-2.5,2.5
        s1.1,2.5,2.5,2.5s2.5-1.1,2.5-2.5S44.1,27.1,42.6,27.1z"/>
    </g>
  </g>
</g>
</svg>
