<!-- Generator: Adobe Illustrator 18.1.1, SVG Export Plug-In  -->
<svg version="1.1"
   xmlns="http://www.w3.org/2000/svg" xmlns:xlink="http://www.w3.org/1999/xlink" xmlns:a="http://ns.adobe.com/AdobeSVGViewerExtensions/3.0/"
   x="0px" y="0px" width="64.9px" height="65.7px" viewBox="0 0 64.9 65.7" enable-background="new 0 0 64.9 65.7"
   xml:space="preserve">
<defs>
</defs>
<g>
  <g>
    <path fill="#00A029" d="M43.9,54.5c-3.1,0-5.5,2.5-5.5,5.6c0,3.1,2.5,5.6,5.5,5.6c2.9,0,5.5-2.5,5.5-5.6
      C49.4,57.1,46.8,54.5,43.9,54.5z M43.9,62.9c-1.5,0-2.7-1.3-2.7-2.8s1.3-2.8,2.7-2.8c1.4,0,2.7,1.3,2.7,2.8S45.3,62.9,43.9,62.9z"
      />
    <path fill="#00A029" d="M14.1,54.5c-3.1,0-5.5,2.5-5.5,5.6c0,3.1,2.5,5.6,5.5,5.6c3.1,0,5.5-2.5,5.5-5.6
      C19.6,57.1,17.1,54.5,14.1,54.5z M14.1,62.9c-1.5,0-2.7-1.3-2.7-2.8s1.3-2.8,2.7-2.8c1.5,0,2.7,1.3,2.7,2.8
      C16.8,61.7,15.5,62.9,14.1,62.9z"/>
    <path fill="#455A64" d="M57.1,0l-2.2,8.5H0l10.1,30c-3.4,0.5-5.9,3.4-5.9,7.1c0,4.1,3.1,7.3,7,7.3h38v-2.7h-38
      c-2.4,0-4.2-2-4.2-4.5c0-2.5,2-4.5,4.2-4.5h38h0.1l9.9-38.5h5.6V0L57.1,0z M47.3,38.5H13L3.9,11.3h50.2L47.3,38.5L47.3,38.5z"/>
    <rect x="17.8" y="17.9" fill="#00A029" width="2.8" height="15.8"/>
    <rect x="27.7" y="17.9" fill="#00A029" width="2.8" height="15.8"/>
    <rect x="37.6" y="17.9" fill="#00A029" width="2.8" height="15.8"/>
  </g>
</g>
</svg>
