<!-- Generator: Adobe Illustrator 18.1.1, SVG Export Plug-In  -->
<svg version="1.1"
   xmlns="http://www.w3.org/2000/svg" xmlns:xlink="http://www.w3.org/1999/xlink" xmlns:a="http://ns.adobe.com/AdobeSVGViewerExtensions/3.0/"
   x="0px" y="0px" width="65.6px" height="67.6px" viewBox="0 0 65.6 67.6" enable-background="new 0 0 65.6 67.6"
   xml:space="preserve">
<defs>
</defs>
<g>
  <path fill="#455A64" d="M62.3,54.7c-0.2-0.1-0.5-0.3-0.8-0.4c-1.9-1-3.9-1.8-5.9-2.6c-0.1-0.2-0.3-0.3-0.4-0.3
    c-2.5-0.9-5.2-1.7-8-2.4c-0.2,0-0.4,0-0.5,0c-1.3-0.3-2.7-0.6-4.1-0.8c0.1-0.4,0.1-0.8,0.1-1.2v-2.9c4.6-4.1,7.5-10.6,7.3-16.8
    v-5.3l-2,0.9v4.4c0,10.2-7.5,18-14.5,18.5c-0.1,0-0.2,0-0.2,0c-0.1,0-0.1,0-0.2,0c-0.1,0-0.3,0-0.4,0c-0.1,0-0.3,0-0.4,0
    c-0.1,0-0.1,0-0.2,0c-0.1,0-0.2,0-0.3,0c-1.4-0.1-2.8-0.5-4.2-1.2c0,0,0,0,0,0c0,0,0,0,0,0c-1-0.5-1.9-1.1-2.8-1.9
    c-0.1-0.1-0.2-0.1-0.3-0.2c-4-3.3-7-8.8-7-15.2v-4.4l-2.2-1v5.5c0,6.2,3,12.8,7.6,16.9v2.8c0,0.4,0,0.8,0.1,1.1
    c-6.8,1.2-13.2,3.3-19,6.2l-0.8,0.4c-2.1,1-3.3,3.1-3.3,5.4v6.6c0,0.7,0.4,1.1,1.1,1.1H12h41.5h10.9c0.7,0,1.1-0.4,1.1-1V60
    C65.6,57.8,64.3,55.8,62.3,54.7z M47.6,51.2c1.8,0.5,3.6,1,5.4,1.6l-5.3,6h-4.3L47.6,51.2z M25.1,45.6c2.1,1.3,4.5,2.2,7.1,2.3
    c0,0,0,0,0,0c0.2,0,0.3,0,0.5,0s0.3,0,0.5,0c0,0,0,0,0,0c2.6-0.1,5-0.9,7.1-2.3v1.2c0,4.3-3.4,7.6-7.6,7.6c-4.3,0-7.6-3.4-7.6-7.6
    V45.6z M23.5,50.1c0.1,0.2,0.1,0.3,0.2,0.5c0,0.1,0,0.1,0.1,0.2c0,0,0,0.1,0.1,0.1c0.4,1,1.1,1.9,1.8,2.7c0,0,0.1,0.1,0.1,0.1
    c0,0,0.1,0.1,0.1,0.1c0.1,0.1,0.2,0.2,0.3,0.2c0,0,0,0,0,0c1.5,1.4,3.4,2.3,5.6,2.5c0,0,0.1,0,0.1,0c0.1,0,0.2,0,0.4,0
    c0,0,0.1,0,0.1,0c0.2,0,0.3,0,0.5,0s0.3,0,0.5,0c0,0,0.1,0,0.1,0c0.1,0,0.2,0,0.4,0c0,0,0.1,0,0.1,0c3.1-0.3,5.8-2.1,7.4-4.7
    c0,0,0,0,0,0c0,0,0-0.1,0.1-0.1c0.3-0.5,0.6-1.1,0.8-1.7c1.1,0.2,2.1,0.4,3.2,0.6l-4.5,8.1H24.7l-4.5-8.1
    C21.3,50.5,22.4,50.3,23.5,50.1z M18.1,51.2l4.1,7.6h-4.3l-5.2-6C14.4,52.2,16.2,51.7,18.1,51.2z M10.9,64.3v1.1H2.2v-5.5
    c0-1.4,0.8-2.7,2.1-3.4L5,56.1c1.7-0.9,3.5-1.7,5.4-2.4l4.8,5.3C12.7,59.5,10.9,61.6,10.9,64.3z M52.5,65.4H13.1v-1.1
    c0-1.9,1.4-3.3,3.3-3.3h1.1H24h17.5h6.6h1.1c1.9,0,3.3,1.4,3.3,3.3V65.4z M63.4,65.4h-8.7v-1.1c0-2.7-1.8-4.8-4.3-5.3l4.8-5.3
    c1.9,0.7,3.7,1.5,5.4,2.4c0.2,0.2,0.5,0.3,0.8,0.4c1.3,0.8,2.1,2.1,2.1,3.5V65.4z"/>
</g>
<path fill="#00A029" d="M15.2,19.5c0,0,0.1,0.1,0.1,0.1v0l2.4,1.1c0.8,0.2,1.7,0.3,2.6,0.1c4.1-0.8,8.2-1.1,12.4-1.1
  c4.2,0,8.4,0.4,12.5,1.1c0.3,0.1,0.5,0.1,0.8,0.1c0.7,0.1,1.4-0.1,2.1-0.2v0l2-0.9v0c0.1-0.1,0.1-0.1,0.2-0.2c1.4-1.2,2.2-3,2.2-4.7
  C52.5,6.7,45.8,0,37.7,0H28c-8.2,0-14.9,6.7-15,14.8C13,16.6,13.8,18.2,15.2,19.5z M48.8,17.8C48.8,17.8,48.8,17.9,48.8,17.8
  c-0.2,0.1-0.3,0.1-0.4,0.2c-0.5,0.4-1,0.6-1.5,0.7c-0.4,0.1-0.8,0.1-1.2,0c-7.8-1.5-15.8-1.6-23.4-0.4c-0.8,0.1-1.7,0.3-2.5,0.4
  c-0.1,0-0.3,0-0.4,0c-0.9,0-1.7-0.3-2.4-0.8c-0.7-0.4-1.1-1.1-1.3-1.7l4.7-0.9c8.2-1.5,16.6-1.5,25,0l4.7,0.9
  C49.8,16.8,49.4,17.4,48.8,17.8z M27.9,2.2h9.7c6.7,0,12.2,5.2,12.6,11.8l-4.6-0.8c-8.6-1.5-17.4-1.5-25.8,0L15.3,14
  C15.8,7.4,21.3,2.2,27.9,2.2z"/>
</svg>
