<!-- Generator: Adobe Illustrator 18.1.1, SVG Export Plug-In  -->
<svg version="1.1"
   xmlns="http://www.w3.org/2000/svg" xmlns:xlink="http://www.w3.org/1999/xlink" xmlns:a="http://ns.adobe.com/AdobeSVGViewerExtensions/3.0/"
   x="0px" y="0px" width="64.7px" height="69px" viewBox="0 0 64.7 69" enable-background="new 0 0 64.7 69" xml:space="preserve">
<defs>
</defs>
<g>
  <path fill="#00A029" d="M32.8,36.6l0.1-8.4c0.1,0,0.1,0,0.2,0c1.2,0.3,2.4,0.5,3.6,0.5c3.7,0,7.3-1.4,9.9-4.1
    c3.7-3.7,5.1-9.2,3.5-14.2C50,10,49.7,9.7,49.3,9.6C44.2,8,38.8,9.3,35.1,13c-0.6,0.6-1.1,1.2-1.6,1.9c-0.5-3.7-2.1-7.2-4.9-9.9
    c-4.5-4.5-11.1-6.1-17.2-4.2c-0.4,0.1-0.7,0.4-0.8,0.8c-1.9,6.1-0.3,12.7,4.2,17.2c3.2,3.2,7.6,5,12,5c1.2,0,2.3-0.1,3.5-0.4v13.9
     M36.8,14.8c2.9-2.9,7.1-4,11.1-3c1,4-0.1,8.1-3,11.1c-2.7,2.7-6.4,3.8-10,3.2c1-1.7,2.4-3.6,3.6-4.2c0.6-0.3,0.9-1.1,0.6-1.7
    c-0.3-0.6-1.1-0.9-1.7-0.6c-1.5,0.7-2.8,2.4-3.8,3.9C33.3,20.3,34.5,17.1,36.8,14.8z M24.7,14.3c3.3,2.2,4.4,6.7,4.5,6.7
    c0,0,0,0,0,0c-4.6,0.7-9.2-0.7-12.5-4.1c-3.7-3.7-5.1-9-3.8-14c5-1.3,10.3,0.1,14,3.8c3.2,3.2,4.7,7.7,4.1,12.1
    c-0.7-1.8-2.2-4.8-4.9-6.6c-0.6-0.4-1.3-0.2-1.7,0.3C24,13.2,24.2,14,24.7,14.3z"/>
  <path fill="#455A64" d="M64.5,49.8c-0.2-0.3-0.5-0.6-0.8-0.6c-0.1,0-7.3-1.6-16.5-2.9c0,0,0-0.1,0-0.1c-4-9.5-5.4-9.5-6.1-9.5
    c-0.9,0-5.2,0.9-8.7,1.6l-2.5,0.5c-0.5,0.1-0.9,0.2-1.3,0.3c-2.6-0.5-6.9-1.1-8.3,0.4L18,41.8L14.5,43c-4.2,1.4-5.6,7.6-5.8,8.3
    c-1.4-0.9-2.8-1.9-4.2-3.1C4.3,48,4,47.9,3.7,47.9C1,47.9,0,49.2,0,50.4c0,0.4,0,1,2.6,4.1c1,1.2,3.1,3.5,6.1,6.1
    c4.5,3.9,11.1,8.5,17.4,8.5c7.3,0,12.5-1.5,16.3-2.7c2.1-0.6,3.7-1.1,4.9-1.1c3.8,0,11.1-1.2,11.4-1.3c0.4-0.1,0.8-0.4,0.9-0.8
    l5-12.4C64.7,50.5,64.7,50.1,64.5,49.8z M11.2,51.9c0.3-1.5,1.6-5.7,4.1-6.5l3.7-1.2c0.2-0.1,0.4-0.2,0.5-0.3l2.5-2.5
    c0.6-0.4,3.6-0.2,6.4,0.3c0.2,0,0.3,0,0.5,0c4.9-1.1,10.4-2.2,11.9-2.4c0.7,0.8,2.3,3.8,3.6,6.7c-1.4-0.2-2.9-0.3-4.4-0.5
    c-12.4-1.2-19.5-0.2-21.1,3.2c-0.3,0.7-0.3,1.4,0.1,2c1,1.7,4.7,2.3,13.5,2.3c1.2,0,1.8,0.3,2,0.6c0.1,0.2,0,0.7-0.3,1
    c-0.6,0.4-4.8,1.6-10.9,1.2c-3.4-0.2-7.8-1-12.3-3.2C11,52.3,11.1,52.1,11.2,51.9z M57.5,61.7c-1.9,0.3-7.4,1.1-10.3,1.1
    c-1.5,0-3.3,0.5-5.6,1.2c-3.7,1.1-8.7,2.6-15.6,2.6c-5.4,0-11.3-4.1-15.3-7.5c-4.3-3.7-7.2-7.2-8.1-8.5c0.2-0.1,0.4-0.1,0.6-0.1
    c6.8,5.9,14.6,7.5,20.1,7.7c5.6,0.3,11.1-0.8,12.3-1.9c1-1,1.4-2.5,0.9-3.7c-0.3-0.8-1.3-2.2-4.2-2.2c-7.7,0-10.3-0.5-11.1-1
    c0.8-0.9,4.2-3,18.5-1.5c9.7,1,18.6,2.7,22,3.4L57.5,61.7z"/>
</g>
</svg>
