<!-- Generator: Adobe Illustrator 18.1.1, SVG Export Plug-In  -->
<svg version="1.1"
   xmlns="http://www.w3.org/2000/svg" xmlns:xlink="http://www.w3.org/1999/xlink" xmlns:a="http://ns.adobe.com/AdobeSVGViewerExtensions/3.0/"
   x="0px" y="0px" width="56.9px" height="63.4px" viewBox="0 0 56.9 63.4" enable-background="new 0 0 56.9 63.4"
   xml:space="preserve">
<defs>
</defs>
<path id="XMLID_1_" fill="#455A64" d="M51.3,33.5c-0.1,0-0.2-0.1-0.2-0.1c-0.4-0.2-1.3-0.5-2,0.5c0,0.1-0.1,0.1-0.2,0.2
  c-0.6,0.6-2.4,1.2-4.7,1.2c-2.9,0-4.6-0.9-4.8-1.3c0-0.1,0.2-0.2,0.5-0.4c0.5-0.3,0.7-0.8,0.6-1.3c-0.1-0.5-0.6-0.9-1.1-0.9
  c-1.4-0.1-2.8-0.1-4.3-0.1c-10.8,0-21.7,2.6-21.7,7.6v17c0,5,10.9,7.6,21.7,7.6s21.7-2.6,21.7-7.6v-17C56.9,36,53.4,34.3,51.3,33.5z
   M54.4,55.8c0,0.8-1.3,2.2-5.1,3.4c-3.8,1.2-8.8,1.8-14.1,1.8c-5.4,0-10.4-0.6-14.1-1.8c-3.8-1.2-5.1-2.6-5.1-3.4V42.5
  c3.8,2.6,11.6,3.9,19.3,3.9c7.7,0,15.4-1.3,19.3-3.9L54.4,55.8L54.4,55.8z M21.4,42.2c0.6-0.4,1.9-0.9,3.8-0.9
  c2.4,0,3.8,0.7,4.1,1.1c-0.2,0.2-1,0.7-2.5,0.9C24.9,43.1,23.1,42.7,21.4,42.2z M20.9,35.4c0,0,0.1,0,0.1,0
  c3.8-1.2,8.8-1.8,14.1-1.8c0.6,0,1.3,0,1.9,0c0,0.1,0,0.3,0,0.4c0,2.5,3.6,3.8,7.2,3.8c2.8,0,5.2-0.7,6.4-1.9
  c2.2,0.9,3.8,2.1,3.8,2.9c0,0.5-0.4,1.1-1.5,1.8l-2.2,1.1c-0.4,0.2-0.9,0.3-1.4,0.5c-3.8,1.2-8.8,1.8-14.1,1.8c-1.3,0-2.5,0-3.7-0.1
  c0.3-0.4,0.5-0.9,0.5-1.4c0-2.3-3.3-3.5-6.6-3.5c-2.7,0-5.5,0.8-6.3,2.4c-2.3-1-3.1-2-3.1-2.6c0-0.6,0.7-1.5,2.5-2.4L20.9,35.4z"/>
<path fill="#00A029" d="M25.1,13.8c-0.2-0.4-0.4-0.7-0.6-1.1c0,0,0,0,0,0c-0.6-1.2-1.2-2.5-1.9-4.2V8.1c0.6-0.6,0.9-1.4,0.9-2.3V3.4
  C23.5,1.6,22,0,20.1,0h-9.9C8.3,0,6.7,1.6,6.7,3.4v1.9L3.5,4c-0.6-0.3-1.3,0-1.6,0.7c-0.3,0.6,0,1.3,0.7,1.6l3.6,1.5l-5.6,3.5
  C0,11.6-0.2,12.4,0.2,13c0.4,0.6,1.1,0.8,1.7,0.4l5-3.1c-0.4,0.9-0.8,1.7-1.1,2.4c0,0,0,0,0,0c-0.2,0.4-0.4,0.8-0.6,1.1
  c-1.5,3-2.6,5.1-2.6,9.3v29.2c0,4,3.4,7.2,7.5,7.2c0.7,0,1.2-0.6,1.2-1.2c0-0.7-0.6-1.2-1.2-1.2c-2.8,0-5-2.1-5-4.8V23.1
  c0-3.6,0.9-5.3,2.3-8.2c0.1-0.2,0.2-0.3,0.2-0.5h15c0.1,0.2,0.2,0.3,0.3,0.5c1.4,2.9,2.3,4.6,2.3,8.2v4.4c0,0.7,0.6,1.2,1.2,1.2
  c0.7,0,1.2-0.6,1.2-1.2v-4.4C27.7,18.9,26.6,16.8,25.1,13.8z M9.2,3.4c0-0.5,0.4-1,1-1h9.9c0.5,0,1,0.4,1,1v2.4
  c0,0.3-0.1,0.6-0.4,0.8c0,0,0,0-0.1,0.1c-0.2,0.1-0.3,0.2-0.5,0.2h-9.9c-0.2,0-0.4-0.1-0.5-0.2c0,0-0.1,0-0.1-0.1
  C9.3,6.4,9.2,6.1,9.2,5.8V3.4z M8.8,12c0.4-0.8,0.8-1.7,1.2-2.7c0.1,0,0.1,0,0.2,0h9.9c0.1,0,0.1,0,0.2,0c0.4,1,0.8,1.9,1.2,2.7H8.8
  z"/>
</svg>
