<!-- Generator: Adobe Illustrator 18.1.1, SVG Export Plug-In  -->
<svg version="1.1"
   xmlns="http://www.w3.org/2000/svg" xmlns:xlink="http://www.w3.org/1999/xlink" xmlns:a="http://ns.adobe.com/AdobeSVGViewerExtensions/3.0/"
   x="0px" y="0px" width="54.4px" height="60.8px" viewBox="0 0 54.4 60.8" enable-background="new 0 0 54.4 60.8"
   xml:space="preserve">
<defs>
</defs>
<g>
  <g>
    <g>
      <g>
        <path fill="#546E7A" d="M41.1,18.1l2.5-5.7c1.2-2.7,0.9-5.9-0.7-8.4c-1.6-2.5-4.4-4-7.4-4H19c-3,0-5.8,1.5-7.4,4
          c-1.6,2.5-1.9,5.6-0.7,8.4l2.5,5.7C5.1,23,0,31.9,0,41.5c0,7.1,2.7,13.8,7.6,18.9c0.2,0.2,0.5,0.4,0.9,0.4H46
          c0.3,0,0.6-0.1,0.9-0.4c4.9-5.1,7.6-11.8,7.6-18.9C54.4,31.9,49.4,23,41.1,18.1z M45.4,58.3H9c-4.2-4.6-6.6-10.5-6.6-16.8
          c0-9.1,5-17.5,13-21.8c0.6-0.3,0.8-1,0.5-1.5l-2.9-6.7c-0.9-2-0.7-4.3,0.5-6.1c1.2-1.8,3.2-2.9,5.4-2.9h16.4
          c2.2,0,4.2,1.1,5.4,2.9c1.2,1.8,1.4,4.1,0.5,6.1l-2.9,6.7c-0.2,0.6,0,1.2,0.5,1.5c8,4.3,13,12.7,13,21.8
          C52,47.8,49.7,53.7,45.4,58.3z"/>
        <path fill="#546E7A" d="M39.6,6.1c-0.9-1.4-2.5-2.3-4.2-2.3H19c-1.7,0-3.2,0.8-4.2,2.3c-0.9,1.4-1.1,3.2-0.4,4.7l2.9,6.7
          c0.3,0.6,0.9,0.9,1.5,0.7c2.7-1,5.5-1.5,8.4-1.5c2.9,0,5.7,0.5,8.4,1.5c0.1,0,0.3,0.1,0.4,0.1c0.5,0,0.9-0.3,1.1-0.7l2.9-6.7
          C40.7,9.3,40.5,7.5,39.6,6.1z M37.8,9.9l-2.4,5.6c-2.6-0.8-5.4-1.2-8.1-1.2s-5.5,0.4-8.1,1.2l-2.4-5.6c-0.4-0.8-0.3-1.7,0.2-2.4
          c0.5-0.8,1.3-1.2,2.2-1.2h16.4c0.9,0,1.7,0.4,2.2,1.2C38.1,8.2,38.1,9.1,37.8,9.9z"/>
      </g>
    </g>
  </g>
</g>
<g>
  <g>
    <g>
      <path fill="#00A029" d="M28.3,37v-6.5c2.1,0.1,2.9,1.1,3.5,1.1c0.7,0,1-0.9,1-1.3c0-1.1-2.5-1.8-4.5-1.9v-0.8
        c0-0.3-0.4-0.6-0.7-0.6c-0.4,0-0.7,0.3-0.7,0.6v0.9c-2.6,0.2-5.3,1.5-5.3,5.1c0,3.6,2.7,4.6,5.3,5.5v7.6
        c-3.2-0.1-3.9-2.3-4.7-2.3c-0.5,0-1.1,0.7-1.1,1.3c0,1.2,2.2,3.2,5.8,3.2l0,0v0.9c0,0.3,0.3,0.6,0.7,0.6c0.4,0,0.7-0.3,0.7-0.6
        v-1c3-0.4,5-2.2,5-5.7C33.4,39.1,30.8,37.9,28.3,37z M27,36.5c-1.7-0.6-3.1-1.3-3.1-3.2c0-1.8,1.4-2.6,3.1-2.7V36.5z M28.2,46.5
        v-7c1.6,0.7,2.8,1.5,2.8,3.7C31.1,45.1,30,46.2,28.2,46.5z"/>
    </g>
  </g>
</g>
</svg>
