<?xml version="1.0" encoding="utf-8"?>
<!-- Generator: Adobe Illustrator 18.0.0, SVG Export Plug-In . SVG Version: 6.00 Build 0)  -->
<!DOCTYPE svg PUBLIC "-//W3C//DTD SVG 1.1//EN" "http://www.w3.org/Graphics/SVG/1.1/DTD/svg11.dtd" [
	<!ENTITY ns_flows "http://ns.adobe.com/Flows/1.0/">
	<!ENTITY ns_extend "http://ns.adobe.com/Extensibility/1.0/">
	<!ENTITY ns_ai "http://ns.adobe.com/AdobeIllustrator/10.0/">
	<!ENTITY ns_graphs "http://ns.adobe.com/Graphs/1.0/">
	<!ENTITY ns_vars "http://ns.adobe.com/Variables/1.0/">
	<!ENTITY ns_imrep "http://ns.adobe.com/ImageReplacement/1.0/">
	<!ENTITY ns_sfw "http://ns.adobe.com/SaveForWeb/1.0/">
	<!ENTITY ns_custom "http://ns.adobe.com/GenericCustomNamespace/1.0/">
	<!ENTITY ns_adobe_xpath "http://ns.adobe.com/XPath/1.0/">
]>
<svg version="1.1" id="Layer_1" xmlns:x="&ns_extend;" xmlns:i="&ns_ai;" xmlns:graph="&ns_graphs;"
	 xmlns="http://www.w3.org/2000/svg" xmlns:xlink="http://www.w3.org/1999/xlink" xmlns:a="http://ns.adobe.com/AdobeSVGViewerExtensions/3.0/"
	 x="0px" y="0px" width="100px" height="100px" viewBox="0 0 100 100" enable-background="new 0 0 100 100" xml:space="preserve">
<metadata>
	<sfw  xmlns="&ns_sfw;">
		<slices></slices>
		<sliceSourceBounds  height="100" width="100" y="-100" x="0" bottomLeftOrigin="true"></sliceSourceBounds>
	</sfw>
</metadata>
<g>
	<g>
		<path d="M50,0C22.4,0,0,22.4,0,50s22.4,50,50,50s50-22.4,50-50S77.6,0,50,0z M50,96.7C24.3,96.7,3.3,75.7,3.3,50
			S24.3,3.3,50,3.3S96.7,24.3,96.7,50S75.7,96.7,50,96.7z"/>
		<path d="M51.7,43.4V26.5c0-0.9-0.7-1.7-1.7-1.7s-1.7,0.7-1.7,1.7v16.9c-2.3,0.6-4.2,2.4-4.8,4.8H31.7
			c-0.9,0-1.7,0.7-1.7,1.7s0.7,1.7,1.7,1.7h11.9c0.7,2.9,3.3,5,6.4,5c3.7,0,6.7-3,6.7-6.7C56.7,46.7,54.5,44.1,51.7,43.4z M50,53.1
			c-1.8,0-3.3-1.5-3.3-3.3s1.5-3.3,3.3-3.3s3.3,1.5,3.3,3.3S51.8,53.1,50,53.1z"/>
		<path d="M50,16.5c0.9,0,1.7-0.7,1.7-1.7v-1.7c0-0.9-0.7-1.7-1.7-1.7s-1.7,0.7-1.7,1.7v1.7
			C48.3,15.7,49.1,16.5,50,16.5z"/>
		<path d="M50,83.1c-0.9,0-1.7,0.7-1.7,1.7v1.7c0,0.9,0.7,1.7,1.7,1.7s1.7-0.7,1.7-1.7v-1.7
			C51.7,83.9,50.9,83.1,50,83.1z"/>
		<path d="M86.7,48.1H85c-0.9,0-1.7,0.7-1.7,1.7s0.7,1.7,1.7,1.7h1.7c0.9,0,1.7-0.7,1.7-1.7S87.6,48.1,86.7,48.1z"/>
		<path d="M15,48.1h-1.7c-0.9,0-1.7,0.7-1.7,1.7s0.7,1.7,1.7,1.7H15c0.9,0,1.7-0.7,1.7-1.7S15.9,48.1,15,48.1z"/>
		<path d="M74.7,22.7l-1.2,1.2c-0.7,0.7-0.7,1.7,0,2.4c0.3,0.3,0.8,0.5,1.2,0.5c0.4,0,0.9-0.2,1.2-0.5l1.2-1.2
			c0.7-0.7,0.7-1.7,0-2.4C76.5,22,75.4,22,74.7,22.7z"/>
		<path d="M24.1,73.4l-1.2,1.2c-0.7,0.7-0.7,1.7,0,2.4c0.3,0.3,0.8,0.5,1.2,0.5s0.9-0.2,1.2-0.5l1.2-1.2
			c0.7-0.7,0.7-1.7,0-2.4C25.8,72.7,24.7,72.7,24.1,73.4z"/>
		<path d="M75.9,73.4c-0.7-0.7-1.7-0.7-2.4,0c-0.7,0.7-0.7,1.7,0,2.4l1.2,1.2c0.3,0.3,0.8,0.5,1.2,0.5
			s0.9-0.2,1.2-0.5c0.7-0.7,0.7-1.7,0-2.4L75.9,73.4z"/>
		<path d="M25.3,22.7c-0.7-0.7-1.7-0.7-2.4,0c-0.7,0.7-0.7,1.7,0,2.4l1.2,1.2c0.3,0.3,0.8,0.5,1.2,0.5
			s0.9-0.2,1.2-0.5c0.7-0.7,0.7-1.7,0-2.4L25.3,22.7z"/>
	</g>
</g>
</svg>
