<!-- Generator: Adobe Illustrator 18.1.1, SVG Export Plug-In  -->
<svg version="1.1"
   xmlns="http://www.w3.org/2000/svg" xmlns:xlink="http://www.w3.org/1999/xlink" xmlns:a="http://ns.adobe.com/AdobeSVGViewerExtensions/3.0/"
   x="0px" y="0px" width="15px" height="15px" viewBox="0 0 15 15" enable-background="new 0 0 15 15" xml:space="preserve">
<defs>
</defs>
<path d="M3,6.5c1.2,2.4,3.1,4.3,5.5,5.5l1.8-1.8c0.2-0.2,0.6-0.3,0.9-0.2c0.9,0.3,1.9,0.5,3,0.5
  c0.5,0,0.8,0.4,0.8,0.8v2.9c0,0.5-0.4,0.8-0.8,0.8C6.3,15,0,8.7,0,0.8C0,0.4,0.4,0,0.8,0h2.9c0.5,0,0.8,0.4,0.8,0.8c0,1,0.2,2,0.5,3
  c0.1,0.3,0,0.6-0.2,0.9L3,6.5z"/>
</svg>
