<?xml version="1.0" encoding="utf-8"?>
<!-- Generator: Adobe Illustrator 18.0.0, SVG Export Plug-In . SVG Version: 6.00 Build 0)  -->
<!DOCTYPE svg PUBLIC "-//W3C//DTD SVG 1.1//EN" "http://www.w3.org/Graphics/SVG/1.1/DTD/svg11.dtd" [
	<!ENTITY ns_flows "http://ns.adobe.com/Flows/1.0/">
	<!ENTITY ns_extend "http://ns.adobe.com/Extensibility/1.0/">
	<!ENTITY ns_ai "http://ns.adobe.com/AdobeIllustrator/10.0/">
	<!ENTITY ns_graphs "http://ns.adobe.com/Graphs/1.0/">
	<!ENTITY ns_vars "http://ns.adobe.com/Variables/1.0/">
	<!ENTITY ns_imrep "http://ns.adobe.com/ImageReplacement/1.0/">
	<!ENTITY ns_sfw "http://ns.adobe.com/SaveForWeb/1.0/">
	<!ENTITY ns_custom "http://ns.adobe.com/GenericCustomNamespace/1.0/">
	<!ENTITY ns_adobe_xpath "http://ns.adobe.com/XPath/1.0/">
]>
<svg version="1.1" id="Layer_1" xmlns:x="&ns_extend;" xmlns:i="&ns_ai;" xmlns:graph="&ns_graphs;"
	 xmlns="http://www.w3.org/2000/svg" xmlns:xlink="http://www.w3.org/1999/xlink" xmlns:a="http://ns.adobe.com/AdobeSVGViewerExtensions/3.0/"
	 x="0px" y="0px" width="200px" height="200px" viewBox="0 0 200 200" enable-background="new 0 0 200 200" xml:space="preserve">
<metadata>
	<sfw  xmlns="&ns_sfw;">
		<slices></slices>
		<sliceSourceBounds  height="200" width="200" y="-100" x="0" bottomLeftOrigin="true"></sliceSourceBounds>
	</sfw>
</metadata>
<g>
	<g>
		<path d="M190.8,81.4h-8.5c-2.1-9.4-5.8-18.3-10.9-26.4l6-6c3.6-3.6,3.6-9.4,0-13l-13.3-13.3
			c-1.7-1.7-4-2.7-6.5-2.7c-2.5,0-4.8,1-6.5,2.7l-6,6c-8.1-5.2-17-8.8-26.4-10.9V9.2c0-5.1-4.1-9.2-9.2-9.2H90.6
			c-5.1,0-9.2,4.1-9.2,9.2v8.5C72,19.8,63.1,23.5,55,28.7l-6-6c-1.7-1.7-4-2.7-6.5-2.7c-2.5,0-4.8,1-6.5,2.7L22.6,35.9
			c-3.6,3.6-3.6,9.4,0,13l6,6c-5.2,8.1-8.8,17-10.9,26.4H9.2c-5.1,0-9.2,4.1-9.2,9.2v18.8c0,5.1,4.1,9.2,9.2,9.2h8.5
			c2.1,9.4,5.8,18.3,10.9,26.4l-6,6c-1.7,1.7-2.7,4-2.7,6.5s1,4.8,2.7,6.5l13.3,13.3c1.7,1.7,4,2.7,6.5,2.7c2.5,0,4.8-1,6.5-2.7l6-6
			c8.1,5.2,17,8.8,26.4,10.9v8.5c0,5.1,4.1,9.2,9.2,9.2h18.8c5.1,0,9.2-4.1,9.2-9.2v-8.5c9.4-2.1,18.3-5.8,26.4-10.9l6,6
			c1.7,1.7,4,2.7,6.5,2.7s4.8-1,6.5-2.7l13.3-13.3c1.7-1.7,2.7-4,2.7-6.5c0-2.5-1-4.8-2.7-6.5l-6-6c5.2-8.1,8.8-17,10.9-26.4h8.5
			c5.1,0,9.2-4.1,9.2-9.2V90.6C200,85.5,195.9,81.4,190.8,81.4z M194.1,109.4c0,1.8-1.5,3.3-3.3,3.3h-10.9c-1.4,0-2.6,1-2.9,2.4
			c-2,10.3-6,20-11.9,28.7c-0.8,1.2-0.6,2.7,0.4,3.7l7.7,7.7c0.6,0.6,1,1.5,1,2.4c0,0.9-0.3,1.7-1,2.4l-13.3,13.3
			c-0.6,0.6-1.5,1-2.4,1s-1.7-0.3-2.4-1l-7.7-7.7c-1-1-2.6-1.1-3.7-0.4c-8.7,5.9-18.4,9.9-28.7,11.9c-1.4,0.3-2.4,1.5-2.4,2.9v10.9
			c0,1.8-1.5,3.3-3.3,3.3H90.6c-1.8,0-3.3-1.5-3.3-3.3v-10.9c0-1.4-1-2.6-2.4-2.9c-10.3-2-20-6-28.7-11.9c-0.5-0.3-1.1-0.5-1.6-0.5
			c-0.8,0-1.5,0.3-2.1,0.9l-7.7,7.7c-0.6,0.6-1.5,1-2.4,1c-0.9,0-1.7-0.3-2.4-1l-13.3-13.3c-0.6-0.6-1-1.5-1-2.4
			c0-0.9,0.3-1.7,1-2.4l7.7-7.7c1-1,1.1-2.6,0.4-3.7C29,135.1,25,125.4,23,115.1c-0.3-1.4-1.5-2.4-2.9-2.4H9.2
			c-1.8,0-3.3-1.5-3.3-3.3V90.6c0-1.8,1.5-3.3,3.3-3.3h10.9c1.4,0,2.6-1,2.9-2.4c2-10.3,6-20,11.9-28.7c0.8-1.2,0.6-2.7-0.4-3.7
			l-7.7-7.7c-1.3-1.3-1.3-3.4,0-4.7l13.3-13.3c0.6-0.6,1.5-1,2.4-1c0.9,0,1.7,0.3,2.4,1l7.7,7.7c1,1,2.6,1.1,3.7,0.4
			C64.9,29,74.6,25,84.9,23c1.4-0.3,2.4-1.5,2.4-2.9V9.2c0-1.8,1.5-3.3,3.3-3.3h18.8c1.8,0,3.3,1.5,3.3,3.3v10.9
			c0,1.4,1,2.6,2.4,2.9c10.3,2,20,6,28.7,11.9c1.2,0.8,2.7,0.6,3.7-0.4l7.7-7.7c0.6-0.6,1.5-1,2.4-1s1.7,0.3,2.4,1l13.3,13.3
			c1.3,1.3,1.3,3.4,0,4.7l-7.7,7.7c-1,1-1.1,2.6-0.4,3.7c5.9,8.7,9.9,18.4,11.9,28.7c0.3,1.4,1.5,2.4,2.9,2.4h10.9
			c1.8,0,3.3,1.5,3.3,3.3V109.4z"/>
		<path d="M46.6,100c0-29.5,24-53.4,53.4-53.4c7.2,0,14.2,1.4,20.8,4.2c1.5,0.6,3.2-0.1,3.8-1.6
			c0.6-1.5-0.1-3.2-1.6-3.8c-7.3-3.1-15.1-4.7-23.1-4.7c-32.7,0-59.3,26.6-59.3,59.3c0,13.5,4.7,26.8,13.2,37.3
			c0.6,0.7,1.4,1.1,2.3,1.1c0.6,0,1.3-0.2,1.8-0.7c1.3-1,1.5-2.9,0.4-4.1C50.8,124.1,46.6,112.2,46.6,100z"/>
		<path d="M150.8,75.4c-1.5,0.6-2.2,2.4-1.6,3.8c2.8,6.6,4.2,13.6,4.2,20.8c0,29.5-24,53.4-53.4,53.4
			c-12.2,0-24.1-4.2-33.6-11.9c-1.3-1-3.1-0.8-4.1,0.4c-1,1.3-0.8,3.1,0.4,4.1c10.5,8.5,23.7,13.2,37.3,13.2
			c32.7,0,59.3-26.6,59.3-59.3c0-8-1.6-15.7-4.6-23.1C154,75.5,152.3,74.8,150.8,75.4z"/>
		<path d="M133.6,58.4c2.9,2.4,5.6,5.1,8,8c0.6,0.7,1.4,1.1,2.3,1.1c0.6,0,1.3-0.2,1.8-0.7c1.3-1,1.5-2.9,0.4-4.1
			c-2.6-3.2-5.6-6.2-8.9-8.9c-1.3-1-3.1-0.8-4.1,0.4C132.1,55.6,132.3,57.4,133.6,58.4z"/>
		<path d="M100,53.2c-25.8,0-46.8,21-46.8,46.8s21,46.8,46.8,46.8s46.8-21,46.8-46.8S125.8,53.2,100,53.2z
			 M100,140.9c-22.6,0-40.9-18.3-40.9-40.9S77.4,59.1,100,59.1s40.9,18.3,40.9,40.9S122.6,140.9,100,140.9z"/>
	</g>
</g>
</svg>
