<?xml version="1.0" encoding="utf-8"?>
<!-- Generator: Adobe Illustrator 18.0.0, SVG Export Plug-In . SVG Version: 6.00 Build 0)  -->
<!DOCTYPE svg PUBLIC "-//W3C//DTD SVG 1.1//EN" "http://www.w3.org/Graphics/SVG/1.1/DTD/svg11.dtd" [
	<!ENTITY ns_flows "http://ns.adobe.com/Flows/1.0/">
	<!ENTITY ns_extend "http://ns.adobe.com/Extensibility/1.0/">
	<!ENTITY ns_ai "http://ns.adobe.com/AdobeIllustrator/10.0/">
	<!ENTITY ns_graphs "http://ns.adobe.com/Graphs/1.0/">
	<!ENTITY ns_vars "http://ns.adobe.com/Variables/1.0/">
	<!ENTITY ns_imrep "http://ns.adobe.com/ImageReplacement/1.0/">
	<!ENTITY ns_sfw "http://ns.adobe.com/SaveForWeb/1.0/">
	<!ENTITY ns_custom "http://ns.adobe.com/GenericCustomNamespace/1.0/">
	<!ENTITY ns_adobe_xpath "http://ns.adobe.com/XPath/1.0/">
]>
<svg version="1.1" id="Layer_1" xmlns:x="&ns_extend;" xmlns:i="&ns_ai;" xmlns:graph="&ns_graphs;"
	 xmlns="http://www.w3.org/2000/svg" xmlns:xlink="http://www.w3.org/1999/xlink" xmlns:a="http://ns.adobe.com/AdobeSVGViewerExtensions/3.0/"
	 x="0px" y="0px" width="200px" height="200px" viewBox="0 0 200 200" enable-background="new 0 0 200 200" xml:space="preserve">
<metadata>
	<sfw  xmlns="&ns_sfw;">
		<slices></slices>
		<sliceSourceBounds  height="200" width="200" y="-100" x="0" bottomLeftOrigin="true"></sliceSourceBounds>
	</sfw>
</metadata>
<path d="M200,39.3L160.6,0h-49.6L91.4,19.5C42.7,15.4,3.5,42.8,3,43.2c-1.6,1.1-2,3.4-0.8,4.9c0.7,1,1.8,1.5,2.9,1.5
	c0.7,0,1.4-0.2,2.1-0.7c0.5-0.4,34.4-24,77.6-22.8L21.3,89.4l0,0L0,110.7L89.1,200l35.6-35.5c7.3,3.8,15.8,5.7,24.2,5.7
	c12.4,0,24.6-4,32.3-11.7c26.1-26.1,15.8-54.8,12.2-62.5l6.6-6.5L200,39.3L200,39.3z M157.7,7.1l35.2,35.2v44.2l-69.3,69
	c-14.5-10.4-18.9-29.9-12.4-55.4c0.5-1.9-0.7-3.8-2.6-4.3c-1.9-0.5-3.8,0.7-4.3,2.6c-9.2,36,3.2,53.8,14.2,62.2l-8.1,8.1L31.3,89.4
	L94,26.9c14.9,1.7,30.6,6.6,46.3,16.5c-0.1,0.8-0.2,1.6-0.2,2.4c0,7.7,6.3,14,14,14s14-6.3,14-14s-6.3-14-14-14
	c-4.3,0-8.1,2-10.7,5.1c-14.5-9.1-29-14.1-43-16.4l13.6-13.5H157.7z M148.2,48.9c1.6,1.2,3.8,0.9,5-0.7c1.2-1.6,0.9-3.8-0.7-5
	c-1.1-0.8-2.2-1.5-3.3-2.3c1.2-1.2,2.9-1.9,4.8-1.9c3.8,0,6.9,3.1,6.9,6.9c0,3.8-3.1,6.9-6.9,6.9c-2.8,0-5.3-1.7-6.3-4.2
	C147.8,48.6,148,48.8,148.2,48.9z M10,110.7l16.3-16.2l79.1,79.3L89.2,190L10,110.7z M176.2,153.5c-9.1,9.1-29.7,13.3-46.2,5.7
	l58.1-57.9C191.6,110.1,197.3,132.4,176.2,153.5z"/>
</svg>
