<?xml version="1.0" encoding="utf-8"?>
<!-- Generator: Adobe Illustrator 18.0.0, SVG Export Plug-In . SVG Version: 6.00 Build 0)  -->
<!DOCTYPE svg PUBLIC "-//W3C//DTD SVG 1.1//EN" "http://www.w3.org/Graphics/SVG/1.1/DTD/svg11.dtd" [
	<!ENTITY ns_flows "http://ns.adobe.com/Flows/1.0/">
	<!ENTITY ns_extend "http://ns.adobe.com/Extensibility/1.0/">
	<!ENTITY ns_ai "http://ns.adobe.com/AdobeIllustrator/10.0/">
	<!ENTITY ns_graphs "http://ns.adobe.com/Graphs/1.0/">
	<!ENTITY ns_vars "http://ns.adobe.com/Variables/1.0/">
	<!ENTITY ns_imrep "http://ns.adobe.com/ImageReplacement/1.0/">
	<!ENTITY ns_sfw "http://ns.adobe.com/SaveForWeb/1.0/">
	<!ENTITY ns_custom "http://ns.adobe.com/GenericCustomNamespace/1.0/">
	<!ENTITY ns_adobe_xpath "http://ns.adobe.com/XPath/1.0/">
]>
<svg version="1.1" id="Layer_1" xmlns:x="&ns_extend;" xmlns:i="&ns_ai;" xmlns:graph="&ns_graphs;"
	 xmlns="http://www.w3.org/2000/svg" xmlns:xlink="http://www.w3.org/1999/xlink" xmlns:a="http://ns.adobe.com/AdobeSVGViewerExtensions/3.0/"
	 x="0px" y="0px" width="200px" height="200px" viewBox="0 0 200 200" enable-background="new 0 0 200 200" xml:space="preserve">
<metadata>
	<sfw  xmlns="&ns_sfw;">
		<slices></slices>
		<sliceSourceBounds  height="159.7" width="200" y="-79.9" x="0" bottomLeftOrigin="true"></sliceSourceBounds>
	</sfw>
</metadata>
<g transform="translate(1 1)">
	<g>
		<g>
			<g>
				<path d="M196,74.7l-29-31.9c-2.3-2.3-5.3-3.7-8.3-3.7h-33.3v-7c0-7.3-5.7-13-12.6-13H12c-7.3,0-13,5.7-13,13
					v80.2v6.7v28.3c0,6.3,5.3,11.6,11.6,11.6h5.2c1.6,11.4,11.2,20,23.1,20s21.5-8.6,23.1-20h56.8h6.7h10.2
					c1.6,11.4,11.2,20,23.1,20c11.8,0,21.5-8.6,23.1-20h16.9h0.3V82.4C199,79.4,198,76.7,196,74.7z M190.7,79c1,0.7,1.3,2,1.3,3
					v10.3h-49.9V59.1h30.3L190.7,79z M5.7,89h46.6c2,0,3.3-1.3,3.3-3.3c0-2-1.3-3.3-3.3-3.3H5.7v-10h33.3c2,0,3.3-1.3,3.3-3.3
					s-1.3-3.3-3.3-3.3H5.7V32.1c0-3.7,2.7-6.3,6.3-6.3h100.5c3.7,0,6.3,3,6.3,6.3v7v73.2H5.7V89z M38.9,172.2
					c-9.3,0-16.6-7.3-16.6-16.6c0-9.3,7.3-16.6,16.6-16.6c9.3,0,16.6,7.3,16.6,16.6C55.6,164.9,48.3,172.2,38.9,172.2z M118.8,152.2
					H62c-1.5-10.7-10-18.9-20.9-19.9c-0.1,0-0.2,0-0.2,0c-0.3,0-0.5,0-0.8-0.1c-0.4,0-0.7,0-1.1,0c-0.4,0-0.8,0-1.1,0
					c-0.3,0-0.5,0-0.8,0.1c-0.1,0-0.2,0-0.2,0c-10.8,1-19.4,9.2-20.9,19.9h-5.2c-2.7,0-5-2.3-5-5V119h113.1V152.2z M158.7,172.2
					c-9.3,0-16.6-7.3-16.6-16.6c0-9.3,7.3-16.6,16.6-16.6c9.3,0,16.6,7.3,16.6,16.6C175.4,164.9,168.1,172.2,158.7,172.2z
					 M181.8,152.2c-1.5-10.7-10-18.9-20.9-19.9c-0.1,0-0.2,0-0.2,0c-0.3,0-0.5,0-0.8-0.1c-0.4,0-0.7,0-1.1,0s-0.8,0-1.1,0
					c-0.3,0-0.5,0-0.8,0.1c-0.1,0-0.2,0-0.2,0c-10.8,1-19.4,9.2-20.9,19.9h-10.2V119v-6.7V45.8h33.3c1,0,2.3,0.7,3.3,1.3l4.8,5.3
					h-25.7c-3,0-5.7,2.7-5.7,5.7v35.3c0,3,2.7,5.7,5.7,5.7H192v16.6h-16.6c-2,0-3.3,1.3-3.3,3.3s1.3,3.3,3.3,3.3H192v30L181.8,152.2
					L181.8,152.2z"/>
				<path d="M38.9,148.9c-3.7,0-6.7,3-6.7,6.7s3,6.7,6.7,6.7s6.7-3,6.7-6.7S42.6,148.9,38.9,148.9z"/>
				<path d="M158.7,148.9c-3.7,0-6.7,3-6.7,6.7s3,6.7,6.7,6.7c3.7,0,6.7-3,6.7-6.7S162.4,148.9,158.7,148.9z"/>
			</g>
		</g>
	</g>
</g>
</svg>
