<?xml version="1.0" encoding="utf-8"?>
<!-- Generator: Adobe Illustrator 18.0.0, SVG Export Plug-In . SVG Version: 6.00 Build 0)  -->
<!DOCTYPE svg PUBLIC "-//W3C//DTD SVG 1.1//EN" "http://www.w3.org/Graphics/SVG/1.1/DTD/svg11.dtd" [
	<!ENTITY ns_flows "http://ns.adobe.com/Flows/1.0/">
	<!ENTITY ns_extend "http://ns.adobe.com/Extensibility/1.0/">
	<!ENTITY ns_ai "http://ns.adobe.com/AdobeIllustrator/10.0/">
	<!ENTITY ns_graphs "http://ns.adobe.com/Graphs/1.0/">
	<!ENTITY ns_vars "http://ns.adobe.com/Variables/1.0/">
	<!ENTITY ns_imrep "http://ns.adobe.com/ImageReplacement/1.0/">
	<!ENTITY ns_sfw "http://ns.adobe.com/SaveForWeb/1.0/">
	<!ENTITY ns_custom "http://ns.adobe.com/GenericCustomNamespace/1.0/">
	<!ENTITY ns_adobe_xpath "http://ns.adobe.com/XPath/1.0/">
]>
<svg version="1.1" id="Layer_1" xmlns:x="&ns_extend;" xmlns:i="&ns_ai;" xmlns:graph="&ns_graphs;"
	 xmlns="http://www.w3.org/2000/svg" xmlns:xlink="http://www.w3.org/1999/xlink" xmlns:a="http://ns.adobe.com/AdobeSVGViewerExtensions/3.0/"
	 x="0px" y="0px" width="200px" height="200px" viewBox="0 0 200 200" enable-background="new 0 0 200 200" xml:space="preserve">
<metadata>
	<sfw  xmlns="&ns_sfw;">
		<slices></slices>
		<sliceSourceBounds  height="150" width="148.1" y="-75" x="26" bottomLeftOrigin="true"></sliceSourceBounds>
	</sfw>
</metadata>
<g>
	<g>
		<path d="M126.2,149.5c-7,0-12.5,5.8-12.5,12.8s5.8,12.8,12.5,12.8c6.7,0,12.5-5.8,12.5-12.8
			S132.9,149.5,126.2,149.5z M126.2,168.6c-3.5,0-6.1-2.9-6.1-6.4c0-3.5,2.9-6.4,6.1-6.4s6.1,2.9,6.1,6.4
			C132.3,165.7,129.4,168.6,126.2,168.6z"/>
		<path d="M58.2,149.5c-7,0-12.5,5.8-12.5,12.8S51.5,175,58.2,175c7,0,12.5-5.8,12.5-12.8S64.9,149.5,58.2,149.5z
			 M58.2,168.6c-3.5,0-6.1-2.9-6.1-6.4c0-3.5,2.9-6.4,6.1-6.4c3.5,0,6.1,2.9,6.1,6.4C64.3,165.8,61.4,168.6,58.2,168.6z"/>
		<path d="M156.2,25l-5,19.5H26l23.1,68.5c-7.7,1.1-13.5,7.7-13.5,16.1c0,9.2,7,16.6,15.9,16.6h86.8v-6.1H51.5
			c-5.4,0-9.6-4.5-9.6-10.2c0-5.8,4.5-10.2,9.6-10.2h86.8h0.3l22.7-87.8H174V25L156.2,25z M133.8,112.8H55.7L34.9,50.8h114.6
			L133.8,112.8L133.8,112.8z"/>
		<rect x="66.5" y="65.8" width="6.4" height="36.1"/>
		<rect x="89.2" y="65.8" width="6.4" height="36.1"/>
		<rect x="111.8" y="65.8" width="6.4" height="36.1"/>
	</g>
</g>
</svg>
