<?xml version="1.0" encoding="utf-8"?>
<!-- Generator: Adobe Illustrator 18.0.0, SVG Export Plug-In . SVG Version: 6.00 Build 0)  -->
<!DOCTYPE svg PUBLIC "-//W3C//DTD SVG 1.1//EN" "http://www.w3.org/Graphics/SVG/1.1/DTD/svg11.dtd" [
	<!ENTITY ns_flows "http://ns.adobe.com/Flows/1.0/">
	<!ENTITY ns_extend "http://ns.adobe.com/Extensibility/1.0/">
	<!ENTITY ns_ai "http://ns.adobe.com/AdobeIllustrator/10.0/">
	<!ENTITY ns_graphs "http://ns.adobe.com/Graphs/1.0/">
	<!ENTITY ns_vars "http://ns.adobe.com/Variables/1.0/">
	<!ENTITY ns_imrep "http://ns.adobe.com/ImageReplacement/1.0/">
	<!ENTITY ns_sfw "http://ns.adobe.com/SaveForWeb/1.0/">
	<!ENTITY ns_custom "http://ns.adobe.com/GenericCustomNamespace/1.0/">
	<!ENTITY ns_adobe_xpath "http://ns.adobe.com/XPath/1.0/">
]>
<svg version="1.1" id="Layer_1" xmlns:x="&ns_extend;" xmlns:i="&ns_ai;" xmlns:graph="&ns_graphs;"
	 xmlns="http://www.w3.org/2000/svg" xmlns:xlink="http://www.w3.org/1999/xlink" xmlns:a="http://ns.adobe.com/AdobeSVGViewerExtensions/3.0/"
	 x="0px" y="0px" width="200px" height="200px" viewBox="0 0 200 200" enable-background="new 0 0 200 200" xml:space="preserve">
<metadata>
	<sfw  xmlns="&ns_sfw;">
		<slices></slices>
		<sliceSourceBounds  height="150" width="142.7" y="-25.2" x="-21.2" bottomLeftOrigin="true"></sliceSourceBounds>
	</sfw>
</metadata>
<g>
	<g>
		<g>
			<path d="M171.2,132.7c-0.4-0.7-1-1.2-1.8-1.4c-0.2,0-16.1-3.6-36.4-6.4c0-0.1,0-0.2-0.1-0.3
				c-8.9-20.9-11.9-20.9-13.5-20.9c-1.9,0-11.4,2-19.2,3.6V87.4c0.1,0,0.2,0,0.3,0c2.7,0.7,5.4,1.1,8,1.1c8.1,0,16-3.2,21.9-9.1
				c8.2-8.2,11.2-20.2,7.7-31.3c-0.3-0.9-0.9-1.5-1.8-1.8c-11.1-3.5-23.1-0.6-31.3,7.7c-1.3,1.3-2.4,2.7-3.4,4.1
				c-1-8.1-4.7-15.8-10.7-21.8c-9.9-9.9-24.4-13.5-37.8-9.3c-0.9,0.3-1.5,0.9-1.8,1.8c-4.2,13.4-0.7,27.9,9.3,37.8
				c7.2,7.2,16.7,11,26.5,11c2.6,0,5.1-0.3,7.7-0.8v31.9c-1.1,0.2-2,0.4-2.8,0.6c-5.7-1.1-15.2-2.3-18.4,0.9l-5,5l-7.6,2.5
				c-9.2,3.1-12.4,16.7-12.8,18.4c-3.1-1.9-6.2-4.2-9.2-6.8c-0.5-0.5-1.2-0.7-1.8-0.7c-6.1,0-8.2,3-8.2,5.5c0,0.8,0,2.3,5.8,8.9
				c2.2,2.6,6.9,7.8,13.3,13.3c9.9,8.6,24.6,18.8,38.5,18.8c16,0,27.5-3.4,35.9-5.8c4.5-1.3,8.1-2.4,10.7-2.4
				c8.4,0,24.4-2.7,25.1-2.8c0.9-0.2,1.7-0.8,2.1-1.7l11-27.4C171.6,134.2,171.5,133.4,171.2,132.7z M108.8,57.6
				c6.4-6.4,15.7-8.9,24.4-6.7c2.2,8.7-0.3,18-6.7,24.4c-5.9,5.9-14.1,8.5-22.2,7.2c2.2-3.7,5.4-7.9,7.9-9.2
				c1.4-0.7,1.9-2.3,1.2-3.7s-2.3-1.9-3.7-1.2c-3.2,1.6-6.2,5.3-8.5,8.6C101,69.9,103.6,62.8,108.8,57.6z M82.1,56.6
				c7.2,4.8,9.8,14.7,9.8,14.8l0,0c-10,1.6-20.3-1.7-27.6-9c-8.1-8.1-11.3-19.9-8.3-30.9c11.1-2.9,22.8,0.2,30.9,8.3
				c7.1,7.2,10.4,17,9.2,26.8c-1.6-4-4.9-10.5-10.9-14.5c-1.3-0.8-3-0.5-3.8,0.8C80.5,54.1,80.9,55.8,82.1,56.6z M53.3,137.3
				c0.7-3.4,3.6-12.6,9.1-14.4l8.2-2.7c0.4-0.1,0.8-0.4,1.1-0.7l5.4-5.4c1.3-0.8,8-0.5,14,0.7c0.4,0.1,0.8,0.1,1.1,0
				c10.9-2.4,23-4.9,26.2-5.4c1.6,1.7,5,8.3,7.9,14.8c-3.2-0.4-6.4-0.8-9.7-1.1c-27.2-2.7-42.9-0.4-46.7,7c-0.7,1.5-0.7,3.1,0.1,4.4
				c2.3,3.7,10.3,5,29.7,5c2.8,0,4,0.7,4.3,1.4c0.2,0.6-0.1,1.4-0.7,2.1c-1.4,0.8-10.6,3.5-24,2.7c-7.5-0.5-17.3-2.2-27-7
				C53,138.2,53.2,137.8,53.3,137.3z M155.7,159c-4.2,0.7-16.2,2.5-22.7,2.5c-3.4,0-7.3,1.2-12.3,2.6c-8.1,2.4-19.1,5.6-34.3,5.6
				c-11.9,0-24.9-9-33.8-16.6c-9.5-8.1-15.9-15.9-17.8-18.8c0.4-0.1,0.8-0.2,1.3-0.2c14.9,13,32.3,16.5,44.5,17.1
				c12.5,0.6,24.6-1.7,27.1-4.2c2.3-2.3,3-5.5,1.9-8.2c-0.7-1.8-2.9-4.7-9.4-4.7c-17.1,0-22.7-1.2-24.5-2.1c1.7-2,9.2-6.5,40.7-3.4
				c21.3,2.1,41.1,6,48.7,7.5L155.7,159z"/>
		</g>
	</g>
</g>
</svg>
