<?xml version="1.0" encoding="utf-8"?>
<!-- Generator: Adobe Illustrator 18.0.0, SVG Export Plug-In . SVG Version: 6.00 Build 0)  -->
<!DOCTYPE svg PUBLIC "-//W3C//DTD SVG 1.1//EN" "http://www.w3.org/Graphics/SVG/1.1/DTD/svg11.dtd" [
	<!ENTITY ns_flows "http://ns.adobe.com/Flows/1.0/">
	<!ENTITY ns_extend "http://ns.adobe.com/Extensibility/1.0/">
	<!ENTITY ns_ai "http://ns.adobe.com/AdobeIllustrator/10.0/">
	<!ENTITY ns_graphs "http://ns.adobe.com/Graphs/1.0/">
	<!ENTITY ns_vars "http://ns.adobe.com/Variables/1.0/">
	<!ENTITY ns_imrep "http://ns.adobe.com/ImageReplacement/1.0/">
	<!ENTITY ns_sfw "http://ns.adobe.com/SaveForWeb/1.0/">
	<!ENTITY ns_custom "http://ns.adobe.com/GenericCustomNamespace/1.0/">
	<!ENTITY ns_adobe_xpath "http://ns.adobe.com/XPath/1.0/">
]>
<svg version="1.1" id="Layer_1" xmlns:x="&ns_extend;" xmlns:i="&ns_ai;" xmlns:graph="&ns_graphs;"
	 xmlns="http://www.w3.org/2000/svg" xmlns:xlink="http://www.w3.org/1999/xlink" xmlns:a="http://ns.adobe.com/AdobeSVGViewerExtensions/3.0/"
	 x="0px" y="0px" width="200px" height="200px" viewBox="0 0 200 200" enable-background="new 0 0 200 200" xml:space="preserve">
<metadata>
	<sfw  xmlns="&ns_sfw;">
		<slices></slices>
		<sliceSourceBounds  height="150" width="150" y="-75" x="25" bottomLeftOrigin="true"></sliceSourceBounds>
	</sfw>
</metadata>
<g>
	<g>
		<path d="M123.3,25c-28.5,0-51.7,23.2-51.7,51.7c0,11.7,3.9,22.5,10.5,31.2l-10.5,10.5c-0.1,0.1-0.1,0.1-0.2,0.2
			c-0.9-0.2-1.7-0.3-2.6-0.3c-3.4,0-6.6,1.3-9,3.7l-31.1,31.1c-2.4,2.4-3.7,5.6-3.7,9c0,3.4,1.3,6.6,3.7,9c2.4,2.4,5.6,3.7,9,3.7
			s6.6-1.3,9-3.7l31.1-31.1c2.4-2.4,3.7-5.6,3.7-9c0-0.9-0.1-1.8-0.3-2.6c0.1-0.1,0.1-0.1,0.2-0.2l10.5-10.5
			c8.7,6.6,19.5,10.5,31.2,10.5c28.5,0,51.7-23.2,51.7-51.7S151.8,25,123.3,25z M43.4,167.8c-1.5,1.5-3.5,2.3-5.6,2.3
			c-2.1,0-4.1-0.8-5.6-2.3c-1.5-1.5-2.3-3.5-2.3-5.6c0-2.1,0.8-4.1,2.3-5.6l28.1-28.1l11.2,11.2L43.4,167.8z M74.9,136.3l-11.2-11.2
			c1.5-1.3,3.3-1.9,5.2-1.9c2,0,4.1,0.8,5.6,2.3c1.5,1.5,2.3,3.5,2.3,5.6C76.8,133,76.2,134.8,74.9,136.3z M79.3,123.7
			c-0.4-0.6-0.9-1.1-1.4-1.6c-0.5-0.5-1.1-1-1.7-1.4l9-9c1,1.1,2,2.1,3,3L79.3,123.7z M123.3,123.5c-25.8,0-46.8-21-46.8-46.8
			s21-46.8,46.8-46.8s46.8,21,46.8,46.8S149.1,123.5,123.3,123.5z"/>
		<path d="M123.3,35.4C100.5,35.4,82,53.9,82,76.7s18.5,41.3,41.3,41.3s41.3-18.5,41.3-41.3S146.1,35.4,123.3,35.4z
			 M123.3,113.1c-20.1,0-36.4-16.3-36.4-36.4s16.4-36.4,36.4-36.4s36.4,16.3,36.4,36.4S143.4,113.1,123.3,113.1z"/>
		<path d="M140.2,50.7c-1.1-0.7-2.6-0.4-3.4,0.7c-0.7,1.1-0.4,2.6,0.7,3.4c7.4,4.8,11.9,13,11.9,21.9
			c0,6-2.1,11.9-6,16.6c-0.9,1-0.7,2.6,0.3,3.4c0.5,0.4,1,0.6,1.5,0.6c0.7,0,1.4-0.3,1.9-0.9c4.6-5.5,7.1-12.5,7.1-19.7
			C154.3,66.2,149,56.5,140.2,50.7z"/>
	</g>
</g>
</svg>
