<?xml version="1.0" encoding="utf-8"?>
<!-- Generator: Adobe Illustrator 18.0.0, SVG Export Plug-In . SVG Version: 6.00 Build 0)  -->
<!DOCTYPE svg PUBLIC "-//W3C//DTD SVG 1.1//EN" "http://www.w3.org/Graphics/SVG/1.1/DTD/svg11.dtd" [
	<!ENTITY ns_flows "http://ns.adobe.com/Flows/1.0/">
	<!ENTITY ns_extend "http://ns.adobe.com/Extensibility/1.0/">
	<!ENTITY ns_ai "http://ns.adobe.com/AdobeIllustrator/10.0/">
	<!ENTITY ns_graphs "http://ns.adobe.com/Graphs/1.0/">
	<!ENTITY ns_vars "http://ns.adobe.com/Variables/1.0/">
	<!ENTITY ns_imrep "http://ns.adobe.com/ImageReplacement/1.0/">
	<!ENTITY ns_sfw "http://ns.adobe.com/SaveForWeb/1.0/">
	<!ENTITY ns_custom "http://ns.adobe.com/GenericCustomNamespace/1.0/">
	<!ENTITY ns_adobe_xpath "http://ns.adobe.com/XPath/1.0/">
]>
<svg version="1.1" id="Layer_1" xmlns:x="&ns_extend;" xmlns:i="&ns_ai;" xmlns:graph="&ns_graphs;"
	 xmlns="http://www.w3.org/2000/svg" xmlns:xlink="http://www.w3.org/1999/xlink" xmlns:a="http://ns.adobe.com/AdobeSVGViewerExtensions/3.0/"
	 x="0px" y="0px" width="200px" height="200px" viewBox="0 0 200 200" enable-background="new 0 0 200 200" xml:space="preserve">
<metadata>
	<sfw  xmlns="&ns_sfw;">
		<slices></slices>
		<sliceSourceBounds  height="200" width="161.4" y="-100" x="19.3" bottomLeftOrigin="true"></sliceSourceBounds>
	</sfw>
</metadata>
<g>
	<g>
		<path d="M93,113.5c0,7.8,6.4,14.2,14.2,14.2c2.4,0,7.4,0,21.7-29.5c0.9-1.8,0.5-4.1-0.9-5.5
			c-1.5-1.4-3.7-1.8-5.5-0.9C93,106.1,93,111.1,93,113.5z M106.9,120.6c-3.7-0.2-6.7-3.1-6.9-6.9c0.9-1.5,5.9-5.7,19.7-12.8
			C112.6,114.7,108.4,119.8,106.9,120.6z"/>
		<path d="M96.5,87.7h3.5c1.9,0,3.5-1.6,3.5-3.5c0-1.9-1.6-3.5-3.5-3.5h-3.5c-1.9,0-3.5,1.6-3.5,3.5
			C93,86.2,94.6,87.7,96.5,87.7z"/>
		<path d="M100,147.4h-3.5c-1.9,0-3.5,1.6-3.5,3.5s1.6,3.5,3.5,3.5h3.5c1.9,0,3.5-1.6,3.5-3.5S101.9,147.4,100,147.4
			z"/>
		<path d="M68.4,112.3h-3.5c-1.9,0-3.5,1.6-3.5,3.5s1.6,3.5,3.5,3.5h3.5c1.9,0,3.5-1.6,3.5-3.5
			S70.4,112.3,68.4,112.3z"/>
		<path d="M128.1,115.8c0,1.9,1.6,3.5,3.5,3.5h3.5c1.9,0,3.5-1.6,3.5-3.5s-1.6-3.5-3.5-3.5h-3.5
			C129.6,112.3,128.1,113.8,128.1,115.8z"/>
		<path d="M180.7,3.5V0H19.3v3.5c0,24,24.3,45.6,56.1,53.2v16c-16.7,8.8-28.1,26.3-28.1,46.4
			c0,7.5,1.6,14.7,4.5,21.2h-12c-4.4,0-8.6,2.2-11.1,5.8c-2.5,3.6-3.1,8.2-1.6,12.4l10,27.5h16.6c-1.5,4.1-5.3,7-9.9,7
			c-1.9,0-3.5,1.6-3.5,3.5s1.6,3.5,3.5,3.5c8.5,0,15.6-6,17.2-14h81.4c1.6,8,8.7,14,17.2,14c1.9,0,3.5-1.6,3.5-3.5s-1.6-3.5-3.5-3.5
			c-4.6,0-8.4-2.9-9.9-7h16.6l10-27.5c1.5-4.1,0.9-8.8-1.6-12.4c-2.5-3.6-6.7-5.8-11.1-5.8h-15.7c2.9-6.5,4.5-13.6,4.5-21.2
			c0-20-11.3-37.5-27.9-46.3V56.7C156.4,49.1,180.7,27.5,180.7,3.5z M26.6,7h146.9c-2.4,17.8-22.4,36.3-50.8,43l-2.3,0.5
			c-2.8,0.6-5.7,1-8.5,1.4c-0.9,0.1-1.8,0.2-2.7,0.3c-1,0.1-2,0.2-3,0.2c-1.6,0.1-3.3,0.2-4.9,0.2c-0.8,0-1.6,0-2.3,0
			c-1.7,0-3.3-0.1-4.9-0.2c-1-0.1-2-0.1-3-0.2c-0.9-0.1-1.8-0.2-2.7-0.3c-2.9-0.3-5.7-0.8-8.5-1.4L77.4,50
			C48.9,43.3,28.9,24.8,26.6,7z M144.2,147.4h19.5c2.2,0,4.1,1,5.3,2.8c1.2,1.8,1.5,3.9,0.8,6l-8.3,22.8H42l-8.3-22.8
			c-0.7-2-0.4-4.2,0.8-6c1.2-1.8,3.2-2.8,5.3-2.8h15.8c0.1,0.1,0.1,0.2,0.2,0.3c0.4,0.6,0.9,1.3,1.3,1.9c0.4,0.6,0.8,1.1,1.3,1.7
			c0.7,0.9,1.4,1.8,2.2,2.7c0.5,0.5,0.9,1.1,1.4,1.6c0.6,0.6,1.1,1.1,1.7,1.7c0.4,0.4,0.8,0.8,1.2,1.1c1.1,1,2.2,1.9,3.4,2.8
			c0.3,0.2,0.6,0.5,1,0.7c0.8,0.5,1.5,1.1,2.3,1.6c0.2,0.1,0.5,0.3,0.7,0.4c1.5,0.9,3,1.7,4.5,2.5c0.3,0.2,0.7,0.3,1,0.5
			c0.8,0.4,1.7,0.8,2.6,1.1c0.4,0.2,0.9,0.3,1.3,0.5c1.3,0.5,2.6,0.9,3.9,1.3c0.8,0.2,1.5,0.4,2.3,0.6c0.6,0.1,1.2,0.3,1.8,0.4
			c1.4,0.3,2.7,0.5,4.1,0.6c0.4,0,0.8,0.1,1.3,0.1c1.5,0.1,3.1,0.2,4.7,0.2c1.6,0,3.1-0.1,4.7-0.2c0.4,0,0.8-0.1,1.3-0.1
			c1.4-0.2,2.8-0.4,4.1-0.6c0.6-0.1,1.2-0.3,1.8-0.4c0.8-0.2,1.5-0.4,2.3-0.6c1.3-0.4,2.6-0.8,3.9-1.3c0.4-0.2,0.9-0.3,1.3-0.5
			c0.9-0.3,1.7-0.7,2.6-1.1c0.3-0.2,0.7-0.3,1-0.5c1.6-0.8,3.1-1.6,4.5-2.5c0.2-0.1,0.5-0.3,0.7-0.4c0.8-0.5,1.6-1,2.3-1.6
			c0.3-0.2,0.7-0.5,1-0.7c1.2-0.9,2.3-1.8,3.4-2.8c0.4-0.4,0.8-0.7,1.2-1.1c0.6-0.6,1.2-1.1,1.7-1.7c0.5-0.5,1-1,1.4-1.6
			c0.8-0.9,1.5-1.8,2.2-2.7c0.4-0.6,0.8-1.1,1.3-1.7c0.4-0.6,0.9-1.3,1.3-1.9C144,147.6,144.1,147.5,144.2,147.4z M145.4,119.2
			c0,7.8-2,15.1-5.4,21.5l-0.4,0.7c-0.3,0.5-0.6,1-0.9,1.4c-0.7,1.2-1.5,2.3-2.3,3.4c-0.2,0.3-0.5,0.7-0.7,1c-0.5,0.6-1,1.2-1.5,1.8
			c-0.3,0.3-0.5,0.6-0.8,0.9c-1.1,1.1-2.2,2.2-3.3,3.3c-0.1,0.1-0.3,0.2-0.4,0.4c-0.7,0.6-1.3,1.1-2,1.6c-0.2,0.1-0.4,0.3-0.6,0.4
			c-2.2,1.6-4.5,3-6.9,4.3c-0.2,0.1-0.4,0.2-0.6,0.3c-1.4,0.7-2.8,1.3-4.3,1.8c-0.3,0.1-0.6,0.2-0.9,0.3c-0.7,0.2-1.4,0.4-2.1,0.6
			c-0.6,0.2-1.3,0.3-1.9,0.5c-0.6,0.2-1.3,0.3-1.9,0.4c-1.1,0.2-2.2,0.4-3.3,0.5c-0.4,0-0.8,0.1-1.2,0.1c-1.3,0.1-2.7,0.2-4,0.2
			c-1.4,0-2.7-0.1-4-0.2c-0.4,0-0.8-0.1-1.2-0.1c-1.1-0.1-2.2-0.3-3.3-0.5c-0.6-0.1-1.3-0.3-1.9-0.4c-0.6-0.2-1.3-0.3-1.9-0.5
			c-0.7-0.2-1.4-0.4-2.1-0.6c-0.3-0.1-0.6-0.2-0.9-0.3c-1.5-0.5-2.9-1.1-4.3-1.8c-0.2-0.1-0.4-0.2-0.6-0.3c-2.4-1.2-4.7-2.6-6.9-4.3
			c-0.2-0.1-0.4-0.3-0.6-0.4c-0.7-0.5-1.4-1.1-2-1.6c-0.1-0.1-0.3-0.2-0.4-0.4c-1.2-1-2.3-2.1-3.3-3.3c-0.3-0.3-0.5-0.6-0.8-0.9
			c-0.5-0.6-1-1.2-1.5-1.8c-0.3-0.3-0.5-0.7-0.7-1c-0.8-1.1-1.6-2.2-2.3-3.4c-0.3-0.5-0.6-0.9-0.9-1.4l-0.4-0.7
			c-3.5-6.4-5.4-13.8-5.4-21.5c0-18.2,10.8-33.9,26.2-41.2c1.5-0.7,3-1.3,4.5-1.8c0,0,0.1,0,0.1,0c8-2.7,16.6-3.2,24.7-1.3
			c0,0,0,0,0,0c1.6,0.4,3.2,0.8,4.8,1.4c0.1,0,0.1,0.1,0.2,0.1c1.5,0.5,3,1.1,4.4,1.8C134.7,85.4,145.4,101.1,145.4,119.2z
			 M117.5,69.8c-0.2-0.1-0.3-0.1-0.5-0.2c-1-0.3-2-0.7-3-1c-0.6-0.2-1.3-0.3-1.9-0.5c-0.8-0.2-1.7-0.4-2.5-0.6
			c-0.9-0.2-1.9-0.3-2.8-0.4c-0.6-0.1-1.3-0.2-1.9-0.2c-1.6-0.2-3.3-0.2-4.9-0.2c-1.6,0-3.3,0.1-4.9,0.2c-0.6,0.1-1.3,0.2-1.9,0.2
			c-0.9,0.1-1.9,0.3-2.8,0.4c-0.8,0.2-1.7,0.3-2.5,0.5c-0.6,0.2-1.3,0.3-1.9,0.5c-1,0.3-2,0.6-3,0.9c-0.1,0-0.3,0.1-0.4,0.1V58.2
			c2.8,0.5,5.7,0.8,8.6,1.1c0.1,0,0.1,0,0.2,0c2.9,0.2,5.8,0.4,8.7,0.4s5.8-0.1,8.7-0.4c0.1,0,0.1,0,0.2,0c2.9-0.2,5.8-0.6,8.6-1.1
			V69.8z"/>
		<path d="M96.5,42.1C96.5,42.1,96.5,42.1,96.5,42.1c2,0,3.5-1.6,3.5-3.5c0-1.9-1.6-3.5-3.5-3.5c0,0,0,0,0,0
			c-8.8,0-16.9-1.3-23.9-4c-1.8-0.7-3.8,0.3-4.5,2.1c-0.7,1.8,0.3,3.8,2.1,4.5C77.9,40.6,86.8,42.1,96.5,42.1z"/>
		<path d="M57.9,17.4c-0.1-1.9-1.7-3.5-3.6-3.4c-1.9,0.1-3.5,1.7-3.4,3.6c0.1,4.6,2.3,9.1,6.3,12.6
			c0.7,0.6,1.5,0.9,2.3,0.9c1,0,1.9-0.4,2.6-1.2c1.3-1.4,1.2-3.7-0.3-5C59.4,22.8,58,20.1,57.9,17.4z"/>
	</g>
</g>
</svg>
