<?xml version="1.0" encoding="utf-8"?>
<!-- Generator: Adobe Illustrator 18.0.0, SVG Export Plug-In . SVG Version: 6.00 Build 0)  -->
<!DOCTYPE svg PUBLIC "-//W3C//DTD SVG 1.1//EN" "http://www.w3.org/Graphics/SVG/1.1/DTD/svg11.dtd" [
	<!ENTITY ns_flows "http://ns.adobe.com/Flows/1.0/">
	<!ENTITY ns_extend "http://ns.adobe.com/Extensibility/1.0/">
	<!ENTITY ns_ai "http://ns.adobe.com/AdobeIllustrator/10.0/">
	<!ENTITY ns_graphs "http://ns.adobe.com/Graphs/1.0/">
	<!ENTITY ns_vars "http://ns.adobe.com/Variables/1.0/">
	<!ENTITY ns_imrep "http://ns.adobe.com/ImageReplacement/1.0/">
	<!ENTITY ns_sfw "http://ns.adobe.com/SaveForWeb/1.0/">
	<!ENTITY ns_custom "http://ns.adobe.com/GenericCustomNamespace/1.0/">
	<!ENTITY ns_adobe_xpath "http://ns.adobe.com/XPath/1.0/">
]>
<svg version="1.1" id="Layer_1" xmlns:x="&ns_extend;" xmlns:i="&ns_ai;" xmlns:graph="&ns_graphs;"
	 xmlns="http://www.w3.org/2000/svg" xmlns:xlink="http://www.w3.org/1999/xlink" xmlns:a="http://ns.adobe.com/AdobeSVGViewerExtensions/3.0/"
	 x="0px" y="0px" width="200px" height="200px" viewBox="0 0 200 200" enable-background="new 0 0 200 200" xml:space="preserve">
<metadata>
	<sfw  xmlns="&ns_sfw;">
		<slices></slices>
		<sliceSourceBounds  height="117.1" width="200" y="-58.6" x="0" bottomLeftOrigin="true"></sliceSourceBounds>
	</sfw>
</metadata>
<g transform="translate(1 1)">
	<g>
		<g>
			<g>
				<path d="M196.8,81.2l-21.2-23.4c-1.7-1.7-3.9-2.7-6.1-2.7h-24.4v-5.1c0-5.4-4.1-9.5-9.3-9.5H8.5
					c-5.4,0-9.5,4.1-9.5,9.5v58.8v4.9v20.7c0,4.6,3.9,8.5,8.5,8.5h11.8c1.2,8.3,8.2,14.6,16.9,14.6s15.7-6.3,16.9-14.6h87h4.9h7.5
					c1.2,8.3,8.2,14.6,16.9,14.6s15.7-6.3,16.9-14.6h12.4h0.2V86.8C199,84.6,198.3,82.6,196.8,81.2z M192.9,84.4
					c0.7,0.5,1,1.5,1,2.2v7.6h-36.6V69.7h22.2L192.9,84.4z M3.9,49.9c0-2.7,2-4.6,4.6-4.6h127c2.7,0,4.6,2.2,4.6,4.6v5.1v53.7H3.9
					V49.9z M36.3,152.7c-6.8,0-12.2-5.4-12.2-12.2c0-6.8,5.4-12.2,12.2-12.2c6.8,0,12.2,5.4,12.2,12.2S43.1,152.7,36.3,152.7z
					 M140.2,138h-87c-1.1-7.8-7.4-13.8-15.3-14.6c-0.1,0-0.1,0-0.2,0c-0.2,0-0.4,0-0.6,0c-0.3,0-0.5,0-0.8,0c-0.3,0-0.6,0-0.8,0
					c-0.2,0-0.4,0-0.6,0c-0.1,0-0.1,0-0.2,0c-7.9,0.7-14.2,6.7-15.3,14.6H7.5c-2,0-3.7-1.7-3.7-3.7v-20.7h136.3V138z M169.5,152.7
					c-6.8,0-12.2-5.4-12.2-12.2c0-6.8,5.4-12.2,12.2-12.2c6.8,0,12.2,5.4,12.2,12.2S176.3,152.7,169.5,152.7z M186.4,138
					c-1.1-7.8-7.4-13.8-15.3-14.6c-0.1,0-0.1,0-0.2,0c-0.2,0-0.4,0-0.6,0c-0.3,0-0.5,0-0.8,0s-0.6,0-0.8,0c-0.2,0-0.4,0-0.6,0
					c-0.1,0-0.1,0-0.2,0c-7.9,0.7-14.2,6.7-15.3,14.6h-7.5v-24.4v-4.9V60h24.4c0.7,0,1.7,0.5,2.4,1l3.5,3.9h-18.9
					c-2.2,0-4.1,2-4.1,4.1v25.9c0,2.2,2,4.1,4.1,4.1h37.3v12.2h-12.2c-1.5,0-2.4,1-2.4,2.4s1,2.4,2.4,2.4h12.2v22L186.4,138
					L186.4,138z"/>
				<path d="M36.3,135.6c-2.7,0-4.9,2.2-4.9,4.9s2.2,4.9,4.9,4.9s4.9-2.2,4.9-4.9S39,135.6,36.3,135.6z"/>
				<path d="M169.5,135.6c-2.7,0-4.9,2.2-4.9,4.9s2.2,4.9,4.9,4.9s4.9-2.2,4.9-4.9S172.2,135.6,169.5,135.6z"/>
			</g>
		</g>
	</g>
</g>
</svg>
