<?xml version="1.0" encoding="utf-8"?>
<!-- Generator: Adobe Illustrator 18.0.0, SVG Export Plug-In . SVG Version: 6.00 Build 0)  -->
<!DOCTYPE svg PUBLIC "-//W3C//DTD SVG 1.1//EN" "http://www.w3.org/Graphics/SVG/1.1/DTD/svg11.dtd" [
	<!ENTITY ns_flows "http://ns.adobe.com/Flows/1.0/">
	<!ENTITY ns_extend "http://ns.adobe.com/Extensibility/1.0/">
	<!ENTITY ns_ai "http://ns.adobe.com/AdobeIllustrator/10.0/">
	<!ENTITY ns_graphs "http://ns.adobe.com/Graphs/1.0/">
	<!ENTITY ns_vars "http://ns.adobe.com/Variables/1.0/">
	<!ENTITY ns_imrep "http://ns.adobe.com/ImageReplacement/1.0/">
	<!ENTITY ns_sfw "http://ns.adobe.com/SaveForWeb/1.0/">
	<!ENTITY ns_custom "http://ns.adobe.com/GenericCustomNamespace/1.0/">
	<!ENTITY ns_adobe_xpath "http://ns.adobe.com/XPath/1.0/">
]>
<svg version="1.1" id="Layer_1" xmlns:x="&ns_extend;" xmlns:i="&ns_ai;" xmlns:graph="&ns_graphs;"
	 xmlns="http://www.w3.org/2000/svg" xmlns:xlink="http://www.w3.org/1999/xlink" xmlns:a="http://ns.adobe.com/AdobeSVGViewerExtensions/3.0/"
	 x="0px" y="0px" width="200px" height="200px" viewBox="0 0 200 200" enable-background="new 0 0 200 200" xml:space="preserve">
<metadata>
	<sfw  xmlns="&ns_sfw;">
		<slices></slices>
		<sliceSourceBounds  height="200" width="193.3" y="-100" x="3.3" bottomLeftOrigin="true"></sliceSourceBounds>
	</sfw>
</metadata>
<g>
	<g>
		<path d="M103.3,53.3H56.7V100h46.7V53.3z M96.7,93.3H63.3V60h33.3V93.3z"/>
		<path d="M173.3,53.3H120c-1.8,0-3.3,1.5-3.3,3.3c0,1.8,1.5,3.3,3.3,3.3h53.3c1.8,0,3.3-1.5,3.3-3.3
			C176.7,54.8,175.2,53.3,173.3,53.3z"/>
		<path d="M173.3,73.3H120c-1.8,0-3.3,1.5-3.3,3.3c0,1.8,1.5,3.3,3.3,3.3h53.3c1.8,0,3.3-1.5,3.3-3.3
			C176.7,74.8,175.2,73.3,173.3,73.3z"/>
		<path d="M173.3,93.3H120c-1.8,0-3.3,1.5-3.3,3.3c0,1.8,1.5,3.3,3.3,3.3h53.3c1.8,0,3.3-1.5,3.3-3.3
			C176.7,94.8,175.2,93.3,173.3,93.3z"/>
		<path d="M173.3,113.3h-110c-1.8,0-3.3,1.5-3.3,3.3s1.5,3.3,3.3,3.3h110c1.8,0,3.3-1.5,3.3-3.3
			S175.2,113.3,173.3,113.3z"/>
		<path d="M113.3,133.3h-50c-1.8,0-3.3,1.5-3.3,3.3s1.5,3.3,3.3,3.3h50c1.8,0,3.3-1.5,3.3-3.3
			S115.2,133.3,113.3,133.3z"/>
		<path d="M113.3,153.3h-50c-1.8,0-3.3,1.5-3.3,3.3s1.5,3.3,3.3,3.3h50c1.8,0,3.3-1.5,3.3-3.3
			S115.2,153.3,113.3,153.3z"/>
		<path d="M113.3,173.3h-50c-1.8,0-3.3,1.5-3.3,3.3s1.5,3.3,3.3,3.3h50c1.8,0,3.3-1.5,3.3-3.3
			S115.2,173.3,113.3,173.3z"/>
		<path d="M130,180h46.7v-46.7H130V180z M136.7,140H170v33.3h-33.3V140z"/>
		<path d="M196.7,43.3c0-0.1,0-0.1,0-0.2V0h-160v100H3.3v80c0,11,9,20,20,20h153.3c11,0,20-9,20-20V43.5
			C196.6,43.4,196.7,43.4,196.7,43.3z M190,6.7V40H43.3V6.7H190z M10,180v-73.3h26.7V180c0,7.4-6,13.3-13.3,13.3S10,187.4,10,180z
			 M176.7,193.3H38.2c0.1-0.1,0.1-0.1,0.1-0.2c0.7-0.8,1.3-1.6,1.9-2.5c0.1-0.1,0.2-0.3,0.3-0.4c0.5-0.9,1-1.8,1.4-2.8
			c0.1-0.1,0.1-0.3,0.2-0.4c0.4-1,0.7-2.1,0.9-3.2c0-0.1,0-0.2,0-0.3c0.2-1.1,0.3-2.3,0.3-3.5v-80V46.7H190V180
			C190,187.4,184,193.3,176.7,193.3z"/>
		<path d="M156.7,13.3h-80v20h80V13.3z M150,26.7H83.3V20H150V26.7z"/>
	</g>
</g>
</svg>
