<?xml version="1.0" encoding="utf-8"?>
<!-- Generator: Adobe Illustrator 18.0.0, SVG Export Plug-In . SVG Version: 6.00 Build 0)  -->
<!DOCTYPE svg PUBLIC "-//W3C//DTD SVG 1.1//EN" "http://www.w3.org/Graphics/SVG/1.1/DTD/svg11.dtd" [
	<!ENTITY ns_flows "http://ns.adobe.com/Flows/1.0/">
	<!ENTITY ns_extend "http://ns.adobe.com/Extensibility/1.0/">
	<!ENTITY ns_ai "http://ns.adobe.com/AdobeIllustrator/10.0/">
	<!ENTITY ns_graphs "http://ns.adobe.com/Graphs/1.0/">
	<!ENTITY ns_vars "http://ns.adobe.com/Variables/1.0/">
	<!ENTITY ns_imrep "http://ns.adobe.com/ImageReplacement/1.0/">
	<!ENTITY ns_sfw "http://ns.adobe.com/SaveForWeb/1.0/">
	<!ENTITY ns_custom "http://ns.adobe.com/GenericCustomNamespace/1.0/">
	<!ENTITY ns_adobe_xpath "http://ns.adobe.com/XPath/1.0/">
]>
<svg version="1.1" id="Layer_1" xmlns:x="&ns_extend;" xmlns:i="&ns_ai;" xmlns:graph="&ns_graphs;"
	 xmlns="http://www.w3.org/2000/svg" xmlns:xlink="http://www.w3.org/1999/xlink" xmlns:a="http://ns.adobe.com/AdobeSVGViewerExtensions/3.0/"
	 x="0px" y="0px" width="200px" height="200px" viewBox="0 0 200 200" enable-background="new 0 0 200 200" xml:space="preserve">
<metadata>
	<sfw  xmlns="&ns_sfw;">
		<slices></slices>
		<sliceSourceBounds  height="200" width="183.3" y="-100" x="8.4" bottomLeftOrigin="true"></sliceSourceBounds>
	</sfw>
</metadata>
<path d="M109.9,200H97.5c-6,0-10.8-4.8-10.8-10.8v-0.4c0-6,4.8-10.8,10.8-10.8h12.4c5,0,9.2,3.4,10.4,8h29.9
	c19.6,0,35.5-15.9,35.5-35.5v-13.2h-2.3v7.4c0,5.6-4.6,10.2-10.2,10.2h-8.5c-1.3,0-2.4-0.8-2.8-2h-3.5c-4.3,0-7.8-3.3-7.8-7.4V97.9
	c0-4.1,3.5-7.4,7.8-7.4h3.5c0.4-1.2,1.5-2,2.8-2h9c5.3,0,9.6,4.3,9.6,9.6v7.9h2.3v-9.5C185.6,46.6,147.2,6,100,6
	C52.8,6,14.4,46.6,14.4,96.5v9.5h2.3v-7.9c0-5.3,4.3-9.6,9.6-9.6h9c1.3,0,2.4,0.8,2.8,2h3.5c4.3,0,7.8,3.3,7.8,7.4v47.6
	c0,4.1-3.5,7.4-7.8,7.4h-3.5c-0.4,1.2-1.5,2-2.8,2h-8.5c-5.6,0-10.2-4.6-10.2-10.2v-7.4h-5.2c-1.7,0-3-1.3-3-3V96.5
	C8.4,43.3,49.5,0,100,0c50.5,0,91.6,43.3,91.6,96.5v54c0,22.9-18.6,41.5-41.5,41.5h-29.9C119.1,196.6,114.8,200,109.9,200z
	 M97.5,184c-2.7,0-4.8,2.2-4.8,4.8v0.4c0,2.7,2.2,4.8,4.8,4.8h12.4c2.7,0,4.8-2.2,4.8-4.8v-0.4c0-2.7-2.2-4.8-4.8-4.8H97.5z
	 M168.1,148.9h5.1c2.3,0,4.2-1.9,4.2-4.2V98.1c0-2-1.6-3.7-3.7-3.7h-5.7V148.9z M26.2,94.4c-2,0-3.7,1.6-3.7,3.7v46.6
	c0,2.3,1.9,4.2,4.2,4.2h5.5V94.4H26.2z M158.4,96.4c-1,0-1.8,0.7-1.8,1.5v47.6c0,0.8,0.8,1.5,1.8,1.5h3.7V96.4H158.4z M38.2,146.9
	h3.3c1,0,1.8-0.7,1.8-1.5V97.9c0-0.8-0.8-1.5-1.8-1.5h-3.3V146.9z M183.4,131.3h2.3V112h-2.3V131.3z M14.4,131.3h2.3V112h-2.3V131.3
	z"/>
</svg>
