<?xml version="1.0" encoding="utf-8"?>
<!-- Generator: Adobe Illustrator 18.0.0, SVG Export Plug-In . SVG Version: 6.00 Build 0)  -->
<!DOCTYPE svg PUBLIC "-//W3C//DTD SVG 1.1//EN" "http://www.w3.org/Graphics/SVG/1.1/DTD/svg11.dtd" [
	<!ENTITY ns_flows "http://ns.adobe.com/Flows/1.0/">
	<!ENTITY ns_extend "http://ns.adobe.com/Extensibility/1.0/">
	<!ENTITY ns_ai "http://ns.adobe.com/AdobeIllustrator/10.0/">
	<!ENTITY ns_graphs "http://ns.adobe.com/Graphs/1.0/">
	<!ENTITY ns_vars "http://ns.adobe.com/Variables/1.0/">
	<!ENTITY ns_imrep "http://ns.adobe.com/ImageReplacement/1.0/">
	<!ENTITY ns_sfw "http://ns.adobe.com/SaveForWeb/1.0/">
	<!ENTITY ns_custom "http://ns.adobe.com/GenericCustomNamespace/1.0/">
	<!ENTITY ns_adobe_xpath "http://ns.adobe.com/XPath/1.0/">
]>
<svg version="1.1" id="Layer_1" xmlns:x="&ns_extend;" xmlns:i="&ns_ai;" xmlns:graph="&ns_graphs;"
	 xmlns="http://www.w3.org/2000/svg" xmlns:xlink="http://www.w3.org/1999/xlink" xmlns:a="http://ns.adobe.com/AdobeSVGViewerExtensions/3.0/"
	 x="0px" y="0px" width="100px" height="100px" viewBox="0 0 100 100" enable-background="new 0 0 100 100" xml:space="preserve">
<metadata>
	<sfw  xmlns="&ns_sfw;">
		<slices></slices>
		<sliceSourceBounds  height="79.9" width="100" y="10.1" x="0" bottomLeftOrigin="true"></sliceSourceBounds>
	</sfw>
</metadata>
<g transform="translate(1 1)">
	<g>
		<g>
			<path d="M97.5,36.9L83,20.9c-1.2-1.2-2.7-1.8-4.2-1.8H62.2v-3.5c0-3.7-2.8-6.5-6.3-6.5H5.5C1.8,9.1-1,11.9-1,15.6
				v40.1V59v14.1c0,3.2,2.7,5.8,5.8,5.8h2.6c0.8,5.7,5.6,10,11.5,10s10.7-4.3,11.5-10h28.4h3.3h5.1c0.8,5.7,5.6,10,11.5,10
				c5.9,0,10.7-4.3,11.5-10h8.4H99V40.7C99,39.2,98.5,37.9,97.5,36.9z M94.8,39c0.5,0.3,0.7,1,0.7,1.5v5.2h-25V29h15.1L94.8,39z
				 M2.3,15.6c0-1.8,1.3-3.2,3.2-3.2h50.2c1.8,0,3.2,1.5,3.2,3.2V19v36.6H2.3V15.6z M19,85.6c-4.7,0-8.3-3.7-8.3-8.3
				c0-4.7,3.7-8.3,8.3-8.3c4.7,0,8.3,3.7,8.3,8.3C27.3,81.9,23.6,85.6,19,85.6z M58.9,75.6H30.5c-0.7-5.3-5-9.4-10.4-9.9
				c0,0-0.1,0-0.1,0c-0.1,0-0.3,0-0.4,0c-0.2,0-0.4,0-0.6,0c-0.2,0-0.4,0-0.6,0c-0.1,0-0.3,0-0.4,0c0,0-0.1,0-0.1,0
				c-5.4,0.5-9.7,4.6-10.4,9.9H4.8c-1.3,0-2.5-1.2-2.5-2.5V59h56.6V75.6z M78.9,85.6c-4.7,0-8.3-3.7-8.3-8.3c0-4.7,3.7-8.3,8.3-8.3
				c4.7,0,8.3,3.7,8.3,8.3C87.2,81.9,83.5,85.6,78.9,85.6z M90.4,75.6c-0.7-5.3-5-9.4-10.4-9.9c0,0-0.1,0-0.1,0c-0.1,0-0.3,0-0.4,0
				c-0.2,0-0.4,0-0.6,0s-0.4,0-0.6,0c-0.1,0-0.3,0-0.4,0c0,0-0.1,0-0.1,0c-5.4,0.5-9.7,4.6-10.4,9.9h-5.1V59v-3.3V22.4h16.6
				c0.5,0,1.2,0.3,1.7,0.7l2.4,2.7H70c-1.5,0-2.8,1.3-2.8,2.8v17.6c0,1.5,1.3,2.8,2.8,2.8h25.5v8.3h-8.3c-1,0-1.7,0.7-1.7,1.7
				s0.7,1.7,1.7,1.7h8.3v15L90.4,75.6L90.4,75.6z"/>
			<path d="M19,74c-1.8,0-3.3,1.5-3.3,3.3s1.5,3.3,3.3,3.3s3.3-1.5,3.3-3.3S20.8,74,19,74z"/>
			<path d="M78.9,74c-1.8,0-3.3,1.5-3.3,3.3s1.5,3.3,3.3,3.3c1.8,0,3.3-1.5,3.3-3.3S80.7,74,78.9,74z"/>
		</g>
	</g>
</g>
</svg>
