<?xml version="1.0" encoding="utf-8"?>
<!-- Generator: Adobe Illustrator 18.1.1, SVG Export Plug-In . SVG Version: 6.00 Build 0)  -->
<svg version="1.1" id="Layer_1" xmlns="http://www.w3.org/2000/svg" xmlns:xlink="http://www.w3.org/1999/xlink" x="0px" y="0px"
	 width="85.7px" height="64.3px" viewBox="-116 93.7 85.7 64.3" enable-background="new -116 93.7 85.7 64.3" xml:space="preserve">
<g>
	<path fill="#FFFFFF" d="M-92.6,141.9v8.9H-97V144h-2.2v6.7h-1.2c-0.5,0-0.9-0.1-1.3-0.3c-0.4-0.2-0.8-0.4-1.1-0.7s-0.5-0.7-0.7-1.1
		c-0.2-0.4-0.3-0.8-0.3-1.3v-5.5h-2.2v5.5c0,0.8,0.1,1.5,0.4,2.2c0.3,0.7,0.7,1.3,1.2,1.8s1.1,0.9,1.8,1.2c0.6,0.3,1.3,0.4,1.9,0.4
		h10.3v-11.1H-92.6z M-53.8,145c-0.3-0.7-0.7-1.3-1.2-1.8s-1.1-0.9-1.8-1.2c-0.7-0.3-1.4-0.4-2.2-0.4s-1.5,0.1-2.2,0.4
		c-0.7,0.3-1.3,0.7-1.8,1.2s-0.9,1.1-1.2,1.8c-0.3,0.7-0.4,1.4-0.4,2.2s0.1,1.5,0.4,2.2c0.3,0.7,0.7,1.3,1.2,1.8s1.1,0.9,1.8,1.2
		c0.7,0.3,1.4,0.4,2.2,0.4h5.6v-5.6C-53.3,146.5-53.5,145.8-53.8,145z M-55.6,150.7H-59c-0.5,0-0.9-0.1-1.3-0.3
		c-0.4-0.2-0.8-0.4-1.1-0.7c-0.3-0.3-0.5-0.7-0.7-1.1c-0.2-0.4-0.3-0.9-0.3-1.3c0-0.5,0.1-0.9,0.3-1.3s0.4-0.8,0.7-1.1
		c0.3-0.3,0.7-0.5,1.1-0.7s0.9-0.3,1.3-0.3c0.5,0,0.9,0.1,1.3,0.3c0.4,0.2,0.8,0.4,1.1,0.7c0.3,0.3,0.6,0.7,0.7,1.1
		c0.2,0.4,0.3,0.8,0.3,1.3V150.7z M-40.7,145c-0.3-0.7-0.7-1.3-1.2-1.8s-1.1-0.9-1.8-1.2c-0.7-0.3-1.4-0.4-2.2-0.4
		c-0.8,0-1.5,0.1-2.2,0.4c-0.7,0.3-1.3,0.7-1.8,1.2s-0.9,1.1-1.2,1.8c-0.3,0.7-0.4,1.4-0.4,2.2v10.2h2.2V153h3.3
		c0.8,0,1.5-0.1,2.2-0.4c0.7-0.3,1.3-0.7,1.8-1.2s0.9-1.1,1.2-1.8c0.3-0.7,0.4-1.4,0.4-2.2C-40.3,146.5-40.5,145.8-40.7,145z
		 M-42.8,148.5c-0.2,0.4-0.4,0.8-0.7,1.1s-0.7,0.6-1.1,0.7c-0.4,0.2-0.9,0.3-1.3,0.3h-3.4v-3.4c0-0.5,0.1-0.9,0.3-1.3
		s0.4-0.8,0.7-1.1c0.3-0.3,0.7-0.6,1.1-0.7c0.4-0.2,0.9-0.3,1.3-0.3c0.5,0,0.9,0.1,1.3,0.3c0.4,0.2,0.8,0.4,1.1,0.7
		c0.3,0.3,0.6,0.7,0.7,1.1c0.2,0.4,0.3,0.9,0.3,1.3C-42.5,147.8-42.6,148.2-42.8,148.5z M-80.3,141.8v5.5c0,0.1,0,0.1,0,0.2
		c0,2.3-1.4,3.6-3.3,3.5c-1.5,0-2.8-1.1-2.8-3.6v-5.5h-2.2v6.4c0.2,2.9,2.6,4.7,5,4.7c1.1,0,2.3-0.4,3.2-1.2c0,0.5-0.1,0.9-0.3,1.3
		c-0.2,0.4-0.4,0.8-0.7,1.1c-0.3,0.3-0.7,0.5-1.1,0.7c-0.4,0.2-0.8,0.3-1.3,0.3h-1.1v2.3h1.1c0.8,0,1.5-0.1,2.2-0.4
		c0.7-0.3,1.3-0.7,1.8-1.2s0.9-1.1,1.2-1.8c0.3-0.7,0.4-1.4,0.4-2.2v-10.1H-80.3z M-65.9,148.5c-0.2-0.5-0.5-1-0.9-1.3
		C-66.9,147-67,147-67,147l0.1-0.1c0.4-0.6,0.7-1.4,0.5-2.4c-0.3-1.6-1.8-2.7-3.4-2.6h-6.8v11h8C-65.9,152.5-65.1,150-65.9,148.5z
		 M-74.6,143.8h5.1c0.8,0,1.3,0.6,1.3,1.2c0,0.8-0.6,1.3-1.3,1.3h-5.1V143.8z M-68.5,151c-0.1,0-0.3,0.1-0.4,0.1h-5.7v-2.8h5.6
		c0.2,0,0.5,0,0.7,0.1c0.5,0.2,0.9,0.8,0.8,1.4C-67.5,150.3-67.9,150.8-68.5,151z"/>
	<path fill="#FFFFFF" d="M-30.7,116.7c-4.5-1.7-10.1,0.6-15.9,6.1c-1.2,1.1-2.3,2.3-3.5,3.6c-1.2,1.3-2.3,2.7-3.5,4.2l-0.3,0.4
		l-0.1-0.5c-2.7-12.4-7-21.9-12-26.5c-1-0.9-2-1.6-3-2.1c-1.3-0.6-2.6-0.9-3.9-0.9c-5.8,0-11,6.1-14.9,16.1c-0.7,2-1.4,4.1-2.1,6.3
		c-0.7,2.2-1.3,4.6-1.8,7.1l-0.1,0.5l-0.3-0.4c-5.9-7.7-11.9-12.7-17.2-14c-1.1-0.2-2-0.3-3-0.3c-1,0.1-1.9,0.3-2.8,0.6
		c0,0-0.1,0.1-0.2,0.1c0.6,4,2,8.5,3.9,13.4c4.1-1.8,9.5,0.6,14.9,6h3.4h7.7c1-2.9,2.1-5.4,3.4-7.5c0.1-0.1,0.1-0.2,0.2-0.3
		c0.1-0.1,0.1-0.2,0.2-0.3c0.1-0.1,0.1-0.2,0.2-0.3c0.1-0.1,0.1-0.2,0.2-0.3c0.1-0.1,0.1-0.2,0.2-0.3c0.1-0.1,0.1-0.2,0.2-0.3
		c0.1-0.1,0.1-0.2,0.2-0.3c0.3-0.4,0.7-0.8,1-1.2c2.1-2.3,4.4-3.6,6.8-3.6c0.3,0,0.6,0.1,0.9,0.1c0,0,0.1,0,0.2,0c0,0,0.1,0,0.2,0
		c0,0.1,0.1,0.1,0.2,0.1c0,0.1,0.1,0.1,0.2,0.1c0,0.1,0.1,0.1,0.2,0.1c0,0,0.1,0.1,0.2,0.1c0.1,0,0.1,0.1,0.2,0.1s0.1,0.1,0.2,0.1
		c0.1,0,0.1,0.1,0.2,0.1c2.6,1.2,5.1,4,7.1,8c0.1,0.1,2.3,5.4,2.3,5.5h7.7h3.5c5.4-5.5,10.8-7.9,14.9-6c1.9-4.8,3.3-9.4,3.9-13.4
		l0,0L-30.7,116.7z"/>
	<g>
		<path fill="#FFFFFF" d="M-110.8,130c4-1.2,9,1.2,14.1,6.2h0C-101.8,131.2-106.8,128.8-110.8,130z"/>
		<path fill="#FFFFFF" d="M-73.2,123.4c-4.7,0-9,5-11.9,12.9h2.9c2.5-3.8,5.6-6.1,9-6.1c3.4,0,6.5,2.3,9,6.1h2.9
			C-64.3,128.3-68.5,123.4-73.2,123.4z"/>
		<path fill="#FFFFFF" d="M-110.2,133.5c0.6,1.3,1,2.3,1.2,2.6h10.8c-4.7-4.2-9.2-6.1-12.9-4.7"/>
		<path fill="#FFFFFF" d="M-35.1,131.5c-3.7-1.4-8.2,0.5-12.9,4.7h10.8c0.2-0.3,0.6-1.3,1.2-2.6"/>
		<path fill="#FFFFFF" d="M-35.4,130c-4.1-1.2-9.1,1.2-14.2,6.2h0.1C-44.5,131.2-39.4,128.8-35.4,130z"/>
		<path fill="#FFFFFF" d="M-30.4,109.7c-6.5-1.1-14.8,4.8-22.9,15.4c-4.2-18.6-11.5-30.9-19.9-30.9c-8.3,0-15.6,12.3-19.8,30.9
			c-8.1-10.6-16.4-16.4-22.9-15.3c-0.2,1.8-0.1,3.8,0.2,6c6.5-2.5,14.9,2.6,23.1,12.8c4.1-17.2,11.2-28.7,19.4-28.7
			c8.2,0,15.4,11.5,19.4,28.6v0.1c8.3-10.3,16.7-15.4,23.2-12.9C-30.3,113.5-30.2,111.5-30.4,109.7z"/>
	</g>
</g>
</svg>
