<!-- Generator: Adobe Illustrator 18.1.1, SVG Export Plug-In  -->
<svg version="1.1"
   xmlns="http://www.w3.org/2000/svg" xmlns:xlink="http://www.w3.org/1999/xlink" xmlns:a="http://ns.adobe.com/AdobeSVGViewerExtensions/3.0/"
   x="0px" y="0px" width="85.7px" height="64.3px" viewBox="0 0 85.7 64.3" enable-background="new 0 0 85.7 64.3"
   xml:space="preserve">
<defs>
</defs>
<g>
  <g>
    <defs>
      <path id="SVGID_1_" d="M85.3,23.7c-0.6,4-2,8.6-3.9,13.4c-4.1-1.9-9.5,0.5-14.9,6H63l0,0h-7.7v0c0-0.1-0.1-0.3-0.1-0.4v0
        c0-0.1-0.1-0.3-0.1-0.4v0c0-0.1-0.1-0.3-0.1-0.4v0c0-0.1-0.1-0.3-0.1-0.4v0c-0.3-0.9-0.7-1.8-1.1-2.6c-0.1-0.1-0.1-0.2-0.2-0.4
        l0,0c-0.1-0.1-0.1-0.2-0.2-0.3l0,0c-0.1-0.1-0.1-0.2-0.2-0.3l0,0c-0.1-0.1-0.1-0.2-0.2-0.3l0,0c-2-4-4.5-6.8-7.1-8
        c-0.1,0-0.1-0.1-0.2-0.1l0,0c-0.1,0-0.1-0.1-0.2-0.1c-0.1,0-0.1-0.1-0.2-0.1l0,0c-0.1,0-0.2-0.1-0.2-0.1l0,0
        c-0.1,0-0.2,0-0.2-0.1l0,0c-0.1,0-0.2,0-0.2-0.1l0,0c-0.1,0-0.2,0-0.2-0.1l0,0c-0.1,0-0.2,0-0.2,0l0,0c-0.1,0-0.2,0-0.2,0
        c-0.3,0-0.6-0.1-0.9-0.1c-2.4,0-4.7,1.3-6.8,3.6l0,0c-0.3,0.4-0.7,0.8-1,1.2c-0.1,0.1-0.1,0.2-0.2,0.3l0,0
        c-0.1,0.1-0.1,0.2-0.2,0.3l0,0c-0.1,0.1-0.1,0.2-0.2,0.3l0,0c-0.1,0.1-0.1,0.2-0.2,0.3l0,0c-0.1,0.1-0.1,0.2-0.2,0.3l0,0
        c-0.1,0.1-0.1,0.2-0.2,0.3l0,0c-0.1,0.1-0.1,0.2-0.2,0.3c-1.3,2.1-2.4,4.6-3.4,7.5h-7.7l0,0h-3.4c-5.4-5.4-10.8-7.8-14.9-6
        c-1.9-4.9-3.3-9.4-3.9-13.4c0.1,0,0.2-0.1,0.2-0.1h0l0,0l0,0c0.9-0.3,1.8-0.5,2.8-0.6c1,0,1.9,0.1,3,0.3
        c5.3,1.3,11.3,6.3,17.2,14l0.3,0.4l0.1-0.5l0,0c0.5-2.5,1.1-4.9,1.8-7.1c0.7-2.2,1.4-4.3,2.1-6.3c3.9-10,9.1-16.1,14.9-16.1v0h0
        v0c1.3,0,2.6,0.3,3.9,0.9c1,0.5,2,1.2,3,2.1c5,4.6,9.3,14.1,12,26.5l0.1,0.5l0.3-0.4l0,0c1.2-1.5,2.3-2.9,3.5-4.2
        c1.2-1.3,2.3-2.5,3.5-3.6c5.9-5.5,11.6-7.8,16.1-6l0,0h0l0,0L85.3,23.7z"/>
    </defs>
    <clipPath id="SVGID_2_">
      <use xlink:href="#SVGID_1_"  overflow="visible"/>
    </clipPath>
    
      <linearGradient id="SVGID_3_" gradientUnits="userSpaceOnUse" x1="-171.4395" y1="-5997.1836" x2="-171.0545" y2="-5997.1836" gradientTransform="matrix(211.7548 -0.6031 0.2524 88.6294 37819.1641 531448.8125)">
      <stop  offset="0" style="stop-color:#2F8638"/>
      <stop  offset="0.11" style="stop-color:#00803C"/>
      <stop  offset="0.32" style="stop-color:#00A139"/>
      <stop  offset="0.51" style="stop-color:#57B33D"/>
      <stop  offset="0.68" style="stop-color:#17A638"/>
      <stop  offset="0.91" style="stop-color:#00853D"/>
      <stop  offset="1" style="stop-color:#2F8638"/>
    </linearGradient>
    <polygon clip-path="url(#SVGID_2_)" fill="url(#SVGID_3_)" points="0.4,43.3 85.4,43.1 85.3,7.6 0.3,7.8     "/>
  </g>
  <path fill-rule="evenodd" clip-rule="evenodd" fill="#ECEFF1" d="M25.6,54.2L25.6,54.2V53v-4.3h-2.2V53v4.6H19v-6.7h-2.2v6.7h-1.2
    h0c-0.5,0-0.9-0.1-1.3-0.3c-0.4-0.2-0.8-0.4-1.1-0.7c-0.3-0.3-0.5-0.7-0.7-1.1c-0.2-0.4-0.3-0.8-0.3-1.3v-5.5H10v5.5
    c0,0.8,0.1,1.5,0.4,2.2c0.3,0.7,0.7,1.3,1.2,1.8c0.5,0.5,1.1,0.9,1.8,1.2c0.6,0.3,1.3,0.4,1.9,0.4v0h0.1h0.1h0h10.1V54.2z
     M60.4,57.5h-3.4c-0.5,0-0.9-0.1-1.3-0.3c-0.4-0.2-0.8-0.4-1.1-0.7c-0.3-0.3-0.5-0.7-0.7-1.1c-0.2-0.4-0.3-0.9-0.3-1.3
    c0-0.5,0.1-0.9,0.3-1.3c0.2-0.4,0.4-0.8,0.7-1.1c0.3-0.3,0.7-0.5,1.1-0.7c0.4-0.2,0.9-0.3,1.3-0.3c0.5,0,0.9,0.1,1.3,0.3
    c0.4,0.2,0.8,0.4,1.1,0.7c0.3,0.3,0.6,0.7,0.7,1.1c0.2,0.4,0.3,0.8,0.3,1.3V57.5z M62.2,51.9c-0.3-0.7-0.7-1.3-1.2-1.8
    c-0.5-0.5-1.1-0.9-1.8-1.2c-0.7-0.3-1.4-0.4-2.2-0.4c-0.8,0-1.5,0.1-2.2,0.4c-0.7,0.3-1.3,0.7-1.8,1.2c-0.5,0.5-0.9,1.1-1.2,1.8
    c-0.3,0.7-0.4,1.4-0.4,2.2c0,0.8,0.1,1.5,0.4,2.2c0.3,0.7,0.7,1.3,1.2,1.8c0.5,0.5,1.1,0.9,1.8,1.2c0.7,0.3,1.4,0.4,2.2,0.4h5.6
    v-5.6C62.7,53.3,62.5,52.6,62.2,51.9z M73.2,55.4c-0.2,0.4-0.4,0.8-0.7,1.1c-0.3,0.3-0.7,0.6-1.1,0.7c-0.4,0.2-0.9,0.3-1.3,0.3
    h-3.4v-3.4c0-0.5,0.1-0.9,0.3-1.3c0.2-0.4,0.4-0.8,0.7-1.1c0.3-0.3,0.7-0.6,1.1-0.7c0.4-0.2,0.9-0.3,1.3-0.3c0.5,0,0.9,0.1,1.3,0.3
    c0.4,0.2,0.8,0.4,1.1,0.7c0.3,0.3,0.6,0.7,0.7,1.1c0.2,0.4,0.3,0.9,0.3,1.3C73.5,54.6,73.4,55,73.2,55.4z M75.3,51.9
    c-0.3-0.7-0.7-1.3-1.2-1.8c-0.5-0.5-1.1-0.9-1.8-1.2c-0.7-0.3-1.4-0.4-2.2-0.4c-0.8,0-1.5,0.1-2.2,0.4c-0.7,0.3-1.3,0.7-1.8,1.2
    c-0.5,0.5-0.9,1.1-1.2,1.8c-0.3,0.7-0.4,1.4-0.4,2.2v10.2h2.2v-4.5H70c0.8,0,1.5-0.1,2.2-0.4c0.7-0.3,1.3-0.7,1.8-1.2
    c0.5-0.5,0.9-1.1,1.2-1.8c0.3-0.7,0.4-1.4,0.4-2.2C75.7,53.3,75.5,52.6,75.3,51.9z M37.8,48.7v10c0,0.8-0.1,1.5-0.4,2.2
    c-0.3,0.7-0.7,1.3-1.2,1.8c-0.5,0.5-1.1,0.9-1.8,1.2c-0.7,0.3-1.4,0.4-2.2,0.4h-1.1V62h1.1c0.5,0,0.9-0.1,1.3-0.3
    c0.4-0.2,0.8-0.4,1.1-0.7c0.3-0.3,0.5-0.7,0.7-1.1c0.2-0.4,0.3-0.8,0.3-1.3v0c-2.9,2.5-7.9,0.8-8.2-3.5c0-0.3,0-0.6,0-1V54v-5.3
    h2.2v5.5c0,2.5,1.3,3.6,2.8,3.6c1.9,0.1,3.3-1.2,3.3-3.5c0-0.1,0-0.1,0-0.2v-5.5H37.8z M47.4,59.7h-0.2h-7.8V48.7h6.7
    c0,0,0.1,0,0.1,0c1.6-0.1,3.1,1,3.4,2.6c0.2,1-0.1,1.8-0.5,2.4c0,0-0.1,0.1-0.1,0.1c0,0,0.1,0.1,0.2,0.2c0.4,0.3,0.7,0.8,0.9,1.3
    C50.9,56.9,50.1,59.4,47.4,59.7C47.5,59.7,47.4,59.7,47.4,59.7z M41.4,53.1v-2.5h5.1c0.8,0,1.3,0.6,1.3,1.2c0,0.8-0.6,1.3-1.3,1.3
    c0,0-0.1,0-0.1,0C44.8,53.1,43.1,53.1,41.4,53.1z M41.4,55.1c1.9,0,3.7,0,5.6,0c0.2,0,0.5,0,0.7,0.1c0.5,0.2,0.9,0.8,0.8,1.4
    c0,0.5-0.4,1-1,1.2c-0.1,0-0.3,0.1-0.4,0.1H47h-5.6V55.1z"/>
  <path fill-rule="evenodd" clip-rule="evenodd" fill="#007336" d="M81.4,37.1c0,0-0.7,1.8-1.4,3.3c-0.6,1.3-1,2.3-1.2,2.6H66.4
    C71.8,37.7,77.2,35.3,81.4,37.1 M42.8,28.8c5,0,9.5,5.6,12.4,14.3h-3.4c-2.5-3.8-5.6-6.1-9-6.1c-3.4,0-6.5,2.3-9,6.1h-3.4
    C33.4,34.4,37.8,28.8,42.8,28.8z M4.4,37.1c0,0,0.7,1.8,1.4,3.3c0.6,1.3,1,2.3,1.2,2.6h12.3C13.9,37.7,8.5,35.3,4.4,37.1z
     M42.8,1.1c8.4,0,15.7,12.3,19.9,30.9c8.1-10.6,16.4-16.5,22.9-15.4c0.2,1.8,0.1,3.8-0.2,6c-6.5-2.5-14.9,2.6-23.2,12.9l0-0.1l0,0
    C58.2,18.3,51,6.8,42.8,6.8c-8.2,0-15.3,11.5-19.4,28.7l0,0l0,0C15.2,25.3,6.8,20.2,0.3,22.7c-0.3-2.2-0.4-4.2-0.2-6
    c6.5-1.1,14.8,4.7,22.9,15.3C27.2,13.4,34.5,1.1,42.8,1.1z"/>
  <path fill-rule="evenodd" clip-rule="evenodd" fill="#005429" d="M81.4,37.1c0,0-0.2,0.5-0.5,1.2c-3.7-1.4-8.3,0.5-13,4.8h-1.5
    C71.8,37.7,77.2,35.3,81.4,37.1 M42.8,28.8c5,0,9.5,5.6,12.4,14.3h-0.5c-3-7.9-7.2-12.9-11.9-12.9c-4.7,0-9,5-11.9,12.9h-0.5
    C33.4,34.4,37.8,28.8,42.8,28.8z M4.4,37.1c0,0,0.2,0.5,0.5,1.2c3.7-1.4,8.3,0.5,13,4.8h1.5C13.9,37.7,8.5,35.3,4.4,37.1z"/>
  <path fill-rule="evenodd" clip-rule="evenodd" fill="#A1DB87" d="M42.8,0c8.4,0,15.7,12.3,19.9,31C70.8,20.4,79,14.5,85.5,15.6
    c0,0.3,0.1,1,0.1,1.2c-6.5-1.1-14.8,4.8-22.9,15.4c-4.2-18.6-11.5-31-19.9-31c-8.3,0-15.7,12.3-19.9,30.9
    C14.8,21.5,6.6,15.7,0.1,16.8c0-0.4,0.1-1,0.2-1.3c6.5-1,14.7,4.9,22.7,15.4C27.2,12.3,34.5,0,42.8,0"/>
</g>
</svg>
