<?xml version="1.0" encoding="utf-8"?>
<!-- Generator: Adobe Illustrator 18.0.0, SVG Export Plug-In . SVG Version: 6.00 Build 0)  -->
<!DOCTYPE svg PUBLIC "-//W3C//DTD SVG 1.1//EN" "http://www.w3.org/Graphics/SVG/1.1/DTD/svg11.dtd" [
	<!ENTITY ns_flows "http://ns.adobe.com/Flows/1.0/">
	<!ENTITY ns_extend "http://ns.adobe.com/Extensibility/1.0/">
	<!ENTITY ns_ai "http://ns.adobe.com/AdobeIllustrator/10.0/">
	<!ENTITY ns_graphs "http://ns.adobe.com/Graphs/1.0/">
	<!ENTITY ns_vars "http://ns.adobe.com/Variables/1.0/">
	<!ENTITY ns_imrep "http://ns.adobe.com/ImageReplacement/1.0/">
	<!ENTITY ns_sfw "http://ns.adobe.com/SaveForWeb/1.0/">
	<!ENTITY ns_custom "http://ns.adobe.com/GenericCustomNamespace/1.0/">
	<!ENTITY ns_adobe_xpath "http://ns.adobe.com/XPath/1.0/">
]>
<svg version="1.1" id="Layer_1" xmlns:x="&ns_extend;" xmlns:i="&ns_ai;" xmlns:graph="&ns_graphs;"
	 xmlns="http://www.w3.org/2000/svg" xmlns:xlink="http://www.w3.org/1999/xlink" xmlns:a="http://ns.adobe.com/AdobeSVGViewerExtensions/3.0/"
	 x="0px" y="0px" width="100px" height="100px" viewBox="0 0 100 100" enable-background="new 0 0 100 100" xml:space="preserve">
<metadata>
	<sfw  xmlns="&ns_sfw;">
		<slices></slices>
		<sliceSourceBounds  height="100" width="81.1" y="0" x="9.4" bottomLeftOrigin="true"></sliceSourceBounds>
	</sfw>
</metadata>
<g>
	<g>
		<g>
			<g>
				<path d="M50,17.8c-12.5,0-22.7,10.2-22.7,22.7S37.5,63.3,50,63.3s22.7-10.2,22.7-22.7C72.7,28,62.5,17.8,50,17.8
					z M50,60.3c-10.9,0-19.8-8.9-19.8-19.8c0-10.9,8.9-19.8,19.8-19.8s19.8,8.9,19.8,19.8S60.9,60.3,50,60.3z"/>
			</g>
		</g>
		<path d="M90.6,40.6C90.6,18.2,72.4,0,50,0S9.4,18.2,9.4,40.6c0,11.3,4.7,21.6,12.2,29c-7.8,7.6-12.2,18.1-12.2,29
			v1.5h81.1v-1.5c0-10.9-4.4-21.4-12.2-29C85.9,62.2,90.6,51.9,90.6,40.6z M12.4,40.6C12.4,19.8,29.3,3,50,3s37.6,16.9,37.6,37.6
			c0,17.5-12,32.2-28.2,36.4c-6.1,1.6-12.7,1.6-18.8,0C24.4,72.8,12.4,58.1,12.4,40.6z M87.6,97H12.4c0.4-9.6,4.5-18.8,11.4-25.5
			c4.2,3.5,9,6.2,14.1,7.8c8.4,2.1,15.7,2.1,24.1,0c5.2-1.6,10-4.2,14.1-7.8C84,79.4,87,87.2,87.6,97z"/>
	</g>
	<circle cx="50" cy="40.6" r="6.8"/>
</g>
</svg>
