<!-- Generator: Adobe Illustrator 18.1.1, SVG Export Plug-In  -->
<svg version="1.1"
   xmlns="http://www.w3.org/2000/svg" xmlns:xlink="http://www.w3.org/1999/xlink" xmlns:a="http://ns.adobe.com/AdobeSVGViewerExtensions/3.0/"
   x="0px" y="0px" width="30.5px" height="28px" viewBox="0 0 30.5 28" enable-background="new 0 0 30.5 28" xml:space="preserve">
<g>
  <path d="M16.7,22.2h-2.9c-0.3,0-0.5,0.2-0.5,0.5c0,0.3,0.2,0.5,0.5,0.5h2.9c0.3,0,0.5-0.2,0.5-0.5
    C17.2,22.4,17,22.2,16.7,22.2z"/>
  <path d="M30.5,24.5C30.5,24.5,30.5,24.5,30.5,24.5C30.5,24.5,30.5,24.5,30.5,24.5c0-0.1,0-0.1,0-0.1c0,0,0,0,0,0
    c0,0,0,0,0,0c0,0,0,0,0,0c0,0-2.7-5.1-2.7-5.1V6c0-0.3-0.2-0.5-0.5-0.5c-0.3,0-0.5,0.2-0.5,0.5v12.9H3.7V5.2c0-0.8,0.7-1.5,1.5-1.5
    h19.3c0.3,0,0.5-0.2,0.5-0.5s-0.2-0.5-0.5-0.5H5.2c-1.3,0-2.4,1.1-2.4,2.4v14.1l-2.7,5.1c0,0,0,0,0,0c0,0,0,0,0,0c0,0,0,0,0,0
    c0,0,0,0,0,0c0,0,0,0,0,0c0,0,0,0,0,0.1c0,0,0,0,0,0v1C0,26.9,1.1,28,2.4,28h25.7c1.3,0,2.4-1.1,2.4-2.4L30.5,24.5
    C30.5,24.6,30.5,24.6,30.5,24.5L30.5,24.5z M3.5,19.9H27l2.2,4.2H1.3L3.5,19.9z M28.1,27H2.4C1.6,27,1,26.4,1,25.6v-0.5h28.6v0.5
    C29.6,26.4,28.9,27,28.1,27z"/>
  <path d="M27.4,1h1.4L17.2,12.6L13.6,9c-0.2-0.2-0.5-0.2-0.7,0l-8.1,8.1c-0.2,0.2-0.2,0.5,0,0.7
    c0.1,0.1,0.2,0.1,0.3,0.1c0.1,0,0.2,0,0.3-0.1l7.8-7.8l3.6,3.6c0.2,0.2,0.5,0.2,0.7,0l12-12v1.4c0,0.3,0.2,0.5,0.5,0.5
    c0.3,0,0.5-0.2,0.5-0.5V0.5C30.5,0.2,30.3,0,30,0h-2.6C27.2,0,27,0.2,27,0.5S27.2,1,27.4,1z"/>
</g>
</svg>
