<!-- Generator: Adobe Illustrator 18.1.1, SVG Export Plug-In  -->
<svg version="1.1"
   xmlns="http://www.w3.org/2000/svg" xmlns:xlink="http://www.w3.org/1999/xlink" xmlns:a="http://ns.adobe.com/AdobeSVGViewerExtensions/3.0/"
   x="0px" y="0px" width="18px" height="18px" viewBox="0 0 18 18" enable-background="new 0 0 18 18" xml:space="preserve">
<defs>
</defs>
<path d="M12.9,11.3h-0.8L11.8,11c1-1.2,1.6-2.7,1.6-4.4c0-3.7-3-6.7-6.7-6.7S0,3,0,6.7s3,6.7,6.7,6.7
  c1.7,0,3.2-0.6,4.4-1.6l0.3,0.3v0.8l5.1,5.1l1.5-1.5L12.9,11.3z M6.7,11.3c-2.6,0-4.6-2.1-4.6-4.6s2.1-4.6,4.6-4.6s4.6,2.1,4.6,4.6
  S9.3,11.3,6.7,11.3z"/>
</svg>
