<!-- Generator: Adobe Illustrator 18.1.1, SVG Export Plug-In  -->
<svg version="1.1"
   xmlns="http://www.w3.org/2000/svg" xmlns:xlink="http://www.w3.org/1999/xlink" xmlns:a="http://ns.adobe.com/AdobeSVGViewerExtensions/3.0/"
   x="0px" y="0px" width="16.3px" height="18px" viewBox="0 0 16.3 18" enable-background="new 0 0 16.3 18" xml:space="preserve">
<defs>
</defs>
<path d="M13.6,12.7c-0.7,0-1.3,0.3-1.8,0.7L5.3,9.7c0-0.2,0.1-0.4,0.1-0.6s0-0.4-0.1-0.6l6.4-3.7
  c0.5,0.5,1.1,0.7,1.8,0.7c1.5,0,2.7-1.2,2.7-2.7S15.1,0,13.6,0s-2.7,1.2-2.7,2.7c0,0.2,0,0.4,0.1,0.6L4.6,7.1
  C4.1,6.6,3.4,6.3,2.7,6.3C1.2,6.3,0,7.5,0,9s1.2,2.7,2.7,2.7c0.7,0,1.4-0.3,1.8-0.7l6.4,3.8c0,0.2-0.1,0.4-0.1,0.6
  c0,1.5,1.2,2.6,2.6,2.6s2.6-1.2,2.6-2.6C16.2,13.9,15,12.7,13.6,12.7z"/>
</svg>
