<!-- Generator: Adobe Illustrator 18.1.1, SVG Export Plug-In  -->
<svg version="1.1"
   xmlns="http://www.w3.org/2000/svg" xmlns:xlink="http://www.w3.org/1999/xlink" xmlns:a="http://ns.adobe.com/AdobeSVGViewerExtensions/3.0/"
   x="0px" y="0px" width="100.6px" height="11.6px" viewBox="0 0 100.6 11.6" enable-background="new 0 0 100.6 11.6"
   xml:space="preserve">
<defs>
</defs>
<g>
  <path opacity="0.7" fill-rule="evenodd" clip-rule="evenodd" fill="#FFFFFF" d="M52.4,0c0.8,0,1.5,0.1,2.2,0.4
    c0.7,0.3,1.3,0.7,1.8,1.2c0.5,0.5,0.9,1.1,1.2,1.8c0.3,0.7,0.4,1.4,0.4,2.2v5.8h-5.7c-0.8,0-1.5-0.2-2.2-0.4
    c-0.7-0.3-1.3-0.7-1.8-1.2c-0.5-0.5-0.9-1.1-1.2-1.8c-0.3-0.7-0.4-1.4-0.4-2.2c0-0.8,0.2-1.6,0.4-2.2c0.3-0.7,0.7-1.3,1.2-1.8
    c0.5-0.5,1.1-0.9,1.8-1.2C50.9,0.1,51.6,0,52.4,0L52.4,0z M14,11.6h-2.3V0H14v4.6h5.6V0h2.3c0,3.7,0,7.7,0,11.5h-2.3V6.9H14V11.6
    L14,11.6z M66.7,0v2.3h-1.2c-0.5,0-0.9,0.1-1.3,0.3c-0.4,0.2-0.8,0.4-1.1,0.7c-0.3,0.3-0.6,0.7-0.7,1.1c-0.2,0.4-0.3,0.9-0.3,1.3
    v5.8h-2.3V5.7c0-0.8,0.1-1.6,0.4-2.2c0.3-0.7,0.7-1.3,1.2-1.8c0.5-0.5,1.1-0.9,1.8-1.2C64.1,0.1,64.8,0,65.6,0H66.7L66.7,0z
     M47.6,0H45l-3.4,8.4L38.2,0h-2.6l4.8,11.6h2.4L47.6,0L47.6,0z M35,0v5.7c0,0.8-0.2,1.5-0.4,2.2c-0.3,0.7-0.7,1.3-1.2,1.8
    c-0.5,0.5-1.1,0.9-1.8,1.2c-0.7,0.3-1.4,0.4-2.2,0.4c-0.8,0-1.5-0.2-2.2-0.4c-0.7-0.3-1.3-0.7-1.8-1.2C24.7,9.3,24.3,8.7,24,8
    c-0.3-0.7-0.4-1.4-0.4-2.2V0h2.3v5.7c0,0.5,0.1,0.9,0.3,1.4c0.2,0.4,0.4,0.8,0.7,1.1c0.3,0.3,0.7,0.6,1.1,0.7
    c0.4,0.2,0.9,0.3,1.3,0.3c0.5,0,0.9-0.1,1.4-0.3c0.4-0.2,0.8-0.4,1.1-0.7c0.3-0.3,0.6-0.7,0.7-1.1c0.2-0.4,0.3-0.9,0.3-1.4V0H35
    L35,0z M9.8,0v2.3H3.2c-0.3,0-0.6,0.1-0.8,0.3C2.3,2.8,2.1,3.1,2.1,3.4c0,0.3,0.1,0.6,0.3,0.8c0.2,0.2,0.5,0.3,0.8,0.3h4.3
    c0.4,0,0.9,0.1,1.3,0.3c0.4,0.2,0.7,0.4,1,0.7c0.3,0.3,0.5,0.7,0.7,1.1c0.2,0.4,0.3,0.9,0.3,1.3c0,0.5-0.1,0.9-0.3,1.3
    c-0.2,0.4-0.4,0.8-0.7,1.1c-0.3,0.3-0.6,0.6-1,0.7c-0.4,0.2-0.8,0.3-1.3,0.3H1.1V9.2h6.5c0.3,0,0.6-0.1,0.8-0.3
    C8.6,8.7,8.7,8.4,8.7,8c0-0.3-0.1-0.6-0.3-0.8C8.2,7,7.9,6.9,7.6,6.9H3.2C2.8,6.9,2.4,6.8,2,6.6c-0.4-0.2-0.7-0.4-1-0.7
    C0.7,5.6,0.4,5.2,0.3,4.8C0.1,4.4,0,3.9,0,3.4C0,3,0.1,2.5,0.3,2.1C0.4,1.7,0.7,1.3,0.9,1c0.3-0.3,0.6-0.6,1-0.7
    C2.4,0.1,2.8,0,3.2,0H9.8L9.8,0z M55.9,9.2V5.7c0-0.5-0.1-0.9-0.3-1.3c-0.2-0.4-0.4-0.8-0.7-1.1c-0.3-0.3-0.7-0.6-1.1-0.7
    c-0.4-0.2-0.9-0.3-1.3-0.3c-0.5,0-0.9,0.1-1.4,0.3C50.6,2.7,50.3,3,50,3.3c-0.3,0.3-0.6,0.7-0.7,1.1c-0.2,0.4-0.3,0.9-0.3,1.3
    c0,0.5,0.1,0.9,0.3,1.4c0.2,0.4,0.4,0.8,0.7,1.1c0.3,0.3,0.7,0.6,1.1,0.7c0.4,0.2,0.9,0.3,1.4,0.3H55.9z"/>
  <path fill-rule="evenodd" clip-rule="evenodd" fill="#2491D0" d="M74.2,0l19.4,0h1.2c0.8,0,1.5,0.1,2.2,0.4
    c0.7,0.3,1.3,0.7,1.9,1.2c0.5,0.5,0.9,1.1,1.2,1.8c0.3,0.7,0.5,1.4,0.5,2.3v5.8l-2.3,0l-19.4,0h-1.2c-0.8,0-1.5-0.1-2.2-0.4
    c-0.7-0.3-1.3-0.7-1.9-1.2c-0.5-0.5-0.9-1.1-1.2-1.8c-0.3-0.7-0.5-1.4-0.5-2.3V0H74.2z"/>
  <path fill-rule="evenodd" clip-rule="evenodd" fill="#FFFFFF" d="M77.2,1.5c0.1,0,0.1,0,0.2,0.1c0.1,0.1,0.1,0.1,0.1,0.2v0.9
    c0,0.1,0,0.1-0.1,0.2C77.4,2.9,77.3,3,77.2,3h-0.9c-0.1,0-0.1,0-0.2-0.1C76,2.8,76,2.7,76,2.7V1.8c0-0.1,0-0.1,0.1-0.2
    c0.1-0.1,0.1-0.1,0.2-0.1H77.2L77.2,1.5z M77.4,9c0,0.1,0,0.1-0.1,0.2c-0.1,0.1-0.1,0.1-0.2,0.1h-0.8c-0.1,0-0.1,0-0.2-0.1
    C76.1,9.1,76,9,76,9V3.9c0-0.1,0-0.1,0.1-0.2c0.1-0.1,0.1-0.1,0.2-0.1h0.8c0.1,0,0.1,0,0.2,0.1c0.1,0.1,0.1,0.1,0.1,0.2V9L77.4,9z
     M84.3,9c0,0.1,0,0.1-0.1,0.2c-0.1,0.1-0.1,0.1-0.2,0.1h-0.8c-0.1,0-0.1,0-0.2-0.1C82.9,9.1,82.9,9,82.9,9V6.2
    c0-0.5-0.1-0.8-0.3-1.1c-0.2-0.3-0.5-0.4-0.9-0.4c-0.4,0-0.7,0.1-0.9,0.4c-0.2,0.3-0.3,0.6-0.3,1V9c0,0.1,0,0.1-0.1,0.2
    c-0.1,0.1-0.1,0.1-0.2,0.1h-0.8c-0.1,0-0.1,0-0.2-0.1C79,9.1,79,9,79,9V3.9c0-0.1,0-0.1,0.1-0.2c0.1-0.1,0.1-0.1,0.2-0.1h0.8
    c0.1,0,0.1,0,0.2,0.1c0.1,0.1,0.1,0.1,0.1,0.2v0.3c0.4-0.4,1-0.7,1.6-0.7c0.8,0,1.4,0.2,1.8,0.7c0.4,0.5,0.6,1.1,0.6,1.8V9L84.3,9z
     M89.1,3.6c0.1,0,0.1,0,0.2,0.1c0.1,0.1,0.1,0.1,0.1,0.2v0.7c0,0.1,0,0.1-0.1,0.2c-0.1,0.1-0.1,0.1-0.2,0.1h-1.5V9
    c0,0.1,0,0.1-0.1,0.2c-0.1,0.1-0.1,0.1-0.2,0.1h-0.8c-0.1,0-0.1,0-0.2-0.1C86.2,9.1,86.2,9,86.2,9V4.9h-0.7c-0.1,0-0.1,0-0.2-0.1
    c-0.1-0.1-0.1-0.1-0.1-0.2V3.9c0-0.1,0-0.1,0.1-0.2c0.1-0.1,0.1-0.1,0.2-0.1h0.7V3.1c0-0.7,0.2-1.2,0.6-1.5
    c0.4-0.3,0.9-0.4,1.6-0.4h0.9c0.1,0,0.1,0,0.2,0.1c0.1,0.1,0.1,0.1,0.1,0.2v0.7c0,0.1,0,0.1-0.1,0.2c-0.1,0.1-0.1,0.1-0.2,0.1h-0.8
    c-0.3,0-0.5,0.1-0.6,0.2c-0.1,0.1-0.2,0.3-0.2,0.6v0.4H89.1L89.1,3.6z M95.5,5.9c0,0.2,0,0.4,0,0.6c0,0.2,0,0.4,0,0.5
    c0,0.4-0.2,0.8-0.4,1.2c-0.2,0.4-0.6,0.7-1,0.9c-0.4,0.2-0.9,0.3-1.4,0.3c-0.5,0-1-0.1-1.4-0.3c-0.4-0.2-0.7-0.5-1-0.9
    C90.2,7.8,90,7.4,90,7c0-0.1,0-0.3,0-0.5c0-0.3,0-0.5,0-0.6c0-0.5,0.2-0.9,0.4-1.2c0.2-0.4,0.6-0.7,1-0.9c0.4-0.2,0.9-0.3,1.4-0.3
    c0.5,0,1,0.1,1.4,0.3c0.4,0.2,0.7,0.5,1,0.9C95.3,5,95.5,5.4,95.5,5.9L95.5,5.9z M92.7,4.8c-0.3,0-0.6,0.1-0.9,0.3
    c-0.2,0.2-0.4,0.5-0.4,0.9c0,0.1,0,0.2,0,0.5c0,0.3,0,0.4,0,0.5c0,0.4,0.2,0.7,0.4,0.9c0.2,0.2,0.5,0.3,0.9,0.3s0.6-0.1,0.9-0.3
    c0.2-0.2,0.4-0.5,0.4-0.9c0-0.1,0-0.3,0-0.5c0-0.2,0-0.3,0-0.5c0-0.4-0.2-0.7-0.4-0.9C93.4,4.9,93.1,4.8,92.7,4.8z"/>
</g>
</svg>
