<!-- Generator: Adobe Illustrator 18.1.1, SVG Export Plug-In  -->
<svg version="1.1"
   xmlns="http://www.w3.org/2000/svg" xmlns:xlink="http://www.w3.org/1999/xlink" xmlns:a="http://ns.adobe.com/AdobeSVGViewerExtensions/3.0/"
   x="0px" y="0px" width="74.2px" height="8.5px" viewBox="0 0 74.2 8.5" enable-background="new 0 0 74.2 8.5" xml:space="preserve"
  >
<defs>
</defs>
<g>
  <path fill-rule="evenodd" clip-rule="evenodd" fill="#546E7A" d="M38.6,0c0.6,0,1.1,0.1,1.7,0.3c0.5,0.2,1,0.5,1.3,0.9
    c0.4,0.4,0.7,0.8,0.9,1.3c0.2,0.5,0.3,1.1,0.3,1.7v4.2h-4.2c-0.6,0-1.1-0.1-1.6-0.3c-0.5-0.2-1-0.5-1.4-0.9
    c-0.4-0.4-0.7-0.8-0.9-1.4c-0.2-0.5-0.3-1.1-0.3-1.6c0-0.6,0.1-1.1,0.3-1.7c0.2-0.5,0.5-1,0.9-1.3C36,0.9,36.5,0.5,37,0.3
    C37.5,0.1,38.1,0,38.6,0L38.6,0z M10.3,8.5H8.6V0h1.7v3.4h4.1V0h1.7c0,2.7,0,5.7,0,8.5h-1.7V5.1h-4.1V8.5L10.3,8.5z M49.2,0v1.7
    h-0.8c-0.4,0-0.7,0.1-1,0.2c-0.3,0.1-0.6,0.3-0.8,0.5c-0.2,0.2-0.4,0.5-0.5,0.8c-0.1,0.3-0.2,0.6-0.2,1v4.2h-1.7V4.2
    c0-0.6,0.1-1.1,0.3-1.7c0.2-0.5,0.5-1,0.9-1.3c0.4-0.4,0.8-0.7,1.4-0.9C47.2,0.1,47.8,0,48.4,0H49.2L49.2,0z M35.1,0h-1.9l-2.5,6.2
    L28.1,0h-1.9l3.5,8.5h1.8L35.1,0L35.1,0z M25.8,0v4.2c0,0.6-0.1,1.1-0.3,1.6c-0.2,0.5-0.5,1-0.9,1.4c-0.4,0.4-0.8,0.7-1.3,0.9
    c-0.5,0.2-1.1,0.3-1.7,0.3c-0.6,0-1.1-0.1-1.6-0.3c-0.5-0.2-1-0.5-1.4-0.9c-0.4-0.4-0.7-0.8-0.9-1.4c-0.2-0.5-0.3-1.1-0.3-1.6V0H19
    v4.2c0,0.4,0.1,0.7,0.2,1c0.1,0.3,0.3,0.6,0.5,0.8c0.2,0.2,0.5,0.4,0.8,0.5c0.3,0.1,0.6,0.2,1,0.2c0.4,0,0.7-0.1,1-0.2
    c0.3-0.1,0.6-0.3,0.8-0.5c0.2-0.2,0.4-0.5,0.5-0.8c0.1-0.3,0.2-0.6,0.2-1V0H25.8L25.8,0z M7.2,0v1.7H2.4C2.2,1.7,2,1.8,1.8,1.9
    C1.7,2.1,1.6,2.3,1.6,2.5c0,0.2,0.1,0.4,0.2,0.6C2,3.3,2.2,3.4,2.4,3.4h3.2c0.3,0,0.6,0.1,0.9,0.2c0.3,0.1,0.5,0.3,0.8,0.5
    c0.2,0.2,0.4,0.5,0.5,0.8C7.9,5.2,8,5.6,8,5.9c0,0.4-0.1,0.7-0.2,1C7.7,7.2,7.5,7.5,7.3,7.7C7.1,8,6.8,8.1,6.5,8.3
    C6.2,8.4,5.9,8.5,5.6,8.5H0.8V6.8h4.8c0.2,0,0.4-0.1,0.6-0.2c0.2-0.2,0.2-0.4,0.2-0.6c0-0.2-0.1-0.4-0.2-0.6C6,5.2,5.8,5.1,5.6,5.1
    H2.4C2.1,5.1,1.7,5,1.4,4.9C1.2,4.7,0.9,4.6,0.7,4.3C0.5,4.1,0.3,3.8,0.2,3.5C0.1,3.2,0,2.9,0,2.5c0-0.4,0.1-0.7,0.2-1
    C0.3,1.2,0.5,1,0.7,0.7c0.2-0.2,0.5-0.4,0.8-0.5C1.7,0.1,2.1,0,2.4,0H7.2L7.2,0z M41.2,6.8V4.2c0-0.4-0.1-0.7-0.2-1
    c-0.1-0.3-0.3-0.6-0.5-0.8c-0.2-0.2-0.5-0.4-0.8-0.5c-0.3-0.1-0.6-0.2-1-0.2c-0.4,0-0.7,0.1-1,0.2c-0.3,0.1-0.6,0.3-0.8,0.5
    c-0.2,0.2-0.4,0.5-0.5,0.8c-0.1,0.3-0.2,0.6-0.2,1c0,0.4,0.1,0.7,0.2,1c0.1,0.3,0.3,0.6,0.5,0.8c0.2,0.2,0.5,0.4,0.8,0.5
    c0.3,0.1,0.6,0.2,1,0.2H41.2z"/>
  <path fill-rule="evenodd" clip-rule="evenodd" fill="#2491D0" d="M54.7,0l14.3,0h0.9c0.6,0,1.1,0.1,1.7,0.3c0.5,0.2,1,0.5,1.4,0.9
    c0.4,0.4,0.7,0.8,0.9,1.3c0.2,0.5,0.3,1.1,0.3,1.7v4.3l-1.7,0l-14.3,0h-0.9c-0.6,0-1.1-0.1-1.7-0.3c-0.5-0.2-1-0.5-1.4-0.9
    c-0.4-0.4-0.7-0.8-0.9-1.3C53.1,5.4,53,4.9,53,4.3V0H54.7z"/>
  <path fill-rule="evenodd" clip-rule="evenodd" fill="#FFFFFF" d="M56.9,1.1c0.1,0,0.1,0,0.2,0.1c0,0,0.1,0.1,0.1,0.2V2
    c0,0.1,0,0.1-0.1,0.2c0,0-0.1,0.1-0.2,0.1h-0.7c-0.1,0-0.1,0-0.2-0.1C56,2.1,56,2,56,2V1.3c0-0.1,0-0.1,0.1-0.2
    c0,0,0.1-0.1,0.2-0.1H56.9L56.9,1.1z M57.1,6.6c0,0.1,0,0.1-0.1,0.2c0,0-0.1,0.1-0.2,0.1h-0.6c-0.1,0-0.1,0-0.2-0.1
    c0,0-0.1-0.1-0.1-0.2V2.9c0-0.1,0-0.1,0.1-0.2c0,0,0.1-0.1,0.2-0.1h0.6c0.1,0,0.1,0,0.2,0.1c0,0,0.1,0.1,0.1,0.2V6.6L57.1,6.6z
     M62.1,6.6c0,0.1,0,0.1-0.1,0.2c0,0-0.1,0.1-0.2,0.1h-0.6c-0.1,0-0.1,0-0.2-0.1c0,0-0.1-0.1-0.1-0.2v-2c0-0.3-0.1-0.6-0.2-0.8
    c-0.2-0.2-0.4-0.3-0.7-0.3c-0.3,0-0.5,0.1-0.7,0.3c-0.2,0.2-0.2,0.5-0.2,0.8v2c0,0.1,0,0.1-0.1,0.2c0,0-0.1,0.1-0.2,0.1h-0.6
    c-0.1,0-0.1,0-0.2-0.1c0,0-0.1-0.1-0.1-0.2V2.9c0-0.1,0-0.1,0.1-0.2c0,0,0.1-0.1,0.2-0.1H59c0.1,0,0.1,0,0.2,0.1
    c0,0,0.1,0.1,0.1,0.2V3c0.3-0.3,0.7-0.5,1.2-0.5c0.6,0,1,0.2,1.3,0.5c0.3,0.3,0.4,0.8,0.4,1.4V6.6L62.1,6.6z M65.7,2.6
    c0.1,0,0.1,0,0.2,0.1c0,0,0.1,0.1,0.1,0.2v0.5c0,0.1,0,0.1-0.1,0.2c0,0-0.1,0.1-0.2,0.1h-1.1v3c0,0.1,0,0.1-0.1,0.2
    c0,0-0.1,0.1-0.2,0.1h-0.6c-0.1,0-0.1,0-0.2-0.1c0,0-0.1-0.1-0.1-0.2v-3H63c-0.1,0-0.1,0-0.2-0.1c0,0-0.1-0.1-0.1-0.2V2.9
    c0-0.1,0-0.1,0.1-0.2c0,0,0.1-0.1,0.2-0.1h0.5V2.3c0-0.5,0.1-0.9,0.4-1.1c0.3-0.2,0.7-0.3,1.2-0.3h0.7c0.1,0,0.1,0,0.2,0.1
    C66,1,66,1,66,1.1v0.5c0,0.1,0,0.1-0.1,0.2c0,0-0.1,0.1-0.2,0.1h-0.6c-0.2,0-0.4,0-0.5,0.1c-0.1,0.1-0.2,0.2-0.2,0.4v0.3H65.7
    L65.7,2.6z M70.4,4.3c0,0.1,0,0.3,0,0.4c0,0.1,0,0.3,0,0.4c0,0.3-0.1,0.6-0.3,0.9c-0.2,0.3-0.4,0.5-0.7,0.6c-0.3,0.2-0.6,0.2-1,0.2
    c-0.4,0-0.7-0.1-1-0.2c-0.3-0.2-0.5-0.4-0.7-0.6c-0.2-0.3-0.3-0.6-0.3-0.9c0-0.1,0-0.2,0-0.4c0-0.2,0-0.3,0-0.4
    c0-0.3,0.1-0.6,0.3-0.9c0.2-0.3,0.4-0.5,0.7-0.6c0.3-0.2,0.6-0.2,1-0.2c0.4,0,0.7,0.1,1,0.2c0.3,0.2,0.5,0.4,0.7,0.6
    C70.3,3.7,70.4,4,70.4,4.3L70.4,4.3z M68.4,3.5c-0.3,0-0.5,0.1-0.7,0.2c-0.2,0.1-0.3,0.3-0.3,0.7c0,0.1,0,0.2,0,0.4
    c0,0.2,0,0.3,0,0.4c0,0.3,0.1,0.5,0.3,0.7c0.2,0.1,0.4,0.2,0.7,0.2c0.3,0,0.5-0.1,0.7-0.2c0.2-0.1,0.3-0.3,0.3-0.7
    c0-0.1,0-0.2,0-0.4c0-0.1,0-0.3,0-0.4c0-0.3-0.1-0.5-0.3-0.7C68.8,3.6,68.6,3.5,68.4,3.5z"/>
</g>
</svg>
