<?xml version="1.0" encoding="utf-8"?>
<!-- Generator: Adobe Illustrator 18.1.1, SVG Export Plug-In . SVG Version: 6.00 Build 0)  -->
<svg version="1.1" id="Layer_1" xmlns="http://www.w3.org/2000/svg" xmlns:xlink="http://www.w3.org/1999/xlink" x="0px" y="0px"
	 width="28px" height="28px" viewBox="-145 112 28 28" enable-background="new -145 112 28 28" xml:space="preserve">
<path d="M-120.5,128.3c0.2-0.8,0.3-1.5,0.3-2.3c0-5.9-4.8-10.5-10.5-10.5c-0.6,0-1.2,0-1.8,0.2c-0.9-0.6-2.1-0.9-3.3-0.9
	c-3.5,0-6.2,2.7-6.2,6.2c0,1.2,0.3,2.3,0.9,3.2c-0.3,0.5-0.5,1.2-0.5,2c0,5.9,4.8,10.5,10.5,10.5c0.6,0,1.4,0,2-0.2
	c0.9,0.5,1.8,0.8,2.9,0.8c3.5,0,6.2-2.7,6.2-6.2C-119.9,130.1-120.2,129.1-120.5,128.3z M-125.5,131c-0.5,0.8-1.2,1.2-2.1,1.7
	c-0.9,0.5-2.1,0.6-3.3,0.6c-1.5,0-2.9-0.3-3.8-0.8c-0.8-0.5-1.4-0.9-1.8-1.5c-0.5-0.6-0.6-1.4-0.6-2c0-0.5,0.2-0.8,0.5-1.1
	c0.3-0.3,0.6-0.5,1.1-0.5c0.3,0,0.8,0.2,0.9,0.3c0.3,0.2,0.5,0.5,0.6,0.9c0.2,0.5,0.5,0.8,0.6,1.1s0.5,0.5,0.9,0.8
	c0.5,0.2,0.9,0.3,1.5,0.3c0.9,0,1.7-0.2,2.1-0.6c0.6-0.3,0.8-0.8,0.8-1.4c0-0.5-0.2-0.8-0.5-1.1c-0.3-0.3-0.6-0.5-1.2-0.6
	c-0.5-0.2-1.2-0.3-2-0.5c-1.1-0.3-2.1-0.5-2.7-0.9c-0.8-0.3-1.4-0.8-1.8-1.4c-0.5-0.6-0.8-1.4-0.8-2.1s0.3-1.5,0.8-2.1
	c0.5-0.6,1.2-1.1,2.1-1.4s2-0.5,3.2-0.5c0.9,0,1.8,0.2,2.4,0.3c0.8,0.2,1.4,0.5,1.8,0.9c0.5,0.3,0.8,0.8,1.1,1.2
	c0.2,0.5,0.3,0.8,0.3,1.2s-0.2,0.8-0.5,1.1c-0.3,0.3-0.6,0.5-1.1,0.5s-0.8-0.2-0.9-0.3c-0.2-0.2-0.5-0.5-0.6-0.9
	c-0.3-0.5-0.6-0.9-0.9-1.2s-0.9-0.5-1.8-0.5c-0.8,0-1.4,0.2-1.8,0.5s-0.6,0.6-0.6,1.1c0,0.3,0,0.5,0.2,0.6s0.3,0.3,0.6,0.5
	c0.3,0.2,0.6,0.3,0.9,0.3c0.3,0.2,0.8,0.2,1.5,0.3c0.9,0.2,1.7,0.5,2.4,0.6c0.8,0.2,1.4,0.5,1.8,0.9c0.5,0.3,0.9,0.8,1.2,1.2
	c0.3,0.5,0.5,1.2,0.5,1.8C-124.7,129.7-125,130.4-125.5,131z"/>
</svg>
