<!-- Generator: Adobe Illustrator 18.1.1, SVG Export Plug-In  -->
<svg version="1.1"
   xmlns="http://www.w3.org/2000/svg" xmlns:xlink="http://www.w3.org/1999/xlink" xmlns:a="http://ns.adobe.com/AdobeSVGViewerExtensions/3.0/"
   x="0px" y="0px" width="40px" height="40px" viewBox="0 0 40 40" enable-background="new 0 0 40 40" xml:space="preserve">
<defs>
</defs>
<g>
  <rect y="0" fill="#FF8A65" width="40" height="40"/>
</g>
<g>
  <g>
    <path fill-rule="evenodd" clip-rule="evenodd" fill="#FFFFFF" d="M16,24.4c0.3,0.4,0.1,0.6-0.2,1c-0.2,0.4-0.5,0.1-0.8,0
      c-0.3-0.1-0.4-0.7-0.5-1.2c0,0,0,0,0.1-0.3c0-0.3,0.2,0,0.6-0.1C15.6,23.8,15.6,24,16,24.4z"/>
    <path fill-rule="evenodd" clip-rule="evenodd" fill="#FFFFFF" d="M12.4,24.1c0,0-1-1-1.2-1.7c-0.2-0.7-0.1-1.2,0.2-2
      c0.4-0.7,1.8-0.5,2.8-0.3c1,0.2,2.1,1.7,2,2.2c-0.1,0.6-0.5,0.6-1,0.6c-0.5,0-0.8,0.3-1.3,0.8C13.6,24.2,12.8,24.3,12.4,24.1z"/>
    <path fill-rule="evenodd" clip-rule="evenodd" fill="#FFFFFF" d="M18.1,27.7c0.4,0.7,1.4,1.7,0.7,1.8c-0.7,0.1-3-0.9-3.7-1.5
      c-0.7-0.5-1.6-0.8-2-1.5c-0.4-0.7-0.3-1.2-0.3-1.2c0.5-0.2,1-0.2,1.8,0.2c0.7,0.4,1.4,0.5,1.8,0.5C16.7,26,17.8,27,18.1,27.7z"/>
    <path fill-rule="evenodd" clip-rule="evenodd" fill="#FFFFFF" d="M19.3,24.3c0.5,1.1,1.6,3.7,1.1,4c-0.5,0.3-1.6-0.4-2.1-1
      c-0.5-0.6-1.5-2.2-1.5-2.2s-0.2-0.7-0.1-1.4c0.1-0.7-0.1-1.4,0.5-1.5C17.7,22.1,18.7,23.2,19.3,24.3z"/>
    <path fill-rule="evenodd" clip-rule="evenodd" fill="#FFFFFF" d="M29.2,12.4c-0.2,0.2-0.7-0.3-0.9-0.6c-0.1-0.3-0.5-1-1-1.7
      c-0.5-0.7-1.7,0.1-1.8,0.7c-0.1,0.6-0.1,1.2,0.4,1.2c0.4,0,0.6,0.7,0.6,0.8c0-0.1-0.4-0.6-0.8-0.6c-0.4,0-0.2,0.4-0.5,0.7
      c-0.2,0.2-0.6,0.6-0.8,0.8c-0.1-0.1-0.2-0.2-0.3-0.3c-0.4-0.4-1,0.2-1.2,0.8c-0.2,0.6-0.5,1.5-1.1,1.7c-0.5,0.2-1.2,0-3.2,0
      c-2,0-3.9,1-5.4,1.9c-1.5,0.9-2,2.1-2.3,2.4c-0.3,0.4-0.6,1-0.5,1.4c0,0,0,1.4,1.4,4.1c1.4,2.7,4.9,3.7,6.5,4.2
      c1.5,0.4,2.8-0.2,3.3-1c0.5-0.8,2-3.6,2.4-4.9c0.4-1.3,0.7-4.5,1-5.2c0.3-0.6,1.4-1.4,1.6-1.7c0.3-0.3,0.4-1.3,0.2-1.9
      c0-0.1,0-0.1-0.1-0.2c0.2-0.3,0.3-0.6,0.5-0.8c0.5-0.5,0.4-0.1,0.9-0.1c0.5,0,1.4-0.5,1.6-1.2C29.8,12.5,29.3,12.2,29.2,12.4z
       M21,29.1c0,0.7-0.7,0.8-1,0.9c-0.3,0.1-1.3,0.2-1.8,0c-0.5-0.2-1.6-0.6-2.6-1c-1-0.4-1.8-1.1-2.5-1.8c-0.7-0.7-2.2-3.6-2.5-4.5
      c-0.3-0.8-0.1-1.1-0.1-1.4c0.1-0.4,0.2-0.7,0.2-0.7s0.9-1.4,1.8-1.5c0.9-0.2,1.6,0.2,2.3,0.5c0.7,0.3,1.2,0.6,2.1,1.2
      c0.9,0.5,1.4,1.2,2.3,2.3c0.9,1.1,1.1,2.4,1.4,3.5C21,27.5,21,28.4,21,29.1z"/>
    <path fill-rule="evenodd" clip-rule="evenodd" fill="#FFFFFF" d="M24.3,13.8C24.3,13.8,24.2,13.8,24.3,13.8
      C24.2,13.8,24.3,13.8,24.3,13.8z"/>
    <path fill-rule="evenodd" clip-rule="evenodd" fill="#FFFFFF" d="M25.3,14.4C25.3,14.4,25.3,14.4,25.3,14.4
      C25.3,14.4,25.3,14.4,25.3,14.4z"/>
    <path fill-rule="evenodd" clip-rule="evenodd" fill="#FFFFFF" d="M23.5,13.7c0.2-0.1,0.5,0.1,0.9,0.4c0.4,0.3,1,0.3,1.4,0.6
      c0.4,0.3,0.9,0.8,0.9,1.2c0,0.4-0.4,0.6-0.5,0.4c-0.1-0.2-0.5-0.9-0.8-1.1c-0.3-0.2-1.2-0.4-1.2-0.1c-0.1,0.3-0.4,1-0.6,1.1
      c-0.2,0.1-0.8-0.2-0.8-0.5c0-0.2,0-1.1,0.1-1.3C23.1,14.1,23.5,13.7,23.5,13.7z"/>
    <path fill-rule="evenodd" clip-rule="evenodd" fill="#FFFFFF" d="M20.6,24.5c0,0-0.1-0.1,0.3,1c0.5,1.1,0.8,2.3,0.7,2.5
      c-0.1,0.2,0.3-0.2,0.5-1c0.3-0.8,1.4-3.5,1.5-4.7c0.1-1.2,0.2-2.8,0.2-3c0-0.2-0.2-1.3-0.5,0.6c-0.3,1.9-0.9,2.7-1.5,3.6
      C21.2,24.3,20.6,24.5,20.6,24.5z"/>
    <path fill-rule="evenodd" clip-rule="evenodd" fill="#FFFFFF" d="M12.6,18.9c0,0,1.8-0.2,2.5,0c0.7,0.2,1.1,0,2-0.6
      c0.9-0.6,2.3-1,3.2-1.1c0.9,0,1.8-0.4,2-0.6c0.2-0.2-0.3,0.2-1.4-0.1c-1.1-0.3-4.6,0.1-6.1,1.1C13.6,18.4,12.6,18.9,12.6,18.9z"/>
    <path fill-rule="evenodd" clip-rule="evenodd" fill="#FFFFFF" d="M16.3,22.3c-0.1,0.6-0.5,0.6-1,0.6c-0.5,0-0.8,0.3-1.3,0.8
      c-0.4,0.5-1.3,0.6-1.6,0.4c0,0-1-1-1.2-1.7c-0.2-0.7-0.1-1.2,0.2-2c0.4-0.7,1.8-0.5,2.8-0.3C15.3,20.4,16.4,21.8,16.3,22.3z"/>
    <path fill-rule="evenodd" clip-rule="evenodd" fill="#FFFFFF" d="M20.4,28.3c-0.5,0.3-1.6-0.4-2.1-1c-0.5-0.6-1.5-2.2-1.5-2.2
      s-0.2-0.7-0.1-1.4c0.1-0.7-0.1-1.4,0.5-1.5c0.5-0.1,1.6,1,2.1,2.1C19.8,25.4,20.8,28,20.4,28.3z"/>
    <path fill-rule="evenodd" clip-rule="evenodd" fill="#FFFFFF" d="M15.8,25.3c-0.2,0.4-0.5,0.1-0.8,0c-0.3-0.1-0.4-0.7-0.5-1.2
      c0,0,0,0,0.1-0.3c0-0.3,0.2,0,0.6-0.1c0.4,0,0.4,0.2,0.8,0.5C16.3,24.7,16.1,24.9,15.8,25.3z"/>
    <path fill-rule="evenodd" clip-rule="evenodd" fill="#FFFFFF" d="M18.8,29.5c-0.7,0.1-3-0.9-3.7-1.5c-0.7-0.5-1.6-0.8-2-1.5
      c-0.4-0.7-0.3-1.2-0.3-1.2c0.5-0.2,1-0.2,1.8,0.2c0.7,0.4,1.4,0.5,1.8,0.5c0.4,0,1.5,1.1,1.8,1.8C18.5,28.4,19.5,29.4,18.8,29.5z"
      />
  </g>
</g>
</svg>
