<!-- Generator: Adobe Illustrator 18.1.1, SVG Export Plug-In  -->
<svg version="1.1"
   xmlns="http://www.w3.org/2000/svg" xmlns:xlink="http://www.w3.org/1999/xlink" xmlns:a="http://ns.adobe.com/AdobeSVGViewerExtensions/3.0/"
   x="0px" y="0px" width="40px" height="40px" viewBox="0 0 40 40" enable-background="new 0 0 40 40" xml:space="preserve">
<defs>
</defs>
<g>
  <rect y="0" fill="#F1F1F2" width="40" height="40"/>
</g>
<g>
  <path fill="#A6A8AB" d="M27.5,18c-0.1,0-0.2,0-0.3,0l-1.1,0.3l-1.2-2.9c-0.3-0.8-1.3-1.5-2.2-1.5h-11c-0.9,0-1.9,0.7-2.2,1.5
    l-1.2,2.9L7.2,18c-0.1,0-0.2,0-0.3,0c-0.5,0-0.9,0.4-0.9,1v0.7c0,0.7,0.5,1.2,1.2,1.2h0.1l-0.2,0.5c-0.3,0.8-0.6,2-0.6,2.8v5.7
    c0,0.7,0.5,1.2,1.2,1.2h1.6c0.7,0,1.2-0.5,1.2-1.2v-1.4h13.4v1.4c0,0.7,0.5,1.2,1.2,1.2h1.6c0.7,0,1.2-0.5,1.2-1.2v-5.7
    c0-0.8-0.3-2.1-0.6-2.8l-0.2-0.5h0.1c0.7,0,1.2-0.5,1.2-1.2v-0.7C28.4,18.4,28.1,18,27.5,18z M9.2,20.2l1.8-4.3
    c0.2-0.5,0.8-0.9,1.3-0.9h9.8c0.5,0,1.1,0.4,1.3,0.9l1.8,4.3c0.2,0.5-0.1,0.9-0.6,0.9H9.8C9.3,21,9,20.6,9.2,20.2z M13.2,25.6
    c0,0.3-0.2,0.5-0.5,0.5H9.3c-0.3,0-0.5-0.2-0.5-0.5V24c0-0.3,0.2-0.5,0.5-0.5h3.4c0.3,0,0.5,0.2,0.5,0.5V25.6z M25.6,25.6
    c0,0.3-0.2,0.5-0.5,0.5h-3.4c-0.3,0-0.5-0.2-0.5-0.5V24c0-0.3,0.2-0.5,0.5-0.5h3.4c0.3,0,0.5,0.2,0.5,0.5V25.6z"/>
  <g>
    <path fill="#A6A8AB" d="M34.9,9h-5.7c-0.8,0-1.5,0.7-1.5,1.5v5.7c0,0.8,0.7,1.5,1.5,1.5h2.3v12.7c0,0.3,0.2,0.6,0.6,0.6
      s0.6-0.2,0.6-0.6V17.6h2.3c0.8,0,1.5-0.7,1.5-1.5v-5.7C36.3,9.7,35.7,9,34.9,9z M33.6,13.7c-0.3,0.3-0.8,0.4-1.4,0.4h-0.8
      c-0.1,0-0.2,0.1-0.2,0.2v1.4c0,0.1-0.1,0.3-0.3,0.3h-0.6c-0.2,0-0.3-0.1-0.3-0.3V11c0-0.2,0.1-0.3,0.3-0.3h1.6
      c1,0,1.4,0.2,1.7,0.4c0.3,0.3,0.5,0.7,0.5,1.3C34.1,13,33.9,13.4,33.6,13.7z"/>
    <path fill="#A6A8AB" d="M32.7,11.8c-0.2-0.1-0.4-0.2-0.8-0.2h-0.6c-0.1,0-0.2,0.1-0.2,0.2V13c0,0.1,0.1,0.2,0.2,0.2h0.3
      c0.1,0,0.3,0,0.4,0c0.1,0,0.5-0.1,0.6-0.2c0.1-0.1,0.2-0.3,0.2-0.6C32.9,12.1,32.8,11.9,32.7,11.8z"/>
  </g>
</g>
</svg>
