<!-- Generator: Adobe Illustrator 18.1.1, SVG Export Plug-In  -->
<svg version="1.1"
   xmlns="http://www.w3.org/2000/svg" xmlns:xlink="http://www.w3.org/1999/xlink" xmlns:a="http://ns.adobe.com/AdobeSVGViewerExtensions/3.0/"
   x="0px" y="0px" width="40px" height="40px" viewBox="0 0 40 40" enable-background="new 0 0 40 40" xml:space="preserve">
<defs>
</defs>
<g>
  <rect y="0" fill="#F1F1F2" width="40" height="40"/>
</g>
<g>
  <path fill="#A6A8AB" d="M25.6,20.6c-0.1,0-0.2,0-0.3,0l-1,0.3l-1-2.5c-0.3-0.7-1.1-1.3-1.9-1.3h-9.5c-0.8,0-1.6,0.6-1.9,1.3l-1,2.5
    l-1-0.3c-0.1,0-0.2,0-0.3,0c-0.5,0-0.8,0.4-0.8,0.8V22c0,0.6,0.5,1,1,1h0.1L8,23.4c-0.3,0.7-0.5,1.8-0.5,2.5v4.9c0,0.6,0.5,1,1,1
    h1.3c0.6,0,1-0.5,1-1v-1.2h11.6v1.2c0,0.6,0.5,1,1,1h1.3c0.6,0,1-0.5,1-1v-4.9c0-0.7-0.2-1.8-0.5-2.5L25.2,23h0.1c0.6,0,1-0.5,1-1
    v-0.6C26.4,20.9,26,20.6,25.6,20.6z M9.8,22.5l1.5-3.7c0.2-0.4,0.7-0.8,1.1-0.8h8.5c0.5,0,1,0.3,1.1,0.8l1.5,3.7
    c0.2,0.4-0.1,0.8-0.5,0.8H10.3C9.8,23.2,9.6,22.9,9.8,22.5z M13.2,27.2c0,0.2-0.2,0.4-0.4,0.4H9.9c-0.2,0-0.4-0.2-0.4-0.4v-1.4
    c0-0.2,0.2-0.4,0.4-0.4h2.9c0.2,0,0.4,0.2,0.4,0.4L13.2,27.2L13.2,27.2z M23.9,27.2c0,0.2-0.2,0.4-0.4,0.4h-2.9
    c-0.2,0-0.4-0.2-0.4-0.4v-1.4c0-0.2,0.2-0.4,0.4-0.4h2.9c0.2,0,0.4,0.2,0.4,0.4V27.2z"/>
  <path fill="#A6A8AB" d="M31.4,15.8h-1.7L11.6,10c-0.1,0-0.2,0-0.3,0c-0.4,0-0.7,0.2-0.8,0.6l-0.4,1.2c-0.1,0.2,0,0.4,0.1,0.6
    c0.1,0.2,0.3,0.3,0.5,0.4l17.6,5.6v12.7c0,0.5,0.4,0.8,0.8,0.8h2.2c0.5,0,0.8-0.4,0.8-0.8V16.6C32.3,16.2,31.9,15.8,31.4,15.8z
     M12.9,11.5l-0.3,0.9c-0.1,0.2-0.3,0.4-0.5,0.4c-0.1,0-0.1,0-0.2,0c-0.3-0.1-0.4-0.4-0.3-0.6l0.3-0.9c0.1-0.3,0.4-0.4,0.6-0.3
    C12.8,11,13,11.3,12.9,11.5z M15.9,12.5l-0.3,0.9c-0.1,0.2-0.3,0.4-0.5,0.4c-0.1,0-0.1,0-0.2,0c-0.3-0.1-0.4-0.4-0.3-0.6l0.3-0.9
    c0.1-0.3,0.4-0.4,0.6-0.3C15.8,11.9,16,12.2,15.9,12.5z M18.9,13.4l-0.3,0.9c-0.1,0.2-0.3,0.4-0.5,0.4c-0.1,0-0.1,0-0.2,0
    c-0.3-0.1-0.4-0.4-0.3-0.6l0.3-0.9c0.1-0.3,0.4-0.4,0.6-0.3C18.8,12.9,19,13.2,18.9,13.4z M21.9,14.4l-0.3,0.9
    c-0.1,0.2-0.3,0.4-0.5,0.4c-0.1,0-0.1,0-0.2,0c-0.3-0.1-0.4-0.4-0.3-0.6l0.3-0.9c0.1-0.3,0.4-0.4,0.6-0.3
    C21.8,13.8,21.9,14.1,21.9,14.4z M24.8,15.3l-0.3,0.9c-0.1,0.2-0.3,0.4-0.5,0.4c-0.1,0-0.1,0-0.2,0c-0.3-0.1-0.4-0.4-0.3-0.6
    l0.3-0.9c0.1-0.3,0.4-0.4,0.6-0.3C24.8,14.8,24.9,15.1,24.8,15.3z M27.8,16.3l-0.3,0.9c-0.1,0.2-0.3,0.4-0.5,0.4
    c-0.1,0-0.1,0-0.2,0c-0.3-0.1-0.4-0.4-0.3-0.6l0.3-0.9c0.1-0.3,0.4-0.4,0.6-0.3C27.8,15.7,27.9,16,27.8,16.3z"/>
</g>
</svg>
