<!-- Generator: Adobe Illustrator 18.1.1, SVG Export Plug-In  -->
<svg version="1.1"
   xmlns="http://www.w3.org/2000/svg" xmlns:xlink="http://www.w3.org/1999/xlink" xmlns:a="http://ns.adobe.com/AdobeSVGViewerExtensions/3.0/"
   x="0px" y="0px" width="40px" height="40px" viewBox="0 0 40 40" enable-background="new 0 0 40 40" xml:space="preserve">
<defs>
</defs>
<g>
  <rect y="0" fill="#039BE5" width="40" height="40"/>
</g>
<g>
  <g>
    <circle fill-rule="evenodd" clip-rule="evenodd" fill="#FFFFFF" cx="27.2" cy="15.6" r="0.7"/>
    <path fill-rule="evenodd" clip-rule="evenodd" fill="#FFFFFF" d="M19.6,13.9c-1.4-0.2-2.9-0.1-4.3,0.3c0.9,0.5,1.6,0.9,2.3,1.4
      c-1.8,2-2.7,4.6-2.6,7.3c-1.9-0.7-4.1-0.7-6.2-0.1c0.5,0.2,1.1,0.4,1.6,0.7c1.5-0.2,3-0.1,4.4,0.5c0,1.5-0.5,3-1.2,4.3
      c0,0.6,0.1,1.2,0,1.8c1.3-1.7,2.1-3.7,2.2-5.8c3.2,1.4,6.8,1.3,9.8-0.7c3.2-2.2,4.7-5.9,4.3-9.7C26.7,12,22.8,11.9,19.6,13.9
      L19.6,13.9z M16,23.2L16,23.2c-0.2-3.3,1.2-6.5,3.9-8.2c1-0.7,2.1-1.1,3.3-1.3c0,1.4,0.4,2.8,1.2,4c0.8,1.2,1.9,2,3.2,2.6
      c-0.6,1-1.5,1.9-2.5,2.5C22.4,24.5,19,24.6,16,23.2L16,23.2z M28,19.3L28,19.3c-1.2-0.5-2.2-1.2-2.9-2.3c-0.7-1-1-2.2-1-3.5
      c1.6-0.1,3.3,0.2,4.8,1C29.1,16.2,28.7,17.8,28,19.3z"/>
    <path fill-rule="evenodd" clip-rule="evenodd" fill="#FFFFFF" d="M22.5,15.4c-0.1-0.5-0.1-0.9-0.1-1.4c-0.2,0.1-0.4,0.3-0.6,0.4
      c-2.9,2-4.7,5-4.9,8.2C17.5,20.1,19.6,17.4,22.5,15.4C22.5,15.4,22.5,15.4,22.5,15.4z"/>
    <path fill-rule="evenodd" clip-rule="evenodd" fill="#FFFFFF" d="M25.6,20C25.6,20,25.6,20,25.6,20c-2.9,2-6.2,2.9-8.7,2.6
      c3,1,6.5,0.5,9.4-1.5c0.2-0.1,0.4-0.3,0.6-0.4C26.4,20.5,26,20.3,25.6,20z"/>
    <path fill-rule="evenodd" clip-rule="evenodd" fill="#FFFFFF" d="M13,25.2c0.1,0.5,0.2,1.1,0.3,1.6c0.7-0.9,1.2-1.9,1.4-2.8
      c-0.9-0.1-2,0-3.1,0.3C12.1,24.6,12.6,24.9,13,25.2z"/>
  </g>
</g>
</svg>
