<!-- Generator: Adobe Illustrator 18.1.1, SVG Export Plug-In  -->
<svg version="1.1"
   xmlns="http://www.w3.org/2000/svg" xmlns:xlink="http://www.w3.org/1999/xlink" xmlns:a="http://ns.adobe.com/AdobeSVGViewerExtensions/3.0/"
   x="0px" y="0px" width="40px" height="40px" viewBox="0 0 40 40" enable-background="new 0 0 40 40" xml:space="preserve">
<defs>
</defs>
<g>
  <rect y="0" fill="#F1F1F2" width="40" height="40"/>
</g>
<g>
  <g id="XMLID_1_">
    <g>
      <path fill="#A6A8AB" d="M31,18.1v8.6h0h-1.9C28.9,28,27.8,29,26.5,29s-2.4-1-2.6-2.2h-1.1H22h-6.4C15.4,28,14.3,29,13,29
        c-1.3,0-2.4-1-2.6-2.2H9.8c-0.7,0-1.3-0.6-1.3-1.3v-3.2v-0.8v-9c0-0.8,0.6-1.5,1.5-1.5h11.4c0.8,0,1.4,0.6,1.4,1.5v0.8h3.7
        c0.3,0,0.7,0.2,0.9,0.4l3.3,3.6C30.9,17.5,31,17.8,31,18.1z M30.2,26v-3.4h-1.9c-0.2,0-0.4-0.1-0.4-0.4c0-0.2,0.2-0.4,0.4-0.4
        h1.9V20h-5.7c-0.3,0-0.6-0.3-0.6-0.6v-4c0-0.3,0.3-0.6,0.6-0.6h2.9l-0.5-0.6c-0.1-0.1-0.3-0.1-0.4-0.1h-3.7v7.5v0.8V26h1.1
        c0.2-1.2,1.1-2.1,2.4-2.2h0c0,0,0.1,0,0.1,0c0,0,0.1,0,0.1,0s0.1,0,0.1,0c0,0,0.1,0,0.1,0c0,0,0,0,0,0c1.2,0.1,2.2,1,2.4,2.2
        H30.2z M30.2,19.2v-1.1c0-0.1,0-0.3-0.2-0.3L28,15.5h-3.4v3.7H30.2z M28.3,26.4c0-1.1-0.8-1.9-1.9-1.9c-1.1,0-1.9,0.8-1.9,1.9
        s0.8,1.9,1.9,1.9C27.5,28.3,28.3,27.4,28.3,26.4z M22,26v-3.7h-9H9.2v3.2c0,0.3,0.3,0.6,0.6,0.6h0.6c0.2-1.2,1.1-2.1,2.4-2.2h0
        c0,0,0.1,0,0.1,0c0.1,0,0.1,0,0.1,0c0,0,0.1,0,0.1,0s0.1,0,0.1,0c0,0,0,0,0,0c1.2,0.1,2.2,1,2.4,2.2H22z M22,21.5v-8.3v-0.8
        c0-0.4-0.3-0.7-0.7-0.7H9.9c-0.4,0-0.7,0.3-0.7,0.7v9H22z M14.8,26.4c0-1.1-0.8-1.9-1.9-1.9c-1,0-1.9,0.8-1.9,1.9
        s0.8,1.9,1.9,1.9C14,28.3,14.8,27.4,14.8,26.4z"/>
      <path fill="#A6A8AB" d="M30.2,22.6V26h-1.2c-0.2-1.2-1.1-2.1-2.4-2.2c0,0,0,0,0,0c0,0-0.1,0-0.1,0c0,0-0.1,0-0.1,0s-0.1,0-0.1,0
        c0,0-0.1,0-0.1,0h0c-1.2,0.1-2.2,1-2.4,2.2h-1.1v-3.7v-0.8V14h3.7c0.1,0,0.3,0.1,0.4,0.1l0.5,0.6h-2.9c-0.3,0-0.6,0.3-0.6,0.6v4
        c0,0.3,0.3,0.6,0.6,0.6h5.7v1.9h-1.9c-0.2,0-0.4,0.1-0.4,0.4c0,0.2,0.2,0.4,0.4,0.4H30.2z"/>
      <path fill="#A6A8AB" d="M26.5,25.6c0.4,0,0.8,0.3,0.8,0.8s-0.3,0.7-0.8,0.7s-0.8-0.3-0.8-0.7S26,25.6,26.5,25.6z"/>
      <path fill="#A6A8AB" d="M22,22.3V26h-6.4c-0.2-1.2-1.1-2.1-2.4-2.2c0,0,0,0,0,0c0,0-0.1,0-0.1,0s-0.1,0-0.1,0v-1.5H22z"/>
      <path fill="#A6A8AB" d="M22,13.3v8.3H9.2v-9c0-0.4,0.3-0.7,0.7-0.7h11.3c0.4,0,0.7,0.3,0.7,0.7V13.3z"/>
      <path fill="#A6A8AB" d="M13,25.6c0.4,0,0.8,0.3,0.8,0.8s-0.3,0.7-0.8,0.7c-0.4,0-0.7-0.3-0.7-0.7S12.5,25.6,13,25.6z"/>
      <path fill="#A6A8AB" d="M13,22.3v1.5c0,0-0.1,0-0.1,0c0,0-0.1,0-0.1,0h0c-1.2,0.1-2.2,1-2.4,2.2H9.8c-0.3,0-0.6-0.3-0.6-0.6v-3.2
        H13z"/>
    </g>
    <g>
    </g>
  </g>
</g>
</svg>
