<!-- Generator: Adobe Illustrator 18.1.1, SVG Export Plug-In  -->
<svg version="1.1"
   xmlns="http://www.w3.org/2000/svg" xmlns:xlink="http://www.w3.org/1999/xlink" xmlns:a="http://ns.adobe.com/AdobeSVGViewerExtensions/3.0/"
   x="0px" y="0px" width="40px" height="40px" viewBox="0 0 40 40" enable-background="new 0 0 40 40" xml:space="preserve">
<defs>
</defs>
<g>
  <rect y="0" fill="#66BB6A" width="40" height="40"/>
</g>
<path fill-rule="evenodd" clip-rule="evenodd" fill="#FFFFFF" d="M23.6,13.6c-1,0-2.1,0.3-3.4,0.8c-0.2,0.1-0.4,0.2-0.6,0.3
  c-1-3.3,1.2-3.6,1.1-4c0-0.6-1.5-0.5-1.7,0.2c-0.1,0.3-0.2,0.6-0.2,1c-0.2-0.5-0.5-0.9-0.9-1.2c-0.3-0.2-0.7-0.4-1.1-0.5
  c-0.4-0.1-0.8-0.2-1.2-0.2c-0.4-0.1-0.7-0.1-1-0.2c-0.3-0.1-0.5-0.2-0.6-0.5c0,0,0,0-0.1,0c0,0,0,0,0,0c0,0,0,0,0,0
  c-0.1,0.5-0.1,0.9-0.1,1.2c0,1.1,0.4,1.7,1.2,2.2c0.3,0.2,0.7,0.3,1.1,0.4c0.4,0.1,0.8,0.1,1.2,0.1c0.8,0,1.4,0.1,1.6,0.4
  c0.1,0.4,0.2,0.8,0.2,1.2c-0.5,0.1-1,0.1-1.4-0.3c-0.4-0.3-0.8-0.5-1.2-0.6c-0.4-0.1-0.8-0.2-1.1-0.2c-0.5,0-0.9,0.1-1.3,0.2
  c-0.3,0.1-0.5,0.2-0.5,0.2C11.7,15,11,16.9,11,18.9c0,4.2,3.2,9.6,5.9,10c0.2,0,0.4,0,0.6,0c0.7,0,1.5-0.2,2.1-0.3
  c0.1,0,0.2,0,0.3,0c0.4,0,0.8,0.1,1.1,0.2c0.1,0,0.2,0.1,0.3,0.1C29.3,30.6,31.4,13.6,23.6,13.6z"/>
</svg>
