<!-- Generator: Adobe Illustrator 18.1.1, SVG Export Plug-In  -->
<svg version="1.1"
   xmlns="http://www.w3.org/2000/svg" xmlns:xlink="http://www.w3.org/1999/xlink" xmlns:a="http://ns.adobe.com/AdobeSVGViewerExtensions/3.0/"
   x="0px" y="0px" width="40px" height="40px" viewBox="0 0 40 40" enable-background="new 0 0 40 40" xml:space="preserve">
<defs>
</defs>
<g>
  <rect y="0" fill="#9575CD" width="40" height="40"/>
</g>
<g>
  <path fill-rule="evenodd" clip-rule="evenodd" fill="#FFFFFF" d="M18.6,13.8L18.6,13.8L18.6,13.8L18.6,13.8L18.6,13.8L18.6,13.8
    h3.6h0h0h0h0h0.1c0.1,0,0.3-0.1,0.3-0.2c0-0.1-0.1-0.2-0.3-0.2h-0.1h0h0h0h0h-3.5h0h0h0h0h-0.1c-0.1,0-0.3,0.1-0.3,0.2
    C18.3,13.7,18.5,13.8,18.6,13.8z"/>
  <path fill-rule="evenodd" clip-rule="evenodd" fill="#FFFFFF" d="M21.9,12.9c0.2-1,1.2-2,0.4-2.3c-0.8-0.3-2.5-0.9-2.9-0.5
    c-0.3,0.2,0.4,1.1,0.1,1.4c-0.2,0.2-1.3,0-1.3,0s0.4,0.8,0.6,1.4H21.9z"/>
  <path fill-rule="evenodd" clip-rule="evenodd" fill="#FFFFFF" d="M22.7,14.1c-0.1,0-0.1,0-0.2,0l0,0c0,0-0.1,0-0.1,0h-3.9
    c0,0-0.1,0-0.1,0l0,0c-0.1,0-0.1,0-0.2,0c-2.8,2.6-4.3,6.6-4.3,9c0,3.1,3.1,5.6,6.5,5.6h0.1c3.4,0,6.5-2.5,6.5-5.6
    C27,20.7,25.5,16.8,22.7,14.1z M22.8,23c-0.3,0.5-0.8,0.7-1.1,0.8c0,0-0.1,0-0.1,0l0.3,0.9c0,0.1,0,0.2-0.1,0.2l-0.5,0.2
    c-0.1,0-0.2,0-0.2-0.1l-0.3-1c0,0-0.1,0-0.1,0c-0.3,0.1-0.9,0.2-1.4,0c-0.7-0.3-0.9-1.2-0.9-1.3c0-0.1,0-0.2,0.1-0.2c0,0,0,0,0.1,0
    c0.3-0.1,0.9-0.2,1.4,0c0.2,0.1,0.3,0.2,0.5,0.4l-0.3-1c0,0,0,0,0,0c-0.3,0.1-0.9,0.2-1.4,0c-0.7-0.3-0.9-1.2-0.9-1.3
    c0-0.1,0-0.2,0.1-0.2c0,0,0.1,0,0.1,0c0.3-0.1,0.9-0.2,1.4,0c0.1,0.1,0.3,0.2,0.4,0.3l-0.1-0.5c-0.2-0.1-0.8-0.5-1-1.1
    c-0.2-0.7,0.3-1.5,0.3-1.5c0-0.1,0.1-0.1,0.2-0.1c0,0,0.9,0.4,1.1,1.1c0.2,0.6-0.1,1.2-0.2,1.5l0.2,0.5c0-0.2,0.1-0.3,0.1-0.5
    c0.3-0.5,0.8-0.7,1.1-0.8c0.1,0,0.1,0,0.1,0c0.1,0,0.2,0,0.2,0.1c0,0,0.4,0.9,0,1.6c-0.3,0.5-0.8,0.7-1.1,0.8c0,0,0,0,0,0l0.4,1
    c0-0.2,0.1-0.4,0.2-0.6c0.3-0.5,0.8-0.7,1.1-0.8c0.1,0,0.1,0,0.1,0c0.1,0,0.2,0,0.2,0.1C22.8,21.5,23.1,22.3,22.8,23z"/>
</g>
</svg>
