<!-- Generator: Adobe Illustrator 18.1.1, SVG Export Plug-In  -->
<svg version="1.1"
   xmlns="http://www.w3.org/2000/svg" xmlns:xlink="http://www.w3.org/1999/xlink" xmlns:a="http://ns.adobe.com/AdobeSVGViewerExtensions/3.0/"
   x="0px" y="0px" width="40px" height="40px" viewBox="0 0 40 40" enable-background="new 0 0 40 40" xml:space="preserve">
<defs>
</defs>
<g>
  <rect y="0" fill="#FAAF40" width="40" height="40"/>
</g>
<g>
  <path fill="#FFFFFF" d="M24.1,15.9L21.6,11V9.9h0.1c0.2,0,0.4-0.2,0.4-0.4V7.8c0-0.2-0.2-0.4-0.4-0.4h-5.9c-0.2,0-0.4,0.2-0.4,0.4
    v1.6c0,0.2,0.2,0.4,0.4,0.4H16V11l-2.5,4.9c-0.3,0.6-0.5,1.6-0.5,2.2v13.4c0,0.8,0.7,1.5,1.5,1.5h8.6c0.8,0,1.5-0.7,1.5-1.5V18.1
    C24.6,17.5,24.4,16.5,24.1,15.9L24.1,15.9z M16.3,8.3h5.1v0.8h-5.1L16.3,8.3L16.3,8.3z M16.8,11.3c0-0.1,0-0.1,0-0.2V9.9h4v1.2
    c0,0.1,0,0.1,0,0.2l1.6,3.1c-0.3,0.1-0.5,0.2-0.7,0.4c-0.2,0.2-0.4,0.3-0.8,0.3c-0.4,0-0.6-0.1-0.8-0.3c-0.3-0.2-0.6-0.5-1.3-0.5
    c-0.7,0-1,0.3-1.3,0.5c-0.2,0.2-0.4,0.3-0.8,0.3c-0.4,0-0.6-0.1-0.8-0.3c-0.2-0.1-0.4-0.3-0.7-0.4L16.8,11.3L16.8,11.3z M23.8,31.5
    c0,0.4-0.3,0.7-0.7,0.7h-8.6c-0.4,0-0.7-0.3-0.7-0.7V18.1c0-0.5,0.2-1.4,0.4-1.9l0.6-1.2c0.2,0,0.4,0.2,0.6,0.3
    c0.3,0.2,0.6,0.5,1.3,0.5s1-0.3,1.3-0.5c0.2-0.2,0.4-0.3,0.8-0.3c0.4,0,0.6,0.1,0.8,0.3c0.3,0.2,0.6,0.5,1.3,0.5
    c0.7,0,1-0.3,1.3-0.5c0.2-0.1,0.3-0.2,0.6-0.3l0.6,1.2c0.2,0.5,0.4,1.3,0.4,1.9L23.8,31.5L23.8,31.5z"/>
  <path fill="#FFFFFF" d="M15,28.9c-0.2,0-0.4,0.2-0.4,0.4V31c0,0.2,0.2,0.4,0.4,0.4s0.4-0.2,0.4-0.4v-1.6
    C15.4,29.1,15.3,28.9,15,28.9z"/>
  <path fill="#FFFFFF" d="M15.5,16.5c-0.2-0.1-0.4,0-0.5,0.2c-0.2,0.4-0.4,1.1-0.4,1.5v9.6c0,0.2,0.2,0.4,0.4,0.4s0.4-0.2,0.4-0.4
    v-9.6c0-0.3,0.1-0.9,0.3-1.1C15.8,16.8,15.7,16.6,15.5,16.5z"/>
  <path fill="#FFFFFF" d="M18,11.5h1.5c0.2,0,0.4-0.2,0.4-0.4s-0.2-0.4-0.4-0.4H18c-0.2,0-0.4,0.2-0.4,0.4S17.8,11.5,18,11.5L18,11.5
    z"/>
</g>
</svg>
